M48
INCH
T1C0.0100
T2C0.0118
T3C0.0138
T4C0.0236
T5C0.0394
T6C0.0433
T7C0.0472
T8C0.0512
T9C0.0520
T10C0.0630
%
G90
G05
T1
X4.3228Y-3.9488
X4.3307Y-4.8898
X4.3642Y-3.8484
X4.6732Y-3.0984
X4.7913Y-3.439
X4.815Y-3.7756
X4.88Y-3.8424
X5.3091Y-3.6713
X5.3091Y-3.7008
X5.3091Y-3.7244
X5.4685Y-3.7953
X5.4685Y-3.8209
X5.5827Y-3.7303
X5.5925Y-3.75
X5.6142Y-3.6693
X5.6142Y-3.9173
X5.6142Y-4.0
X5.622Y-3.7913
X5.622Y-3.8386
X5.6319Y-3.687
X5.6457Y-3.815
X5.6535Y-3.687
X5.6693Y-3.7913
X5.6693Y-3.8386
X5.6772Y-3.908
X5.6971Y-3.75
X5.707Y-3.7303
X5.7087Y-3.937
X5.8211Y-3.7953
X5.8211Y-3.8209
X5.9843Y-4.7874
X5.9921Y-3.6713
X6.0217Y-3.8898
X6.061Y-3.8681
X6.252Y-4.4724
X6.2677Y-4.4961
X6.3366Y-4.6102
X6.3996Y-3.8681
X6.4272Y-3.9173
X6.437Y-4.6752
X6.5039Y-3.9173
X6.5236Y-3.9016
X6.5476Y-3.9087
X6.573Y-3.9073
X6.5748Y-4.1811
X6.585Y-4.02
X6.6158Y-4.2851
X6.6929Y-3.8445
X6.7579Y-4.6732
X6.8031Y-3.9685
X6.8583Y-3.9685
X6.8622Y-4.0906
X6.874Y-5.0787
X6.8858Y-4.1181
X6.939Y-4.6476
X6.9626Y-4.1378
X7.0453Y-4.6732
T2
X4.7114Y-3.5165
X4.7114Y-3.5559
X4.7488Y-3.5165
X4.7488Y-3.5559
X4.7862Y-3.5165
X4.7862Y-3.5559
T3
X6.56Y-4.05
X6.56Y-4.1002
X6.56Y-4.1504
X6.6102Y-4.05
X6.6102Y-4.1002
X6.6102Y-4.1504
X6.6604Y-4.05
X6.6604Y-4.1002
X6.6604Y-4.1504
T5
X4.6398Y-3.03
X4.6398Y-5.092
X4.6398Y-5.192
X4.64Y-2.7802
X4.64Y-2.8802
X4.7398Y-3.03
X4.9528Y-4.6313
X4.9528Y-4.7313
X5.0402Y-3.81
X5.1402Y-3.81
X6.3337Y-2.6431
X6.3337Y-2.7431
X6.4337Y-2.6431
X6.4337Y-2.7431
X6.5337Y-2.6431
X6.5337Y-2.7431
X6.76Y-5.1798
X6.76Y-5.2798
X7.0996Y-4.7559
X7.0996Y-4.8559
X7.0996Y-4.9559
X7.0998Y-3.9939
X7.0998Y-4.0939
X7.0998Y-4.1939
X7.1Y-3.3467
X7.1Y-3.4467
X7.1Y-3.5467
X7.1Y-3.6467
X7.1Y-3.7467
X7.1Y-3.8467
X7.1996Y-4.7559
X7.1996Y-4.8559
X7.1996Y-4.9559
X7.1998Y-3.9939
X7.1998Y-4.0939
X7.1998Y-4.1939
X7.2Y-3.3467
X7.2Y-3.4467
X7.2Y-3.5467
X7.2Y-3.6467
X7.2Y-3.7467
X7.2Y-3.8467
T6
X5.908Y-4.4203
X6.0064Y-4.4203
X6.1048Y-4.4203
X6.3501Y-4.6656
X6.3501Y-4.764
X6.3501Y-4.8624
T7
X5.4243Y-2.7831
X5.4243Y-3.0586
X5.5621Y-2.7831
X5.5621Y-3.0586
X5.6999Y-2.7831
X5.6999Y-3.0586
X5.8377Y-2.7831
X5.8377Y-3.0586
T8
X5.8784Y-4.9904
X5.8784Y-5.1675
X6.1344Y-4.9904
X6.1344Y-5.1675
T9
X4.12Y-2.7083
X4.12Y-5.5517
T10
X5.7574Y-4.5671
X5.7574Y-4.9608
X6.2554Y-4.5671
X6.2554Y-4.9608
T4
G00X6.4399Y-5.4061
M15
G01X6.4399Y-5.4494
M16
G05
G00X6.4399Y-5.5766
M15
G01X6.4399Y-5.6081
M16
G05
G00X6.7801Y-5.4061
M15
G01X6.7801Y-5.4494
M16
G05
G00X6.7801Y-5.5766
M15
G01X6.7801Y-5.6081
M16
G05
M30
