%TF.GenerationSoftware,KiCad,Pcbnew,8.0.6*%
%TF.CreationDate,2024-10-28T23:36:15+00:00*%
%TF.ProjectId,StepUp,53746570-5570-42e6-9b69-6361645f7063,v0.1*%
%TF.SameCoordinates,Original*%
%TF.FileFunction,Legend,Bot*%
%TF.FilePolarity,Positive*%
%FSLAX46Y46*%
G04 Gerber Fmt 4.6, Leading zero omitted, Abs format (unit mm)*
G04 Created by KiCad (PCBNEW 8.0.6) date 2024-10-28 23:36:15*
%MOMM*%
%LPD*%
G01*
G04 APERTURE LIST*
%ADD10C,0.300000*%
%ADD11C,0.150000*%
%ADD12C,0.230000*%
%ADD13C,0.250000*%
%ADD14C,0.254000*%
%ADD15C,0.200000*%
%ADD16C,0.100000*%
%ADD17C,0.127000*%
%ADD18C,0.120000*%
%ADD19C,0.350000*%
%ADD20O,0.600000X1.700000*%
%ADD21O,0.600000X1.400000*%
%ADD22C,0.300000*%
G04 APERTURE END LIST*
D10*
X66158000Y-70420000D02*
X66158000Y-66420000D01*
D11*
X68658000Y-68420000D02*
G75*
G02*
X63658000Y-68420000I-2500000J0D01*
G01*
X63658000Y-68420000D02*
G75*
G02*
X68658000Y-68420000I2500000J0D01*
G01*
X96408000Y-128790000D02*
X93558000Y-128790000D01*
X95008000Y-124040000D02*
X97808000Y-124040000D01*
X99858000Y-129240000D02*
X97308000Y-122740000D01*
X68658000Y-103220000D02*
G75*
G02*
X63658000Y-103220000I-2500000J0D01*
G01*
X63658000Y-103220000D02*
G75*
G02*
X68658000Y-103220000I2500000J0D01*
G01*
X96558000Y-128265000D02*
X96258000Y-129315000D01*
X62533000Y-71520000D02*
X69783000Y-71520000D01*
X69783000Y-99970000D01*
X62533000Y-99970000D01*
X62533000Y-71520000D01*
X96158000Y-127240000D02*
X99058000Y-127240000D01*
D10*
X64158000Y-103220000D02*
X68158000Y-103220000D01*
X64158000Y-68420000D02*
X68158000Y-68420000D01*
D11*
X95758000Y-125990000D02*
X98558000Y-125990000D01*
X95008000Y-124040000D02*
X93408000Y-129290000D01*
X95408000Y-124990000D02*
X98208000Y-124990000D01*
X96933000Y-129465000D02*
X94558000Y-122740000D01*
X96658000Y-128490000D02*
X99558000Y-128490000D01*
D12*
X67105413Y-74323695D02*
X67105413Y-73009410D01*
X67105413Y-73666553D02*
X64805413Y-73666553D01*
X64805413Y-73666553D02*
X65133985Y-73447505D01*
X65133985Y-73447505D02*
X65353032Y-73228457D01*
X65353032Y-73228457D02*
X65462556Y-73009410D01*
X67105413Y-76842743D02*
X65572080Y-78047505D01*
X65572080Y-76842743D02*
X67105413Y-78047505D01*
X67105413Y-81880838D02*
X67105413Y-80566553D01*
X67105413Y-81223696D02*
X64805413Y-81223696D01*
X64805413Y-81223696D02*
X65133985Y-81004648D01*
X65133985Y-81004648D02*
X65353032Y-80785600D01*
X65353032Y-80785600D02*
X65462556Y-80566553D01*
X65791128Y-83195124D02*
X65681604Y-82976076D01*
X65681604Y-82976076D02*
X65572080Y-82866553D01*
X65572080Y-82866553D02*
X65353032Y-82757029D01*
X65353032Y-82757029D02*
X65243509Y-82757029D01*
X65243509Y-82757029D02*
X65024461Y-82866553D01*
X65024461Y-82866553D02*
X64914937Y-82976076D01*
X64914937Y-82976076D02*
X64805413Y-83195124D01*
X64805413Y-83195124D02*
X64805413Y-83633219D01*
X64805413Y-83633219D02*
X64914937Y-83852267D01*
X64914937Y-83852267D02*
X65024461Y-83961791D01*
X65024461Y-83961791D02*
X65243509Y-84071314D01*
X65243509Y-84071314D02*
X65353032Y-84071314D01*
X65353032Y-84071314D02*
X65572080Y-83961791D01*
X65572080Y-83961791D02*
X65681604Y-83852267D01*
X65681604Y-83852267D02*
X65791128Y-83633219D01*
X65791128Y-83633219D02*
X65791128Y-83195124D01*
X65791128Y-83195124D02*
X65900651Y-82976076D01*
X65900651Y-82976076D02*
X66010175Y-82866553D01*
X66010175Y-82866553D02*
X66229223Y-82757029D01*
X66229223Y-82757029D02*
X66667318Y-82757029D01*
X66667318Y-82757029D02*
X66886366Y-82866553D01*
X66886366Y-82866553D02*
X66995890Y-82976076D01*
X66995890Y-82976076D02*
X67105413Y-83195124D01*
X67105413Y-83195124D02*
X67105413Y-83633219D01*
X67105413Y-83633219D02*
X66995890Y-83852267D01*
X66995890Y-83852267D02*
X66886366Y-83961791D01*
X66886366Y-83961791D02*
X66667318Y-84071314D01*
X66667318Y-84071314D02*
X66229223Y-84071314D01*
X66229223Y-84071314D02*
X66010175Y-83961791D01*
X66010175Y-83961791D02*
X65900651Y-83852267D01*
X65900651Y-83852267D02*
X65791128Y-83633219D01*
X64805413Y-86042743D02*
X64805413Y-85604648D01*
X64805413Y-85604648D02*
X64914937Y-85385600D01*
X64914937Y-85385600D02*
X65024461Y-85276076D01*
X65024461Y-85276076D02*
X65353032Y-85057029D01*
X65353032Y-85057029D02*
X65791128Y-84947505D01*
X65791128Y-84947505D02*
X66667318Y-84947505D01*
X66667318Y-84947505D02*
X66886366Y-85057029D01*
X66886366Y-85057029D02*
X66995890Y-85166552D01*
X66995890Y-85166552D02*
X67105413Y-85385600D01*
X67105413Y-85385600D02*
X67105413Y-85823695D01*
X67105413Y-85823695D02*
X66995890Y-86042743D01*
X66995890Y-86042743D02*
X66886366Y-86152267D01*
X66886366Y-86152267D02*
X66667318Y-86261790D01*
X66667318Y-86261790D02*
X66119699Y-86261790D01*
X66119699Y-86261790D02*
X65900651Y-86152267D01*
X65900651Y-86152267D02*
X65791128Y-86042743D01*
X65791128Y-86042743D02*
X65681604Y-85823695D01*
X65681604Y-85823695D02*
X65681604Y-85385600D01*
X65681604Y-85385600D02*
X65791128Y-85166552D01*
X65791128Y-85166552D02*
X65900651Y-85057029D01*
X65900651Y-85057029D02*
X66119699Y-84947505D01*
X64805413Y-88342743D02*
X64805413Y-87247505D01*
X64805413Y-87247505D02*
X65900651Y-87137981D01*
X65900651Y-87137981D02*
X65791128Y-87247505D01*
X65791128Y-87247505D02*
X65681604Y-87466552D01*
X65681604Y-87466552D02*
X65681604Y-88014171D01*
X65681604Y-88014171D02*
X65791128Y-88233219D01*
X65791128Y-88233219D02*
X65900651Y-88342743D01*
X65900651Y-88342743D02*
X66119699Y-88452266D01*
X66119699Y-88452266D02*
X66667318Y-88452266D01*
X66667318Y-88452266D02*
X66886366Y-88342743D01*
X66886366Y-88342743D02*
X66995890Y-88233219D01*
X66995890Y-88233219D02*
X67105413Y-88014171D01*
X67105413Y-88014171D02*
X67105413Y-87466552D01*
X67105413Y-87466552D02*
X66995890Y-87247505D01*
X66995890Y-87247505D02*
X66886366Y-87137981D01*
X64805413Y-89876076D02*
X64805413Y-90095123D01*
X64805413Y-90095123D02*
X64914937Y-90314171D01*
X64914937Y-90314171D02*
X65024461Y-90423695D01*
X65024461Y-90423695D02*
X65243509Y-90533219D01*
X65243509Y-90533219D02*
X65681604Y-90642742D01*
X65681604Y-90642742D02*
X66229223Y-90642742D01*
X66229223Y-90642742D02*
X66667318Y-90533219D01*
X66667318Y-90533219D02*
X66886366Y-90423695D01*
X66886366Y-90423695D02*
X66995890Y-90314171D01*
X66995890Y-90314171D02*
X67105413Y-90095123D01*
X67105413Y-90095123D02*
X67105413Y-89876076D01*
X67105413Y-89876076D02*
X66995890Y-89657028D01*
X66995890Y-89657028D02*
X66886366Y-89547504D01*
X66886366Y-89547504D02*
X66667318Y-89437981D01*
X66667318Y-89437981D02*
X66229223Y-89328457D01*
X66229223Y-89328457D02*
X65681604Y-89328457D01*
X65681604Y-89328457D02*
X65243509Y-89437981D01*
X65243509Y-89437981D02*
X65024461Y-89547504D01*
X65024461Y-89547504D02*
X64914937Y-89657028D01*
X64914937Y-89657028D02*
X64805413Y-89876076D01*
X66995890Y-94366552D02*
X67105413Y-94147504D01*
X67105413Y-94147504D02*
X67105413Y-93709409D01*
X67105413Y-93709409D02*
X66995890Y-93490361D01*
X66995890Y-93490361D02*
X66886366Y-93380838D01*
X66886366Y-93380838D02*
X66667318Y-93271314D01*
X66667318Y-93271314D02*
X66010175Y-93271314D01*
X66010175Y-93271314D02*
X65791128Y-93380838D01*
X65791128Y-93380838D02*
X65681604Y-93490361D01*
X65681604Y-93490361D02*
X65572080Y-93709409D01*
X65572080Y-93709409D02*
X65572080Y-94147504D01*
X65572080Y-94147504D02*
X65681604Y-94366552D01*
X66995890Y-96228457D02*
X67105413Y-96009409D01*
X67105413Y-96009409D02*
X67105413Y-95571314D01*
X67105413Y-95571314D02*
X66995890Y-95352267D01*
X66995890Y-95352267D02*
X66776842Y-95242743D01*
X66776842Y-95242743D02*
X65900651Y-95242743D01*
X65900651Y-95242743D02*
X65681604Y-95352267D01*
X65681604Y-95352267D02*
X65572080Y-95571314D01*
X65572080Y-95571314D02*
X65572080Y-96009409D01*
X65572080Y-96009409D02*
X65681604Y-96228457D01*
X65681604Y-96228457D02*
X65900651Y-96337981D01*
X65900651Y-96337981D02*
X66119699Y-96337981D01*
X66119699Y-96337981D02*
X66338747Y-95242743D01*
X67105413Y-97652267D02*
X66995890Y-97433219D01*
X66995890Y-97433219D02*
X66776842Y-97323696D01*
X66776842Y-97323696D02*
X64805413Y-97323696D01*
X67105413Y-98857029D02*
X66995890Y-98637981D01*
X66995890Y-98637981D02*
X66776842Y-98528458D01*
X66776842Y-98528458D02*
X64805413Y-98528458D01*
D11*
G36*
X101577858Y-87519077D02*
G01*
X101649800Y-87591019D01*
X101690142Y-87752386D01*
X101690142Y-88067251D01*
X101649800Y-88228617D01*
X101577857Y-88300561D01*
X101509342Y-88334819D01*
X101354276Y-88334819D01*
X101285760Y-88300561D01*
X101213817Y-88228617D01*
X101173476Y-88067251D01*
X101173476Y-87752386D01*
X101213817Y-87591019D01*
X101285760Y-87519077D01*
X101354276Y-87484819D01*
X101509342Y-87484819D01*
X101577858Y-87519077D01*
G37*
G36*
X98547285Y-87858628D02*
G01*
X98259038Y-87858628D01*
X98190522Y-87824370D01*
X98160115Y-87793963D01*
X98125857Y-87725447D01*
X98125857Y-87618000D01*
X98160115Y-87549484D01*
X98190522Y-87519077D01*
X98259038Y-87484819D01*
X98547285Y-87484819D01*
X98547285Y-87858628D01*
G37*
G36*
X102642523Y-87858628D02*
G01*
X102354276Y-87858628D01*
X102285760Y-87824370D01*
X102255353Y-87793963D01*
X102221095Y-87725447D01*
X102221095Y-87618000D01*
X102255353Y-87549484D01*
X102285760Y-87519077D01*
X102354276Y-87484819D01*
X102642523Y-87484819D01*
X102642523Y-87858628D01*
G37*
G36*
X102903634Y-88595930D02*
G01*
X97864746Y-88595930D01*
X97864746Y-87600295D01*
X97975857Y-87600295D01*
X97975857Y-87743152D01*
X97977298Y-87757784D01*
X97978329Y-87760273D01*
X97978520Y-87762961D01*
X97983775Y-87776693D01*
X98031394Y-87871931D01*
X98035358Y-87878230D01*
X98036116Y-87880058D01*
X98037804Y-87882114D01*
X98039226Y-87884374D01*
X98040724Y-87885673D01*
X98045443Y-87891423D01*
X98093062Y-87939042D01*
X98098811Y-87943760D01*
X98100111Y-87945259D01*
X98102370Y-87946680D01*
X98104427Y-87948369D01*
X98106254Y-87949126D01*
X98112554Y-87953091D01*
X98207792Y-88000710D01*
X98221523Y-88005965D01*
X98224212Y-88006156D01*
X98226701Y-88007187D01*
X98240218Y-88008518D01*
X97989415Y-88366809D01*
X97982204Y-88379623D01*
X97975875Y-88408194D01*
X97980960Y-88437011D01*
X97996687Y-88461690D01*
X98020661Y-88478472D01*
X98049232Y-88484801D01*
X98078049Y-88479716D01*
X98102728Y-88463989D01*
X98112299Y-88452829D01*
X98423239Y-88008628D01*
X98547285Y-88008628D01*
X98547285Y-88409819D01*
X98548726Y-88424451D01*
X98559925Y-88451487D01*
X98580617Y-88472179D01*
X98607653Y-88483378D01*
X98636917Y-88483378D01*
X98663953Y-88472179D01*
X98684645Y-88451487D01*
X98695844Y-88424451D01*
X98697285Y-88409819D01*
X98697285Y-87409819D01*
X98695844Y-87395187D01*
X98977298Y-87395187D01*
X98977298Y-87424451D01*
X98988497Y-87451487D01*
X99009189Y-87472179D01*
X99036225Y-87483378D01*
X99050857Y-87484819D01*
X99452047Y-87484819D01*
X99452047Y-87811009D01*
X99193714Y-87811009D01*
X99179082Y-87812450D01*
X99152046Y-87823649D01*
X99131354Y-87844341D01*
X99120155Y-87871377D01*
X99120155Y-87900641D01*
X99131354Y-87927677D01*
X99152046Y-87948369D01*
X99179082Y-87959568D01*
X99193714Y-87961009D01*
X99452047Y-87961009D01*
X99452047Y-88334819D01*
X99050857Y-88334819D01*
X99036225Y-88336260D01*
X99009189Y-88347459D01*
X98988497Y-88368151D01*
X98977298Y-88395187D01*
X98977298Y-88424451D01*
X98988497Y-88451487D01*
X99009189Y-88472179D01*
X99036225Y-88483378D01*
X99050857Y-88484819D01*
X99527047Y-88484819D01*
X99541679Y-88483378D01*
X99568715Y-88472179D01*
X99589407Y-88451487D01*
X99600606Y-88424451D01*
X99602047Y-88409819D01*
X99602047Y-87412623D01*
X99833052Y-87412623D01*
X99835040Y-87427191D01*
X100073135Y-88427191D01*
X100074864Y-88432210D01*
X100075104Y-88434012D01*
X100076046Y-88435640D01*
X100077925Y-88441091D01*
X100084311Y-88449915D01*
X100089766Y-88459337D01*
X100092823Y-88461677D01*
X100095082Y-88464798D01*
X100104357Y-88470505D01*
X100113004Y-88477124D01*
X100116724Y-88478116D01*
X100120004Y-88480134D01*
X100130758Y-88481858D01*
X100141280Y-88484664D01*
X100145095Y-88484157D01*
X100148899Y-88484767D01*
X100159497Y-88482243D01*
X100170288Y-88480810D01*
X100173619Y-88478881D01*
X100177367Y-88477989D01*
X100186191Y-88471602D01*
X100195613Y-88466148D01*
X100197953Y-88463090D01*
X100201074Y-88460832D01*
X100206781Y-88451556D01*
X100213400Y-88442910D01*
X100215425Y-88437510D01*
X100216410Y-88435910D01*
X100216697Y-88434118D01*
X100218563Y-88429144D01*
X100336570Y-87986613D01*
X100454579Y-88429144D01*
X100456444Y-88434119D01*
X100456732Y-88435910D01*
X100457716Y-88437509D01*
X100459742Y-88442911D01*
X100466362Y-88451559D01*
X100472068Y-88460832D01*
X100475188Y-88463090D01*
X100477529Y-88466148D01*
X100486950Y-88471602D01*
X100495775Y-88477989D01*
X100499522Y-88478881D01*
X100502854Y-88480810D01*
X100513647Y-88482244D01*
X100524243Y-88484767D01*
X100528044Y-88484157D01*
X100531863Y-88484665D01*
X100542394Y-88481856D01*
X100553138Y-88480134D01*
X100556414Y-88478118D01*
X100560138Y-88477125D01*
X100568788Y-88470503D01*
X100578060Y-88464798D01*
X100580318Y-88461677D01*
X100583376Y-88459337D01*
X100588831Y-88449914D01*
X100595217Y-88441091D01*
X100597094Y-88435642D01*
X100598038Y-88434013D01*
X100598277Y-88432209D01*
X100600007Y-88427191D01*
X100762873Y-87743152D01*
X101023476Y-87743152D01*
X101023476Y-88076485D01*
X101023727Y-88079038D01*
X101023565Y-88080131D01*
X101024374Y-88085604D01*
X101024917Y-88091117D01*
X101025339Y-88092138D01*
X101025715Y-88094675D01*
X101073334Y-88285151D01*
X101078281Y-88298997D01*
X101081600Y-88303476D01*
X101083734Y-88308628D01*
X101093062Y-88319994D01*
X101188300Y-88415233D01*
X101194050Y-88419953D01*
X101195349Y-88421450D01*
X101197603Y-88422869D01*
X101199665Y-88424561D01*
X101201497Y-88425319D01*
X101207792Y-88429282D01*
X101303030Y-88476901D01*
X101316761Y-88482156D01*
X101319450Y-88482347D01*
X101321939Y-88483378D01*
X101336571Y-88484819D01*
X101527047Y-88484819D01*
X101541679Y-88483378D01*
X101544168Y-88482346D01*
X101546856Y-88482156D01*
X101560588Y-88476901D01*
X101655826Y-88429282D01*
X101662125Y-88425317D01*
X101663953Y-88424560D01*
X101666009Y-88422871D01*
X101668269Y-88421450D01*
X101669568Y-88419951D01*
X101675318Y-88415233D01*
X101770557Y-88319993D01*
X101779884Y-88308628D01*
X101782017Y-88303476D01*
X101785337Y-88298997D01*
X101790284Y-88285151D01*
X101837903Y-88094675D01*
X101838278Y-88092138D01*
X101838701Y-88091117D01*
X101839243Y-88085604D01*
X101840053Y-88080131D01*
X101839890Y-88079038D01*
X101840142Y-88076485D01*
X101840142Y-87743152D01*
X101839890Y-87740598D01*
X101840053Y-87739506D01*
X101839243Y-87734032D01*
X101838701Y-87728520D01*
X101838278Y-87727498D01*
X101837903Y-87724962D01*
X101806736Y-87600295D01*
X102071095Y-87600295D01*
X102071095Y-87743152D01*
X102072536Y-87757784D01*
X102073567Y-87760273D01*
X102073758Y-87762961D01*
X102079013Y-87776693D01*
X102126632Y-87871931D01*
X102130596Y-87878230D01*
X102131354Y-87880058D01*
X102133042Y-87882114D01*
X102134464Y-87884374D01*
X102135962Y-87885673D01*
X102140681Y-87891423D01*
X102188300Y-87939042D01*
X102194049Y-87943760D01*
X102195349Y-87945259D01*
X102197608Y-87946680D01*
X102199665Y-87948369D01*
X102201492Y-87949126D01*
X102207792Y-87953091D01*
X102303030Y-88000710D01*
X102316761Y-88005965D01*
X102319450Y-88006156D01*
X102321939Y-88007187D01*
X102336571Y-88008628D01*
X102642523Y-88008628D01*
X102642523Y-88409819D01*
X102643964Y-88424451D01*
X102655163Y-88451487D01*
X102675855Y-88472179D01*
X102702891Y-88483378D01*
X102732155Y-88483378D01*
X102759191Y-88472179D01*
X102779883Y-88451487D01*
X102791082Y-88424451D01*
X102792523Y-88409819D01*
X102792523Y-87409819D01*
X102791082Y-87395187D01*
X102779883Y-87368151D01*
X102759191Y-87347459D01*
X102732155Y-87336260D01*
X102717523Y-87334819D01*
X102336571Y-87334819D01*
X102321939Y-87336260D01*
X102319450Y-87337290D01*
X102316761Y-87337482D01*
X102303030Y-87342737D01*
X102207792Y-87390356D01*
X102201492Y-87394320D01*
X102199665Y-87395078D01*
X102197608Y-87396766D01*
X102195349Y-87398188D01*
X102194049Y-87399686D01*
X102188300Y-87404405D01*
X102140681Y-87452024D01*
X102135962Y-87457773D01*
X102134464Y-87459073D01*
X102133042Y-87461332D01*
X102131354Y-87463389D01*
X102130596Y-87465216D01*
X102126632Y-87471516D01*
X102079013Y-87566754D01*
X102073758Y-87580486D01*
X102073567Y-87583173D01*
X102072536Y-87585663D01*
X102071095Y-87600295D01*
X101806736Y-87600295D01*
X101790284Y-87534486D01*
X101785337Y-87520640D01*
X101782018Y-87516161D01*
X101779884Y-87511008D01*
X101770556Y-87499643D01*
X101675318Y-87404405D01*
X101669568Y-87399686D01*
X101668269Y-87398188D01*
X101666009Y-87396766D01*
X101663953Y-87395078D01*
X101662125Y-87394320D01*
X101655826Y-87390356D01*
X101560588Y-87342737D01*
X101546856Y-87337482D01*
X101544168Y-87337291D01*
X101541679Y-87336260D01*
X101527047Y-87334819D01*
X101336571Y-87334819D01*
X101321939Y-87336260D01*
X101319450Y-87337290D01*
X101316761Y-87337482D01*
X101303030Y-87342737D01*
X101207792Y-87390356D01*
X101201497Y-87394318D01*
X101199665Y-87395077D01*
X101197603Y-87396768D01*
X101195349Y-87398188D01*
X101194050Y-87399684D01*
X101188300Y-87404405D01*
X101093062Y-87499643D01*
X101083735Y-87511008D01*
X101081601Y-87516158D01*
X101078281Y-87520640D01*
X101073334Y-87534486D01*
X101025715Y-87724962D01*
X101025339Y-87727498D01*
X101024917Y-87728520D01*
X101024374Y-87734032D01*
X101023565Y-87739506D01*
X101023727Y-87740598D01*
X101023476Y-87743152D01*
X100762873Y-87743152D01*
X100838102Y-87427190D01*
X100840090Y-87412623D01*
X100835457Y-87383728D01*
X100820121Y-87358806D01*
X100796414Y-87341649D01*
X100767946Y-87334871D01*
X100739051Y-87339504D01*
X100714129Y-87354840D01*
X100696972Y-87378547D01*
X100692182Y-87392447D01*
X100522930Y-88103303D01*
X100409039Y-87676208D01*
X100407753Y-87672780D01*
X100407562Y-87671339D01*
X100406570Y-87669626D01*
X100403876Y-87662442D01*
X100397861Y-87654583D01*
X100392900Y-87646015D01*
X100389041Y-87643061D01*
X100386089Y-87639204D01*
X100377524Y-87634245D01*
X100369662Y-87628227D01*
X100364965Y-87626974D01*
X100360764Y-87624542D01*
X100350957Y-87623239D01*
X100341387Y-87620687D01*
X100336568Y-87621327D01*
X100331756Y-87620688D01*
X100322195Y-87623237D01*
X100312378Y-87624542D01*
X100308172Y-87626976D01*
X100303480Y-87628228D01*
X100295620Y-87634243D01*
X100287053Y-87639204D01*
X100284099Y-87643062D01*
X100280242Y-87646015D01*
X100275283Y-87654580D01*
X100269266Y-87662441D01*
X100266569Y-87669630D01*
X100265580Y-87671340D01*
X100265388Y-87672779D01*
X100264103Y-87676208D01*
X100150211Y-88103303D01*
X99980960Y-87392447D01*
X99976170Y-87378547D01*
X99959013Y-87354840D01*
X99934091Y-87339504D01*
X99905196Y-87334871D01*
X99876728Y-87341649D01*
X99853021Y-87358806D01*
X99837685Y-87383728D01*
X99833052Y-87412623D01*
X99602047Y-87412623D01*
X99602047Y-87409819D01*
X99600606Y-87395187D01*
X99589407Y-87368151D01*
X99568715Y-87347459D01*
X99541679Y-87336260D01*
X99527047Y-87334819D01*
X99050857Y-87334819D01*
X99036225Y-87336260D01*
X99009189Y-87347459D01*
X98988497Y-87368151D01*
X98977298Y-87395187D01*
X98695844Y-87395187D01*
X98684645Y-87368151D01*
X98663953Y-87347459D01*
X98636917Y-87336260D01*
X98622285Y-87334819D01*
X98241333Y-87334819D01*
X98226701Y-87336260D01*
X98224212Y-87337290D01*
X98221523Y-87337482D01*
X98207792Y-87342737D01*
X98112554Y-87390356D01*
X98106254Y-87394320D01*
X98104427Y-87395078D01*
X98102370Y-87396766D01*
X98100111Y-87398188D01*
X98098811Y-87399686D01*
X98093062Y-87404405D01*
X98045443Y-87452024D01*
X98040724Y-87457773D01*
X98039226Y-87459073D01*
X98037804Y-87461332D01*
X98036116Y-87463389D01*
X98035358Y-87465216D01*
X98031394Y-87471516D01*
X97983775Y-87566754D01*
X97978520Y-87580486D01*
X97978329Y-87583173D01*
X97977298Y-87585663D01*
X97975857Y-87600295D01*
X97864746Y-87600295D01*
X97864746Y-87223708D01*
X102903634Y-87223708D01*
X102903634Y-88595930D01*
G37*
X93118839Y-129112200D02*
X92975982Y-129159819D01*
X92975982Y-129159819D02*
X92737887Y-129159819D01*
X92737887Y-129159819D02*
X92642649Y-129112200D01*
X92642649Y-129112200D02*
X92595030Y-129064580D01*
X92595030Y-129064580D02*
X92547411Y-128969342D01*
X92547411Y-128969342D02*
X92547411Y-128874104D01*
X92547411Y-128874104D02*
X92595030Y-128778866D01*
X92595030Y-128778866D02*
X92642649Y-128731247D01*
X92642649Y-128731247D02*
X92737887Y-128683628D01*
X92737887Y-128683628D02*
X92928363Y-128636009D01*
X92928363Y-128636009D02*
X93023601Y-128588390D01*
X93023601Y-128588390D02*
X93071220Y-128540771D01*
X93071220Y-128540771D02*
X93118839Y-128445533D01*
X93118839Y-128445533D02*
X93118839Y-128350295D01*
X93118839Y-128350295D02*
X93071220Y-128255057D01*
X93071220Y-128255057D02*
X93023601Y-128207438D01*
X93023601Y-128207438D02*
X92928363Y-128159819D01*
X92928363Y-128159819D02*
X92690268Y-128159819D01*
X92690268Y-128159819D02*
X92547411Y-128207438D01*
X91833125Y-128159819D02*
X91833125Y-128874104D01*
X91833125Y-128874104D02*
X91880744Y-129016961D01*
X91880744Y-129016961D02*
X91975982Y-129112200D01*
X91975982Y-129112200D02*
X92118839Y-129159819D01*
X92118839Y-129159819D02*
X92214077Y-129159819D01*
X91023601Y-128636009D02*
X91356934Y-128636009D01*
X91356934Y-129159819D02*
X91356934Y-128159819D01*
X91356934Y-128159819D02*
X90880744Y-128159819D01*
X90309315Y-128159819D02*
X90118839Y-128159819D01*
X90118839Y-128159819D02*
X90023601Y-128207438D01*
X90023601Y-128207438D02*
X89928363Y-128302676D01*
X89928363Y-128302676D02*
X89880744Y-128493152D01*
X89880744Y-128493152D02*
X89880744Y-128826485D01*
X89880744Y-128826485D02*
X89928363Y-129016961D01*
X89928363Y-129016961D02*
X90023601Y-129112200D01*
X90023601Y-129112200D02*
X90118839Y-129159819D01*
X90118839Y-129159819D02*
X90309315Y-129159819D01*
X90309315Y-129159819D02*
X90404553Y-129112200D01*
X90404553Y-129112200D02*
X90499791Y-129016961D01*
X90499791Y-129016961D02*
X90547410Y-128826485D01*
X90547410Y-128826485D02*
X90547410Y-128493152D01*
X90547410Y-128493152D02*
X90499791Y-128302676D01*
X90499791Y-128302676D02*
X90404553Y-128207438D01*
X90404553Y-128207438D02*
X90309315Y-128159819D01*
X89452172Y-129159819D02*
X89452172Y-128159819D01*
X89452172Y-128159819D02*
X89118839Y-128874104D01*
X89118839Y-128874104D02*
X88785506Y-128159819D01*
X88785506Y-128159819D02*
X88785506Y-129159819D01*
D13*
G36*
X101875657Y-71148605D02*
G01*
X102035716Y-71228635D01*
X102102269Y-71295187D01*
X102175238Y-71441125D01*
X102175238Y-71572586D01*
X102102269Y-71718523D01*
X102035716Y-71785075D01*
X101875657Y-71865105D01*
X101522944Y-71953284D01*
X101077531Y-71953284D01*
X100724817Y-71865105D01*
X100564758Y-71785076D01*
X100498208Y-71718526D01*
X100425238Y-71572585D01*
X100425238Y-71441125D01*
X100498208Y-71295184D01*
X100564758Y-71228635D01*
X100724817Y-71148605D01*
X101077531Y-71060427D01*
X101522944Y-71060427D01*
X101875657Y-71148605D01*
G37*
G36*
X102175238Y-63917314D02*
G01*
X102175238Y-64239251D01*
X102102269Y-64385188D01*
X102035716Y-64451740D01*
X101889777Y-64524711D01*
X101377365Y-64524711D01*
X101231423Y-64451740D01*
X101164874Y-64385191D01*
X101091904Y-64239250D01*
X101091904Y-63917314D01*
X101139396Y-63822330D01*
X102127746Y-63822330D01*
X102175238Y-63917314D01*
G37*
G36*
X102175238Y-60012552D02*
G01*
X102175238Y-60334489D01*
X102102269Y-60480426D01*
X102035716Y-60546978D01*
X101889777Y-60619949D01*
X101377365Y-60619949D01*
X101231423Y-60546978D01*
X101164874Y-60480429D01*
X101091904Y-60334488D01*
X101091904Y-60012552D01*
X101139396Y-59917568D01*
X102127746Y-59917568D01*
X102175238Y-60012552D01*
G37*
G36*
X101340619Y-58810425D02*
G01*
X101282127Y-58810425D01*
X101155311Y-58747017D01*
X101091904Y-58620202D01*
X101091904Y-58298266D01*
X101155311Y-58171451D01*
X101282127Y-58108044D01*
X101481095Y-58108044D01*
X101340619Y-58810425D01*
G37*
G36*
X103311724Y-75282649D02*
G01*
X99953016Y-75282649D01*
X99953016Y-74078284D01*
X100175238Y-74078284D01*
X100175238Y-74554475D01*
X100177640Y-74578861D01*
X100179358Y-74583009D01*
X100179677Y-74587491D01*
X100188435Y-74610377D01*
X100283673Y-74800853D01*
X100290280Y-74811349D01*
X100291543Y-74814397D01*
X100294359Y-74817828D01*
X100296727Y-74821590D01*
X100299221Y-74823753D01*
X100307088Y-74833339D01*
X100402326Y-74928577D01*
X100411911Y-74936443D01*
X100414075Y-74938938D01*
X100417836Y-74941305D01*
X100421268Y-74944122D01*
X100424315Y-74945384D01*
X100434812Y-74951992D01*
X100625289Y-75047231D01*
X100648174Y-75055988D01*
X100652655Y-75056306D01*
X100656804Y-75058025D01*
X100681190Y-75060427D01*
X100871666Y-75060427D01*
X100884009Y-75059211D01*
X100887300Y-75059445D01*
X100891629Y-75058460D01*
X100896052Y-75058025D01*
X100899103Y-75056761D01*
X100911194Y-75054012D01*
X101196908Y-74958774D01*
X101219283Y-74948784D01*
X101222676Y-74945840D01*
X101226826Y-74944122D01*
X101245768Y-74928577D01*
X102175238Y-73999108D01*
X102175238Y-74935427D01*
X102177640Y-74959813D01*
X102196304Y-75004873D01*
X102230792Y-75039361D01*
X102275852Y-75058025D01*
X102324624Y-75058025D01*
X102369684Y-75039361D01*
X102404172Y-75004873D01*
X102422836Y-74959813D01*
X102425238Y-74935427D01*
X102425238Y-73697332D01*
X102422836Y-73672946D01*
X102421605Y-73669972D01*
X102404172Y-73627885D01*
X102369685Y-73593398D01*
X102324625Y-73574734D01*
X102275852Y-73574734D01*
X102230792Y-73593398D01*
X102211850Y-73608943D01*
X101089857Y-74730935D01*
X100851383Y-74810427D01*
X100710698Y-74810427D01*
X100564758Y-74737457D01*
X100498208Y-74670907D01*
X100425238Y-74524966D01*
X100425238Y-74107792D01*
X100498208Y-73961851D01*
X100579102Y-73880958D01*
X100594647Y-73862016D01*
X100613312Y-73816957D01*
X100613312Y-73768183D01*
X100594647Y-73723124D01*
X100560160Y-73688637D01*
X100515101Y-73669972D01*
X100466327Y-73669972D01*
X100421268Y-73688637D01*
X100402326Y-73704182D01*
X100307088Y-73799420D01*
X100299221Y-73809005D01*
X100296727Y-73811169D01*
X100294359Y-73814930D01*
X100291543Y-73818362D01*
X100290280Y-73821409D01*
X100283673Y-73831906D01*
X100188435Y-74022382D01*
X100179677Y-74045268D01*
X100179358Y-74049749D01*
X100177640Y-74053898D01*
X100175238Y-74078284D01*
X99953016Y-74078284D01*
X99953016Y-72911041D01*
X101987163Y-72911041D01*
X101987163Y-72959813D01*
X102005827Y-73004873D01*
X102005828Y-73004874D01*
X102021373Y-73023816D01*
X102116612Y-73119054D01*
X102135554Y-73134599D01*
X102180614Y-73153264D01*
X102229388Y-73153263D01*
X102274447Y-73134598D01*
X102274451Y-73134593D01*
X102293388Y-73119053D01*
X102388626Y-73023815D01*
X102404166Y-73004878D01*
X102404172Y-73004873D01*
X102422836Y-72959813D01*
X102422836Y-72911041D01*
X102404172Y-72865981D01*
X102404166Y-72865975D01*
X102388626Y-72847039D01*
X102293388Y-72751801D01*
X102274451Y-72736260D01*
X102274447Y-72736256D01*
X102229388Y-72717591D01*
X102180614Y-72717590D01*
X102135554Y-72736255D01*
X102116612Y-72751800D01*
X102021373Y-72847038D01*
X102005828Y-72865980D01*
X102005827Y-72865981D01*
X101987163Y-72911041D01*
X99953016Y-72911041D01*
X99953016Y-71411617D01*
X100175238Y-71411617D01*
X100175238Y-71602094D01*
X100177640Y-71626480D01*
X100179358Y-71630628D01*
X100179677Y-71635110D01*
X100188435Y-71657996D01*
X100283673Y-71848472D01*
X100290280Y-71858968D01*
X100291543Y-71862016D01*
X100294359Y-71865447D01*
X100296727Y-71869209D01*
X100299221Y-71871372D01*
X100307088Y-71880958D01*
X100402326Y-71976196D01*
X100411911Y-71984062D01*
X100414075Y-71986557D01*
X100417836Y-71988924D01*
X100421268Y-71991741D01*
X100424315Y-71993003D01*
X100434812Y-71999611D01*
X100625289Y-72094850D01*
X100627075Y-72095533D01*
X100627798Y-72096069D01*
X100638016Y-72099720D01*
X100648174Y-72103607D01*
X100649073Y-72103670D01*
X100650873Y-72104314D01*
X101031825Y-72199552D01*
X101036054Y-72200177D01*
X101037756Y-72200882D01*
X101046935Y-72201786D01*
X101056065Y-72203136D01*
X101057887Y-72202864D01*
X101062142Y-72203284D01*
X101538333Y-72203284D01*
X101542587Y-72202864D01*
X101544409Y-72203136D01*
X101553537Y-72201786D01*
X101562719Y-72200882D01*
X101564420Y-72200177D01*
X101568650Y-72199552D01*
X101949602Y-72104314D01*
X101951401Y-72103670D01*
X101952301Y-72103607D01*
X101962447Y-72099724D01*
X101972677Y-72096069D01*
X101973401Y-72095532D01*
X101975187Y-72094849D01*
X102165663Y-71999611D01*
X102176155Y-71993005D01*
X102179207Y-71991742D01*
X102182643Y-71988921D01*
X102186400Y-71986557D01*
X102188560Y-71984065D01*
X102198149Y-71976197D01*
X102293388Y-71880959D01*
X102301257Y-71871370D01*
X102303749Y-71869209D01*
X102306114Y-71865451D01*
X102308933Y-71862017D01*
X102310196Y-71858966D01*
X102316803Y-71848472D01*
X102412042Y-71657995D01*
X102420799Y-71635110D01*
X102421117Y-71630628D01*
X102422836Y-71626480D01*
X102425238Y-71602094D01*
X102425238Y-71411617D01*
X102422836Y-71387231D01*
X102421117Y-71383082D01*
X102420799Y-71378601D01*
X102412042Y-71355716D01*
X102316803Y-71165239D01*
X102310196Y-71154744D01*
X102308933Y-71151694D01*
X102306114Y-71148259D01*
X102303749Y-71144502D01*
X102301257Y-71142340D01*
X102293388Y-71132752D01*
X102198149Y-71037514D01*
X102188560Y-71029645D01*
X102186400Y-71027154D01*
X102182643Y-71024789D01*
X102179207Y-71021969D01*
X102176155Y-71020705D01*
X102165663Y-71014100D01*
X101975187Y-70918862D01*
X101973401Y-70918178D01*
X101972677Y-70917642D01*
X101962447Y-70913986D01*
X101952301Y-70910104D01*
X101951401Y-70910040D01*
X101949602Y-70909397D01*
X101568650Y-70814159D01*
X101564420Y-70813533D01*
X101562719Y-70812829D01*
X101553537Y-70811924D01*
X101544409Y-70810575D01*
X101542587Y-70810846D01*
X101538333Y-70810427D01*
X101062142Y-70810427D01*
X101057887Y-70810846D01*
X101056065Y-70810575D01*
X101046935Y-70811924D01*
X101037756Y-70812829D01*
X101036054Y-70813533D01*
X101031825Y-70814159D01*
X100650873Y-70909397D01*
X100649073Y-70910040D01*
X100648174Y-70910104D01*
X100638016Y-70913990D01*
X100627798Y-70917642D01*
X100627075Y-70918177D01*
X100625289Y-70918861D01*
X100434812Y-71014100D01*
X100424315Y-71020707D01*
X100421268Y-71021970D01*
X100417836Y-71024786D01*
X100414075Y-71027154D01*
X100411911Y-71029648D01*
X100402326Y-71037515D01*
X100307088Y-71132753D01*
X100299221Y-71142338D01*
X100296727Y-71144502D01*
X100294359Y-71148263D01*
X100291543Y-71151695D01*
X100290280Y-71154742D01*
X100283673Y-71165239D01*
X100188435Y-71355715D01*
X100179677Y-71378601D01*
X100179358Y-71383082D01*
X100177640Y-71387231D01*
X100175238Y-71411617D01*
X99953016Y-71411617D01*
X99953016Y-69298110D01*
X100843246Y-69298110D01*
X100845668Y-69346822D01*
X100866547Y-69390901D01*
X100902705Y-69423633D01*
X100924862Y-69434097D01*
X101928585Y-69792569D01*
X100924862Y-70151042D01*
X100902704Y-70161506D01*
X100866547Y-70194238D01*
X100845668Y-70238317D01*
X100843246Y-70287029D01*
X100859650Y-70332960D01*
X100892382Y-70369117D01*
X100936461Y-70389996D01*
X100985173Y-70392418D01*
X101008946Y-70386478D01*
X102342280Y-69910287D01*
X102364438Y-69899823D01*
X102369089Y-69895611D01*
X102374760Y-69892926D01*
X102387035Y-69879366D01*
X102400595Y-69867091D01*
X102403280Y-69861420D01*
X102407492Y-69856769D01*
X102413645Y-69839539D01*
X102421474Y-69823012D01*
X102421785Y-69816747D01*
X102423896Y-69810838D01*
X102422987Y-69792565D01*
X102423896Y-69774300D01*
X102421786Y-69768393D01*
X102421475Y-69762126D01*
X102413643Y-69745593D01*
X102407492Y-69728369D01*
X102403281Y-69723717D01*
X102400595Y-69718047D01*
X102387035Y-69705771D01*
X102374760Y-69692212D01*
X102369089Y-69689526D01*
X102364438Y-69685315D01*
X102342280Y-69674851D01*
X101008946Y-69198661D01*
X100985173Y-69192721D01*
X100936461Y-69195143D01*
X100892382Y-69216022D01*
X100859650Y-69252180D01*
X100843246Y-69298110D01*
X99953016Y-69298110D01*
X99953016Y-65482468D01*
X100177640Y-65482468D01*
X100177640Y-65531240D01*
X100196304Y-65576300D01*
X100196309Y-65576305D01*
X100211850Y-65595242D01*
X100307088Y-65690480D01*
X100326030Y-65706025D01*
X100330885Y-65708036D01*
X100334901Y-65711434D01*
X100353274Y-65717310D01*
X100371089Y-65724690D01*
X100376346Y-65724690D01*
X100381355Y-65726292D01*
X100405857Y-65726660D01*
X101548713Y-65631422D01*
X101550565Y-65631082D01*
X101552453Y-65631054D01*
X101554780Y-65630309D01*
X101555672Y-65630146D01*
X101562719Y-65629452D01*
X101565308Y-65628379D01*
X101572816Y-65627003D01*
X101585410Y-65620512D01*
X101598907Y-65616196D01*
X101602919Y-65612800D01*
X101607779Y-65610788D01*
X101611496Y-65607070D01*
X101616170Y-65604662D01*
X101625325Y-65593841D01*
X101636140Y-65584691D01*
X101638547Y-65580019D01*
X101642267Y-65576300D01*
X101644279Y-65571442D01*
X101647675Y-65567429D01*
X101651992Y-65553930D01*
X101658482Y-65541337D01*
X101658918Y-65536098D01*
X101660931Y-65531240D01*
X101660931Y-65525980D01*
X101662532Y-65520975D01*
X101661355Y-65506854D01*
X101662532Y-65492733D01*
X101660931Y-65487727D01*
X101660931Y-65482468D01*
X101987163Y-65482468D01*
X101987163Y-65531240D01*
X102005827Y-65576300D01*
X102005828Y-65576301D01*
X102021373Y-65595243D01*
X102116612Y-65690481D01*
X102135554Y-65706026D01*
X102180614Y-65724691D01*
X102229388Y-65724690D01*
X102274447Y-65706025D01*
X102274451Y-65706020D01*
X102293388Y-65690480D01*
X102388626Y-65595242D01*
X102404166Y-65576305D01*
X102404172Y-65576300D01*
X102422836Y-65531240D01*
X102422836Y-65482468D01*
X102404172Y-65437408D01*
X102404166Y-65437402D01*
X102388626Y-65418466D01*
X102293388Y-65323228D01*
X102274451Y-65307687D01*
X102274447Y-65307683D01*
X102229388Y-65289018D01*
X102180614Y-65289017D01*
X102135554Y-65307682D01*
X102116612Y-65323227D01*
X102021373Y-65418465D01*
X102005828Y-65437407D01*
X102005827Y-65437408D01*
X101987163Y-65482468D01*
X101660931Y-65482468D01*
X101658918Y-65477609D01*
X101658482Y-65472371D01*
X101651992Y-65459777D01*
X101647675Y-65446279D01*
X101644279Y-65442265D01*
X101642267Y-65437408D01*
X101638547Y-65433688D01*
X101636140Y-65429017D01*
X101625325Y-65419866D01*
X101616170Y-65409046D01*
X101611496Y-65406637D01*
X101607779Y-65402920D01*
X101602919Y-65400907D01*
X101598907Y-65397512D01*
X101585410Y-65393195D01*
X101572816Y-65386705D01*
X101565308Y-65385328D01*
X101562719Y-65384256D01*
X101555672Y-65383561D01*
X101554780Y-65383398D01*
X101552453Y-65382654D01*
X101550565Y-65382625D01*
X101548713Y-65382286D01*
X100405857Y-65287048D01*
X100381355Y-65287416D01*
X100376346Y-65289018D01*
X100371089Y-65289018D01*
X100353274Y-65296397D01*
X100334901Y-65302274D01*
X100330885Y-65305671D01*
X100326030Y-65307683D01*
X100307088Y-65323228D01*
X100211850Y-65418466D01*
X100196309Y-65437402D01*
X100196304Y-65437408D01*
X100177640Y-65482468D01*
X99953016Y-65482468D01*
X99953016Y-63887806D01*
X100841904Y-63887806D01*
X100841904Y-64268759D01*
X100844306Y-64293145D01*
X100846024Y-64297293D01*
X100846343Y-64301775D01*
X100855101Y-64324661D01*
X100950339Y-64515137D01*
X100956946Y-64525633D01*
X100958209Y-64528681D01*
X100961025Y-64532112D01*
X100963393Y-64535874D01*
X100965887Y-64538037D01*
X100973754Y-64547623D01*
X101068992Y-64642861D01*
X101078577Y-64650727D01*
X101080741Y-64653222D01*
X101084502Y-64655590D01*
X101087934Y-64658406D01*
X101090980Y-64659667D01*
X101101479Y-64666277D01*
X101291956Y-64761515D01*
X101314842Y-64770272D01*
X101319321Y-64770590D01*
X101323471Y-64772309D01*
X101347857Y-64774711D01*
X101919285Y-64774711D01*
X101943671Y-64772309D01*
X101947819Y-64770590D01*
X101952301Y-64770272D01*
X101975187Y-64761514D01*
X102165663Y-64666276D01*
X102176155Y-64659670D01*
X102179207Y-64658407D01*
X102182643Y-64655586D01*
X102186400Y-64653222D01*
X102188560Y-64650730D01*
X102198149Y-64642862D01*
X102293388Y-64547624D01*
X102301257Y-64538035D01*
X102303749Y-64535874D01*
X102306114Y-64532116D01*
X102308933Y-64528682D01*
X102310196Y-64525631D01*
X102316803Y-64515137D01*
X102412042Y-64324660D01*
X102420799Y-64301775D01*
X102421117Y-64297293D01*
X102422836Y-64293145D01*
X102425238Y-64268759D01*
X102425238Y-63887806D01*
X102422836Y-63863420D01*
X102421117Y-63859271D01*
X102420799Y-63854790D01*
X102412042Y-63831905D01*
X102407254Y-63822330D01*
X102966904Y-63822330D01*
X102991290Y-63819928D01*
X103036350Y-63801264D01*
X103070838Y-63766776D01*
X103089502Y-63721716D01*
X103089502Y-63672944D01*
X103070838Y-63627884D01*
X103036350Y-63593396D01*
X102991290Y-63574732D01*
X102966904Y-63572330D01*
X100966904Y-63572330D01*
X100942518Y-63574732D01*
X100897458Y-63593396D01*
X100862970Y-63627884D01*
X100844306Y-63672944D01*
X100844306Y-63721716D01*
X100862970Y-63766776D01*
X100879433Y-63783239D01*
X100855101Y-63831904D01*
X100846343Y-63854790D01*
X100846024Y-63859271D01*
X100844306Y-63863420D01*
X100841904Y-63887806D01*
X99953016Y-63887806D01*
X99953016Y-61577706D01*
X100177640Y-61577706D01*
X100177640Y-61626478D01*
X100196304Y-61671538D01*
X100230792Y-61706026D01*
X100275852Y-61724690D01*
X100300238Y-61727092D01*
X101889777Y-61727092D01*
X102035716Y-61800062D01*
X102102269Y-61866614D01*
X102175238Y-62012552D01*
X102175238Y-62334489D01*
X102102269Y-62480426D01*
X102035716Y-62546978D01*
X101889777Y-62619949D01*
X100300238Y-62619949D01*
X100275852Y-62622351D01*
X100230792Y-62641015D01*
X100196304Y-62675503D01*
X100177640Y-62720563D01*
X100177640Y-62769335D01*
X100196304Y-62814395D01*
X100230792Y-62848883D01*
X100275852Y-62867547D01*
X100300238Y-62869949D01*
X101919285Y-62869949D01*
X101943671Y-62867547D01*
X101947819Y-62865828D01*
X101952301Y-62865510D01*
X101975187Y-62856752D01*
X102165663Y-62761514D01*
X102176155Y-62754908D01*
X102179207Y-62753645D01*
X102182643Y-62750824D01*
X102186400Y-62748460D01*
X102188560Y-62745968D01*
X102198149Y-62738100D01*
X102293388Y-62642862D01*
X102301257Y-62633273D01*
X102303749Y-62631112D01*
X102306114Y-62627354D01*
X102308933Y-62623920D01*
X102310196Y-62620869D01*
X102316803Y-62610375D01*
X102412042Y-62419898D01*
X102420799Y-62397013D01*
X102421117Y-62392531D01*
X102422836Y-62388383D01*
X102425238Y-62363997D01*
X102425238Y-61983044D01*
X102422836Y-61958658D01*
X102421117Y-61954509D01*
X102420799Y-61950028D01*
X102412042Y-61927143D01*
X102316803Y-61736666D01*
X102310196Y-61726171D01*
X102308933Y-61723121D01*
X102306114Y-61719686D01*
X102303749Y-61715929D01*
X102301257Y-61713767D01*
X102293388Y-61704179D01*
X102198149Y-61608941D01*
X102188560Y-61601072D01*
X102186400Y-61598581D01*
X102182643Y-61596216D01*
X102179207Y-61593396D01*
X102176155Y-61592132D01*
X102165663Y-61585527D01*
X101975187Y-61490289D01*
X101952301Y-61481531D01*
X101947819Y-61481212D01*
X101943671Y-61479494D01*
X101919285Y-61477092D01*
X100300238Y-61477092D01*
X100275852Y-61479494D01*
X100230792Y-61498158D01*
X100196304Y-61532646D01*
X100177640Y-61577706D01*
X99953016Y-61577706D01*
X99953016Y-59983044D01*
X100841904Y-59983044D01*
X100841904Y-60363997D01*
X100844306Y-60388383D01*
X100846024Y-60392531D01*
X100846343Y-60397013D01*
X100855101Y-60419899D01*
X100950339Y-60610375D01*
X100956946Y-60620871D01*
X100958209Y-60623919D01*
X100961025Y-60627350D01*
X100963393Y-60631112D01*
X100965887Y-60633275D01*
X100973754Y-60642861D01*
X101068992Y-60738099D01*
X101078577Y-60745965D01*
X101080741Y-60748460D01*
X101084502Y-60750828D01*
X101087934Y-60753644D01*
X101090980Y-60754905D01*
X101101479Y-60761515D01*
X101291956Y-60856753D01*
X101314842Y-60865510D01*
X101319321Y-60865828D01*
X101323471Y-60867547D01*
X101347857Y-60869949D01*
X101919285Y-60869949D01*
X101943671Y-60867547D01*
X101947819Y-60865828D01*
X101952301Y-60865510D01*
X101975187Y-60856752D01*
X102165663Y-60761514D01*
X102176155Y-60754908D01*
X102179207Y-60753645D01*
X102182643Y-60750824D01*
X102186400Y-60748460D01*
X102188560Y-60745968D01*
X102198149Y-60738100D01*
X102293388Y-60642862D01*
X102301257Y-60633273D01*
X102303749Y-60631112D01*
X102306114Y-60627354D01*
X102308933Y-60623920D01*
X102310196Y-60620869D01*
X102316803Y-60610375D01*
X102412042Y-60419898D01*
X102420799Y-60397013D01*
X102421117Y-60392531D01*
X102422836Y-60388383D01*
X102425238Y-60363997D01*
X102425238Y-59983044D01*
X102422836Y-59958658D01*
X102421117Y-59954509D01*
X102420799Y-59950028D01*
X102412042Y-59927143D01*
X102407254Y-59917568D01*
X102966904Y-59917568D01*
X102991290Y-59915166D01*
X103036350Y-59896502D01*
X103070838Y-59862014D01*
X103089502Y-59816954D01*
X103089502Y-59768182D01*
X103070838Y-59723122D01*
X103036350Y-59688634D01*
X102991290Y-59669970D01*
X102966904Y-59667568D01*
X100966904Y-59667568D01*
X100942518Y-59669970D01*
X100897458Y-59688634D01*
X100862970Y-59723122D01*
X100844306Y-59768182D01*
X100844306Y-59816954D01*
X100862970Y-59862014D01*
X100879433Y-59878477D01*
X100855101Y-59927142D01*
X100846343Y-59950028D01*
X100846024Y-59954509D01*
X100844306Y-59958658D01*
X100841904Y-59983044D01*
X99953016Y-59983044D01*
X99953016Y-58268758D01*
X100841904Y-58268758D01*
X100841904Y-58649711D01*
X100844306Y-58674097D01*
X100846024Y-58678245D01*
X100846343Y-58682727D01*
X100855101Y-58705613D01*
X100950339Y-58896089D01*
X100952905Y-58900165D01*
X100953547Y-58902091D01*
X100955626Y-58904489D01*
X100963393Y-58916826D01*
X100975233Y-58927095D01*
X100985503Y-58938936D01*
X100997840Y-58946702D01*
X101000238Y-58948782D01*
X101002162Y-58949423D01*
X101006241Y-58951991D01*
X101196718Y-59047229D01*
X101219604Y-59055986D01*
X101224083Y-59056304D01*
X101228233Y-59058023D01*
X101252619Y-59060425D01*
X101442964Y-59060425D01*
X101443095Y-59060425D01*
X101467481Y-59058023D01*
X101478795Y-59053336D01*
X101490809Y-59050960D01*
X101501106Y-59044095D01*
X101512541Y-59039359D01*
X101521200Y-59030699D01*
X101531391Y-59023906D01*
X101538278Y-59013621D01*
X101547029Y-59004871D01*
X101551715Y-58993556D01*
X101558530Y-58983381D01*
X101565668Y-58959939D01*
X101736047Y-58108044D01*
X101985014Y-58108044D01*
X102111831Y-58171452D01*
X102175238Y-58298266D01*
X102175238Y-58620203D01*
X102093197Y-58784285D01*
X102084439Y-58807171D01*
X102080981Y-58855821D01*
X102096405Y-58902091D01*
X102128361Y-58938936D01*
X102171984Y-58960748D01*
X102220634Y-58964206D01*
X102266904Y-58948782D01*
X102303749Y-58916826D01*
X102316803Y-58896089D01*
X102412042Y-58705612D01*
X102420799Y-58682727D01*
X102421117Y-58678245D01*
X102422836Y-58674097D01*
X102425238Y-58649711D01*
X102425238Y-58268758D01*
X102422836Y-58244372D01*
X102421117Y-58240223D01*
X102420799Y-58235742D01*
X102412042Y-58212857D01*
X102316803Y-58022380D01*
X102314236Y-58018303D01*
X102313595Y-58016378D01*
X102311515Y-58013979D01*
X102303749Y-58001643D01*
X102291908Y-57991373D01*
X102281639Y-57979533D01*
X102269302Y-57971766D01*
X102266904Y-57969687D01*
X102264978Y-57969045D01*
X102260902Y-57966479D01*
X102070424Y-57871240D01*
X102047539Y-57862483D01*
X102043057Y-57862164D01*
X102038909Y-57860446D01*
X102014523Y-57858044D01*
X101252619Y-57858044D01*
X101228233Y-57860446D01*
X101224083Y-57862164D01*
X101219604Y-57862483D01*
X101196718Y-57871240D01*
X101006241Y-57966478D01*
X101002162Y-57969045D01*
X101000238Y-57969687D01*
X100997840Y-57971766D01*
X100985503Y-57979533D01*
X100975233Y-57991373D01*
X100963393Y-58001643D01*
X100955626Y-58013979D01*
X100953547Y-58016378D01*
X100952905Y-58018303D01*
X100950339Y-58022380D01*
X100855101Y-58212856D01*
X100846343Y-58235742D01*
X100846024Y-58240223D01*
X100844306Y-58244372D01*
X100841904Y-58268758D01*
X99953016Y-58268758D01*
X99953016Y-56911039D01*
X100177640Y-56911039D01*
X100177640Y-56959811D01*
X100196304Y-57004871D01*
X100230792Y-57039359D01*
X100275852Y-57058023D01*
X100300238Y-57060425D01*
X100841904Y-57060425D01*
X100841904Y-57411615D01*
X100844306Y-57436001D01*
X100862970Y-57481061D01*
X100897458Y-57515549D01*
X100942518Y-57534213D01*
X100991290Y-57534213D01*
X101036350Y-57515549D01*
X101070838Y-57481061D01*
X101089502Y-57436001D01*
X101091904Y-57411615D01*
X101091904Y-57060425D01*
X101985014Y-57060425D01*
X102111831Y-57123833D01*
X102175238Y-57250647D01*
X102175238Y-57411615D01*
X102177640Y-57436001D01*
X102196304Y-57481061D01*
X102230792Y-57515549D01*
X102275852Y-57534213D01*
X102324624Y-57534213D01*
X102369684Y-57515549D01*
X102404172Y-57481061D01*
X102422836Y-57436001D01*
X102425238Y-57411615D01*
X102425238Y-57221139D01*
X102422836Y-57196753D01*
X102421117Y-57192604D01*
X102420799Y-57188123D01*
X102412042Y-57165238D01*
X102316803Y-56974761D01*
X102314236Y-56970684D01*
X102313595Y-56968759D01*
X102311515Y-56966360D01*
X102303749Y-56954024D01*
X102291908Y-56943754D01*
X102281639Y-56931914D01*
X102269302Y-56924147D01*
X102266904Y-56922068D01*
X102264978Y-56921426D01*
X102260902Y-56918860D01*
X102070424Y-56823621D01*
X102047539Y-56814864D01*
X102043057Y-56814545D01*
X102038909Y-56812827D01*
X102014523Y-56810425D01*
X101091904Y-56810425D01*
X101091904Y-56649711D01*
X101089502Y-56625325D01*
X101070838Y-56580265D01*
X101036350Y-56545777D01*
X100991290Y-56527113D01*
X100942518Y-56527113D01*
X100897458Y-56545777D01*
X100862970Y-56580265D01*
X100844306Y-56625325D01*
X100841904Y-56649711D01*
X100841904Y-56810425D01*
X100300238Y-56810425D01*
X100275852Y-56812827D01*
X100230792Y-56831491D01*
X100196304Y-56865979D01*
X100177640Y-56911039D01*
X99953016Y-56911039D01*
X99953016Y-55316377D01*
X100175238Y-55316377D01*
X100175238Y-55792568D01*
X100176453Y-55804911D01*
X100176220Y-55808202D01*
X100177204Y-55812531D01*
X100177640Y-55816954D01*
X100178903Y-55820005D01*
X100181653Y-55832096D01*
X100276891Y-56117810D01*
X100286881Y-56140185D01*
X100318836Y-56177031D01*
X100362461Y-56198843D01*
X100411110Y-56202300D01*
X100457379Y-56186877D01*
X100494225Y-56154922D01*
X100516037Y-56111297D01*
X100519494Y-56062648D01*
X100514061Y-56038754D01*
X100425238Y-55772285D01*
X100425238Y-55345885D01*
X100498208Y-55199944D01*
X100564758Y-55133395D01*
X100710698Y-55060425D01*
X100842158Y-55060425D01*
X100988098Y-55133395D01*
X101054648Y-55199945D01*
X101134678Y-55360004D01*
X101226589Y-55727647D01*
X101227232Y-55729446D01*
X101227296Y-55730346D01*
X101231178Y-55740492D01*
X101234834Y-55750722D01*
X101235370Y-55751446D01*
X101236054Y-55753232D01*
X101331292Y-55943708D01*
X101337899Y-55954204D01*
X101339162Y-55957252D01*
X101341978Y-55960683D01*
X101344346Y-55964445D01*
X101346840Y-55966608D01*
X101354707Y-55976194D01*
X101449945Y-56071432D01*
X101459530Y-56079298D01*
X101461694Y-56081793D01*
X101465455Y-56084160D01*
X101468887Y-56086977D01*
X101471934Y-56088239D01*
X101482431Y-56094847D01*
X101672908Y-56190086D01*
X101695793Y-56198843D01*
X101700274Y-56199161D01*
X101704423Y-56200880D01*
X101728809Y-56203282D01*
X101919285Y-56203282D01*
X101943671Y-56200880D01*
X101947819Y-56199161D01*
X101952301Y-56198843D01*
X101975187Y-56190085D01*
X102165663Y-56094847D01*
X102176155Y-56088241D01*
X102179207Y-56086978D01*
X102182643Y-56084157D01*
X102186400Y-56081793D01*
X102188560Y-56079301D01*
X102198149Y-56071433D01*
X102293388Y-55976195D01*
X102301257Y-55966606D01*
X102303749Y-55964445D01*
X102306114Y-55960687D01*
X102308933Y-55957253D01*
X102310196Y-55954202D01*
X102316803Y-55943708D01*
X102412042Y-55753231D01*
X102420799Y-55730346D01*
X102421117Y-55725864D01*
X102422836Y-55721716D01*
X102425238Y-55697330D01*
X102425238Y-55221139D01*
X102424022Y-55208795D01*
X102424256Y-55205505D01*
X102423271Y-55201175D01*
X102422836Y-55196753D01*
X102421572Y-55193701D01*
X102418823Y-55181611D01*
X102323585Y-54895897D01*
X102313595Y-54873522D01*
X102281640Y-54836676D01*
X102238015Y-54814864D01*
X102189366Y-54811407D01*
X102143097Y-54826830D01*
X102106251Y-54858785D01*
X102084439Y-54902410D01*
X102080982Y-54951059D01*
X102086415Y-54974953D01*
X102175238Y-55241422D01*
X102175238Y-55667822D01*
X102102269Y-55813759D01*
X102035716Y-55880311D01*
X101889777Y-55953282D01*
X101758317Y-55953282D01*
X101612377Y-55880312D01*
X101545827Y-55813762D01*
X101465797Y-55653702D01*
X101373887Y-55286060D01*
X101373244Y-55284260D01*
X101373180Y-55283360D01*
X101369294Y-55273205D01*
X101365642Y-55262985D01*
X101365105Y-55262260D01*
X101364422Y-55260475D01*
X101269183Y-55069999D01*
X101262575Y-55059502D01*
X101261313Y-55056455D01*
X101258496Y-55053023D01*
X101256129Y-55049262D01*
X101253634Y-55047098D01*
X101245768Y-55037513D01*
X101150530Y-54942275D01*
X101140944Y-54934408D01*
X101138781Y-54931914D01*
X101135019Y-54929546D01*
X101131588Y-54926730D01*
X101128540Y-54925467D01*
X101118044Y-54918860D01*
X100927568Y-54823622D01*
X100904682Y-54814864D01*
X100900200Y-54814545D01*
X100896052Y-54812827D01*
X100871666Y-54810425D01*
X100681190Y-54810425D01*
X100656804Y-54812827D01*
X100652655Y-54814545D01*
X100648174Y-54814864D01*
X100625289Y-54823621D01*
X100434812Y-54918860D01*
X100424315Y-54925467D01*
X100421268Y-54926730D01*
X100417836Y-54929546D01*
X100414075Y-54931914D01*
X100411911Y-54934408D01*
X100402326Y-54942275D01*
X100307088Y-55037513D01*
X100299221Y-55047098D01*
X100296727Y-55049262D01*
X100294359Y-55053023D01*
X100291543Y-55056455D01*
X100290280Y-55059502D01*
X100283673Y-55069999D01*
X100188435Y-55260475D01*
X100179677Y-55283361D01*
X100179358Y-55287842D01*
X100177640Y-55291991D01*
X100175238Y-55316377D01*
X99953016Y-55316377D01*
X99953016Y-54588203D01*
X103311724Y-54588203D01*
X103311724Y-75282649D01*
G37*
D14*
X100661842Y-80318666D02*
X100722318Y-80500095D01*
X100722318Y-80500095D02*
X100722318Y-80802476D01*
X100722318Y-80802476D02*
X100661842Y-80923428D01*
X100661842Y-80923428D02*
X100601365Y-80983904D01*
X100601365Y-80983904D02*
X100480413Y-81044381D01*
X100480413Y-81044381D02*
X100359461Y-81044381D01*
X100359461Y-81044381D02*
X100238508Y-80983904D01*
X100238508Y-80983904D02*
X100178032Y-80923428D01*
X100178032Y-80923428D02*
X100117556Y-80802476D01*
X100117556Y-80802476D02*
X100057080Y-80560571D01*
X100057080Y-80560571D02*
X99996603Y-80439619D01*
X99996603Y-80439619D02*
X99936127Y-80379142D01*
X99936127Y-80379142D02*
X99815175Y-80318666D01*
X99815175Y-80318666D02*
X99694222Y-80318666D01*
X99694222Y-80318666D02*
X99573270Y-80379142D01*
X99573270Y-80379142D02*
X99512794Y-80439619D01*
X99512794Y-80439619D02*
X99452318Y-80560571D01*
X99452318Y-80560571D02*
X99452318Y-80862952D01*
X99452318Y-80862952D02*
X99512794Y-81044381D01*
X99452318Y-81467714D02*
X100722318Y-81770095D01*
X100722318Y-81770095D02*
X99815175Y-82012000D01*
X99815175Y-82012000D02*
X100722318Y-82253905D01*
X100722318Y-82253905D02*
X99452318Y-82556286D01*
X99452318Y-82919143D02*
X99452318Y-83705334D01*
X99452318Y-83705334D02*
X99936127Y-83282000D01*
X99936127Y-83282000D02*
X99936127Y-83463429D01*
X99936127Y-83463429D02*
X99996603Y-83584381D01*
X99996603Y-83584381D02*
X100057080Y-83644857D01*
X100057080Y-83644857D02*
X100178032Y-83705334D01*
X100178032Y-83705334D02*
X100480413Y-83705334D01*
X100480413Y-83705334D02*
X100601365Y-83644857D01*
X100601365Y-83644857D02*
X100661842Y-83584381D01*
X100661842Y-83584381D02*
X100722318Y-83463429D01*
X100722318Y-83463429D02*
X100722318Y-83100572D01*
X100722318Y-83100572D02*
X100661842Y-82979619D01*
X100661842Y-82979619D02*
X100601365Y-82919143D01*
X81396580Y-111075190D02*
X81457056Y-111256618D01*
X81457056Y-111256618D02*
X81517532Y-111317095D01*
X81517532Y-111317095D02*
X81638484Y-111377571D01*
X81638484Y-111377571D02*
X81819913Y-111377571D01*
X81819913Y-111377571D02*
X81940865Y-111317095D01*
X81940865Y-111317095D02*
X82001342Y-111256618D01*
X82001342Y-111256618D02*
X82061818Y-111135666D01*
X82061818Y-111135666D02*
X82061818Y-110651856D01*
X82061818Y-110651856D02*
X80791818Y-110651856D01*
X80791818Y-110651856D02*
X80791818Y-111075190D01*
X80791818Y-111075190D02*
X80852294Y-111196142D01*
X80852294Y-111196142D02*
X80912770Y-111256618D01*
X80912770Y-111256618D02*
X81033722Y-111317095D01*
X81033722Y-111317095D02*
X81154675Y-111317095D01*
X81154675Y-111317095D02*
X81275627Y-111256618D01*
X81275627Y-111256618D02*
X81336103Y-111196142D01*
X81336103Y-111196142D02*
X81396580Y-111075190D01*
X81396580Y-111075190D02*
X81396580Y-110651856D01*
X80791818Y-111800904D02*
X80791818Y-112647571D01*
X80791818Y-112647571D02*
X82061818Y-111800904D01*
X82061818Y-111800904D02*
X82061818Y-112647571D01*
X82061818Y-113796619D02*
X82061818Y-113070904D01*
X82061818Y-113433761D02*
X80791818Y-113433761D01*
X80791818Y-113433761D02*
X80973246Y-113312809D01*
X80973246Y-113312809D02*
X81094199Y-113191857D01*
X81094199Y-113191857D02*
X81154675Y-113070904D01*
X73312318Y-90307143D02*
X74219461Y-90307143D01*
X74219461Y-90307143D02*
X74400889Y-90246666D01*
X74400889Y-90246666D02*
X74521842Y-90125714D01*
X74521842Y-90125714D02*
X74582318Y-89944285D01*
X74582318Y-89944285D02*
X74582318Y-89823333D01*
X73312318Y-91153809D02*
X73312318Y-91395714D01*
X73312318Y-91395714D02*
X73372794Y-91516666D01*
X73372794Y-91516666D02*
X73493746Y-91637619D01*
X73493746Y-91637619D02*
X73735651Y-91698095D01*
X73735651Y-91698095D02*
X74158984Y-91698095D01*
X74158984Y-91698095D02*
X74400889Y-91637619D01*
X74400889Y-91637619D02*
X74521842Y-91516666D01*
X74521842Y-91516666D02*
X74582318Y-91395714D01*
X74582318Y-91395714D02*
X74582318Y-91153809D01*
X74582318Y-91153809D02*
X74521842Y-91032857D01*
X74521842Y-91032857D02*
X74400889Y-90911904D01*
X74400889Y-90911904D02*
X74158984Y-90851428D01*
X74158984Y-90851428D02*
X73735651Y-90851428D01*
X73735651Y-90851428D02*
X73493746Y-90911904D01*
X73493746Y-90911904D02*
X73372794Y-91032857D01*
X73372794Y-91032857D02*
X73312318Y-91153809D01*
X73977556Y-92484285D02*
X74582318Y-92484285D01*
X73312318Y-92060952D02*
X73977556Y-92484285D01*
X73977556Y-92484285D02*
X73312318Y-92907619D01*
X74582318Y-93996190D02*
X74582318Y-93270475D01*
X74582318Y-93633332D02*
X73312318Y-93633332D01*
X73312318Y-93633332D02*
X73493746Y-93512380D01*
X73493746Y-93512380D02*
X73614699Y-93391428D01*
X73614699Y-93391428D02*
X73675175Y-93270475D01*
X66067080Y-112442143D02*
X66127556Y-112623571D01*
X66127556Y-112623571D02*
X66188032Y-112684048D01*
X66188032Y-112684048D02*
X66308984Y-112744524D01*
X66308984Y-112744524D02*
X66490413Y-112744524D01*
X66490413Y-112744524D02*
X66611365Y-112684048D01*
X66611365Y-112684048D02*
X66671842Y-112623571D01*
X66671842Y-112623571D02*
X66732318Y-112502619D01*
X66732318Y-112502619D02*
X66732318Y-112018809D01*
X66732318Y-112018809D02*
X65462318Y-112018809D01*
X65462318Y-112018809D02*
X65462318Y-112442143D01*
X65462318Y-112442143D02*
X65522794Y-112563095D01*
X65522794Y-112563095D02*
X65583270Y-112623571D01*
X65583270Y-112623571D02*
X65704222Y-112684048D01*
X65704222Y-112684048D02*
X65825175Y-112684048D01*
X65825175Y-112684048D02*
X65946127Y-112623571D01*
X65946127Y-112623571D02*
X66006603Y-112563095D01*
X66006603Y-112563095D02*
X66067080Y-112442143D01*
X66067080Y-112442143D02*
X66067080Y-112018809D01*
X65462318Y-113107381D02*
X65462318Y-113833095D01*
X66732318Y-113470238D02*
X65462318Y-113470238D01*
X65583270Y-114195952D02*
X65522794Y-114256428D01*
X65522794Y-114256428D02*
X65462318Y-114377381D01*
X65462318Y-114377381D02*
X65462318Y-114679762D01*
X65462318Y-114679762D02*
X65522794Y-114800714D01*
X65522794Y-114800714D02*
X65583270Y-114861190D01*
X65583270Y-114861190D02*
X65704222Y-114921667D01*
X65704222Y-114921667D02*
X65825175Y-114921667D01*
X65825175Y-114921667D02*
X66006603Y-114861190D01*
X66006603Y-114861190D02*
X66732318Y-114135476D01*
X66732318Y-114135476D02*
X66732318Y-114921667D01*
D11*
X81466333Y-65699819D02*
X81466333Y-66414104D01*
X81466333Y-66414104D02*
X81513952Y-66556961D01*
X81513952Y-66556961D02*
X81609190Y-66652200D01*
X81609190Y-66652200D02*
X81752047Y-66699819D01*
X81752047Y-66699819D02*
X81847285Y-66699819D01*
X81085380Y-65699819D02*
X80466333Y-65699819D01*
X80466333Y-65699819D02*
X80799666Y-66080771D01*
X80799666Y-66080771D02*
X80656809Y-66080771D01*
X80656809Y-66080771D02*
X80561571Y-66128390D01*
X80561571Y-66128390D02*
X80513952Y-66176009D01*
X80513952Y-66176009D02*
X80466333Y-66271247D01*
X80466333Y-66271247D02*
X80466333Y-66509342D01*
X80466333Y-66509342D02*
X80513952Y-66604580D01*
X80513952Y-66604580D02*
X80561571Y-66652200D01*
X80561571Y-66652200D02*
X80656809Y-66699819D01*
X80656809Y-66699819D02*
X80942523Y-66699819D01*
X80942523Y-66699819D02*
X81037761Y-66652200D01*
X81037761Y-66652200D02*
X81085380Y-66604580D01*
X78183833Y-103054819D02*
X78183833Y-103769104D01*
X78183833Y-103769104D02*
X78231452Y-103911961D01*
X78231452Y-103911961D02*
X78326690Y-104007200D01*
X78326690Y-104007200D02*
X78469547Y-104054819D01*
X78469547Y-104054819D02*
X78564785Y-104054819D01*
X77707642Y-104054819D02*
X77707642Y-103054819D01*
X77707642Y-103054819D02*
X77326690Y-103054819D01*
X77326690Y-103054819D02*
X77231452Y-103102438D01*
X77231452Y-103102438D02*
X77183833Y-103150057D01*
X77183833Y-103150057D02*
X77136214Y-103245295D01*
X77136214Y-103245295D02*
X77136214Y-103388152D01*
X77136214Y-103388152D02*
X77183833Y-103483390D01*
X77183833Y-103483390D02*
X77231452Y-103531009D01*
X77231452Y-103531009D02*
X77326690Y-103578628D01*
X77326690Y-103578628D02*
X77707642Y-103578628D01*
X76755261Y-103150057D02*
X76707642Y-103102438D01*
X76707642Y-103102438D02*
X76612404Y-103054819D01*
X76612404Y-103054819D02*
X76374309Y-103054819D01*
X76374309Y-103054819D02*
X76279071Y-103102438D01*
X76279071Y-103102438D02*
X76231452Y-103150057D01*
X76231452Y-103150057D02*
X76183833Y-103245295D01*
X76183833Y-103245295D02*
X76183833Y-103340533D01*
X76183833Y-103340533D02*
X76231452Y-103483390D01*
X76231452Y-103483390D02*
X76802880Y-104054819D01*
X76802880Y-104054819D02*
X76183833Y-104054819D01*
D14*
X66067080Y-57002143D02*
X66127556Y-57183571D01*
X66127556Y-57183571D02*
X66188032Y-57244048D01*
X66188032Y-57244048D02*
X66308984Y-57304524D01*
X66308984Y-57304524D02*
X66490413Y-57304524D01*
X66490413Y-57304524D02*
X66611365Y-57244048D01*
X66611365Y-57244048D02*
X66671842Y-57183571D01*
X66671842Y-57183571D02*
X66732318Y-57062619D01*
X66732318Y-57062619D02*
X66732318Y-56578809D01*
X66732318Y-56578809D02*
X65462318Y-56578809D01*
X65462318Y-56578809D02*
X65462318Y-57002143D01*
X65462318Y-57002143D02*
X65522794Y-57123095D01*
X65522794Y-57123095D02*
X65583270Y-57183571D01*
X65583270Y-57183571D02*
X65704222Y-57244048D01*
X65704222Y-57244048D02*
X65825175Y-57244048D01*
X65825175Y-57244048D02*
X65946127Y-57183571D01*
X65946127Y-57183571D02*
X66006603Y-57123095D01*
X66006603Y-57123095D02*
X66067080Y-57002143D01*
X66067080Y-57002143D02*
X66067080Y-56578809D01*
X65462318Y-57667381D02*
X65462318Y-58393095D01*
X66732318Y-58030238D02*
X65462318Y-58030238D01*
X66732318Y-59481667D02*
X66732318Y-58755952D01*
X66732318Y-59118809D02*
X65462318Y-59118809D01*
X65462318Y-59118809D02*
X65643746Y-58997857D01*
X65643746Y-58997857D02*
X65764699Y-58876905D01*
X65764699Y-58876905D02*
X65825175Y-58755952D01*
D15*
%TO.C,SW3*%
X97898000Y-85995000D02*
X97898000Y-78885000D01*
X102828000Y-85995000D02*
X107758000Y-85995000D01*
X107758000Y-78885000D02*
X102828000Y-78885000D01*
X107758000Y-85995000D02*
X107758000Y-78885000D01*
D14*
%TO.C,BZ1*%
X74739590Y-112172000D02*
G75*
G02*
X74639410Y-112172000I-50090J0D01*
G01*
X74639410Y-112172000D02*
G75*
G02*
X74739590Y-112172000I50090J0D01*
G01*
X87650500Y-112400000D02*
G75*
G02*
X75450500Y-112400000I-6100000J0D01*
G01*
X75450500Y-112400000D02*
G75*
G02*
X87650500Y-112400000I6100000J0D01*
G01*
D16*
%TO.C,JOY1*%
X74474400Y-96898501D02*
X75004400Y-96148501D01*
X75004400Y-86648501D02*
X75004400Y-86648501D01*
X75004400Y-86648501D02*
X78129400Y-86648501D01*
X75004400Y-96148501D02*
X75004400Y-96148501D01*
X75004400Y-96148501D02*
X75474400Y-96898501D01*
X75004400Y-96148501D02*
X78129400Y-96148501D01*
X75474400Y-96898501D02*
X74474400Y-96898501D01*
X78129400Y-86648501D02*
X75004400Y-86648501D01*
X78129400Y-86648501D02*
X78129400Y-86648501D01*
X78129400Y-86648501D02*
X78129400Y-86648501D01*
X78129400Y-86648501D02*
X78129400Y-96148501D01*
X78129400Y-87148501D02*
X78129400Y-87148501D01*
X78129400Y-87148501D02*
X78129400Y-95648501D01*
X78129400Y-95648501D02*
X78129400Y-87148501D01*
X78129400Y-95648501D02*
X78129400Y-95648501D01*
X78129400Y-96148501D02*
X75004400Y-96148501D01*
X78129400Y-96148501D02*
X78129400Y-86648501D01*
X78129400Y-96148501D02*
X78129400Y-96148501D01*
X78129400Y-96148501D02*
X78129400Y-96148501D01*
X79954400Y-99723501D02*
X79954400Y-99723501D01*
X79954400Y-99723501D02*
X79954400Y-101098501D01*
X79954400Y-101098501D02*
X79954400Y-99723501D01*
X79954400Y-101098501D02*
X79954400Y-101098501D01*
X81704400Y-84823501D02*
X81704400Y-84823501D01*
X81704400Y-84823501D02*
X87704400Y-84823501D01*
X81704400Y-97973501D02*
X81704400Y-97973501D01*
X81704400Y-97973501D02*
X81704400Y-97973501D01*
X81704400Y-97973501D02*
X87704400Y-97973501D01*
X81704400Y-97973501D02*
X87704400Y-97973501D01*
X87704400Y-84823501D02*
X81704400Y-84823501D01*
X87704400Y-84823501D02*
X87704400Y-84823501D01*
X87704400Y-97973501D02*
X81704400Y-97973501D01*
X87704400Y-97973501D02*
X81704400Y-97973501D01*
X87704400Y-97973501D02*
X87704400Y-97973501D01*
X87704400Y-97973501D02*
X87704400Y-97973501D01*
X89454400Y-99723501D02*
X89454400Y-99723501D01*
X89454400Y-99723501D02*
X89454400Y-101098501D01*
X89454400Y-101098501D02*
X89454400Y-99723501D01*
X89454400Y-101098501D02*
X89454400Y-101098501D01*
X91279400Y-89898501D02*
X91279400Y-89898501D01*
X91279400Y-89898501D02*
X91279400Y-92898501D01*
X91279400Y-92898501D02*
X91279400Y-89898501D01*
X91279400Y-92898501D02*
X91279400Y-92898501D01*
D15*
%TO.C,BT2*%
X58413000Y-106940000D02*
X58413000Y-116460000D01*
X58413000Y-116460000D02*
X64158000Y-116460000D01*
X60593000Y-119940000D02*
X60593000Y-116460000D01*
X68158000Y-116460000D02*
X73903000Y-116460000D01*
D16*
X68698000Y-106320000D02*
X68698000Y-106320000D01*
X68698000Y-106420000D02*
X68698000Y-106420000D01*
D15*
X71723000Y-116460000D02*
X71723000Y-119940000D01*
X71723000Y-119940000D02*
X60593000Y-119940000D01*
X73903000Y-106940000D02*
X58413000Y-106940000D01*
X73903000Y-116460000D02*
X73903000Y-106940000D01*
D16*
X68698000Y-106320000D02*
G75*
G02*
X68698000Y-106420000I0J-50000D01*
G01*
X68698000Y-106420000D02*
G75*
G02*
X68698000Y-106320000I0J50000D01*
G01*
D17*
%TO.C,J3*%
X78158000Y-52140000D02*
X93658000Y-52140000D01*
X78158000Y-63140000D02*
X78158000Y-52140000D01*
X93658000Y-52140000D02*
X93658000Y-63140000D01*
X93658000Y-63140000D02*
X78158000Y-63140000D01*
D15*
X80758000Y-63740000D02*
G75*
G02*
X80558000Y-63740000I-100000J0D01*
G01*
X80558000Y-63740000D02*
G75*
G02*
X80758000Y-63740000I100000J0D01*
G01*
D18*
%TO.C,JP2*%
X75300500Y-105700000D02*
X75300500Y-105100000D01*
X75950500Y-104400000D02*
X78750500Y-104400000D01*
X78250500Y-106900000D02*
X78550500Y-106600000D01*
X78250500Y-106900000D02*
X78850500Y-106900000D01*
X78750500Y-106400000D02*
X75950500Y-106400000D01*
X78850500Y-106900000D02*
X78550500Y-106600000D01*
X79400500Y-105100000D02*
X79400500Y-105700000D01*
X75300500Y-105100000D02*
G75*
G02*
X76000500Y-104400000I700000J0D01*
G01*
X76000500Y-106400000D02*
G75*
G02*
X75300500Y-105700000I0J700000D01*
G01*
X78700500Y-104400000D02*
G75*
G02*
X79400500Y-105100000I1J-699999D01*
G01*
X79400500Y-105700000D02*
G75*
G02*
X78700500Y-106400000I-699999J-1D01*
G01*
D15*
%TO.C,BT1*%
X58413000Y-54980000D02*
X58413000Y-64500000D01*
X58413000Y-64500000D02*
X73903000Y-64500000D01*
X60593000Y-51500000D02*
X71723000Y-51500000D01*
X60593000Y-54980000D02*
X60593000Y-51500000D01*
D16*
X63618000Y-65020000D02*
X63618000Y-65020000D01*
X63618000Y-65120000D02*
X63618000Y-65120000D01*
D15*
X64158000Y-54980000D02*
X58413000Y-54980000D01*
X71723000Y-51500000D02*
X71723000Y-54980000D01*
X73903000Y-54980000D02*
X68158000Y-54980000D01*
X73903000Y-64500000D02*
X73903000Y-54980000D01*
D16*
X63618000Y-65020000D02*
G75*
G02*
X63618000Y-65120000I0J-50000D01*
G01*
X63618000Y-65120000D02*
G75*
G02*
X63618000Y-65020000I0J50000D01*
G01*
%TD*%
D19*
X79168000Y-124025000D03*
X84948000Y-124025000D03*
D20*
X77738000Y-123525000D03*
D21*
X77738000Y-127705000D03*
D20*
X86378000Y-123525000D03*
D21*
X86378000Y-127705000D03*
D22*
X91834000Y-113388000D03*
X91834000Y-112113000D03*
X91834000Y-110838000D03*
X90559000Y-113388000D03*
X90559000Y-112113000D03*
X90559000Y-110838000D03*
X89284000Y-113388000D03*
X89284000Y-112113000D03*
X89284000Y-110838000D03*
D19*
X59708000Y-126890000D03*
D22*
X62619000Y-75470000D03*
X63569000Y-75470000D03*
X64519000Y-75470000D03*
X62619000Y-74470000D03*
X63569000Y-74470000D03*
X64519000Y-74470000D03*
D19*
X100458000Y-53090000D03*
X59708000Y-53090000D03*
X101183000Y-118915000D03*
X98643000Y-118915000D03*
X101183000Y-116375000D03*
X98643000Y-116375000D03*
X101183000Y-113835000D03*
X98643000Y-113835000D03*
X100458000Y-126890000D03*
X101908000Y-80190000D03*
X101908000Y-84690000D03*
X99418000Y-78935000D03*
X99418000Y-85945000D03*
X79050500Y-112400000D03*
X84050500Y-112400000D03*
X75974400Y-93898501D03*
X75974400Y-91398501D03*
X75974400Y-88898501D03*
X87204400Y-100128501D03*
X84704400Y-100128501D03*
X82204400Y-100128501D03*
X90454400Y-88148501D03*
X90454400Y-94648501D03*
X94954400Y-88148501D03*
X94954400Y-94648501D03*
X79704400Y-97723501D03*
X79704400Y-85073501D03*
X89704400Y-85073501D03*
X89704400Y-97723501D03*
X68698000Y-108720000D03*
X63618000Y-108720000D03*
X66158000Y-116340000D03*
X80658000Y-60140000D03*
X80658000Y-55140000D03*
X84158000Y-60140000D03*
X84158000Y-55140000D03*
X87658000Y-60140000D03*
X87658000Y-55140000D03*
X91158000Y-60140000D03*
X91158000Y-55140000D03*
X63618000Y-62720000D03*
X68698000Y-62720000D03*
X66158000Y-55100000D03*
M02*
