%TF.GenerationSoftware,KiCad,Pcbnew,8.0.6*%
%TF.CreationDate,2024-10-28T23:36:15+00:00*%
%TF.ProjectId,StepUp,53746570-5570-42e6-9b69-6361645f7063,v0.1*%
%TF.SameCoordinates,Original*%
%TF.FileFunction,Paste,Top*%
%TF.FilePolarity,Positive*%
%FSLAX46Y46*%
G04 Gerber Fmt 4.6, Leading zero omitted, Abs format (unit mm)*
G04 Created by KiCad (PCBNEW 8.0.6) date 2024-10-28 23:36:15*
%MOMM*%
%LPD*%
G01*
G04 APERTURE LIST*
G04 Aperture macros list*
%AMRoundRect*
0 Rectangle with rounded corners*
0 $1 Rounding radius*
0 $2 $3 $4 $5 $6 $7 $8 $9 X,Y pos of 4 corners*
0 Add a 4 corners polygon primitive as box body*
4,1,4,$2,$3,$4,$5,$6,$7,$8,$9,$2,$3,0*
0 Add four circle primitives for the rounded corners*
1,1,$1+$1,$2,$3*
1,1,$1+$1,$4,$5*
1,1,$1+$1,$6,$7*
1,1,$1+$1,$8,$9*
0 Add four rect primitives between the rounded corners*
20,1,$1+$1,$2,$3,$4,$5,0*
20,1,$1+$1,$4,$5,$6,$7,0*
20,1,$1+$1,$6,$7,$8,$9,0*
20,1,$1+$1,$8,$9,$2,$3,0*%
G04 Aperture macros list end*
%ADD10R,0.863600X0.787400*%
%ADD11RoundRect,0.250000X0.312500X0.625000X-0.312500X0.625000X-0.312500X-0.625000X0.312500X-0.625000X0*%
%ADD12RoundRect,0.200000X-0.275000X0.200000X-0.275000X-0.200000X0.275000X-0.200000X0.275000X0.200000X0*%
%ADD13RoundRect,0.200000X-0.200000X-0.275000X0.200000X-0.275000X0.200000X0.275000X-0.200000X0.275000X0*%
%ADD14RoundRect,0.140000X0.140000X0.170000X-0.140000X0.170000X-0.140000X-0.170000X0.140000X-0.170000X0*%
%ADD15RoundRect,0.140000X0.170000X-0.140000X0.170000X0.140000X-0.170000X0.140000X-0.170000X-0.140000X0*%
%ADD16RoundRect,0.135000X0.185000X-0.135000X0.185000X0.135000X-0.185000X0.135000X-0.185000X-0.135000X0*%
%ADD17RoundRect,0.140000X-0.170000X0.140000X-0.170000X-0.140000X0.170000X-0.140000X0.170000X0.140000X0*%
%ADD18RoundRect,0.150000X-0.150000X-0.425000X0.150000X-0.425000X0.150000X0.425000X-0.150000X0.425000X0*%
%ADD19RoundRect,0.075000X-0.075000X-0.500000X0.075000X-0.500000X0.075000X0.500000X-0.075000X0.500000X0*%
%ADD20O,1.000000X2.100000*%
%ADD21O,1.000000X1.800000*%
%ADD22RoundRect,0.140000X-0.140000X-0.170000X0.140000X-0.170000X0.140000X0.170000X-0.140000X0.170000X0*%
%ADD23RoundRect,0.225000X0.225000X0.250000X-0.225000X0.250000X-0.225000X-0.250000X0.225000X-0.250000X0*%
%ADD24RoundRect,0.135000X-0.185000X0.135000X-0.185000X-0.135000X0.185000X-0.135000X0.185000X0.135000X0*%
%ADD25RoundRect,0.200000X0.200000X0.275000X-0.200000X0.275000X-0.200000X-0.275000X0.200000X-0.275000X0*%
%ADD26RoundRect,0.225000X-0.225000X-0.250000X0.225000X-0.250000X0.225000X0.250000X-0.225000X0.250000X0*%
%ADD27RoundRect,0.200000X0.275000X-0.200000X0.275000X0.200000X-0.275000X0.200000X-0.275000X-0.200000X0*%
%ADD28R,1.000000X0.550000*%
%ADD29R,0.600000X1.300000*%
%ADD30RoundRect,0.250000X0.292217X0.292217X-0.292217X0.292217X-0.292217X-0.292217X0.292217X-0.292217X0*%
%ADD31RoundRect,0.050000X0.387500X0.050000X-0.387500X0.050000X-0.387500X-0.050000X0.387500X-0.050000X0*%
%ADD32RoundRect,0.050000X0.050000X0.387500X-0.050000X0.387500X-0.050000X-0.387500X0.050000X-0.387500X0*%
%ADD33R,1.000000X1.000000*%
%ADD34R,1.753400X0.912000*%
%ADD35R,1.300000X0.600000*%
%ADD36RoundRect,0.160000X0.345000X-0.160000X0.345000X0.160000X-0.345000X0.160000X-0.345000X-0.160000X0*%
%ADD37RoundRect,0.062500X0.062500X-0.362500X0.062500X0.362500X-0.062500X0.362500X-0.062500X-0.362500X0*%
%ADD38R,0.254000X0.355600*%
%ADD39RoundRect,0.250000X0.650000X-1.000000X0.650000X1.000000X-0.650000X1.000000X-0.650000X-1.000000X0*%
%ADD40RoundRect,0.250000X-0.250000X-0.475000X0.250000X-0.475000X0.250000X0.475000X-0.250000X0.475000X0*%
%ADD41RoundRect,0.225000X-0.250000X0.225000X-0.250000X-0.225000X0.250000X-0.225000X0.250000X0.225000X0*%
%ADD42RoundRect,0.250000X0.250000X0.475000X-0.250000X0.475000X-0.250000X-0.475000X0.250000X-0.475000X0*%
%ADD43R,1.400000X1.200000*%
%ADD44RoundRect,0.250000X-0.312500X-0.625000X0.312500X-0.625000X0.312500X0.625000X-0.312500X0.625000X0*%
%ADD45RoundRect,0.375000X-0.625000X-0.375000X0.625000X-0.375000X0.625000X0.375000X-0.625000X0.375000X0*%
%ADD46RoundRect,0.500000X-0.500000X-1.400000X0.500000X-1.400000X0.500000X1.400000X-0.500000X1.400000X0*%
%ADD47RoundRect,0.135000X0.135000X0.185000X-0.135000X0.185000X-0.135000X-0.185000X0.135000X-0.185000X0*%
%ADD48O,0.857199X0.204000*%
%ADD49O,0.204000X0.857199*%
%ADD50R,1.701800X1.701800*%
%ADD51RoundRect,0.250000X0.475000X-0.250000X0.475000X0.250000X-0.475000X0.250000X-0.475000X-0.250000X0*%
%ADD52RoundRect,0.250000X0.412500X0.925000X-0.412500X0.925000X-0.412500X-0.925000X0.412500X-0.925000X0*%
%ADD53R,0.457200X0.406400*%
%ADD54R,0.254000X0.711200*%
%ADD55R,1.651000X0.254000*%
%ADD56R,2.200000X2.150000*%
%ADD57RoundRect,0.250000X-0.475000X0.250000X-0.475000X-0.250000X0.475000X-0.250000X0.475000X0.250000X0*%
%ADD58R,1.050000X0.600000*%
%ADD59R,1.397000X0.889000*%
%ADD60RoundRect,0.225000X0.250000X-0.225000X0.250000X0.225000X-0.250000X0.225000X-0.250000X-0.225000X0*%
%ADD61RoundRect,0.250000X0.450000X-0.400000X0.450000X0.400000X-0.450000X0.400000X-0.450000X-0.400000X0*%
%ADD62R,0.950000X0.900000*%
%ADD63RoundRect,0.070000X-0.070000X-0.355000X0.070000X-0.355000X0.070000X0.355000X-0.070000X0.355000X0*%
%ADD64RoundRect,0.070000X-0.070000X-0.305000X0.070000X-0.305000X0.070000X0.305000X-0.070000X0.305000X0*%
%ADD65RoundRect,0.150000X0.150000X-0.512500X0.150000X0.512500X-0.150000X0.512500X-0.150000X-0.512500X0*%
%ADD66RoundRect,0.250000X-0.300000X-0.300000X0.300000X-0.300000X0.300000X0.300000X-0.300000X0.300000X0*%
G04 APERTURE END LIST*
D10*
%TO.C,D3*%
X85710799Y-69579600D03*
X82408799Y-69579600D03*
%TD*%
D11*
%TO.C,R20*%
X94805900Y-81651001D03*
X91880900Y-81651001D03*
%TD*%
D12*
%TO.C,R49*%
X100308000Y-63515000D03*
X100308000Y-65165000D03*
%TD*%
D13*
%TO.C,R33*%
X98433000Y-70140000D03*
X100083000Y-70140000D03*
%TD*%
D14*
%TO.C,C10*%
X84040000Y-111068000D03*
X83080000Y-111068000D03*
%TD*%
D15*
%TO.C,C5*%
X88776000Y-106376000D03*
X88776000Y-105416000D03*
%TD*%
D16*
%TO.C,R6*%
X89672500Y-119258000D03*
X89672500Y-118238000D03*
%TD*%
D17*
%TO.C,C8*%
X86660000Y-118268000D03*
X86660000Y-119228000D03*
%TD*%
D18*
%TO.C,J1*%
X78858000Y-122950000D03*
X79658000Y-122950000D03*
D19*
X80808000Y-122950000D03*
X81808000Y-122950000D03*
X82308000Y-122950000D03*
X83308000Y-122950000D03*
D18*
X84458000Y-122950000D03*
X85258000Y-122950000D03*
X85258000Y-122950000D03*
X84458000Y-122950000D03*
D19*
X83808000Y-122950000D03*
X82808000Y-122950000D03*
X81308000Y-122950000D03*
X80308000Y-122950000D03*
D18*
X79658000Y-122950000D03*
X78858000Y-122950000D03*
D20*
X77738000Y-123525000D03*
D21*
X77738000Y-127705000D03*
D20*
X86378000Y-123525000D03*
D21*
X86378000Y-127705000D03*
%TD*%
D22*
%TO.C,C19*%
X89470000Y-83350000D03*
X90430000Y-83350000D03*
%TD*%
D13*
%TO.C,R40*%
X58833000Y-60964000D03*
X60483000Y-60964000D03*
%TD*%
D17*
%TO.C,C18*%
X86358000Y-85060000D03*
X86358000Y-86020000D03*
%TD*%
D13*
%TO.C,R32*%
X71183000Y-82440000D03*
X72833000Y-82440000D03*
%TD*%
D23*
%TO.C,C41*%
X77408000Y-99040000D03*
X75858000Y-99040000D03*
%TD*%
D12*
%TO.C,R10*%
X86550000Y-92725000D03*
X86550000Y-94375000D03*
%TD*%
D24*
%TO.C,R2*%
X96108000Y-118730000D03*
X96108000Y-119750000D03*
%TD*%
D25*
%TO.C,R28*%
X66925000Y-83700000D03*
X65275000Y-83700000D03*
%TD*%
D16*
%TO.C,R5*%
X91195000Y-106406000D03*
X91195000Y-105386000D03*
%TD*%
%TO.C,R7*%
X88660000Y-119258000D03*
X88660000Y-118238000D03*
%TD*%
D10*
%TO.C,D8*%
X90168400Y-67293600D03*
X86866400Y-67293600D03*
%TD*%
%TO.C,D10*%
X93216400Y-67293600D03*
X96518400Y-67293600D03*
%TD*%
D26*
%TO.C,C38*%
X71686000Y-89408000D03*
X73236000Y-89408000D03*
%TD*%
D15*
%TO.C,C15*%
X83258000Y-82880000D03*
X83258000Y-81920000D03*
%TD*%
D10*
%TO.C,D7*%
X86866400Y-69579600D03*
X90168400Y-69579600D03*
%TD*%
D27*
%TO.C,R8*%
X77708000Y-88615000D03*
X77708000Y-86965000D03*
%TD*%
D25*
%TO.C,R31*%
X65187000Y-78368000D03*
X63537000Y-78368000D03*
%TD*%
D13*
%TO.C,R4*%
X76233000Y-120068000D03*
X77883000Y-120068000D03*
%TD*%
D12*
%TO.C,R48*%
X68632999Y-56069200D03*
X68632999Y-57719200D03*
%TD*%
D23*
%TO.C,C28*%
X63525000Y-71674000D03*
X61975000Y-71674000D03*
%TD*%
D28*
%TO.C,Q3*%
X60640000Y-100888000D03*
X60640000Y-99588000D03*
X58740000Y-100238000D03*
%TD*%
D29*
%TO.C,D13*%
X99158000Y-81140000D03*
X97258000Y-81140000D03*
X98208000Y-83240000D03*
%TD*%
D30*
%TO.C,U3*%
X91196500Y-112750500D03*
X91196500Y-111475500D03*
X89921500Y-112750500D03*
X89921500Y-111475500D03*
D31*
X93996500Y-114713000D03*
X93996500Y-114313000D03*
X93996500Y-113913000D03*
X93996500Y-113513000D03*
X93996500Y-113113000D03*
X93996500Y-112713000D03*
X93996500Y-112313000D03*
X93996500Y-111913000D03*
X93996500Y-111513000D03*
X93996500Y-111113000D03*
X93996500Y-110713000D03*
X93996500Y-110313000D03*
X93996500Y-109913000D03*
X93996500Y-109513000D03*
D32*
X93159000Y-108675500D03*
X92759000Y-108675500D03*
X92359000Y-108675500D03*
X91959000Y-108675500D03*
X91559000Y-108675500D03*
X91159000Y-108675500D03*
X90759000Y-108675500D03*
X90359000Y-108675500D03*
X89959000Y-108675500D03*
X89559000Y-108675500D03*
X89159000Y-108675500D03*
X88759000Y-108675500D03*
X88359000Y-108675500D03*
X87959000Y-108675500D03*
D31*
X87121500Y-109513000D03*
X87121500Y-109913000D03*
X87121500Y-110313000D03*
X87121500Y-110713000D03*
X87121500Y-111113000D03*
X87121500Y-111513000D03*
X87121500Y-111913000D03*
X87121500Y-112313000D03*
X87121500Y-112713000D03*
X87121500Y-113113000D03*
X87121500Y-113513000D03*
X87121500Y-113913000D03*
X87121500Y-114313000D03*
X87121500Y-114713000D03*
D32*
X87959000Y-115550500D03*
X88359000Y-115550500D03*
X88759000Y-115550500D03*
X89159000Y-115550500D03*
X89559000Y-115550500D03*
X89959000Y-115550500D03*
X90359000Y-115550500D03*
X90759000Y-115550500D03*
X91159000Y-115550500D03*
X91559000Y-115550500D03*
X91959000Y-115550500D03*
X92359000Y-115550500D03*
X92759000Y-115550500D03*
X93159000Y-115550500D03*
%TD*%
D13*
%TO.C,R26*%
X60183000Y-113340000D03*
X61833000Y-113340000D03*
%TD*%
%TO.C,R3*%
X76233000Y-118290000D03*
X77883000Y-118290000D03*
%TD*%
D17*
%TO.C,C7*%
X90942500Y-119377500D03*
X90942500Y-120337500D03*
%TD*%
D15*
%TO.C,C36*%
X76982999Y-57799200D03*
X76982999Y-56839200D03*
%TD*%
D25*
%TO.C,R24*%
X72733000Y-110290000D03*
X71083000Y-110290000D03*
%TD*%
D17*
%TO.C,C6*%
X87660000Y-118268000D03*
X87660000Y-119228000D03*
%TD*%
D33*
%TO.C,LED1*%
X91008000Y-128890000D03*
X89108000Y-128890000D03*
%TD*%
D25*
%TO.C,R45*%
X95308000Y-126140000D03*
X93658000Y-126140000D03*
%TD*%
D13*
%TO.C,R30*%
X63537000Y-80146000D03*
X65187000Y-80146000D03*
%TD*%
D12*
%TO.C,R27*%
X59790000Y-78813000D03*
X59790000Y-80463000D03*
%TD*%
D34*
%TO.C,L1*%
X81913400Y-72762201D03*
X81913400Y-75553801D03*
%TD*%
D14*
%TO.C,C13*%
X85440000Y-114768000D03*
X84480000Y-114768000D03*
%TD*%
D10*
%TO.C,D4*%
X82408799Y-67293600D03*
X85710799Y-67293600D03*
%TD*%
D35*
%TO.C,Q4*%
X100758000Y-75540000D03*
X100758000Y-73640000D03*
X98658000Y-74590000D03*
%TD*%
D36*
%TO.C,U7*%
X62944000Y-75370000D03*
X64194000Y-75370000D03*
X62944000Y-74570000D03*
X64194000Y-74570000D03*
D37*
X62319000Y-76395000D03*
X62819000Y-76395000D03*
X63319000Y-76395000D03*
X63819000Y-76395000D03*
X64319000Y-76395000D03*
X64819000Y-76395000D03*
X64819000Y-73545000D03*
X64319000Y-73545000D03*
X63819000Y-73545000D03*
X63319000Y-73545000D03*
X62819000Y-73545000D03*
X62319000Y-73545000D03*
%TD*%
D38*
%TO.C,U8*%
X73782999Y-60019200D03*
X73133001Y-60019200D03*
X72482999Y-60019200D03*
X71833001Y-60019200D03*
X71833001Y-62660800D03*
X72482999Y-62660800D03*
X73133001Y-62660800D03*
X73782999Y-62660800D03*
%TD*%
D33*
%TO.C,LED5*%
X101908000Y-102540000D03*
X101908000Y-104440000D03*
%TD*%
D15*
%TO.C,C3*%
X96108000Y-122520000D03*
X96108000Y-121560000D03*
%TD*%
D33*
%TO.C,LED2*%
X101858000Y-63340000D03*
X101858000Y-65240000D03*
%TD*%
D14*
%TO.C,C14*%
X85440000Y-115784000D03*
X84480000Y-115784000D03*
%TD*%
D12*
%TO.C,R34*%
X102408000Y-74165000D03*
X102408000Y-75815000D03*
%TD*%
D25*
%TO.C,R14*%
X84370001Y-90153400D03*
X82720001Y-90153400D03*
%TD*%
D27*
%TO.C,R37*%
X75582999Y-58594200D03*
X75582999Y-56944200D03*
%TD*%
D34*
%TO.C,L4*%
X93089400Y-72762201D03*
X93089400Y-75553801D03*
%TD*%
D25*
%TO.C,R43*%
X73283000Y-87884000D03*
X71633000Y-87884000D03*
%TD*%
D26*
%TO.C,C32*%
X59777000Y-81924000D03*
X61327000Y-81924000D03*
%TD*%
D13*
%TO.C,R23*%
X69563000Y-103320000D03*
X71213000Y-103320000D03*
%TD*%
D25*
%TO.C,R13*%
X77608000Y-83940000D03*
X75958000Y-83940000D03*
%TD*%
D14*
%TO.C,C20*%
X83888000Y-71390000D03*
X82928000Y-71390000D03*
%TD*%
D17*
%TO.C,C4*%
X91958500Y-119377500D03*
X91958500Y-120337500D03*
%TD*%
D33*
%TO.C,LED4*%
X101908000Y-96240000D03*
X101908000Y-98140000D03*
%TD*%
D23*
%TO.C,C39*%
X95258000Y-124620000D03*
X93708000Y-124620000D03*
%TD*%
D27*
%TO.C,R52*%
X100308000Y-104315000D03*
X100308000Y-102665000D03*
%TD*%
D39*
%TO.C,D12*%
X73200000Y-78350000D03*
X73200000Y-74350000D03*
%TD*%
D27*
%TO.C,R51*%
X100358000Y-98040000D03*
X100358000Y-96390000D03*
%TD*%
D25*
%TO.C,R55*%
X82008000Y-109290000D03*
X80358000Y-109290000D03*
%TD*%
D14*
%TO.C,C2*%
X90018000Y-103892000D03*
X89058000Y-103892000D03*
%TD*%
D40*
%TO.C,C24*%
X60518000Y-97724000D03*
X62418000Y-97724000D03*
%TD*%
D41*
%TO.C,C31*%
X61314000Y-78863000D03*
X61314000Y-80413000D03*
%TD*%
D22*
%TO.C,C1*%
X91598000Y-103892000D03*
X92558000Y-103892000D03*
%TD*%
D34*
%TO.C,L2*%
X79373400Y-72762201D03*
X79373400Y-75553801D03*
%TD*%
D25*
%TO.C,R12*%
X81033000Y-87940000D03*
X79383000Y-87940000D03*
%TD*%
D17*
%TO.C,C9*%
X95560000Y-114968000D03*
X95560000Y-115928000D03*
%TD*%
D42*
%TO.C,C34*%
X68150000Y-76150000D03*
X66250000Y-76150000D03*
%TD*%
D25*
%TO.C,R16*%
X84370001Y-87105400D03*
X82720001Y-87105400D03*
%TD*%
D22*
%TO.C,C23*%
X94248000Y-71357600D03*
X95208000Y-71357600D03*
%TD*%
D43*
%TO.C,Y1*%
X91908000Y-100502000D03*
X89708000Y-100502000D03*
X89708000Y-102202000D03*
X91908000Y-102202000D03*
%TD*%
D13*
%TO.C,R17*%
X90333000Y-90640000D03*
X91983000Y-90640000D03*
%TD*%
D44*
%TO.C,R19*%
X77656900Y-81651001D03*
X80581900Y-81651001D03*
%TD*%
D14*
%TO.C,C21*%
X77888000Y-71357600D03*
X76928000Y-71357600D03*
%TD*%
D45*
%TO.C,U5*%
X60316000Y-90630000D03*
X60316000Y-92930000D03*
D46*
X66616000Y-92930000D03*
D45*
X60316000Y-95230000D03*
%TD*%
D47*
%TO.C,R1*%
X95018000Y-118590000D03*
X93998000Y-118590000D03*
%TD*%
D15*
%TO.C,C12*%
X89925000Y-106376000D03*
X89925000Y-105416000D03*
%TD*%
D13*
%TO.C,R42*%
X71633000Y-86360000D03*
X73283000Y-86360000D03*
%TD*%
D48*
%TO.C,U4*%
X84863000Y-81250999D03*
X84863000Y-81651001D03*
X84863000Y-82051000D03*
X84863000Y-82450999D03*
X84863000Y-82851001D03*
D49*
X85532999Y-83521000D03*
X85933001Y-83521000D03*
X86333000Y-83521000D03*
X86732999Y-83521000D03*
X87133001Y-83521000D03*
D48*
X87803000Y-82851001D03*
X87803000Y-82450999D03*
X87803000Y-82051000D03*
X87803000Y-81651001D03*
X87803000Y-81250999D03*
D49*
X87133001Y-80581000D03*
X86732999Y-80581000D03*
X86333000Y-80581000D03*
X85933001Y-80581000D03*
X85532999Y-80581000D03*
D50*
X86333000Y-82051000D03*
%TD*%
D12*
%TO.C,R11*%
X86650000Y-87325000D03*
X86650000Y-88975000D03*
%TD*%
D13*
%TO.C,R41*%
X71633000Y-84840000D03*
X73283000Y-84840000D03*
%TD*%
D51*
%TO.C,C30*%
X64108000Y-114290000D03*
X64108000Y-112390000D03*
%TD*%
D52*
%TO.C,C25*%
X64345500Y-67190000D03*
X61270500Y-67190000D03*
%TD*%
D25*
%TO.C,R15*%
X84370001Y-88629400D03*
X82720001Y-88629400D03*
%TD*%
D10*
%TO.C,D9*%
X96518400Y-69579600D03*
X93216400Y-69579600D03*
%TD*%
D27*
%TO.C,R36*%
X72182999Y-55494200D03*
X72182999Y-53844200D03*
%TD*%
D26*
%TO.C,C37*%
X58886000Y-62484000D03*
X60436000Y-62484000D03*
%TD*%
D27*
%TO.C,R38*%
X73982999Y-58594200D03*
X73982999Y-56944200D03*
%TD*%
%TO.C,R50*%
X100253000Y-92115000D03*
X100253000Y-90465000D03*
%TD*%
D51*
%TO.C,C29*%
X69508000Y-92790000D03*
X69508000Y-90890000D03*
%TD*%
D15*
%TO.C,C17*%
X85609001Y-77559001D03*
X85609001Y-76599001D03*
%TD*%
D53*
%TO.C,Q5*%
X98307999Y-68926000D03*
X100208001Y-68926000D03*
X99258000Y-66640000D03*
%TD*%
D29*
%TO.C,Q1*%
X82814400Y-94411001D03*
X84714400Y-94411001D03*
X83764400Y-92311001D03*
%TD*%
D54*
%TO.C,U1*%
X95058001Y-119743000D03*
X94558000Y-119743000D03*
X94058000Y-119743000D03*
X93557999Y-119743000D03*
X93557999Y-122537000D03*
X94058000Y-122537000D03*
X94558000Y-122537000D03*
X95058001Y-122537000D03*
D55*
X94308000Y-121140000D03*
%TD*%
D56*
%TO.C,L5*%
X68350000Y-67950000D03*
X68350000Y-72750000D03*
%TD*%
D23*
%TO.C,C33*%
X65137000Y-81924000D03*
X63587000Y-81924000D03*
%TD*%
D25*
%TO.C,R21*%
X64965000Y-102666000D03*
X63315000Y-102666000D03*
%TD*%
D22*
%TO.C,C11*%
X96680000Y-110768000D03*
X97640000Y-110768000D03*
%TD*%
D25*
%TO.C,R9*%
X80198400Y-94605001D03*
X78548400Y-94605001D03*
%TD*%
%TO.C,R39*%
X60483000Y-59440000D03*
X58833000Y-59440000D03*
%TD*%
D57*
%TO.C,C26*%
X72710000Y-112190000D03*
X72710000Y-114090000D03*
%TD*%
D58*
%TO.C,U6*%
X68058000Y-112190000D03*
X68058000Y-113140000D03*
X68058000Y-114090000D03*
X70758000Y-114090000D03*
X70758000Y-112190000D03*
%TD*%
D13*
%TO.C,R54*%
X81268000Y-103450000D03*
X82918000Y-103450000D03*
%TD*%
D10*
%TO.C,D5*%
X75690400Y-69579600D03*
X78992400Y-69579600D03*
%TD*%
D29*
%TO.C,Q6*%
X74032999Y-55369200D03*
X75932999Y-55369200D03*
X74982999Y-53269200D03*
%TD*%
D12*
%TO.C,R29*%
X66902000Y-80083000D03*
X66902000Y-81733000D03*
%TD*%
D59*
%TO.C,SW2*%
X71073600Y-128940001D03*
X71073600Y-122439999D03*
%TD*%
D33*
%TO.C,LED3*%
X101808000Y-90240000D03*
X101808000Y-92140000D03*
%TD*%
D23*
%TO.C,C27*%
X63525000Y-70150000D03*
X61975000Y-70150000D03*
%TD*%
D12*
%TO.C,R18*%
X88700000Y-88825000D03*
X88700000Y-90475000D03*
%TD*%
D59*
%TO.C,SW1*%
X65908000Y-128940001D03*
X65908000Y-122439999D03*
%TD*%
D22*
%TO.C,C22*%
X88628000Y-71390000D03*
X89588000Y-71390000D03*
%TD*%
D34*
%TO.C,L3*%
X90549400Y-72762201D03*
X90549400Y-75553801D03*
%TD*%
D12*
%TO.C,R47*%
X70232999Y-56044200D03*
X70232999Y-57694200D03*
%TD*%
D60*
%TO.C,C40*%
X73458000Y-96590000D03*
X73458000Y-95040000D03*
%TD*%
D61*
%TO.C,D2*%
X76350000Y-78929000D03*
X76350000Y-76029000D03*
%TD*%
D23*
%TO.C,C35*%
X100033000Y-71740000D03*
X98483000Y-71740000D03*
%TD*%
D62*
%TO.C,D1*%
X74958000Y-124274550D03*
X74958000Y-127424550D03*
%TD*%
D10*
%TO.C,D6*%
X78992400Y-67293600D03*
X75690400Y-67293600D03*
%TD*%
D13*
%TO.C,R44*%
X93674000Y-127728000D03*
X95324000Y-127728000D03*
%TD*%
D25*
%TO.C,R53*%
X85168000Y-109250000D03*
X83518000Y-109250000D03*
%TD*%
D27*
%TO.C,R25*%
X60806000Y-75129000D03*
X60806000Y-73479000D03*
%TD*%
D13*
%TO.C,R35*%
X100833000Y-77340000D03*
X102483000Y-77340000D03*
%TD*%
D29*
%TO.C,Q7*%
X82943000Y-105300000D03*
X81043000Y-105300000D03*
X81993000Y-107400000D03*
%TD*%
D35*
%TO.C,Q2*%
X78858000Y-90540000D03*
X78858000Y-92440000D03*
X80958000Y-91490000D03*
%TD*%
D63*
%TO.C,U9*%
X71632999Y-58260800D03*
D64*
X72132999Y-58310800D03*
X72632999Y-58310800D03*
X72632999Y-57160800D03*
X72132999Y-57160800D03*
X71632999Y-57160800D03*
%TD*%
D65*
%TO.C,U2*%
X81102000Y-119567500D03*
X82052000Y-119567500D03*
X83002000Y-119567500D03*
X83002000Y-117292500D03*
X82052000Y-117292500D03*
X81102000Y-117292500D03*
%TD*%
D12*
%TO.C,R46*%
X70232999Y-52944200D03*
X70232999Y-54594200D03*
%TD*%
D60*
%TO.C,C16*%
X86879001Y-77854001D03*
X86879001Y-76304001D03*
%TD*%
D25*
%TO.C,R22*%
X61917000Y-102666000D03*
X60267000Y-102666000D03*
%TD*%
D66*
%TO.C,D11*%
X62486000Y-100010000D03*
X65286000Y-100010000D03*
%TD*%
M02*
