%TF.GenerationSoftware,KiCad,Pcbnew,8.0.2*%
%TF.CreationDate,2024-05-30T20:06:03+01:00*%
%TF.ProjectId,StepUp,53746570-5570-42e6-9b69-6361645f7063,v0.1*%
%TF.SameCoordinates,Original*%
%TF.FileFunction,Soldermask,Top*%
%TF.FilePolarity,Negative*%
%FSLAX46Y46*%
G04 Gerber Fmt 4.6, Leading zero omitted, Abs format (unit mm)*
G04 Created by KiCad (PCBNEW 8.0.2) date 2024-05-30 20:06:03*
%MOMM*%
%LPD*%
G01*
G04 APERTURE LIST*
G04 Aperture macros list*
%AMRoundRect*
0 Rectangle with rounded corners*
0 $1 Rounding radius*
0 $2 $3 $4 $5 $6 $7 $8 $9 X,Y pos of 4 corners*
0 Add a 4 corners polygon primitive as box body*
4,1,4,$2,$3,$4,$5,$6,$7,$8,$9,$2,$3,0*
0 Add four circle primitives for the rounded corners*
1,1,$1+$1,$2,$3*
1,1,$1+$1,$4,$5*
1,1,$1+$1,$6,$7*
1,1,$1+$1,$8,$9*
0 Add four rect primitives between the rounded corners*
20,1,$1+$1,$2,$3,$4,$5,0*
20,1,$1+$1,$4,$5,$6,$7,0*
20,1,$1+$1,$6,$7,$8,$9,0*
20,1,$1+$1,$8,$9,$2,$3,0*%
%AMFreePoly0*
4,1,19,0.500000,-0.750000,0.000000,-0.750000,0.000000,-0.744911,-0.071157,-0.744911,-0.207708,-0.704816,-0.327430,-0.627875,-0.420627,-0.520320,-0.479746,-0.390866,-0.500000,-0.250000,-0.500000,0.250000,-0.479746,0.390866,-0.420627,0.520320,-0.327430,0.627875,-0.207708,0.704816,-0.071157,0.744911,0.000000,0.744911,0.000000,0.750000,0.500000,0.750000,0.500000,-0.750000,0.500000,-0.750000,
$1*%
%AMFreePoly1*
4,1,19,0.000000,0.744911,0.071157,0.744911,0.207708,0.704816,0.327430,0.627875,0.420627,0.520320,0.479746,0.390866,0.500000,0.250000,0.500000,-0.250000,0.479746,-0.390866,0.420627,-0.520320,0.327430,-0.627875,0.207708,-0.704816,0.071157,-0.744911,0.000000,-0.744911,0.000000,-0.750000,-0.500000,-0.750000,-0.500000,0.750000,0.000000,0.750000,0.000000,0.744911,0.000000,0.744911,
$1*%
%AMFreePoly2*
4,1,19,0.550000,-0.750000,0.000000,-0.750000,0.000000,-0.744911,-0.071157,-0.744911,-0.207708,-0.704816,-0.327430,-0.627875,-0.420627,-0.520320,-0.479746,-0.390866,-0.500000,-0.250000,-0.500000,0.250000,-0.479746,0.390866,-0.420627,0.520320,-0.327430,0.627875,-0.207708,0.704816,-0.071157,0.744911,0.000000,0.744911,0.000000,0.750000,0.550000,0.750000,0.550000,-0.750000,0.550000,-0.750000,
$1*%
%AMFreePoly3*
4,1,19,0.000000,0.744911,0.071157,0.744911,0.207708,0.704816,0.327430,0.627875,0.420627,0.520320,0.479746,0.390866,0.500000,0.250000,0.500000,-0.250000,0.479746,-0.390866,0.420627,-0.520320,0.327430,-0.627875,0.207708,-0.704816,0.071157,-0.744911,0.000000,-0.744911,0.000000,-0.750000,-0.550000,-0.750000,-0.550000,0.750000,0.000000,0.750000,0.000000,0.744911,0.000000,0.744911,
$1*%
G04 Aperture macros list end*
%ADD10R,0.863600X0.787400*%
%ADD11RoundRect,0.250000X0.312500X0.625000X-0.312500X0.625000X-0.312500X-0.625000X0.312500X-0.625000X0*%
%ADD12C,2.184000*%
%ADD13C,2.390000*%
%ADD14C,3.550000*%
%ADD15FreePoly0,180.000000*%
%ADD16FreePoly1,180.000000*%
%ADD17RoundRect,0.150000X0.587500X0.150000X-0.587500X0.150000X-0.587500X-0.150000X0.587500X-0.150000X0*%
%ADD18RoundRect,0.140000X0.140000X0.170000X-0.140000X0.170000X-0.140000X-0.170000X0.140000X-0.170000X0*%
%ADD19RoundRect,0.140000X0.170000X-0.140000X0.170000X0.140000X-0.170000X0.140000X-0.170000X-0.140000X0*%
%ADD20RoundRect,0.135000X0.185000X-0.135000X0.185000X0.135000X-0.185000X0.135000X-0.185000X-0.135000X0*%
%ADD21RoundRect,0.140000X-0.170000X0.140000X-0.170000X-0.140000X0.170000X-0.140000X0.170000X0.140000X0*%
%ADD22O,1.000000X1.800000*%
%ADD23O,1.000000X2.100000*%
%ADD24RoundRect,0.150000X-0.150000X-0.425000X0.150000X-0.425000X0.150000X0.425000X-0.150000X0.425000X0*%
%ADD25RoundRect,0.075000X-0.075000X-0.500000X0.075000X-0.500000X0.075000X0.500000X-0.075000X0.500000X0*%
%ADD26C,0.650000*%
%ADD27RoundRect,0.140000X-0.140000X-0.170000X0.140000X-0.170000X0.140000X0.170000X-0.140000X0.170000X0*%
%ADD28RoundRect,0.200000X-0.200000X-0.275000X0.200000X-0.275000X0.200000X0.275000X-0.200000X0.275000X0*%
%ADD29RoundRect,0.225000X0.225000X0.250000X-0.225000X0.250000X-0.225000X-0.250000X0.225000X-0.250000X0*%
%ADD30RoundRect,0.200000X-0.275000X0.200000X-0.275000X-0.200000X0.275000X-0.200000X0.275000X0.200000X0*%
%ADD31RoundRect,0.200000X0.200000X0.275000X-0.200000X0.275000X-0.200000X-0.275000X0.200000X-0.275000X0*%
%ADD32RoundRect,0.225000X-0.225000X-0.250000X0.225000X-0.250000X0.225000X0.250000X-0.225000X0.250000X0*%
%ADD33RoundRect,0.200000X0.275000X-0.200000X0.275000X0.200000X-0.275000X0.200000X-0.275000X-0.200000X0*%
%ADD34R,1.000000X0.550000*%
%ADD35RoundRect,0.144000X1.456000X1.456000X-1.456000X1.456000X-1.456000X-1.456000X1.456000X-1.456000X0*%
%ADD36RoundRect,0.050000X0.050000X0.387500X-0.050000X0.387500X-0.050000X-0.387500X0.050000X-0.387500X0*%
%ADD37RoundRect,0.050000X0.387500X0.050000X-0.387500X0.050000X-0.387500X-0.050000X0.387500X-0.050000X0*%
%ADD38C,1.650000*%
%ADD39C,1.950000*%
%ADD40C,2.400000*%
%ADD41R,0.711200X1.219200*%
%ADD42C,5.600000*%
%ADD43R,1.753400X0.912000*%
%ADD44FreePoly2,270.000000*%
%ADD45R,1.500000X1.000000*%
%ADD46FreePoly3,270.000000*%
%ADD47R,2.500000X1.600000*%
%ADD48RoundRect,0.062500X0.062500X-0.362500X0.062500X0.362500X-0.062500X0.362500X-0.062500X-0.362500X0*%
%ADD49R,0.900000X0.950000*%
%ADD50RoundRect,0.150000X0.650000X0.150000X-0.650000X0.150000X-0.650000X-0.150000X0.650000X-0.150000X0*%
%ADD51R,1.200000X1.200000*%
%ADD52R,1.700000X1.700000*%
%ADD53O,1.700000X1.700000*%
%ADD54R,1.300000X3.400000*%
%ADD55RoundRect,0.250000X0.650000X-1.000000X0.650000X1.000000X-0.650000X1.000000X-0.650000X-1.000000X0*%
%ADD56RoundRect,0.150000X-0.825000X-0.150000X0.825000X-0.150000X0.825000X0.150000X-0.825000X0.150000X0*%
%ADD57RoundRect,0.250000X-0.250000X-0.475000X0.250000X-0.475000X0.250000X0.475000X-0.250000X0.475000X0*%
%ADD58FreePoly0,90.000000*%
%ADD59FreePoly1,90.000000*%
%ADD60RoundRect,0.225000X-0.250000X0.225000X-0.250000X-0.225000X0.250000X-0.225000X0.250000X0.225000X0*%
%ADD61R,0.889000X0.533400*%
%ADD62RoundRect,0.250000X0.250000X0.475000X-0.250000X0.475000X-0.250000X-0.475000X0.250000X-0.475000X0*%
%ADD63RoundRect,0.102000X0.900000X0.900000X-0.900000X0.900000X-0.900000X-0.900000X0.900000X-0.900000X0*%
%ADD64C,2.004000*%
%ADD65R,1.400000X1.200000*%
%ADD66RoundRect,0.250000X-0.312500X-0.625000X0.312500X-0.625000X0.312500X0.625000X-0.312500X0.625000X0*%
%ADD67RoundRect,0.375000X-0.625000X-0.375000X0.625000X-0.375000X0.625000X0.375000X-0.625000X0.375000X0*%
%ADD68RoundRect,0.500000X-0.500000X-1.400000X0.500000X-1.400000X0.500000X1.400000X-0.500000X1.400000X0*%
%ADD69RoundRect,0.135000X-0.185000X0.135000X-0.185000X-0.135000X0.185000X-0.135000X0.185000X0.135000X0*%
%ADD70RoundRect,0.250000X-0.475000X0.250000X-0.475000X-0.250000X0.475000X-0.250000X0.475000X0.250000X0*%
%ADD71RoundRect,0.250000X-0.412500X-0.925000X0.412500X-0.925000X0.412500X0.925000X-0.412500X0.925000X0*%
%ADD72RoundRect,0.250000X0.475000X-0.250000X0.475000X0.250000X-0.475000X0.250000X-0.475000X-0.250000X0*%
%ADD73RoundRect,0.070000X0.300000X-0.650000X0.300000X0.650000X-0.300000X0.650000X-0.300000X-0.650000X0*%
%ADD74R,2.200000X2.150000*%
%ADD75RoundRect,0.070000X-0.525000X0.300000X-0.525000X-0.300000X0.525000X-0.300000X0.525000X0.300000X0*%
%ADD76R,0.950000X1.400000*%
%ADD77RoundRect,0.070000X-0.650000X-0.300000X0.650000X-0.300000X0.650000X0.300000X-0.650000X0.300000X0*%
%ADD78RoundRect,0.225000X0.250000X-0.225000X0.250000X0.225000X-0.250000X0.225000X-0.250000X-0.225000X0*%
%ADD79RoundRect,0.250000X0.450000X-0.400000X0.450000X0.400000X-0.450000X0.400000X-0.450000X-0.400000X0*%
%ADD80RoundRect,0.250000X-1.000000X-0.650000X1.000000X-0.650000X1.000000X0.650000X-1.000000X0.650000X0*%
%ADD81RoundRect,0.150000X0.150000X-0.512500X0.150000X0.512500X-0.150000X0.512500X-0.150000X-0.512500X0*%
%ADD82RoundRect,0.250000X-0.300000X-0.300000X0.300000X-0.300000X0.300000X0.300000X-0.300000X0.300000X0*%
%ADD83O,0.857199X0.204000*%
%ADD84O,0.204000X0.857199*%
%ADD85R,1.701800X1.701800*%
G04 APERTURE END LIST*
D10*
%TO.C,D3*%
X83502799Y-43439600D03*
X80200799Y-43439600D03*
%TD*%
D11*
%TO.C,R22*%
X92597900Y-55511001D03*
X89672900Y-55511001D03*
%TD*%
D12*
%TO.C,BT1*%
X45390000Y-27802000D03*
X45390000Y-100022000D03*
D13*
X53390000Y-27802000D03*
D14*
X37390000Y-36002000D03*
X53390000Y-91202000D03*
%TD*%
D15*
%TO.C,JP7*%
X101051000Y-42056000D03*
D16*
X99751000Y-42056000D03*
%TD*%
D17*
%TO.C,Q4*%
X59281500Y-40573000D03*
X59281500Y-38673000D03*
X57406500Y-39623000D03*
%TD*%
D18*
%TO.C,C10*%
X102122000Y-62110000D03*
X101162000Y-62110000D03*
%TD*%
D19*
%TO.C,C5*%
X106858000Y-57418000D03*
X106858000Y-56458000D03*
%TD*%
D20*
%TO.C,R6*%
X107754500Y-70300000D03*
X107754500Y-69280000D03*
%TD*%
D21*
%TO.C,C8*%
X104742000Y-69310000D03*
X104742000Y-70270000D03*
%TD*%
D22*
%TO.C,J1*%
X112962000Y-101635000D03*
D23*
X112962000Y-97455000D03*
D22*
X104322000Y-101635000D03*
D23*
X104322000Y-97455000D03*
D24*
X105442000Y-96880000D03*
X106242000Y-96880000D03*
D25*
X106892000Y-96880000D03*
X107892000Y-96880000D03*
X109392000Y-96880000D03*
X110392000Y-96880000D03*
D24*
X111042000Y-96880000D03*
X111842000Y-96880000D03*
X111842000Y-96880000D03*
X111042000Y-96880000D03*
D25*
X109892000Y-96880000D03*
X108892000Y-96880000D03*
X108392000Y-96880000D03*
X107392000Y-96880000D03*
D24*
X106242000Y-96880000D03*
X105442000Y-96880000D03*
D26*
X111532000Y-97955000D03*
X105752000Y-97955000D03*
%TD*%
D27*
%TO.C,C20*%
X87262000Y-57210000D03*
X88222000Y-57210000D03*
%TD*%
D28*
%TO.C,R36*%
X95914000Y-30390000D03*
X97564000Y-30390000D03*
%TD*%
D21*
%TO.C,C19*%
X84150000Y-58920000D03*
X84150000Y-59880000D03*
%TD*%
D29*
%TO.C,C40*%
X95817000Y-68760000D03*
X94267000Y-68760000D03*
%TD*%
D30*
%TO.C,R12*%
X84342000Y-66585000D03*
X84342000Y-68235000D03*
%TD*%
D20*
%TO.C,R2*%
X119692500Y-76999500D03*
X119692500Y-75979500D03*
%TD*%
D31*
%TO.C,R31*%
X64717000Y-57560000D03*
X63067000Y-57560000D03*
%TD*%
D20*
%TO.C,R5*%
X109277000Y-57448000D03*
X109277000Y-56428000D03*
%TD*%
%TO.C,R7*%
X106742000Y-70300000D03*
X106742000Y-69280000D03*
%TD*%
D10*
%TO.C,D8*%
X87960400Y-41153600D03*
X84658400Y-41153600D03*
%TD*%
%TO.C,D10*%
X91008400Y-41153600D03*
X94310400Y-41153600D03*
%TD*%
D32*
%TO.C,C37*%
X96570000Y-50278000D03*
X98120000Y-50278000D03*
%TD*%
D33*
%TO.C,R45*%
X114732000Y-41877000D03*
X114732000Y-40227000D03*
%TD*%
D19*
%TO.C,C16*%
X81050000Y-56740000D03*
X81050000Y-55780000D03*
%TD*%
D10*
%TO.C,D7*%
X84658400Y-43439600D03*
X87960400Y-43439600D03*
%TD*%
D33*
%TO.C,R43*%
X117780000Y-41877000D03*
X117780000Y-40227000D03*
%TD*%
%TO.C,R10*%
X74625400Y-66496001D03*
X74625400Y-64846001D03*
%TD*%
D31*
%TO.C,R34*%
X62979000Y-52228000D03*
X61329000Y-52228000D03*
%TD*%
D28*
%TO.C,R4*%
X100699000Y-100742000D03*
X102349000Y-100742000D03*
%TD*%
D29*
%TO.C,C29*%
X61317000Y-45534000D03*
X59767000Y-45534000D03*
%TD*%
D34*
%TO.C,Q3*%
X59074000Y-77458000D03*
X59074000Y-76158000D03*
X57174000Y-76808000D03*
%TD*%
D35*
%TO.C,U3*%
X108641000Y-63155000D03*
D36*
X111241000Y-66592500D03*
X110841000Y-66592500D03*
X110441000Y-66592500D03*
X110041000Y-66592500D03*
X109641000Y-66592500D03*
X109241000Y-66592500D03*
X108841000Y-66592500D03*
X108441000Y-66592500D03*
X108041000Y-66592500D03*
X107641000Y-66592500D03*
X107241000Y-66592500D03*
X106841000Y-66592500D03*
X106441000Y-66592500D03*
X106041000Y-66592500D03*
D37*
X105203500Y-65755000D03*
X105203500Y-65355000D03*
X105203500Y-64955000D03*
X105203500Y-64555000D03*
X105203500Y-64155000D03*
X105203500Y-63755000D03*
X105203500Y-63355000D03*
X105203500Y-62955000D03*
X105203500Y-62555000D03*
X105203500Y-62155000D03*
X105203500Y-61755000D03*
X105203500Y-61355000D03*
X105203500Y-60955000D03*
X105203500Y-60555000D03*
D36*
X106041000Y-59717500D03*
X106441000Y-59717500D03*
X106841000Y-59717500D03*
X107241000Y-59717500D03*
X107641000Y-59717500D03*
X108041000Y-59717500D03*
X108441000Y-59717500D03*
X108841000Y-59717500D03*
X109241000Y-59717500D03*
X109641000Y-59717500D03*
X110041000Y-59717500D03*
X110441000Y-59717500D03*
X110841000Y-59717500D03*
X111241000Y-59717500D03*
D37*
X112078500Y-60555000D03*
X112078500Y-60955000D03*
X112078500Y-61355000D03*
X112078500Y-61755000D03*
X112078500Y-62155000D03*
X112078500Y-62555000D03*
X112078500Y-62955000D03*
X112078500Y-63355000D03*
X112078500Y-63755000D03*
X112078500Y-64155000D03*
X112078500Y-64555000D03*
X112078500Y-64955000D03*
X112078500Y-65355000D03*
X112078500Y-65755000D03*
%TD*%
D28*
%TO.C,R3*%
X100699000Y-98964000D03*
X102349000Y-98964000D03*
%TD*%
D21*
%TO.C,C7*%
X109024500Y-70419500D03*
X109024500Y-71379500D03*
%TD*%
D28*
%TO.C,R25*%
X64515000Y-86930000D03*
X66165000Y-86930000D03*
%TD*%
D38*
%TO.C,JOY1*%
X95804500Y-71285000D03*
X93304500Y-71285000D03*
X90804500Y-71285000D03*
X102034500Y-82515000D03*
X102034500Y-80015000D03*
X102034500Y-77515000D03*
D39*
X90054500Y-85765000D03*
X96554500Y-85765000D03*
X90054500Y-90265000D03*
X96554500Y-90265000D03*
D40*
X99629500Y-75015000D03*
X86979500Y-75015000D03*
X86979500Y-85015000D03*
X99629500Y-85015000D03*
%TD*%
D21*
%TO.C,C6*%
X105742000Y-69310000D03*
X105742000Y-70270000D03*
%TD*%
D41*
%TO.C,SW3*%
X27826100Y-50678600D03*
X32321900Y-50678600D03*
X32321900Y-41585400D03*
X27826100Y-41585400D03*
%TD*%
D31*
%TO.C,R41*%
X118459000Y-91662000D03*
X116809000Y-91662000D03*
%TD*%
D28*
%TO.C,R33*%
X61329000Y-54006000D03*
X62979000Y-54006000D03*
%TD*%
D42*
%TO.C,H1*%
X30742000Y-29010000D03*
%TD*%
D15*
%TO.C,JP4*%
X97534000Y-33942000D03*
D16*
X96234000Y-33942000D03*
%TD*%
D30*
%TO.C,R29*%
X57582000Y-52673000D03*
X57582000Y-54323000D03*
%TD*%
D43*
%TO.C,L1*%
X79705400Y-46622201D03*
X79705400Y-49413801D03*
%TD*%
D18*
%TO.C,C13*%
X103522000Y-65810000D03*
X102562000Y-65810000D03*
%TD*%
D28*
%TO.C,R40*%
X116812000Y-93186000D03*
X118462000Y-93186000D03*
%TD*%
D10*
%TO.C,D4*%
X80200799Y-41153600D03*
X83502799Y-41153600D03*
%TD*%
D44*
%TO.C,JP2*%
X71342000Y-76610000D03*
D45*
X71342000Y-77910000D03*
D46*
X71342000Y-79210000D03*
%TD*%
D47*
%TO.C,U8*%
X61361000Y-48830000D03*
D48*
X60111000Y-47405000D03*
X60611000Y-47405000D03*
X61111000Y-47405000D03*
X61611000Y-47405000D03*
X62111000Y-47405000D03*
X62611000Y-47405000D03*
X62611000Y-50255000D03*
X62111000Y-50255000D03*
X61611000Y-50255000D03*
X61111000Y-50255000D03*
X60611000Y-50255000D03*
X60111000Y-50255000D03*
%TD*%
D18*
%TO.C,C3*%
X112422000Y-75560000D03*
X111462000Y-75560000D03*
%TD*%
D17*
%TO.C,Q5*%
X108387000Y-43448000D03*
X108387000Y-41548000D03*
X106512000Y-42498000D03*
%TD*%
D30*
%TO.C,R30*%
X61192000Y-38885000D03*
X61192000Y-40535000D03*
%TD*%
D49*
%TO.C,D1*%
X30817000Y-83210000D03*
X27667000Y-83210000D03*
%TD*%
D33*
%TO.C,R9*%
X84592000Y-80135000D03*
X84592000Y-78485000D03*
%TD*%
D18*
%TO.C,C15*%
X103522000Y-66826000D03*
X102562000Y-66826000D03*
%TD*%
D41*
%TO.C,SW1*%
X27826100Y-67163200D03*
X32321900Y-67163200D03*
X32321900Y-58070000D03*
X27826100Y-58070000D03*
%TD*%
D31*
%TO.C,R16*%
X82162001Y-64013400D03*
X80512001Y-64013400D03*
%TD*%
D43*
%TO.C,L4*%
X90881400Y-46622201D03*
X90881400Y-49413801D03*
%TD*%
D31*
%TO.C,R39*%
X98167000Y-48754000D03*
X96517000Y-48754000D03*
%TD*%
D50*
%TO.C,U2*%
X119606500Y-73996500D03*
X119606500Y-72726500D03*
X119606500Y-71456500D03*
X119606500Y-70186500D03*
X112406500Y-70186500D03*
X112406500Y-71456500D03*
X112406500Y-72726500D03*
X112406500Y-73996500D03*
%TD*%
D15*
%TO.C,JP5*%
X98137000Y-52310000D03*
D16*
X96837000Y-52310000D03*
%TD*%
D32*
%TO.C,C33*%
X57569000Y-55784000D03*
X59119000Y-55784000D03*
%TD*%
D51*
%TO.C,D12*%
X66112000Y-92370000D03*
X66112000Y-94470000D03*
%TD*%
D31*
%TO.C,R15*%
X78767000Y-59010000D03*
X77117000Y-59010000D03*
%TD*%
D18*
%TO.C,C21*%
X81455400Y-45217600D03*
X80495400Y-45217600D03*
%TD*%
D21*
%TO.C,C4*%
X110040500Y-70419500D03*
X110040500Y-71379500D03*
%TD*%
D15*
%TO.C,JP6*%
X118142000Y-88010000D03*
D16*
X116842000Y-88010000D03*
%TD*%
D52*
%TO.C,J4*%
X123622000Y-56716000D03*
D53*
X121082000Y-56716000D03*
X123622000Y-54176000D03*
X121082000Y-54176000D03*
X123622000Y-51636000D03*
X121082000Y-51636000D03*
X123622000Y-49096000D03*
X121082000Y-49096000D03*
X123622000Y-46556000D03*
X121082000Y-46556000D03*
X123622000Y-44016000D03*
X121082000Y-44016000D03*
%TD*%
D29*
%TO.C,C38*%
X118409000Y-90142000D03*
X116859000Y-90142000D03*
%TD*%
D54*
%TO.C,BZ1*%
X99792000Y-35810000D03*
X108492000Y-35810000D03*
%TD*%
D28*
%TO.C,R28*%
X57067000Y-42310000D03*
X58717000Y-42310000D03*
%TD*%
D55*
%TO.C,D13*%
X70992000Y-52210000D03*
X70992000Y-48210000D03*
%TD*%
D31*
%TO.C,R48*%
X104640000Y-42060000D03*
X102990000Y-42060000D03*
%TD*%
D56*
%TO.C,U4*%
X74142000Y-76305000D03*
X74142000Y-77575000D03*
X74142000Y-78845000D03*
X74142000Y-80115000D03*
X79092000Y-80115000D03*
X79092000Y-78845000D03*
X79092000Y-77575000D03*
X79092000Y-76305000D03*
%TD*%
D18*
%TO.C,C2*%
X108100000Y-54934000D03*
X107140000Y-54934000D03*
%TD*%
D41*
%TO.C,SW2*%
X27826100Y-80650600D03*
X32321900Y-80650600D03*
X32321900Y-71557400D03*
X27826100Y-71557400D03*
%TD*%
D57*
%TO.C,C25*%
X58952000Y-74294000D03*
X60852000Y-74294000D03*
%TD*%
D42*
%TO.C,H2*%
X30742000Y-99010000D03*
%TD*%
D58*
%TO.C,JP1*%
X30150000Y-55022000D03*
D59*
X30150000Y-53722000D03*
%TD*%
D60*
%TO.C,C32*%
X59106000Y-52723000D03*
X59106000Y-54273000D03*
%TD*%
D27*
%TO.C,C1*%
X109680000Y-54934000D03*
X110640000Y-54934000D03*
%TD*%
D43*
%TO.C,L2*%
X77165400Y-46622201D03*
X77165400Y-49413801D03*
%TD*%
D61*
%TO.C,LED2*%
X117551400Y-34790900D03*
X116256000Y-34790900D03*
X114960600Y-34790900D03*
X117551400Y-38169100D03*
X116256000Y-38169100D03*
X114960600Y-38169100D03*
%TD*%
D31*
%TO.C,R14*%
X78767000Y-60610000D03*
X77117000Y-60610000D03*
%TD*%
D21*
%TO.C,C9*%
X113642000Y-66010000D03*
X113642000Y-66970000D03*
%TD*%
D27*
%TO.C,C14*%
X79162000Y-74910000D03*
X80122000Y-74910000D03*
%TD*%
D62*
%TO.C,C35*%
X65942000Y-50010000D03*
X64042000Y-50010000D03*
%TD*%
D31*
%TO.C,R18*%
X82162001Y-60965400D03*
X80512001Y-60965400D03*
%TD*%
D63*
%TO.C,J5*%
X89019400Y-36699501D03*
X89019400Y-29699501D03*
D64*
X85519400Y-36699501D03*
X85519400Y-29699501D03*
X82019400Y-36699501D03*
X82019400Y-29699501D03*
X78519400Y-36699501D03*
X78519400Y-29699501D03*
%TD*%
D27*
%TO.C,C24*%
X91699400Y-45217600D03*
X92659400Y-45217600D03*
%TD*%
D65*
%TO.C,Y1*%
X109990000Y-51544000D03*
X107790000Y-51544000D03*
X107790000Y-53244000D03*
X109990000Y-53244000D03*
%TD*%
D28*
%TO.C,R19*%
X88017000Y-62760000D03*
X89667000Y-62760000D03*
%TD*%
D66*
%TO.C,R21*%
X75448900Y-55511001D03*
X78373900Y-55511001D03*
%TD*%
D18*
%TO.C,C22*%
X76347400Y-45217600D03*
X75387400Y-45217600D03*
%TD*%
D67*
%TO.C,U6*%
X58750000Y-67200000D03*
X58750000Y-69500000D03*
D68*
X65050000Y-69500000D03*
D67*
X58750000Y-71800000D03*
%TD*%
D69*
%TO.C,R1*%
X118692500Y-75989500D03*
X118692500Y-77009500D03*
%TD*%
D19*
%TO.C,C12*%
X108007000Y-57418000D03*
X108007000Y-56458000D03*
%TD*%
D52*
%TO.C,J3*%
X123617000Y-65535000D03*
D53*
X121077000Y-65535000D03*
X123617000Y-62995000D03*
X121077000Y-62995000D03*
X123617000Y-60455000D03*
X121077000Y-60455000D03*
%TD*%
D28*
%TO.C,R38*%
X96517000Y-47230000D03*
X98167000Y-47230000D03*
%TD*%
D30*
%TO.C,R13*%
X84442000Y-61185000D03*
X84442000Y-62835000D03*
%TD*%
%TO.C,R27*%
X64140000Y-92205000D03*
X64140000Y-93855000D03*
%TD*%
D28*
%TO.C,R37*%
X96517000Y-45710000D03*
X98167000Y-45710000D03*
%TD*%
D52*
%TO.C,J8*%
X58594000Y-88347000D03*
D53*
X58594000Y-90887000D03*
%TD*%
D70*
%TO.C,C31*%
X61600000Y-90800000D03*
X61600000Y-92700000D03*
%TD*%
D71*
%TO.C,C26*%
X64004500Y-38660000D03*
X67079500Y-38660000D03*
%TD*%
D31*
%TO.C,R17*%
X82162001Y-62489400D03*
X80512001Y-62489400D03*
%TD*%
D10*
%TO.C,D9*%
X94310400Y-43439600D03*
X91008400Y-43439600D03*
%TD*%
D32*
%TO.C,C36*%
X95967000Y-31910000D03*
X97517000Y-31910000D03*
%TD*%
D72*
%TO.C,C30*%
X67942000Y-69360000D03*
X67942000Y-67460000D03*
%TD*%
D19*
%TO.C,C18*%
X83401001Y-51419001D03*
X83401001Y-50459001D03*
%TD*%
D73*
%TO.C,Q1*%
X80606400Y-68271001D03*
X82506400Y-68271001D03*
X81556400Y-66171001D03*
%TD*%
D52*
%TO.C,J9*%
X71303000Y-55784000D03*
D53*
X68763000Y-55784000D03*
%TD*%
D42*
%TO.C,H4*%
X120742000Y-99010000D03*
%TD*%
D74*
%TO.C,L5*%
X66142000Y-41810000D03*
X66142000Y-46610000D03*
%TD*%
D29*
%TO.C,C34*%
X62929000Y-55784000D03*
X61379000Y-55784000D03*
%TD*%
D31*
%TO.C,R23*%
X63399000Y-79236000D03*
X61749000Y-79236000D03*
%TD*%
D27*
%TO.C,C11*%
X114762000Y-61810000D03*
X115722000Y-61810000D03*
%TD*%
D31*
%TO.C,R11*%
X77990400Y-68465001D03*
X76340400Y-68465001D03*
%TD*%
%TO.C,R35*%
X97564000Y-28866000D03*
X95914000Y-28866000D03*
%TD*%
%TO.C,R42*%
X65773000Y-32162000D03*
X64123000Y-32162000D03*
%TD*%
D70*
%TO.C,C28*%
X68144000Y-88660000D03*
X68144000Y-90560000D03*
%TD*%
D75*
%TO.C,U7*%
X63492000Y-88660000D03*
X63492000Y-89610000D03*
X63492000Y-90560000D03*
X66192000Y-90560000D03*
X66192000Y-88660000D03*
%TD*%
D30*
%TO.C,R47*%
X110165000Y-41485000D03*
X110165000Y-43135000D03*
%TD*%
D76*
%TO.C,LED1*%
X69592000Y-32110000D03*
X67692000Y-32110000D03*
%TD*%
D10*
%TO.C,D5*%
X73482400Y-43439600D03*
X76784400Y-43439600D03*
%TD*%
D30*
%TO.C,R32*%
X64694000Y-53943000D03*
X64694000Y-55593000D03*
%TD*%
D52*
%TO.C,J6*%
X66542000Y-79185000D03*
D53*
X66542000Y-76645000D03*
%TD*%
D77*
%TO.C,Q2*%
X76369400Y-64721001D03*
X76369400Y-66621001D03*
X78469400Y-65671001D03*
%TD*%
D52*
%TO.C,J10*%
X101617000Y-28685000D03*
D53*
X101617000Y-26145000D03*
X104157000Y-28685000D03*
X104157000Y-26145000D03*
X106697000Y-28685000D03*
X106697000Y-26145000D03*
%TD*%
D29*
%TO.C,C27*%
X61317000Y-44010000D03*
X59767000Y-44010000D03*
%TD*%
D30*
%TO.C,R20*%
X86492000Y-62685000D03*
X86492000Y-64335000D03*
%TD*%
D27*
%TO.C,C23*%
X86591400Y-45217600D03*
X87551400Y-45217600D03*
%TD*%
D52*
%TO.C,J2*%
X112446000Y-90577000D03*
D53*
X112446000Y-93117000D03*
%TD*%
D43*
%TO.C,L3*%
X88341400Y-46622201D03*
X88341400Y-49413801D03*
%TD*%
D78*
%TO.C,C39*%
X104192000Y-82535000D03*
X104192000Y-80985000D03*
%TD*%
D79*
%TO.C,D2*%
X74142000Y-52789000D03*
X74142000Y-49889000D03*
%TD*%
D33*
%TO.C,R8*%
X82442000Y-78885000D03*
X82442000Y-77235000D03*
%TD*%
D52*
%TO.C,J11*%
X58598000Y-32167000D03*
D53*
X58598000Y-29627000D03*
%TD*%
D42*
%TO.C,H3*%
X120742000Y-29010000D03*
%TD*%
D52*
%TO.C,J12*%
X121072000Y-79810000D03*
D53*
X123612000Y-79810000D03*
X121072000Y-82350000D03*
X123612000Y-82350000D03*
X121072000Y-84890000D03*
X123612000Y-84890000D03*
%TD*%
D10*
%TO.C,D6*%
X76784400Y-41153600D03*
X73482400Y-41153600D03*
%TD*%
D28*
%TO.C,R46*%
X108578000Y-45358000D03*
X110228000Y-45358000D03*
%TD*%
D33*
%TO.C,R26*%
X58598000Y-48989000D03*
X58598000Y-47339000D03*
%TD*%
D80*
%TO.C,D14*%
X58342000Y-25960000D03*
X62342000Y-25960000D03*
%TD*%
D81*
%TO.C,U1*%
X107686000Y-93497500D03*
X108636000Y-93497500D03*
X109586000Y-93497500D03*
X109586000Y-91222500D03*
X108636000Y-91222500D03*
X107686000Y-91222500D03*
%TD*%
D78*
%TO.C,C17*%
X84671001Y-51714001D03*
X84671001Y-50164001D03*
%TD*%
D33*
%TO.C,R44*%
X116256000Y-41877000D03*
X116256000Y-40227000D03*
%TD*%
D52*
%TO.C,J7*%
X58593000Y-35972000D03*
D53*
X61133000Y-35972000D03*
%TD*%
D31*
%TO.C,R24*%
X60351000Y-79236000D03*
X58701000Y-79236000D03*
%TD*%
D82*
%TO.C,D11*%
X60920000Y-76580000D03*
X63720000Y-76580000D03*
%TD*%
D83*
%TO.C,U5*%
X82655000Y-55110999D03*
X82655000Y-55511001D03*
X82655000Y-55911000D03*
X82655000Y-56310999D03*
X82655000Y-56711001D03*
D84*
X83324999Y-57381000D03*
X83725001Y-57381000D03*
X84125000Y-57381000D03*
X84524999Y-57381000D03*
X84925001Y-57381000D03*
D83*
X85595000Y-56711001D03*
X85595000Y-56310999D03*
X85595000Y-55911000D03*
X85595000Y-55511001D03*
X85595000Y-55110999D03*
D84*
X84925001Y-54441000D03*
X84524999Y-54441000D03*
X84125000Y-54441000D03*
X83725001Y-54441000D03*
X83324999Y-54441000D03*
D85*
X84125000Y-55911000D03*
%TD*%
M02*
