M48
; DRILL file {KiCad 8.0.2} date 2024-05-30T20:06:03+0100
; FORMAT={-:-/ absolute / metric / decimal}
; #@! TF.CreationDate,2024-05-30T20:06:03+01:00
; #@! TF.GenerationSoftware,Kicad,Pcbnew,8.0.2
; #@! TF.FileFunction,Plated,1,4,PTH
FMAT,2
METRIC
; #@! TA.AperFunction,Plated,PTH,ViaDrill
T1C0.300
; #@! TA.AperFunction,Plated,PTH,ComponentDrill
T2C0.300
; #@! TA.AperFunction,Plated,PTH,ComponentDrill
T3C0.600
; #@! TA.AperFunction,Plated,PTH,ComponentDrill
T4C1.000
; #@! TA.AperFunction,Plated,PTH,ComponentDrill
T5C1.100
; #@! TA.AperFunction,Plated,PTH,ComponentDrill
T6C1.200
; #@! TA.AperFunction,Plated,PTH,ComponentDrill
T7C1.300
; #@! TA.AperFunction,Plated,PTH,ComponentDrill
T8C1.320
; #@! TA.AperFunction,Plated,PTH,ComponentDrill
T9C1.600
; #@! TA.AperFunction,Plated,PTH,ComponentDrill
T10C3.200
%
G90
G05
T1
X30.562Y-34.612
X30.562Y-40.612
X30.562Y-46.612
X30.562Y-58.612
X30.562Y-64.612
X30.562Y-70.612
X30.562Y-76.612
X30.562Y-88.612
X30.562Y-94.612
X36.562Y-28.612
X36.562Y-40.612
X36.562Y-46.612
X36.562Y-52.612
X36.562Y-58.612
X36.562Y-64.612
X36.562Y-70.612
X36.562Y-76.612
X36.562Y-88.612
X36.562Y-94.612
X36.562Y-100.612
X42.562Y-28.612
X42.562Y-34.612
X42.562Y-40.612
X42.562Y-46.612
X42.562Y-52.612
X42.562Y-58.612
X42.562Y-64.612
X42.562Y-70.612
X42.562Y-76.612
X42.562Y-88.612
X42.562Y-94.612
X42.562Y-100.612
X48.562Y-34.612
X48.562Y-40.612
X48.562Y-46.612
X48.562Y-52.612
X48.562Y-58.612
X48.562Y-64.612
X48.562Y-70.612
X48.562Y-76.612
X48.562Y-88.612
X48.562Y-94.612
X48.562Y-100.612
X50.742Y-83.21
X51.592Y-56.76
X51.817Y-58.035
X54.562Y-34.612
X54.562Y-64.612
X54.562Y-70.612
X54.562Y-76.612
X54.562Y-88.612
X54.562Y-94.612
X54.562Y-100.612
X56.042Y-38.86
X57.042Y-43.86
X57.192Y-67.11
X58.692Y-43.81
X58.692Y-44.81
X58.692Y-45.86
X58.742Y-65.91
X59.442Y-37.71
X60.092Y-54.26
X60.092Y-55.81
X60.292Y-67.16
X60.562Y-28.612
X60.562Y-58.612
X60.562Y-64.612
X60.562Y-94.612
X60.562Y-100.612
X61.192Y-37.86
X61.192Y-87.81
X61.992Y-74.31
X62.15Y-89.4
X62.442Y-46.36
X63.042Y-54.91
X63.992Y-51.36
X63.992Y-52.51
X64.142Y-25.56
X64.142Y-26.46
X64.392Y-79.31
X64.694Y-56.608
X64.842Y-52.86
X66.562Y-34.612
X66.562Y-58.612
X66.562Y-64.612
X66.562Y-100.612
X67.192Y-66.41
X67.792Y-87.56
X68.292Y-37.61
X68.292Y-38.51
X68.292Y-39.46
X68.442Y-66.36
X68.642Y-87.56
X69.942Y-83.16
X72.562Y-28.612
X72.562Y-34.612
X72.562Y-58.612
X72.562Y-64.612
X72.562Y-88.612
X72.562Y-100.612
X72.592Y-41.11
X73.342Y-66.36
X74.092Y-80.91
X74.292Y-48.66
X74.342Y-55.01
X74.342Y-55.66
X74.342Y-56.31
X74.642Y-61.66
X74.992Y-48.66
X75.292Y-68.46
X75.592Y-52.26
X75.592Y-52.91
X75.592Y-53.61
X76.142Y-59.06
X76.142Y-60.61
X76.292Y-67.36
X77.342Y-62.31
X78.562Y-70.612
X78.562Y-88.612
X78.562Y-94.612
X78.742Y-62.56
X79.542Y-64.16
X79.642Y-55.41
X79.642Y-56.06
X80.792Y-74.96
X82.542Y-53.76
X82.792Y-54.26
X83.142Y-52.21
X83.342Y-58.66
X83.342Y-60.61
X83.592Y-49.66
X83.642Y-55.51
X83.642Y-56.31
X83.692Y-52.61
X83.992Y-63.86
X84.042Y-40.31
X84.042Y-41.96
X84.342Y-52.66
X84.392Y-49.11
X84.562Y-88.612
X84.562Y-94.612
X84.562Y-100.612
X84.592Y-55.51
X84.592Y-56.31
X84.792Y-63.86
X84.892Y-59.76
X84.942Y-58.273
X85.092Y-49.16
X85.142Y-65.31
X85.449Y-54.26
X85.699Y-53.76
X85.742Y-61.21
X85.808Y-59.11
X87.192Y-61.21
X87.542Y-64.26
X88.599Y-55.41
X88.599Y-56.06
X88.792Y-60.06
X90.562Y-58.612
X90.562Y-94.612
X90.562Y-100.612
X90.942Y-62.21
X92.292Y-62.76
X92.942Y-52.26
X93.242Y-64.41
X93.242Y-68.71
X93.442Y-65.46
X93.642Y-61.66
X93.692Y-57.81
X93.742Y-54.86
X93.742Y-55.51
X93.742Y-56.16
X94.442Y-40.16
X94.692Y-57.26
X96.242Y-65.46
X96.562Y-94.612
X96.562Y-100.612
X97.442Y-88.31
X98.292Y-41.36
X99.142Y-72.61
X99.742Y-73.21
X99.942Y-54.31
X99.942Y-64.41
X100.242Y-65.16
X100.392Y-62.11
X101.042Y-65.16
X101.292Y-56.46
X101.692Y-76.11
X101.892Y-67.01
X101.942Y-66.16
X102.562Y-34.612
X102.562Y-40.612
X102.562Y-46.612
X102.562Y-52.612
X102.562Y-94.612
X103.292Y-57.26
X103.642Y-70.31
X103.992Y-58.51
X104.192Y-59.61
X104.192Y-79.96
X104.242Y-77.76
X104.742Y-70.96
X105.094Y-57.513
X105.492Y-58.36
X105.592Y-56.86
X105.692Y-71.01
X106.292Y-54.91
X106.942Y-55.71
X107.342Y-65.36
X107.696Y-58.256
X107.742Y-50.26
X107.742Y-55.71
X108.001Y-61.06
X108.392Y-42.31
X108.562Y-28.612
X108.562Y-100.612
X108.642Y-94.71
X108.784Y-67.86
X109.042Y-71.96
X109.775Y-58.648
X110.042Y-71.96
X110.192Y-40.51
X111.042Y-74.86
X111.142Y-53.21
X111.142Y-54.31
X112.392Y-77.71
X112.692Y-56.41
X112.892Y-67.01
X113.542Y-59.81
X114.442Y-67.06
X114.562Y-28.612
X114.792Y-48.46
X114.892Y-63.16
X114.942Y-34.06
X114.942Y-59.81
X115.342Y-88.01
X115.742Y-61.06
X115.765Y-63.017
X116.064Y-59.244
X116.142Y-48.06
X116.242Y-34.06
X116.76Y-58.56
X116.892Y-62.56
X116.992Y-77.06
X117.142Y-63.96
X117.192Y-47.01
X117.542Y-34.06
X117.742Y-62.51
X118.742Y-62.21
X118.942Y-47.36
X119.292Y-59.91
X119.342Y-69.46
X119.492Y-90.11
X119.492Y-91.66
X119.692Y-77.71
X120.562Y-34.612
X120.562Y-40.612
X120.562Y-94.612
T2
X60.411Y-48.33
X60.411Y-49.33
X61.361Y-48.33
X61.361Y-49.33
X62.311Y-48.33
X62.311Y-49.33
X107.366Y-61.88
X107.366Y-63.155
X107.366Y-64.43
X108.641Y-61.88
X108.641Y-63.155
X108.641Y-64.43
X109.916Y-61.88
X109.916Y-63.155
X109.916Y-64.43
T4
X58.593Y-35.972
X58.594Y-88.347
X58.594Y-90.887
X58.598Y-29.627
X58.598Y-32.167
X61.133Y-35.972
X66.542Y-76.645
X66.542Y-79.185
X68.763Y-55.784
X71.303Y-55.784
X101.617Y-26.145
X101.617Y-28.685
X104.157Y-26.145
X104.157Y-28.685
X106.697Y-26.145
X106.697Y-28.685
X112.446Y-90.577
X112.446Y-93.117
X121.072Y-79.81
X121.072Y-82.35
X121.072Y-84.89
X121.077Y-60.455
X121.077Y-62.995
X121.077Y-65.535
X121.082Y-44.016
X121.082Y-46.556
X121.082Y-49.096
X121.082Y-51.636
X121.082Y-54.176
X121.082Y-56.716
X123.612Y-79.81
X123.612Y-82.35
X123.612Y-84.89
X123.617Y-60.455
X123.617Y-62.995
X123.617Y-65.535
X123.622Y-44.016
X123.622Y-46.556
X123.622Y-49.096
X123.622Y-51.636
X123.622Y-54.176
X123.622Y-56.716
T5
X90.804Y-71.285
X93.304Y-71.285
X95.804Y-71.285
X102.034Y-77.515
X102.034Y-80.015
X102.034Y-82.515
T6
X78.519Y-29.7
X78.519Y-36.7
X82.019Y-29.7
X82.019Y-36.7
X85.519Y-29.7
X85.519Y-36.7
X89.019Y-29.7
X89.019Y-36.7
T7
X90.054Y-85.765
X90.054Y-90.265
X96.554Y-85.765
X96.554Y-90.265
T8
X45.39Y-27.802
X45.39Y-100.022
T9
X86.98Y-75.015
X86.98Y-85.015
X99.629Y-75.015
X99.629Y-85.015
T10
X30.742Y-29.01
X30.742Y-99.01
X120.742Y-29.01
X120.742Y-99.01
T3
G00X104.322Y-96.905
M15
G01X104.322Y-98.005
M16
G05
G00X104.322Y-101.235
M15
G01X104.322Y-102.035
M16
G05
G00X112.962Y-96.905
M15
G01X112.962Y-98.005
M16
G05
G00X112.962Y-101.235
M15
G01X112.962Y-102.035
M16
G05
M30
