%TF.GenerationSoftware,KiCad,Pcbnew,8.0.2*%
%TF.CreationDate,2024-05-27T22:06:41+01:00*%
%TF.ProjectId,StepUp,53746570-5570-42e6-9b69-6361645f7063,v1.0*%
%TF.SameCoordinates,Original*%
%TF.FileFunction,Copper,L3,Inr*%
%TF.FilePolarity,Positive*%
%FSLAX46Y46*%
G04 Gerber Fmt 4.6, Leading zero omitted, Abs format (unit mm)*
G04 Created by KiCad (PCBNEW 8.0.2) date 2024-05-27 22:06:41*
%MOMM*%
%LPD*%
G01*
G04 APERTURE LIST*
%TA.AperFunction,ComponentPad*%
%ADD10C,1.650000*%
%TD*%
%TA.AperFunction,ComponentPad*%
%ADD11C,1.950000*%
%TD*%
%TA.AperFunction,ComponentPad*%
%ADD12C,2.400000*%
%TD*%
%TA.AperFunction,ComponentPad*%
%ADD13C,1.980000*%
%TD*%
%TA.AperFunction,ComponentPad*%
%ADD14O,1.000000X1.800000*%
%TD*%
%TA.AperFunction,ComponentPad*%
%ADD15O,1.000000X2.100000*%
%TD*%
%TA.AperFunction,ComponentPad*%
%ADD16C,0.600000*%
%TD*%
%TA.AperFunction,HeatsinkPad*%
%ADD17C,0.600000*%
%TD*%
%TA.AperFunction,ComponentPad*%
%ADD18R,1.700000X1.700000*%
%TD*%
%TA.AperFunction,ComponentPad*%
%ADD19O,1.700000X1.700000*%
%TD*%
%TA.AperFunction,ComponentPad*%
%ADD20R,1.800000X1.800000*%
%TD*%
%TA.AperFunction,ComponentPad*%
%ADD21C,1.800000*%
%TD*%
%TA.AperFunction,ViaPad*%
%ADD22C,0.610000*%
%TD*%
G04 APERTURE END LIST*
D10*
%TO.N,+3V3*%
%TO.C,JOY1*%
X155062500Y-112275000D03*
%TO.N,/User Input/JOYSTICK_AXIS_H*%
X152562500Y-112275000D03*
%TO.N,GND*%
X150062500Y-112275000D03*
%TO.N,+3V3*%
X161292500Y-123505000D03*
%TO.N,/User Input/JOYSTICK_AXIS_V*%
X161292500Y-121005000D03*
%TO.N,GND*%
X161292500Y-118505000D03*
D11*
X149312500Y-126755000D03*
%TO.N,/User Input/JOYSTICK_BUTTON*%
X155812500Y-126755000D03*
%TO.N,GND*%
X149312500Y-131255000D03*
%TO.N,/User Input/JOYSTICK_BUTTON*%
X155812500Y-131255000D03*
D12*
%TO.N,unconnected-(JOY1-PadMH1)*%
X158887500Y-116005000D03*
%TO.N,unconnected-(JOY1-PadMH2)*%
X146237500Y-116005000D03*
%TO.N,unconnected-(JOY1-PadMH3)*%
X146237500Y-126005000D03*
%TO.N,unconnected-(JOY1-PadMH4)*%
X158887500Y-126005000D03*
%TD*%
D13*
%TO.N,GND*%
%TO.C,BT1*%
X104648000Y-141012000D03*
%TO.N,Net-(D14-K)*%
X104648000Y-68792000D03*
%TD*%
D14*
%TO.N,GND*%
%TO.C,J1*%
X172214000Y-142045000D03*
D15*
X172214000Y-137865000D03*
D14*
X163574000Y-142045000D03*
D15*
X163574000Y-137865000D03*
%TD*%
D16*
%TO.N,GND*%
%TO.C,U3*%
X169174000Y-105420000D03*
X169174000Y-104145000D03*
X169174000Y-102870000D03*
X167899000Y-105420000D03*
X167899000Y-104145000D03*
X167899000Y-102870000D03*
X166624000Y-105420000D03*
X166624000Y-104145000D03*
X166624000Y-102870000D03*
%TD*%
D17*
%TO.N,GND*%
%TO.C,U8*%
X119669000Y-90320000D03*
X120619000Y-90320000D03*
X121569000Y-90320000D03*
X119669000Y-89320000D03*
X120619000Y-89320000D03*
X121569000Y-89320000D03*
%TD*%
D18*
%TO.N,/MCU/GPIO8*%
%TO.C,J4*%
X182880000Y-97706000D03*
D19*
%TO.N,/MCU/GPIO10*%
X180340000Y-97706000D03*
%TO.N,/MCU/GPIO9*%
X182880000Y-95166000D03*
%TO.N,/MCU/GPIO11*%
X180340000Y-95166000D03*
%TO.N,GND*%
X182880000Y-92626000D03*
X180340000Y-92626000D03*
%TO.N,/MCU/GPIO14*%
X182880000Y-90086000D03*
%TO.N,/MCU/GPIO12*%
X180340000Y-90086000D03*
%TO.N,/MCU/GPIO15*%
X182880000Y-87546000D03*
%TO.N,/MCU/GPIO13*%
X180340000Y-87546000D03*
%TO.N,GND*%
X182880000Y-85006000D03*
X180340000Y-85006000D03*
%TD*%
D20*
%TO.N,OB2_OUT*%
%TO.C,J5*%
X148277400Y-77689501D03*
X148277400Y-70689501D03*
D21*
%TO.N,OB1_OUT*%
X144777400Y-77689501D03*
X144777400Y-70689501D03*
%TO.N,OA1_OUT*%
X141277400Y-77689501D03*
X141277400Y-70689501D03*
%TO.N,OA2_OUT*%
X137777400Y-77689501D03*
X137777400Y-70689501D03*
%TD*%
D18*
%TO.N,Vbat*%
%TO.C,J8*%
X117852000Y-129337000D03*
D19*
%TO.N,Net-(J8-Pin_2)*%
X117852000Y-131877000D03*
%TD*%
D18*
%TO.N,VMotor*%
%TO.C,J9*%
X130561000Y-96774000D03*
D19*
%TO.N,BOOST_VOUT*%
X128021000Y-96774000D03*
%TD*%
D18*
%TO.N,V_USB*%
%TO.C,J6*%
X125800000Y-120175000D03*
D19*
%TO.N,Net-(D11-A)*%
X125800000Y-117635000D03*
%TD*%
D18*
%TO.N,VMotor*%
%TO.C,J10*%
X160875000Y-69675000D03*
D19*
%TO.N,Vbat*%
X160875000Y-67135000D03*
%TO.N,+3V3*%
X163415000Y-69675000D03*
%TO.N,V_USB*%
X163415000Y-67135000D03*
%TO.N,GND*%
X165955000Y-69675000D03*
X165955000Y-67135000D03*
%TD*%
D18*
%TO.N,V_USB*%
%TO.C,J2*%
X171704000Y-131567000D03*
D19*
%TO.N,Net-(J2-Pin_2)*%
X171704000Y-134107000D03*
%TD*%
D18*
%TO.N,Vbat*%
%TO.C,J11*%
X117856000Y-73157000D03*
D19*
%TO.N,Net-(D14-K)*%
X117856000Y-70617000D03*
%TD*%
D18*
%TO.N,Net-(J12-Pin_1)*%
%TO.C,J12*%
X180330000Y-120800000D03*
D19*
%TO.N,+3V3*%
X182870000Y-120800000D03*
%TO.N,Net-(J12-Pin_3)*%
X180330000Y-123340000D03*
%TO.N,GND*%
X182870000Y-123340000D03*
%TO.N,Net-(J12-Pin_5)*%
X180330000Y-125880000D03*
%TO.N,GND*%
X182870000Y-125880000D03*
%TD*%
D18*
%TO.N,Vbat*%
%TO.C,J7*%
X117851000Y-76962000D03*
D19*
%TO.N,BOOST_VIN*%
X120391000Y-76962000D03*
%TD*%
D18*
%TO.N,/MCU/SWCLK*%
%TO.C,J3*%
X182875000Y-106525000D03*
D19*
%TO.N,/MCU/UART_0_TX*%
X180335000Y-106525000D03*
%TO.N,/MCU/SWD*%
X182875000Y-103985000D03*
%TO.N,/MCU/UART_0_RX*%
X180335000Y-103985000D03*
%TO.N,GND*%
X182875000Y-101445000D03*
X180335000Y-101445000D03*
%TD*%
D22*
%TO.N,GND*%
X142900000Y-97300000D03*
X143850000Y-97300000D03*
X143850000Y-96500000D03*
X142900000Y-96500000D03*
X178550000Y-100900000D03*
X161150000Y-108000000D03*
X161200000Y-107150000D03*
X159650000Y-103100000D03*
X169300000Y-112950000D03*
X168300000Y-112950000D03*
X176800000Y-75050000D03*
X175500000Y-75050000D03*
X174200000Y-75050000D03*
X167650000Y-83300000D03*
X169450000Y-81500000D03*
X167900000Y-135700000D03*
X163450000Y-120950000D03*
X152500000Y-109700000D03*
X135550000Y-108350000D03*
X134550000Y-109450000D03*
X135400000Y-100050000D03*
X135400000Y-101600000D03*
X138800000Y-105150000D03*
X146800000Y-105250000D03*
X144050000Y-104850000D03*
X143250000Y-104850000D03*
X133600000Y-96000000D03*
X133600000Y-96650000D03*
X133600000Y-97300000D03*
X153000000Y-97150000D03*
X153000000Y-96500000D03*
X153000000Y-95850000D03*
X134250000Y-89650000D03*
X133550000Y-89650000D03*
X142850000Y-90650000D03*
X143650000Y-90100000D03*
X144350000Y-90150000D03*
X153700000Y-81150000D03*
X143300000Y-81300000D03*
X143300000Y-82950000D03*
X131850000Y-82100000D03*
X123400000Y-67450000D03*
X123400000Y-66550000D03*
X127550000Y-80450000D03*
X127550000Y-79500000D03*
X127550000Y-78600000D03*
X117950000Y-84800000D03*
X117950000Y-85800000D03*
X117950000Y-86850000D03*
X127700000Y-107350000D03*
X126450000Y-107400000D03*
X116450000Y-108100000D03*
X118000000Y-106900000D03*
X119550000Y-108150000D03*
X121250000Y-115300000D03*
X123650000Y-120300000D03*
X133350000Y-121900000D03*
X178750000Y-132650000D03*
X178750000Y-131100000D03*
X170300000Y-115850000D03*
X164950000Y-112000000D03*
X164000000Y-111950000D03*
X172150000Y-108000000D03*
X175000000Y-102050000D03*
X170400000Y-95300000D03*
X170400000Y-94200000D03*
X167000000Y-91250000D03*
X165550000Y-95900000D03*
X167000000Y-96700000D03*
X166200000Y-96700000D03*
%TO.N,+3V3*%
X157550000Y-82350000D03*
%TO.N,/MCU/GPIO14*%
X178200000Y-88350000D03*
%TO.N,GND*%
X169032600Y-99637777D03*
%TO.N,+3V3*%
X155500000Y-106450000D03*
%TO.N,V_USB*%
X116300000Y-84850000D03*
%TO.N,/MCU/SWD*%
X175322144Y-100233894D03*
%TO.N,/MCU/SWCLK*%
X176017666Y-99550000D03*
%TO.N,LED_RED*%
X176450000Y-88000000D03*
X178000000Y-103200000D03*
%TO.N,LED_GREEN*%
X175400000Y-89050000D03*
X177000000Y-103500000D03*
%TO.N,LED_BLUE*%
X174050000Y-89450000D03*
X176150000Y-103550000D03*
%TO.N,~{TMC_STBDY}*%
X132600000Y-107350000D03*
X144400000Y-106300000D03*
X152500000Y-105400000D03*
X152900000Y-102650000D03*
%TO.N,TMC_EN*%
X146450000Y-102200000D03*
X145000000Y-102200000D03*
%TO.N,VBAT_MONITOR*%
X159200000Y-95300000D03*
X159200000Y-105400000D03*
%TO.N,VMOTOR_MONITOR*%
X160550000Y-97450000D03*
X159500000Y-106150000D03*
%TO.N,JOY_MCU_BTN*%
X163450000Y-100600000D03*
X162900000Y-111300000D03*
X156700000Y-129300000D03*
%TO.N,JOY_AXIS_MCU_V*%
X160300000Y-106150000D03*
%TO.N,JOY_AXIS_MCU_H*%
X152700000Y-106450000D03*
%TO.N,TMC_DIR*%
X136600000Y-103300000D03*
X150200000Y-103200000D03*
%TO.N,TMC_STEP*%
X138000000Y-103550000D03*
X151550000Y-103750000D03*
%TO.N,/MCU/~{USB_BOOT}*%
X129200000Y-124150000D03*
%TO.N,MCU_BOOST_EN*%
X133900000Y-102650000D03*
X148050000Y-101050000D03*
%TO.N,VUSB_MONITOR*%
X174600000Y-129000000D03*
X176400000Y-104950000D03*
%TO.N,/Power/BOOST_ENABLE*%
X118700000Y-78700000D03*
%TO.N,+3V3*%
X178950000Y-118700000D03*
X171650000Y-118700000D03*
X163500000Y-118750000D03*
%TO.N,+1V1*%
X167259000Y-102108000D03*
X166954000Y-99246000D03*
X168041800Y-108850000D03*
X167000000Y-106200000D03*
%TO.N,/MCU/~{USB_BOOT}*%
X160950000Y-117100000D03*
X176250000Y-118050000D03*
X110000000Y-124200000D03*
%TO.N,/MCU/SWCLK*%
X164850000Y-97850000D03*
%TO.N,/MCU/GPIO13*%
X110850000Y-97750000D03*
X171950000Y-97400000D03*
X153950000Y-98250000D03*
X162550000Y-98250000D03*
%TO.N,/MCU/RUN*%
X163250000Y-99500000D03*
X111075000Y-99025000D03*
X152950000Y-98800000D03*
X164750000Y-99350000D03*
%TO.N,/MCU/SWD*%
X164351670Y-98502684D03*
%TO.N,/MCU/GPIO10*%
X174200000Y-100800000D03*
X172800000Y-100800000D03*
%TO.N,VMotor*%
X134850000Y-94600000D03*
X142950000Y-93600000D03*
X134850000Y-93900000D03*
X142400000Y-93200000D03*
X143600000Y-93650000D03*
X152200000Y-93250000D03*
X134850000Y-93250000D03*
%TO.N,TMC_EN*%
X142600000Y-99650000D03*
X142600000Y-101600000D03*
%TO.N,TMC_UART_RX*%
X144200000Y-99262800D03*
X145066400Y-100100000D03*
%TO.N,Net-(U8-OVP)*%
X121700000Y-87350000D03*
X123952000Y-97598000D03*
%TO.N,/MCU/EEPROM_SCL*%
X175023110Y-104007200D03*
X158400000Y-113600000D03*
%TO.N,/Motor Driver/BRA*%
X142050000Y-95250000D03*
X138900000Y-97050000D03*
X141800000Y-94750000D03*
X138900000Y-96400000D03*
%TO.N,/Motor Driver/BRB*%
X147857000Y-97050000D03*
X147857000Y-96400000D03*
X144957000Y-94750000D03*
X144707000Y-95250000D03*
%TO.N,BOOST_VOUT*%
X122300000Y-95900000D03*
%TO.N,/MCU/EEPROM_SDA*%
X159000000Y-114200000D03*
X174150000Y-104150000D03*
%TD*%
%TA.AperFunction,Conductor*%
%TO.N,GND*%
G36*
X180000642Y-64500007D02*
G01*
X180235302Y-64502565D01*
X180244734Y-64503029D01*
X180712846Y-64543984D01*
X180723567Y-64545396D01*
X181185664Y-64626875D01*
X181196192Y-64629209D01*
X181649458Y-64750661D01*
X181659747Y-64753906D01*
X182100688Y-64914395D01*
X182110654Y-64918523D01*
X182535926Y-65116830D01*
X182545512Y-65121821D01*
X182951866Y-65356429D01*
X182960985Y-65362238D01*
X183345353Y-65631376D01*
X183353935Y-65637962D01*
X183713370Y-65939564D01*
X183721345Y-65946872D01*
X184053127Y-66278654D01*
X184060435Y-66286629D01*
X184362037Y-66646064D01*
X184368623Y-66654646D01*
X184637761Y-67039014D01*
X184643573Y-67048138D01*
X184878176Y-67454483D01*
X184883171Y-67464078D01*
X185081470Y-67889331D01*
X185085610Y-67899326D01*
X185246089Y-68340239D01*
X185249342Y-68350555D01*
X185362967Y-68774611D01*
X185370786Y-68803790D01*
X185373127Y-68814352D01*
X185454603Y-69276432D01*
X185456015Y-69287156D01*
X185496969Y-69755252D01*
X185497434Y-69764708D01*
X185499993Y-69999357D01*
X185500000Y-70000709D01*
X185500000Y-139999290D01*
X185499993Y-140000642D01*
X185497434Y-140235291D01*
X185496969Y-140244747D01*
X185456015Y-140712843D01*
X185454603Y-140723567D01*
X185373127Y-141185647D01*
X185370786Y-141196209D01*
X185249342Y-141649444D01*
X185246089Y-141659760D01*
X185085610Y-142100673D01*
X185081470Y-142110668D01*
X184883171Y-142535921D01*
X184878176Y-142545516D01*
X184643573Y-142951861D01*
X184637761Y-142960985D01*
X184368623Y-143345353D01*
X184362037Y-143353935D01*
X184060435Y-143713370D01*
X184053127Y-143721345D01*
X183721345Y-144053127D01*
X183713370Y-144060435D01*
X183353935Y-144362037D01*
X183345353Y-144368623D01*
X182960985Y-144637761D01*
X182951861Y-144643573D01*
X182545516Y-144878176D01*
X182535921Y-144883171D01*
X182110668Y-145081470D01*
X182100673Y-145085610D01*
X181659760Y-145246089D01*
X181649444Y-145249342D01*
X181196209Y-145370786D01*
X181185647Y-145373127D01*
X180723567Y-145454603D01*
X180712843Y-145456015D01*
X180244747Y-145496969D01*
X180235291Y-145497434D01*
X180000642Y-145499993D01*
X179999290Y-145500000D01*
X90000710Y-145500000D01*
X89999358Y-145499993D01*
X89764708Y-145497434D01*
X89755252Y-145496969D01*
X89287156Y-145456015D01*
X89276432Y-145454603D01*
X88814352Y-145373127D01*
X88803790Y-145370786D01*
X88350555Y-145249342D01*
X88340239Y-145246089D01*
X87899326Y-145085610D01*
X87889331Y-145081470D01*
X87464078Y-144883171D01*
X87454483Y-144878176D01*
X87048138Y-144643573D01*
X87039014Y-144637761D01*
X86654646Y-144368623D01*
X86646064Y-144362037D01*
X86286629Y-144060435D01*
X86278654Y-144053127D01*
X85946872Y-143721345D01*
X85939564Y-143713370D01*
X85637962Y-143353935D01*
X85631376Y-143345353D01*
X85362238Y-142960985D01*
X85356426Y-142951861D01*
X85121823Y-142545516D01*
X85116828Y-142535921D01*
X84918523Y-142110654D01*
X84914395Y-142100688D01*
X84753906Y-141659747D01*
X84750661Y-141649458D01*
X84629209Y-141196192D01*
X84626875Y-141185664D01*
X84545396Y-140723567D01*
X84543984Y-140712843D01*
X84533883Y-140597386D01*
X84503029Y-140244734D01*
X84502565Y-140235291D01*
X84500007Y-140000642D01*
X84500000Y-139999290D01*
X84500000Y-139878456D01*
X88145500Y-139878456D01*
X88145500Y-140121543D01*
X88145501Y-140121559D01*
X88177230Y-140362569D01*
X88240149Y-140597386D01*
X88333175Y-140821972D01*
X88333182Y-140821987D01*
X88454730Y-141032516D01*
X88602722Y-141225380D01*
X88602730Y-141225389D01*
X88774611Y-141397270D01*
X88774619Y-141397277D01*
X88967483Y-141545269D01*
X89178012Y-141666817D01*
X89178027Y-141666824D01*
X89294171Y-141714932D01*
X89402612Y-141759850D01*
X89637429Y-141822769D01*
X89878450Y-141854500D01*
X89878457Y-141854500D01*
X90121543Y-141854500D01*
X90121550Y-141854500D01*
X90362571Y-141822769D01*
X90597388Y-141759850D01*
X90821984Y-141666819D01*
X91032516Y-141545269D01*
X91225380Y-141397278D01*
X91225384Y-141397273D01*
X91225389Y-141397270D01*
X91397270Y-141225389D01*
X91397273Y-141225384D01*
X91397278Y-141225380D01*
X91545269Y-141032516D01*
X91666819Y-140821984D01*
X91759850Y-140597388D01*
X91822769Y-140362571D01*
X91854500Y-140121550D01*
X91854500Y-139878456D01*
X178145500Y-139878456D01*
X178145500Y-140121543D01*
X178145501Y-140121559D01*
X178177230Y-140362569D01*
X178240149Y-140597386D01*
X178333175Y-140821972D01*
X178333182Y-140821987D01*
X178454730Y-141032516D01*
X178602722Y-141225380D01*
X178602730Y-141225389D01*
X178774611Y-141397270D01*
X178774619Y-141397277D01*
X178967483Y-141545269D01*
X179178012Y-141666817D01*
X179178027Y-141666824D01*
X179294171Y-141714932D01*
X179402612Y-141759850D01*
X179637429Y-141822769D01*
X179878450Y-141854500D01*
X179878457Y-141854500D01*
X180121543Y-141854500D01*
X180121550Y-141854500D01*
X180362571Y-141822769D01*
X180597388Y-141759850D01*
X180821984Y-141666819D01*
X181032516Y-141545269D01*
X181225380Y-141397278D01*
X181225384Y-141397273D01*
X181225389Y-141397270D01*
X181397270Y-141225389D01*
X181397273Y-141225384D01*
X181397278Y-141225380D01*
X181545269Y-141032516D01*
X181666819Y-140821984D01*
X181759850Y-140597388D01*
X181822769Y-140362571D01*
X181854500Y-140121550D01*
X181854500Y-139878450D01*
X181822769Y-139637429D01*
X181759850Y-139402612D01*
X181666819Y-139178016D01*
X181666817Y-139178012D01*
X181545269Y-138967483D01*
X181397277Y-138774619D01*
X181397270Y-138774611D01*
X181225389Y-138602730D01*
X181225380Y-138602722D01*
X181032516Y-138454730D01*
X180821987Y-138333182D01*
X180821972Y-138333175D01*
X180597386Y-138240149D01*
X180362569Y-138177230D01*
X180121559Y-138145501D01*
X180121556Y-138145500D01*
X180121550Y-138145500D01*
X179878450Y-138145500D01*
X179878444Y-138145500D01*
X179878440Y-138145501D01*
X179637430Y-138177230D01*
X179402613Y-138240149D01*
X179178027Y-138333175D01*
X179178012Y-138333182D01*
X178967483Y-138454730D01*
X178774619Y-138602722D01*
X178602722Y-138774619D01*
X178454730Y-138967483D01*
X178333182Y-139178012D01*
X178333175Y-139178027D01*
X178240149Y-139402613D01*
X178177230Y-139637430D01*
X178145501Y-139878440D01*
X178145500Y-139878456D01*
X91854500Y-139878456D01*
X91854500Y-139878450D01*
X91822769Y-139637429D01*
X91759850Y-139402612D01*
X91666819Y-139178016D01*
X91666817Y-139178012D01*
X91545269Y-138967483D01*
X91397277Y-138774619D01*
X91397270Y-138774611D01*
X91225389Y-138602730D01*
X91225380Y-138602722D01*
X91032516Y-138454730D01*
X90821987Y-138333182D01*
X90821972Y-138333175D01*
X90714616Y-138288707D01*
X164424500Y-138288707D01*
X164424500Y-138441293D01*
X164428101Y-138454731D01*
X164463993Y-138588681D01*
X164540282Y-138720817D01*
X164540284Y-138720819D01*
X164540285Y-138720821D01*
X164648179Y-138828715D01*
X164648180Y-138828716D01*
X164648182Y-138828717D01*
X164780318Y-138905006D01*
X164780319Y-138905006D01*
X164780322Y-138905008D01*
X164927707Y-138944500D01*
X164927710Y-138944500D01*
X165080290Y-138944500D01*
X165080293Y-138944500D01*
X165227678Y-138905008D01*
X165359821Y-138828715D01*
X165467715Y-138720821D01*
X165544008Y-138588678D01*
X165583500Y-138441293D01*
X165583500Y-138288707D01*
X170204500Y-138288707D01*
X170204500Y-138441293D01*
X170208101Y-138454731D01*
X170243993Y-138588681D01*
X170320282Y-138720817D01*
X170320284Y-138720819D01*
X170320285Y-138720821D01*
X170428179Y-138828715D01*
X170428180Y-138828716D01*
X170428182Y-138828717D01*
X170560318Y-138905006D01*
X170560319Y-138905006D01*
X170560322Y-138905008D01*
X170707707Y-138944500D01*
X170707710Y-138944500D01*
X170860290Y-138944500D01*
X170860293Y-138944500D01*
X171007678Y-138905008D01*
X171139821Y-138828715D01*
X171247715Y-138720821D01*
X171324008Y-138588678D01*
X171363500Y-138441293D01*
X171363500Y-138288707D01*
X171324008Y-138141322D01*
X171247715Y-138009179D01*
X171139821Y-137901285D01*
X171139819Y-137901284D01*
X171139817Y-137901282D01*
X171007681Y-137824993D01*
X171007682Y-137824993D01*
X170995595Y-137821754D01*
X170860293Y-137785500D01*
X170707707Y-137785500D01*
X170572404Y-137821754D01*
X170560318Y-137824993D01*
X170428182Y-137901282D01*
X170428176Y-137901287D01*
X170320287Y-138009176D01*
X170320282Y-138009182D01*
X170243993Y-138141318D01*
X170243992Y-138141322D01*
X170204500Y-138288707D01*
X165583500Y-138288707D01*
X165544008Y-138141322D01*
X165467715Y-138009179D01*
X165359821Y-137901285D01*
X165359819Y-137901284D01*
X165359817Y-137901282D01*
X165227681Y-137824993D01*
X165227682Y-137824993D01*
X165215595Y-137821754D01*
X165080293Y-137785500D01*
X164927707Y-137785500D01*
X164792404Y-137821754D01*
X164780318Y-137824993D01*
X164648182Y-137901282D01*
X164648176Y-137901287D01*
X164540287Y-138009176D01*
X164540282Y-138009182D01*
X164463993Y-138141318D01*
X164463992Y-138141322D01*
X164424500Y-138288707D01*
X90714616Y-138288707D01*
X90597386Y-138240149D01*
X90362569Y-138177230D01*
X90121559Y-138145501D01*
X90121556Y-138145500D01*
X90121550Y-138145500D01*
X89878450Y-138145500D01*
X89878444Y-138145500D01*
X89878440Y-138145501D01*
X89637430Y-138177230D01*
X89402613Y-138240149D01*
X89178027Y-138333175D01*
X89178012Y-138333182D01*
X88967483Y-138454730D01*
X88774619Y-138602722D01*
X88602722Y-138774619D01*
X88454730Y-138967483D01*
X88333182Y-139178012D01*
X88333175Y-139178027D01*
X88240149Y-139402613D01*
X88177230Y-139637430D01*
X88145501Y-139878440D01*
X88145500Y-139878456D01*
X84500000Y-139878456D01*
X84500000Y-132058986D01*
X110618500Y-132058986D01*
X110618500Y-132325013D01*
X110618501Y-132325030D01*
X110653223Y-132588774D01*
X110653224Y-132588779D01*
X110653225Y-132588785D01*
X110722081Y-132845761D01*
X110755618Y-132926725D01*
X110823888Y-133091544D01*
X110823892Y-133091554D01*
X110956910Y-133321948D01*
X111118865Y-133533012D01*
X111118871Y-133533019D01*
X111306980Y-133721128D01*
X111306987Y-133721134D01*
X111518051Y-133883089D01*
X111748445Y-134016107D01*
X111748446Y-134016107D01*
X111748449Y-134016109D01*
X111994239Y-134117919D01*
X112251215Y-134186775D01*
X112514980Y-134221500D01*
X112514987Y-134221500D01*
X112781013Y-134221500D01*
X112781020Y-134221500D01*
X113044785Y-134186775D01*
X113301761Y-134117919D01*
X113328124Y-134106999D01*
X170348341Y-134106999D01*
X170348341Y-134107000D01*
X170368936Y-134342403D01*
X170368938Y-134342413D01*
X170430094Y-134570655D01*
X170430096Y-134570659D01*
X170430097Y-134570663D01*
X170529965Y-134784830D01*
X170529967Y-134784834D01*
X170638281Y-134939521D01*
X170665505Y-134978401D01*
X170832599Y-135145495D01*
X170929384Y-135213265D01*
X171026165Y-135281032D01*
X171026167Y-135281033D01*
X171026170Y-135281035D01*
X171240337Y-135380903D01*
X171468592Y-135442063D01*
X171656918Y-135458539D01*
X171703999Y-135462659D01*
X171704000Y-135462659D01*
X171704001Y-135462659D01*
X171743234Y-135459226D01*
X171939408Y-135442063D01*
X172167663Y-135380903D01*
X172381830Y-135281035D01*
X172575401Y-135145495D01*
X172742495Y-134978401D01*
X172878035Y-134784830D01*
X172977903Y-134570663D01*
X173039063Y-134342408D01*
X173059659Y-134107000D01*
X173039063Y-133871592D01*
X172977903Y-133643337D01*
X172878035Y-133429171D01*
X172742495Y-133235599D01*
X172620567Y-133113671D01*
X172587084Y-133052351D01*
X172592068Y-132982659D01*
X172633939Y-132926725D01*
X172664915Y-132909810D01*
X172796331Y-132860796D01*
X172911546Y-132774546D01*
X172997796Y-132659331D01*
X173048091Y-132524483D01*
X173054500Y-132464873D01*
X173054499Y-130669128D01*
X173048091Y-130609517D01*
X173023858Y-130544546D01*
X172997797Y-130474671D01*
X172997793Y-130474664D01*
X172911547Y-130359455D01*
X172911544Y-130359452D01*
X172796335Y-130273206D01*
X172796328Y-130273202D01*
X172661482Y-130222908D01*
X172661483Y-130222908D01*
X172601883Y-130216501D01*
X172601881Y-130216500D01*
X172601873Y-130216500D01*
X172601864Y-130216500D01*
X170806129Y-130216500D01*
X170806123Y-130216501D01*
X170746516Y-130222908D01*
X170611671Y-130273202D01*
X170611664Y-130273206D01*
X170496455Y-130359452D01*
X170496452Y-130359455D01*
X170410206Y-130474664D01*
X170410202Y-130474671D01*
X170359908Y-130609517D01*
X170353501Y-130669116D01*
X170353501Y-130669123D01*
X170353500Y-130669135D01*
X170353500Y-132464870D01*
X170353501Y-132464876D01*
X170359908Y-132524483D01*
X170410202Y-132659328D01*
X170410206Y-132659335D01*
X170496452Y-132774544D01*
X170496455Y-132774547D01*
X170611664Y-132860793D01*
X170611671Y-132860797D01*
X170743081Y-132909810D01*
X170799015Y-132951681D01*
X170823432Y-133017145D01*
X170808580Y-133085418D01*
X170787430Y-133113673D01*
X170665503Y-133235600D01*
X170529965Y-133429169D01*
X170529964Y-133429171D01*
X170430098Y-133643335D01*
X170430094Y-133643344D01*
X170368938Y-133871586D01*
X170368936Y-133871596D01*
X170348341Y-134106999D01*
X113328124Y-134106999D01*
X113547551Y-134016109D01*
X113777949Y-133883089D01*
X113989014Y-133721133D01*
X114177133Y-133533014D01*
X114339089Y-133321949D01*
X114472109Y-133091551D01*
X114573919Y-132845761D01*
X114642775Y-132588785D01*
X114677500Y-132325020D01*
X114677500Y-132058980D01*
X114653542Y-131876999D01*
X116496341Y-131876999D01*
X116496341Y-131877000D01*
X116516936Y-132112403D01*
X116516938Y-132112413D01*
X116578094Y-132340655D01*
X116578096Y-132340659D01*
X116578097Y-132340663D01*
X116663814Y-132524483D01*
X116677965Y-132554830D01*
X116677967Y-132554834D01*
X116786281Y-132709521D01*
X116813505Y-132748401D01*
X116980599Y-132915495D01*
X117005549Y-132932965D01*
X117174165Y-133051032D01*
X117174167Y-133051033D01*
X117174170Y-133051035D01*
X117388337Y-133150903D01*
X117616592Y-133212063D01*
X117804918Y-133228539D01*
X117851999Y-133232659D01*
X117852000Y-133232659D01*
X117852001Y-133232659D01*
X117891234Y-133229226D01*
X118087408Y-133212063D01*
X118315663Y-133150903D01*
X118529830Y-133051035D01*
X118723401Y-132915495D01*
X118890495Y-132748401D01*
X119026035Y-132554830D01*
X119125903Y-132340663D01*
X119187063Y-132112408D01*
X119207659Y-131877000D01*
X119187063Y-131641592D01*
X119125903Y-131413337D01*
X119052066Y-131254994D01*
X154331943Y-131254994D01*
X154331943Y-131255005D01*
X154352134Y-131498683D01*
X154352136Y-131498695D01*
X154412163Y-131735734D01*
X154510388Y-131959666D01*
X154644132Y-132164378D01*
X154792008Y-132325013D01*
X154809746Y-132344281D01*
X155002712Y-132494473D01*
X155217767Y-132610855D01*
X155217770Y-132610856D01*
X155449041Y-132690251D01*
X155449043Y-132690251D01*
X155449045Y-132690252D01*
X155690237Y-132730500D01*
X155690238Y-132730500D01*
X155934762Y-132730500D01*
X155934763Y-132730500D01*
X156175955Y-132690252D01*
X156407233Y-132610855D01*
X156622288Y-132494473D01*
X156815254Y-132344281D01*
X156980868Y-132164377D01*
X157114611Y-131959667D01*
X157212836Y-131735736D01*
X157272864Y-131498692D01*
X157279937Y-131413335D01*
X157293057Y-131255005D01*
X157293057Y-131254994D01*
X157272865Y-131011316D01*
X157272863Y-131011304D01*
X157269944Y-130999778D01*
X157212836Y-130774264D01*
X157114611Y-130550333D01*
X157065174Y-130474664D01*
X156980870Y-130345625D01*
X156906309Y-130264631D01*
X156875387Y-130201977D01*
X156883247Y-130132550D01*
X156927394Y-130078395D01*
X156956582Y-130063607D01*
X157019981Y-130041423D01*
X157051703Y-130030324D01*
X157075249Y-130015529D01*
X157205399Y-129933750D01*
X157333750Y-129805399D01*
X157430323Y-129651705D01*
X157490274Y-129480375D01*
X157490275Y-129480369D01*
X157510597Y-129300003D01*
X157510597Y-129299996D01*
X157490275Y-129119630D01*
X157490274Y-129119625D01*
X157448414Y-128999996D01*
X173789403Y-128999996D01*
X173789403Y-129000003D01*
X173809724Y-129180369D01*
X173809725Y-129180374D01*
X173869677Y-129351706D01*
X173966249Y-129505398D01*
X174094601Y-129633750D01*
X174175088Y-129684324D01*
X174248295Y-129730323D01*
X174382202Y-129777179D01*
X174419625Y-129790274D01*
X174419630Y-129790275D01*
X174599996Y-129810597D01*
X174600000Y-129810597D01*
X174600004Y-129810597D01*
X174780369Y-129790275D01*
X174780372Y-129790274D01*
X174780375Y-129790274D01*
X174951705Y-129730323D01*
X175105399Y-129633750D01*
X175233750Y-129505399D01*
X175330323Y-129351705D01*
X175390274Y-129180375D01*
X175390275Y-129180369D01*
X175410597Y-129000003D01*
X175410597Y-128999996D01*
X175390275Y-128819630D01*
X175390274Y-128819625D01*
X175381518Y-128794601D01*
X175330323Y-128648295D01*
X175243252Y-128509724D01*
X175233750Y-128494601D01*
X175105398Y-128366249D01*
X174951706Y-128269677D01*
X174780374Y-128209725D01*
X174780369Y-128209724D01*
X174600004Y-128189403D01*
X174599996Y-128189403D01*
X174419630Y-128209724D01*
X174419625Y-128209725D01*
X174248293Y-128269677D01*
X174094601Y-128366249D01*
X173966249Y-128494601D01*
X173869677Y-128648293D01*
X173809725Y-128819625D01*
X173809724Y-128819630D01*
X173789403Y-128999996D01*
X157448414Y-128999996D01*
X157430322Y-128948293D01*
X157333750Y-128794601D01*
X157205398Y-128666249D01*
X157051706Y-128569677D01*
X156880374Y-128509725D01*
X156880369Y-128509724D01*
X156700004Y-128489403D01*
X156699996Y-128489403D01*
X156519630Y-128509724D01*
X156519625Y-128509725D01*
X156348293Y-128569677D01*
X156194601Y-128666249D01*
X156066249Y-128794601D01*
X155969677Y-128948293D01*
X155909725Y-129119625D01*
X155909724Y-129119630D01*
X155889403Y-129299996D01*
X155889403Y-129300003D01*
X155909724Y-129480369D01*
X155909725Y-129480374D01*
X155956674Y-129614545D01*
X155960235Y-129684324D01*
X155925506Y-129744952D01*
X155863513Y-129777179D01*
X155839632Y-129779500D01*
X155690237Y-129779500D01*
X155641998Y-129787549D01*
X155449041Y-129819748D01*
X155217770Y-129899143D01*
X155217765Y-129899145D01*
X155002712Y-130015526D01*
X155002708Y-130015529D01*
X154809752Y-130165713D01*
X154809742Y-130165722D01*
X154644132Y-130345621D01*
X154510388Y-130550333D01*
X154412163Y-130774265D01*
X154352136Y-131011304D01*
X154352134Y-131011316D01*
X154331943Y-131254994D01*
X119052066Y-131254994D01*
X119026035Y-131199171D01*
X118894492Y-131011308D01*
X118890496Y-131005600D01*
X118890495Y-131005599D01*
X118768567Y-130883671D01*
X118735084Y-130822351D01*
X118740068Y-130752659D01*
X118781939Y-130696725D01*
X118812915Y-130679810D01*
X118944331Y-130630796D01*
X119059546Y-130544546D01*
X119145796Y-130429331D01*
X119196091Y-130294483D01*
X119202500Y-130234873D01*
X119202499Y-128439128D01*
X119196091Y-128379517D01*
X119191142Y-128366249D01*
X119145797Y-128244671D01*
X119145793Y-128244664D01*
X119059547Y-128129455D01*
X119059544Y-128129452D01*
X118944335Y-128043206D01*
X118944328Y-128043202D01*
X118809482Y-127992908D01*
X118809483Y-127992908D01*
X118749883Y-127986501D01*
X118749881Y-127986500D01*
X118749873Y-127986500D01*
X118749864Y-127986500D01*
X116954129Y-127986500D01*
X116954123Y-127986501D01*
X116894516Y-127992908D01*
X116759671Y-128043202D01*
X116759664Y-128043206D01*
X116644455Y-128129452D01*
X116644452Y-128129455D01*
X116558206Y-128244664D01*
X116558202Y-128244671D01*
X116507908Y-128379517D01*
X116501501Y-128439116D01*
X116501501Y-128439123D01*
X116501500Y-128439135D01*
X116501500Y-130234870D01*
X116501501Y-130234876D01*
X116507908Y-130294483D01*
X116558202Y-130429328D01*
X116558206Y-130429335D01*
X116644452Y-130544544D01*
X116644455Y-130544547D01*
X116759664Y-130630793D01*
X116759671Y-130630797D01*
X116891081Y-130679810D01*
X116947015Y-130721681D01*
X116971432Y-130787145D01*
X116956580Y-130855418D01*
X116935430Y-130883673D01*
X116813503Y-131005600D01*
X116677965Y-131199169D01*
X116677964Y-131199171D01*
X116578098Y-131413335D01*
X116578094Y-131413344D01*
X116516938Y-131641586D01*
X116516936Y-131641596D01*
X116496341Y-131876999D01*
X114653542Y-131876999D01*
X114642775Y-131795215D01*
X114573919Y-131538239D01*
X114472109Y-131292449D01*
X114450484Y-131254994D01*
X114339089Y-131062051D01*
X114177134Y-130850987D01*
X114177128Y-130850980D01*
X113989019Y-130662871D01*
X113989012Y-130662865D01*
X113777948Y-130500910D01*
X113547554Y-130367892D01*
X113547544Y-130367888D01*
X113370329Y-130294483D01*
X113301761Y-130266081D01*
X113301759Y-130266080D01*
X113301758Y-130266080D01*
X113225414Y-130245624D01*
X113044785Y-130197225D01*
X113044779Y-130197224D01*
X113044774Y-130197223D01*
X112781030Y-130162501D01*
X112781025Y-130162500D01*
X112781020Y-130162500D01*
X112514980Y-130162500D01*
X112514974Y-130162500D01*
X112514969Y-130162501D01*
X112251225Y-130197223D01*
X112251218Y-130197224D01*
X112251215Y-130197225D01*
X112179279Y-130216500D01*
X111994241Y-130266080D01*
X111748455Y-130367888D01*
X111748445Y-130367892D01*
X111518051Y-130500910D01*
X111306987Y-130662865D01*
X111306980Y-130662871D01*
X111118871Y-130850980D01*
X111118865Y-130850987D01*
X110956910Y-131062051D01*
X110823892Y-131292445D01*
X110823888Y-131292455D01*
X110722080Y-131538241D01*
X110653226Y-131795212D01*
X110653223Y-131795225D01*
X110618501Y-132058969D01*
X110618500Y-132058986D01*
X84500000Y-132058986D01*
X84500000Y-126004995D01*
X144532232Y-126004995D01*
X144532232Y-126005004D01*
X144551277Y-126259154D01*
X144551278Y-126259157D01*
X144607992Y-126507637D01*
X144701107Y-126744888D01*
X144828541Y-126965612D01*
X144987450Y-127164877D01*
X145174283Y-127338232D01*
X145384866Y-127481805D01*
X145384871Y-127481807D01*
X145384872Y-127481808D01*
X145384873Y-127481809D01*
X145506828Y-127540538D01*
X145614492Y-127592387D01*
X145614493Y-127592387D01*
X145614496Y-127592389D01*
X145858042Y-127667513D01*
X146110065Y-127705500D01*
X146364935Y-127705500D01*
X146616958Y-127667513D01*
X146860504Y-127592389D01*
X147090134Y-127481805D01*
X147300717Y-127338232D01*
X147487550Y-127164877D01*
X147646459Y-126965612D01*
X147768058Y-126754994D01*
X154331943Y-126754994D01*
X154331943Y-126755005D01*
X154352134Y-126998683D01*
X154352136Y-126998695D01*
X154412163Y-127235734D01*
X154510388Y-127459666D01*
X154644132Y-127664378D01*
X154809742Y-127844277D01*
X154809752Y-127844286D01*
X155002708Y-127994470D01*
X155002712Y-127994473D01*
X155217767Y-128110855D01*
X155217770Y-128110856D01*
X155449041Y-128190251D01*
X155449043Y-128190251D01*
X155449045Y-128190252D01*
X155690237Y-128230500D01*
X155690238Y-128230500D01*
X155934762Y-128230500D01*
X155934763Y-128230500D01*
X156175955Y-128190252D01*
X156407233Y-128110855D01*
X156622288Y-127994473D01*
X156815254Y-127844281D01*
X156980868Y-127664377D01*
X157114611Y-127459667D01*
X157212836Y-127235736D01*
X157267447Y-127020081D01*
X157302987Y-126959926D01*
X157365407Y-126928534D01*
X157434890Y-126935872D01*
X157484598Y-126973207D01*
X157637450Y-127164877D01*
X157824283Y-127338232D01*
X158034866Y-127481805D01*
X158034871Y-127481807D01*
X158034872Y-127481808D01*
X158034873Y-127481809D01*
X158156828Y-127540538D01*
X158264492Y-127592387D01*
X158264493Y-127592387D01*
X158264496Y-127592389D01*
X158508042Y-127667513D01*
X158760065Y-127705500D01*
X159014935Y-127705500D01*
X159266958Y-127667513D01*
X159510504Y-127592389D01*
X159740134Y-127481805D01*
X159950717Y-127338232D01*
X160137550Y-127164877D01*
X160296459Y-126965612D01*
X160423893Y-126744888D01*
X160517008Y-126507637D01*
X160573722Y-126259157D01*
X160592768Y-126005000D01*
X160580824Y-125845621D01*
X160573722Y-125750845D01*
X160554293Y-125665722D01*
X160517008Y-125502363D01*
X160423893Y-125265112D01*
X160296459Y-125044388D01*
X160137550Y-124845123D01*
X159950717Y-124671768D01*
X159740134Y-124528195D01*
X159740130Y-124528193D01*
X159740127Y-124528191D01*
X159740126Y-124528190D01*
X159510506Y-124417612D01*
X159510508Y-124417612D01*
X159266966Y-124342489D01*
X159266962Y-124342488D01*
X159266958Y-124342487D01*
X159145731Y-124324214D01*
X159014940Y-124304500D01*
X159014935Y-124304500D01*
X158760065Y-124304500D01*
X158760059Y-124304500D01*
X158603109Y-124328157D01*
X158508042Y-124342487D01*
X158508039Y-124342488D01*
X158508033Y-124342489D01*
X158264492Y-124417612D01*
X158034873Y-124528190D01*
X158034872Y-124528191D01*
X157824282Y-124671768D01*
X157637452Y-124845121D01*
X157637450Y-124845123D01*
X157478541Y-125044388D01*
X157351108Y-125265109D01*
X157257992Y-125502362D01*
X157257990Y-125502369D01*
X157201277Y-125750844D01*
X157199467Y-125774994D01*
X157174826Y-125840375D01*
X157118750Y-125882054D01*
X157049042Y-125886800D01*
X156987833Y-125853106D01*
X156984466Y-125849281D01*
X156984342Y-125849396D01*
X156815257Y-125665722D01*
X156815247Y-125665713D01*
X156622291Y-125515529D01*
X156622287Y-125515526D01*
X156407234Y-125399145D01*
X156407229Y-125399143D01*
X156175958Y-125319748D01*
X155995061Y-125289562D01*
X155934763Y-125279500D01*
X155690237Y-125279500D01*
X155641998Y-125287549D01*
X155449041Y-125319748D01*
X155217770Y-125399143D01*
X155217765Y-125399145D01*
X155002712Y-125515526D01*
X155002708Y-125515529D01*
X154809752Y-125665713D01*
X154809742Y-125665722D01*
X154644132Y-125845621D01*
X154510388Y-126050333D01*
X154412163Y-126274265D01*
X154352136Y-126511304D01*
X154352134Y-126511316D01*
X154331943Y-126754994D01*
X147768058Y-126754994D01*
X147773893Y-126744888D01*
X147867008Y-126507637D01*
X147923722Y-126259157D01*
X147942768Y-126005000D01*
X147930824Y-125845621D01*
X147923722Y-125750845D01*
X147904293Y-125665722D01*
X147867008Y-125502363D01*
X147773893Y-125265112D01*
X147646459Y-125044388D01*
X147487550Y-124845123D01*
X147300717Y-124671768D01*
X147090134Y-124528195D01*
X147090130Y-124528193D01*
X147090127Y-124528191D01*
X147090126Y-124528190D01*
X146860506Y-124417612D01*
X146860508Y-124417612D01*
X146616966Y-124342489D01*
X146616962Y-124342488D01*
X146616958Y-124342487D01*
X146495731Y-124324214D01*
X146364940Y-124304500D01*
X146364935Y-124304500D01*
X146110065Y-124304500D01*
X146110059Y-124304500D01*
X145953109Y-124328157D01*
X145858042Y-124342487D01*
X145858039Y-124342488D01*
X145858033Y-124342489D01*
X145614492Y-124417612D01*
X145384873Y-124528190D01*
X145384872Y-124528191D01*
X145174282Y-124671768D01*
X144987452Y-124845121D01*
X144987450Y-124845123D01*
X144828541Y-125044388D01*
X144701108Y-125265109D01*
X144607992Y-125502362D01*
X144607990Y-125502369D01*
X144551277Y-125750845D01*
X144532232Y-126004995D01*
X84500000Y-126004995D01*
X84500000Y-124199996D01*
X109189403Y-124199996D01*
X109189403Y-124200003D01*
X109209724Y-124380369D01*
X109209725Y-124380374D01*
X109269677Y-124551706D01*
X109366249Y-124705398D01*
X109494601Y-124833750D01*
X109506944Y-124841506D01*
X109648295Y-124930323D01*
X109734813Y-124960597D01*
X109819625Y-124990274D01*
X109819630Y-124990275D01*
X109999996Y-125010597D01*
X110000000Y-125010597D01*
X110000004Y-125010597D01*
X110180369Y-124990275D01*
X110180372Y-124990274D01*
X110180375Y-124990274D01*
X110351705Y-124930323D01*
X110505399Y-124833750D01*
X110633750Y-124705399D01*
X110730323Y-124551705D01*
X110790274Y-124380375D01*
X110790275Y-124380369D01*
X110810597Y-124200003D01*
X110810597Y-124199996D01*
X110804963Y-124149996D01*
X128389403Y-124149996D01*
X128389403Y-124150003D01*
X128409724Y-124330369D01*
X128409725Y-124330374D01*
X128469677Y-124501706D01*
X128566249Y-124655398D01*
X128694601Y-124783750D01*
X128792271Y-124845121D01*
X128848295Y-124880323D01*
X128991184Y-124930322D01*
X129019625Y-124940274D01*
X129019630Y-124940275D01*
X129199996Y-124960597D01*
X129200000Y-124960597D01*
X129200004Y-124960597D01*
X129380369Y-124940275D01*
X129380372Y-124940274D01*
X129380375Y-124940274D01*
X129551705Y-124880323D01*
X129705399Y-124783750D01*
X129833750Y-124655399D01*
X129930323Y-124501705D01*
X129990274Y-124330375D01*
X129990275Y-124330369D01*
X130010597Y-124150003D01*
X130010597Y-124149996D01*
X129990275Y-123969630D01*
X129990274Y-123969625D01*
X129947818Y-123848293D01*
X129930323Y-123798295D01*
X129833750Y-123644601D01*
X129705399Y-123516250D01*
X129705398Y-123516249D01*
X129551706Y-123419677D01*
X129380374Y-123359725D01*
X129380369Y-123359724D01*
X129200004Y-123339403D01*
X129199996Y-123339403D01*
X129019630Y-123359724D01*
X129019625Y-123359725D01*
X128848293Y-123419677D01*
X128694601Y-123516249D01*
X128566249Y-123644601D01*
X128469677Y-123798293D01*
X128409725Y-123969625D01*
X128409724Y-123969630D01*
X128389403Y-124149996D01*
X110804963Y-124149996D01*
X110790275Y-124019630D01*
X110790274Y-124019625D01*
X110730322Y-123848293D01*
X110633750Y-123694601D01*
X110505398Y-123566249D01*
X110351706Y-123469677D01*
X110180374Y-123409725D01*
X110180369Y-123409724D01*
X110000004Y-123389403D01*
X109999996Y-123389403D01*
X109819630Y-123409724D01*
X109819625Y-123409725D01*
X109648293Y-123469677D01*
X109494601Y-123566249D01*
X109366249Y-123694601D01*
X109269677Y-123848293D01*
X109209725Y-124019625D01*
X109209724Y-124019630D01*
X109189403Y-124199996D01*
X84500000Y-124199996D01*
X84500000Y-117634999D01*
X124444341Y-117634999D01*
X124444341Y-117635000D01*
X124464936Y-117870403D01*
X124464938Y-117870413D01*
X124526094Y-118098655D01*
X124526096Y-118098659D01*
X124526097Y-118098663D01*
X124594149Y-118244601D01*
X124625965Y-118312830D01*
X124625967Y-118312834D01*
X124734281Y-118467521D01*
X124761501Y-118506396D01*
X124761506Y-118506402D01*
X124883430Y-118628326D01*
X124916915Y-118689649D01*
X124911931Y-118759341D01*
X124870059Y-118815274D01*
X124839083Y-118832189D01*
X124707669Y-118881203D01*
X124707664Y-118881206D01*
X124592455Y-118967452D01*
X124592452Y-118967455D01*
X124506206Y-119082664D01*
X124506202Y-119082671D01*
X124455908Y-119217517D01*
X124451836Y-119255398D01*
X124449501Y-119277123D01*
X124449500Y-119277135D01*
X124449500Y-121072870D01*
X124449501Y-121072876D01*
X124455908Y-121132483D01*
X124506202Y-121267328D01*
X124506206Y-121267335D01*
X124592452Y-121382544D01*
X124592455Y-121382547D01*
X124707664Y-121468793D01*
X124707671Y-121468797D01*
X124842517Y-121519091D01*
X124842516Y-121519091D01*
X124849444Y-121519835D01*
X124902127Y-121525500D01*
X126697872Y-121525499D01*
X126757483Y-121519091D01*
X126892331Y-121468796D01*
X127007546Y-121382546D01*
X127093796Y-121267331D01*
X127144091Y-121132483D01*
X127150500Y-121072873D01*
X127150500Y-121004998D01*
X159961937Y-121004998D01*
X159961937Y-121005001D01*
X159982150Y-121236044D01*
X159982151Y-121236051D01*
X160042178Y-121460074D01*
X160042179Y-121460076D01*
X160042180Y-121460079D01*
X160140199Y-121670282D01*
X160273230Y-121860269D01*
X160437231Y-122024270D01*
X160617505Y-122150500D01*
X160621683Y-122153425D01*
X160665308Y-122208002D01*
X160672500Y-122277501D01*
X160640978Y-122339855D01*
X160621683Y-122356575D01*
X160437231Y-122485730D01*
X160437229Y-122485731D01*
X160273231Y-122649729D01*
X160273226Y-122649735D01*
X160140201Y-122839714D01*
X160140199Y-122839718D01*
X160042181Y-123049917D01*
X159982151Y-123273948D01*
X159982150Y-123273955D01*
X159961937Y-123504998D01*
X159961937Y-123505001D01*
X159982150Y-123736044D01*
X159982151Y-123736051D01*
X160042178Y-123960074D01*
X160042179Y-123960076D01*
X160042180Y-123960079D01*
X160140199Y-124170282D01*
X160273230Y-124360269D01*
X160437231Y-124524270D01*
X160627218Y-124657301D01*
X160837421Y-124755320D01*
X161061450Y-124815349D01*
X161226485Y-124829787D01*
X161292498Y-124835563D01*
X161292500Y-124835563D01*
X161292502Y-124835563D01*
X161350262Y-124830509D01*
X161523550Y-124815349D01*
X161747579Y-124755320D01*
X161957782Y-124657301D01*
X162147769Y-124524270D01*
X162311770Y-124360269D01*
X162444801Y-124170282D01*
X162542820Y-123960079D01*
X162602849Y-123736050D01*
X162623063Y-123505000D01*
X162602849Y-123273950D01*
X162542820Y-123049921D01*
X162444801Y-122839719D01*
X162444799Y-122839716D01*
X162444798Y-122839714D01*
X162311773Y-122649735D01*
X162311768Y-122649729D01*
X162147769Y-122485730D01*
X162123305Y-122468600D01*
X161963314Y-122356572D01*
X161919692Y-122301998D01*
X161912499Y-122232499D01*
X161944021Y-122170145D01*
X161963309Y-122153430D01*
X162147769Y-122024270D01*
X162311770Y-121860269D01*
X162444801Y-121670282D01*
X162542820Y-121460079D01*
X162602849Y-121236050D01*
X162623063Y-121005000D01*
X162602849Y-120773950D01*
X162542820Y-120549921D01*
X162444801Y-120339719D01*
X162444799Y-120339716D01*
X162444798Y-120339714D01*
X162311773Y-120149735D01*
X162311768Y-120149729D01*
X162147769Y-119985730D01*
X162147763Y-119985726D01*
X161957782Y-119852699D01*
X161747579Y-119754680D01*
X161747576Y-119754679D01*
X161747574Y-119754678D01*
X161523551Y-119694651D01*
X161523544Y-119694650D01*
X161292502Y-119674437D01*
X161292498Y-119674437D01*
X161061455Y-119694650D01*
X161061448Y-119694651D01*
X160837417Y-119754681D01*
X160627218Y-119852699D01*
X160627214Y-119852701D01*
X160437235Y-119985726D01*
X160437229Y-119985731D01*
X160273231Y-120149729D01*
X160273226Y-120149735D01*
X160140201Y-120339714D01*
X160140199Y-120339718D01*
X160042181Y-120549917D01*
X159982151Y-120773948D01*
X159982150Y-120773955D01*
X159961937Y-121004998D01*
X127150500Y-121004998D01*
X127150499Y-119277128D01*
X127144091Y-119217517D01*
X127139571Y-119205399D01*
X127093797Y-119082671D01*
X127093793Y-119082664D01*
X127007547Y-118967455D01*
X127007544Y-118967452D01*
X126892335Y-118881206D01*
X126892328Y-118881202D01*
X126760917Y-118832189D01*
X126704983Y-118790318D01*
X126689944Y-118749996D01*
X162689403Y-118749996D01*
X162689403Y-118750003D01*
X162709724Y-118930369D01*
X162709725Y-118930374D01*
X162769677Y-119101706D01*
X162866249Y-119255398D01*
X162994601Y-119383750D01*
X163109440Y-119455909D01*
X163148295Y-119480323D01*
X163312303Y-119537712D01*
X163319625Y-119540274D01*
X163319630Y-119540275D01*
X163499996Y-119560597D01*
X163500000Y-119560597D01*
X163500004Y-119560597D01*
X163680369Y-119540275D01*
X163680372Y-119540274D01*
X163680375Y-119540274D01*
X163851705Y-119480323D01*
X164005399Y-119383750D01*
X164133750Y-119255399D01*
X164230323Y-119101705D01*
X164290274Y-118930375D01*
X164295814Y-118881204D01*
X164310597Y-118750003D01*
X164310597Y-118749996D01*
X164304963Y-118699996D01*
X170839403Y-118699996D01*
X170839403Y-118700003D01*
X170859724Y-118880369D01*
X170859725Y-118880374D01*
X170919677Y-119051706D01*
X171016249Y-119205398D01*
X171144601Y-119333750D01*
X171297486Y-119429815D01*
X171298295Y-119430323D01*
X171397216Y-119464937D01*
X171469625Y-119490274D01*
X171469630Y-119490275D01*
X171649996Y-119510597D01*
X171650000Y-119510597D01*
X171650004Y-119510597D01*
X171830369Y-119490275D01*
X171830372Y-119490274D01*
X171830375Y-119490274D01*
X172001705Y-119430323D01*
X172155399Y-119333750D01*
X172283750Y-119205399D01*
X172380323Y-119051705D01*
X172440274Y-118880375D01*
X172440275Y-118880369D01*
X172460597Y-118700003D01*
X172460597Y-118699996D01*
X172440275Y-118519630D01*
X172440274Y-118519625D01*
X172380322Y-118348293D01*
X172283750Y-118194601D01*
X172155398Y-118066249D01*
X172129532Y-118049996D01*
X175439403Y-118049996D01*
X175439403Y-118050003D01*
X175459724Y-118230369D01*
X175459725Y-118230374D01*
X175519677Y-118401706D01*
X175616249Y-118555398D01*
X175744601Y-118683750D01*
X175864902Y-118759341D01*
X175898295Y-118780323D01*
X176069625Y-118840274D01*
X176069630Y-118840275D01*
X176249996Y-118860597D01*
X176250000Y-118860597D01*
X176250004Y-118860597D01*
X176430369Y-118840275D01*
X176430372Y-118840274D01*
X176430375Y-118840274D01*
X176601705Y-118780323D01*
X176729544Y-118699996D01*
X178139403Y-118699996D01*
X178139403Y-118700003D01*
X178159724Y-118880369D01*
X178159725Y-118880374D01*
X178219677Y-119051706D01*
X178316249Y-119205398D01*
X178444601Y-119333750D01*
X178597486Y-119429815D01*
X178598295Y-119430323D01*
X178697216Y-119464937D01*
X178769625Y-119490274D01*
X178769629Y-119490275D01*
X178867791Y-119501334D01*
X178950000Y-119510597D01*
X178950002Y-119510596D01*
X178950439Y-119510646D01*
X179014853Y-119537712D01*
X179054408Y-119595306D01*
X179056547Y-119665143D01*
X179039949Y-119699610D01*
X179040454Y-119699886D01*
X179036202Y-119707671D01*
X178985908Y-119842517D01*
X178979501Y-119902116D01*
X178979500Y-119902135D01*
X178979500Y-121697870D01*
X178979501Y-121697876D01*
X178985908Y-121757483D01*
X179036202Y-121892328D01*
X179036206Y-121892335D01*
X179122452Y-122007544D01*
X179122455Y-122007547D01*
X179237664Y-122093793D01*
X179237671Y-122093797D01*
X179369081Y-122142810D01*
X179425015Y-122184681D01*
X179449432Y-122250145D01*
X179434580Y-122318418D01*
X179413430Y-122346673D01*
X179291503Y-122468600D01*
X179155965Y-122662169D01*
X179155964Y-122662171D01*
X179056098Y-122876335D01*
X179056094Y-122876344D01*
X178994938Y-123104586D01*
X178994936Y-123104596D01*
X178974341Y-123339999D01*
X178974341Y-123340000D01*
X178994936Y-123575403D01*
X178994938Y-123575413D01*
X179056094Y-123803655D01*
X179056096Y-123803659D01*
X179056097Y-123803663D01*
X179129033Y-123960074D01*
X179155965Y-124017830D01*
X179155967Y-124017834D01*
X179291501Y-124211395D01*
X179291506Y-124211402D01*
X179458597Y-124378493D01*
X179458603Y-124378498D01*
X179644158Y-124508425D01*
X179687783Y-124563002D01*
X179694977Y-124632500D01*
X179663454Y-124694855D01*
X179644158Y-124711575D01*
X179458597Y-124841505D01*
X179291505Y-125008597D01*
X179155965Y-125202169D01*
X179155964Y-125202171D01*
X179056098Y-125416335D01*
X179056094Y-125416344D01*
X178994938Y-125644586D01*
X178994936Y-125644596D01*
X178974341Y-125879999D01*
X178974341Y-125880000D01*
X178994936Y-126115403D01*
X178994938Y-126115413D01*
X179056094Y-126343655D01*
X179056096Y-126343659D01*
X179056097Y-126343663D01*
X179132556Y-126507630D01*
X179155965Y-126557830D01*
X179155967Y-126557834D01*
X179264281Y-126712521D01*
X179291505Y-126751401D01*
X179458599Y-126918495D01*
X179483416Y-126935872D01*
X179652165Y-127054032D01*
X179652167Y-127054033D01*
X179652170Y-127054035D01*
X179866337Y-127153903D01*
X180094592Y-127215063D01*
X180282918Y-127231539D01*
X180329999Y-127235659D01*
X180330000Y-127235659D01*
X180330001Y-127235659D01*
X180369234Y-127232226D01*
X180565408Y-127215063D01*
X180793663Y-127153903D01*
X181007830Y-127054035D01*
X181201401Y-126918495D01*
X181368495Y-126751401D01*
X181504035Y-126557830D01*
X181603903Y-126343663D01*
X181665063Y-126115408D01*
X181685659Y-125880000D01*
X181665063Y-125644592D01*
X181603903Y-125416337D01*
X181504035Y-125202171D01*
X181368495Y-125008599D01*
X181368494Y-125008597D01*
X181201402Y-124841506D01*
X181201396Y-124841501D01*
X181015842Y-124711575D01*
X180972217Y-124656998D01*
X180965023Y-124587500D01*
X180996546Y-124525145D01*
X181015842Y-124508425D01*
X181145536Y-124417612D01*
X181201401Y-124378495D01*
X181368495Y-124211401D01*
X181504035Y-124017830D01*
X181603903Y-123803663D01*
X181665063Y-123575408D01*
X181685659Y-123340000D01*
X181665063Y-123104592D01*
X181603903Y-122876337D01*
X181504035Y-122662171D01*
X181495327Y-122649735D01*
X181368496Y-122468600D01*
X181368495Y-122468599D01*
X181246567Y-122346671D01*
X181213084Y-122285351D01*
X181218068Y-122215659D01*
X181259939Y-122159725D01*
X181290915Y-122142810D01*
X181422331Y-122093796D01*
X181537546Y-122007546D01*
X181623796Y-121892331D01*
X181672810Y-121760916D01*
X181714681Y-121704984D01*
X181780145Y-121680566D01*
X181848418Y-121695417D01*
X181876673Y-121716569D01*
X181998599Y-121838495D01*
X182095384Y-121906265D01*
X182192165Y-121974032D01*
X182192167Y-121974033D01*
X182192170Y-121974035D01*
X182406337Y-122073903D01*
X182634592Y-122135063D01*
X182811034Y-122150500D01*
X182869999Y-122155659D01*
X182870000Y-122155659D01*
X182870001Y-122155659D01*
X182928966Y-122150500D01*
X183105408Y-122135063D01*
X183333663Y-122073903D01*
X183547830Y-121974035D01*
X183741401Y-121838495D01*
X183908495Y-121671401D01*
X184044035Y-121477830D01*
X184143903Y-121263663D01*
X184205063Y-121035408D01*
X184225659Y-120800000D01*
X184205063Y-120564592D01*
X184143903Y-120336337D01*
X184044035Y-120122171D01*
X183948499Y-119985730D01*
X183908494Y-119928597D01*
X183741402Y-119761506D01*
X183741395Y-119761501D01*
X183547834Y-119625967D01*
X183547830Y-119625965D01*
X183547828Y-119625964D01*
X183333663Y-119526097D01*
X183333659Y-119526096D01*
X183333655Y-119526094D01*
X183105413Y-119464938D01*
X183105403Y-119464936D01*
X182870001Y-119444341D01*
X182869999Y-119444341D01*
X182634596Y-119464936D01*
X182634586Y-119464938D01*
X182406344Y-119526094D01*
X182406335Y-119526098D01*
X182192171Y-119625964D01*
X182192169Y-119625965D01*
X181998600Y-119761503D01*
X181876673Y-119883430D01*
X181815350Y-119916914D01*
X181745658Y-119911930D01*
X181689725Y-119870058D01*
X181672810Y-119839081D01*
X181623797Y-119707671D01*
X181623793Y-119707664D01*
X181537547Y-119592455D01*
X181537544Y-119592452D01*
X181422335Y-119506206D01*
X181422328Y-119506202D01*
X181287482Y-119455908D01*
X181287483Y-119455908D01*
X181227883Y-119449501D01*
X181227881Y-119449500D01*
X181227873Y-119449500D01*
X181227865Y-119449500D01*
X179639010Y-119449500D01*
X179571971Y-119429815D01*
X179526216Y-119377011D01*
X179516272Y-119307853D01*
X179545297Y-119244297D01*
X179551316Y-119237832D01*
X179583750Y-119205399D01*
X179680323Y-119051705D01*
X179740274Y-118880375D01*
X179740275Y-118880369D01*
X179760597Y-118700003D01*
X179760597Y-118699996D01*
X179740275Y-118519630D01*
X179740274Y-118519625D01*
X179680322Y-118348293D01*
X179583750Y-118194601D01*
X179455398Y-118066249D01*
X179301706Y-117969677D01*
X179130374Y-117909725D01*
X179130369Y-117909724D01*
X178950004Y-117889403D01*
X178949996Y-117889403D01*
X178769630Y-117909724D01*
X178769625Y-117909725D01*
X178598293Y-117969677D01*
X178444601Y-118066249D01*
X178316249Y-118194601D01*
X178219677Y-118348293D01*
X178159725Y-118519625D01*
X178159724Y-118519630D01*
X178139403Y-118699996D01*
X176729544Y-118699996D01*
X176755399Y-118683750D01*
X176883750Y-118555399D01*
X176980323Y-118401705D01*
X177040274Y-118230375D01*
X177058766Y-118066250D01*
X177060597Y-118050003D01*
X177060597Y-118049996D01*
X177040275Y-117869630D01*
X177040274Y-117869625D01*
X176980322Y-117698293D01*
X176883750Y-117544601D01*
X176755398Y-117416249D01*
X176601706Y-117319677D01*
X176430374Y-117259725D01*
X176430369Y-117259724D01*
X176250004Y-117239403D01*
X176249996Y-117239403D01*
X176069630Y-117259724D01*
X176069625Y-117259725D01*
X175898293Y-117319677D01*
X175744601Y-117416249D01*
X175616249Y-117544601D01*
X175519677Y-117698293D01*
X175459725Y-117869625D01*
X175459724Y-117869630D01*
X175439403Y-118049996D01*
X172129532Y-118049996D01*
X172001706Y-117969677D01*
X171830374Y-117909725D01*
X171830369Y-117909724D01*
X171650004Y-117889403D01*
X171649996Y-117889403D01*
X171469630Y-117909724D01*
X171469625Y-117909725D01*
X171298293Y-117969677D01*
X171144601Y-118066249D01*
X171016249Y-118194601D01*
X170919677Y-118348293D01*
X170859725Y-118519625D01*
X170859724Y-118519630D01*
X170839403Y-118699996D01*
X164304963Y-118699996D01*
X164290275Y-118569630D01*
X164290274Y-118569625D01*
X164268149Y-118506395D01*
X164230323Y-118398295D01*
X164198904Y-118348293D01*
X164133750Y-118244601D01*
X164005398Y-118116249D01*
X163851706Y-118019677D01*
X163680374Y-117959725D01*
X163680369Y-117959724D01*
X163500004Y-117939403D01*
X163499996Y-117939403D01*
X163319630Y-117959724D01*
X163319625Y-117959725D01*
X163148293Y-118019677D01*
X162994601Y-118116249D01*
X162866249Y-118244601D01*
X162769677Y-118398293D01*
X162709725Y-118569625D01*
X162709724Y-118569630D01*
X162689403Y-118749996D01*
X126689944Y-118749996D01*
X126680566Y-118724853D01*
X126695418Y-118656580D01*
X126716563Y-118628332D01*
X126838495Y-118506401D01*
X126974035Y-118312830D01*
X127073903Y-118098663D01*
X127135063Y-117870408D01*
X127155659Y-117635000D01*
X127135063Y-117399592D01*
X127073903Y-117171337D01*
X126974035Y-116957171D01*
X126947746Y-116919625D01*
X126838494Y-116763597D01*
X126671402Y-116596506D01*
X126671395Y-116596501D01*
X126477834Y-116460967D01*
X126477830Y-116460965D01*
X126360399Y-116406206D01*
X126263663Y-116361097D01*
X126263659Y-116361096D01*
X126263655Y-116361094D01*
X126035413Y-116299938D01*
X126035403Y-116299936D01*
X125800001Y-116279341D01*
X125799999Y-116279341D01*
X125564596Y-116299936D01*
X125564586Y-116299938D01*
X125336344Y-116361094D01*
X125336335Y-116361098D01*
X125122171Y-116460964D01*
X125122169Y-116460965D01*
X124928597Y-116596505D01*
X124761505Y-116763597D01*
X124625965Y-116957169D01*
X124625964Y-116957171D01*
X124526098Y-117171335D01*
X124526094Y-117171344D01*
X124464938Y-117399586D01*
X124464936Y-117399596D01*
X124444341Y-117634999D01*
X84500000Y-117634999D01*
X84500000Y-116004995D01*
X144532232Y-116004995D01*
X144532232Y-116005004D01*
X144551277Y-116259154D01*
X144598545Y-116466250D01*
X144607992Y-116507637D01*
X144642870Y-116596505D01*
X144701108Y-116744890D01*
X144711910Y-116763599D01*
X144828541Y-116965612D01*
X144987450Y-117164877D01*
X145174283Y-117338232D01*
X145384866Y-117481805D01*
X145384871Y-117481807D01*
X145384872Y-117481808D01*
X145384873Y-117481809D01*
X145506828Y-117540538D01*
X145614492Y-117592387D01*
X145614493Y-117592387D01*
X145614496Y-117592389D01*
X145858042Y-117667513D01*
X146110065Y-117705500D01*
X146364935Y-117705500D01*
X146616958Y-117667513D01*
X146860504Y-117592389D01*
X147090134Y-117481805D01*
X147300717Y-117338232D01*
X147487550Y-117164877D01*
X147646459Y-116965612D01*
X147773893Y-116744888D01*
X147867008Y-116507637D01*
X147923722Y-116259157D01*
X147942768Y-116005000D01*
X147942768Y-116004995D01*
X157182232Y-116004995D01*
X157182232Y-116005004D01*
X157201277Y-116259154D01*
X157248545Y-116466250D01*
X157257992Y-116507637D01*
X157292870Y-116596505D01*
X157351108Y-116744890D01*
X157361910Y-116763599D01*
X157478541Y-116965612D01*
X157637450Y-117164877D01*
X157824283Y-117338232D01*
X158034866Y-117481805D01*
X158034871Y-117481807D01*
X158034872Y-117481808D01*
X158034873Y-117481809D01*
X158156828Y-117540538D01*
X158264492Y-117592387D01*
X158264493Y-117592387D01*
X158264496Y-117592389D01*
X158508042Y-117667513D01*
X158760065Y-117705500D01*
X159014935Y-117705500D01*
X159266958Y-117667513D01*
X159510504Y-117592389D01*
X159740134Y-117481805D01*
X159950717Y-117338232D01*
X159984952Y-117306466D01*
X160047481Y-117275299D01*
X160116937Y-117282885D01*
X160171266Y-117326818D01*
X160186333Y-117356412D01*
X160219676Y-117451704D01*
X160278048Y-117544601D01*
X160316250Y-117605399D01*
X160444601Y-117733750D01*
X160598295Y-117830323D01*
X160712866Y-117870413D01*
X160769625Y-117890274D01*
X160769630Y-117890275D01*
X160949996Y-117910597D01*
X160950000Y-117910597D01*
X160950004Y-117910597D01*
X161130369Y-117890275D01*
X161130372Y-117890274D01*
X161130375Y-117890274D01*
X161301705Y-117830323D01*
X161455399Y-117733750D01*
X161583750Y-117605399D01*
X161680323Y-117451705D01*
X161740274Y-117280375D01*
X161742601Y-117259724D01*
X161760597Y-117100003D01*
X161760597Y-117099996D01*
X161740275Y-116919630D01*
X161740274Y-116919625D01*
X161680322Y-116748293D01*
X161583750Y-116594601D01*
X161455398Y-116466249D01*
X161301706Y-116369677D01*
X161130374Y-116309725D01*
X161130369Y-116309724D01*
X160950004Y-116289403D01*
X160949996Y-116289403D01*
X160769630Y-116309724D01*
X160769623Y-116309726D01*
X160743313Y-116318932D01*
X160673534Y-116322492D01*
X160612907Y-116287761D01*
X160580682Y-116225767D01*
X160578708Y-116192623D01*
X160592768Y-116005004D01*
X160592768Y-116004995D01*
X160573722Y-115750845D01*
X160517009Y-115502369D01*
X160517008Y-115502363D01*
X160423893Y-115265112D01*
X160296459Y-115044388D01*
X160137550Y-114845123D01*
X159950717Y-114671768D01*
X159817467Y-114580919D01*
X159773167Y-114526893D01*
X159765108Y-114457490D01*
X159770277Y-114437520D01*
X159790274Y-114380375D01*
X159806794Y-114233755D01*
X159810597Y-114200003D01*
X159810597Y-114199996D01*
X159790275Y-114019630D01*
X159790274Y-114019625D01*
X159730322Y-113848293D01*
X159633750Y-113694601D01*
X159505398Y-113566249D01*
X159351703Y-113469676D01*
X159244070Y-113432013D01*
X159187295Y-113391291D01*
X159167987Y-113355933D01*
X159130323Y-113248295D01*
X159033750Y-113094601D01*
X158905399Y-112966250D01*
X158905398Y-112966249D01*
X158751706Y-112869677D01*
X158580374Y-112809725D01*
X158580369Y-112809724D01*
X158400004Y-112789403D01*
X158399996Y-112789403D01*
X158219630Y-112809724D01*
X158219625Y-112809725D01*
X158048293Y-112869677D01*
X157894601Y-112966249D01*
X157766249Y-113094601D01*
X157669677Y-113248293D01*
X157609725Y-113419625D01*
X157609724Y-113419630D01*
X157589403Y-113599996D01*
X157589403Y-113600003D01*
X157609724Y-113780369D01*
X157609725Y-113780374D01*
X157669677Y-113951706D01*
X157766249Y-114105398D01*
X157894602Y-114233751D01*
X157894607Y-114233755D01*
X158031978Y-114320072D01*
X158078269Y-114372406D01*
X158088917Y-114441460D01*
X158060542Y-114505308D01*
X158035858Y-114527519D01*
X157824282Y-114671768D01*
X157637452Y-114845121D01*
X157637450Y-114845123D01*
X157478541Y-115044388D01*
X157351108Y-115265109D01*
X157257992Y-115502362D01*
X157257990Y-115502369D01*
X157201277Y-115750845D01*
X157182232Y-116004995D01*
X147942768Y-116004995D01*
X147923722Y-115750843D01*
X147867008Y-115502363D01*
X147773893Y-115265112D01*
X147646459Y-115044388D01*
X147487550Y-114845123D01*
X147300717Y-114671768D01*
X147090134Y-114528195D01*
X147090130Y-114528193D01*
X147090127Y-114528191D01*
X147090126Y-114528190D01*
X146860506Y-114417612D01*
X146860508Y-114417612D01*
X146616966Y-114342489D01*
X146616962Y-114342488D01*
X146616958Y-114342487D01*
X146495731Y-114324214D01*
X146364940Y-114304500D01*
X146364935Y-114304500D01*
X146110065Y-114304500D01*
X146110059Y-114304500D01*
X145953109Y-114328157D01*
X145858042Y-114342487D01*
X145858039Y-114342488D01*
X145858033Y-114342489D01*
X145614492Y-114417612D01*
X145384873Y-114528190D01*
X145384872Y-114528191D01*
X145174282Y-114671768D01*
X144987452Y-114845121D01*
X144987450Y-114845123D01*
X144828541Y-115044388D01*
X144701108Y-115265109D01*
X144607992Y-115502362D01*
X144607990Y-115502369D01*
X144551277Y-115750845D01*
X144532232Y-116004995D01*
X84500000Y-116004995D01*
X84500000Y-112274998D01*
X151231937Y-112274998D01*
X151231937Y-112275001D01*
X151252150Y-112506044D01*
X151252151Y-112506051D01*
X151312178Y-112730074D01*
X151312179Y-112730076D01*
X151312180Y-112730079D01*
X151410199Y-112940282D01*
X151543230Y-113130269D01*
X151707231Y-113294270D01*
X151897218Y-113427301D01*
X152107421Y-113525320D01*
X152331450Y-113585349D01*
X152496485Y-113599787D01*
X152562498Y-113605563D01*
X152562500Y-113605563D01*
X152562502Y-113605563D01*
X152626132Y-113599996D01*
X152793550Y-113585349D01*
X153017579Y-113525320D01*
X153227782Y-113427301D01*
X153417769Y-113294270D01*
X153581770Y-113130269D01*
X153710927Y-112945814D01*
X153765502Y-112902192D01*
X153835001Y-112894999D01*
X153897355Y-112926521D01*
X153914069Y-112945809D01*
X154043230Y-113130269D01*
X154207231Y-113294270D01*
X154397218Y-113427301D01*
X154607421Y-113525320D01*
X154831450Y-113585349D01*
X154996485Y-113599787D01*
X155062498Y-113605563D01*
X155062500Y-113605563D01*
X155062502Y-113605563D01*
X155126132Y-113599996D01*
X155293550Y-113585349D01*
X155517579Y-113525320D01*
X155727782Y-113427301D01*
X155917769Y-113294270D01*
X156081770Y-113130269D01*
X156214801Y-112940282D01*
X156312820Y-112730079D01*
X156372849Y-112506050D01*
X156393063Y-112275000D01*
X156372849Y-112043950D01*
X156312820Y-111819921D01*
X156214801Y-111609719D01*
X156214799Y-111609716D01*
X156214798Y-111609714D01*
X156081773Y-111419735D01*
X156081768Y-111419729D01*
X155962035Y-111299996D01*
X162089403Y-111299996D01*
X162089403Y-111300003D01*
X162109724Y-111480369D01*
X162109725Y-111480374D01*
X162169677Y-111651706D01*
X162266249Y-111805398D01*
X162266250Y-111805399D01*
X162394601Y-111933750D01*
X162548295Y-112030323D01*
X162719625Y-112090274D01*
X162719630Y-112090275D01*
X162899996Y-112110597D01*
X162900000Y-112110597D01*
X162900004Y-112110597D01*
X163080369Y-112090275D01*
X163080372Y-112090274D01*
X163080375Y-112090274D01*
X163251705Y-112030323D01*
X163405399Y-111933750D01*
X163533750Y-111805399D01*
X163630323Y-111651705D01*
X163690274Y-111480375D01*
X163690275Y-111480369D01*
X163710597Y-111300003D01*
X163710597Y-111299996D01*
X163690275Y-111119630D01*
X163690274Y-111119625D01*
X163630323Y-110948295D01*
X163533750Y-110794601D01*
X163405399Y-110666250D01*
X163405398Y-110666249D01*
X163251706Y-110569677D01*
X163080374Y-110509725D01*
X163080369Y-110509724D01*
X162900004Y-110489403D01*
X162899996Y-110489403D01*
X162719630Y-110509724D01*
X162719625Y-110509725D01*
X162548293Y-110569677D01*
X162394601Y-110666249D01*
X162266249Y-110794601D01*
X162169677Y-110948293D01*
X162109725Y-111119625D01*
X162109724Y-111119630D01*
X162089403Y-111299996D01*
X155962035Y-111299996D01*
X155917769Y-111255730D01*
X155917763Y-111255726D01*
X155727782Y-111122699D01*
X155517579Y-111024680D01*
X155517576Y-111024679D01*
X155517574Y-111024678D01*
X155293551Y-110964651D01*
X155293544Y-110964650D01*
X155062502Y-110944437D01*
X155062498Y-110944437D01*
X154831455Y-110964650D01*
X154831448Y-110964651D01*
X154607417Y-111024681D01*
X154397218Y-111122699D01*
X154397214Y-111122701D01*
X154207235Y-111255726D01*
X154207229Y-111255731D01*
X154043231Y-111419729D01*
X154043226Y-111419735D01*
X153914075Y-111604183D01*
X153859498Y-111647808D01*
X153790000Y-111655002D01*
X153727645Y-111623479D01*
X153710925Y-111604183D01*
X153581773Y-111419735D01*
X153581768Y-111419729D01*
X153417769Y-111255730D01*
X153417763Y-111255726D01*
X153227782Y-111122699D01*
X153017579Y-111024680D01*
X153017576Y-111024679D01*
X153017574Y-111024678D01*
X152793551Y-110964651D01*
X152793544Y-110964650D01*
X152562502Y-110944437D01*
X152562498Y-110944437D01*
X152331455Y-110964650D01*
X152331448Y-110964651D01*
X152107417Y-111024681D01*
X151897218Y-111122699D01*
X151897214Y-111122701D01*
X151707235Y-111255726D01*
X151707229Y-111255731D01*
X151543231Y-111419729D01*
X151543226Y-111419735D01*
X151410201Y-111609714D01*
X151410199Y-111609718D01*
X151312181Y-111819917D01*
X151252151Y-112043948D01*
X151252150Y-112043955D01*
X151231937Y-112274998D01*
X84500000Y-112274998D01*
X84500000Y-108849996D01*
X167231203Y-108849996D01*
X167231203Y-108850003D01*
X167251524Y-109030369D01*
X167251525Y-109030374D01*
X167311477Y-109201706D01*
X167408049Y-109355398D01*
X167408050Y-109355399D01*
X167536401Y-109483750D01*
X167690095Y-109580323D01*
X167861425Y-109640274D01*
X167861430Y-109640275D01*
X168041796Y-109660597D01*
X168041800Y-109660597D01*
X168041804Y-109660597D01*
X168222169Y-109640275D01*
X168222172Y-109640274D01*
X168222175Y-109640274D01*
X168393505Y-109580323D01*
X168547199Y-109483750D01*
X168675550Y-109355399D01*
X168772123Y-109201705D01*
X168832074Y-109030375D01*
X168852397Y-108850000D01*
X168832074Y-108669625D01*
X168772123Y-108498295D01*
X168675550Y-108344601D01*
X168547199Y-108216250D01*
X168547198Y-108216249D01*
X168393506Y-108119677D01*
X168222174Y-108059725D01*
X168222169Y-108059724D01*
X168041804Y-108039403D01*
X168041796Y-108039403D01*
X167861430Y-108059724D01*
X167861425Y-108059725D01*
X167690093Y-108119677D01*
X167536401Y-108216249D01*
X167408049Y-108344601D01*
X167311477Y-108498293D01*
X167251525Y-108669625D01*
X167251524Y-108669630D01*
X167231203Y-108849996D01*
X84500000Y-108849996D01*
X84500000Y-107349996D01*
X131789403Y-107349996D01*
X131789403Y-107350003D01*
X131809724Y-107530369D01*
X131809725Y-107530374D01*
X131869677Y-107701706D01*
X131966249Y-107855398D01*
X132094601Y-107983750D01*
X132215513Y-108059725D01*
X132248295Y-108080323D01*
X132360762Y-108119677D01*
X132419625Y-108140274D01*
X132419630Y-108140275D01*
X132599996Y-108160597D01*
X132600000Y-108160597D01*
X132600004Y-108160597D01*
X132780369Y-108140275D01*
X132780372Y-108140274D01*
X132780375Y-108140274D01*
X132951705Y-108080323D01*
X133105399Y-107983750D01*
X133233750Y-107855399D01*
X133330323Y-107701705D01*
X133390274Y-107530375D01*
X133395670Y-107482482D01*
X133410597Y-107350003D01*
X133410597Y-107349996D01*
X133390275Y-107169630D01*
X133390274Y-107169625D01*
X133341530Y-107030323D01*
X133330323Y-106998295D01*
X133324271Y-106988664D01*
X133233750Y-106844601D01*
X133105398Y-106716249D01*
X132951706Y-106619677D01*
X132780374Y-106559725D01*
X132780369Y-106559724D01*
X132600004Y-106539403D01*
X132599996Y-106539403D01*
X132419630Y-106559724D01*
X132419625Y-106559725D01*
X132248293Y-106619677D01*
X132094601Y-106716249D01*
X131966249Y-106844601D01*
X131869677Y-106998293D01*
X131809725Y-107169625D01*
X131809724Y-107169630D01*
X131789403Y-107349996D01*
X84500000Y-107349996D01*
X84500000Y-106299996D01*
X143589403Y-106299996D01*
X143589403Y-106300003D01*
X143609724Y-106480369D01*
X143609725Y-106480374D01*
X143669677Y-106651706D01*
X143766249Y-106805398D01*
X143894601Y-106933750D01*
X143981995Y-106988664D01*
X144048295Y-107030323D01*
X144219625Y-107090274D01*
X144219630Y-107090275D01*
X144399996Y-107110597D01*
X144400000Y-107110597D01*
X144400004Y-107110597D01*
X144580369Y-107090275D01*
X144580372Y-107090274D01*
X144580375Y-107090274D01*
X144751705Y-107030323D01*
X144905399Y-106933750D01*
X145033750Y-106805399D01*
X145130323Y-106651705D01*
X145190274Y-106480375D01*
X145193696Y-106450003D01*
X145210597Y-106300003D01*
X145210597Y-106299996D01*
X145190275Y-106119630D01*
X145190274Y-106119625D01*
X145182810Y-106098293D01*
X145130323Y-105948295D01*
X145103369Y-105905399D01*
X145033750Y-105794601D01*
X144905398Y-105666249D01*
X144751706Y-105569677D01*
X144580374Y-105509725D01*
X144580369Y-105509724D01*
X144400004Y-105489403D01*
X144399996Y-105489403D01*
X144219630Y-105509724D01*
X144219625Y-105509725D01*
X144048293Y-105569677D01*
X143894601Y-105666249D01*
X143766249Y-105794601D01*
X143669677Y-105948293D01*
X143609725Y-106119625D01*
X143609724Y-106119630D01*
X143589403Y-106299996D01*
X84500000Y-106299996D01*
X84500000Y-105399996D01*
X151689403Y-105399996D01*
X151689403Y-105400003D01*
X151709724Y-105580369D01*
X151709725Y-105580374D01*
X151769677Y-105751706D01*
X151866249Y-105905398D01*
X151937774Y-105976923D01*
X151971259Y-106038246D01*
X151967135Y-106105559D01*
X151909725Y-106269625D01*
X151909724Y-106269630D01*
X151889403Y-106449996D01*
X151889403Y-106450003D01*
X151909724Y-106630369D01*
X151909725Y-106630374D01*
X151969677Y-106801706D01*
X152066249Y-106955398D01*
X152194601Y-107083750D01*
X152331329Y-107169663D01*
X152348295Y-107180323D01*
X152412628Y-107202834D01*
X152519625Y-107240274D01*
X152519630Y-107240275D01*
X152699996Y-107260597D01*
X152700000Y-107260597D01*
X152700004Y-107260597D01*
X152880369Y-107240275D01*
X152880372Y-107240274D01*
X152880375Y-107240274D01*
X153051705Y-107180323D01*
X153205399Y-107083750D01*
X153333750Y-106955399D01*
X153430323Y-106801705D01*
X153490274Y-106630375D01*
X153490275Y-106630369D01*
X153510597Y-106450003D01*
X153510597Y-106449996D01*
X154689403Y-106449996D01*
X154689403Y-106450003D01*
X154709724Y-106630369D01*
X154709725Y-106630374D01*
X154769677Y-106801706D01*
X154866249Y-106955398D01*
X154994601Y-107083750D01*
X155131329Y-107169663D01*
X155148295Y-107180323D01*
X155212628Y-107202834D01*
X155319625Y-107240274D01*
X155319630Y-107240275D01*
X155499996Y-107260597D01*
X155500000Y-107260597D01*
X155500004Y-107260597D01*
X155680369Y-107240275D01*
X155680372Y-107240274D01*
X155680375Y-107240274D01*
X155851705Y-107180323D01*
X156005399Y-107083750D01*
X156133750Y-106955399D01*
X156230323Y-106801705D01*
X156290274Y-106630375D01*
X156290275Y-106630369D01*
X156310597Y-106450003D01*
X156310597Y-106449996D01*
X156290275Y-106269630D01*
X156290274Y-106269625D01*
X156237788Y-106119630D01*
X156230323Y-106098295D01*
X156207099Y-106061335D01*
X156133750Y-105944601D01*
X156005398Y-105816249D01*
X155851706Y-105719677D01*
X155680374Y-105659725D01*
X155680369Y-105659724D01*
X155500004Y-105639403D01*
X155499996Y-105639403D01*
X155319630Y-105659724D01*
X155319625Y-105659725D01*
X155148293Y-105719677D01*
X154994601Y-105816249D01*
X154866249Y-105944601D01*
X154769677Y-106098293D01*
X154709725Y-106269625D01*
X154709724Y-106269630D01*
X154689403Y-106449996D01*
X153510597Y-106449996D01*
X153490275Y-106269630D01*
X153490274Y-106269625D01*
X153437788Y-106119630D01*
X153430323Y-106098295D01*
X153407099Y-106061335D01*
X153333752Y-105944604D01*
X153333751Y-105944603D01*
X153333750Y-105944601D01*
X153262224Y-105873075D01*
X153228740Y-105811751D01*
X153232864Y-105744440D01*
X153290274Y-105580375D01*
X153290275Y-105580369D01*
X153310597Y-105400003D01*
X153310597Y-105399996D01*
X158389403Y-105399996D01*
X158389403Y-105400003D01*
X158409724Y-105580369D01*
X158409725Y-105580374D01*
X158469677Y-105751706D01*
X158545939Y-105873075D01*
X158566250Y-105905399D01*
X158630476Y-105969625D01*
X158659476Y-105998625D01*
X158692960Y-106059949D01*
X158695015Y-106100187D01*
X158689404Y-106149996D01*
X158689403Y-106150003D01*
X158709724Y-106330369D01*
X158709725Y-106330374D01*
X158769677Y-106501706D01*
X158866249Y-106655398D01*
X158994601Y-106783750D01*
X159146682Y-106879310D01*
X159148295Y-106880323D01*
X159319625Y-106940274D01*
X159319630Y-106940275D01*
X159499996Y-106960597D01*
X159500000Y-106960597D01*
X159500004Y-106960597D01*
X159680369Y-106940275D01*
X159680372Y-106940274D01*
X159680375Y-106940274D01*
X159851705Y-106880323D01*
X159851705Y-106880322D01*
X159858278Y-106878023D01*
X159859263Y-106880838D01*
X159915057Y-106871613D01*
X159941271Y-106879310D01*
X159941722Y-106878023D01*
X160119625Y-106940274D01*
X160119630Y-106940275D01*
X160299996Y-106960597D01*
X160300000Y-106960597D01*
X160300004Y-106960597D01*
X160480369Y-106940275D01*
X160480372Y-106940274D01*
X160480375Y-106940274D01*
X160651705Y-106880323D01*
X160805399Y-106783750D01*
X160933750Y-106655399D01*
X161030323Y-106501705D01*
X161090274Y-106330375D01*
X161093696Y-106300003D01*
X161104964Y-106199996D01*
X166189403Y-106199996D01*
X166189403Y-106200003D01*
X166209724Y-106380369D01*
X166209725Y-106380374D01*
X166269677Y-106551706D01*
X166366249Y-106705398D01*
X166494601Y-106833750D01*
X166569540Y-106880838D01*
X166648295Y-106930323D01*
X166734813Y-106960597D01*
X166819625Y-106990274D01*
X166819630Y-106990275D01*
X166999996Y-107010597D01*
X167000000Y-107010597D01*
X167000004Y-107010597D01*
X167180369Y-106990275D01*
X167180372Y-106990274D01*
X167180375Y-106990274D01*
X167351705Y-106930323D01*
X167505399Y-106833750D01*
X167633750Y-106705399D01*
X167730323Y-106551705D01*
X167790274Y-106380375D01*
X167795908Y-106330374D01*
X167810597Y-106200003D01*
X167810597Y-106199996D01*
X167790275Y-106019630D01*
X167790274Y-106019625D01*
X167772778Y-105969625D01*
X167730323Y-105848295D01*
X167729615Y-105847169D01*
X167633750Y-105694601D01*
X167505398Y-105566249D01*
X167351706Y-105469677D01*
X167180374Y-105409725D01*
X167180369Y-105409724D01*
X167000004Y-105389403D01*
X166999996Y-105389403D01*
X166819630Y-105409724D01*
X166819625Y-105409725D01*
X166648293Y-105469677D01*
X166494601Y-105566249D01*
X166366249Y-105694601D01*
X166269677Y-105848293D01*
X166209725Y-106019625D01*
X166209724Y-106019630D01*
X166189403Y-106199996D01*
X161104964Y-106199996D01*
X161110597Y-106150003D01*
X161110597Y-106149996D01*
X161090275Y-105969630D01*
X161090274Y-105969625D01*
X161047425Y-105847169D01*
X161030323Y-105798295D01*
X161001048Y-105751705D01*
X160933750Y-105644601D01*
X160805398Y-105516249D01*
X160651706Y-105419677D01*
X160480374Y-105359725D01*
X160480369Y-105359724D01*
X160300004Y-105339403D01*
X160299996Y-105339403D01*
X160130702Y-105358477D01*
X160061880Y-105346422D01*
X160010501Y-105299073D01*
X159993599Y-105249139D01*
X159990274Y-105219625D01*
X159930323Y-105048295D01*
X159924890Y-105039649D01*
X159833750Y-104894601D01*
X159705398Y-104766249D01*
X159551706Y-104669677D01*
X159380374Y-104609725D01*
X159380369Y-104609724D01*
X159200004Y-104589403D01*
X159199996Y-104589403D01*
X159019630Y-104609724D01*
X159019625Y-104609725D01*
X158848293Y-104669677D01*
X158694601Y-104766249D01*
X158566249Y-104894601D01*
X158469677Y-105048293D01*
X158409725Y-105219625D01*
X158409724Y-105219630D01*
X158389403Y-105399996D01*
X153310597Y-105399996D01*
X153290275Y-105219630D01*
X153290274Y-105219625D01*
X153269073Y-105159035D01*
X153230323Y-105048295D01*
X153224890Y-105039649D01*
X153133750Y-104894601D01*
X153005398Y-104766249D01*
X152851706Y-104669677D01*
X152680374Y-104609725D01*
X152680369Y-104609724D01*
X152500004Y-104589403D01*
X152499996Y-104589403D01*
X152319630Y-104609724D01*
X152319625Y-104609725D01*
X152148293Y-104669677D01*
X151994601Y-104766249D01*
X151866249Y-104894601D01*
X151769677Y-105048293D01*
X151709725Y-105219625D01*
X151709724Y-105219630D01*
X151689403Y-105399996D01*
X84500000Y-105399996D01*
X84500000Y-102649996D01*
X133089403Y-102649996D01*
X133089403Y-102650003D01*
X133109724Y-102830369D01*
X133109725Y-102830374D01*
X133169677Y-103001706D01*
X133266249Y-103155398D01*
X133394601Y-103283750D01*
X133539772Y-103374968D01*
X133548295Y-103380323D01*
X133638374Y-103411843D01*
X133719625Y-103440274D01*
X133719630Y-103440275D01*
X133899996Y-103460597D01*
X133900000Y-103460597D01*
X133900004Y-103460597D01*
X134080369Y-103440275D01*
X134080372Y-103440274D01*
X134080375Y-103440274D01*
X134251705Y-103380323D01*
X134379544Y-103299996D01*
X135789403Y-103299996D01*
X135789403Y-103300003D01*
X135809724Y-103480369D01*
X135809725Y-103480374D01*
X135869677Y-103651706D01*
X135966249Y-103805398D01*
X136094601Y-103933750D01*
X136201796Y-104001106D01*
X136248295Y-104030323D01*
X136419625Y-104090274D01*
X136419630Y-104090275D01*
X136599996Y-104110597D01*
X136600000Y-104110597D01*
X136600004Y-104110597D01*
X136780369Y-104090275D01*
X136780372Y-104090274D01*
X136780375Y-104090274D01*
X136951705Y-104030323D01*
X137105399Y-103933750D01*
X137108700Y-103930448D01*
X137170018Y-103896962D01*
X137239709Y-103901943D01*
X137295646Y-103943811D01*
X137301377Y-103952155D01*
X137366249Y-104055398D01*
X137494601Y-104183750D01*
X137552933Y-104220403D01*
X137648295Y-104280323D01*
X137791335Y-104330375D01*
X137819625Y-104340274D01*
X137819630Y-104340275D01*
X137999996Y-104360597D01*
X138000000Y-104360597D01*
X138000004Y-104360597D01*
X138180369Y-104340275D01*
X138180372Y-104340274D01*
X138180375Y-104340274D01*
X138351705Y-104280323D01*
X138505399Y-104183750D01*
X138633750Y-104055399D01*
X138730323Y-103901705D01*
X138790274Y-103730375D01*
X138793088Y-103705399D01*
X138810597Y-103550003D01*
X138810597Y-103549996D01*
X138790275Y-103369630D01*
X138790274Y-103369625D01*
X138765910Y-103299996D01*
X138730918Y-103199996D01*
X149389403Y-103199996D01*
X149389403Y-103200003D01*
X149409724Y-103380369D01*
X149409725Y-103380374D01*
X149469677Y-103551706D01*
X149566249Y-103705398D01*
X149694601Y-103833750D01*
X149802751Y-103901706D01*
X149848295Y-103930323D01*
X149960614Y-103969625D01*
X150019625Y-103990274D01*
X150019630Y-103990275D01*
X150199996Y-104010597D01*
X150200000Y-104010597D01*
X150200004Y-104010597D01*
X150380369Y-103990275D01*
X150380372Y-103990274D01*
X150380375Y-103990274D01*
X150551705Y-103930323D01*
X150590559Y-103905909D01*
X150657792Y-103886908D01*
X150724628Y-103907274D01*
X150769844Y-103960541D01*
X150773573Y-103969947D01*
X150819677Y-104101706D01*
X150916249Y-104255398D01*
X151044601Y-104383750D01*
X151147908Y-104448663D01*
X151198295Y-104480323D01*
X151369625Y-104540274D01*
X151369630Y-104540275D01*
X151549996Y-104560597D01*
X151550000Y-104560597D01*
X151550004Y-104560597D01*
X151730369Y-104540275D01*
X151730372Y-104540274D01*
X151730375Y-104540274D01*
X151901705Y-104480323D01*
X152055399Y-104383750D01*
X152183750Y-104255399D01*
X152249980Y-104149996D01*
X173339403Y-104149996D01*
X173339403Y-104150003D01*
X173359724Y-104330369D01*
X173359725Y-104330374D01*
X173419677Y-104501706D01*
X173516249Y-104655398D01*
X173644601Y-104783750D01*
X173760223Y-104856401D01*
X173798295Y-104880323D01*
X173969625Y-104940274D01*
X173969630Y-104940275D01*
X174149996Y-104960597D01*
X174150000Y-104960597D01*
X174150004Y-104960597D01*
X174330369Y-104940275D01*
X174330372Y-104940274D01*
X174330375Y-104940274D01*
X174501705Y-104880323D01*
X174539777Y-104856401D01*
X174633556Y-104797475D01*
X174655399Y-104783750D01*
X174655399Y-104783749D01*
X174657816Y-104782231D01*
X174725053Y-104763230D01*
X174764740Y-104770182D01*
X174842735Y-104797474D01*
X174842739Y-104797474D01*
X174842743Y-104797475D01*
X175023106Y-104817797D01*
X175023110Y-104817797D01*
X175023114Y-104817797D01*
X175203479Y-104797475D01*
X175203482Y-104797474D01*
X175203485Y-104797474D01*
X175374815Y-104737523D01*
X175413493Y-104713220D01*
X175480729Y-104694219D01*
X175547565Y-104714586D01*
X175592779Y-104767853D01*
X175602686Y-104832095D01*
X175589403Y-104949994D01*
X175589403Y-104950003D01*
X175609724Y-105130369D01*
X175609725Y-105130374D01*
X175669677Y-105301706D01*
X175766249Y-105455398D01*
X175894601Y-105583750D01*
X176025896Y-105666249D01*
X176048295Y-105680323D01*
X176160762Y-105719677D01*
X176219625Y-105740274D01*
X176219630Y-105740275D01*
X176399996Y-105760597D01*
X176400000Y-105760597D01*
X176400004Y-105760597D01*
X176580369Y-105740275D01*
X176580372Y-105740274D01*
X176580375Y-105740274D01*
X176751705Y-105680323D01*
X176905399Y-105583750D01*
X177033750Y-105455399D01*
X177130323Y-105301705D01*
X177190274Y-105130375D01*
X177199522Y-105048295D01*
X177210597Y-104950003D01*
X177210597Y-104949996D01*
X177190275Y-104769630D01*
X177190274Y-104769625D01*
X177130322Y-104598292D01*
X177057880Y-104483003D01*
X177038879Y-104415766D01*
X177059246Y-104348931D01*
X177112514Y-104303716D01*
X177148986Y-104293810D01*
X177180375Y-104290274D01*
X177351705Y-104230323D01*
X177505399Y-104133750D01*
X177633750Y-104005399D01*
X177633753Y-104005393D01*
X177638041Y-104001106D01*
X177699364Y-103967621D01*
X177766674Y-103971745D01*
X177819625Y-103990274D01*
X177819629Y-103990274D01*
X177819633Y-103990275D01*
X177999996Y-104010597D01*
X178000000Y-104010597D01*
X178000004Y-104010597D01*
X178180369Y-103990275D01*
X178180372Y-103990274D01*
X178180375Y-103990274D01*
X178195450Y-103984999D01*
X178979341Y-103984999D01*
X178979341Y-103985000D01*
X178999936Y-104220403D01*
X178999938Y-104220413D01*
X179061094Y-104448655D01*
X179061096Y-104448659D01*
X179061097Y-104448663D01*
X179130872Y-104598295D01*
X179160965Y-104662830D01*
X179160967Y-104662834D01*
X179269281Y-104817521D01*
X179296501Y-104856396D01*
X179296506Y-104856402D01*
X179463597Y-105023493D01*
X179463603Y-105023498D01*
X179649158Y-105153425D01*
X179692783Y-105208002D01*
X179699977Y-105277500D01*
X179668454Y-105339855D01*
X179649158Y-105356575D01*
X179463597Y-105486505D01*
X179296505Y-105653597D01*
X179160965Y-105847169D01*
X179160964Y-105847171D01*
X179061098Y-106061335D01*
X179061094Y-106061344D01*
X178999938Y-106289586D01*
X178999936Y-106289596D01*
X178979341Y-106524999D01*
X178979341Y-106525000D01*
X178999936Y-106760403D01*
X178999938Y-106760413D01*
X179061094Y-106988655D01*
X179061096Y-106988659D01*
X179061097Y-106988663D01*
X179105437Y-107083750D01*
X179160965Y-107202830D01*
X179160967Y-107202834D01*
X179264012Y-107349996D01*
X179296505Y-107396401D01*
X179463599Y-107563495D01*
X179560384Y-107631265D01*
X179657165Y-107699032D01*
X179657167Y-107699033D01*
X179657170Y-107699035D01*
X179871337Y-107798903D01*
X180099592Y-107860063D01*
X180276034Y-107875500D01*
X180334999Y-107880659D01*
X180335000Y-107880659D01*
X180335001Y-107880659D01*
X180393966Y-107875500D01*
X180570408Y-107860063D01*
X180798663Y-107798903D01*
X181012830Y-107699035D01*
X181206401Y-107563495D01*
X181328329Y-107441566D01*
X181389648Y-107408084D01*
X181459340Y-107413068D01*
X181515274Y-107454939D01*
X181532189Y-107485917D01*
X181581202Y-107617328D01*
X181581206Y-107617335D01*
X181667452Y-107732544D01*
X181667455Y-107732547D01*
X181782664Y-107818793D01*
X181782671Y-107818797D01*
X181917517Y-107869091D01*
X181917516Y-107869091D01*
X181924444Y-107869835D01*
X181977127Y-107875500D01*
X183772872Y-107875499D01*
X183832483Y-107869091D01*
X183967331Y-107818796D01*
X184082546Y-107732546D01*
X184168796Y-107617331D01*
X184219091Y-107482483D01*
X184225500Y-107422873D01*
X184225499Y-105627128D01*
X184219091Y-105567517D01*
X184218618Y-105566250D01*
X184168797Y-105432671D01*
X184168793Y-105432664D01*
X184082547Y-105317455D01*
X184082544Y-105317452D01*
X183967335Y-105231206D01*
X183967328Y-105231202D01*
X183835917Y-105182189D01*
X183779983Y-105140318D01*
X183755566Y-105074853D01*
X183770418Y-105006580D01*
X183791563Y-104978332D01*
X183913495Y-104856401D01*
X184049035Y-104662830D01*
X184148903Y-104448663D01*
X184210063Y-104220408D01*
X184230659Y-103985000D01*
X184229138Y-103967621D01*
X184223392Y-103901943D01*
X184210063Y-103749592D01*
X184148903Y-103521337D01*
X184049035Y-103307171D01*
X184043425Y-103299158D01*
X183913494Y-103113597D01*
X183746402Y-102946506D01*
X183746395Y-102946501D01*
X183552834Y-102810967D01*
X183552830Y-102810965D01*
X183517737Y-102794601D01*
X183338663Y-102711097D01*
X183338659Y-102711096D01*
X183338655Y-102711094D01*
X183110413Y-102649938D01*
X183110403Y-102649936D01*
X182875001Y-102629341D01*
X182874999Y-102629341D01*
X182639596Y-102649936D01*
X182639586Y-102649938D01*
X182411344Y-102711094D01*
X182411335Y-102711098D01*
X182197171Y-102810964D01*
X182197169Y-102810965D01*
X182003597Y-102946505D01*
X181836505Y-103113597D01*
X181706575Y-103299158D01*
X181651998Y-103342783D01*
X181582500Y-103349977D01*
X181520145Y-103318454D01*
X181503425Y-103299158D01*
X181373494Y-103113597D01*
X181206402Y-102946506D01*
X181206395Y-102946501D01*
X181012834Y-102810967D01*
X181012830Y-102810965D01*
X180977737Y-102794601D01*
X180798663Y-102711097D01*
X180798659Y-102711096D01*
X180798655Y-102711094D01*
X180570413Y-102649938D01*
X180570403Y-102649936D01*
X180335001Y-102629341D01*
X180334999Y-102629341D01*
X180099596Y-102649936D01*
X180099586Y-102649938D01*
X179871344Y-102711094D01*
X179871335Y-102711098D01*
X179657171Y-102810964D01*
X179657169Y-102810965D01*
X179463597Y-102946505D01*
X179296505Y-103113597D01*
X179160965Y-103307169D01*
X179160964Y-103307171D01*
X179061098Y-103521335D01*
X179061094Y-103521344D01*
X178999938Y-103749586D01*
X178999936Y-103749596D01*
X178979341Y-103984999D01*
X178195450Y-103984999D01*
X178351705Y-103930323D01*
X178505399Y-103833750D01*
X178633750Y-103705399D01*
X178730323Y-103551705D01*
X178790274Y-103380375D01*
X178790280Y-103380322D01*
X178810597Y-103200003D01*
X178810597Y-103199996D01*
X178790275Y-103019630D01*
X178790274Y-103019625D01*
X178784004Y-103001706D01*
X178730323Y-102848295D01*
X178719064Y-102830377D01*
X178633750Y-102694601D01*
X178505398Y-102566249D01*
X178351706Y-102469677D01*
X178180374Y-102409725D01*
X178180369Y-102409724D01*
X178000004Y-102389403D01*
X177999996Y-102389403D01*
X177819630Y-102409724D01*
X177819625Y-102409725D01*
X177648293Y-102469677D01*
X177494604Y-102566247D01*
X177361958Y-102698893D01*
X177300635Y-102732377D01*
X177233323Y-102728253D01*
X177184293Y-102711097D01*
X177180375Y-102709726D01*
X177180374Y-102709725D01*
X177180372Y-102709725D01*
X177000004Y-102689403D01*
X176999996Y-102689403D01*
X176819630Y-102709724D01*
X176819617Y-102709727D01*
X176648296Y-102769675D01*
X176595311Y-102802968D01*
X176528074Y-102821968D01*
X176488385Y-102815016D01*
X176330374Y-102759725D01*
X176330369Y-102759724D01*
X176150004Y-102739403D01*
X176149996Y-102739403D01*
X175969630Y-102759724D01*
X175969625Y-102759725D01*
X175798293Y-102819677D01*
X175644601Y-102916249D01*
X175516248Y-103044602D01*
X175516247Y-103044604D01*
X175423724Y-103191852D01*
X175371390Y-103238142D01*
X175302336Y-103248790D01*
X175277777Y-103242921D01*
X175203487Y-103216926D01*
X175203479Y-103216924D01*
X175023114Y-103196603D01*
X175023106Y-103196603D01*
X174842740Y-103216924D01*
X174842735Y-103216925D01*
X174671403Y-103276877D01*
X174515294Y-103374968D01*
X174448057Y-103393968D01*
X174408368Y-103387016D01*
X174330377Y-103359726D01*
X174330369Y-103359724D01*
X174150004Y-103339403D01*
X174149996Y-103339403D01*
X173969630Y-103359724D01*
X173969625Y-103359725D01*
X173798293Y-103419677D01*
X173644601Y-103516249D01*
X173516249Y-103644601D01*
X173419677Y-103798293D01*
X173359725Y-103969625D01*
X173359724Y-103969630D01*
X173339403Y-104149996D01*
X152249980Y-104149996D01*
X152280323Y-104101705D01*
X152340274Y-103930375D01*
X152342877Y-103907274D01*
X152360597Y-103750003D01*
X152360597Y-103749996D01*
X152340275Y-103569630D01*
X152340273Y-103569622D01*
X152313781Y-103493911D01*
X152310220Y-103424133D01*
X152344949Y-103363505D01*
X152406942Y-103331278D01*
X152476518Y-103337683D01*
X152496796Y-103347964D01*
X152548292Y-103380322D01*
X152719625Y-103440274D01*
X152719630Y-103440275D01*
X152899996Y-103460597D01*
X152900000Y-103460597D01*
X152900004Y-103460597D01*
X153080369Y-103440275D01*
X153080372Y-103440274D01*
X153080375Y-103440274D01*
X153251705Y-103380323D01*
X153405399Y-103283750D01*
X153533750Y-103155399D01*
X153630323Y-103001705D01*
X153690274Y-102830375D01*
X153690275Y-102830369D01*
X153710597Y-102650003D01*
X153710597Y-102649996D01*
X153690275Y-102469630D01*
X153690274Y-102469625D01*
X153641530Y-102330323D01*
X153630323Y-102298295D01*
X153589766Y-102233750D01*
X153533750Y-102144601D01*
X153497145Y-102107996D01*
X166448403Y-102107996D01*
X166448403Y-102108003D01*
X166468724Y-102288369D01*
X166468725Y-102288374D01*
X166528677Y-102459706D01*
X166625249Y-102613398D01*
X166753601Y-102741750D01*
X166863753Y-102810964D01*
X166907295Y-102838323D01*
X167077396Y-102897844D01*
X167078625Y-102898274D01*
X167078630Y-102898275D01*
X167258996Y-102918597D01*
X167259000Y-102918597D01*
X167259004Y-102918597D01*
X167439369Y-102898275D01*
X167439372Y-102898274D01*
X167439375Y-102898274D01*
X167610705Y-102838323D01*
X167764399Y-102741750D01*
X167892750Y-102613399D01*
X167989323Y-102459705D01*
X168049274Y-102288375D01*
X168059231Y-102200003D01*
X168069597Y-102108003D01*
X168069597Y-102107996D01*
X168049275Y-101927630D01*
X168049274Y-101927625D01*
X168021515Y-101848295D01*
X167989323Y-101756295D01*
X167952800Y-101698170D01*
X167892750Y-101602601D01*
X167764398Y-101474249D01*
X167610706Y-101377677D01*
X167439374Y-101317725D01*
X167439369Y-101317724D01*
X167259004Y-101297403D01*
X167258996Y-101297403D01*
X167078630Y-101317724D01*
X167078625Y-101317725D01*
X166907293Y-101377677D01*
X166753601Y-101474249D01*
X166625249Y-101602601D01*
X166528677Y-101756293D01*
X166468725Y-101927625D01*
X166468724Y-101927630D01*
X166448403Y-102107996D01*
X153497145Y-102107996D01*
X153405398Y-102016249D01*
X153251706Y-101919677D01*
X153080374Y-101859725D01*
X153080369Y-101859724D01*
X152900004Y-101839403D01*
X152899996Y-101839403D01*
X152719630Y-101859724D01*
X152719625Y-101859725D01*
X152548293Y-101919677D01*
X152394601Y-102016249D01*
X152266249Y-102144601D01*
X152169677Y-102298293D01*
X152109725Y-102469625D01*
X152109724Y-102469630D01*
X152089403Y-102649996D01*
X152089403Y-102650003D01*
X152109724Y-102830369D01*
X152109726Y-102830377D01*
X152136218Y-102906088D01*
X152139779Y-102975867D01*
X152105050Y-103036494D01*
X152043056Y-103068721D01*
X151973481Y-103062315D01*
X151953204Y-103052036D01*
X151901705Y-103019677D01*
X151730374Y-102959725D01*
X151730369Y-102959724D01*
X151550004Y-102939403D01*
X151549996Y-102939403D01*
X151369630Y-102959724D01*
X151369625Y-102959725D01*
X151198292Y-103019677D01*
X151159438Y-103044091D01*
X151092201Y-103063090D01*
X151025367Y-103042721D01*
X150980153Y-102989453D01*
X150976426Y-102980050D01*
X150965314Y-102948295D01*
X150930323Y-102848295D01*
X150833750Y-102694601D01*
X150705399Y-102566250D01*
X150705398Y-102566249D01*
X150551706Y-102469677D01*
X150380374Y-102409725D01*
X150380369Y-102409724D01*
X150200004Y-102389403D01*
X150199996Y-102389403D01*
X150019630Y-102409724D01*
X150019625Y-102409725D01*
X149848293Y-102469677D01*
X149694601Y-102566249D01*
X149566249Y-102694601D01*
X149469677Y-102848293D01*
X149409725Y-103019625D01*
X149409724Y-103019630D01*
X149389403Y-103199996D01*
X138730918Y-103199996D01*
X138730323Y-103198295D01*
X138703369Y-103155399D01*
X138633750Y-103044601D01*
X138505398Y-102916249D01*
X138351706Y-102819677D01*
X138180374Y-102759725D01*
X138180369Y-102759724D01*
X138000004Y-102739403D01*
X137999996Y-102739403D01*
X137819630Y-102759724D01*
X137819625Y-102759725D01*
X137648293Y-102819677D01*
X137494603Y-102916248D01*
X137491292Y-102919559D01*
X137429967Y-102953040D01*
X137360275Y-102948051D01*
X137304344Y-102906176D01*
X137298622Y-102897844D01*
X137262735Y-102840731D01*
X137233750Y-102794601D01*
X137105399Y-102666250D01*
X137105398Y-102666249D01*
X136951706Y-102569677D01*
X136780374Y-102509725D01*
X136780369Y-102509724D01*
X136600004Y-102489403D01*
X136599996Y-102489403D01*
X136419630Y-102509724D01*
X136419625Y-102509725D01*
X136248293Y-102569677D01*
X136094601Y-102666249D01*
X135966249Y-102794601D01*
X135869677Y-102948293D01*
X135809725Y-103119625D01*
X135809724Y-103119630D01*
X135789403Y-103299996D01*
X134379544Y-103299996D01*
X134405399Y-103283750D01*
X134533750Y-103155399D01*
X134630323Y-103001705D01*
X134690274Y-102830375D01*
X134690275Y-102830369D01*
X134710597Y-102650003D01*
X134710597Y-102649996D01*
X134690275Y-102469630D01*
X134690274Y-102469625D01*
X134641530Y-102330323D01*
X134630323Y-102298295D01*
X134589766Y-102233750D01*
X134533750Y-102144601D01*
X134405398Y-102016249D01*
X134251706Y-101919677D01*
X134080374Y-101859725D01*
X134080369Y-101859724D01*
X133900004Y-101839403D01*
X133899996Y-101839403D01*
X133719630Y-101859724D01*
X133719625Y-101859725D01*
X133548293Y-101919677D01*
X133394601Y-102016249D01*
X133266249Y-102144601D01*
X133169677Y-102298293D01*
X133109725Y-102469625D01*
X133109724Y-102469630D01*
X133089403Y-102649996D01*
X84500000Y-102649996D01*
X84500000Y-101599996D01*
X141789403Y-101599996D01*
X141789403Y-101600003D01*
X141809724Y-101780369D01*
X141809725Y-101780374D01*
X141869677Y-101951706D01*
X141966249Y-102105398D01*
X142094601Y-102233750D01*
X142181535Y-102288375D01*
X142248295Y-102330323D01*
X142391335Y-102380375D01*
X142419625Y-102390274D01*
X142419630Y-102390275D01*
X142599996Y-102410597D01*
X142600000Y-102410597D01*
X142600004Y-102410597D01*
X142780369Y-102390275D01*
X142780372Y-102390274D01*
X142780375Y-102390274D01*
X142951705Y-102330323D01*
X143105399Y-102233750D01*
X143139153Y-102199996D01*
X144189403Y-102199996D01*
X144189403Y-102200003D01*
X144209724Y-102380369D01*
X144209725Y-102380374D01*
X144269677Y-102551706D01*
X144366249Y-102705398D01*
X144494601Y-102833750D01*
X144625896Y-102916249D01*
X144648295Y-102930323D01*
X144732321Y-102959725D01*
X144819625Y-102990274D01*
X144819630Y-102990275D01*
X144999996Y-103010597D01*
X145000000Y-103010597D01*
X145000004Y-103010597D01*
X145180369Y-102990275D01*
X145180372Y-102990274D01*
X145180375Y-102990274D01*
X145351705Y-102930323D01*
X145505399Y-102833750D01*
X145633750Y-102705399D01*
X145633750Y-102705398D01*
X145637319Y-102701830D01*
X145698642Y-102668345D01*
X145768334Y-102673329D01*
X145812681Y-102701830D01*
X145944601Y-102833750D01*
X146075896Y-102916249D01*
X146098295Y-102930323D01*
X146182321Y-102959725D01*
X146269625Y-102990274D01*
X146269630Y-102990275D01*
X146449996Y-103010597D01*
X146450000Y-103010597D01*
X146450004Y-103010597D01*
X146630369Y-102990275D01*
X146630372Y-102990274D01*
X146630375Y-102990274D01*
X146801705Y-102930323D01*
X146955399Y-102833750D01*
X147083750Y-102705399D01*
X147180323Y-102551705D01*
X147240274Y-102380375D01*
X147240275Y-102380369D01*
X147260597Y-102200003D01*
X147260597Y-102199996D01*
X147240275Y-102019630D01*
X147240274Y-102019625D01*
X147216508Y-101951705D01*
X147180323Y-101848295D01*
X147137612Y-101780322D01*
X147083750Y-101694601D01*
X146955398Y-101566249D01*
X146801706Y-101469677D01*
X146630374Y-101409725D01*
X146630369Y-101409724D01*
X146450004Y-101389403D01*
X146449996Y-101389403D01*
X146269630Y-101409724D01*
X146269625Y-101409725D01*
X146098293Y-101469677D01*
X145944601Y-101566249D01*
X145812681Y-101698170D01*
X145751358Y-101731655D01*
X145681666Y-101726671D01*
X145637319Y-101698170D01*
X145505398Y-101566249D01*
X145351706Y-101469677D01*
X145180374Y-101409725D01*
X145180369Y-101409724D01*
X145000004Y-101389403D01*
X144999996Y-101389403D01*
X144819630Y-101409724D01*
X144819625Y-101409725D01*
X144648293Y-101469677D01*
X144494601Y-101566249D01*
X144366249Y-101694601D01*
X144269677Y-101848293D01*
X144209725Y-102019625D01*
X144209724Y-102019630D01*
X144189403Y-102199996D01*
X143139153Y-102199996D01*
X143233750Y-102105399D01*
X143330323Y-101951705D01*
X143390274Y-101780375D01*
X143392987Y-101756295D01*
X143410597Y-101600003D01*
X143410597Y-101599996D01*
X143390275Y-101419630D01*
X143390274Y-101419625D01*
X143384004Y-101401706D01*
X143330323Y-101248295D01*
X143319062Y-101230374D01*
X143233750Y-101094601D01*
X143189145Y-101049996D01*
X147239403Y-101049996D01*
X147239403Y-101050003D01*
X147259724Y-101230369D01*
X147259725Y-101230374D01*
X147319677Y-101401706D01*
X147416249Y-101555398D01*
X147544601Y-101683750D01*
X147660051Y-101756293D01*
X147698295Y-101780323D01*
X147698444Y-101780375D01*
X147869625Y-101840274D01*
X147869630Y-101840275D01*
X148049996Y-101860597D01*
X148050000Y-101860597D01*
X148050004Y-101860597D01*
X148230369Y-101840275D01*
X148230372Y-101840274D01*
X148230375Y-101840274D01*
X148401705Y-101780323D01*
X148555399Y-101683750D01*
X148683750Y-101555399D01*
X148780323Y-101401705D01*
X148840274Y-101230375D01*
X148854355Y-101105399D01*
X148860597Y-101050003D01*
X148860597Y-101049996D01*
X148840275Y-100869630D01*
X148840274Y-100869625D01*
X148780322Y-100698293D01*
X148683750Y-100544601D01*
X148555398Y-100416249D01*
X148401706Y-100319677D01*
X148230374Y-100259725D01*
X148230369Y-100259724D01*
X148050004Y-100239403D01*
X148049996Y-100239403D01*
X147869630Y-100259724D01*
X147869625Y-100259725D01*
X147698293Y-100319677D01*
X147544601Y-100416249D01*
X147416249Y-100544601D01*
X147319677Y-100698293D01*
X147259725Y-100869625D01*
X147259724Y-100869630D01*
X147239403Y-101049996D01*
X143189145Y-101049996D01*
X143105398Y-100966249D01*
X142951706Y-100869677D01*
X142780374Y-100809725D01*
X142780369Y-100809724D01*
X142600004Y-100789403D01*
X142599996Y-100789403D01*
X142419630Y-100809724D01*
X142419625Y-100809725D01*
X142248293Y-100869677D01*
X142094601Y-100966249D01*
X141966249Y-101094601D01*
X141869677Y-101248293D01*
X141809725Y-101419625D01*
X141809724Y-101419630D01*
X141789403Y-101599996D01*
X84500000Y-101599996D01*
X84500000Y-97749996D01*
X110039403Y-97749996D01*
X110039403Y-97750003D01*
X110059724Y-97930369D01*
X110059725Y-97930374D01*
X110119677Y-98101706D01*
X110212859Y-98250003D01*
X110216250Y-98255399D01*
X110344601Y-98383750D01*
X110370097Y-98399770D01*
X110416387Y-98452103D01*
X110427037Y-98521157D01*
X110409119Y-98570736D01*
X110344677Y-98673293D01*
X110284725Y-98844625D01*
X110284724Y-98844630D01*
X110264403Y-99024996D01*
X110264403Y-99025003D01*
X110284724Y-99205369D01*
X110284725Y-99205374D01*
X110344677Y-99376706D01*
X110441249Y-99530398D01*
X110569601Y-99658750D01*
X110683590Y-99730375D01*
X110723295Y-99755323D01*
X110832396Y-99793499D01*
X110894625Y-99815274D01*
X110894630Y-99815275D01*
X111074996Y-99835597D01*
X111075000Y-99835597D01*
X111075004Y-99835597D01*
X111255369Y-99815275D01*
X111255372Y-99815274D01*
X111255375Y-99815274D01*
X111426705Y-99755323D01*
X111580399Y-99658750D01*
X111589153Y-99649996D01*
X141789403Y-99649996D01*
X141789403Y-99650003D01*
X141809724Y-99830369D01*
X141809725Y-99830374D01*
X141869677Y-100001706D01*
X141966249Y-100155398D01*
X142094601Y-100283750D01*
X142189989Y-100343687D01*
X142248295Y-100380323D01*
X142360591Y-100419617D01*
X142419625Y-100440274D01*
X142419630Y-100440275D01*
X142599996Y-100460597D01*
X142600000Y-100460597D01*
X142600004Y-100460597D01*
X142780369Y-100440275D01*
X142780372Y-100440274D01*
X142780375Y-100440274D01*
X142951705Y-100380323D01*
X143105399Y-100283750D01*
X143233750Y-100155399D01*
X143330323Y-100001705D01*
X143386827Y-99840226D01*
X143427549Y-99783449D01*
X143492502Y-99757702D01*
X143561063Y-99771158D01*
X143591550Y-99793499D01*
X143694601Y-99896550D01*
X143842374Y-99989403D01*
X143848295Y-99993123D01*
X143971616Y-100036275D01*
X144019625Y-100053074D01*
X144019630Y-100053075D01*
X144102273Y-100062386D01*
X144155217Y-100068351D01*
X144219632Y-100095417D01*
X144259187Y-100153011D01*
X144264555Y-100177687D01*
X144276124Y-100280370D01*
X144276125Y-100280374D01*
X144336077Y-100451706D01*
X144432649Y-100605398D01*
X144561001Y-100733750D01*
X144681913Y-100809725D01*
X144714695Y-100830323D01*
X144827014Y-100869625D01*
X144886025Y-100890274D01*
X144886030Y-100890275D01*
X145066396Y-100910597D01*
X145066400Y-100910597D01*
X145066404Y-100910597D01*
X145246769Y-100890275D01*
X145246772Y-100890274D01*
X145246775Y-100890274D01*
X145418105Y-100830323D01*
X145571799Y-100733750D01*
X145700150Y-100605399D01*
X145796723Y-100451705D01*
X145856674Y-100280375D01*
X145859001Y-100259724D01*
X145876997Y-100100003D01*
X145876997Y-100099996D01*
X145856675Y-99919630D01*
X145856674Y-99919625D01*
X145850404Y-99901706D01*
X145796723Y-99748295D01*
X145785462Y-99730374D01*
X145700150Y-99594601D01*
X145571798Y-99466249D01*
X145418106Y-99369677D01*
X145246774Y-99309725D01*
X145246769Y-99309724D01*
X145111181Y-99294448D01*
X145046767Y-99267382D01*
X145007212Y-99209787D01*
X145001844Y-99185111D01*
X144990275Y-99082430D01*
X144990274Y-99082425D01*
X144978960Y-99050091D01*
X144930323Y-98911095D01*
X144898045Y-98859726D01*
X144860514Y-98799996D01*
X152139403Y-98799996D01*
X152139403Y-98800003D01*
X152159724Y-98980369D01*
X152159725Y-98980374D01*
X152219677Y-99151706D01*
X152316249Y-99305398D01*
X152444601Y-99433750D01*
X152555719Y-99503571D01*
X152598295Y-99530323D01*
X152769625Y-99590274D01*
X152769630Y-99590275D01*
X152949996Y-99610597D01*
X152950000Y-99610597D01*
X152950004Y-99610597D01*
X153130369Y-99590275D01*
X153130372Y-99590274D01*
X153130375Y-99590274D01*
X153301705Y-99530323D01*
X153455399Y-99433750D01*
X153583750Y-99305399D01*
X153680323Y-99151705D01*
X153688562Y-99128159D01*
X153729283Y-99071382D01*
X153794235Y-99045634D01*
X153819486Y-99045891D01*
X153850494Y-99049385D01*
X153949997Y-99060597D01*
X153950000Y-99060597D01*
X153950004Y-99060597D01*
X154130369Y-99040275D01*
X154130372Y-99040274D01*
X154130375Y-99040274D01*
X154301705Y-98980323D01*
X154455399Y-98883750D01*
X154583750Y-98755399D01*
X154680323Y-98601705D01*
X154740274Y-98430375D01*
X154742728Y-98408597D01*
X154760597Y-98250003D01*
X154760597Y-98249996D01*
X154740275Y-98069630D01*
X154740274Y-98069625D01*
X154719314Y-98009724D01*
X154680323Y-97898295D01*
X154680320Y-97898291D01*
X154583750Y-97744601D01*
X154455398Y-97616249D01*
X154301706Y-97519677D01*
X154130374Y-97459725D01*
X154130369Y-97459724D01*
X154044025Y-97449996D01*
X159739403Y-97449996D01*
X159739403Y-97450003D01*
X159759724Y-97630369D01*
X159759725Y-97630374D01*
X159819677Y-97801706D01*
X159916249Y-97955398D01*
X160044601Y-98083750D01*
X160181329Y-98169663D01*
X160198295Y-98180323D01*
X160266709Y-98204262D01*
X160369625Y-98240274D01*
X160369630Y-98240275D01*
X160549996Y-98260597D01*
X160550000Y-98260597D01*
X160550004Y-98260597D01*
X160644092Y-98249996D01*
X161739403Y-98249996D01*
X161739403Y-98250003D01*
X161759724Y-98430369D01*
X161759725Y-98430374D01*
X161819677Y-98601706D01*
X161916249Y-98755398D01*
X162044601Y-98883750D01*
X162197629Y-98979905D01*
X162198295Y-98980323D01*
X162369625Y-99040274D01*
X162395834Y-99043227D01*
X162460247Y-99070292D01*
X162499804Y-99127885D01*
X162501943Y-99197722D01*
X162498994Y-99207401D01*
X162459726Y-99319622D01*
X162459724Y-99319630D01*
X162439403Y-99499996D01*
X162439403Y-99500003D01*
X162459724Y-99680369D01*
X162459725Y-99680374D01*
X162519677Y-99851706D01*
X162616249Y-100005398D01*
X162703571Y-100092720D01*
X162737056Y-100154043D01*
X162732072Y-100223735D01*
X162720890Y-100246363D01*
X162719677Y-100248293D01*
X162719676Y-100248295D01*
X162659727Y-100419617D01*
X162659724Y-100419630D01*
X162639403Y-100599996D01*
X162639403Y-100600003D01*
X162659724Y-100780369D01*
X162659725Y-100780374D01*
X162719677Y-100951706D01*
X162816249Y-101105398D01*
X162944601Y-101233750D01*
X163078245Y-101317725D01*
X163098295Y-101330323D01*
X163233625Y-101377677D01*
X163269625Y-101390274D01*
X163269630Y-101390275D01*
X163449996Y-101410597D01*
X163450000Y-101410597D01*
X163450004Y-101410597D01*
X163630369Y-101390275D01*
X163630372Y-101390274D01*
X163630375Y-101390274D01*
X163801705Y-101330323D01*
X163955399Y-101233750D01*
X164083750Y-101105399D01*
X164180323Y-100951705D01*
X164233408Y-100799996D01*
X171989403Y-100799996D01*
X171989403Y-100800003D01*
X172009724Y-100980369D01*
X172009725Y-100980374D01*
X172069677Y-101151706D01*
X172166249Y-101305398D01*
X172166250Y-101305399D01*
X172294601Y-101433750D01*
X172448295Y-101530323D01*
X172619625Y-101590274D01*
X172619630Y-101590275D01*
X172799996Y-101610597D01*
X172800000Y-101610597D01*
X172800004Y-101610597D01*
X172980369Y-101590275D01*
X172980372Y-101590274D01*
X172980375Y-101590274D01*
X173151705Y-101530323D01*
X173305399Y-101433750D01*
X173412319Y-101326830D01*
X173473642Y-101293345D01*
X173543334Y-101298329D01*
X173587681Y-101326830D01*
X173694601Y-101433750D01*
X173848295Y-101530323D01*
X174019625Y-101590274D01*
X174019630Y-101590275D01*
X174199996Y-101610597D01*
X174200000Y-101610597D01*
X174200004Y-101610597D01*
X174380369Y-101590275D01*
X174380372Y-101590274D01*
X174380375Y-101590274D01*
X174551705Y-101530323D01*
X174705399Y-101433750D01*
X174833750Y-101305399D01*
X174930323Y-101151705D01*
X174952193Y-101089203D01*
X174992912Y-101032429D01*
X175057865Y-101006680D01*
X175110185Y-101013116D01*
X175141769Y-101024168D01*
X175141773Y-101024168D01*
X175141777Y-101024169D01*
X175322140Y-101044491D01*
X175322144Y-101044491D01*
X175322148Y-101044491D01*
X175502513Y-101024169D01*
X175502516Y-101024168D01*
X175502519Y-101024168D01*
X175673849Y-100964217D01*
X175827543Y-100867644D01*
X175955894Y-100739293D01*
X176052467Y-100585599D01*
X176110491Y-100419775D01*
X176151212Y-100363001D01*
X176191857Y-100343687D01*
X176191468Y-100342574D01*
X176198041Y-100340274D01*
X176369371Y-100280323D01*
X176523065Y-100183750D01*
X176651416Y-100055399D01*
X176747989Y-99901705D01*
X176807940Y-99730375D01*
X176811170Y-99701706D01*
X176828263Y-99550003D01*
X176828263Y-99549996D01*
X176807941Y-99369630D01*
X176807940Y-99369625D01*
X176801073Y-99350000D01*
X176747989Y-99198295D01*
X176729977Y-99169630D01*
X176651416Y-99044601D01*
X176523064Y-98916249D01*
X176369372Y-98819677D01*
X176198040Y-98759725D01*
X176198035Y-98759724D01*
X176017670Y-98739403D01*
X176017662Y-98739403D01*
X175837296Y-98759724D01*
X175837291Y-98759725D01*
X175665959Y-98819677D01*
X175512267Y-98916249D01*
X175383915Y-99044601D01*
X175287342Y-99198295D01*
X175244889Y-99319622D01*
X175234261Y-99349996D01*
X175229320Y-99364116D01*
X175188598Y-99420892D01*
X175147953Y-99440214D01*
X175148341Y-99441321D01*
X175141771Y-99443619D01*
X175141769Y-99443620D01*
X175078665Y-99465701D01*
X174970439Y-99503570D01*
X174816745Y-99600143D01*
X174688393Y-99728495D01*
X174591819Y-99882191D01*
X174569950Y-99944689D01*
X174529228Y-100001465D01*
X174464276Y-100027212D01*
X174411955Y-100020776D01*
X174380372Y-100009725D01*
X174200004Y-99989403D01*
X174199996Y-99989403D01*
X174019630Y-100009724D01*
X174019625Y-100009725D01*
X173848293Y-100069677D01*
X173694601Y-100166249D01*
X173587681Y-100273170D01*
X173526358Y-100306655D01*
X173456666Y-100301671D01*
X173412319Y-100273170D01*
X173305398Y-100166249D01*
X173151706Y-100069677D01*
X172980374Y-100009725D01*
X172980369Y-100009724D01*
X172800004Y-99989403D01*
X172799996Y-99989403D01*
X172619630Y-100009724D01*
X172619625Y-100009725D01*
X172448293Y-100069677D01*
X172294601Y-100166249D01*
X172166249Y-100294601D01*
X172069677Y-100448293D01*
X172009725Y-100619625D01*
X172009724Y-100619630D01*
X171989403Y-100799996D01*
X164233408Y-100799996D01*
X164240274Y-100780375D01*
X164244903Y-100739292D01*
X164260597Y-100600003D01*
X164260597Y-100599996D01*
X164240275Y-100419630D01*
X164240274Y-100419625D01*
X164180322Y-100248292D01*
X164152766Y-100204438D01*
X164133765Y-100137201D01*
X164154132Y-100070366D01*
X164207400Y-100025151D01*
X164276656Y-100015913D01*
X164323732Y-100033472D01*
X164398292Y-100080322D01*
X164569625Y-100140274D01*
X164569630Y-100140275D01*
X164749996Y-100160597D01*
X164750000Y-100160597D01*
X164750004Y-100160597D01*
X164930369Y-100140275D01*
X164930372Y-100140274D01*
X164930375Y-100140274D01*
X165101705Y-100080323D01*
X165255399Y-99983750D01*
X165383750Y-99855399D01*
X165480323Y-99701705D01*
X165540274Y-99530375D01*
X165543696Y-99500003D01*
X165560597Y-99350003D01*
X165560597Y-99349996D01*
X165548879Y-99245996D01*
X166143403Y-99245996D01*
X166143403Y-99246003D01*
X166163724Y-99426369D01*
X166163725Y-99426374D01*
X166223677Y-99597706D01*
X166320249Y-99751398D01*
X166448601Y-99879750D01*
X166483543Y-99901706D01*
X166602295Y-99976323D01*
X166741837Y-100025151D01*
X166773625Y-100036274D01*
X166773630Y-100036275D01*
X166953996Y-100056597D01*
X166954000Y-100056597D01*
X166954004Y-100056597D01*
X167134369Y-100036275D01*
X167134372Y-100036274D01*
X167134375Y-100036274D01*
X167305705Y-99976323D01*
X167459399Y-99879750D01*
X167587750Y-99751399D01*
X167684323Y-99597705D01*
X167744274Y-99426375D01*
X167744892Y-99420892D01*
X167764597Y-99246003D01*
X167764597Y-99245996D01*
X167744275Y-99065630D01*
X167744274Y-99065625D01*
X167726997Y-99016250D01*
X167684323Y-98894295D01*
X167662600Y-98859724D01*
X167587750Y-98740601D01*
X167459398Y-98612249D01*
X167305706Y-98515677D01*
X167134374Y-98455725D01*
X167134369Y-98455724D01*
X166954004Y-98435403D01*
X166953996Y-98435403D01*
X166773630Y-98455724D01*
X166773625Y-98455725D01*
X166602293Y-98515677D01*
X166448601Y-98612249D01*
X166320249Y-98740601D01*
X166223677Y-98894293D01*
X166163725Y-99065625D01*
X166163724Y-99065630D01*
X166143403Y-99245996D01*
X165548879Y-99245996D01*
X165540275Y-99169630D01*
X165540274Y-99169625D01*
X165534004Y-99151706D01*
X165480323Y-98998295D01*
X165469062Y-98980374D01*
X165383750Y-98844601D01*
X165261152Y-98722003D01*
X165227667Y-98660680D01*
X165232651Y-98590988D01*
X165274523Y-98535055D01*
X165282856Y-98529331D01*
X165325266Y-98502684D01*
X165355395Y-98483753D01*
X165355396Y-98483751D01*
X165355399Y-98483750D01*
X165483750Y-98355399D01*
X165580323Y-98201705D01*
X165640274Y-98030375D01*
X165640275Y-98030369D01*
X165660597Y-97850003D01*
X165660597Y-97849996D01*
X165640275Y-97669630D01*
X165640274Y-97669625D01*
X165605282Y-97569625D01*
X165580323Y-97498295D01*
X165562918Y-97470596D01*
X165518557Y-97399996D01*
X171139403Y-97399996D01*
X171139403Y-97400003D01*
X171159724Y-97580369D01*
X171159725Y-97580374D01*
X171219677Y-97751706D01*
X171316249Y-97905398D01*
X171444601Y-98033750D01*
X171589027Y-98124500D01*
X171598295Y-98130323D01*
X171710722Y-98169663D01*
X171769625Y-98190274D01*
X171769630Y-98190275D01*
X171949996Y-98210597D01*
X171950000Y-98210597D01*
X171950004Y-98210597D01*
X172130369Y-98190275D01*
X172130372Y-98190274D01*
X172130375Y-98190274D01*
X172301705Y-98130323D01*
X172455399Y-98033750D01*
X172583750Y-97905399D01*
X172680323Y-97751705D01*
X172740274Y-97580375D01*
X172741485Y-97569630D01*
X172760597Y-97400003D01*
X172760597Y-97399996D01*
X172740275Y-97219630D01*
X172740274Y-97219625D01*
X172739093Y-97216249D01*
X172680323Y-97048295D01*
X172655885Y-97009403D01*
X172583750Y-96894601D01*
X172455398Y-96766249D01*
X172301706Y-96669677D01*
X172130374Y-96609725D01*
X172130369Y-96609724D01*
X171950004Y-96589403D01*
X171949996Y-96589403D01*
X171769630Y-96609724D01*
X171769625Y-96609725D01*
X171598293Y-96669677D01*
X171444601Y-96766249D01*
X171316249Y-96894601D01*
X171219677Y-97048293D01*
X171159725Y-97219625D01*
X171159724Y-97219630D01*
X171139403Y-97399996D01*
X165518557Y-97399996D01*
X165483750Y-97344601D01*
X165355398Y-97216249D01*
X165201706Y-97119677D01*
X165030374Y-97059725D01*
X165030369Y-97059724D01*
X164850004Y-97039403D01*
X164849996Y-97039403D01*
X164669630Y-97059724D01*
X164669625Y-97059725D01*
X164498293Y-97119677D01*
X164344601Y-97216249D01*
X164216249Y-97344601D01*
X164119676Y-97498295D01*
X164059724Y-97669630D01*
X164058507Y-97680437D01*
X164031440Y-97744851D01*
X164001260Y-97771546D01*
X163846274Y-97868931D01*
X163846272Y-97868932D01*
X163717919Y-97997285D01*
X163621345Y-98150980D01*
X163595101Y-98225981D01*
X163554379Y-98282756D01*
X163489426Y-98308503D01*
X163420864Y-98295046D01*
X163370462Y-98246658D01*
X163354840Y-98198907D01*
X163353867Y-98190275D01*
X163344717Y-98109061D01*
X163340275Y-98069630D01*
X163340274Y-98069625D01*
X163319314Y-98009724D01*
X163280323Y-97898295D01*
X163280320Y-97898291D01*
X163183750Y-97744601D01*
X163055398Y-97616249D01*
X162901706Y-97519677D01*
X162730374Y-97459725D01*
X162730369Y-97459724D01*
X162550004Y-97439403D01*
X162549996Y-97439403D01*
X162369630Y-97459724D01*
X162369625Y-97459725D01*
X162198293Y-97519677D01*
X162044601Y-97616249D01*
X161916249Y-97744601D01*
X161819677Y-97898293D01*
X161759725Y-98069625D01*
X161759724Y-98069630D01*
X161739403Y-98249996D01*
X160644092Y-98249996D01*
X160730369Y-98240275D01*
X160730372Y-98240274D01*
X160730375Y-98240274D01*
X160901705Y-98180323D01*
X161055399Y-98083750D01*
X161183750Y-97955399D01*
X161280323Y-97801705D01*
X161340274Y-97630375D01*
X161340275Y-97630369D01*
X161360597Y-97450003D01*
X161360597Y-97449996D01*
X161340275Y-97269630D01*
X161340274Y-97269625D01*
X161330728Y-97242344D01*
X161280323Y-97098295D01*
X161257099Y-97061335D01*
X161183750Y-96944601D01*
X161055398Y-96816249D01*
X160901706Y-96719677D01*
X160730374Y-96659725D01*
X160730369Y-96659724D01*
X160550004Y-96639403D01*
X160549996Y-96639403D01*
X160369630Y-96659724D01*
X160369625Y-96659725D01*
X160198293Y-96719677D01*
X160044601Y-96816249D01*
X159916249Y-96944601D01*
X159819677Y-97098293D01*
X159759725Y-97269625D01*
X159759724Y-97269630D01*
X159739403Y-97449996D01*
X154044025Y-97449996D01*
X153950004Y-97439403D01*
X153949996Y-97439403D01*
X153769630Y-97459724D01*
X153769625Y-97459725D01*
X153598293Y-97519677D01*
X153444601Y-97616249D01*
X153316249Y-97744601D01*
X153219678Y-97898291D01*
X153211437Y-97921844D01*
X153170714Y-97978619D01*
X153105761Y-98004365D01*
X153080513Y-98004107D01*
X152950004Y-97989403D01*
X152949996Y-97989403D01*
X152769630Y-98009724D01*
X152769625Y-98009725D01*
X152598293Y-98069677D01*
X152444601Y-98166249D01*
X152316249Y-98294601D01*
X152219677Y-98448293D01*
X152159725Y-98619625D01*
X152159724Y-98619630D01*
X152139403Y-98799996D01*
X144860514Y-98799996D01*
X144833750Y-98757401D01*
X144705398Y-98629049D01*
X144551706Y-98532477D01*
X144380374Y-98472525D01*
X144380369Y-98472524D01*
X144200004Y-98452203D01*
X144199996Y-98452203D01*
X144019630Y-98472524D01*
X144019625Y-98472525D01*
X143848293Y-98532477D01*
X143694601Y-98629049D01*
X143566249Y-98757401D01*
X143469675Y-98911097D01*
X143413171Y-99072574D01*
X143372449Y-99129350D01*
X143307496Y-99155097D01*
X143238935Y-99141640D01*
X143208449Y-99119300D01*
X143105398Y-99016249D01*
X142951706Y-98919677D01*
X142780374Y-98859725D01*
X142780369Y-98859724D01*
X142600004Y-98839403D01*
X142599996Y-98839403D01*
X142419630Y-98859724D01*
X142419625Y-98859725D01*
X142248293Y-98919677D01*
X142094601Y-99016249D01*
X141966249Y-99144601D01*
X141869677Y-99298293D01*
X141809725Y-99469625D01*
X141809724Y-99469630D01*
X141789403Y-99649996D01*
X111589153Y-99649996D01*
X111708750Y-99530399D01*
X111805323Y-99376705D01*
X111865274Y-99205375D01*
X111866072Y-99198293D01*
X111885597Y-99025003D01*
X111885597Y-99024996D01*
X111865275Y-98844630D01*
X111865274Y-98844625D01*
X111837653Y-98765689D01*
X111805323Y-98673295D01*
X111801315Y-98666917D01*
X111708750Y-98519601D01*
X111580400Y-98391251D01*
X111580399Y-98391250D01*
X111554899Y-98375227D01*
X111508610Y-98322892D01*
X111497963Y-98253838D01*
X111515880Y-98204264D01*
X111566000Y-98124500D01*
X111580322Y-98101707D01*
X111580323Y-98101705D01*
X111640274Y-97930375D01*
X111640275Y-97930369D01*
X111660597Y-97750003D01*
X111660597Y-97749996D01*
X111643471Y-97597996D01*
X123141403Y-97597996D01*
X123141403Y-97598003D01*
X123161724Y-97778369D01*
X123161725Y-97778374D01*
X123221677Y-97949706D01*
X123318249Y-98103398D01*
X123446601Y-98231750D01*
X123591651Y-98322892D01*
X123600295Y-98328323D01*
X123677671Y-98355398D01*
X123771625Y-98388274D01*
X123771630Y-98388275D01*
X123951996Y-98408597D01*
X123952000Y-98408597D01*
X123952004Y-98408597D01*
X124132369Y-98388275D01*
X124132372Y-98388274D01*
X124132375Y-98388274D01*
X124303705Y-98328323D01*
X124457399Y-98231750D01*
X124585750Y-98103399D01*
X124682323Y-97949705D01*
X124742274Y-97778375D01*
X124742952Y-97772361D01*
X124762597Y-97598003D01*
X124762597Y-97597996D01*
X124742275Y-97417630D01*
X124742274Y-97417625D01*
X124690488Y-97269630D01*
X124682323Y-97246295D01*
X124679840Y-97242344D01*
X124585750Y-97092601D01*
X124457398Y-96964249D01*
X124303706Y-96867677D01*
X124132374Y-96807725D01*
X124132369Y-96807724D01*
X123952004Y-96787403D01*
X123951996Y-96787403D01*
X123771630Y-96807724D01*
X123771625Y-96807725D01*
X123600293Y-96867677D01*
X123446601Y-96964249D01*
X123318249Y-97092601D01*
X123221677Y-97246293D01*
X123161725Y-97417625D01*
X123161724Y-97417630D01*
X123141403Y-97597996D01*
X111643471Y-97597996D01*
X111640275Y-97569630D01*
X111640274Y-97569625D01*
X111622796Y-97519677D01*
X111580323Y-97398295D01*
X111483750Y-97244601D01*
X111355399Y-97116250D01*
X111355398Y-97116249D01*
X111201706Y-97019677D01*
X111030374Y-96959725D01*
X111030369Y-96959724D01*
X110850004Y-96939403D01*
X110849996Y-96939403D01*
X110669630Y-96959724D01*
X110669625Y-96959725D01*
X110498293Y-97019677D01*
X110344601Y-97116249D01*
X110216249Y-97244601D01*
X110119677Y-97398293D01*
X110059725Y-97569625D01*
X110059724Y-97569630D01*
X110039403Y-97749996D01*
X84500000Y-97749996D01*
X84500000Y-96773999D01*
X126665341Y-96773999D01*
X126665341Y-96774000D01*
X126685936Y-97009403D01*
X126685938Y-97009413D01*
X126747094Y-97237655D01*
X126747096Y-97237659D01*
X126747097Y-97237663D01*
X126796963Y-97344601D01*
X126846965Y-97451830D01*
X126846967Y-97451834D01*
X126955281Y-97606521D01*
X126982505Y-97645401D01*
X127149599Y-97812495D01*
X127230198Y-97868931D01*
X127343165Y-97948032D01*
X127343167Y-97948033D01*
X127343170Y-97948035D01*
X127557337Y-98047903D01*
X127785592Y-98109063D01*
X127962034Y-98124500D01*
X128020999Y-98129659D01*
X128021000Y-98129659D01*
X128021001Y-98129659D01*
X128079966Y-98124500D01*
X128256408Y-98109063D01*
X128484663Y-98047903D01*
X128698830Y-97948035D01*
X128892401Y-97812495D01*
X129014329Y-97690566D01*
X129075648Y-97657084D01*
X129145340Y-97662068D01*
X129201274Y-97703939D01*
X129218189Y-97734917D01*
X129267202Y-97866328D01*
X129267206Y-97866335D01*
X129353452Y-97981544D01*
X129353455Y-97981547D01*
X129468664Y-98067793D01*
X129468671Y-98067797D01*
X129603517Y-98118091D01*
X129603516Y-98118091D01*
X129610444Y-98118835D01*
X129663127Y-98124500D01*
X131458872Y-98124499D01*
X131518483Y-98118091D01*
X131653331Y-98067796D01*
X131768546Y-97981546D01*
X131854796Y-97866331D01*
X131905091Y-97731483D01*
X131911500Y-97671873D01*
X131911499Y-96399996D01*
X138089403Y-96399996D01*
X138089403Y-96400003D01*
X138109725Y-96580372D01*
X138146001Y-96684046D01*
X138149562Y-96753825D01*
X138146001Y-96765954D01*
X138109725Y-96869627D01*
X138089403Y-97049996D01*
X138089403Y-97050003D01*
X138109724Y-97230369D01*
X138109725Y-97230374D01*
X138169677Y-97401706D01*
X138266249Y-97555398D01*
X138394601Y-97683750D01*
X138545194Y-97778375D01*
X138548295Y-97780323D01*
X138640246Y-97812498D01*
X138719625Y-97840274D01*
X138719630Y-97840275D01*
X138899996Y-97860597D01*
X138900000Y-97860597D01*
X138900004Y-97860597D01*
X139080369Y-97840275D01*
X139080372Y-97840274D01*
X139080375Y-97840274D01*
X139251705Y-97780323D01*
X139405399Y-97683750D01*
X139533750Y-97555399D01*
X139630323Y-97401705D01*
X139690274Y-97230375D01*
X139691485Y-97219630D01*
X139710597Y-97050003D01*
X139710597Y-97049996D01*
X139690275Y-96869633D01*
X139690274Y-96869626D01*
X139689592Y-96867677D01*
X139653996Y-96765951D01*
X139650434Y-96696177D01*
X139653990Y-96684066D01*
X139690274Y-96580375D01*
X139709222Y-96412203D01*
X139710597Y-96400003D01*
X139710597Y-96399996D01*
X147046403Y-96399996D01*
X147046403Y-96400003D01*
X147066725Y-96580372D01*
X147103001Y-96684046D01*
X147106562Y-96753825D01*
X147103001Y-96765954D01*
X147066725Y-96869627D01*
X147046403Y-97049996D01*
X147046403Y-97050003D01*
X147066724Y-97230369D01*
X147066725Y-97230374D01*
X147126677Y-97401706D01*
X147223249Y-97555398D01*
X147351601Y-97683750D01*
X147502194Y-97778375D01*
X147505295Y-97780323D01*
X147597246Y-97812498D01*
X147676625Y-97840274D01*
X147676630Y-97840275D01*
X147856996Y-97860597D01*
X147857000Y-97860597D01*
X147857004Y-97860597D01*
X148037369Y-97840275D01*
X148037372Y-97840274D01*
X148037375Y-97840274D01*
X148208705Y-97780323D01*
X148362399Y-97683750D01*
X148490750Y-97555399D01*
X148587323Y-97401705D01*
X148647274Y-97230375D01*
X148648485Y-97219630D01*
X148667597Y-97050003D01*
X148667597Y-97049996D01*
X148647275Y-96869633D01*
X148647274Y-96869626D01*
X148646592Y-96867677D01*
X148610996Y-96765951D01*
X148607434Y-96696177D01*
X148610990Y-96684066D01*
X148647274Y-96580375D01*
X148666222Y-96412203D01*
X148667597Y-96400003D01*
X148667597Y-96399996D01*
X148647275Y-96219630D01*
X148647274Y-96219625D01*
X148609123Y-96110597D01*
X148587323Y-96048295D01*
X148580478Y-96037402D01*
X148490750Y-95894601D01*
X148362398Y-95766249D01*
X148208706Y-95669677D01*
X148037374Y-95609725D01*
X148037369Y-95609724D01*
X147857004Y-95589403D01*
X147856996Y-95589403D01*
X147676630Y-95609724D01*
X147676625Y-95609725D01*
X147505293Y-95669677D01*
X147351601Y-95766249D01*
X147223249Y-95894601D01*
X147126677Y-96048293D01*
X147066725Y-96219625D01*
X147066724Y-96219630D01*
X147046403Y-96399996D01*
X139710597Y-96399996D01*
X139690275Y-96219630D01*
X139690274Y-96219625D01*
X139652123Y-96110597D01*
X139630323Y-96048295D01*
X139623478Y-96037402D01*
X139533750Y-95894601D01*
X139405398Y-95766249D01*
X139251706Y-95669677D01*
X139080374Y-95609725D01*
X139080369Y-95609724D01*
X138900004Y-95589403D01*
X138899996Y-95589403D01*
X138719630Y-95609724D01*
X138719625Y-95609725D01*
X138548293Y-95669677D01*
X138394601Y-95766249D01*
X138266249Y-95894601D01*
X138169677Y-96048293D01*
X138109725Y-96219625D01*
X138109724Y-96219630D01*
X138089403Y-96399996D01*
X131911499Y-96399996D01*
X131911499Y-95876128D01*
X131905091Y-95816517D01*
X131903810Y-95813083D01*
X131854797Y-95681671D01*
X131854793Y-95681664D01*
X131768547Y-95566455D01*
X131768544Y-95566452D01*
X131653335Y-95480206D01*
X131653328Y-95480202D01*
X131518482Y-95429908D01*
X131518483Y-95429908D01*
X131458883Y-95423501D01*
X131458881Y-95423500D01*
X131458873Y-95423500D01*
X131458864Y-95423500D01*
X129663129Y-95423500D01*
X129663123Y-95423501D01*
X129603516Y-95429908D01*
X129468671Y-95480202D01*
X129468664Y-95480206D01*
X129353455Y-95566452D01*
X129353452Y-95566455D01*
X129267206Y-95681664D01*
X129267203Y-95681669D01*
X129218189Y-95813083D01*
X129176317Y-95869016D01*
X129110853Y-95893433D01*
X129042580Y-95878581D01*
X129014326Y-95857430D01*
X128892402Y-95735506D01*
X128892395Y-95735501D01*
X128698834Y-95599967D01*
X128698830Y-95599965D01*
X128676180Y-95589403D01*
X128484663Y-95500097D01*
X128484659Y-95500096D01*
X128484655Y-95500094D01*
X128256413Y-95438938D01*
X128256403Y-95438936D01*
X128021001Y-95418341D01*
X128020999Y-95418341D01*
X127785596Y-95438936D01*
X127785586Y-95438938D01*
X127557344Y-95500094D01*
X127557335Y-95500098D01*
X127343171Y-95599964D01*
X127343169Y-95599965D01*
X127149597Y-95735505D01*
X126982505Y-95902597D01*
X126846965Y-96096169D01*
X126846964Y-96096171D01*
X126747098Y-96310335D01*
X126747094Y-96310344D01*
X126685938Y-96538586D01*
X126685936Y-96538596D01*
X126665341Y-96773999D01*
X84500000Y-96773999D01*
X84500000Y-95899996D01*
X121489403Y-95899996D01*
X121489403Y-95900003D01*
X121509724Y-96080369D01*
X121509725Y-96080374D01*
X121569677Y-96251706D01*
X121666249Y-96405398D01*
X121794601Y-96533750D01*
X121921793Y-96613671D01*
X121948295Y-96630323D01*
X122032321Y-96659725D01*
X122119625Y-96690274D01*
X122119630Y-96690275D01*
X122299996Y-96710597D01*
X122300000Y-96710597D01*
X122300004Y-96710597D01*
X122480369Y-96690275D01*
X122480372Y-96690274D01*
X122480375Y-96690274D01*
X122651705Y-96630323D01*
X122805399Y-96533750D01*
X122933750Y-96405399D01*
X123030323Y-96251705D01*
X123090274Y-96080375D01*
X123090275Y-96080369D01*
X123110597Y-95900003D01*
X123110597Y-95899996D01*
X123090275Y-95719630D01*
X123090274Y-95719625D01*
X123058792Y-95629655D01*
X123030323Y-95548295D01*
X122956228Y-95430375D01*
X122933750Y-95394601D01*
X122805398Y-95266249D01*
X122651706Y-95169677D01*
X122480374Y-95109725D01*
X122480369Y-95109724D01*
X122300004Y-95089403D01*
X122299996Y-95089403D01*
X122119630Y-95109724D01*
X122119625Y-95109725D01*
X121948293Y-95169677D01*
X121794601Y-95266249D01*
X121666249Y-95394601D01*
X121569677Y-95548293D01*
X121509725Y-95719625D01*
X121509724Y-95719630D01*
X121489403Y-95899996D01*
X84500000Y-95899996D01*
X84500000Y-93249996D01*
X134039403Y-93249996D01*
X134039403Y-93250003D01*
X134059725Y-93430372D01*
X134096001Y-93534046D01*
X134099562Y-93603825D01*
X134096001Y-93615954D01*
X134059725Y-93719627D01*
X134039403Y-93899996D01*
X134039403Y-93900003D01*
X134059725Y-94080372D01*
X134104749Y-94209046D01*
X134108310Y-94278825D01*
X134104749Y-94290954D01*
X134059725Y-94419627D01*
X134039403Y-94599996D01*
X134039403Y-94600003D01*
X134059724Y-94780369D01*
X134059725Y-94780374D01*
X134119677Y-94951706D01*
X134216249Y-95105398D01*
X134344601Y-95233750D01*
X134462518Y-95307843D01*
X134498295Y-95330323D01*
X134609305Y-95369167D01*
X134669625Y-95390274D01*
X134669630Y-95390275D01*
X134849996Y-95410597D01*
X134850000Y-95410597D01*
X134850004Y-95410597D01*
X135030369Y-95390275D01*
X135030372Y-95390274D01*
X135030375Y-95390274D01*
X135201705Y-95330323D01*
X135355399Y-95233750D01*
X135483750Y-95105399D01*
X135580323Y-94951705D01*
X135640274Y-94780375D01*
X135643696Y-94750003D01*
X135643697Y-94749996D01*
X140989403Y-94749996D01*
X140989403Y-94750003D01*
X141009724Y-94930369D01*
X141009725Y-94930374D01*
X141069677Y-95101706D01*
X141166249Y-95255398D01*
X141218695Y-95307844D01*
X141252180Y-95369167D01*
X141254234Y-95381641D01*
X141259724Y-95430369D01*
X141319676Y-95601704D01*
X141416249Y-95755398D01*
X141544601Y-95883750D01*
X141570462Y-95900000D01*
X141698295Y-95980323D01*
X141841184Y-96030322D01*
X141869625Y-96040274D01*
X141869630Y-96040275D01*
X142049996Y-96060597D01*
X142050000Y-96060597D01*
X142050004Y-96060597D01*
X142230369Y-96040275D01*
X142230372Y-96040274D01*
X142230375Y-96040274D01*
X142401705Y-95980323D01*
X142555399Y-95883750D01*
X142683750Y-95755399D01*
X142780323Y-95601705D01*
X142840274Y-95430375D01*
X142840327Y-95429908D01*
X142860597Y-95250003D01*
X142860597Y-95249996D01*
X142840275Y-95069630D01*
X142840274Y-95069625D01*
X142797818Y-94948293D01*
X142780323Y-94898295D01*
X142706228Y-94780375D01*
X142683750Y-94744601D01*
X142631303Y-94692154D01*
X142597818Y-94630831D01*
X142595766Y-94618373D01*
X142590274Y-94569625D01*
X142578780Y-94536776D01*
X142575217Y-94466998D01*
X142609946Y-94406370D01*
X142671939Y-94374142D01*
X142736777Y-94378780D01*
X142769621Y-94390273D01*
X142769624Y-94390273D01*
X142769625Y-94390274D01*
X142769626Y-94390274D01*
X142769630Y-94390275D01*
X142949996Y-94410597D01*
X142950000Y-94410597D01*
X142950004Y-94410597D01*
X143130369Y-94390275D01*
X143130370Y-94390274D01*
X143130375Y-94390274D01*
X143162599Y-94378997D01*
X143232375Y-94375435D01*
X143244508Y-94378998D01*
X143419617Y-94440272D01*
X143419623Y-94440273D01*
X143419625Y-94440274D01*
X143419626Y-94440274D01*
X143419630Y-94440275D01*
X143599996Y-94460597D01*
X143600000Y-94460597D01*
X143600004Y-94460597D01*
X143780369Y-94440275D01*
X143780372Y-94440274D01*
X143780375Y-94440274D01*
X143951705Y-94380323D01*
X143954161Y-94378780D01*
X144012177Y-94342326D01*
X144079414Y-94323325D01*
X144146249Y-94343692D01*
X144191464Y-94396960D01*
X144200702Y-94466216D01*
X144195192Y-94488272D01*
X144166724Y-94569628D01*
X144161234Y-94618357D01*
X144134167Y-94682771D01*
X144125697Y-94692152D01*
X144073249Y-94744600D01*
X143976677Y-94898292D01*
X143916725Y-95069625D01*
X143916724Y-95069630D01*
X143896403Y-95249996D01*
X143896403Y-95250003D01*
X143916724Y-95430369D01*
X143916725Y-95430374D01*
X143976677Y-95601706D01*
X144073249Y-95755398D01*
X144201601Y-95883750D01*
X144227462Y-95900000D01*
X144355295Y-95980323D01*
X144498184Y-96030322D01*
X144526625Y-96040274D01*
X144526630Y-96040275D01*
X144706996Y-96060597D01*
X144707000Y-96060597D01*
X144707004Y-96060597D01*
X144887369Y-96040275D01*
X144887372Y-96040274D01*
X144887375Y-96040274D01*
X145058705Y-95980323D01*
X145212399Y-95883750D01*
X145340750Y-95755399D01*
X145437323Y-95601705D01*
X145497274Y-95430375D01*
X145502765Y-95381641D01*
X145529828Y-95317231D01*
X145538291Y-95307857D01*
X145546152Y-95299996D01*
X158389403Y-95299996D01*
X158389403Y-95300003D01*
X158409724Y-95480369D01*
X158409725Y-95480374D01*
X158469677Y-95651706D01*
X158563500Y-95801023D01*
X158566250Y-95805399D01*
X158694601Y-95933750D01*
X158848295Y-96030323D01*
X158991335Y-96080375D01*
X159019625Y-96090274D01*
X159019630Y-96090275D01*
X159199996Y-96110597D01*
X159200000Y-96110597D01*
X159200004Y-96110597D01*
X159380369Y-96090275D01*
X159380372Y-96090274D01*
X159380375Y-96090274D01*
X159551705Y-96030323D01*
X159705399Y-95933750D01*
X159833750Y-95805399D01*
X159930323Y-95651705D01*
X159990274Y-95480375D01*
X159990293Y-95480206D01*
X160010597Y-95300003D01*
X160010597Y-95299996D01*
X159995499Y-95165999D01*
X178984341Y-95165999D01*
X178984341Y-95166000D01*
X179004936Y-95401403D01*
X179004938Y-95401413D01*
X179066094Y-95629655D01*
X179066096Y-95629659D01*
X179066097Y-95629663D01*
X179124729Y-95755399D01*
X179165965Y-95843830D01*
X179165967Y-95843834D01*
X179274281Y-95998521D01*
X179301501Y-96037396D01*
X179301506Y-96037402D01*
X179468597Y-96204493D01*
X179468603Y-96204498D01*
X179654158Y-96334425D01*
X179697783Y-96389002D01*
X179704977Y-96458500D01*
X179673454Y-96520855D01*
X179654158Y-96537575D01*
X179468597Y-96667505D01*
X179301505Y-96834597D01*
X179165965Y-97028169D01*
X179165964Y-97028171D01*
X179066098Y-97242335D01*
X179066094Y-97242344D01*
X179004938Y-97470586D01*
X179004936Y-97470596D01*
X178984341Y-97705999D01*
X178984341Y-97706000D01*
X179004936Y-97941403D01*
X179004938Y-97941413D01*
X179066094Y-98169655D01*
X179066096Y-98169659D01*
X179066097Y-98169663D01*
X179137277Y-98322309D01*
X179165965Y-98383830D01*
X179165967Y-98383834D01*
X179258285Y-98515677D01*
X179301505Y-98577401D01*
X179468599Y-98744495D01*
X179547863Y-98799996D01*
X179662165Y-98880032D01*
X179662167Y-98880033D01*
X179662170Y-98880035D01*
X179876337Y-98979903D01*
X179876343Y-98979904D01*
X179876344Y-98979905D01*
X179931285Y-98994626D01*
X180104592Y-99041063D01*
X180281034Y-99056500D01*
X180339999Y-99061659D01*
X180340000Y-99061659D01*
X180340001Y-99061659D01*
X180398966Y-99056500D01*
X180575408Y-99041063D01*
X180803663Y-98979903D01*
X181017830Y-98880035D01*
X181211401Y-98744495D01*
X181333329Y-98622566D01*
X181394648Y-98589084D01*
X181464340Y-98594068D01*
X181520274Y-98635939D01*
X181537189Y-98666917D01*
X181586202Y-98798328D01*
X181586206Y-98798335D01*
X181672452Y-98913544D01*
X181672455Y-98913547D01*
X181787664Y-98999793D01*
X181787671Y-98999797D01*
X181922517Y-99050091D01*
X181922516Y-99050091D01*
X181929444Y-99050835D01*
X181982127Y-99056500D01*
X183777872Y-99056499D01*
X183837483Y-99050091D01*
X183972331Y-98999796D01*
X184087546Y-98913546D01*
X184173796Y-98798331D01*
X184224091Y-98663483D01*
X184230500Y-98603873D01*
X184230499Y-96808128D01*
X184224091Y-96748517D01*
X184222810Y-96745083D01*
X184173797Y-96613671D01*
X184173793Y-96613664D01*
X184087547Y-96498455D01*
X184087544Y-96498452D01*
X183972335Y-96412206D01*
X183972328Y-96412202D01*
X183840917Y-96363189D01*
X183784983Y-96321318D01*
X183760566Y-96255853D01*
X183775418Y-96187580D01*
X183796563Y-96159332D01*
X183918495Y-96037401D01*
X184054035Y-95843830D01*
X184153903Y-95629663D01*
X184215063Y-95401408D01*
X184235659Y-95166000D01*
X184215063Y-94930592D01*
X184153903Y-94702337D01*
X184054035Y-94488171D01*
X184048425Y-94480158D01*
X183918494Y-94294597D01*
X183751402Y-94127506D01*
X183751395Y-94127501D01*
X183557834Y-93991967D01*
X183557830Y-93991965D01*
X183532864Y-93980323D01*
X183343663Y-93892097D01*
X183343659Y-93892096D01*
X183343655Y-93892094D01*
X183115413Y-93830938D01*
X183115403Y-93830936D01*
X182880001Y-93810341D01*
X182879999Y-93810341D01*
X182644596Y-93830936D01*
X182644586Y-93830938D01*
X182416344Y-93892094D01*
X182416335Y-93892098D01*
X182202171Y-93991964D01*
X182202169Y-93991965D01*
X182008597Y-94127505D01*
X181841505Y-94294597D01*
X181711575Y-94480158D01*
X181656998Y-94523783D01*
X181587500Y-94530977D01*
X181525145Y-94499454D01*
X181508425Y-94480158D01*
X181378494Y-94294597D01*
X181211402Y-94127506D01*
X181211395Y-94127501D01*
X181017834Y-93991967D01*
X181017830Y-93991965D01*
X180992864Y-93980323D01*
X180803663Y-93892097D01*
X180803659Y-93892096D01*
X180803655Y-93892094D01*
X180575413Y-93830938D01*
X180575403Y-93830936D01*
X180340001Y-93810341D01*
X180339999Y-93810341D01*
X180104596Y-93830936D01*
X180104586Y-93830938D01*
X179876344Y-93892094D01*
X179876335Y-93892098D01*
X179662171Y-93991964D01*
X179662169Y-93991965D01*
X179468597Y-94127505D01*
X179301505Y-94294597D01*
X179165965Y-94488169D01*
X179165964Y-94488171D01*
X179066098Y-94702335D01*
X179066094Y-94702344D01*
X179004938Y-94930586D01*
X179004936Y-94930596D01*
X178984341Y-95165999D01*
X159995499Y-95165999D01*
X159990275Y-95119630D01*
X159990274Y-95119625D01*
X159984004Y-95101706D01*
X159930323Y-94948295D01*
X159919199Y-94930592D01*
X159833750Y-94794601D01*
X159705398Y-94666249D01*
X159551706Y-94569677D01*
X159380374Y-94509725D01*
X159380369Y-94509724D01*
X159200004Y-94489403D01*
X159199996Y-94489403D01*
X159019630Y-94509724D01*
X159019625Y-94509725D01*
X158848293Y-94569677D01*
X158694601Y-94666249D01*
X158566249Y-94794601D01*
X158469677Y-94948293D01*
X158409725Y-95119625D01*
X158409724Y-95119630D01*
X158389403Y-95299996D01*
X145546152Y-95299996D01*
X145590750Y-95255399D01*
X145687323Y-95101705D01*
X145747274Y-94930375D01*
X145747275Y-94930369D01*
X145767597Y-94750003D01*
X145767597Y-94749996D01*
X145747275Y-94569630D01*
X145747274Y-94569625D01*
X145711363Y-94466998D01*
X145687323Y-94398295D01*
X145682282Y-94390273D01*
X145590750Y-94244601D01*
X145462398Y-94116249D01*
X145308706Y-94019677D01*
X145137374Y-93959725D01*
X145137369Y-93959724D01*
X144957004Y-93939403D01*
X144956996Y-93939403D01*
X144776630Y-93959724D01*
X144776625Y-93959725D01*
X144605293Y-94019677D01*
X144544822Y-94057674D01*
X144477585Y-94076674D01*
X144410750Y-94056306D01*
X144365536Y-94003038D01*
X144356299Y-93933781D01*
X144361809Y-93911725D01*
X144390272Y-93830382D01*
X144390275Y-93830369D01*
X144410597Y-93650003D01*
X144410597Y-93649996D01*
X144390275Y-93469630D01*
X144390274Y-93469625D01*
X144330322Y-93298293D01*
X144299975Y-93249996D01*
X151389403Y-93249996D01*
X151389403Y-93250003D01*
X151409724Y-93430369D01*
X151409725Y-93430374D01*
X151469677Y-93601706D01*
X151566249Y-93755398D01*
X151694601Y-93883750D01*
X151815513Y-93959725D01*
X151848295Y-93980323D01*
X151913211Y-94003038D01*
X152019625Y-94040274D01*
X152019630Y-94040275D01*
X152199996Y-94060597D01*
X152200000Y-94060597D01*
X152200004Y-94060597D01*
X152380369Y-94040275D01*
X152380372Y-94040274D01*
X152380375Y-94040274D01*
X152551705Y-93980323D01*
X152705399Y-93883750D01*
X152833750Y-93755399D01*
X152930323Y-93601705D01*
X152990274Y-93430375D01*
X152995908Y-93380374D01*
X153010597Y-93250003D01*
X153010597Y-93249996D01*
X152990275Y-93069630D01*
X152990274Y-93069625D01*
X152930322Y-92898293D01*
X152833750Y-92744601D01*
X152705398Y-92616249D01*
X152551706Y-92519677D01*
X152380374Y-92459725D01*
X152380369Y-92459724D01*
X152200004Y-92439403D01*
X152199996Y-92439403D01*
X152019630Y-92459724D01*
X152019625Y-92459725D01*
X151848293Y-92519677D01*
X151694601Y-92616249D01*
X151566249Y-92744601D01*
X151469677Y-92898293D01*
X151409725Y-93069625D01*
X151409724Y-93069630D01*
X151389403Y-93249996D01*
X144299975Y-93249996D01*
X144233750Y-93144601D01*
X144105398Y-93016249D01*
X143951706Y-92919677D01*
X143780374Y-92859725D01*
X143780369Y-92859724D01*
X143600004Y-92839403D01*
X143599996Y-92839403D01*
X143419626Y-92859725D01*
X143419625Y-92859725D01*
X143387397Y-92871002D01*
X143317618Y-92874563D01*
X143305488Y-92871001D01*
X143301705Y-92869677D01*
X143273261Y-92859724D01*
X143140195Y-92813161D01*
X143083420Y-92772439D01*
X143076157Y-92762092D01*
X143033749Y-92694600D01*
X142905398Y-92566249D01*
X142751706Y-92469677D01*
X142580374Y-92409725D01*
X142580369Y-92409724D01*
X142400004Y-92389403D01*
X142399996Y-92389403D01*
X142219630Y-92409724D01*
X142219625Y-92409725D01*
X142048293Y-92469677D01*
X141894601Y-92566249D01*
X141766249Y-92694601D01*
X141669677Y-92848293D01*
X141609725Y-93019625D01*
X141609724Y-93019630D01*
X141589403Y-93199996D01*
X141589403Y-93200003D01*
X141609724Y-93380369D01*
X141609725Y-93380374D01*
X141669677Y-93551706D01*
X141766249Y-93705398D01*
X141797903Y-93737052D01*
X141831388Y-93798375D01*
X141826404Y-93868067D01*
X141784532Y-93924000D01*
X141724106Y-93947953D01*
X141619629Y-93959724D01*
X141619625Y-93959725D01*
X141448293Y-94019677D01*
X141294601Y-94116249D01*
X141166249Y-94244601D01*
X141069677Y-94398293D01*
X141009725Y-94569625D01*
X141009724Y-94569630D01*
X140989403Y-94749996D01*
X135643697Y-94749996D01*
X135660597Y-94600003D01*
X135660597Y-94599996D01*
X135640275Y-94419633D01*
X135640274Y-94419626D01*
X135637115Y-94410597D01*
X135595248Y-94290951D01*
X135591686Y-94221177D01*
X135595242Y-94209066D01*
X135640274Y-94080375D01*
X135655194Y-93947953D01*
X135660597Y-93900003D01*
X135660597Y-93899996D01*
X135640275Y-93719633D01*
X135640274Y-93719626D01*
X135635296Y-93705399D01*
X135603996Y-93615951D01*
X135600434Y-93546177D01*
X135603990Y-93534066D01*
X135640274Y-93430375D01*
X135660597Y-93250000D01*
X135654963Y-93200000D01*
X135640275Y-93069630D01*
X135640274Y-93069625D01*
X135580322Y-92898293D01*
X135483750Y-92744601D01*
X135355398Y-92616249D01*
X135201706Y-92519677D01*
X135030374Y-92459725D01*
X135030369Y-92459724D01*
X134850004Y-92439403D01*
X134849996Y-92439403D01*
X134669630Y-92459724D01*
X134669625Y-92459725D01*
X134498293Y-92519677D01*
X134344601Y-92616249D01*
X134216249Y-92744601D01*
X134119677Y-92898293D01*
X134059725Y-93069625D01*
X134059724Y-93069630D01*
X134039403Y-93249996D01*
X84500000Y-93249996D01*
X84500000Y-89449996D01*
X173239403Y-89449996D01*
X173239403Y-89450003D01*
X173259724Y-89630369D01*
X173259725Y-89630374D01*
X173319677Y-89801706D01*
X173416249Y-89955398D01*
X173416250Y-89955399D01*
X173544601Y-90083750D01*
X173698295Y-90180323D01*
X173869625Y-90240274D01*
X173869630Y-90240275D01*
X174049996Y-90260597D01*
X174050000Y-90260597D01*
X174050004Y-90260597D01*
X174230369Y-90240275D01*
X174230372Y-90240274D01*
X174230375Y-90240274D01*
X174401705Y-90180323D01*
X174555399Y-90083750D01*
X174683750Y-89955399D01*
X174780323Y-89801705D01*
X174783398Y-89792918D01*
X174824117Y-89736140D01*
X174889068Y-89710390D01*
X174957630Y-89723843D01*
X174966413Y-89728873D01*
X174997013Y-89748100D01*
X175048295Y-89780323D01*
X175219625Y-89840274D01*
X175219630Y-89840275D01*
X175399996Y-89860597D01*
X175400000Y-89860597D01*
X175400004Y-89860597D01*
X175580369Y-89840275D01*
X175580372Y-89840274D01*
X175580375Y-89840274D01*
X175751705Y-89780323D01*
X175905399Y-89683750D01*
X176033750Y-89555399D01*
X176130323Y-89401705D01*
X176190274Y-89230375D01*
X176190275Y-89230369D01*
X176210597Y-89050003D01*
X176210597Y-89049997D01*
X176203133Y-88983750D01*
X176197607Y-88934709D01*
X176209661Y-88865889D01*
X176257010Y-88814509D01*
X176324620Y-88796885D01*
X176334703Y-88797606D01*
X176388270Y-88803641D01*
X176449997Y-88810597D01*
X176450000Y-88810597D01*
X176450004Y-88810597D01*
X176630369Y-88790275D01*
X176630372Y-88790274D01*
X176630375Y-88790274D01*
X176801705Y-88730323D01*
X176955399Y-88633750D01*
X177083750Y-88505399D01*
X177169237Y-88369347D01*
X177221572Y-88323057D01*
X177290625Y-88312409D01*
X177354474Y-88340784D01*
X177392846Y-88399174D01*
X177397451Y-88421436D01*
X177409724Y-88530370D01*
X177409725Y-88530374D01*
X177469677Y-88701706D01*
X177566249Y-88855398D01*
X177694601Y-88983750D01*
X177800036Y-89050000D01*
X177848295Y-89080323D01*
X178019625Y-89140274D01*
X178019630Y-89140275D01*
X178199996Y-89160597D01*
X178200000Y-89160597D01*
X178200004Y-89160597D01*
X178380369Y-89140275D01*
X178380372Y-89140274D01*
X178380375Y-89140274D01*
X178551705Y-89080323D01*
X178705399Y-88983750D01*
X178833750Y-88855399D01*
X178930323Y-88701705D01*
X178990274Y-88530375D01*
X179003004Y-88417396D01*
X179007664Y-88376033D01*
X179034730Y-88311619D01*
X179092325Y-88272064D01*
X179162162Y-88269926D01*
X179222068Y-88305884D01*
X179232459Y-88318793D01*
X179301501Y-88417396D01*
X179301506Y-88417402D01*
X179468597Y-88584493D01*
X179468603Y-88584498D01*
X179654158Y-88714425D01*
X179697783Y-88769002D01*
X179704977Y-88838500D01*
X179673454Y-88900855D01*
X179654158Y-88917575D01*
X179468597Y-89047505D01*
X179301505Y-89214597D01*
X179165965Y-89408169D01*
X179165964Y-89408171D01*
X179066098Y-89622335D01*
X179066094Y-89622344D01*
X179004938Y-89850586D01*
X179004936Y-89850596D01*
X178984341Y-90085999D01*
X178984341Y-90086000D01*
X179004936Y-90321403D01*
X179004938Y-90321413D01*
X179066094Y-90549655D01*
X179066096Y-90549659D01*
X179066097Y-90549663D01*
X179070000Y-90558032D01*
X179165965Y-90763830D01*
X179165967Y-90763834D01*
X179274281Y-90918521D01*
X179301505Y-90957401D01*
X179468599Y-91124495D01*
X179565384Y-91192265D01*
X179662165Y-91260032D01*
X179662167Y-91260033D01*
X179662170Y-91260035D01*
X179876337Y-91359903D01*
X180104592Y-91421063D01*
X180292918Y-91437539D01*
X180339999Y-91441659D01*
X180340000Y-91441659D01*
X180340001Y-91441659D01*
X180379234Y-91438226D01*
X180575408Y-91421063D01*
X180803663Y-91359903D01*
X181017830Y-91260035D01*
X181211401Y-91124495D01*
X181378495Y-90957401D01*
X181508425Y-90771842D01*
X181563002Y-90728217D01*
X181632500Y-90721023D01*
X181694855Y-90752546D01*
X181711575Y-90771842D01*
X181841500Y-90957395D01*
X181841505Y-90957401D01*
X182008599Y-91124495D01*
X182105384Y-91192265D01*
X182202165Y-91260032D01*
X182202167Y-91260033D01*
X182202170Y-91260035D01*
X182416337Y-91359903D01*
X182644592Y-91421063D01*
X182832918Y-91437539D01*
X182879999Y-91441659D01*
X182880000Y-91441659D01*
X182880001Y-91441659D01*
X182919234Y-91438226D01*
X183115408Y-91421063D01*
X183343663Y-91359903D01*
X183557830Y-91260035D01*
X183751401Y-91124495D01*
X183918495Y-90957401D01*
X184054035Y-90763830D01*
X184153903Y-90549663D01*
X184215063Y-90321408D01*
X184235659Y-90086000D01*
X184215063Y-89850592D01*
X184156057Y-89630375D01*
X184153905Y-89622344D01*
X184153904Y-89622343D01*
X184153903Y-89622337D01*
X184054035Y-89408171D01*
X184049509Y-89401706D01*
X183918494Y-89214597D01*
X183751402Y-89047506D01*
X183751396Y-89047501D01*
X183565842Y-88917575D01*
X183522217Y-88862998D01*
X183515023Y-88793500D01*
X183546546Y-88731145D01*
X183565842Y-88714425D01*
X183643960Y-88659726D01*
X183751401Y-88584495D01*
X183918495Y-88417401D01*
X184054035Y-88223830D01*
X184153903Y-88009663D01*
X184215063Y-87781408D01*
X184235659Y-87546000D01*
X184215063Y-87310592D01*
X184153903Y-87082337D01*
X184054035Y-86868171D01*
X184048425Y-86860158D01*
X183918494Y-86674597D01*
X183751402Y-86507506D01*
X183751395Y-86507501D01*
X183557834Y-86371967D01*
X183557830Y-86371965D01*
X183557828Y-86371964D01*
X183343663Y-86272097D01*
X183343659Y-86272096D01*
X183343655Y-86272094D01*
X183115413Y-86210938D01*
X183115403Y-86210936D01*
X182880001Y-86190341D01*
X182879999Y-86190341D01*
X182644596Y-86210936D01*
X182644586Y-86210938D01*
X182416344Y-86272094D01*
X182416335Y-86272098D01*
X182202171Y-86371964D01*
X182202169Y-86371965D01*
X182008597Y-86507505D01*
X181841505Y-86674597D01*
X181711575Y-86860158D01*
X181656998Y-86903783D01*
X181587500Y-86910977D01*
X181525145Y-86879454D01*
X181508425Y-86860158D01*
X181378494Y-86674597D01*
X181211402Y-86507506D01*
X181211395Y-86507501D01*
X181017834Y-86371967D01*
X181017830Y-86371965D01*
X181017828Y-86371964D01*
X180803663Y-86272097D01*
X180803659Y-86272096D01*
X180803655Y-86272094D01*
X180575413Y-86210938D01*
X180575403Y-86210936D01*
X180340001Y-86190341D01*
X180339999Y-86190341D01*
X180104596Y-86210936D01*
X180104586Y-86210938D01*
X179876344Y-86272094D01*
X179876335Y-86272098D01*
X179662171Y-86371964D01*
X179662169Y-86371965D01*
X179468597Y-86507505D01*
X179301505Y-86674597D01*
X179165965Y-86868169D01*
X179165964Y-86868171D01*
X179066098Y-87082335D01*
X179066094Y-87082344D01*
X179004938Y-87310586D01*
X179004936Y-87310596D01*
X178984341Y-87545999D01*
X178984341Y-87546002D01*
X178997715Y-87698869D01*
X178983948Y-87767369D01*
X178935333Y-87817552D01*
X178867304Y-87833485D01*
X178801461Y-87810110D01*
X178786506Y-87797357D01*
X178705398Y-87716249D01*
X178551706Y-87619677D01*
X178380374Y-87559725D01*
X178380369Y-87559724D01*
X178200004Y-87539403D01*
X178199996Y-87539403D01*
X178019630Y-87559724D01*
X178019625Y-87559725D01*
X177848293Y-87619677D01*
X177694601Y-87716249D01*
X177566248Y-87844602D01*
X177566247Y-87844604D01*
X177480761Y-87980652D01*
X177428426Y-88026943D01*
X177359373Y-88037590D01*
X177295524Y-88009215D01*
X177257153Y-87950824D01*
X177252548Y-87928562D01*
X177240275Y-87819629D01*
X177240274Y-87819625D01*
X177226901Y-87781408D01*
X177180323Y-87648295D01*
X177124670Y-87559725D01*
X177083750Y-87494601D01*
X176955398Y-87366249D01*
X176801706Y-87269677D01*
X176630374Y-87209725D01*
X176630369Y-87209724D01*
X176450004Y-87189403D01*
X176449996Y-87189403D01*
X176269630Y-87209724D01*
X176269625Y-87209725D01*
X176098293Y-87269677D01*
X175944601Y-87366249D01*
X175816249Y-87494601D01*
X175719677Y-87648293D01*
X175659725Y-87819625D01*
X175659724Y-87819630D01*
X175639403Y-87999996D01*
X175639403Y-88000003D01*
X175652392Y-88115289D01*
X175640337Y-88184111D01*
X175592988Y-88235490D01*
X175525378Y-88253114D01*
X175515289Y-88252392D01*
X175400004Y-88239403D01*
X175399996Y-88239403D01*
X175219630Y-88259724D01*
X175219625Y-88259725D01*
X175048293Y-88319677D01*
X174894601Y-88416249D01*
X174766249Y-88544601D01*
X174669674Y-88698298D01*
X174666598Y-88707090D01*
X174625875Y-88763865D01*
X174560921Y-88789610D01*
X174492360Y-88776152D01*
X174483586Y-88771126D01*
X174401706Y-88719677D01*
X174230374Y-88659725D01*
X174230369Y-88659724D01*
X174050004Y-88639403D01*
X174049996Y-88639403D01*
X173869630Y-88659724D01*
X173869625Y-88659725D01*
X173698293Y-88719677D01*
X173544601Y-88816249D01*
X173416249Y-88944601D01*
X173319677Y-89098293D01*
X173259725Y-89269625D01*
X173259724Y-89269630D01*
X173239403Y-89449996D01*
X84500000Y-89449996D01*
X84500000Y-87349996D01*
X120889403Y-87349996D01*
X120889403Y-87350003D01*
X120909724Y-87530369D01*
X120909725Y-87530374D01*
X120969677Y-87701706D01*
X121066249Y-87855398D01*
X121194601Y-87983750D01*
X121220462Y-88000000D01*
X121348295Y-88080323D01*
X121448222Y-88115289D01*
X121519625Y-88140274D01*
X121519630Y-88140275D01*
X121699996Y-88160597D01*
X121700000Y-88160597D01*
X121700004Y-88160597D01*
X121880369Y-88140275D01*
X121880372Y-88140274D01*
X121880375Y-88140274D01*
X122051705Y-88080323D01*
X122205399Y-87983750D01*
X122333750Y-87855399D01*
X122430323Y-87701705D01*
X122490274Y-87530375D01*
X122508766Y-87366250D01*
X122510597Y-87350003D01*
X122510597Y-87349996D01*
X122490275Y-87169630D01*
X122490274Y-87169625D01*
X122459733Y-87082344D01*
X122430323Y-86998295D01*
X122333750Y-86844601D01*
X122205399Y-86716250D01*
X122205398Y-86716249D01*
X122051706Y-86619677D01*
X121880374Y-86559725D01*
X121880369Y-86559724D01*
X121700004Y-86539403D01*
X121699996Y-86539403D01*
X121519630Y-86559724D01*
X121519625Y-86559725D01*
X121348293Y-86619677D01*
X121194601Y-86716249D01*
X121066249Y-86844601D01*
X120969677Y-86998293D01*
X120909725Y-87169625D01*
X120909724Y-87169630D01*
X120889403Y-87349996D01*
X84500000Y-87349996D01*
X84500000Y-84849996D01*
X115489403Y-84849996D01*
X115489403Y-84850003D01*
X115509724Y-85030369D01*
X115509725Y-85030374D01*
X115569677Y-85201706D01*
X115666249Y-85355398D01*
X115666250Y-85355399D01*
X115794601Y-85483750D01*
X115948295Y-85580323D01*
X116119625Y-85640274D01*
X116119630Y-85640275D01*
X116299996Y-85660597D01*
X116300000Y-85660597D01*
X116300004Y-85660597D01*
X116480369Y-85640275D01*
X116480372Y-85640274D01*
X116480375Y-85640274D01*
X116651705Y-85580323D01*
X116805399Y-85483750D01*
X116933750Y-85355399D01*
X117030323Y-85201705D01*
X117090274Y-85030375D01*
X117110597Y-84850000D01*
X117090274Y-84669625D01*
X117030323Y-84498295D01*
X116933750Y-84344601D01*
X116805399Y-84216250D01*
X116805398Y-84216249D01*
X116651706Y-84119677D01*
X116480374Y-84059725D01*
X116480369Y-84059724D01*
X116300004Y-84039403D01*
X116299996Y-84039403D01*
X116119630Y-84059724D01*
X116119625Y-84059725D01*
X115948293Y-84119677D01*
X115794601Y-84216249D01*
X115666249Y-84344601D01*
X115569677Y-84498293D01*
X115509725Y-84669625D01*
X115509724Y-84669630D01*
X115489403Y-84849996D01*
X84500000Y-84849996D01*
X84500000Y-82349996D01*
X156739403Y-82349996D01*
X156739403Y-82350003D01*
X156759724Y-82530369D01*
X156759725Y-82530374D01*
X156819677Y-82701706D01*
X156916249Y-82855398D01*
X156916250Y-82855399D01*
X157044601Y-82983750D01*
X157198295Y-83080323D01*
X157369625Y-83140274D01*
X157369630Y-83140275D01*
X157549996Y-83160597D01*
X157550000Y-83160597D01*
X157550004Y-83160597D01*
X157730369Y-83140275D01*
X157730372Y-83140274D01*
X157730375Y-83140274D01*
X157901705Y-83080323D01*
X158055399Y-82983750D01*
X158183750Y-82855399D01*
X158280323Y-82701705D01*
X158340274Y-82530375D01*
X158360597Y-82350000D01*
X158340274Y-82169625D01*
X158280323Y-81998295D01*
X158183750Y-81844601D01*
X158055399Y-81716250D01*
X158055398Y-81716249D01*
X157901706Y-81619677D01*
X157730374Y-81559725D01*
X157730369Y-81559724D01*
X157550004Y-81539403D01*
X157549996Y-81539403D01*
X157369630Y-81559724D01*
X157369625Y-81559725D01*
X157198293Y-81619677D01*
X157044601Y-81716249D01*
X156916249Y-81844601D01*
X156819677Y-81998293D01*
X156759725Y-82169625D01*
X156759724Y-82169630D01*
X156739403Y-82349996D01*
X84500000Y-82349996D01*
X84500000Y-76858986D01*
X94618500Y-76858986D01*
X94618500Y-77125013D01*
X94618501Y-77125030D01*
X94653223Y-77388774D01*
X94653224Y-77388779D01*
X94653225Y-77388785D01*
X94701624Y-77569414D01*
X94722080Y-77645758D01*
X94823888Y-77891544D01*
X94823892Y-77891554D01*
X94956910Y-78121948D01*
X95118865Y-78333012D01*
X95118871Y-78333019D01*
X95306980Y-78521128D01*
X95306987Y-78521134D01*
X95518051Y-78683089D01*
X95748445Y-78816107D01*
X95748446Y-78816107D01*
X95748449Y-78816109D01*
X95994239Y-78917919D01*
X96251215Y-78986775D01*
X96514980Y-79021500D01*
X96514987Y-79021500D01*
X96781013Y-79021500D01*
X96781020Y-79021500D01*
X97044785Y-78986775D01*
X97301761Y-78917919D01*
X97547551Y-78816109D01*
X97777949Y-78683089D01*
X97989014Y-78521133D01*
X98177133Y-78333014D01*
X98339089Y-78121949D01*
X98472109Y-77891551D01*
X98573919Y-77645761D01*
X98642775Y-77388785D01*
X98677500Y-77125020D01*
X98677500Y-76858980D01*
X98642775Y-76595215D01*
X98573919Y-76338239D01*
X98472109Y-76092449D01*
X98455762Y-76064135D01*
X116500500Y-76064135D01*
X116500500Y-77859870D01*
X116500501Y-77859876D01*
X116506908Y-77919483D01*
X116557202Y-78054328D01*
X116557206Y-78054335D01*
X116643452Y-78169544D01*
X116643455Y-78169547D01*
X116758664Y-78255793D01*
X116758671Y-78255797D01*
X116893517Y-78306091D01*
X116893516Y-78306091D01*
X116900444Y-78306835D01*
X116953127Y-78312500D01*
X117807440Y-78312499D01*
X117874479Y-78332183D01*
X117920234Y-78384987D01*
X117930178Y-78454146D01*
X117924482Y-78477453D01*
X117909726Y-78519622D01*
X117909724Y-78519630D01*
X117889403Y-78699996D01*
X117889403Y-78700003D01*
X117909724Y-78880369D01*
X117909725Y-78880374D01*
X117969677Y-79051706D01*
X117993740Y-79090001D01*
X118066250Y-79205399D01*
X118194601Y-79333750D01*
X118348295Y-79430323D01*
X118519625Y-79490274D01*
X118519630Y-79490275D01*
X118699996Y-79510597D01*
X118700000Y-79510597D01*
X118700004Y-79510597D01*
X118880369Y-79490275D01*
X118880372Y-79490274D01*
X118880375Y-79490274D01*
X119051705Y-79430323D01*
X119205399Y-79333750D01*
X119333750Y-79205399D01*
X119430323Y-79051705D01*
X119490274Y-78880375D01*
X119495743Y-78831836D01*
X119510597Y-78700003D01*
X119510597Y-78699996D01*
X119490275Y-78519630D01*
X119490274Y-78519625D01*
X119430322Y-78348293D01*
X119333750Y-78194601D01*
X119214370Y-78075221D01*
X119180885Y-78013898D01*
X119185866Y-77944213D01*
X119193810Y-77922916D01*
X119235676Y-77866985D01*
X119301139Y-77842565D01*
X119369413Y-77857414D01*
X119397672Y-77878568D01*
X119519599Y-78000495D01*
X119613507Y-78066250D01*
X119713165Y-78136032D01*
X119713167Y-78136033D01*
X119713170Y-78136035D01*
X119927337Y-78235903D01*
X120155592Y-78297063D01*
X120332034Y-78312500D01*
X120390999Y-78317659D01*
X120391000Y-78317659D01*
X120391001Y-78317659D01*
X120449966Y-78312500D01*
X120626408Y-78297063D01*
X120854663Y-78235903D01*
X121068830Y-78136035D01*
X121262401Y-78000495D01*
X121429495Y-77833401D01*
X121530260Y-77689494D01*
X136372100Y-77689494D01*
X136372100Y-77689507D01*
X136391264Y-77920798D01*
X136391266Y-77920809D01*
X136448242Y-78145801D01*
X136541475Y-78358349D01*
X136668416Y-78552648D01*
X136668419Y-78552652D01*
X136668421Y-78552654D01*
X136825616Y-78723414D01*
X136825619Y-78723416D01*
X136825622Y-78723419D01*
X137008765Y-78865965D01*
X137008771Y-78865969D01*
X137008774Y-78865971D01*
X137212897Y-78976437D01*
X137326887Y-79015569D01*
X137432415Y-79051798D01*
X137432417Y-79051798D01*
X137432419Y-79051799D01*
X137661351Y-79090001D01*
X137661352Y-79090001D01*
X137893448Y-79090001D01*
X137893449Y-79090001D01*
X138122381Y-79051799D01*
X138341903Y-78976437D01*
X138546026Y-78865971D01*
X138729184Y-78723414D01*
X138886379Y-78552654D01*
X139013324Y-78358350D01*
X139106557Y-78145801D01*
X139163534Y-77920806D01*
X139168583Y-77859872D01*
X139182700Y-77689507D01*
X139182700Y-77689494D01*
X139872100Y-77689494D01*
X139872100Y-77689507D01*
X139891264Y-77920798D01*
X139891266Y-77920809D01*
X139948242Y-78145801D01*
X140041475Y-78358349D01*
X140168416Y-78552648D01*
X140168419Y-78552652D01*
X140168421Y-78552654D01*
X140325616Y-78723414D01*
X140325619Y-78723416D01*
X140325622Y-78723419D01*
X140508765Y-78865965D01*
X140508771Y-78865969D01*
X140508774Y-78865971D01*
X140712897Y-78976437D01*
X140826887Y-79015569D01*
X140932415Y-79051798D01*
X140932417Y-79051798D01*
X140932419Y-79051799D01*
X141161351Y-79090001D01*
X141161352Y-79090001D01*
X141393448Y-79090001D01*
X141393449Y-79090001D01*
X141622381Y-79051799D01*
X141841903Y-78976437D01*
X142046026Y-78865971D01*
X142229184Y-78723414D01*
X142386379Y-78552654D01*
X142513324Y-78358350D01*
X142606557Y-78145801D01*
X142663534Y-77920806D01*
X142668583Y-77859872D01*
X142682700Y-77689507D01*
X142682700Y-77689494D01*
X143372100Y-77689494D01*
X143372100Y-77689507D01*
X143391264Y-77920798D01*
X143391266Y-77920809D01*
X143448242Y-78145801D01*
X143541475Y-78358349D01*
X143668416Y-78552648D01*
X143668419Y-78552652D01*
X143668421Y-78552654D01*
X143825616Y-78723414D01*
X143825619Y-78723416D01*
X143825622Y-78723419D01*
X144008765Y-78865965D01*
X144008771Y-78865969D01*
X144008774Y-78865971D01*
X144212897Y-78976437D01*
X144326887Y-79015569D01*
X144432415Y-79051798D01*
X144432417Y-79051798D01*
X144432419Y-79051799D01*
X144661351Y-79090001D01*
X144661352Y-79090001D01*
X144893448Y-79090001D01*
X144893449Y-79090001D01*
X145122381Y-79051799D01*
X145341903Y-78976437D01*
X145546026Y-78865971D01*
X145729184Y-78723414D01*
X145886379Y-78552654D01*
X146013324Y-78358350D01*
X146106557Y-78145801D01*
X146163534Y-77920806D01*
X146168583Y-77859872D01*
X146182700Y-77689507D01*
X146182700Y-77689494D01*
X146163535Y-77458203D01*
X146163533Y-77458192D01*
X146106557Y-77233200D01*
X146013324Y-77020652D01*
X145886383Y-76826353D01*
X145886380Y-76826350D01*
X145886379Y-76826348D01*
X145808396Y-76741636D01*
X146876900Y-76741636D01*
X146876900Y-78637371D01*
X146876901Y-78637377D01*
X146883308Y-78696984D01*
X146933602Y-78831829D01*
X146933606Y-78831836D01*
X147019852Y-78947045D01*
X147019855Y-78947048D01*
X147135064Y-79033294D01*
X147135071Y-79033298D01*
X147269917Y-79083592D01*
X147269916Y-79083592D01*
X147276844Y-79084336D01*
X147329527Y-79090001D01*
X149225272Y-79090000D01*
X149284883Y-79083592D01*
X149419731Y-79033297D01*
X149534946Y-78947047D01*
X149621196Y-78831832D01*
X149671491Y-78696984D01*
X149677900Y-78637374D01*
X149677899Y-76741629D01*
X149671491Y-76682018D01*
X149661633Y-76655588D01*
X149621197Y-76547172D01*
X149621193Y-76547165D01*
X149534947Y-76431956D01*
X149534944Y-76431953D01*
X149419735Y-76345707D01*
X149419728Y-76345703D01*
X149284882Y-76295409D01*
X149284883Y-76295409D01*
X149225283Y-76289002D01*
X149225281Y-76289001D01*
X149225273Y-76289001D01*
X149225264Y-76289001D01*
X147329529Y-76289001D01*
X147329523Y-76289002D01*
X147269916Y-76295409D01*
X147135071Y-76345703D01*
X147135064Y-76345707D01*
X147019855Y-76431953D01*
X147019852Y-76431956D01*
X146933606Y-76547165D01*
X146933602Y-76547172D01*
X146883308Y-76682018D01*
X146878516Y-76726596D01*
X146876901Y-76741624D01*
X146876900Y-76741636D01*
X145808396Y-76741636D01*
X145729184Y-76655588D01*
X145729179Y-76655584D01*
X145729177Y-76655582D01*
X145546034Y-76513036D01*
X145546028Y-76513032D01*
X145341904Y-76402565D01*
X145341895Y-76402562D01*
X145122384Y-76327203D01*
X144931850Y-76295409D01*
X144893449Y-76289001D01*
X144661351Y-76289001D01*
X144622950Y-76295409D01*
X144432415Y-76327203D01*
X144212904Y-76402562D01*
X144212895Y-76402565D01*
X144008771Y-76513032D01*
X144008765Y-76513036D01*
X143825622Y-76655582D01*
X143825619Y-76655585D01*
X143825616Y-76655587D01*
X143825616Y-76655588D01*
X143801286Y-76682018D01*
X143668416Y-76826353D01*
X143541475Y-77020652D01*
X143448242Y-77233200D01*
X143391266Y-77458192D01*
X143391264Y-77458203D01*
X143372100Y-77689494D01*
X142682700Y-77689494D01*
X142663535Y-77458203D01*
X142663533Y-77458192D01*
X142606557Y-77233200D01*
X142513324Y-77020652D01*
X142386383Y-76826353D01*
X142386380Y-76826350D01*
X142386379Y-76826348D01*
X142229184Y-76655588D01*
X142229179Y-76655584D01*
X142229177Y-76655582D01*
X142046034Y-76513036D01*
X142046028Y-76513032D01*
X141841904Y-76402565D01*
X141841895Y-76402562D01*
X141622384Y-76327203D01*
X141431850Y-76295409D01*
X141393449Y-76289001D01*
X141161351Y-76289001D01*
X141122950Y-76295409D01*
X140932415Y-76327203D01*
X140712904Y-76402562D01*
X140712895Y-76402565D01*
X140508771Y-76513032D01*
X140508765Y-76513036D01*
X140325622Y-76655582D01*
X140325619Y-76655585D01*
X140325616Y-76655587D01*
X140325616Y-76655588D01*
X140301286Y-76682018D01*
X140168416Y-76826353D01*
X140041475Y-77020652D01*
X139948242Y-77233200D01*
X139891266Y-77458192D01*
X139891264Y-77458203D01*
X139872100Y-77689494D01*
X139182700Y-77689494D01*
X139163535Y-77458203D01*
X139163533Y-77458192D01*
X139106557Y-77233200D01*
X139013324Y-77020652D01*
X138886383Y-76826353D01*
X138886380Y-76826350D01*
X138886379Y-76826348D01*
X138729184Y-76655588D01*
X138729179Y-76655584D01*
X138729177Y-76655582D01*
X138546034Y-76513036D01*
X138546028Y-76513032D01*
X138341904Y-76402565D01*
X138341895Y-76402562D01*
X138122384Y-76327203D01*
X137931850Y-76295409D01*
X137893449Y-76289001D01*
X137661351Y-76289001D01*
X137622950Y-76295409D01*
X137432415Y-76327203D01*
X137212904Y-76402562D01*
X137212895Y-76402565D01*
X137008771Y-76513032D01*
X137008765Y-76513036D01*
X136825622Y-76655582D01*
X136825619Y-76655585D01*
X136825616Y-76655587D01*
X136825616Y-76655588D01*
X136801286Y-76682018D01*
X136668416Y-76826353D01*
X136541475Y-77020652D01*
X136448242Y-77233200D01*
X136391266Y-77458192D01*
X136391264Y-77458203D01*
X136372100Y-77689494D01*
X121530260Y-77689494D01*
X121565035Y-77639830D01*
X121664903Y-77425663D01*
X121726063Y-77197408D01*
X121746659Y-76962000D01*
X121726063Y-76726592D01*
X121668842Y-76513036D01*
X121664905Y-76498344D01*
X121664904Y-76498343D01*
X121664903Y-76498337D01*
X121565035Y-76284171D01*
X121430791Y-76092449D01*
X121429494Y-76090597D01*
X121262402Y-75923506D01*
X121262395Y-75923501D01*
X121068834Y-75787967D01*
X121068830Y-75787965D01*
X121068828Y-75787964D01*
X120854663Y-75688097D01*
X120854659Y-75688096D01*
X120854655Y-75688094D01*
X120626413Y-75626938D01*
X120626403Y-75626936D01*
X120391001Y-75606341D01*
X120390999Y-75606341D01*
X120155596Y-75626936D01*
X120155586Y-75626938D01*
X119927344Y-75688094D01*
X119927335Y-75688098D01*
X119713171Y-75787964D01*
X119713169Y-75787965D01*
X119519600Y-75923503D01*
X119397673Y-76045430D01*
X119336350Y-76078914D01*
X119266658Y-76073930D01*
X119210725Y-76032058D01*
X119193810Y-76001081D01*
X119144797Y-75869671D01*
X119144793Y-75869664D01*
X119058547Y-75754455D01*
X119058544Y-75754452D01*
X118943335Y-75668206D01*
X118943328Y-75668202D01*
X118808482Y-75617908D01*
X118808483Y-75617908D01*
X118748883Y-75611501D01*
X118748881Y-75611500D01*
X118748873Y-75611500D01*
X118748864Y-75611500D01*
X116953129Y-75611500D01*
X116953123Y-75611501D01*
X116893516Y-75617908D01*
X116758671Y-75668202D01*
X116758664Y-75668206D01*
X116643455Y-75754452D01*
X116643452Y-75754455D01*
X116557206Y-75869664D01*
X116557202Y-75869671D01*
X116506908Y-76004517D01*
X116500501Y-76064116D01*
X116500500Y-76064135D01*
X98455762Y-76064135D01*
X98455757Y-76064127D01*
X98339089Y-75862051D01*
X98177134Y-75650987D01*
X98177128Y-75650980D01*
X97989019Y-75462871D01*
X97989012Y-75462865D01*
X97777948Y-75300910D01*
X97547554Y-75167892D01*
X97547544Y-75167888D01*
X97475562Y-75138072D01*
X97301761Y-75066081D01*
X97301759Y-75066080D01*
X97301758Y-75066080D01*
X97225414Y-75045624D01*
X97044785Y-74997225D01*
X97044779Y-74997224D01*
X97044774Y-74997223D01*
X96781030Y-74962501D01*
X96781025Y-74962500D01*
X96781020Y-74962500D01*
X96514980Y-74962500D01*
X96514974Y-74962500D01*
X96514969Y-74962501D01*
X96251225Y-74997223D01*
X96251218Y-74997224D01*
X96251215Y-74997225D01*
X96174868Y-75017681D01*
X95994241Y-75066080D01*
X95748455Y-75167888D01*
X95748445Y-75167892D01*
X95518051Y-75300910D01*
X95306987Y-75462865D01*
X95306980Y-75462871D01*
X95118871Y-75650980D01*
X95118865Y-75650987D01*
X94956910Y-75862051D01*
X94823892Y-76092445D01*
X94823888Y-76092455D01*
X94722080Y-76338241D01*
X94653226Y-76595212D01*
X94653223Y-76595225D01*
X94618501Y-76858969D01*
X94618500Y-76858986D01*
X84500000Y-76858986D01*
X84500000Y-70000709D01*
X84500007Y-69999357D01*
X84501116Y-69897618D01*
X84501325Y-69878456D01*
X88145500Y-69878456D01*
X88145500Y-70121543D01*
X88145501Y-70121559D01*
X88177230Y-70362569D01*
X88240149Y-70597386D01*
X88333175Y-70821972D01*
X88333182Y-70821987D01*
X88454730Y-71032516D01*
X88602722Y-71225380D01*
X88602730Y-71225389D01*
X88774611Y-71397270D01*
X88774619Y-71397277D01*
X88967483Y-71545269D01*
X89178012Y-71666817D01*
X89178027Y-71666824D01*
X89274666Y-71706853D01*
X89402612Y-71759850D01*
X89637429Y-71822769D01*
X89878450Y-71854500D01*
X89878457Y-71854500D01*
X90121543Y-71854500D01*
X90121550Y-71854500D01*
X90362571Y-71822769D01*
X90597388Y-71759850D01*
X90821984Y-71666819D01*
X91032516Y-71545269D01*
X91225380Y-71397278D01*
X91225384Y-71397273D01*
X91225389Y-71397270D01*
X91397270Y-71225389D01*
X91397273Y-71225384D01*
X91397278Y-71225380D01*
X91545269Y-71032516D01*
X91666819Y-70821984D01*
X91751727Y-70616999D01*
X116500341Y-70616999D01*
X116500341Y-70617000D01*
X116520936Y-70852403D01*
X116520938Y-70852413D01*
X116582094Y-71080655D01*
X116582096Y-71080659D01*
X116582097Y-71080663D01*
X116649580Y-71225380D01*
X116681965Y-71294830D01*
X116681967Y-71294834D01*
X116726442Y-71358350D01*
X116817501Y-71488396D01*
X116817506Y-71488402D01*
X116939430Y-71610326D01*
X116972915Y-71671649D01*
X116967931Y-71741341D01*
X116926059Y-71797274D01*
X116895083Y-71814189D01*
X116763669Y-71863203D01*
X116763664Y-71863206D01*
X116648455Y-71949452D01*
X116648452Y-71949455D01*
X116562206Y-72064664D01*
X116562202Y-72064671D01*
X116511908Y-72199517D01*
X116505501Y-72259116D01*
X116505501Y-72259123D01*
X116505500Y-72259135D01*
X116505500Y-74054870D01*
X116505501Y-74054876D01*
X116511908Y-74114483D01*
X116562202Y-74249328D01*
X116562206Y-74249335D01*
X116648452Y-74364544D01*
X116648455Y-74364547D01*
X116763664Y-74450793D01*
X116763671Y-74450797D01*
X116898517Y-74501091D01*
X116898516Y-74501091D01*
X116905444Y-74501835D01*
X116958127Y-74507500D01*
X118753872Y-74507499D01*
X118813483Y-74501091D01*
X118948331Y-74450796D01*
X119063546Y-74364546D01*
X119149796Y-74249331D01*
X119200091Y-74114483D01*
X119206500Y-74054873D01*
X119206499Y-72259128D01*
X119200091Y-72199517D01*
X119159243Y-72089999D01*
X119149797Y-72064671D01*
X119149793Y-72064664D01*
X119063547Y-71949455D01*
X119063544Y-71949452D01*
X118948335Y-71863206D01*
X118948328Y-71863202D01*
X118816917Y-71814189D01*
X118760983Y-71772318D01*
X118736566Y-71706853D01*
X118751418Y-71638580D01*
X118772563Y-71610332D01*
X118894495Y-71488401D01*
X119030035Y-71294830D01*
X119129903Y-71080663D01*
X119191063Y-70852408D01*
X119205316Y-70689494D01*
X136372100Y-70689494D01*
X136372100Y-70689507D01*
X136391264Y-70920798D01*
X136391266Y-70920809D01*
X136448242Y-71145801D01*
X136541475Y-71358349D01*
X136668416Y-71552648D01*
X136668419Y-71552652D01*
X136668421Y-71552654D01*
X136825616Y-71723414D01*
X136825619Y-71723416D01*
X136825622Y-71723419D01*
X137008765Y-71865965D01*
X137008771Y-71865969D01*
X137008774Y-71865971D01*
X137212897Y-71976437D01*
X137326887Y-72015569D01*
X137432415Y-72051798D01*
X137432417Y-72051798D01*
X137432419Y-72051799D01*
X137661351Y-72090001D01*
X137661352Y-72090001D01*
X137893448Y-72090001D01*
X137893449Y-72090001D01*
X138122381Y-72051799D01*
X138341903Y-71976437D01*
X138546026Y-71865971D01*
X138549579Y-71863206D01*
X138666352Y-71772318D01*
X138729184Y-71723414D01*
X138886379Y-71552654D01*
X139013324Y-71358350D01*
X139106557Y-71145801D01*
X139163534Y-70920806D01*
X139163535Y-70920798D01*
X139182700Y-70689507D01*
X139182700Y-70689494D01*
X139872100Y-70689494D01*
X139872100Y-70689507D01*
X139891264Y-70920798D01*
X139891266Y-70920809D01*
X139948242Y-71145801D01*
X140041475Y-71358349D01*
X140168416Y-71552648D01*
X140168419Y-71552652D01*
X140168421Y-71552654D01*
X140325616Y-71723414D01*
X140325619Y-71723416D01*
X140325622Y-71723419D01*
X140508765Y-71865965D01*
X140508771Y-71865969D01*
X140508774Y-71865971D01*
X140712897Y-71976437D01*
X140826887Y-72015569D01*
X140932415Y-72051798D01*
X140932417Y-72051798D01*
X140932419Y-72051799D01*
X141161351Y-72090001D01*
X141161352Y-72090001D01*
X141393448Y-72090001D01*
X141393449Y-72090001D01*
X141622381Y-72051799D01*
X141841903Y-71976437D01*
X142046026Y-71865971D01*
X142049579Y-71863206D01*
X142166352Y-71772318D01*
X142229184Y-71723414D01*
X142386379Y-71552654D01*
X142513324Y-71358350D01*
X142606557Y-71145801D01*
X142663534Y-70920806D01*
X142663535Y-70920798D01*
X142682700Y-70689507D01*
X142682700Y-70689494D01*
X143372100Y-70689494D01*
X143372100Y-70689507D01*
X143391264Y-70920798D01*
X143391266Y-70920809D01*
X143448242Y-71145801D01*
X143541475Y-71358349D01*
X143668416Y-71552648D01*
X143668419Y-71552652D01*
X143668421Y-71552654D01*
X143825616Y-71723414D01*
X143825619Y-71723416D01*
X143825622Y-71723419D01*
X144008765Y-71865965D01*
X144008771Y-71865969D01*
X144008774Y-71865971D01*
X144212897Y-71976437D01*
X144326887Y-72015569D01*
X144432415Y-72051798D01*
X144432417Y-72051798D01*
X144432419Y-72051799D01*
X144661351Y-72090001D01*
X144661352Y-72090001D01*
X144893448Y-72090001D01*
X144893449Y-72090001D01*
X145122381Y-72051799D01*
X145341903Y-71976437D01*
X145546026Y-71865971D01*
X145549579Y-71863206D01*
X145666352Y-71772318D01*
X145729184Y-71723414D01*
X145886379Y-71552654D01*
X146013324Y-71358350D01*
X146106557Y-71145801D01*
X146163534Y-70920806D01*
X146163535Y-70920798D01*
X146182700Y-70689507D01*
X146182700Y-70689494D01*
X146163535Y-70458203D01*
X146163533Y-70458192D01*
X146106557Y-70233200D01*
X146013324Y-70020652D01*
X145886383Y-69826353D01*
X145886380Y-69826350D01*
X145886379Y-69826348D01*
X145808396Y-69741636D01*
X146876900Y-69741636D01*
X146876900Y-71637371D01*
X146876901Y-71637377D01*
X146883308Y-71696984D01*
X146933602Y-71831829D01*
X146933606Y-71831836D01*
X147019852Y-71947045D01*
X147019855Y-71947048D01*
X147135064Y-72033294D01*
X147135071Y-72033298D01*
X147269917Y-72083592D01*
X147269916Y-72083592D01*
X147276844Y-72084336D01*
X147329527Y-72090001D01*
X149225272Y-72090000D01*
X149284883Y-72083592D01*
X149419731Y-72033297D01*
X149534946Y-71947047D01*
X149621196Y-71831832D01*
X149671491Y-71696984D01*
X149677900Y-71637374D01*
X149677899Y-69741629D01*
X149671491Y-69682018D01*
X149668873Y-69675000D01*
X149621197Y-69547172D01*
X149621193Y-69547165D01*
X149534947Y-69431956D01*
X149534944Y-69431953D01*
X149419735Y-69345707D01*
X149419728Y-69345703D01*
X149284882Y-69295409D01*
X149284883Y-69295409D01*
X149225283Y-69289002D01*
X149225281Y-69289001D01*
X149225273Y-69289001D01*
X149225264Y-69289001D01*
X147329529Y-69289001D01*
X147329523Y-69289002D01*
X147269916Y-69295409D01*
X147135071Y-69345703D01*
X147135064Y-69345707D01*
X147019855Y-69431953D01*
X147019852Y-69431956D01*
X146933606Y-69547165D01*
X146933602Y-69547172D01*
X146883308Y-69682018D01*
X146877474Y-69736286D01*
X146876901Y-69741624D01*
X146876900Y-69741636D01*
X145808396Y-69741636D01*
X145729184Y-69655588D01*
X145729179Y-69655584D01*
X145729177Y-69655582D01*
X145546034Y-69513036D01*
X145546028Y-69513032D01*
X145341904Y-69402565D01*
X145341895Y-69402562D01*
X145122384Y-69327203D01*
X144931850Y-69295409D01*
X144893449Y-69289001D01*
X144661351Y-69289001D01*
X144622950Y-69295409D01*
X144432415Y-69327203D01*
X144212904Y-69402562D01*
X144212895Y-69402565D01*
X144008771Y-69513032D01*
X144008765Y-69513036D01*
X143825622Y-69655582D01*
X143825619Y-69655585D01*
X143825616Y-69655587D01*
X143825616Y-69655588D01*
X143801286Y-69682018D01*
X143668416Y-69826353D01*
X143541475Y-70020652D01*
X143448242Y-70233200D01*
X143391266Y-70458192D01*
X143391264Y-70458203D01*
X143372100Y-70689494D01*
X142682700Y-70689494D01*
X142663535Y-70458203D01*
X142663533Y-70458192D01*
X142606557Y-70233200D01*
X142513324Y-70020652D01*
X142386383Y-69826353D01*
X142386380Y-69826350D01*
X142386379Y-69826348D01*
X142229184Y-69655588D01*
X142229179Y-69655584D01*
X142229177Y-69655582D01*
X142046034Y-69513036D01*
X142046028Y-69513032D01*
X141841904Y-69402565D01*
X141841895Y-69402562D01*
X141622384Y-69327203D01*
X141431850Y-69295409D01*
X141393449Y-69289001D01*
X141161351Y-69289001D01*
X141122950Y-69295409D01*
X140932415Y-69327203D01*
X140712904Y-69402562D01*
X140712895Y-69402565D01*
X140508771Y-69513032D01*
X140508765Y-69513036D01*
X140325622Y-69655582D01*
X140325619Y-69655585D01*
X140325616Y-69655587D01*
X140325616Y-69655588D01*
X140301286Y-69682018D01*
X140168416Y-69826353D01*
X140041475Y-70020652D01*
X139948242Y-70233200D01*
X139891266Y-70458192D01*
X139891264Y-70458203D01*
X139872100Y-70689494D01*
X139182700Y-70689494D01*
X139163535Y-70458203D01*
X139163533Y-70458192D01*
X139106557Y-70233200D01*
X139013324Y-70020652D01*
X138886383Y-69826353D01*
X138886380Y-69826350D01*
X138886379Y-69826348D01*
X138729184Y-69655588D01*
X138729179Y-69655584D01*
X138729177Y-69655582D01*
X138546034Y-69513036D01*
X138546028Y-69513032D01*
X138341904Y-69402565D01*
X138341895Y-69402562D01*
X138122384Y-69327203D01*
X137931850Y-69295409D01*
X137893449Y-69289001D01*
X137661351Y-69289001D01*
X137622950Y-69295409D01*
X137432415Y-69327203D01*
X137212904Y-69402562D01*
X137212895Y-69402565D01*
X137008771Y-69513032D01*
X137008765Y-69513036D01*
X136825622Y-69655582D01*
X136825619Y-69655585D01*
X136825616Y-69655587D01*
X136825616Y-69655588D01*
X136801286Y-69682018D01*
X136668416Y-69826353D01*
X136541475Y-70020652D01*
X136448242Y-70233200D01*
X136391266Y-70458192D01*
X136391264Y-70458203D01*
X136372100Y-70689494D01*
X119205316Y-70689494D01*
X119211659Y-70617000D01*
X119191063Y-70381592D01*
X119129903Y-70153337D01*
X119030035Y-69939171D01*
X119000943Y-69897622D01*
X118894494Y-69745597D01*
X118727402Y-69578506D01*
X118727395Y-69578501D01*
X118533834Y-69442967D01*
X118533830Y-69442965D01*
X118447295Y-69402613D01*
X118319663Y-69343097D01*
X118319659Y-69343096D01*
X118319655Y-69343094D01*
X118091413Y-69281938D01*
X118091403Y-69281936D01*
X117856001Y-69261341D01*
X117855999Y-69261341D01*
X117620596Y-69281936D01*
X117620586Y-69281938D01*
X117392344Y-69343094D01*
X117392337Y-69343096D01*
X117392337Y-69343097D01*
X117386744Y-69345705D01*
X117178171Y-69442964D01*
X117178169Y-69442965D01*
X116984597Y-69578505D01*
X116817505Y-69745597D01*
X116681965Y-69939169D01*
X116681964Y-69939171D01*
X116582098Y-70153335D01*
X116582094Y-70153344D01*
X116520938Y-70381586D01*
X116520936Y-70381596D01*
X116500341Y-70616999D01*
X91751727Y-70616999D01*
X91759850Y-70597388D01*
X91822769Y-70362571D01*
X91854500Y-70121550D01*
X91854500Y-69878450D01*
X91822769Y-69637429D01*
X91759850Y-69402612D01*
X91707584Y-69276432D01*
X91666824Y-69178027D01*
X91666817Y-69178012D01*
X91545269Y-68967483D01*
X91419661Y-68803790D01*
X91410610Y-68791994D01*
X103152392Y-68791994D01*
X103152392Y-68792005D01*
X103172789Y-69038165D01*
X103233428Y-69277623D01*
X103305954Y-69442967D01*
X103332652Y-69503831D01*
X103381439Y-69578505D01*
X103449067Y-69682018D01*
X103467755Y-69710621D01*
X103635052Y-69892355D01*
X103635055Y-69892357D01*
X103635058Y-69892360D01*
X103829971Y-70044067D01*
X103829977Y-70044071D01*
X103829980Y-70044073D01*
X104047221Y-70161638D01*
X104168536Y-70203285D01*
X104280846Y-70241842D01*
X104280848Y-70241842D01*
X104280850Y-70241843D01*
X104524494Y-70282500D01*
X104524495Y-70282500D01*
X104771505Y-70282500D01*
X104771506Y-70282500D01*
X105015150Y-70241843D01*
X105248779Y-70161638D01*
X105466020Y-70044073D01*
X105481888Y-70031723D01*
X105531476Y-69993126D01*
X105660948Y-69892355D01*
X105828245Y-69710621D01*
X105963348Y-69503831D01*
X106062572Y-69277623D01*
X106123210Y-69038169D01*
X106141758Y-68814331D01*
X106143608Y-68792005D01*
X106143608Y-68791994D01*
X106134155Y-68677922D01*
X111198500Y-68677922D01*
X111198500Y-68906077D01*
X111234192Y-69131426D01*
X111234192Y-69131429D01*
X111304694Y-69348412D01*
X111304696Y-69348415D01*
X111405964Y-69547165D01*
X111408279Y-69551707D01*
X111542377Y-69736279D01*
X111542381Y-69736284D01*
X111703715Y-69897618D01*
X111703720Y-69897622D01*
X111760908Y-69939171D01*
X111888296Y-70031723D01*
X112064609Y-70121559D01*
X112091587Y-70135305D01*
X112308571Y-70205807D01*
X112308572Y-70205807D01*
X112308575Y-70205808D01*
X112533922Y-70241500D01*
X112533923Y-70241500D01*
X112762077Y-70241500D01*
X112762078Y-70241500D01*
X112987425Y-70205808D01*
X112987428Y-70205807D01*
X112987429Y-70205807D01*
X113204412Y-70135305D01*
X113204412Y-70135304D01*
X113204415Y-70135304D01*
X113407704Y-70031723D01*
X113592286Y-69897617D01*
X113753617Y-69736286D01*
X113887723Y-69551704D01*
X113991304Y-69348415D01*
X114061808Y-69131425D01*
X114097500Y-68906078D01*
X114097500Y-68677922D01*
X114061808Y-68452575D01*
X114061807Y-68452571D01*
X114061807Y-68452570D01*
X113991305Y-68235587D01*
X113961571Y-68177231D01*
X113887723Y-68032296D01*
X113868905Y-68006395D01*
X113753622Y-67847720D01*
X113753618Y-67847715D01*
X113592284Y-67686381D01*
X113592279Y-67686377D01*
X113407707Y-67552279D01*
X113407706Y-67552278D01*
X113407704Y-67552277D01*
X113306059Y-67500486D01*
X113204412Y-67448694D01*
X112987428Y-67378192D01*
X112818414Y-67351423D01*
X112762078Y-67342500D01*
X112533922Y-67342500D01*
X112458806Y-67354397D01*
X112308573Y-67378192D01*
X112308570Y-67378192D01*
X112091587Y-67448694D01*
X111888292Y-67552279D01*
X111703720Y-67686377D01*
X111703715Y-67686381D01*
X111542381Y-67847715D01*
X111542377Y-67847720D01*
X111408279Y-68032292D01*
X111304694Y-68235587D01*
X111234192Y-68452570D01*
X111234192Y-68452573D01*
X111198500Y-68677922D01*
X106134155Y-68677922D01*
X106127924Y-68602722D01*
X106123210Y-68545831D01*
X106062572Y-68306377D01*
X105963348Y-68080169D01*
X105828245Y-67873379D01*
X105660948Y-67691645D01*
X105660943Y-67691641D01*
X105660941Y-67691639D01*
X105466028Y-67539932D01*
X105466022Y-67539928D01*
X105248780Y-67422362D01*
X105248771Y-67422359D01*
X105015153Y-67342157D01*
X104832417Y-67311664D01*
X104771506Y-67301500D01*
X104524494Y-67301500D01*
X104475765Y-67309631D01*
X104280846Y-67342157D01*
X104047228Y-67422359D01*
X104047219Y-67422362D01*
X103829977Y-67539928D01*
X103829971Y-67539932D01*
X103635058Y-67691639D01*
X103635055Y-67691642D01*
X103467752Y-67873382D01*
X103332650Y-68080172D01*
X103233428Y-68306376D01*
X103172789Y-68545834D01*
X103152392Y-68791994D01*
X91410610Y-68791994D01*
X91397278Y-68774620D01*
X91397277Y-68774619D01*
X91397270Y-68774611D01*
X91225389Y-68602730D01*
X91225380Y-68602722D01*
X91032516Y-68454730D01*
X90821987Y-68333182D01*
X90821972Y-68333175D01*
X90597386Y-68240149D01*
X90362569Y-68177230D01*
X90121559Y-68145501D01*
X90121556Y-68145500D01*
X90121550Y-68145500D01*
X89878450Y-68145500D01*
X89878444Y-68145500D01*
X89878440Y-68145501D01*
X89637430Y-68177230D01*
X89402613Y-68240149D01*
X89178027Y-68333175D01*
X89178012Y-68333182D01*
X88967483Y-68454730D01*
X88774619Y-68602722D01*
X88602722Y-68774619D01*
X88454730Y-68967483D01*
X88333182Y-69178012D01*
X88333175Y-69178027D01*
X88240149Y-69402613D01*
X88177230Y-69637430D01*
X88145501Y-69878440D01*
X88145500Y-69878456D01*
X84501325Y-69878456D01*
X84502565Y-69764696D01*
X84503029Y-69755266D01*
X84543984Y-69287150D01*
X84545396Y-69276432D01*
X84556874Y-69211335D01*
X84626876Y-68814331D01*
X84629208Y-68803812D01*
X84750663Y-68350534D01*
X84753903Y-68340258D01*
X84914398Y-67899303D01*
X84918519Y-67889353D01*
X85116835Y-67464063D01*
X85121815Y-67454496D01*
X85306277Y-67134999D01*
X159519341Y-67134999D01*
X159519341Y-67135000D01*
X159539936Y-67370403D01*
X159539938Y-67370413D01*
X159601094Y-67598655D01*
X159601096Y-67598659D01*
X159601097Y-67598663D01*
X159681004Y-67770023D01*
X159700965Y-67812830D01*
X159700967Y-67812834D01*
X159754547Y-67889353D01*
X159836501Y-68006396D01*
X159836506Y-68006402D01*
X159958430Y-68128326D01*
X159991915Y-68189649D01*
X159986931Y-68259341D01*
X159945059Y-68315274D01*
X159914083Y-68332189D01*
X159782669Y-68381203D01*
X159782664Y-68381206D01*
X159667455Y-68467452D01*
X159667452Y-68467455D01*
X159581206Y-68582664D01*
X159581202Y-68582671D01*
X159530908Y-68717517D01*
X159524501Y-68777116D01*
X159524500Y-68777135D01*
X159524500Y-70572870D01*
X159524501Y-70572876D01*
X159530908Y-70632483D01*
X159581202Y-70767328D01*
X159581206Y-70767335D01*
X159667452Y-70882544D01*
X159667455Y-70882547D01*
X159782664Y-70968793D01*
X159782671Y-70968797D01*
X159917517Y-71019091D01*
X159917516Y-71019091D01*
X159924444Y-71019835D01*
X159977127Y-71025500D01*
X161772872Y-71025499D01*
X161832483Y-71019091D01*
X161967331Y-70968796D01*
X162082546Y-70882546D01*
X162168796Y-70767331D01*
X162217810Y-70635916D01*
X162259681Y-70579984D01*
X162325145Y-70555566D01*
X162393418Y-70570417D01*
X162421673Y-70591569D01*
X162543599Y-70713495D01*
X162640384Y-70781265D01*
X162737165Y-70849032D01*
X162737167Y-70849033D01*
X162737170Y-70849035D01*
X162951337Y-70948903D01*
X163179592Y-71010063D01*
X163356034Y-71025500D01*
X163414999Y-71030659D01*
X163415000Y-71030659D01*
X163415001Y-71030659D01*
X163473966Y-71025500D01*
X163650408Y-71010063D01*
X163878663Y-70948903D01*
X164092830Y-70849035D01*
X164286401Y-70713495D01*
X164453495Y-70546401D01*
X164589035Y-70352830D01*
X164688903Y-70138663D01*
X164750063Y-69910408D01*
X164752859Y-69878456D01*
X178145500Y-69878456D01*
X178145500Y-70121543D01*
X178145501Y-70121559D01*
X178177230Y-70362569D01*
X178240149Y-70597386D01*
X178333175Y-70821972D01*
X178333182Y-70821987D01*
X178454730Y-71032516D01*
X178602722Y-71225380D01*
X178602730Y-71225389D01*
X178774611Y-71397270D01*
X178774619Y-71397277D01*
X178967483Y-71545269D01*
X179178012Y-71666817D01*
X179178027Y-71666824D01*
X179274666Y-71706853D01*
X179402612Y-71759850D01*
X179637429Y-71822769D01*
X179878450Y-71854500D01*
X179878457Y-71854500D01*
X180121543Y-71854500D01*
X180121550Y-71854500D01*
X180362571Y-71822769D01*
X180597388Y-71759850D01*
X180821984Y-71666819D01*
X181032516Y-71545269D01*
X181225380Y-71397278D01*
X181225384Y-71397273D01*
X181225389Y-71397270D01*
X181397270Y-71225389D01*
X181397273Y-71225384D01*
X181397278Y-71225380D01*
X181545269Y-71032516D01*
X181666819Y-70821984D01*
X181759850Y-70597388D01*
X181822769Y-70362571D01*
X181854500Y-70121550D01*
X181854500Y-69878450D01*
X181822769Y-69637429D01*
X181759850Y-69402612D01*
X181707584Y-69276432D01*
X181666824Y-69178027D01*
X181666817Y-69178012D01*
X181545269Y-68967483D01*
X181419661Y-68803790D01*
X181397278Y-68774620D01*
X181397277Y-68774619D01*
X181397270Y-68774611D01*
X181225389Y-68602730D01*
X181225380Y-68602722D01*
X181032516Y-68454730D01*
X180821987Y-68333182D01*
X180821972Y-68333175D01*
X180597386Y-68240149D01*
X180362569Y-68177230D01*
X180121559Y-68145501D01*
X180121556Y-68145500D01*
X180121550Y-68145500D01*
X179878450Y-68145500D01*
X179878444Y-68145500D01*
X179878440Y-68145501D01*
X179637430Y-68177230D01*
X179402613Y-68240149D01*
X179178027Y-68333175D01*
X179178012Y-68333182D01*
X178967483Y-68454730D01*
X178774619Y-68602722D01*
X178602722Y-68774619D01*
X178454730Y-68967483D01*
X178333182Y-69178012D01*
X178333175Y-69178027D01*
X178240149Y-69402613D01*
X178177230Y-69637430D01*
X178145501Y-69878440D01*
X178145500Y-69878456D01*
X164752859Y-69878456D01*
X164770659Y-69675000D01*
X164750063Y-69439592D01*
X164688903Y-69211337D01*
X164589035Y-68997171D01*
X164568248Y-68967483D01*
X164453494Y-68803597D01*
X164286402Y-68636506D01*
X164286396Y-68636501D01*
X164100842Y-68506575D01*
X164057217Y-68451998D01*
X164050023Y-68382500D01*
X164081546Y-68320145D01*
X164100842Y-68303425D01*
X164191209Y-68240149D01*
X164286401Y-68173495D01*
X164453495Y-68006401D01*
X164589035Y-67812830D01*
X164688903Y-67598663D01*
X164750063Y-67370408D01*
X164770659Y-67135000D01*
X164750063Y-66899592D01*
X164688903Y-66671337D01*
X164589035Y-66457171D01*
X164583425Y-66449158D01*
X164453494Y-66263597D01*
X164286402Y-66096506D01*
X164286395Y-66096501D01*
X164092834Y-65960967D01*
X164092830Y-65960965D01*
X164092828Y-65960964D01*
X163878663Y-65861097D01*
X163878659Y-65861096D01*
X163878655Y-65861094D01*
X163650413Y-65799938D01*
X163650403Y-65799936D01*
X163415001Y-65779341D01*
X163414999Y-65779341D01*
X163179596Y-65799936D01*
X163179586Y-65799938D01*
X162951344Y-65861094D01*
X162951335Y-65861098D01*
X162737171Y-65960964D01*
X162737169Y-65960965D01*
X162543597Y-66096505D01*
X162376505Y-66263597D01*
X162246575Y-66449158D01*
X162191998Y-66492783D01*
X162122500Y-66499977D01*
X162060145Y-66468454D01*
X162043425Y-66449158D01*
X161913494Y-66263597D01*
X161746402Y-66096506D01*
X161746395Y-66096501D01*
X161552834Y-65960967D01*
X161552830Y-65960965D01*
X161552828Y-65960964D01*
X161338663Y-65861097D01*
X161338659Y-65861096D01*
X161338655Y-65861094D01*
X161110413Y-65799938D01*
X161110403Y-65799936D01*
X160875001Y-65779341D01*
X160874999Y-65779341D01*
X160639596Y-65799936D01*
X160639586Y-65799938D01*
X160411344Y-65861094D01*
X160411335Y-65861098D01*
X160197171Y-65960964D01*
X160197169Y-65960965D01*
X160003597Y-66096505D01*
X159836505Y-66263597D01*
X159700965Y-66457169D01*
X159700964Y-66457171D01*
X159601098Y-66671335D01*
X159601094Y-66671344D01*
X159539938Y-66899586D01*
X159539936Y-66899596D01*
X159519341Y-67134999D01*
X85306277Y-67134999D01*
X85356435Y-67048122D01*
X85362228Y-67039028D01*
X85631384Y-66654634D01*
X85637953Y-66646074D01*
X85939575Y-66286616D01*
X85946861Y-66278665D01*
X86278665Y-65946861D01*
X86286616Y-65939575D01*
X86646074Y-65637953D01*
X86654634Y-65631384D01*
X87039028Y-65362228D01*
X87048122Y-65356435D01*
X87454496Y-65121815D01*
X87464063Y-65116835D01*
X87889353Y-64918519D01*
X87899303Y-64914398D01*
X88340258Y-64753903D01*
X88350534Y-64750663D01*
X88803812Y-64629208D01*
X88814331Y-64626876D01*
X89276435Y-64545395D01*
X89287150Y-64543984D01*
X89755266Y-64503029D01*
X89764696Y-64502565D01*
X89999358Y-64500007D01*
X90000710Y-64500000D01*
X179999290Y-64500000D01*
X180000642Y-64500007D01*
G37*
%TD.AperFunction*%
%TD*%
M02*
