%TF.GenerationSoftware,KiCad,Pcbnew,8.0.2*%
%TF.CreationDate,2024-05-27T22:06:41+01:00*%
%TF.ProjectId,StepUp,53746570-5570-42e6-9b69-6361645f7063,v1.0*%
%TF.SameCoordinates,Original*%
%TF.FileFunction,Soldermask,Top*%
%TF.FilePolarity,Negative*%
%FSLAX46Y46*%
G04 Gerber Fmt 4.6, Leading zero omitted, Abs format (unit mm)*
G04 Created by KiCad (PCBNEW 8.0.2) date 2024-05-27 22:06:41*
%MOMM*%
%LPD*%
G01*
G04 APERTURE LIST*
G04 Aperture macros list*
%AMRoundRect*
0 Rectangle with rounded corners*
0 $1 Rounding radius*
0 $2 $3 $4 $5 $6 $7 $8 $9 X,Y pos of 4 corners*
0 Add a 4 corners polygon primitive as box body*
4,1,4,$2,$3,$4,$5,$6,$7,$8,$9,$2,$3,0*
0 Add four circle primitives for the rounded corners*
1,1,$1+$1,$2,$3*
1,1,$1+$1,$4,$5*
1,1,$1+$1,$6,$7*
1,1,$1+$1,$8,$9*
0 Add four rect primitives between the rounded corners*
20,1,$1+$1,$2,$3,$4,$5,0*
20,1,$1+$1,$4,$5,$6,$7,0*
20,1,$1+$1,$6,$7,$8,$9,0*
20,1,$1+$1,$8,$9,$2,$3,0*%
%AMFreePoly0*
4,1,19,0.500000,-0.750000,0.000000,-0.750000,0.000000,-0.744911,-0.071157,-0.744911,-0.207708,-0.704816,-0.327430,-0.627875,-0.420627,-0.520320,-0.479746,-0.390866,-0.500000,-0.250000,-0.500000,0.250000,-0.479746,0.390866,-0.420627,0.520320,-0.327430,0.627875,-0.207708,0.704816,-0.071157,0.744911,0.000000,0.744911,0.000000,0.750000,0.500000,0.750000,0.500000,-0.750000,0.500000,-0.750000,
$1*%
%AMFreePoly1*
4,1,19,0.000000,0.744911,0.071157,0.744911,0.207708,0.704816,0.327430,0.627875,0.420627,0.520320,0.479746,0.390866,0.500000,0.250000,0.500000,-0.250000,0.479746,-0.390866,0.420627,-0.520320,0.327430,-0.627875,0.207708,-0.704816,0.071157,-0.744911,0.000000,-0.744911,0.000000,-0.750000,-0.500000,-0.750000,-0.500000,0.750000,0.000000,0.750000,0.000000,0.744911,0.000000,0.744911,
$1*%
%AMFreePoly2*
4,1,19,0.550000,-0.750000,0.000000,-0.750000,0.000000,-0.744911,-0.071157,-0.744911,-0.207708,-0.704816,-0.327430,-0.627875,-0.420627,-0.520320,-0.479746,-0.390866,-0.500000,-0.250000,-0.500000,0.250000,-0.479746,0.390866,-0.420627,0.520320,-0.327430,0.627875,-0.207708,0.704816,-0.071157,0.744911,0.000000,0.744911,0.000000,0.750000,0.550000,0.750000,0.550000,-0.750000,0.550000,-0.750000,
$1*%
%AMFreePoly3*
4,1,19,0.000000,0.744911,0.071157,0.744911,0.207708,0.704816,0.327430,0.627875,0.420627,0.520320,0.479746,0.390866,0.500000,0.250000,0.500000,-0.250000,0.479746,-0.390866,0.420627,-0.520320,0.327430,-0.627875,0.207708,-0.704816,0.071157,-0.744911,0.000000,-0.744911,0.000000,-0.750000,-0.550000,-0.750000,-0.550000,0.750000,0.000000,0.750000,0.000000,0.744911,0.000000,0.744911,
$1*%
G04 Aperture macros list end*
%ADD10C,1.650000*%
%ADD11C,1.950000*%
%ADD12C,2.400000*%
%ADD13R,0.863600X0.787400*%
%ADD14RoundRect,0.250000X0.312500X0.625000X-0.312500X0.625000X-0.312500X-0.625000X0.312500X-0.625000X0*%
%ADD15C,3.550000*%
%ADD16C,2.390000*%
%ADD17C,2.184000*%
%ADD18FreePoly0,180.000000*%
%ADD19FreePoly1,180.000000*%
%ADD20RoundRect,0.150000X0.587500X0.150000X-0.587500X0.150000X-0.587500X-0.150000X0.587500X-0.150000X0*%
%ADD21RoundRect,0.140000X0.140000X0.170000X-0.140000X0.170000X-0.140000X-0.170000X0.140000X-0.170000X0*%
%ADD22RoundRect,0.140000X0.170000X-0.140000X0.170000X0.140000X-0.170000X0.140000X-0.170000X-0.140000X0*%
%ADD23RoundRect,0.135000X0.185000X-0.135000X0.185000X0.135000X-0.185000X0.135000X-0.185000X-0.135000X0*%
%ADD24RoundRect,0.140000X-0.170000X0.140000X-0.170000X-0.140000X0.170000X-0.140000X0.170000X0.140000X0*%
%ADD25O,1.000000X1.800000*%
%ADD26O,1.000000X2.100000*%
%ADD27RoundRect,0.150000X-0.150000X-0.425000X0.150000X-0.425000X0.150000X0.425000X-0.150000X0.425000X0*%
%ADD28RoundRect,0.075000X-0.075000X-0.500000X0.075000X-0.500000X0.075000X0.500000X-0.075000X0.500000X0*%
%ADD29C,0.650000*%
%ADD30RoundRect,0.140000X-0.140000X-0.170000X0.140000X-0.170000X0.140000X0.170000X-0.140000X0.170000X0*%
%ADD31RoundRect,0.200000X-0.200000X-0.275000X0.200000X-0.275000X0.200000X0.275000X-0.200000X0.275000X0*%
%ADD32RoundRect,0.225000X0.225000X0.250000X-0.225000X0.250000X-0.225000X-0.250000X0.225000X-0.250000X0*%
%ADD33RoundRect,0.200000X-0.275000X0.200000X-0.275000X-0.200000X0.275000X-0.200000X0.275000X0.200000X0*%
%ADD34RoundRect,0.200000X0.200000X0.275000X-0.200000X0.275000X-0.200000X-0.275000X0.200000X-0.275000X0*%
%ADD35RoundRect,0.225000X-0.225000X-0.250000X0.225000X-0.250000X0.225000X0.250000X-0.225000X0.250000X0*%
%ADD36RoundRect,0.200000X0.275000X-0.200000X0.275000X0.200000X-0.275000X0.200000X-0.275000X-0.200000X0*%
%ADD37R,1.000000X0.550000*%
%ADD38RoundRect,0.050000X0.387500X0.050000X-0.387500X0.050000X-0.387500X-0.050000X0.387500X-0.050000X0*%
%ADD39RoundRect,0.050000X0.050000X0.387500X-0.050000X0.387500X-0.050000X-0.387500X0.050000X-0.387500X0*%
%ADD40RoundRect,0.144000X1.456000X1.456000X-1.456000X1.456000X-1.456000X-1.456000X1.456000X-1.456000X0*%
%ADD41R,0.711200X1.219200*%
%ADD42C,3.200000*%
%ADD43R,1.753400X0.912000*%
%ADD44FreePoly2,270.000000*%
%ADD45R,1.500000X1.000000*%
%ADD46FreePoly3,270.000000*%
%ADD47RoundRect,0.062500X0.062500X-0.362500X0.062500X0.362500X-0.062500X0.362500X-0.062500X-0.362500X0*%
%ADD48R,2.500000X1.600000*%
%ADD49R,0.900000X0.950000*%
%ADD50RoundRect,0.150000X0.650000X0.150000X-0.650000X0.150000X-0.650000X-0.150000X0.650000X-0.150000X0*%
%ADD51R,1.200000X1.200000*%
%ADD52R,1.700000X1.700000*%
%ADD53O,1.700000X1.700000*%
%ADD54R,1.300000X3.400000*%
%ADD55RoundRect,0.250000X0.650000X-1.000000X0.650000X1.000000X-0.650000X1.000000X-0.650000X-1.000000X0*%
%ADD56RoundRect,0.150000X-0.825000X-0.150000X0.825000X-0.150000X0.825000X0.150000X-0.825000X0.150000X0*%
%ADD57RoundRect,0.250000X-0.250000X-0.475000X0.250000X-0.475000X0.250000X0.475000X-0.250000X0.475000X0*%
%ADD58FreePoly0,90.000000*%
%ADD59FreePoly1,90.000000*%
%ADD60RoundRect,0.225000X-0.250000X0.225000X-0.250000X-0.225000X0.250000X-0.225000X0.250000X0.225000X0*%
%ADD61R,0.889000X0.533400*%
%ADD62RoundRect,0.250000X0.250000X0.475000X-0.250000X0.475000X-0.250000X-0.475000X0.250000X-0.475000X0*%
%ADD63RoundRect,0.102000X0.900000X0.900000X-0.900000X0.900000X-0.900000X-0.900000X0.900000X-0.900000X0*%
%ADD64C,2.004000*%
%ADD65R,1.400000X1.200000*%
%ADD66RoundRect,0.250000X-0.312500X-0.625000X0.312500X-0.625000X0.312500X0.625000X-0.312500X0.625000X0*%
%ADD67RoundRect,0.375000X-0.625000X-0.375000X0.625000X-0.375000X0.625000X0.375000X-0.625000X0.375000X0*%
%ADD68RoundRect,0.500000X-0.500000X-1.400000X0.500000X-1.400000X0.500000X1.400000X-0.500000X1.400000X0*%
%ADD69RoundRect,0.135000X-0.185000X0.135000X-0.185000X-0.135000X0.185000X-0.135000X0.185000X0.135000X0*%
%ADD70R,0.762000X0.254000*%
%ADD71R,0.254000X0.762000*%
%ADD72R,1.701800X1.701800*%
%ADD73RoundRect,0.250000X0.475000X-0.250000X0.475000X0.250000X-0.475000X0.250000X-0.475000X-0.250000X0*%
%ADD74RoundRect,0.250000X-0.412500X-0.925000X0.412500X-0.925000X0.412500X0.925000X-0.412500X0.925000X0*%
%ADD75RoundRect,0.070000X0.300000X-0.650000X0.300000X0.650000X-0.300000X0.650000X-0.300000X-0.650000X0*%
%ADD76R,2.200000X2.150000*%
%ADD77RoundRect,0.250000X-0.475000X0.250000X-0.475000X-0.250000X0.475000X-0.250000X0.475000X0.250000X0*%
%ADD78RoundRect,0.070000X-0.525000X0.300000X-0.525000X-0.300000X0.525000X-0.300000X0.525000X0.300000X0*%
%ADD79R,0.950000X1.400000*%
%ADD80RoundRect,0.070000X-0.650000X-0.300000X0.650000X-0.300000X0.650000X0.300000X-0.650000X0.300000X0*%
%ADD81RoundRect,0.225000X0.250000X-0.225000X0.250000X0.225000X-0.250000X0.225000X-0.250000X-0.225000X0*%
%ADD82RoundRect,0.250000X0.450000X-0.400000X0.450000X0.400000X-0.450000X0.400000X-0.450000X-0.400000X0*%
%ADD83RoundRect,0.250000X-1.000000X-0.650000X1.000000X-0.650000X1.000000X0.650000X-1.000000X0.650000X0*%
%ADD84RoundRect,0.150000X0.150000X-0.512500X0.150000X0.512500X-0.150000X0.512500X-0.150000X-0.512500X0*%
%ADD85RoundRect,0.250000X-0.300000X-0.300000X0.300000X-0.300000X0.300000X0.300000X-0.300000X0.300000X0*%
G04 APERTURE END LIST*
D10*
%TO.C,JOY1*%
X155062500Y-112275000D03*
X152562500Y-112275000D03*
X150062500Y-112275000D03*
X161292500Y-123505000D03*
X161292500Y-121005000D03*
X161292500Y-118505000D03*
D11*
X149312500Y-126755000D03*
X155812500Y-126755000D03*
X149312500Y-131255000D03*
X155812500Y-131255000D03*
D12*
X158887500Y-116005000D03*
X146237500Y-116005000D03*
X146237500Y-126005000D03*
X158887500Y-126005000D03*
%TD*%
D13*
%TO.C,D3*%
X142760799Y-84429600D03*
X139458799Y-84429600D03*
%TD*%
D14*
%TO.C,R20*%
X151855900Y-96501001D03*
X148930900Y-96501001D03*
%TD*%
D15*
%TO.C,BT1*%
X112648000Y-132192000D03*
X96648000Y-76992000D03*
D16*
X112648000Y-68792000D03*
D17*
X104648000Y-141012000D03*
X104648000Y-68792000D03*
%TD*%
D18*
%TO.C,JP7*%
X160309000Y-83046000D03*
D19*
X159009000Y-83046000D03*
%TD*%
D20*
%TO.C,Q4*%
X118539500Y-81563000D03*
X118539500Y-79663000D03*
X116664500Y-80613000D03*
%TD*%
D21*
%TO.C,C10*%
X161380000Y-103100000D03*
X160420000Y-103100000D03*
%TD*%
D22*
%TO.C,C5*%
X166116000Y-98408000D03*
X166116000Y-97448000D03*
%TD*%
D23*
%TO.C,R6*%
X167012500Y-111290000D03*
X167012500Y-110270000D03*
%TD*%
D24*
%TO.C,C8*%
X164000000Y-110300000D03*
X164000000Y-111260000D03*
%TD*%
D25*
%TO.C,J1*%
X172214000Y-142045000D03*
D26*
X172214000Y-137865000D03*
D25*
X163574000Y-142045000D03*
D26*
X163574000Y-137865000D03*
D27*
X164694000Y-137290000D03*
X165494000Y-137290000D03*
D28*
X166144000Y-137290000D03*
X167144000Y-137290000D03*
X168644000Y-137290000D03*
X169644000Y-137290000D03*
D27*
X170294000Y-137290000D03*
X171094000Y-137290000D03*
X171094000Y-137290000D03*
X170294000Y-137290000D03*
D28*
X169144000Y-137290000D03*
X168144000Y-137290000D03*
X167644000Y-137290000D03*
X166644000Y-137290000D03*
D27*
X165494000Y-137290000D03*
X164694000Y-137290000D03*
D29*
X170784000Y-138365000D03*
X165004000Y-138365000D03*
%TD*%
D30*
%TO.C,C20*%
X146520000Y-98200000D03*
X147480000Y-98200000D03*
%TD*%
D31*
%TO.C,R34*%
X155172000Y-71380000D03*
X156822000Y-71380000D03*
%TD*%
D24*
%TO.C,C19*%
X143400000Y-99720000D03*
X143400000Y-100680000D03*
%TD*%
D32*
%TO.C,C40*%
X155075000Y-109750000D03*
X153525000Y-109750000D03*
%TD*%
D33*
%TO.C,R10*%
X143600000Y-107575000D03*
X143600000Y-109225000D03*
%TD*%
D23*
%TO.C,R2*%
X178950500Y-117989500D03*
X178950500Y-116969500D03*
%TD*%
D34*
%TO.C,R29*%
X123975000Y-98550000D03*
X122325000Y-98550000D03*
%TD*%
D23*
%TO.C,R5*%
X168535000Y-98438000D03*
X168535000Y-97418000D03*
%TD*%
%TO.C,R7*%
X166000000Y-111290000D03*
X166000000Y-110270000D03*
%TD*%
D13*
%TO.C,D8*%
X147218400Y-82143600D03*
X143916400Y-82143600D03*
%TD*%
%TO.C,D10*%
X150266400Y-82143600D03*
X153568400Y-82143600D03*
%TD*%
D35*
%TO.C,C37*%
X155828000Y-91268000D03*
X157378000Y-91268000D03*
%TD*%
D36*
%TO.C,R43*%
X173990000Y-82867000D03*
X173990000Y-81217000D03*
%TD*%
D22*
%TO.C,C16*%
X140400000Y-97730000D03*
X140400000Y-96770000D03*
%TD*%
D13*
%TO.C,D7*%
X143916400Y-84429600D03*
X147218400Y-84429600D03*
%TD*%
D36*
%TO.C,R41*%
X177038000Y-82867000D03*
X177038000Y-81217000D03*
%TD*%
%TO.C,R8*%
X133883400Y-107486001D03*
X133883400Y-105836001D03*
%TD*%
D34*
%TO.C,R32*%
X122237000Y-93218000D03*
X120587000Y-93218000D03*
%TD*%
D31*
%TO.C,R4*%
X159957000Y-141732000D03*
X161607000Y-141732000D03*
%TD*%
D32*
%TO.C,C29*%
X120575000Y-86524000D03*
X119025000Y-86524000D03*
%TD*%
D37*
%TO.C,Q3*%
X118332000Y-118448000D03*
X118332000Y-117148000D03*
X116432000Y-117798000D03*
%TD*%
D38*
%TO.C,U3*%
X171336500Y-106745000D03*
X171336500Y-106345000D03*
X171336500Y-105945000D03*
X171336500Y-105545000D03*
X171336500Y-105145000D03*
X171336500Y-104745000D03*
X171336500Y-104345000D03*
X171336500Y-103945000D03*
X171336500Y-103545000D03*
X171336500Y-103145000D03*
X171336500Y-102745000D03*
X171336500Y-102345000D03*
X171336500Y-101945000D03*
X171336500Y-101545000D03*
D39*
X170499000Y-100707500D03*
X170099000Y-100707500D03*
X169699000Y-100707500D03*
X169299000Y-100707500D03*
X168899000Y-100707500D03*
X168499000Y-100707500D03*
X168099000Y-100707500D03*
X167699000Y-100707500D03*
X167299000Y-100707500D03*
X166899000Y-100707500D03*
X166499000Y-100707500D03*
X166099000Y-100707500D03*
X165699000Y-100707500D03*
X165299000Y-100707500D03*
D38*
X164461500Y-101545000D03*
X164461500Y-101945000D03*
X164461500Y-102345000D03*
X164461500Y-102745000D03*
X164461500Y-103145000D03*
X164461500Y-103545000D03*
X164461500Y-103945000D03*
X164461500Y-104345000D03*
X164461500Y-104745000D03*
X164461500Y-105145000D03*
X164461500Y-105545000D03*
X164461500Y-105945000D03*
X164461500Y-106345000D03*
X164461500Y-106745000D03*
D39*
X165299000Y-107582500D03*
X165699000Y-107582500D03*
X166099000Y-107582500D03*
X166499000Y-107582500D03*
X166899000Y-107582500D03*
X167299000Y-107582500D03*
X167699000Y-107582500D03*
X168099000Y-107582500D03*
X168499000Y-107582500D03*
X168899000Y-107582500D03*
X169299000Y-107582500D03*
X169699000Y-107582500D03*
X170099000Y-107582500D03*
X170499000Y-107582500D03*
D40*
X167899000Y-104145000D03*
%TD*%
D31*
%TO.C,R3*%
X159957000Y-139954000D03*
X161607000Y-139954000D03*
%TD*%
D24*
%TO.C,C7*%
X168282500Y-111409500D03*
X168282500Y-112369500D03*
%TD*%
D31*
%TO.C,R23*%
X123773000Y-127920000D03*
X125423000Y-127920000D03*
%TD*%
D24*
%TO.C,C6*%
X165000000Y-110300000D03*
X165000000Y-111260000D03*
%TD*%
D41*
%TO.C,SW3*%
X87084100Y-91668600D03*
X91579900Y-91668600D03*
X91579900Y-82575400D03*
X87084100Y-82575400D03*
%TD*%
D34*
%TO.C,R39*%
X177717000Y-132652000D03*
X176067000Y-132652000D03*
%TD*%
D31*
%TO.C,R31*%
X120587000Y-94996000D03*
X122237000Y-94996000D03*
%TD*%
D42*
%TO.C,H1*%
X90000000Y-70000000D03*
%TD*%
D18*
%TO.C,JP4*%
X156792000Y-74932000D03*
D19*
X155492000Y-74932000D03*
%TD*%
D33*
%TO.C,R27*%
X116840000Y-93663000D03*
X116840000Y-95313000D03*
%TD*%
D43*
%TO.C,L1*%
X138963400Y-87612201D03*
X138963400Y-90403801D03*
%TD*%
D21*
%TO.C,C13*%
X162780000Y-106800000D03*
X161820000Y-106800000D03*
%TD*%
D31*
%TO.C,R38*%
X176070000Y-134176000D03*
X177720000Y-134176000D03*
%TD*%
D13*
%TO.C,D4*%
X139458799Y-82143600D03*
X142760799Y-82143600D03*
%TD*%
D44*
%TO.C,JP2*%
X130600000Y-117600000D03*
D45*
X130600000Y-118900000D03*
D46*
X130600000Y-120200000D03*
%TD*%
D47*
%TO.C,U8*%
X119369000Y-91245000D03*
X119869000Y-91245000D03*
X120369000Y-91245000D03*
X120869000Y-91245000D03*
X121369000Y-91245000D03*
X121869000Y-91245000D03*
X121869000Y-88395000D03*
X121369000Y-88395000D03*
X120869000Y-88395000D03*
X120369000Y-88395000D03*
X119869000Y-88395000D03*
X119369000Y-88395000D03*
D48*
X120619000Y-89820000D03*
%TD*%
D21*
%TO.C,C3*%
X171680000Y-116550000D03*
X170720000Y-116550000D03*
%TD*%
D20*
%TO.C,Q5*%
X167645000Y-84438000D03*
X167645000Y-82538000D03*
X165770000Y-83488000D03*
%TD*%
D33*
%TO.C,R28*%
X120450000Y-79875000D03*
X120450000Y-81525000D03*
%TD*%
D49*
%TO.C,D1*%
X90575000Y-124200000D03*
X87425000Y-124200000D03*
%TD*%
D21*
%TO.C,C14*%
X162780000Y-107816000D03*
X161820000Y-107816000D03*
%TD*%
D41*
%TO.C,SW1*%
X87084100Y-108153200D03*
X91579900Y-108153200D03*
X91579900Y-99060000D03*
X87084100Y-99060000D03*
%TD*%
D34*
%TO.C,R14*%
X141420001Y-105003400D03*
X139770001Y-105003400D03*
%TD*%
D43*
%TO.C,L4*%
X150139400Y-87612201D03*
X150139400Y-90403801D03*
%TD*%
D34*
%TO.C,R37*%
X157425000Y-89744000D03*
X155775000Y-89744000D03*
%TD*%
D50*
%TO.C,U2*%
X178864500Y-114986500D03*
X178864500Y-113716500D03*
X178864500Y-112446500D03*
X178864500Y-111176500D03*
X171664500Y-111176500D03*
X171664500Y-112446500D03*
X171664500Y-113716500D03*
X171664500Y-114986500D03*
%TD*%
D18*
%TO.C,JP5*%
X157395000Y-93300000D03*
D19*
X156095000Y-93300000D03*
%TD*%
D35*
%TO.C,C33*%
X116827000Y-96774000D03*
X118377000Y-96774000D03*
%TD*%
D51*
%TO.C,D12*%
X125370000Y-133360000D03*
X125370000Y-135460000D03*
%TD*%
D34*
%TO.C,R13*%
X138025000Y-100000000D03*
X136375000Y-100000000D03*
%TD*%
D21*
%TO.C,C21*%
X140713400Y-86207600D03*
X139753400Y-86207600D03*
%TD*%
D24*
%TO.C,C4*%
X169298500Y-111409500D03*
X169298500Y-112369500D03*
%TD*%
D18*
%TO.C,JP6*%
X177400000Y-129000000D03*
D19*
X176100000Y-129000000D03*
%TD*%
D52*
%TO.C,J4*%
X182880000Y-97706000D03*
D53*
X180340000Y-97706000D03*
X182880000Y-95166000D03*
X180340000Y-95166000D03*
X182880000Y-92626000D03*
X180340000Y-92626000D03*
X182880000Y-90086000D03*
X180340000Y-90086000D03*
X182880000Y-87546000D03*
X180340000Y-87546000D03*
X182880000Y-85006000D03*
X180340000Y-85006000D03*
%TD*%
D32*
%TO.C,C38*%
X177667000Y-131132000D03*
X176117000Y-131132000D03*
%TD*%
D54*
%TO.C,BZ1*%
X159050000Y-76800000D03*
X167750000Y-76800000D03*
%TD*%
D31*
%TO.C,R26*%
X116325000Y-83300000D03*
X117975000Y-83300000D03*
%TD*%
D55*
%TO.C,D13*%
X130250000Y-93200000D03*
X130250000Y-89200000D03*
%TD*%
D34*
%TO.C,R46*%
X163898000Y-83050000D03*
X162248000Y-83050000D03*
%TD*%
D56*
%TO.C,U4*%
X133400000Y-117295000D03*
X133400000Y-118565000D03*
X133400000Y-119835000D03*
X133400000Y-121105000D03*
X138350000Y-121105000D03*
X138350000Y-119835000D03*
X138350000Y-118565000D03*
X138350000Y-117295000D03*
%TD*%
D21*
%TO.C,C2*%
X167358000Y-95924000D03*
X166398000Y-95924000D03*
%TD*%
D41*
%TO.C,SW2*%
X87084100Y-121640600D03*
X91579900Y-121640600D03*
X91579900Y-112547400D03*
X87084100Y-112547400D03*
%TD*%
D57*
%TO.C,C25*%
X118210000Y-115284000D03*
X120110000Y-115284000D03*
%TD*%
D42*
%TO.C,H2*%
X90000000Y-140000000D03*
%TD*%
D58*
%TO.C,JP1*%
X89408000Y-96012000D03*
D59*
X89408000Y-94712000D03*
%TD*%
D60*
%TO.C,C32*%
X118364000Y-93713000D03*
X118364000Y-95263000D03*
%TD*%
D30*
%TO.C,C1*%
X168938000Y-95924000D03*
X169898000Y-95924000D03*
%TD*%
D43*
%TO.C,L2*%
X136423400Y-87612201D03*
X136423400Y-90403801D03*
%TD*%
D61*
%TO.C,LED2*%
X176809400Y-75780900D03*
X175514000Y-75780900D03*
X174218600Y-75780900D03*
X176809400Y-79159100D03*
X175514000Y-79159100D03*
X174218600Y-79159100D03*
%TD*%
D34*
%TO.C,R12*%
X138025000Y-101600000D03*
X136375000Y-101600000D03*
%TD*%
D24*
%TO.C,C9*%
X172900000Y-107000000D03*
X172900000Y-107960000D03*
%TD*%
D30*
%TO.C,C15*%
X138420000Y-115900000D03*
X139380000Y-115900000D03*
%TD*%
D62*
%TO.C,C35*%
X125200000Y-91000000D03*
X123300000Y-91000000D03*
%TD*%
D34*
%TO.C,R16*%
X141420001Y-101955400D03*
X139770001Y-101955400D03*
%TD*%
D63*
%TO.C,J5*%
X148277400Y-77689501D03*
X148277400Y-70689501D03*
D64*
X144777400Y-77689501D03*
X144777400Y-70689501D03*
X141277400Y-77689501D03*
X141277400Y-70689501D03*
X137777400Y-77689501D03*
X137777400Y-70689501D03*
%TD*%
D30*
%TO.C,C24*%
X150957400Y-86207600D03*
X151917400Y-86207600D03*
%TD*%
D65*
%TO.C,Y1*%
X169248000Y-92534000D03*
X167048000Y-92534000D03*
X167048000Y-94234000D03*
X169248000Y-94234000D03*
%TD*%
D31*
%TO.C,R17*%
X147275000Y-103750000D03*
X148925000Y-103750000D03*
%TD*%
D66*
%TO.C,R19*%
X134706900Y-96501001D03*
X137631900Y-96501001D03*
%TD*%
D21*
%TO.C,C22*%
X135605400Y-86207600D03*
X134645400Y-86207600D03*
%TD*%
D67*
%TO.C,U6*%
X118008000Y-108190000D03*
X118008000Y-110490000D03*
D68*
X124308000Y-110490000D03*
D67*
X118008000Y-112790000D03*
%TD*%
D69*
%TO.C,R1*%
X177950500Y-116979500D03*
X177950500Y-117999500D03*
%TD*%
D22*
%TO.C,C12*%
X167265000Y-98408000D03*
X167265000Y-97448000D03*
%TD*%
D31*
%TO.C,R36*%
X155775000Y-88220000D03*
X157425000Y-88220000D03*
%TD*%
D70*
%TO.C,U5*%
X141960600Y-96100999D03*
X141960600Y-96501001D03*
X141960600Y-96901000D03*
X141960600Y-97300999D03*
X141960600Y-97701001D03*
D71*
X142582999Y-98323400D03*
X142983001Y-98323400D03*
X143383000Y-98323400D03*
X143782999Y-98323400D03*
X144183001Y-98323400D03*
D70*
X144805400Y-97701001D03*
X144805400Y-97300999D03*
X144805400Y-96901000D03*
X144805400Y-96501001D03*
X144805400Y-96100999D03*
D71*
X144183001Y-95478600D03*
X143782999Y-95478600D03*
X143383000Y-95478600D03*
X142983001Y-95478600D03*
X142582999Y-95478600D03*
D72*
X143383000Y-96901000D03*
%TD*%
D33*
%TO.C,R11*%
X143700000Y-102175000D03*
X143700000Y-103825000D03*
%TD*%
%TO.C,R25*%
X123398000Y-133195000D03*
X123398000Y-134845000D03*
%TD*%
D31*
%TO.C,R35*%
X155775000Y-86700000D03*
X157425000Y-86700000D03*
%TD*%
D52*
%TO.C,J8*%
X117852000Y-129337000D03*
D53*
X117852000Y-131877000D03*
%TD*%
D73*
%TO.C,C31*%
X120798000Y-131804000D03*
X120798000Y-129904000D03*
%TD*%
D74*
%TO.C,C26*%
X123262500Y-79650000D03*
X126337500Y-79650000D03*
%TD*%
D34*
%TO.C,R15*%
X141420001Y-103479400D03*
X139770001Y-103479400D03*
%TD*%
D13*
%TO.C,D9*%
X153568400Y-84429600D03*
X150266400Y-84429600D03*
%TD*%
D35*
%TO.C,C36*%
X155225000Y-72900000D03*
X156775000Y-72900000D03*
%TD*%
D73*
%TO.C,C30*%
X127200000Y-110350000D03*
X127200000Y-108450000D03*
%TD*%
D22*
%TO.C,C18*%
X142659001Y-92409001D03*
X142659001Y-91449001D03*
%TD*%
D75*
%TO.C,Q1*%
X139864400Y-109261001D03*
X141764400Y-109261001D03*
X140814400Y-107161001D03*
%TD*%
D52*
%TO.C,J9*%
X130561000Y-96774000D03*
D53*
X128021000Y-96774000D03*
%TD*%
D42*
%TO.C,H4*%
X180000000Y-140000000D03*
%TD*%
D76*
%TO.C,L5*%
X125400000Y-82800000D03*
X125400000Y-87600000D03*
%TD*%
D32*
%TO.C,C34*%
X122187000Y-96774000D03*
X120637000Y-96774000D03*
%TD*%
D34*
%TO.C,R21*%
X122657000Y-120226000D03*
X121007000Y-120226000D03*
%TD*%
D30*
%TO.C,C11*%
X174020000Y-102800000D03*
X174980000Y-102800000D03*
%TD*%
D34*
%TO.C,R9*%
X137248400Y-109455001D03*
X135598400Y-109455001D03*
%TD*%
%TO.C,R33*%
X156822000Y-69856000D03*
X155172000Y-69856000D03*
%TD*%
%TO.C,R40*%
X125031000Y-73152000D03*
X123381000Y-73152000D03*
%TD*%
D77*
%TO.C,C28*%
X127402000Y-129650000D03*
X127402000Y-131550000D03*
%TD*%
D78*
%TO.C,U7*%
X122750000Y-129650000D03*
X122750000Y-130600000D03*
X122750000Y-131550000D03*
X125450000Y-131550000D03*
X125450000Y-129650000D03*
%TD*%
D33*
%TO.C,R45*%
X169423000Y-82475000D03*
X169423000Y-84125000D03*
%TD*%
D79*
%TO.C,LED1*%
X128850000Y-73100000D03*
X126950000Y-73100000D03*
%TD*%
D13*
%TO.C,D5*%
X132740400Y-84429600D03*
X136042400Y-84429600D03*
%TD*%
D33*
%TO.C,R30*%
X123952000Y-94933000D03*
X123952000Y-96583000D03*
%TD*%
D52*
%TO.C,J6*%
X125800000Y-120175000D03*
D53*
X125800000Y-117635000D03*
%TD*%
D80*
%TO.C,Q2*%
X135627400Y-105711001D03*
X135627400Y-107611001D03*
X137727400Y-106661001D03*
%TD*%
D52*
%TO.C,J10*%
X160875000Y-69675000D03*
D53*
X160875000Y-67135000D03*
X163415000Y-69675000D03*
X163415000Y-67135000D03*
X165955000Y-69675000D03*
X165955000Y-67135000D03*
%TD*%
D32*
%TO.C,C27*%
X120575000Y-85000000D03*
X119025000Y-85000000D03*
%TD*%
D33*
%TO.C,R18*%
X145750000Y-103675000D03*
X145750000Y-105325000D03*
%TD*%
D30*
%TO.C,C23*%
X145849400Y-86207600D03*
X146809400Y-86207600D03*
%TD*%
D52*
%TO.C,J2*%
X171704000Y-131567000D03*
D53*
X171704000Y-134107000D03*
%TD*%
D43*
%TO.C,L3*%
X147599400Y-87612201D03*
X147599400Y-90403801D03*
%TD*%
D81*
%TO.C,C39*%
X163450000Y-123525000D03*
X163450000Y-121975000D03*
%TD*%
D82*
%TO.C,D2*%
X133400000Y-93779000D03*
X133400000Y-90879000D03*
%TD*%
D52*
%TO.C,J11*%
X117856000Y-73157000D03*
D53*
X117856000Y-70617000D03*
%TD*%
D42*
%TO.C,H3*%
X180000000Y-70000000D03*
%TD*%
D52*
%TO.C,J12*%
X180330000Y-120800000D03*
D53*
X182870000Y-120800000D03*
X180330000Y-123340000D03*
X182870000Y-123340000D03*
X180330000Y-125880000D03*
X182870000Y-125880000D03*
%TD*%
D13*
%TO.C,D6*%
X136042400Y-82143600D03*
X132740400Y-82143600D03*
%TD*%
D31*
%TO.C,R44*%
X167836000Y-86348000D03*
X169486000Y-86348000D03*
%TD*%
D36*
%TO.C,R24*%
X117856000Y-89979000D03*
X117856000Y-88329000D03*
%TD*%
D83*
%TO.C,D14*%
X117600000Y-66950000D03*
X121600000Y-66950000D03*
%TD*%
D84*
%TO.C,U1*%
X166944000Y-134487500D03*
X167894000Y-134487500D03*
X168844000Y-134487500D03*
X168844000Y-132212500D03*
X167894000Y-132212500D03*
X166944000Y-132212500D03*
%TD*%
D81*
%TO.C,C17*%
X143929001Y-92704001D03*
X143929001Y-91154001D03*
%TD*%
D36*
%TO.C,R42*%
X175514000Y-82867000D03*
X175514000Y-81217000D03*
%TD*%
D52*
%TO.C,J7*%
X117851000Y-76962000D03*
D53*
X120391000Y-76962000D03*
%TD*%
D34*
%TO.C,R22*%
X119609000Y-120226000D03*
X117959000Y-120226000D03*
%TD*%
D85*
%TO.C,D11*%
X120178000Y-117570000D03*
X122978000Y-117570000D03*
%TD*%
D52*
%TO.C,J3*%
X182875000Y-106525000D03*
D53*
X180335000Y-106525000D03*
X182875000Y-103985000D03*
X180335000Y-103985000D03*
X182875000Y-101445000D03*
X180335000Y-101445000D03*
%TD*%
M02*
