M48
INCH
T1C0.0118
T2C0.0118
T3C0.0138
T4C0.0236
T5C0.0394
T6C0.0433
T7C0.0472
T8C0.0512
T9C0.0520
T10C0.0630
%
G90
G05
T1
X4.3307Y-4.8898
X4.3642Y-3.8484
X4.373Y-3.8986
X4.5787Y-3.3406
X4.5846Y-4.2559
X4.6437Y-3.3386
X4.6437Y-3.378
X4.6437Y-3.4193
X4.6457Y-4.2087
X4.6732Y-3.0984
X4.7067Y-4.2579
X4.7736Y-4.5394
X4.7913Y-3.439
X4.815Y-3.7756
X4.8583Y-2.6201
X4.8583Y-2.6555
X4.8681Y-4.7362
X4.88Y-3.8424
X4.9783Y-4.2283
X5.0217Y-3.0945
X5.0217Y-3.1299
X5.0217Y-3.1673
X5.0276Y-4.2264
X5.0866Y-4.8878
X5.1909Y-3.2323
X5.2205Y-4.2264
X5.25Y-4.7992
X5.2579Y-3.5295
X5.2598Y-3.7795
X5.2598Y-3.8051
X5.2598Y-3.8307
X5.2717Y-4.0413
X5.2854Y-3.5295
X5.2972Y-4.3091
X5.3091Y-3.6713
X5.3091Y-3.6969
X5.3091Y-3.7244
X5.3307Y-3.939
X5.3307Y-4.0
X5.3366Y-4.2657
X5.378Y-4.0669
X5.4331Y-4.0768
X5.4646Y-4.1398
X5.4685Y-3.7953
X5.4685Y-3.8209
X5.5827Y-3.7303
X5.5925Y-3.75
X5.6063Y-3.6693
X5.6142Y-3.9232
X5.6142Y-4.0
X5.624Y-3.5689
X5.626Y-3.7992
X5.626Y-3.8307
X5.628Y-3.685
X5.6398Y-4.128
X5.6417Y-3.2008
X5.6417Y-3.2657
X5.6535Y-3.687
X5.6555Y-3.5472
X5.6634Y-3.7992
X5.6634Y-3.8307
X5.6713Y-4.128
X5.6772Y-3.908
X5.6831Y-3.5492
X5.685Y-4.185
X5.6971Y-3.75
X5.707Y-3.7303
X5.7087Y-4.0236
X5.7113Y-3.9409
X5.7657Y-4.0236
X5.7795Y-4.1437
X5.8211Y-3.7953
X5.8211Y-3.8209
X5.8287Y-3.9783
X5.9134Y-4.063
X5.9665Y-4.0846
X5.9921Y-3.6713
X6.0039Y-4.1496
X6.0039Y-4.3189
X6.0118Y-4.1909
X6.0197Y-4.0413
X6.0217Y-3.8898
X6.0236Y-3.7736
X6.0236Y-3.7992
X6.0236Y-3.8248
X6.0512Y-3.1949
X6.061Y-3.8681
X6.122Y-4.1909
X6.1693Y-5.0906
X6.2028Y-3.2421
X6.2362Y-4.4724
X6.2598Y-4.4961
X6.2677Y-3.752
X6.2677Y-4.1496
X6.2795Y-4.1791
X6.2854Y-4.0591
X6.311Y-4.1791
X6.3209Y-3.8366
X6.3366Y-4.6102
X6.3445Y-4.252
X6.3465Y-4.2185
X6.3996Y-3.8681
X6.4134Y-4.3819
X6.4272Y-3.9173
X6.435Y-3.9606
X6.435Y-4.7618
X6.437Y-4.6752
X6.4567Y-4.4075
X6.4705Y-3.8781
X6.4862Y-3.9114
X6.4902Y-3.8524
X6.4941Y-4.4094
X6.5177Y-3.7756
X6.5433Y-3.8071
X6.573Y-3.9073
X6.5748Y-3.5925
X6.5748Y-3.8071
X6.5748Y-4.1811
X6.585Y-4.02
X6.6004Y-3.2795
X6.6102Y-5.3425
X6.6158Y-4.2854
X6.626Y-4.4469
X6.6548Y-3.9227
X6.6654Y-4.4469
X6.6713Y-3.2087
X6.7047Y-4.561
X6.7087Y-3.7087
X6.7087Y-3.752
X6.7579Y-4.6732
X6.7697Y-3.8346
X6.7776Y-4.252
X6.8031Y-3.9685
X6.8524Y-3.5217
X6.8563Y-4.1004
X6.8583Y-2.9547
X6.8583Y-3.9685
X6.874Y-5.0787
X6.8898Y-4.0177
X6.8907Y-4.0948
X6.9024Y-3.9462
X6.9055Y-3.5059
X6.9094Y-2.9547
X6.9298Y-3.9193
X6.935Y-4.0768
X6.939Y-4.6476
X6.9449Y-4.1319
X6.9469Y-3.4646
X6.9606Y-2.9547
X6.9685Y-4.0748
X7.0079Y-4.063
X7.0157Y-3.4783
X7.0295Y-3.9724
X7.0374Y-5.1614
X7.0374Y-5.2224
X7.0453Y-4.6732
T2
X4.7114Y-3.5165
X4.7114Y-3.5559
X4.7488Y-3.5165
X4.7488Y-3.5559
X4.7862Y-3.5165
X4.7862Y-3.5559
T3
X6.56Y-4.05
X6.56Y-4.1002
X6.56Y-4.1504
X6.6102Y-4.05
X6.6102Y-4.1002
X6.6102Y-4.1504
X6.6604Y-4.05
X6.6604Y-4.1002
X6.6604Y-4.1504
T5
X4.6398Y-3.03
X4.6398Y-5.092
X4.6398Y-5.192
X4.64Y-2.7802
X4.64Y-2.8802
X4.7398Y-3.03
X4.9528Y-4.6313
X4.9528Y-4.7313
X5.0402Y-3.81
X5.1402Y-3.81
X6.3337Y-2.6431
X6.3337Y-2.7431
X6.4337Y-2.6431
X6.4337Y-2.7431
X6.5337Y-2.6431
X6.5337Y-2.7431
X6.76Y-5.1798
X6.76Y-5.2798
X7.0996Y-4.7559
X7.0996Y-4.8559
X7.0996Y-4.9559
X7.0998Y-3.9939
X7.0998Y-4.0939
X7.0998Y-4.1939
X7.1Y-3.3467
X7.1Y-3.4467
X7.1Y-3.5467
X7.1Y-3.6467
X7.1Y-3.7467
X7.1Y-3.8467
X7.1996Y-4.7559
X7.1996Y-4.8559
X7.1996Y-4.9559
X7.1998Y-3.9939
X7.1998Y-4.0939
X7.1998Y-4.1939
X7.2Y-3.3467
X7.2Y-3.4467
X7.2Y-3.5467
X7.2Y-3.6467
X7.2Y-3.7467
X7.2Y-3.8467
T6
X5.908Y-4.4203
X6.0064Y-4.4203
X6.1048Y-4.4203
X6.3501Y-4.6656
X6.3501Y-4.764
X6.3501Y-4.8624
T7
X5.4243Y-2.7831
X5.4243Y-3.0586
X5.5621Y-2.7831
X5.5621Y-3.0586
X5.6999Y-2.7831
X5.6999Y-3.0586
X5.8377Y-2.7831
X5.8377Y-3.0586
T8
X5.8784Y-4.9904
X5.8784Y-5.1675
X6.1344Y-4.9904
X6.1344Y-5.1675
T9
X4.12Y-2.7083
X4.12Y-5.5517
T10
X5.7574Y-4.5671
X5.7574Y-4.9608
X6.2554Y-4.5671
X6.2554Y-4.9608
T4
G00X6.4399Y-5.4061
M15
G01X6.4399Y-5.4494
M16
G05
G00X6.4399Y-5.5766
M15
G01X6.4399Y-5.6081
M16
G05
G00X6.7801Y-5.4061
M15
G01X6.7801Y-5.4494
M16
G05
G00X6.7801Y-5.5766
M15
G01X6.7801Y-5.6081
M16
G05
M30
