M48
METRIC,TZ
T1C0.254
T2C0.300
T3C0.300
T4C0.600
T5C0.850
T6C0.900
T7C1.000
T8C1.100
T9C1.300
T10C1.400
T11C1.600
T12C1.830
%
G90
G05
T1
X61550Y-60350
X64000Y-73300
X71300Y-102800
X74600Y-101400
X74800Y-111900
X80400Y-112000
X86400Y-75700
X86600Y-76200
X86700Y-75200
X86900Y-75700
X89400Y-73800
X89700Y-74300
X90000Y-73900
X90600Y-78700
X92200Y-73900
X92400Y-74400
X92700Y-73800
X92800Y-79800
X95200Y-75700
X95500Y-75200
X95500Y-76200
X95700Y-75700
X99250Y-86950
T2
X59100Y-67500
X59100Y-69400
X59500Y-72900
X59600Y-88700
X60000Y-70900
X60000Y-72000
X60193Y-124255
X60300Y-84000
X60570Y-60350
X61200Y-84000
X64193Y-124255
X64600Y-78500
X65500Y-78600
X66067Y-83700
X67200Y-81100
X68193Y-84255
X68193Y-124255
X68193Y-128255
X69350Y-56200
X70100Y-104800
X70300Y-86700
X70900Y-68300
X71100Y-94700
X71300Y-64566
X72193Y-52255
X72193Y-56255
X72193Y-84255
X72193Y-96255
X74800Y-70200
X75900Y-69500
X75900Y-106600
X76193Y-56255
X76193Y-72255
X76193Y-84255
X76193Y-88255
X76193Y-100255
X76193Y-128255
X77100Y-106600
X77100Y-107600
X77450Y-110050
X78100Y-102600
X78100Y-103500
X78300Y-68500
X78600Y-117550
X78900Y-93700
X79800Y-125066
X80193Y-52255
X80193Y-56255
X80193Y-128255
X80242Y-106910
X80300Y-77100
X80400Y-101000
X80457Y-65100
X80500Y-113300
X80800Y-93700
X80800Y-96100
X81000Y-101600
X81025Y-111200
X81500Y-92900
X81877Y-72854
X81900Y-99600
X82400Y-98500
X82700Y-99600
X83000Y-92900
X83523Y-98777
X83900Y-78600
X83900Y-79900
X83900Y-105700
X84193Y-52255
X84193Y-128255
X84450Y-117800
X84800Y-84500
X85100Y-97200
X85300Y-116500
X85475Y-118700
X85525Y-117425
X85600Y-84200
X85693Y-102003
X85800Y-113423
X86519Y-111919
X86675Y-88850
X86900Y-116100
X87000Y-98700
X87200Y-126300
X87300Y-77300
X88100Y-105900
X88175Y-112725
X88193Y-52255
X88193Y-80255
X88193Y-92255
X89308Y-101108
X89600Y-65600
X89800Y-115600
X90400Y-69600
X90426Y-107633
X90500Y-72300
X90500Y-75350
X90500Y-76550
X90800Y-105500
X90900Y-65000
X91100Y-75950
X91200Y-72900
X91300Y-104000
X91427Y-100127
X91500Y-78800
X91600Y-112534
X91700Y-69100
X91700Y-75350
X91700Y-76550
X91800Y-116800
X91875Y-103400
X92193Y-52255
X92193Y-124255
X92500Y-65600
X92610Y-103197
X92850Y-77950
X93000Y-104200
X93100Y-85600
X93300Y-102700
X93453Y-76805
X94275Y-83200
X95050Y-83175
X95200Y-108200
X96000Y-77400
X96000Y-78300
X96100Y-95000
X96193Y-52255
X96193Y-124255
X96193Y-128255
X96200Y-108200
X97500Y-103200
X97900Y-90900
X98000Y-89100
X98700Y-104600
X99600Y-107000
X100000Y-116900
X100100Y-72900
X100100Y-113300
X100193Y-52255
X100193Y-80255
X100193Y-100255
X100193Y-124255
X100193Y-128255
X100500Y-115900
X101300Y-116500
X101500Y-107300
X101600Y-72900
X102300Y-107600
X103000Y-106700
X103309Y-115600
X103900Y-105600
X104193Y-92255
X104193Y-124255
X104193Y-128255
X105800Y-101800
X106100Y-96500
X107100Y-87900
X107700Y-71700
X108193Y-52255
X108193Y-60255
X108193Y-68255
X108193Y-80255
X108193Y-84255
X108193Y-124255
T3
X61761Y-75530
X61761Y-76530
X62711Y-75530
X62711Y-76530
X63661Y-75530
X63661Y-76530
X84730Y-105224
X84730Y-106499
X84730Y-107774
X86005Y-105224
X86005Y-106499
X86005Y-107774
X87280Y-105224
X87280Y-106499
X87280Y-107774
T5
X94300Y-117700
X94300Y-122700
T6
X105500Y-55100
X106770Y-55100
X108040Y-55100
X109310Y-55100
T7
X102700Y-114260
X102700Y-116800
X102700Y-119340
X105240Y-114260
X105240Y-116800
X105240Y-119340
X106005Y-76100
X106005Y-80600
X109100Y-101570
X109100Y-104110
X109100Y-106650
X109100Y-109190
X109100Y-111730
X109100Y-114270
X109100Y-116810
X109100Y-119350
T8
X96770Y-84770
X99270Y-84770
X101770Y-84770
X108000Y-91000
X108000Y-93500
X108000Y-96000
T9
X89020Y-90250
X89020Y-96750
X93520Y-90250
X93520Y-96750
X103515Y-74845
X103515Y-81855
T10
X83300Y-55950
X88300Y-55950
X93300Y-55950
X98300Y-55950
T11
X94270Y-87175
X94270Y-99825
X104270Y-87175
X104270Y-99825
T12
X63618Y-62720
X63618Y-108720
X66158Y-55100
X66158Y-116340
X68698Y-62720
X68698Y-108720
T4
G00X77738Y-122975
M15
G01X77738Y-124075
M16
G05
G00X77738Y-127305
M15
G01X77738Y-128105
M16
G05
G00X86378Y-122975
M15
G01X86378Y-124075
M16
G05
G00X86378Y-127305
M15
G01X86378Y-128105
M16
G05
M30
