M48
METRIC,TZ
T1C0.300
T2C0.300
T3C0.350
T4C0.600
T5C1.000
T6C1.100
T7C1.200
T8C1.300
T9C1.320
T10C1.600
%
G90
G05
T1
X110000Y-124200
X110850Y-97750
X111075Y-99025
X116300Y-84850
X116450Y-108100
X117950Y-84800
X117950Y-85800
X117950Y-86850
X118000Y-106900
X118700Y-78700
X119550Y-108150
X121250Y-115300
X121700Y-87350
X122300Y-95900
X123400Y-66550
X123400Y-67450
X123650Y-120300
X123952Y-97598
X126450Y-107400
X127550Y-78600
X127550Y-79500
X127550Y-80450
X127700Y-107350
X129200Y-124150
X131850Y-82100
X132600Y-107350
X133350Y-121900
X133550Y-89650
X133600Y-96000
X133600Y-96650
X133600Y-97300
X133900Y-102650
X134250Y-89650
X134550Y-109450
X134850Y-93250
X134850Y-93900
X134850Y-94600
X135400Y-100050
X135400Y-101600
X135550Y-108350
X136600Y-103300
X138000Y-103550
X138800Y-105150
X138900Y-96400
X138900Y-97050
X141800Y-94750
X142050Y-95250
X142400Y-93200
X142600Y-99650
X142600Y-101600
X142850Y-90650
X142900Y-96500
X142900Y-97300
X142950Y-93600
X143250Y-104850
X143300Y-81300
X143300Y-82950
X143600Y-93650
X143650Y-90100
X143850Y-96500
X143850Y-97300
X144050Y-104850
X144200Y-99263
X144350Y-90150
X144400Y-106300
X144707Y-95250
X144957Y-94750
X145000Y-102200
X145066Y-100100
X146450Y-102200
X146800Y-105250
X147857Y-96400
X147857Y-97050
X148050Y-101050
X150200Y-103200
X151550Y-103750
X152200Y-93250
X152500Y-105400
X152500Y-109700
X152700Y-106450
X152900Y-102650
X152950Y-98800
X153000Y-95850
X153000Y-96500
X153000Y-97150
X153700Y-81150
X153950Y-98250
X155500Y-106450
X156700Y-129300
X157550Y-82350
X158400Y-113600
X159000Y-114200
X159200Y-95300
X159200Y-105400
X159500Y-106150
X159650Y-103100
X160300Y-106150
X160550Y-97450
X160950Y-117100
X161150Y-108000
X161200Y-107150
X162550Y-98250
X162900Y-111300
X163250Y-99500
X163450Y-100600
X163450Y-120950
X163500Y-118750
X164000Y-111950
X164352Y-98503
X164750Y-99350
X164850Y-97850
X164950Y-112000
X165550Y-95900
X166200Y-96700
X166954Y-99246
X167000Y-91250
X167000Y-96700
X167000Y-106200
X167259Y-102108
X167650Y-83300
X167900Y-135700
X168042Y-108850
X168300Y-112950
X169033Y-99638
X169300Y-112950
X169450Y-81500
X170300Y-115850
X170400Y-94200
X170400Y-95300
X171650Y-118700
X171950Y-97400
X172150Y-108000
X172800Y-100800
X174050Y-89450
X174150Y-104150
X174200Y-75050
X174200Y-100800
X174600Y-129000
X175000Y-102050
X175023Y-104007
X175322Y-100234
X175400Y-89050
X175500Y-75050
X176018Y-99550
X176150Y-103550
X176250Y-118050
X176400Y-104950
X176450Y-88000
X176800Y-75050
X177000Y-103500
X178000Y-103200
X178200Y-88350
X178550Y-100900
X178750Y-131100
X178750Y-132650
X178950Y-118700
T2
X119669Y-89320
X119669Y-90320
X120619Y-89320
X120619Y-90320
X121569Y-89320
X121569Y-90320
T3
X166624Y-102870
X166624Y-104145
X166624Y-105420
X167899Y-102870
X167899Y-104145
X167899Y-105420
X169174Y-102870
X169174Y-104145
X169174Y-105420
T5
X117851Y-76962
X117852Y-129337
X117852Y-131877
X117856Y-70617
X117856Y-73157
X120391Y-76962
X125800Y-117635
X125800Y-120175
X128021Y-96774
X130561Y-96774
X160875Y-67135
X160875Y-69675
X163415Y-67135
X163415Y-69675
X165955Y-67135
X165955Y-69675
X171704Y-131567
X171704Y-134107
X180330Y-120800
X180330Y-123340
X180330Y-125880
X180335Y-101445
X180335Y-103985
X180335Y-106525
X180340Y-85006
X180340Y-87546
X180340Y-90086
X180340Y-92626
X180340Y-95166
X180340Y-97706
X182870Y-120800
X182870Y-123340
X182870Y-125880
X182875Y-101445
X182875Y-103985
X182875Y-106525
X182880Y-85006
X182880Y-87546
X182880Y-90086
X182880Y-92626
X182880Y-95166
X182880Y-97706
T6
X150063Y-112275
X152563Y-112275
X155063Y-112275
X161293Y-118505
X161293Y-121005
X161293Y-123505
T7
X137777Y-70690
X137777Y-77690
X141277Y-70690
X141277Y-77690
X144777Y-70690
X144777Y-77690
X148277Y-70690
X148277Y-77690
T8
X149313Y-126755
X149313Y-131255
X155813Y-126755
X155813Y-131255
T9
X104648Y-68792
X104648Y-141012
T10
X146237Y-116005
X146237Y-126005
X158888Y-116005
X158888Y-126005
T4
G00X163574Y-137315
M15
G01X163574Y-138415
M16
G05
G00X163574Y-141645
M15
G01X163574Y-142445
M16
G05
G00X172214Y-137315
M15
G01X172214Y-138415
M16
G05
G00X172214Y-141645
M15
G01X172214Y-142445
M16
G05
M30
