M48
METRIC,TZ
T1C0.300
T2C0.300
T3C0.600
T4C1.000
T5C1.100
T6C1.200
T7C1.300
T8C1.320
T9C1.600
T10C3.200
%
G90
G05
T1
X30562Y-34612
X30562Y-40612
X30562Y-46612
X30562Y-58612
X30562Y-64612
X30562Y-70612
X30562Y-76612
X30562Y-88612
X30562Y-94612
X36562Y-28612
X36562Y-40612
X36562Y-46612
X36562Y-52612
X36562Y-58612
X36562Y-64612
X36562Y-70612
X36562Y-76612
X36562Y-88612
X36562Y-94612
X36562Y-100612
X42562Y-28612
X42562Y-34612
X42562Y-40612
X42562Y-46612
X42562Y-52612
X42562Y-58612
X42562Y-64612
X42562Y-70612
X42562Y-76612
X42562Y-88612
X42562Y-94612
X42562Y-100612
X48562Y-34612
X48562Y-40612
X48562Y-46612
X48562Y-52612
X48562Y-58612
X48562Y-64612
X48562Y-70612
X48562Y-76612
X48562Y-88612
X48562Y-94612
X48562Y-100612
X50742Y-83210
X51592Y-56760
X51817Y-58035
X54562Y-34612
X54562Y-64612
X54562Y-70612
X54562Y-76612
X54562Y-88612
X54562Y-94612
X54562Y-100612
X56042Y-38860
X57042Y-43860
X57192Y-67110
X58692Y-43810
X58692Y-44810
X58692Y-45860
X58742Y-65910
X59442Y-37710
X60092Y-54260
X60092Y-55810
X60292Y-67160
X60562Y-28612
X60562Y-58612
X60562Y-64612
X60562Y-94612
X60562Y-100612
X61192Y-37860
X61192Y-87810
X61992Y-74310
X62150Y-89400
X62442Y-46360
X63042Y-54910
X63992Y-51360
X63992Y-52510
X64142Y-25560
X64142Y-26460
X64392Y-79310
X64694Y-56608
X64842Y-52860
X66562Y-34612
X66562Y-58612
X66562Y-64612
X66562Y-100612
X67192Y-66410
X67792Y-87560
X68292Y-37610
X68292Y-38510
X68292Y-39460
X68442Y-66360
X68642Y-87560
X69942Y-83160
X72562Y-28612
X72562Y-34612
X72562Y-58612
X72562Y-64612
X72562Y-88612
X72562Y-100612
X72592Y-41110
X73342Y-66360
X74092Y-80910
X74292Y-48660
X74342Y-55010
X74342Y-55660
X74342Y-56310
X74642Y-61660
X74992Y-48660
X75292Y-68460
X75592Y-52260
X75592Y-52910
X75592Y-53610
X76142Y-59060
X76142Y-60610
X76292Y-67360
X77342Y-62310
X78562Y-70612
X78562Y-88612
X78562Y-94612
X78742Y-62560
X79542Y-64160
X79642Y-55410
X79642Y-56060
X80792Y-74960
X82542Y-53760
X82792Y-54260
X83142Y-52210
X83342Y-58660
X83342Y-60610
X83592Y-49660
X83642Y-55510
X83642Y-56310
X83692Y-52610
X83992Y-63860
X84042Y-40310
X84042Y-41960
X84342Y-52660
X84392Y-49110
X84562Y-88612
X84562Y-94612
X84562Y-100612
X84592Y-55510
X84592Y-56310
X84792Y-63860
X84892Y-59760
X84942Y-58273
X85092Y-49160
X85142Y-65310
X85449Y-54260
X85699Y-53760
X85742Y-61210
X85808Y-59110
X87192Y-61210
X87542Y-64260
X88599Y-55410
X88599Y-56060
X88792Y-60060
X90562Y-58612
X90562Y-94612
X90562Y-100612
X90942Y-62210
X92292Y-62760
X92942Y-52260
X93242Y-64410
X93242Y-68710
X93442Y-65460
X93642Y-61660
X93692Y-57810
X93742Y-54860
X93742Y-55510
X93742Y-56160
X94442Y-40160
X94692Y-57260
X96242Y-65460
X96562Y-94612
X96562Y-100612
X97442Y-88310
X98292Y-41360
X99142Y-72610
X99742Y-73210
X99942Y-54310
X99942Y-64410
X100242Y-65160
X100392Y-62110
X101042Y-65160
X101292Y-56460
X101692Y-76110
X101892Y-67010
X101942Y-66160
X102562Y-34612
X102562Y-40612
X102562Y-46612
X102562Y-52612
X102562Y-94612
X103292Y-57260
X103642Y-70310
X103992Y-58510
X104192Y-59610
X104192Y-79960
X104242Y-77760
X104742Y-70960
X105094Y-57513
X105492Y-58360
X105592Y-56860
X105692Y-71010
X106292Y-54910
X106942Y-55710
X107342Y-65360
X107696Y-58256
X107742Y-50260
X107742Y-55710
X108001Y-61060
X108392Y-42310
X108562Y-28612
X108562Y-100612
X108642Y-94710
X108784Y-67860
X109042Y-71960
X109775Y-58648
X110042Y-71960
X110192Y-40510
X111042Y-74860
X111142Y-53210
X111142Y-54310
X112392Y-77710
X112692Y-56410
X112892Y-67010
X113542Y-59810
X114442Y-67060
X114562Y-28612
X114792Y-48460
X114892Y-63160
X114942Y-34060
X114942Y-59810
X115342Y-88010
X115742Y-61060
X115765Y-63017
X116064Y-59244
X116142Y-48060
X116242Y-34060
X116760Y-58560
X116892Y-62560
X116992Y-77060
X117142Y-63960
X117192Y-47010
X117542Y-34060
X117742Y-62510
X118742Y-62210
X118942Y-47360
X119292Y-59910
X119342Y-69460
X119492Y-90110
X119492Y-91660
X119692Y-77710
X120562Y-34612
X120562Y-40612
X120562Y-94612
T2
X60411Y-48330
X60411Y-49330
X61361Y-48330
X61361Y-49330
X62311Y-48330
X62311Y-49330
X107366Y-61880
X107366Y-63155
X107366Y-64430
X108641Y-61880
X108641Y-63155
X108641Y-64430
X109916Y-61880
X109916Y-63155
X109916Y-64430
T4
X58593Y-35972
X58594Y-88347
X58594Y-90887
X58598Y-29627
X58598Y-32167
X61133Y-35972
X66542Y-76645
X66542Y-79185
X68763Y-55784
X71303Y-55784
X101617Y-26145
X101617Y-28685
X104157Y-26145
X104157Y-28685
X106697Y-26145
X106697Y-28685
X112446Y-90577
X112446Y-93117
X121072Y-79810
X121072Y-82350
X121072Y-84890
X121077Y-60455
X121077Y-62995
X121077Y-65535
X121082Y-44016
X121082Y-46556
X121082Y-49096
X121082Y-51636
X121082Y-54176
X121082Y-56716
X123612Y-79810
X123612Y-82350
X123612Y-84890
X123617Y-60455
X123617Y-62995
X123617Y-65535
X123622Y-44016
X123622Y-46556
X123622Y-49096
X123622Y-51636
X123622Y-54176
X123622Y-56716
T5
X90804Y-71285
X93304Y-71285
X95804Y-71285
X102034Y-77515
X102034Y-80015
X102034Y-82515
T6
X78519Y-29700
X78519Y-36700
X82019Y-29700
X82019Y-36700
X85519Y-29700
X85519Y-36700
X89019Y-29700
X89019Y-36700
T7
X90054Y-85765
X90054Y-90265
X96554Y-85765
X96554Y-90265
T8
X45390Y-27802
X45390Y-100022
T9
X86980Y-75015
X86980Y-85015
X99629Y-75015
X99629Y-85015
T10
X30742Y-29010
X30742Y-99010
X120742Y-29010
X120742Y-99010
T3
G00X104322Y-96905
M15
G01X104322Y-98005
M16
G05
G00X104322Y-101235
M15
G01X104322Y-102035
M16
G05
G00X112962Y-96905
M15
G01X112962Y-98005
M16
G05
G00X112962Y-101235
M15
G01X112962Y-102035
M16
G05
M30
