%TF.GenerationSoftware,KiCad,Pcbnew,8.0.2*%
%TF.CreationDate,2024-05-30T20:06:03+01:00*%
%TF.ProjectId,StepUp,53746570-5570-42e6-9b69-6361645f7063,v0.1*%
%TF.SameCoordinates,Original*%
%TF.FileFunction,Copper,L4,Bot*%
%TF.FilePolarity,Positive*%
%FSLAX46Y46*%
G04 Gerber Fmt 4.6, Leading zero omitted, Abs format (unit mm)*
G04 Created by KiCad (PCBNEW 8.0.2) date 2024-05-30 20:06:03*
%MOMM*%
%LPD*%
G01*
G04 APERTURE LIST*
G04 Aperture macros list*
%AMFreePoly0*
4,1,19,0.500000,-0.750000,0.000000,-0.750000,0.000000,-0.744911,-0.071157,-0.744911,-0.207708,-0.704816,-0.327430,-0.627875,-0.420627,-0.520320,-0.479746,-0.390866,-0.500000,-0.250000,-0.500000,0.250000,-0.479746,0.390866,-0.420627,0.520320,-0.327430,0.627875,-0.207708,0.704816,-0.071157,0.744911,0.000000,0.744911,0.000000,0.750000,0.500000,0.750000,0.500000,-0.750000,0.500000,-0.750000,
$1*%
%AMFreePoly1*
4,1,19,0.000000,0.744911,0.071157,0.744911,0.207708,0.704816,0.327430,0.627875,0.420627,0.520320,0.479746,0.390866,0.500000,0.250000,0.500000,-0.250000,0.479746,-0.390866,0.420627,-0.520320,0.327430,-0.627875,0.207708,-0.704816,0.071157,-0.744911,0.000000,-0.744911,0.000000,-0.750000,-0.500000,-0.750000,-0.500000,0.750000,0.000000,0.750000,0.000000,0.744911,0.000000,0.744911,
$1*%
G04 Aperture macros list end*
%TA.AperFunction,EtchedComponent*%
%ADD10C,0.000000*%
%TD*%
%TA.AperFunction,ComponentPad*%
%ADD11C,1.980000*%
%TD*%
%TA.AperFunction,ComponentPad*%
%ADD12O,1.000000X1.800000*%
%TD*%
%TA.AperFunction,ComponentPad*%
%ADD13O,1.000000X2.100000*%
%TD*%
%TA.AperFunction,ComponentPad*%
%ADD14C,0.600000*%
%TD*%
%TA.AperFunction,ComponentPad*%
%ADD15C,1.650000*%
%TD*%
%TA.AperFunction,ComponentPad*%
%ADD16C,1.950000*%
%TD*%
%TA.AperFunction,ComponentPad*%
%ADD17C,2.400000*%
%TD*%
%TA.AperFunction,ComponentPad*%
%ADD18C,5.600000*%
%TD*%
%TA.AperFunction,HeatsinkPad*%
%ADD19C,0.600000*%
%TD*%
%TA.AperFunction,HeatsinkPad*%
%ADD20R,2.500000X1.600000*%
%TD*%
%TA.AperFunction,ComponentPad*%
%ADD21R,1.700000X1.700000*%
%TD*%
%TA.AperFunction,ComponentPad*%
%ADD22O,1.700000X1.700000*%
%TD*%
%TA.AperFunction,ComponentPad*%
%ADD23R,1.800000X1.800000*%
%TD*%
%TA.AperFunction,ComponentPad*%
%ADD24C,1.800000*%
%TD*%
%TA.AperFunction,SMDPad,CuDef*%
%ADD25FreePoly0,180.000000*%
%TD*%
%TA.AperFunction,SMDPad,CuDef*%
%ADD26FreePoly1,180.000000*%
%TD*%
%TA.AperFunction,SMDPad,CuDef*%
%ADD27FreePoly0,270.000000*%
%TD*%
%TA.AperFunction,SMDPad,CuDef*%
%ADD28FreePoly1,270.000000*%
%TD*%
%TA.AperFunction,SMDPad,CuDef*%
%ADD29FreePoly0,0.000000*%
%TD*%
%TA.AperFunction,SMDPad,CuDef*%
%ADD30FreePoly1,0.000000*%
%TD*%
%TA.AperFunction,ViaPad*%
%ADD31C,0.610000*%
%TD*%
%TA.AperFunction,Conductor*%
%ADD32C,0.304800*%
%TD*%
%TA.AperFunction,Conductor*%
%ADD33C,0.762000*%
%TD*%
%TA.AperFunction,Conductor*%
%ADD34C,0.203200*%
%TD*%
%TA.AperFunction,Conductor*%
%ADD35C,0.508000*%
%TD*%
%TA.AperFunction,Conductor*%
%ADD36C,0.400000*%
%TD*%
%TA.AperFunction,Conductor*%
%ADD37C,0.152400*%
%TD*%
%ADD38C,0.300000*%
%ADD39C,0.350000*%
%ADD40O,0.600000X1.400000*%
%ADD41O,0.600000X1.700000*%
G04 APERTURE END LIST*
D10*
%TA.AperFunction,EtchedComponent*%
%TO.C,JP13*%
G36*
X99742000Y-88210000D02*
G01*
X99242000Y-88210000D01*
X99242000Y-87810000D01*
X99742000Y-87810000D01*
X99742000Y-88210000D01*
G37*
%TD.AperFunction*%
%TA.AperFunction,EtchedComponent*%
G36*
X99742000Y-89010000D02*
G01*
X99242000Y-89010000D01*
X99242000Y-88610000D01*
X99742000Y-88610000D01*
X99742000Y-89010000D01*
G37*
%TD.AperFunction*%
%TA.AperFunction,EtchedComponent*%
%TO.C,JP8*%
G36*
X93092000Y-74760000D02*
G01*
X92692000Y-74760000D01*
X92692000Y-74260000D01*
X93092000Y-74260000D01*
X93092000Y-74760000D01*
G37*
%TD.AperFunction*%
%TA.AperFunction,EtchedComponent*%
G36*
X93892000Y-74760000D02*
G01*
X93492000Y-74760000D01*
X93492000Y-74260000D01*
X93892000Y-74260000D01*
X93892000Y-74760000D01*
G37*
%TD.AperFunction*%
%TA.AperFunction,EtchedComponent*%
%TO.C,JP9*%
G36*
X99142000Y-79410000D02*
G01*
X98642000Y-79410000D01*
X98642000Y-79010000D01*
X99142000Y-79010000D01*
X99142000Y-79410000D01*
G37*
%TD.AperFunction*%
%TA.AperFunction,EtchedComponent*%
G36*
X99142000Y-80210000D02*
G01*
X98642000Y-80210000D01*
X98642000Y-79810000D01*
X99142000Y-79810000D01*
X99142000Y-80210000D01*
G37*
%TD.AperFunction*%
%TD*%
D11*
%TO.P,BT1,P*%
%TO.N,Net-(D14-K)*%
X45390000Y-27802000D03*
%TO.P,BT1,N*%
%TO.N,GND*%
X45390000Y-100022000D03*
%TD*%
D12*
%TO.P,J1,S1,SHIELD*%
%TO.N,GND*%
X112962000Y-101635000D03*
D13*
X112962000Y-97455000D03*
D12*
X104322000Y-101635000D03*
D13*
X104322000Y-97455000D03*
%TD*%
D14*
%TO.P,U3,57,GND*%
%TO.N,GND*%
X107366000Y-61880000D03*
X107366000Y-63155000D03*
X107366000Y-64430000D03*
X108641000Y-61880000D03*
X108641000Y-63155000D03*
X108641000Y-64430000D03*
X109916000Y-61880000D03*
X109916000Y-63155000D03*
X109916000Y-64430000D03*
%TD*%
D15*
%TO.P,JOY1,1,1*%
%TO.N,+3V3*%
X95804500Y-71285000D03*
%TO.P,JOY1,2,2*%
%TO.N,/User Input/JOYSTICK_AXIS_H*%
X93304500Y-71285000D03*
%TO.P,JOY1,3,3*%
%TO.N,GND*%
X90804500Y-71285000D03*
%TO.P,JOY1,11,1'*%
%TO.N,+3V3*%
X102034500Y-82515000D03*
%TO.P,JOY1,12,2'*%
%TO.N,/User Input/JOYSTICK_AXIS_V*%
X102034500Y-80015000D03*
%TO.P,JOY1,13,3'*%
%TO.N,GND*%
X102034500Y-77515000D03*
D16*
%TO.P,JOY1,A1,COM_1*%
X90054500Y-85765000D03*
%TO.P,JOY1,B1,COM_2*%
%TO.N,/User Input/JOYSTICK_BUTTON*%
X96554500Y-85765000D03*
%TO.P,JOY1,C1,NO_1*%
%TO.N,GND*%
X90054500Y-90265000D03*
%TO.P,JOY1,D1,NO_2*%
%TO.N,/User Input/JOYSTICK_BUTTON*%
X96554500Y-90265000D03*
D17*
%TO.P,JOY1,MH1,MH1*%
%TO.N,unconnected-(JOY1-PadMH1)*%
X99629500Y-75015000D03*
%TO.P,JOY1,MH2,MH2*%
%TO.N,unconnected-(JOY1-PadMH2)*%
X86979500Y-75015000D03*
%TO.P,JOY1,MH3,MH3*%
%TO.N,unconnected-(JOY1-PadMH3)*%
X86979500Y-85015000D03*
%TO.P,JOY1,MH4,MH4*%
%TO.N,unconnected-(JOY1-PadMH4)*%
X99629500Y-85015000D03*
%TD*%
D18*
%TO.P,H1,1*%
%TO.N,N/C*%
X30742000Y-29010000D03*
%TD*%
D19*
%TO.P,U8,13,PGND*%
%TO.N,GND*%
X62311000Y-48330000D03*
X61361000Y-48330000D03*
X60411000Y-48330000D03*
D20*
X61361000Y-48830000D03*
D19*
X62311000Y-49330000D03*
X61361000Y-49330000D03*
X60411000Y-49330000D03*
%TD*%
D21*
%TO.P,J4,1,Pin_1*%
%TO.N,/MCU/GPIO8*%
X123622000Y-56716000D03*
D22*
%TO.P,J4,2,Pin_2*%
%TO.N,/MCU/GPIO10*%
X121082000Y-56716000D03*
%TO.P,J4,3,Pin_3*%
%TO.N,/MCU/GPIO9*%
X123622000Y-54176000D03*
%TO.P,J4,4,Pin_4*%
%TO.N,/MCU/GPIO11*%
X121082000Y-54176000D03*
%TO.P,J4,5,Pin_5*%
%TO.N,GND*%
X123622000Y-51636000D03*
%TO.P,J4,6,Pin_6*%
X121082000Y-51636000D03*
%TO.P,J4,7,Pin_7*%
%TO.N,/MCU/GPIO14*%
X123622000Y-49096000D03*
%TO.P,J4,8,Pin_8*%
%TO.N,/MCU/GPIO12*%
X121082000Y-49096000D03*
%TO.P,J4,9,Pin_9*%
%TO.N,/MCU/GPIO15*%
X123622000Y-46556000D03*
%TO.P,J4,10,Pin_10*%
%TO.N,/MCU/GPIO13*%
X121082000Y-46556000D03*
%TO.P,J4,11,Pin_11*%
%TO.N,GND*%
X123622000Y-44016000D03*
%TO.P,J4,12,Pin_12*%
X121082000Y-44016000D03*
%TD*%
D18*
%TO.P,H2,1*%
%TO.N,N/C*%
X30742000Y-99010000D03*
%TD*%
D23*
%TO.P,J5,1_A,1*%
%TO.N,OB2_OUT*%
X89019400Y-36699501D03*
%TO.P,J5,1_B,1__1*%
X89019400Y-29699501D03*
D24*
%TO.P,J5,2_A,2*%
%TO.N,OB1_OUT*%
X85519400Y-36699501D03*
%TO.P,J5,2_B,2__1*%
X85519400Y-29699501D03*
%TO.P,J5,3_A,3*%
%TO.N,OA1_OUT*%
X82019400Y-36699501D03*
%TO.P,J5,3_B,3__1*%
X82019400Y-29699501D03*
%TO.P,J5,4_A,4*%
%TO.N,OA2_OUT*%
X78519400Y-36699501D03*
%TO.P,J5,4_B,4__1*%
X78519400Y-29699501D03*
%TD*%
D21*
%TO.P,J3,1,Pin_1*%
%TO.N,/MCU/SWCLK*%
X123617000Y-65535000D03*
D22*
%TO.P,J3,2,Pin_2*%
%TO.N,/MCU/UART_0_TX*%
X121077000Y-65535000D03*
%TO.P,J3,3,Pin_3*%
%TO.N,/MCU/SWD*%
X123617000Y-62995000D03*
%TO.P,J3,4,Pin_4*%
%TO.N,/MCU/UART_0_RX*%
X121077000Y-62995000D03*
%TO.P,J3,5,Pin_5*%
%TO.N,GND*%
X123617000Y-60455000D03*
%TO.P,J3,6,Pin_6*%
X121077000Y-60455000D03*
%TD*%
D21*
%TO.P,J8,1,Pin_1*%
%TO.N,Vbat*%
X58594000Y-88347000D03*
D22*
%TO.P,J8,2,Pin_2*%
%TO.N,Net-(J8-Pin_2)*%
X58594000Y-90887000D03*
%TD*%
D21*
%TO.P,J9,1,Pin_1*%
%TO.N,VMotor*%
X71303000Y-55784000D03*
D22*
%TO.P,J9,2,Pin_2*%
%TO.N,BOOST_VOUT*%
X68763000Y-55784000D03*
%TD*%
D18*
%TO.P,H4,1*%
%TO.N,N/C*%
X120742000Y-99010000D03*
%TD*%
D21*
%TO.P,J6,1,Pin_1*%
%TO.N,V_USB*%
X66542000Y-79185000D03*
D22*
%TO.P,J6,2,Pin_2*%
%TO.N,Net-(D11-A)*%
X66542000Y-76645000D03*
%TD*%
D21*
%TO.P,J10,1,Pin_1*%
%TO.N,VMotor*%
X101617000Y-28685000D03*
D22*
%TO.P,J10,2,Pin_2*%
%TO.N,Vbat*%
X101617000Y-26145000D03*
%TO.P,J10,3,Pin_3*%
%TO.N,+3V3*%
X104157000Y-28685000D03*
%TO.P,J10,4,Pin_4*%
%TO.N,V_USB*%
X104157000Y-26145000D03*
%TO.P,J10,5,Pin_5*%
%TO.N,GND*%
X106697000Y-28685000D03*
%TO.P,J10,6,Pin_6*%
X106697000Y-26145000D03*
%TD*%
D21*
%TO.P,J2,1,Pin_1*%
%TO.N,V_USB*%
X112446000Y-90577000D03*
D22*
%TO.P,J2,2,Pin_2*%
%TO.N,Net-(J2-Pin_2)*%
X112446000Y-93117000D03*
%TD*%
D21*
%TO.P,J11,1,Pin_1*%
%TO.N,Vbat*%
X58598000Y-32167000D03*
D22*
%TO.P,J11,2,Pin_2*%
%TO.N,Net-(D14-K)*%
X58598000Y-29627000D03*
%TD*%
D18*
%TO.P,H3,1*%
%TO.N,N/C*%
X120742000Y-29010000D03*
%TD*%
D21*
%TO.P,J12,1,Pin_1*%
%TO.N,Net-(J12-Pin_1)*%
X121072000Y-79810000D03*
D22*
%TO.P,J12,2,Pin_2*%
%TO.N,+3V3*%
X123612000Y-79810000D03*
%TO.P,J12,3,Pin_3*%
%TO.N,Net-(J12-Pin_3)*%
X121072000Y-82350000D03*
%TO.P,J12,4,Pin_4*%
%TO.N,GND*%
X123612000Y-82350000D03*
%TO.P,J12,5,Pin_5*%
%TO.N,Net-(J12-Pin_5)*%
X121072000Y-84890000D03*
%TO.P,J12,6,Pin_6*%
%TO.N,GND*%
X123612000Y-84890000D03*
%TD*%
D21*
%TO.P,J7,1,Pin_1*%
%TO.N,Vbat*%
X58593000Y-35972000D03*
D22*
%TO.P,J7,2,Pin_2*%
%TO.N,BOOST_VIN*%
X61133000Y-35972000D03*
%TD*%
D25*
%TO.P,JP3,1,A*%
%TO.N,/Power/BOOST_ENABLE*%
X58994000Y-39528000D03*
D26*
%TO.P,JP3,2,B*%
%TO.N,MCU_BOOST_EN*%
X57694000Y-39528000D03*
%TD*%
D25*
%TO.P,JP13,1,A*%
%TO.N,/User Input/JOYSTICK_BUTTON*%
X100142000Y-88410000D03*
D26*
%TO.P,JP13,2,B*%
%TO.N,JOY_MCU_BTN*%
X98842000Y-88410000D03*
%TD*%
D27*
%TO.P,JP8,1,A*%
%TO.N,JOY_AXIS_MCU_H*%
X93292000Y-73860000D03*
D28*
%TO.P,JP8,2,B*%
%TO.N,/User Input/JOYSTICK_AXIS_H*%
X93292000Y-75160000D03*
%TD*%
D29*
%TO.P,JP12,1,A*%
%TO.N,/User Input/JOYSTICK_BUTTON*%
X116142000Y-84910000D03*
D30*
%TO.P,JP12,2,B*%
%TO.N,Net-(J12-Pin_5)*%
X117442000Y-84910000D03*
%TD*%
D29*
%TO.P,JP11,1,A*%
%TO.N,/User Input/JOYSTICK_AXIS_H*%
X116142000Y-82310000D03*
D30*
%TO.P,JP11,2,B*%
%TO.N,Net-(J12-Pin_3)*%
X117442000Y-82310000D03*
%TD*%
D29*
%TO.P,JP10,1,A*%
%TO.N,/User Input/JOYSTICK_AXIS_V*%
X116142000Y-79710000D03*
D30*
%TO.P,JP10,2,B*%
%TO.N,Net-(J12-Pin_1)*%
X117442000Y-79710000D03*
%TD*%
D25*
%TO.P,JP9,1,A*%
%TO.N,JOY_AXIS_MCU_V*%
X99542000Y-79610000D03*
D26*
%TO.P,JP9,2,B*%
%TO.N,/User Input/JOYSTICK_AXIS_V*%
X98242000Y-79610000D03*
%TD*%
D31*
%TO.N,GND*%
X62150000Y-89400000D03*
X84592000Y-56310000D03*
X84562000Y-94611750D03*
X93242000Y-68710000D03*
X72562000Y-100611750D03*
X104192000Y-79960000D03*
X42562000Y-70611750D03*
X66562000Y-64611750D03*
X60092000Y-54260000D03*
X120562000Y-34611750D03*
X42562000Y-46611750D03*
X74342000Y-56310000D03*
X57192000Y-67110000D03*
X58742000Y-65910000D03*
X114942000Y-34060000D03*
X115742000Y-61060000D03*
X106292000Y-54910000D03*
X116242000Y-34060000D03*
X74992000Y-48660000D03*
X72562000Y-34611750D03*
X30562000Y-64611750D03*
X84392000Y-49110000D03*
X90562000Y-94611750D03*
X54562000Y-34611750D03*
X104742000Y-70960000D03*
X78562000Y-88611750D03*
X42562000Y-28611750D03*
X54562000Y-100611750D03*
X108392000Y-42310000D03*
X58692000Y-44810000D03*
X66562000Y-34611750D03*
X48562000Y-94611750D03*
X64142000Y-26460000D03*
X36562000Y-28611750D03*
X106942000Y-55710000D03*
X102562000Y-94611750D03*
X72562000Y-88611750D03*
X30562000Y-70611750D03*
X48562000Y-70611750D03*
X110042000Y-71960000D03*
X120562000Y-40611750D03*
X108642000Y-94710000D03*
X75292000Y-68460000D03*
X30562000Y-94611750D03*
X60092000Y-55810000D03*
X60562000Y-28611750D03*
X112892000Y-67010000D03*
X101892000Y-67010000D03*
X48562000Y-64611750D03*
X120562000Y-94611750D03*
X68642000Y-87560000D03*
X36562000Y-94611750D03*
X48562000Y-52611750D03*
X42562000Y-88611750D03*
X76142000Y-60610000D03*
X48562000Y-40611750D03*
X68292000Y-38510000D03*
X36562000Y-46611750D03*
X42562000Y-34611750D03*
X76142000Y-59060000D03*
X42562000Y-76611750D03*
X102562000Y-40611750D03*
X85092000Y-49160000D03*
X60562000Y-64611750D03*
X111142000Y-54310000D03*
X30562000Y-46611750D03*
X84592000Y-55510000D03*
X102562000Y-34611750D03*
X96562000Y-94611750D03*
X67192000Y-66410000D03*
X68442000Y-66360000D03*
X54562000Y-94611750D03*
X54562000Y-70611750D03*
X48562000Y-88611750D03*
X83592000Y-49660000D03*
X36562000Y-58611750D03*
X72592000Y-41110000D03*
X78562000Y-70611750D03*
X83642000Y-55510000D03*
X87542000Y-64260000D03*
X36562000Y-64611750D03*
X36562000Y-52611750D03*
X119492000Y-90110000D03*
X42562000Y-52611750D03*
X101942000Y-66160000D03*
X36562000Y-76611750D03*
X108562000Y-28611750D03*
X61992000Y-74310000D03*
X83992000Y-63860000D03*
X107742000Y-50260000D03*
X42562000Y-64611750D03*
X93742000Y-54860000D03*
X84042000Y-41960000D03*
X64142000Y-25560000D03*
X30562000Y-76611750D03*
X48562000Y-100611750D03*
X93742000Y-56160000D03*
X111142000Y-53210000D03*
X42562000Y-40611750D03*
X102562000Y-46611750D03*
X36562000Y-100611750D03*
X74092000Y-80910000D03*
X61192000Y-37860000D03*
X83642000Y-56310000D03*
X67792000Y-87560000D03*
X54562000Y-88611750D03*
X119292000Y-59910000D03*
X42562000Y-100611750D03*
X60562000Y-94611750D03*
X114442000Y-67060000D03*
X93742000Y-55510000D03*
X76292000Y-67360000D03*
X72562000Y-64611750D03*
X90562000Y-100611750D03*
X30562000Y-40611750D03*
X30562000Y-34611750D03*
X79542000Y-64160000D03*
X42562000Y-94611750D03*
X84562000Y-100611750D03*
X111042000Y-74860000D03*
X74292000Y-48660000D03*
X100392000Y-62110000D03*
X36562000Y-40611750D03*
X61192000Y-87810000D03*
X80792000Y-74960000D03*
X74342000Y-55660000D03*
X119492000Y-91660000D03*
X74342000Y-55010000D03*
X109042000Y-71960000D03*
X60562000Y-58611750D03*
X84562000Y-88611750D03*
X90562000Y-58611750D03*
X42562000Y-58611750D03*
X117542000Y-34060000D03*
X60562000Y-100611750D03*
X108562000Y-100611750D03*
X48562000Y-46611750D03*
X64392000Y-79310000D03*
X48562000Y-34611750D03*
X36562000Y-70611750D03*
X78562000Y-94611750D03*
X63992000Y-52510000D03*
X36562000Y-88611750D03*
X105692000Y-71010000D03*
X30562000Y-88611750D03*
X84892000Y-59760000D03*
X48562000Y-58611750D03*
X66562000Y-58611750D03*
X96562000Y-100611750D03*
X60292000Y-67160000D03*
X30562000Y-58611750D03*
X64842000Y-52860000D03*
X66562000Y-100611750D03*
X54562000Y-64611750D03*
X58692000Y-43810000D03*
X63992000Y-51360000D03*
X68292000Y-37610000D03*
X48562000Y-76611750D03*
X114562000Y-28611750D03*
X102562000Y-52611750D03*
X58692000Y-45860000D03*
X110192000Y-40510000D03*
X119342000Y-69460000D03*
X54562000Y-76611750D03*
X72562000Y-58611750D03*
X107742000Y-55710000D03*
X109774600Y-58647777D03*
X84042000Y-40310000D03*
X68292000Y-39460000D03*
X72562000Y-28611750D03*
X84792000Y-63860000D03*
X94442000Y-40160000D03*
%TO.N,/Power/BOOST_ENABLE*%
X59442000Y-37710000D03*
%TO.N,V_USB*%
X57042000Y-43860000D03*
%TO.N,+3V3*%
X119692000Y-77710000D03*
X98292000Y-41360000D03*
X112392000Y-77710000D03*
X96242000Y-65460000D03*
X104242000Y-77760000D03*
%TO.N,+1V1*%
X108001000Y-61060000D03*
X107696000Y-58256000D03*
X108783800Y-67860000D03*
X107342000Y-65360000D03*
%TO.N,/MCU/~{USB_BOOT}*%
X101692000Y-76110000D03*
X116992000Y-77060000D03*
X69942000Y-83160000D03*
X50742000Y-83210000D03*
%TO.N,/MCU/SWCLK*%
X116759666Y-58560000D03*
X105592000Y-56860000D03*
%TO.N,/MCU/GPIO13*%
X51592000Y-56760000D03*
X112692000Y-56410000D03*
X94692000Y-57260000D03*
X103292000Y-57260000D03*
%TO.N,/MCU/RUN*%
X103992000Y-58510000D03*
X51817000Y-58035000D03*
X93692000Y-57810000D03*
X105492000Y-58360000D03*
%TO.N,/MCU/SWD*%
X116064144Y-59243894D03*
X105093670Y-57512684D03*
%TO.N,/MCU/GPIO10*%
X114942000Y-59810000D03*
X113542000Y-59810000D03*
%TO.N,VMotor*%
X75592000Y-53610000D03*
X83692000Y-52610000D03*
X75592000Y-52910000D03*
X83142000Y-52210000D03*
X84342000Y-52660000D03*
X92942000Y-52260000D03*
X75592000Y-52260000D03*
%TO.N,~{TMC_STBDY}*%
X93642000Y-61660000D03*
X93242000Y-64410000D03*
X73342000Y-66360000D03*
X85142000Y-65310000D03*
%TO.N,TMC_EN*%
X87192000Y-61210000D03*
X85742000Y-61210000D03*
X83342000Y-58660000D03*
X83342000Y-60610000D03*
%TO.N,TMC_STEP*%
X78742000Y-62560000D03*
X92292000Y-62760000D03*
%TO.N,TMC_DIR*%
X90942000Y-62210000D03*
X77342000Y-62310000D03*
%TO.N,TMC_UART_RX*%
X84942000Y-58272800D03*
X85808400Y-59110000D03*
%TO.N,MCU_BOOST_EN*%
X88792000Y-60060000D03*
X56042000Y-38860000D03*
X74642000Y-61660000D03*
%TO.N,VBAT_MONITOR*%
X99942000Y-54310000D03*
X99942000Y-64410000D03*
%TO.N,VMOTOR_MONITOR*%
X100242000Y-65160000D03*
X101292000Y-56460000D03*
%TO.N,VUSB_MONITOR*%
X115342000Y-88010000D03*
X117142000Y-63960000D03*
%TO.N,Net-(U8-OVP)*%
X62442000Y-46360000D03*
X64694000Y-56608000D03*
%TO.N,/MCU/EEPROM_SCL*%
X115765110Y-63017200D03*
X99142000Y-72610000D03*
%TO.N,/Motor Driver/BRA*%
X82792000Y-54260000D03*
X79642000Y-56060000D03*
X82542000Y-53760000D03*
X79642000Y-55410000D03*
%TO.N,/Motor Driver/BRB*%
X88599000Y-56060000D03*
X88599000Y-55410000D03*
X85699000Y-53760000D03*
X85449000Y-54260000D03*
%TO.N,LED_RED*%
X118742000Y-62210000D03*
X117192000Y-47010000D03*
%TO.N,LED_GREEN*%
X117742000Y-62510000D03*
X116142000Y-48060000D03*
%TO.N,LED_BLUE*%
X114792000Y-48460000D03*
X116892000Y-62560000D03*
%TO.N,BOOST_VOUT*%
X63042000Y-54910000D03*
%TO.N,/MCU/EEPROM_SDA*%
X99742000Y-73210000D03*
X114892000Y-63160000D03*
%TO.N,/MCU/GPIO14*%
X118942000Y-47360000D03*
%TO.N,JOY_AXIS_MCU_H*%
X93442000Y-65460000D03*
%TO.N,JOY_AXIS_MCU_V*%
X101042000Y-65160000D03*
%TO.N,JOY_MCU_BTN*%
X104192000Y-59610000D03*
X103642000Y-70310000D03*
X97442000Y-88310000D03*
%TD*%
D32*
%TO.N,/Power/BOOST_ENABLE*%
X59442000Y-37710000D02*
X59442000Y-39080000D01*
X59442000Y-39080000D02*
X58994000Y-39528000D01*
D33*
%TO.N,V_USB*%
X60442000Y-78160000D02*
X65517000Y-78160000D01*
X50092000Y-44060000D02*
X50092000Y-62735000D01*
X50092000Y-44060000D02*
X50092000Y-33910000D01*
D34*
X56842000Y-44060000D02*
X57042000Y-43860000D01*
X50092000Y-44060000D02*
X56842000Y-44060000D01*
D33*
X65517000Y-78160000D02*
X66542000Y-79185000D01*
X50092000Y-33910000D02*
X59542000Y-24460000D01*
X59192000Y-71835000D02*
X59192000Y-76910000D01*
X50092000Y-62735000D02*
X59192000Y-71835000D01*
X102472000Y-24460000D02*
X104157000Y-26145000D01*
X59192000Y-76910000D02*
X60442000Y-78160000D01*
X59542000Y-24460000D02*
X102472000Y-24460000D01*
D32*
%TO.N,+3V3*%
X121562000Y-77760000D02*
X123612000Y-79810000D01*
D35*
X99642000Y-31310000D02*
X102592000Y-31310000D01*
X96242000Y-65460000D02*
X96242000Y-40610000D01*
D32*
X112342000Y-77760000D02*
X112392000Y-77710000D01*
X104242000Y-77760000D02*
X112342000Y-77760000D01*
X119692000Y-77710000D02*
X119742000Y-77760000D01*
D35*
X96242000Y-40610000D02*
X96242000Y-34710000D01*
D32*
X112442000Y-77760000D02*
X119642000Y-77760000D01*
D35*
X102592000Y-31310000D02*
X104157000Y-29745000D01*
D34*
X96242000Y-40610000D02*
X97542000Y-40610000D01*
D32*
X119642000Y-77760000D02*
X119692000Y-77710000D01*
X119742000Y-77760000D02*
X121562000Y-77760000D01*
X112392000Y-77710000D02*
X112442000Y-77760000D01*
D34*
X97542000Y-40610000D02*
X98292000Y-41360000D01*
D35*
X96242000Y-34710000D02*
X99642000Y-31310000D01*
X104157000Y-29745000D02*
X104157000Y-28685000D01*
D36*
%TO.N,+1V1*%
X108841000Y-66859000D02*
X108841000Y-67460000D01*
D32*
X108841000Y-67802800D02*
X108783800Y-67860000D01*
D35*
X108001000Y-61060000D02*
X108001000Y-58561000D01*
D36*
X107342000Y-65360000D02*
X108841000Y-66859000D01*
D32*
X108841000Y-67460000D02*
X108841000Y-67802800D01*
D35*
X108001000Y-58561000D02*
X107696000Y-58256000D01*
D37*
%TO.N,/MCU/~{USB_BOOT}*%
X115892000Y-75960000D02*
X101842000Y-75960000D01*
X116992000Y-77060000D02*
X115892000Y-75960000D01*
X69942000Y-83160000D02*
X50792000Y-83160000D01*
X101842000Y-75960000D02*
X101692000Y-76110000D01*
X50792000Y-83160000D02*
X50742000Y-83210000D01*
%TO.N,/MCU/SWCLK*%
X115209666Y-57010000D02*
X105742000Y-57010000D01*
X105742000Y-57010000D02*
X105592000Y-56860000D01*
X116759666Y-58560000D02*
X115209666Y-57010000D01*
%TO.N,/MCU/GPIO13*%
X112692000Y-56410000D02*
X112592000Y-56310000D01*
X51592000Y-56760000D02*
X52042000Y-57210000D01*
X94692000Y-57260000D02*
X94592000Y-57260000D01*
X112592000Y-56310000D02*
X104242000Y-56310000D01*
X94642000Y-57210000D02*
X94692000Y-57260000D01*
X104242000Y-56310000D02*
X103292000Y-57260000D01*
X52042000Y-57210000D02*
X94642000Y-57210000D01*
%TO.N,/MCU/RUN*%
X105342000Y-58510000D02*
X103992000Y-58510000D01*
X51817000Y-58035000D02*
X52192000Y-57660000D01*
X52192000Y-57660000D02*
X93542000Y-57660000D01*
X93697600Y-57815600D02*
X93692000Y-57810000D01*
X105492000Y-58360000D02*
X105342000Y-58510000D01*
X93542000Y-57660000D02*
X93692000Y-57810000D01*
%TO.N,/MCU/SWD*%
X116064144Y-59243894D02*
X114332934Y-57512684D01*
X114332934Y-57512684D02*
X105093670Y-57512684D01*
%TO.N,/MCU/GPIO10*%
X114942000Y-59810000D02*
X113542000Y-59810000D01*
D33*
%TO.N,Vbat*%
X68207000Y-26145000D02*
X101617000Y-26145000D01*
X62185000Y-32167000D02*
X68207000Y-26145000D01*
X58598000Y-32167000D02*
X62185000Y-32167000D01*
%TO.N,VMotor*%
X83292000Y-52210000D02*
X83692000Y-52610000D01*
X75642000Y-52210000D02*
X75592000Y-52260000D01*
X84342000Y-52660000D02*
X83742000Y-52660000D01*
X75592000Y-52260000D02*
X75592000Y-53610000D01*
X84342000Y-52660000D02*
X84742000Y-52260000D01*
X96967000Y-28685000D02*
X92942000Y-32710000D01*
X83142000Y-52210000D02*
X83292000Y-52210000D01*
X83142000Y-52210000D02*
X75642000Y-52210000D01*
X92942000Y-32710000D02*
X92942000Y-52260000D01*
X83742000Y-52660000D02*
X83692000Y-52610000D01*
X84742000Y-52260000D02*
X92942000Y-52260000D01*
X101617000Y-28685000D02*
X96967000Y-28685000D01*
D37*
%TO.N,~{TMC_STBDY}*%
X93642000Y-61660000D02*
X93642000Y-64010000D01*
X93642000Y-64010000D02*
X93242000Y-64410000D01*
X74392000Y-65310000D02*
X73342000Y-66360000D01*
X73292000Y-66410000D02*
X73342000Y-66360000D01*
X85142000Y-65310000D02*
X74392000Y-65310000D01*
%TO.N,TMC_EN*%
X85742000Y-61210000D02*
X87192000Y-61210000D01*
X83342000Y-60610000D02*
X83342000Y-58660000D01*
%TO.N,TMC_STEP*%
X78942000Y-62760000D02*
X78742000Y-62560000D01*
X92292000Y-62760000D02*
X78942000Y-62760000D01*
%TO.N,TMC_DIR*%
X77642000Y-62010000D02*
X77342000Y-62310000D01*
X90742000Y-62010000D02*
X77642000Y-62010000D01*
X90942000Y-62210000D02*
X90742000Y-62010000D01*
%TO.N,TMC_UART_RX*%
X85808400Y-59110000D02*
X84971200Y-58272800D01*
X84971200Y-58272800D02*
X84942000Y-58272800D01*
%TO.N,MCU_BOOST_EN*%
X57026000Y-38860000D02*
X56042000Y-38860000D01*
X83142000Y-61660000D02*
X74642000Y-61660000D01*
X57694000Y-39528000D02*
X57026000Y-38860000D01*
X84342000Y-60460000D02*
X83142000Y-61660000D01*
X88792000Y-60060000D02*
X88392000Y-60460000D01*
X88392000Y-60460000D02*
X84342000Y-60460000D01*
%TO.N,VBAT_MONITOR*%
X99942000Y-64410000D02*
X99742000Y-64210000D01*
X99742000Y-54510000D02*
X99942000Y-54310000D01*
X99742000Y-64210000D02*
X99742000Y-54510000D01*
%TO.N,VMOTOR_MONITOR*%
X101342000Y-64060000D02*
X101342000Y-56510000D01*
X100242000Y-65160000D02*
X101342000Y-64060000D01*
X101342000Y-56510000D02*
X101292000Y-56460000D01*
%TO.N,VUSB_MONITOR*%
X125042000Y-76260000D02*
X125042000Y-87660000D01*
X117592000Y-68810000D02*
X125042000Y-76260000D01*
X117592000Y-64410000D02*
X117592000Y-68810000D01*
X124692000Y-88010000D02*
X115342000Y-88010000D01*
X117142000Y-63960000D02*
X117592000Y-64410000D01*
X125042000Y-87660000D02*
X124692000Y-88010000D01*
%TO.N,Net-(U8-OVP)*%
X59092000Y-46810000D02*
X59092000Y-56110000D01*
X62442000Y-46360000D02*
X59542000Y-46360000D01*
X59590000Y-56608000D02*
X64694000Y-56608000D01*
X59542000Y-46360000D02*
X59092000Y-46810000D01*
X59092000Y-56110000D02*
X59590000Y-56608000D01*
%TO.N,/MCU/EEPROM_SCL*%
X115765110Y-68136890D02*
X115765110Y-63017200D01*
X100388579Y-73010000D02*
X110892000Y-73010000D01*
X110892000Y-73010000D02*
X115765110Y-68136890D01*
X99988579Y-72610000D02*
X100388579Y-73010000D01*
X99142000Y-72610000D02*
X99988579Y-72610000D01*
%TO.N,LED_RED*%
X118542000Y-48360000D02*
X117192000Y-47010000D01*
X118542000Y-62010000D02*
X118542000Y-48360000D01*
X118742000Y-62210000D02*
X118542000Y-62010000D01*
%TO.N,LED_GREEN*%
X116142000Y-48060000D02*
X118084800Y-50002800D01*
X118084800Y-50002800D02*
X118084800Y-62167200D01*
X118084800Y-62167200D02*
X117742000Y-62510000D01*
%TO.N,LED_BLUE*%
X117642000Y-61810000D02*
X116892000Y-62560000D01*
X114792000Y-48460000D02*
X117642000Y-51310000D01*
X117642000Y-51310000D02*
X117642000Y-61810000D01*
%TO.N,BOOST_VOUT*%
X67889000Y-54910000D02*
X63042000Y-54910000D01*
X68763000Y-55784000D02*
X67889000Y-54910000D01*
%TO.N,/MCU/EEPROM_SDA*%
X116392000Y-68260000D02*
X111242000Y-73410000D01*
X116392000Y-62810000D02*
X116392000Y-68260000D01*
X115942000Y-62360000D02*
X116392000Y-62810000D01*
X114892000Y-63160000D02*
X114892000Y-62710000D01*
X111242000Y-73410000D02*
X99942000Y-73410000D01*
X114892000Y-62710000D02*
X115242000Y-62360000D01*
X115242000Y-62360000D02*
X115942000Y-62360000D01*
X99942000Y-73410000D02*
X99742000Y-73210000D01*
%TO.N,Net-(J12-Pin_5)*%
X117442000Y-84910000D02*
X121052000Y-84910000D01*
X121052000Y-84910000D02*
X121072000Y-84890000D01*
%TO.N,Net-(J12-Pin_1)*%
X120972000Y-79710000D02*
X121072000Y-79810000D01*
X117442000Y-79710000D02*
X120972000Y-79710000D01*
%TO.N,Net-(J12-Pin_3)*%
X121032000Y-82310000D02*
X121072000Y-82350000D01*
X117442000Y-82310000D02*
X121032000Y-82310000D01*
%TO.N,/MCU/GPIO14*%
X119392000Y-47810000D02*
X122336000Y-47810000D01*
X118942000Y-47360000D02*
X119392000Y-47810000D01*
X122336000Y-47810000D02*
X123622000Y-49096000D01*
%TO.N,/User Input/JOYSTICK_BUTTON*%
X114312000Y-86740000D02*
X100092000Y-86740000D01*
X100092000Y-86740000D02*
X100142000Y-86790000D01*
X97529500Y-86740000D02*
X96554500Y-85765000D01*
X100142000Y-86790000D02*
X100142000Y-88360000D01*
X96554500Y-85765000D02*
X96554500Y-90265000D01*
X100092000Y-86740000D02*
X97529500Y-86740000D01*
X116142000Y-84910000D02*
X114312000Y-86740000D01*
%TO.N,/User Input/JOYSTICK_AXIS_V*%
X100692000Y-81410000D02*
X100692000Y-81357500D01*
X105042000Y-79410000D02*
X102639500Y-79410000D01*
X105342000Y-79710000D02*
X105042000Y-79410000D01*
X116142000Y-79710000D02*
X105342000Y-79710000D01*
X100692000Y-81357500D02*
X102034500Y-80015000D01*
X98242000Y-80960000D02*
X98692000Y-81410000D01*
X102639500Y-79410000D02*
X102034500Y-80015000D01*
X98692000Y-81410000D02*
X100692000Y-81410000D01*
X98242000Y-79610000D02*
X98242000Y-80960000D01*
%TO.N,/User Input/JOYSTICK_AXIS_H*%
X93292000Y-75160000D02*
X94542000Y-75160000D01*
X94992000Y-74710000D02*
X94992000Y-72972500D01*
X101242000Y-83810000D02*
X100592000Y-83160000D01*
X94542000Y-75160000D02*
X94992000Y-74710000D01*
X114642000Y-83810000D02*
X101242000Y-83810000D01*
X100592000Y-83160000D02*
X96092000Y-83160000D01*
X94992000Y-72972500D02*
X93520026Y-71500526D01*
X116142000Y-82310000D02*
X114642000Y-83810000D01*
X93292000Y-80360000D02*
X93292000Y-75160000D01*
X96092000Y-83160000D02*
X93292000Y-80360000D01*
%TO.N,JOY_AXIS_MCU_H*%
X93442000Y-65460000D02*
X92042000Y-66860000D01*
X92042000Y-72610000D02*
X93292000Y-73860000D01*
X92042000Y-66860000D02*
X92042000Y-72610000D01*
%TO.N,JOY_AXIS_MCU_V*%
X101042000Y-65160000D02*
X101142000Y-65260000D01*
X101142000Y-69310000D02*
X97392000Y-73060000D01*
X99542000Y-78210000D02*
X99542000Y-79610000D01*
X97392000Y-73060000D02*
X97392000Y-76060000D01*
X97392000Y-76060000D02*
X99542000Y-78210000D01*
X101142000Y-65260000D02*
X101142000Y-69310000D01*
%TO.N,JOY_MCU_BTN*%
X103642000Y-60160000D02*
X103642000Y-70310000D01*
X97542000Y-88410000D02*
X98842000Y-88410000D01*
X104192000Y-59610000D02*
X103642000Y-60160000D01*
X97442000Y-88310000D02*
X97542000Y-88410000D01*
%TD*%
%TA.AperFunction,Conductor*%
%TO.N,GND*%
G36*
X59035382Y-23529685D02*
G01*
X59081137Y-23582489D01*
X59091081Y-23651647D01*
X59062056Y-23715203D01*
X59037234Y-23737102D01*
X58980075Y-23775293D01*
X58980072Y-23775296D01*
X55042750Y-27712619D01*
X54981427Y-27746104D01*
X54911735Y-27741120D01*
X54855802Y-27699248D01*
X54832596Y-27644338D01*
X54803808Y-27462575D01*
X54803807Y-27462571D01*
X54803807Y-27462570D01*
X54733305Y-27245587D01*
X54701669Y-27183498D01*
X54629723Y-27042296D01*
X54610905Y-27016395D01*
X54495622Y-26857720D01*
X54495618Y-26857715D01*
X54334284Y-26696381D01*
X54334279Y-26696377D01*
X54149707Y-26562279D01*
X54149706Y-26562278D01*
X54149704Y-26562277D01*
X54009401Y-26490789D01*
X53946412Y-26458694D01*
X53729428Y-26388192D01*
X53560414Y-26361423D01*
X53504078Y-26352500D01*
X53275922Y-26352500D01*
X53200806Y-26364397D01*
X53050573Y-26388192D01*
X53050570Y-26388192D01*
X52833587Y-26458694D01*
X52630292Y-26562279D01*
X52445720Y-26696377D01*
X52445715Y-26696381D01*
X52284381Y-26857715D01*
X52284377Y-26857720D01*
X52150279Y-27042292D01*
X52046694Y-27245587D01*
X51976192Y-27462570D01*
X51976192Y-27462573D01*
X51947060Y-27646503D01*
X51940500Y-27687922D01*
X51940500Y-27916078D01*
X51947377Y-27959495D01*
X51976192Y-28141426D01*
X51976192Y-28141429D01*
X52046694Y-28358412D01*
X52046696Y-28358415D01*
X52147964Y-28557165D01*
X52150279Y-28561707D01*
X52284377Y-28746279D01*
X52284381Y-28746284D01*
X52445715Y-28907618D01*
X52445720Y-28907622D01*
X52587609Y-29010709D01*
X52630296Y-29041723D01*
X52833585Y-29145304D01*
X52833587Y-29145305D01*
X53050571Y-29215807D01*
X53050572Y-29215807D01*
X53050575Y-29215808D01*
X53232337Y-29244596D01*
X53295470Y-29274525D01*
X53332402Y-29333836D01*
X53331404Y-29403699D01*
X53300619Y-29454750D01*
X49407296Y-33348072D01*
X49407295Y-33348073D01*
X49335179Y-33456003D01*
X49331980Y-33460793D01*
X49311682Y-33491171D01*
X49311676Y-33491180D01*
X49310823Y-33492456D01*
X49310821Y-33492459D01*
X49244377Y-33652871D01*
X49244374Y-33652881D01*
X49210500Y-33823177D01*
X49210500Y-33823180D01*
X49210500Y-43973180D01*
X49210500Y-62648179D01*
X49210500Y-62821821D01*
X49210500Y-62821823D01*
X49210499Y-62821823D01*
X49244374Y-62992118D01*
X49244377Y-62992128D01*
X49310822Y-63152543D01*
X49407295Y-63296926D01*
X49407296Y-63296927D01*
X58274181Y-72163810D01*
X58307666Y-72225133D01*
X58310500Y-72251491D01*
X58310500Y-76823179D01*
X58310500Y-76996821D01*
X58310500Y-76996823D01*
X58310499Y-76996823D01*
X58344374Y-77167118D01*
X58344377Y-77167128D01*
X58410822Y-77327543D01*
X58507295Y-77471926D01*
X59880073Y-78844704D01*
X60024456Y-78941177D01*
X60180808Y-79005939D01*
X60184876Y-79007624D01*
X60184880Y-79007624D01*
X60184881Y-79007625D01*
X60355176Y-79041500D01*
X60355179Y-79041500D01*
X60355180Y-79041500D01*
X65067500Y-79041500D01*
X65134539Y-79061185D01*
X65180294Y-79113989D01*
X65191500Y-79165500D01*
X65191500Y-80082870D01*
X65191501Y-80082876D01*
X65197908Y-80142483D01*
X65248202Y-80277328D01*
X65248206Y-80277335D01*
X65334452Y-80392544D01*
X65334455Y-80392547D01*
X65449664Y-80478793D01*
X65449671Y-80478797D01*
X65584517Y-80529091D01*
X65584516Y-80529091D01*
X65591444Y-80529835D01*
X65644127Y-80535500D01*
X67439872Y-80535499D01*
X67499483Y-80529091D01*
X67634331Y-80478796D01*
X67749546Y-80392546D01*
X67835796Y-80277331D01*
X67886091Y-80142483D01*
X67892500Y-80082873D01*
X67892499Y-78287128D01*
X67886091Y-78227517D01*
X67842896Y-78111706D01*
X67835797Y-78092671D01*
X67835793Y-78092664D01*
X67749547Y-77977455D01*
X67749544Y-77977452D01*
X67634335Y-77891206D01*
X67634328Y-77891202D01*
X67502917Y-77842189D01*
X67446983Y-77800318D01*
X67422566Y-77734853D01*
X67437418Y-77666580D01*
X67458563Y-77638332D01*
X67580495Y-77516401D01*
X67716035Y-77322830D01*
X67815903Y-77108663D01*
X67877063Y-76880408D01*
X67897659Y-76645000D01*
X67877063Y-76409592D01*
X67819801Y-76195883D01*
X67815905Y-76181344D01*
X67815904Y-76181343D01*
X67815903Y-76181337D01*
X67716035Y-75967171D01*
X67715906Y-75966986D01*
X67580494Y-75773597D01*
X67413402Y-75606506D01*
X67413395Y-75606501D01*
X67219834Y-75470967D01*
X67219830Y-75470965D01*
X67219828Y-75470964D01*
X67005663Y-75371097D01*
X67005659Y-75371096D01*
X67005655Y-75371094D01*
X66777413Y-75309938D01*
X66777403Y-75309936D01*
X66542001Y-75289341D01*
X66541999Y-75289341D01*
X66306596Y-75309936D01*
X66306586Y-75309938D01*
X66078344Y-75371094D01*
X66078335Y-75371098D01*
X65864171Y-75470964D01*
X65864169Y-75470965D01*
X65670597Y-75606505D01*
X65503505Y-75773597D01*
X65367965Y-75967169D01*
X65367964Y-75967171D01*
X65268098Y-76181335D01*
X65268094Y-76181344D01*
X65206938Y-76409586D01*
X65206936Y-76409596D01*
X65186341Y-76644999D01*
X65186341Y-76645000D01*
X65206936Y-76880403D01*
X65206938Y-76880413D01*
X65268097Y-77108666D01*
X65269343Y-77112088D01*
X65269445Y-77113696D01*
X65269498Y-77113893D01*
X65269458Y-77113903D01*
X65273776Y-77181817D01*
X65239806Y-77242873D01*
X65178220Y-77275871D01*
X65152822Y-77278500D01*
X60858492Y-77278500D01*
X60791453Y-77258815D01*
X60770811Y-77242181D01*
X60109819Y-76581189D01*
X60076334Y-76519866D01*
X60073500Y-76493508D01*
X60073500Y-75014995D01*
X85274232Y-75014995D01*
X85274232Y-75015004D01*
X85293277Y-75269154D01*
X85348764Y-75512259D01*
X85349992Y-75517637D01*
X85384870Y-75606505D01*
X85443108Y-75754890D01*
X85453910Y-75773599D01*
X85570541Y-75975612D01*
X85729450Y-76174877D01*
X85916283Y-76348232D01*
X86126866Y-76491805D01*
X86126871Y-76491807D01*
X86126872Y-76491808D01*
X86126873Y-76491809D01*
X86248205Y-76550239D01*
X86356492Y-76602387D01*
X86356493Y-76602387D01*
X86356496Y-76602389D01*
X86600042Y-76677513D01*
X86852065Y-76715500D01*
X87106935Y-76715500D01*
X87358958Y-76677513D01*
X87602504Y-76602389D01*
X87832134Y-76491805D01*
X88042717Y-76348232D01*
X88229550Y-76174877D01*
X88388459Y-75975612D01*
X88515893Y-75754888D01*
X88609008Y-75517637D01*
X88665722Y-75269157D01*
X88681088Y-75064104D01*
X88684768Y-75015004D01*
X88684768Y-75014995D01*
X88671163Y-74833459D01*
X88665722Y-74760843D01*
X88609008Y-74512363D01*
X88515893Y-74275112D01*
X88388459Y-74054388D01*
X88229550Y-73855123D01*
X88042717Y-73681768D01*
X87832134Y-73538195D01*
X87832130Y-73538193D01*
X87832127Y-73538191D01*
X87832126Y-73538190D01*
X87602506Y-73427612D01*
X87602508Y-73427612D01*
X87358966Y-73352489D01*
X87358962Y-73352488D01*
X87358958Y-73352487D01*
X87237731Y-73334214D01*
X87106940Y-73314500D01*
X87106935Y-73314500D01*
X86852065Y-73314500D01*
X86852059Y-73314500D01*
X86695109Y-73338157D01*
X86600042Y-73352487D01*
X86600039Y-73352488D01*
X86600033Y-73352489D01*
X86356492Y-73427612D01*
X86126873Y-73538190D01*
X86126872Y-73538191D01*
X85916282Y-73681768D01*
X85729452Y-73855121D01*
X85729450Y-73855123D01*
X85570541Y-74054388D01*
X85443108Y-74275109D01*
X85349992Y-74512362D01*
X85349990Y-74512369D01*
X85293277Y-74760845D01*
X85274232Y-75014995D01*
X60073500Y-75014995D01*
X60073500Y-71748177D01*
X60039625Y-71577881D01*
X60039624Y-71577880D01*
X60039624Y-71577876D01*
X60039622Y-71577871D01*
X59973178Y-71417459D01*
X59973171Y-71417446D01*
X59876707Y-71273078D01*
X59876706Y-71273077D01*
X59753923Y-71150294D01*
X54963626Y-66359996D01*
X72531403Y-66359996D01*
X72531403Y-66360003D01*
X72551724Y-66540369D01*
X72551725Y-66540374D01*
X72611677Y-66711706D01*
X72685251Y-66828797D01*
X72708250Y-66865399D01*
X72836601Y-66993750D01*
X72990295Y-67090323D01*
X73158433Y-67149157D01*
X73161625Y-67150274D01*
X73161630Y-67150275D01*
X73341996Y-67170597D01*
X73342000Y-67170597D01*
X73342004Y-67170597D01*
X73522369Y-67150275D01*
X73522372Y-67150274D01*
X73522375Y-67150274D01*
X73693705Y-67090323D01*
X73847399Y-66993750D01*
X73975750Y-66865399D01*
X74072323Y-66711705D01*
X74132274Y-66540375D01*
X74133760Y-66527192D01*
X74146686Y-66412456D01*
X74147106Y-66408728D01*
X74174172Y-66344315D01*
X74182635Y-66334940D01*
X74594558Y-65923019D01*
X74655881Y-65889534D01*
X74682239Y-65886700D01*
X84528189Y-65886700D01*
X84595228Y-65906385D01*
X84615870Y-65923019D01*
X84636601Y-65943750D01*
X84723995Y-65998664D01*
X84790295Y-66040323D01*
X84961625Y-66100274D01*
X84961630Y-66100275D01*
X85141996Y-66120597D01*
X85142000Y-66120597D01*
X85142004Y-66120597D01*
X85322369Y-66100275D01*
X85322372Y-66100274D01*
X85322375Y-66100274D01*
X85493705Y-66040323D01*
X85647399Y-65943750D01*
X85775750Y-65815399D01*
X85872323Y-65661705D01*
X85932274Y-65490375D01*
X85935696Y-65460003D01*
X85952597Y-65310003D01*
X85952597Y-65309996D01*
X85932275Y-65129630D01*
X85932274Y-65129625D01*
X85924810Y-65108293D01*
X85872323Y-64958295D01*
X85845369Y-64915399D01*
X85775750Y-64804601D01*
X85647398Y-64676249D01*
X85493706Y-64579677D01*
X85322374Y-64519725D01*
X85322369Y-64519724D01*
X85142004Y-64499403D01*
X85141996Y-64499403D01*
X84961630Y-64519724D01*
X84961625Y-64519725D01*
X84790293Y-64579677D01*
X84636601Y-64676249D01*
X84615870Y-64696981D01*
X84554547Y-64730466D01*
X84528189Y-64733300D01*
X74467924Y-64733300D01*
X74316076Y-64733300D01*
X74169402Y-64772601D01*
X74169401Y-64772601D01*
X74169399Y-64772602D01*
X74169398Y-64772602D01*
X74037901Y-64848522D01*
X74037895Y-64848527D01*
X73367068Y-65519353D01*
X73305745Y-65552838D01*
X73293271Y-65554892D01*
X73161630Y-65569724D01*
X72990295Y-65629676D01*
X72836601Y-65726249D01*
X72708249Y-65854601D01*
X72611677Y-66008293D01*
X72551725Y-66179625D01*
X72551724Y-66179630D01*
X72531403Y-66359996D01*
X54963626Y-66359996D01*
X51009819Y-62406189D01*
X50976334Y-62344866D01*
X50973500Y-62318508D01*
X50973500Y-58630011D01*
X50993185Y-58562972D01*
X51045989Y-58517217D01*
X51115147Y-58507273D01*
X51178703Y-58536298D01*
X51185181Y-58542330D01*
X51311601Y-58668750D01*
X51459043Y-58761395D01*
X51465295Y-58765323D01*
X51574396Y-58803499D01*
X51636625Y-58825274D01*
X51636630Y-58825275D01*
X51816996Y-58845597D01*
X51817000Y-58845597D01*
X51817004Y-58845597D01*
X51997369Y-58825275D01*
X51997372Y-58825274D01*
X51997375Y-58825274D01*
X52168705Y-58765323D01*
X52322399Y-58668750D01*
X52450750Y-58540399D01*
X52547323Y-58386705D01*
X52570753Y-58319746D01*
X52611475Y-58262970D01*
X52676427Y-58237222D01*
X52687795Y-58236700D01*
X82461967Y-58236700D01*
X82529006Y-58256385D01*
X82574761Y-58309189D01*
X82584705Y-58378347D01*
X82579008Y-58401655D01*
X82551727Y-58479617D01*
X82551724Y-58479630D01*
X82531403Y-58659996D01*
X82531403Y-58660003D01*
X82551724Y-58840369D01*
X82551725Y-58840374D01*
X82611677Y-59011706D01*
X82708249Y-59165398D01*
X82728981Y-59186130D01*
X82762466Y-59247453D01*
X82765300Y-59273811D01*
X82765300Y-59996189D01*
X82745615Y-60063228D01*
X82728981Y-60083870D01*
X82708249Y-60104601D01*
X82611677Y-60258293D01*
X82551725Y-60429625D01*
X82551724Y-60429630D01*
X82531403Y-60609996D01*
X82531403Y-60610003D01*
X82551724Y-60790369D01*
X82551727Y-60790382D01*
X82596504Y-60918345D01*
X82600066Y-60988124D01*
X82565338Y-61048751D01*
X82503344Y-61080979D01*
X82479463Y-61083300D01*
X75255811Y-61083300D01*
X75188772Y-61063615D01*
X75168130Y-61046981D01*
X75147398Y-61026249D01*
X74993706Y-60929677D01*
X74822374Y-60869725D01*
X74822369Y-60869724D01*
X74642004Y-60849403D01*
X74641996Y-60849403D01*
X74461630Y-60869724D01*
X74461625Y-60869725D01*
X74290293Y-60929677D01*
X74136601Y-61026249D01*
X74008249Y-61154601D01*
X73911677Y-61308293D01*
X73851725Y-61479625D01*
X73851724Y-61479630D01*
X73831403Y-61659996D01*
X73831403Y-61660003D01*
X73851724Y-61840369D01*
X73851725Y-61840374D01*
X73911677Y-62011706D01*
X74008249Y-62165398D01*
X74136601Y-62293750D01*
X74235503Y-62355895D01*
X74290295Y-62390323D01*
X74461625Y-62450274D01*
X74461630Y-62450275D01*
X74641996Y-62470597D01*
X74642000Y-62470597D01*
X74642004Y-62470597D01*
X74822369Y-62450275D01*
X74822372Y-62450274D01*
X74822375Y-62450274D01*
X74993705Y-62390323D01*
X75147399Y-62293750D01*
X75168130Y-62273019D01*
X75229453Y-62239534D01*
X75255811Y-62236700D01*
X76412331Y-62236700D01*
X76479370Y-62256385D01*
X76525125Y-62309189D01*
X76535551Y-62346817D01*
X76551724Y-62490369D01*
X76551725Y-62490374D01*
X76611677Y-62661706D01*
X76708249Y-62815398D01*
X76836601Y-62943750D01*
X76943796Y-63011106D01*
X76990295Y-63040323D01*
X77161625Y-63100274D01*
X77161630Y-63100275D01*
X77341996Y-63120597D01*
X77342000Y-63120597D01*
X77342004Y-63120597D01*
X77522369Y-63100275D01*
X77522372Y-63100274D01*
X77522375Y-63100274D01*
X77693705Y-63040323D01*
X77847399Y-62943750D01*
X77850700Y-62940448D01*
X77912018Y-62906962D01*
X77981709Y-62911943D01*
X78037646Y-62953811D01*
X78043377Y-62962155D01*
X78108249Y-63065398D01*
X78236601Y-63193750D01*
X78294933Y-63230403D01*
X78390295Y-63290323D01*
X78561622Y-63350273D01*
X78561625Y-63350274D01*
X78561630Y-63350275D01*
X78741996Y-63370597D01*
X78742000Y-63370597D01*
X78742004Y-63370597D01*
X78922366Y-63350275D01*
X78922365Y-63350275D01*
X78922375Y-63350274D01*
X78941279Y-63343658D01*
X78982234Y-63336700D01*
X91678189Y-63336700D01*
X91745228Y-63356385D01*
X91765870Y-63373019D01*
X91786601Y-63393750D01*
X91889908Y-63458663D01*
X91940295Y-63490323D01*
X92111625Y-63550274D01*
X92111630Y-63550275D01*
X92291996Y-63570597D01*
X92292000Y-63570597D01*
X92292004Y-63570597D01*
X92472369Y-63550275D01*
X92472372Y-63550274D01*
X92472375Y-63550274D01*
X92643705Y-63490323D01*
X92797399Y-63393750D01*
X92853619Y-63337530D01*
X92914942Y-63304045D01*
X92984634Y-63309029D01*
X93040567Y-63350901D01*
X93064984Y-63416365D01*
X93065300Y-63425211D01*
X93065300Y-63530457D01*
X93045615Y-63597496D01*
X92992811Y-63643251D01*
X92982254Y-63647499D01*
X92890295Y-63679676D01*
X92736601Y-63776249D01*
X92608249Y-63904601D01*
X92511677Y-64058293D01*
X92451725Y-64229625D01*
X92451724Y-64229630D01*
X92431403Y-64409996D01*
X92431403Y-64410003D01*
X92451724Y-64590369D01*
X92451725Y-64590374D01*
X92511677Y-64761706D01*
X92608249Y-64915398D01*
X92679774Y-64986923D01*
X92713259Y-65048246D01*
X92709135Y-65115558D01*
X92651724Y-65279630D01*
X92636892Y-65411271D01*
X92609825Y-65475685D01*
X92601353Y-65485068D01*
X91687898Y-66398525D01*
X91580527Y-66505895D01*
X91580522Y-66505901D01*
X91504602Y-66637398D01*
X91504602Y-66637399D01*
X91504601Y-66637401D01*
X91504601Y-66637402D01*
X91465300Y-66784076D01*
X91465300Y-72534076D01*
X91465300Y-72685924D01*
X91491046Y-72782011D01*
X91504602Y-72832600D01*
X91504602Y-72832601D01*
X91580522Y-72964098D01*
X91580527Y-72964104D01*
X92051515Y-73435092D01*
X92085000Y-73496415D01*
X92082811Y-73557707D01*
X92056978Y-73645687D01*
X92056974Y-73645703D01*
X92036500Y-73788110D01*
X92036500Y-74360002D01*
X92041644Y-74431939D01*
X92052603Y-74469262D01*
X92056363Y-74521841D01*
X92036500Y-74659998D01*
X92036500Y-75231889D01*
X92056974Y-75374296D01*
X92056977Y-75374308D01*
X92058806Y-75380537D01*
X92093450Y-75498525D01*
X92097483Y-75512258D01*
X92157252Y-75643136D01*
X92157253Y-75643138D01*
X92231376Y-75758476D01*
X92232196Y-75759917D01*
X92234988Y-75764098D01*
X92329207Y-75872830D01*
X92329210Y-75872833D01*
X92437864Y-75966981D01*
X92437867Y-75966984D01*
X92437869Y-75966985D01*
X92437870Y-75966986D01*
X92558906Y-76044770D01*
X92558914Y-76044774D01*
X92558923Y-76044779D01*
X92642811Y-76083089D01*
X92695615Y-76128843D01*
X92715300Y-76195883D01*
X92715300Y-80284076D01*
X92715300Y-80435924D01*
X92751973Y-80572791D01*
X92754602Y-80582600D01*
X92754602Y-80582601D01*
X92830522Y-80714098D01*
X92830524Y-80714100D01*
X92830525Y-80714102D01*
X95737898Y-83621475D01*
X95869402Y-83697399D01*
X96016076Y-83736700D01*
X96167924Y-83736700D01*
X98216401Y-83736700D01*
X98283440Y-83756385D01*
X98329195Y-83809189D01*
X98339139Y-83878347D01*
X98313348Y-83938010D01*
X98249082Y-84018599D01*
X98220541Y-84054388D01*
X98093108Y-84275109D01*
X97999992Y-84512362D01*
X97999990Y-84512369D01*
X97943277Y-84760844D01*
X97941467Y-84784994D01*
X97916826Y-84850375D01*
X97860750Y-84892054D01*
X97791042Y-84896800D01*
X97729833Y-84863106D01*
X97726466Y-84859281D01*
X97726342Y-84859396D01*
X97557257Y-84675722D01*
X97557247Y-84675713D01*
X97364291Y-84525529D01*
X97364287Y-84525526D01*
X97149234Y-84409145D01*
X97149229Y-84409143D01*
X96917958Y-84329748D01*
X96737061Y-84299562D01*
X96676763Y-84289500D01*
X96432237Y-84289500D01*
X96383998Y-84297549D01*
X96191041Y-84329748D01*
X95959770Y-84409143D01*
X95959765Y-84409145D01*
X95744712Y-84525526D01*
X95744708Y-84525529D01*
X95551752Y-84675713D01*
X95551742Y-84675722D01*
X95386132Y-84855621D01*
X95252388Y-85060333D01*
X95154163Y-85284265D01*
X95094136Y-85521304D01*
X95094134Y-85521316D01*
X95073943Y-85764994D01*
X95073943Y-85765005D01*
X95094134Y-86008683D01*
X95094136Y-86008695D01*
X95154163Y-86245734D01*
X95252388Y-86469666D01*
X95386132Y-86674378D01*
X95551742Y-86854277D01*
X95551752Y-86854286D01*
X95744708Y-87004470D01*
X95744712Y-87004473D01*
X95744714Y-87004474D01*
X95744717Y-87004476D01*
X95785480Y-87026535D01*
X95912819Y-87095448D01*
X95962408Y-87144665D01*
X95977800Y-87204501D01*
X95977800Y-88825497D01*
X95958115Y-88892536D01*
X95912818Y-88934552D01*
X95744713Y-89025526D01*
X95744708Y-89025529D01*
X95551752Y-89175713D01*
X95551742Y-89175722D01*
X95386132Y-89355621D01*
X95252388Y-89560333D01*
X95154163Y-89784265D01*
X95094136Y-90021304D01*
X95094134Y-90021316D01*
X95073943Y-90264994D01*
X95073943Y-90265005D01*
X95094134Y-90508683D01*
X95094136Y-90508695D01*
X95154163Y-90745734D01*
X95252388Y-90969666D01*
X95386132Y-91174378D01*
X95534008Y-91335013D01*
X95551746Y-91354281D01*
X95744712Y-91504473D01*
X95959767Y-91620855D01*
X95959770Y-91620856D01*
X96191041Y-91700251D01*
X96191043Y-91700251D01*
X96191045Y-91700252D01*
X96432237Y-91740500D01*
X96432238Y-91740500D01*
X96676762Y-91740500D01*
X96676763Y-91740500D01*
X96917955Y-91700252D01*
X97149233Y-91620855D01*
X97364288Y-91504473D01*
X97557254Y-91354281D01*
X97722868Y-91174377D01*
X97856611Y-90969667D01*
X97954836Y-90745736D01*
X98014864Y-90508692D01*
X98021937Y-90423335D01*
X98035057Y-90265005D01*
X98035057Y-90264994D01*
X98014865Y-90021316D01*
X98014863Y-90021304D01*
X98011944Y-90009778D01*
X97954836Y-89784264D01*
X97856611Y-89560333D01*
X97807174Y-89484664D01*
X97722870Y-89355625D01*
X97648309Y-89274631D01*
X97617387Y-89211977D01*
X97625247Y-89142550D01*
X97669394Y-89088395D01*
X97698578Y-89073609D01*
X97787472Y-89042503D01*
X97857248Y-89038943D01*
X97917876Y-89073672D01*
X97941218Y-89108034D01*
X97957223Y-89143081D01*
X97957227Y-89143087D01*
X97957230Y-89143094D01*
X97998443Y-89207223D01*
X98035015Y-89264132D01*
X98035018Y-89264136D01*
X98126277Y-89369455D01*
X98129168Y-89372791D01*
X98129171Y-89372794D01*
X98237909Y-89467015D01*
X98298386Y-89505881D01*
X98358857Y-89544744D01*
X98358863Y-89544747D01*
X98489741Y-89604517D01*
X98627696Y-89645024D01*
X98770111Y-89665500D01*
X98770114Y-89665500D01*
X99342000Y-89665500D01*
X99413940Y-89660355D01*
X99451259Y-89649396D01*
X99503841Y-89645636D01*
X99642000Y-89665500D01*
X99642003Y-89665500D01*
X100213886Y-89665500D01*
X100213889Y-89665500D01*
X100356304Y-89645024D01*
X100494259Y-89604517D01*
X100625137Y-89544747D01*
X100740477Y-89470622D01*
X100741915Y-89469804D01*
X100746098Y-89467011D01*
X100795017Y-89424620D01*
X100854832Y-89372791D01*
X100948986Y-89264130D01*
X101026770Y-89143094D01*
X101083742Y-89018342D01*
X101085986Y-89014053D01*
X101086498Y-89012308D01*
X101086499Y-89012308D01*
X101127035Y-88874256D01*
X101147497Y-88731941D01*
X101147497Y-88675601D01*
X101147500Y-88675590D01*
X101147500Y-88144426D01*
X101147497Y-88144399D01*
X101147497Y-88088060D01*
X101127035Y-87945744D01*
X101127034Y-87945739D01*
X101092940Y-87829630D01*
X101086498Y-87807691D01*
X101053723Y-87735924D01*
X101026776Y-87676918D01*
X101026773Y-87676914D01*
X101026770Y-87676906D01*
X100948986Y-87555870D01*
X100919553Y-87521902D01*
X100890529Y-87458346D01*
X100900473Y-87389187D01*
X100946229Y-87336384D01*
X101013267Y-87316700D01*
X114387922Y-87316700D01*
X114387924Y-87316700D01*
X114534598Y-87277399D01*
X114666102Y-87201475D01*
X114666105Y-87201471D01*
X114667343Y-87200757D01*
X114675172Y-87198857D01*
X114680585Y-87187319D01*
X114685768Y-87181808D01*
X115717093Y-86150482D01*
X115778414Y-86116999D01*
X115839706Y-86119187D01*
X115927696Y-86145024D01*
X116070111Y-86165500D01*
X116070114Y-86165500D01*
X116642000Y-86165500D01*
X116713940Y-86160355D01*
X116751259Y-86149396D01*
X116803841Y-86145636D01*
X116942000Y-86165500D01*
X116942003Y-86165500D01*
X117513886Y-86165500D01*
X117513889Y-86165500D01*
X117656304Y-86145024D01*
X117794259Y-86104517D01*
X117925137Y-86044747D01*
X118040477Y-85970622D01*
X118041915Y-85969804D01*
X118046098Y-85967011D01*
X118095017Y-85924620D01*
X118154832Y-85872791D01*
X118248986Y-85764130D01*
X118326770Y-85643094D01*
X118326775Y-85643081D01*
X118326779Y-85643076D01*
X118365089Y-85559189D01*
X118410843Y-85506385D01*
X118477883Y-85486700D01*
X119781137Y-85486700D01*
X119848176Y-85506385D01*
X119893520Y-85558298D01*
X119897963Y-85567827D01*
X119897965Y-85567831D01*
X119950653Y-85643076D01*
X120033505Y-85761401D01*
X120200599Y-85928495D01*
X120267888Y-85975611D01*
X120394165Y-86064032D01*
X120394167Y-86064033D01*
X120394170Y-86064035D01*
X120608337Y-86163903D01*
X120836592Y-86225063D01*
X121024918Y-86241539D01*
X121071999Y-86245659D01*
X121072000Y-86245659D01*
X121072001Y-86245659D01*
X121111234Y-86242226D01*
X121307408Y-86225063D01*
X121535663Y-86163903D01*
X121749830Y-86064035D01*
X121943401Y-85928495D01*
X122110495Y-85761401D01*
X122246035Y-85567830D01*
X122345903Y-85353663D01*
X122407063Y-85125408D01*
X122427659Y-84890000D01*
X122407063Y-84654592D01*
X122345903Y-84426337D01*
X122246035Y-84212171D01*
X122221355Y-84176923D01*
X122110494Y-84018597D01*
X121943402Y-83851506D01*
X121943396Y-83851501D01*
X121757842Y-83721575D01*
X121714217Y-83666998D01*
X121707023Y-83597500D01*
X121738546Y-83535145D01*
X121757842Y-83518425D01*
X121887536Y-83427612D01*
X121943401Y-83388495D01*
X122110495Y-83221401D01*
X122246035Y-83027830D01*
X122345903Y-82813663D01*
X122407063Y-82585408D01*
X122427659Y-82350000D01*
X122407063Y-82114592D01*
X122345903Y-81886337D01*
X122246035Y-81672171D01*
X122237327Y-81659735D01*
X122110496Y-81478600D01*
X122087759Y-81455863D01*
X121988567Y-81356671D01*
X121955084Y-81295351D01*
X121960068Y-81225659D01*
X122001939Y-81169725D01*
X122032915Y-81152810D01*
X122164331Y-81103796D01*
X122279546Y-81017546D01*
X122365796Y-80902331D01*
X122414810Y-80770916D01*
X122456681Y-80714984D01*
X122522145Y-80690566D01*
X122590418Y-80705417D01*
X122618673Y-80726569D01*
X122740599Y-80848495D01*
X122820607Y-80904517D01*
X122934165Y-80984032D01*
X122934167Y-80984033D01*
X122934170Y-80984035D01*
X123148337Y-81083903D01*
X123376592Y-81145063D01*
X123553034Y-81160500D01*
X123611999Y-81165659D01*
X123612000Y-81165659D01*
X123612001Y-81165659D01*
X123670966Y-81160500D01*
X123847408Y-81145063D01*
X124075663Y-81083903D01*
X124288895Y-80984471D01*
X124357973Y-80973979D01*
X124421757Y-81002499D01*
X124459996Y-81060975D01*
X124465300Y-81096853D01*
X124465300Y-87309300D01*
X124445615Y-87376339D01*
X124392811Y-87422094D01*
X124341300Y-87433300D01*
X115955811Y-87433300D01*
X115888772Y-87413615D01*
X115868130Y-87396981D01*
X115847398Y-87376249D01*
X115693706Y-87279677D01*
X115522374Y-87219725D01*
X115522369Y-87219724D01*
X115342004Y-87199403D01*
X115341996Y-87199403D01*
X115161630Y-87219724D01*
X115161625Y-87219725D01*
X114990293Y-87279677D01*
X114839437Y-87374467D01*
X114827231Y-87377916D01*
X114819088Y-87393713D01*
X114817026Y-87395825D01*
X114708247Y-87504604D01*
X114611677Y-87658293D01*
X114551725Y-87829625D01*
X114551724Y-87829630D01*
X114531403Y-88009996D01*
X114531403Y-88010003D01*
X114551724Y-88190369D01*
X114551725Y-88190374D01*
X114611677Y-88361706D01*
X114708249Y-88515398D01*
X114836601Y-88643750D01*
X114976953Y-88731940D01*
X114990295Y-88740323D01*
X115161625Y-88800274D01*
X115161630Y-88800275D01*
X115341996Y-88820597D01*
X115342000Y-88820597D01*
X115342004Y-88820597D01*
X115522369Y-88800275D01*
X115522372Y-88800274D01*
X115522375Y-88800274D01*
X115693705Y-88740323D01*
X115847399Y-88643750D01*
X115868130Y-88623019D01*
X115929453Y-88589534D01*
X115955811Y-88586700D01*
X124767922Y-88586700D01*
X124767924Y-88586700D01*
X124914598Y-88547399D01*
X125046102Y-88471475D01*
X125503475Y-88014102D01*
X125579399Y-87882598D01*
X125618700Y-87735924D01*
X125618700Y-87584076D01*
X125618700Y-76184076D01*
X125579399Y-76037402D01*
X125543724Y-75975612D01*
X125503477Y-75905901D01*
X125503472Y-75905895D01*
X118205019Y-68607442D01*
X118171534Y-68546119D01*
X118168700Y-68519761D01*
X118168700Y-64334078D01*
X118168700Y-64334076D01*
X118129399Y-64187402D01*
X118070809Y-64085922D01*
X118053477Y-64055901D01*
X118053472Y-64055895D01*
X117982645Y-63985068D01*
X117949160Y-63923745D01*
X117947106Y-63911269D01*
X117932275Y-63779630D01*
X117932274Y-63779625D01*
X117872322Y-63608292D01*
X117799880Y-63493003D01*
X117780879Y-63425766D01*
X117801246Y-63358931D01*
X117854514Y-63313716D01*
X117890986Y-63303810D01*
X117922375Y-63300274D01*
X118093705Y-63240323D01*
X118247399Y-63143750D01*
X118375750Y-63015399D01*
X118375753Y-63015393D01*
X118380041Y-63011106D01*
X118441364Y-62977621D01*
X118508674Y-62981745D01*
X118561625Y-63000274D01*
X118561629Y-63000274D01*
X118561633Y-63000275D01*
X118741996Y-63020597D01*
X118742000Y-63020597D01*
X118742004Y-63020597D01*
X118922369Y-63000275D01*
X118922372Y-63000274D01*
X118922375Y-63000274D01*
X118937450Y-62994999D01*
X119721341Y-62994999D01*
X119721341Y-62995000D01*
X119741936Y-63230403D01*
X119741938Y-63230413D01*
X119803094Y-63458655D01*
X119803096Y-63458659D01*
X119803097Y-63458663D01*
X119872872Y-63608295D01*
X119902965Y-63672830D01*
X119902967Y-63672834D01*
X119977747Y-63779630D01*
X120038501Y-63866396D01*
X120038506Y-63866402D01*
X120205597Y-64033493D01*
X120205603Y-64033498D01*
X120391158Y-64163425D01*
X120434783Y-64218002D01*
X120441977Y-64287500D01*
X120410454Y-64349855D01*
X120391158Y-64366575D01*
X120205597Y-64496505D01*
X120038505Y-64663597D01*
X119902965Y-64857169D01*
X119902964Y-64857171D01*
X119803098Y-65071335D01*
X119803094Y-65071344D01*
X119741938Y-65299586D01*
X119741936Y-65299596D01*
X119721341Y-65534999D01*
X119721341Y-65535000D01*
X119741936Y-65770403D01*
X119741938Y-65770413D01*
X119803094Y-65998655D01*
X119803096Y-65998659D01*
X119803097Y-65998663D01*
X119878105Y-66159517D01*
X119902965Y-66212830D01*
X119902967Y-66212834D01*
X119988460Y-66334930D01*
X120038505Y-66406401D01*
X120205599Y-66573495D01*
X120296862Y-66637398D01*
X120399165Y-66709032D01*
X120399167Y-66709033D01*
X120399170Y-66709035D01*
X120613337Y-66808903D01*
X120841592Y-66870063D01*
X121018034Y-66885500D01*
X121076999Y-66890659D01*
X121077000Y-66890659D01*
X121077001Y-66890659D01*
X121135966Y-66885500D01*
X121312408Y-66870063D01*
X121540663Y-66808903D01*
X121754830Y-66709035D01*
X121948401Y-66573495D01*
X122070329Y-66451566D01*
X122131648Y-66418084D01*
X122201340Y-66423068D01*
X122257274Y-66464939D01*
X122274189Y-66495917D01*
X122323202Y-66627328D01*
X122323206Y-66627335D01*
X122409452Y-66742544D01*
X122409455Y-66742547D01*
X122524664Y-66828793D01*
X122524671Y-66828797D01*
X122659517Y-66879091D01*
X122659516Y-66879091D01*
X122666444Y-66879835D01*
X122719127Y-66885500D01*
X124514872Y-66885499D01*
X124574483Y-66879091D01*
X124709331Y-66828796D01*
X124824546Y-66742546D01*
X124910796Y-66627331D01*
X124961091Y-66492483D01*
X124967500Y-66432873D01*
X124967499Y-64637128D01*
X124961091Y-64577517D01*
X124959810Y-64574083D01*
X124910797Y-64442671D01*
X124910793Y-64442664D01*
X124824547Y-64327455D01*
X124824544Y-64327452D01*
X124709335Y-64241206D01*
X124709328Y-64241202D01*
X124577917Y-64192189D01*
X124521983Y-64150318D01*
X124497566Y-64084853D01*
X124512418Y-64016580D01*
X124533563Y-63988332D01*
X124655495Y-63866401D01*
X124791035Y-63672830D01*
X124890903Y-63458663D01*
X124952063Y-63230408D01*
X124972659Y-62995000D01*
X124971138Y-62977621D01*
X124959426Y-62843750D01*
X124952063Y-62759592D01*
X124890903Y-62531337D01*
X124791035Y-62317171D01*
X124785425Y-62309158D01*
X124655494Y-62123597D01*
X124488402Y-61956506D01*
X124488395Y-61956501D01*
X124294834Y-61820967D01*
X124294830Y-61820965D01*
X124214057Y-61783300D01*
X124080663Y-61721097D01*
X124080659Y-61721096D01*
X124080655Y-61721094D01*
X123852413Y-61659938D01*
X123852403Y-61659936D01*
X123617001Y-61639341D01*
X123616999Y-61639341D01*
X123381596Y-61659936D01*
X123381586Y-61659938D01*
X123153344Y-61721094D01*
X123153335Y-61721098D01*
X122939171Y-61820964D01*
X122939169Y-61820965D01*
X122745597Y-61956505D01*
X122578505Y-62123597D01*
X122448575Y-62309158D01*
X122393998Y-62352783D01*
X122324500Y-62359977D01*
X122262145Y-62328454D01*
X122245425Y-62309158D01*
X122115494Y-62123597D01*
X121948402Y-61956506D01*
X121948395Y-61956501D01*
X121754834Y-61820967D01*
X121754830Y-61820965D01*
X121674057Y-61783300D01*
X121540663Y-61721097D01*
X121540659Y-61721096D01*
X121540655Y-61721094D01*
X121312413Y-61659938D01*
X121312403Y-61659936D01*
X121077001Y-61639341D01*
X121076999Y-61639341D01*
X120841596Y-61659936D01*
X120841586Y-61659938D01*
X120613344Y-61721094D01*
X120613335Y-61721098D01*
X120399171Y-61820964D01*
X120399169Y-61820965D01*
X120205597Y-61956505D01*
X120038505Y-62123597D01*
X119902965Y-62317169D01*
X119902964Y-62317171D01*
X119803098Y-62531335D01*
X119803094Y-62531344D01*
X119741938Y-62759586D01*
X119741936Y-62759596D01*
X119721341Y-62994999D01*
X118937450Y-62994999D01*
X119093705Y-62940323D01*
X119247399Y-62843750D01*
X119375750Y-62715399D01*
X119472323Y-62561705D01*
X119532274Y-62390375D01*
X119532280Y-62390322D01*
X119552597Y-62210003D01*
X119552597Y-62209996D01*
X119532275Y-62029630D01*
X119532274Y-62029625D01*
X119526004Y-62011706D01*
X119472323Y-61858295D01*
X119461064Y-61840377D01*
X119375750Y-61704601D01*
X119247397Y-61576248D01*
X119247395Y-61576247D01*
X119176727Y-61531842D01*
X119130436Y-61479507D01*
X119118700Y-61426849D01*
X119118700Y-54175999D01*
X119726341Y-54175999D01*
X119726341Y-54176000D01*
X119746936Y-54411403D01*
X119746938Y-54411413D01*
X119808094Y-54639655D01*
X119808096Y-54639659D01*
X119808097Y-54639663D01*
X119873069Y-54778996D01*
X119907965Y-54853830D01*
X119907967Y-54853834D01*
X120002020Y-54988155D01*
X120043501Y-55047396D01*
X120043506Y-55047402D01*
X120210597Y-55214493D01*
X120210603Y-55214498D01*
X120396158Y-55344425D01*
X120439783Y-55399002D01*
X120446977Y-55468500D01*
X120415454Y-55530855D01*
X120396158Y-55547575D01*
X120210597Y-55677505D01*
X120043505Y-55844597D01*
X119907965Y-56038169D01*
X119907964Y-56038171D01*
X119808098Y-56252335D01*
X119808094Y-56252344D01*
X119746938Y-56480586D01*
X119746936Y-56480596D01*
X119726341Y-56715999D01*
X119726341Y-56716000D01*
X119746936Y-56951403D01*
X119746938Y-56951413D01*
X119808094Y-57179655D01*
X119808096Y-57179659D01*
X119808097Y-57179663D01*
X119848176Y-57265612D01*
X119907965Y-57393830D01*
X119907967Y-57393834D01*
X120003033Y-57529601D01*
X120043505Y-57587401D01*
X120210599Y-57754495D01*
X120294947Y-57813556D01*
X120404165Y-57890032D01*
X120404167Y-57890033D01*
X120404170Y-57890035D01*
X120618337Y-57989903D01*
X120618343Y-57989904D01*
X120618344Y-57989905D01*
X120619904Y-57990323D01*
X120846592Y-58051063D01*
X121023034Y-58066500D01*
X121081999Y-58071659D01*
X121082000Y-58071659D01*
X121082001Y-58071659D01*
X121140966Y-58066500D01*
X121317408Y-58051063D01*
X121545663Y-57989903D01*
X121759830Y-57890035D01*
X121953401Y-57754495D01*
X122075329Y-57632566D01*
X122136648Y-57599084D01*
X122206340Y-57604068D01*
X122262274Y-57645939D01*
X122279189Y-57676917D01*
X122328202Y-57808328D01*
X122328206Y-57808335D01*
X122414452Y-57923544D01*
X122414455Y-57923547D01*
X122529664Y-58009793D01*
X122529671Y-58009797D01*
X122664517Y-58060091D01*
X122664516Y-58060091D01*
X122671444Y-58060835D01*
X122724127Y-58066500D01*
X124519872Y-58066499D01*
X124579483Y-58060091D01*
X124714331Y-58009796D01*
X124829546Y-57923546D01*
X124915796Y-57808331D01*
X124966091Y-57673483D01*
X124972500Y-57613873D01*
X124972499Y-55818128D01*
X124966091Y-55758517D01*
X124964810Y-55755083D01*
X124915797Y-55623671D01*
X124915793Y-55623664D01*
X124829547Y-55508455D01*
X124829544Y-55508452D01*
X124714335Y-55422206D01*
X124714328Y-55422202D01*
X124582917Y-55373189D01*
X124526983Y-55331318D01*
X124502566Y-55265853D01*
X124517418Y-55197580D01*
X124538563Y-55169332D01*
X124660495Y-55047401D01*
X124796035Y-54853830D01*
X124895903Y-54639663D01*
X124957063Y-54411408D01*
X124977659Y-54176000D01*
X124957063Y-53940592D01*
X124895903Y-53712337D01*
X124796035Y-53498171D01*
X124790425Y-53490158D01*
X124660494Y-53304597D01*
X124493402Y-53137506D01*
X124493395Y-53137501D01*
X124299834Y-53001967D01*
X124299830Y-53001965D01*
X124299828Y-53001964D01*
X124085663Y-52902097D01*
X124085659Y-52902096D01*
X124085655Y-52902094D01*
X123857413Y-52840938D01*
X123857403Y-52840936D01*
X123622001Y-52820341D01*
X123621999Y-52820341D01*
X123386596Y-52840936D01*
X123386586Y-52840938D01*
X123158344Y-52902094D01*
X123158335Y-52902098D01*
X122944171Y-53001964D01*
X122944169Y-53001965D01*
X122750597Y-53137505D01*
X122583505Y-53304597D01*
X122453575Y-53490158D01*
X122398998Y-53533783D01*
X122329500Y-53540977D01*
X122267145Y-53509454D01*
X122250425Y-53490158D01*
X122120494Y-53304597D01*
X121953402Y-53137506D01*
X121953395Y-53137501D01*
X121759834Y-53001967D01*
X121759830Y-53001965D01*
X121759828Y-53001964D01*
X121545663Y-52902097D01*
X121545659Y-52902096D01*
X121545655Y-52902094D01*
X121317413Y-52840938D01*
X121317403Y-52840936D01*
X121082001Y-52820341D01*
X121081999Y-52820341D01*
X120846596Y-52840936D01*
X120846586Y-52840938D01*
X120618344Y-52902094D01*
X120618335Y-52902098D01*
X120404171Y-53001964D01*
X120404169Y-53001965D01*
X120210597Y-53137505D01*
X120043505Y-53304597D01*
X119907965Y-53498169D01*
X119907964Y-53498171D01*
X119808098Y-53712335D01*
X119808094Y-53712344D01*
X119746938Y-53940586D01*
X119746936Y-53940596D01*
X119726341Y-54175999D01*
X119118700Y-54175999D01*
X119118700Y-48495412D01*
X119138385Y-48428373D01*
X119191189Y-48382618D01*
X119260347Y-48372674D01*
X119274778Y-48375634D01*
X119316076Y-48386700D01*
X119467924Y-48386700D01*
X119727999Y-48386700D01*
X119795038Y-48406385D01*
X119840793Y-48459189D01*
X119850737Y-48528347D01*
X119840381Y-48563105D01*
X119808097Y-48632335D01*
X119808094Y-48632344D01*
X119746938Y-48860586D01*
X119746936Y-48860596D01*
X119726341Y-49095999D01*
X119726341Y-49096000D01*
X119746936Y-49331403D01*
X119746938Y-49331413D01*
X119808094Y-49559655D01*
X119808096Y-49559659D01*
X119808097Y-49559663D01*
X119812000Y-49568032D01*
X119907965Y-49773830D01*
X119907967Y-49773834D01*
X120016281Y-49928521D01*
X120043505Y-49967401D01*
X120210599Y-50134495D01*
X120307384Y-50202265D01*
X120404165Y-50270032D01*
X120404167Y-50270033D01*
X120404170Y-50270035D01*
X120618337Y-50369903D01*
X120846592Y-50431063D01*
X121034918Y-50447539D01*
X121081999Y-50451659D01*
X121082000Y-50451659D01*
X121082001Y-50451659D01*
X121121234Y-50448226D01*
X121317408Y-50431063D01*
X121545663Y-50369903D01*
X121759830Y-50270035D01*
X121953401Y-50134495D01*
X122120495Y-49967401D01*
X122250425Y-49781842D01*
X122305002Y-49738217D01*
X122374500Y-49731023D01*
X122436855Y-49762546D01*
X122453575Y-49781842D01*
X122583500Y-49967395D01*
X122583505Y-49967401D01*
X122750599Y-50134495D01*
X122847384Y-50202265D01*
X122944165Y-50270032D01*
X122944167Y-50270033D01*
X122944170Y-50270035D01*
X123158337Y-50369903D01*
X123386592Y-50431063D01*
X123574918Y-50447539D01*
X123621999Y-50451659D01*
X123622000Y-50451659D01*
X123622001Y-50451659D01*
X123661234Y-50448226D01*
X123857408Y-50431063D01*
X124085663Y-50369903D01*
X124299830Y-50270035D01*
X124493401Y-50134495D01*
X124660495Y-49967401D01*
X124796035Y-49773830D01*
X124895903Y-49559663D01*
X124957063Y-49331408D01*
X124977659Y-49096000D01*
X124957063Y-48860592D01*
X124898057Y-48640375D01*
X124895905Y-48632344D01*
X124895904Y-48632343D01*
X124895903Y-48632337D01*
X124796035Y-48418171D01*
X124787783Y-48406385D01*
X124660494Y-48224597D01*
X124493402Y-48057506D01*
X124493396Y-48057501D01*
X124307842Y-47927575D01*
X124264217Y-47872998D01*
X124257023Y-47803500D01*
X124288546Y-47741145D01*
X124307842Y-47724425D01*
X124385960Y-47669726D01*
X124493401Y-47594495D01*
X124660495Y-47427401D01*
X124796035Y-47233830D01*
X124895903Y-47019663D01*
X124957063Y-46791408D01*
X124977659Y-46556000D01*
X124957063Y-46320592D01*
X124895903Y-46092337D01*
X124796035Y-45878171D01*
X124790425Y-45870158D01*
X124660494Y-45684597D01*
X124493402Y-45517506D01*
X124493395Y-45517501D01*
X124299834Y-45381967D01*
X124299830Y-45381965D01*
X124299828Y-45381964D01*
X124085663Y-45282097D01*
X124085659Y-45282096D01*
X124085655Y-45282094D01*
X123857413Y-45220938D01*
X123857403Y-45220936D01*
X123622001Y-45200341D01*
X123621999Y-45200341D01*
X123386596Y-45220936D01*
X123386586Y-45220938D01*
X123158344Y-45282094D01*
X123158335Y-45282098D01*
X122944171Y-45381964D01*
X122944169Y-45381965D01*
X122750597Y-45517505D01*
X122583505Y-45684597D01*
X122453575Y-45870158D01*
X122398998Y-45913783D01*
X122329500Y-45920977D01*
X122267145Y-45889454D01*
X122250425Y-45870158D01*
X122120494Y-45684597D01*
X121953402Y-45517506D01*
X121953395Y-45517501D01*
X121759834Y-45381967D01*
X121759830Y-45381965D01*
X121759828Y-45381964D01*
X121545663Y-45282097D01*
X121545659Y-45282096D01*
X121545655Y-45282094D01*
X121317413Y-45220938D01*
X121317403Y-45220936D01*
X121082001Y-45200341D01*
X121081999Y-45200341D01*
X120846596Y-45220936D01*
X120846586Y-45220938D01*
X120618344Y-45282094D01*
X120618335Y-45282098D01*
X120404171Y-45381964D01*
X120404169Y-45381965D01*
X120210597Y-45517505D01*
X120043505Y-45684597D01*
X119907965Y-45878169D01*
X119907964Y-45878171D01*
X119808098Y-46092335D01*
X119808094Y-46092344D01*
X119746938Y-46320586D01*
X119746936Y-46320596D01*
X119726341Y-46555999D01*
X119726341Y-46556002D01*
X119739715Y-46708869D01*
X119725948Y-46777369D01*
X119677333Y-46827552D01*
X119609304Y-46843485D01*
X119543461Y-46820110D01*
X119528506Y-46807357D01*
X119447398Y-46726249D01*
X119293706Y-46629677D01*
X119122374Y-46569725D01*
X119122369Y-46569724D01*
X118942004Y-46549403D01*
X118941996Y-46549403D01*
X118761630Y-46569724D01*
X118761625Y-46569725D01*
X118590293Y-46629677D01*
X118436601Y-46726249D01*
X118308249Y-46854601D01*
X118222762Y-46990653D01*
X118170427Y-47036944D01*
X118101373Y-47047592D01*
X118037525Y-47019217D01*
X117999153Y-46960827D01*
X117994548Y-46938563D01*
X117982275Y-46829630D01*
X117982274Y-46829625D01*
X117968901Y-46791408D01*
X117922323Y-46658295D01*
X117866670Y-46569725D01*
X117825750Y-46504601D01*
X117697398Y-46376249D01*
X117543706Y-46279677D01*
X117372374Y-46219725D01*
X117372369Y-46219724D01*
X117192004Y-46199403D01*
X117191996Y-46199403D01*
X117011630Y-46219724D01*
X117011625Y-46219725D01*
X116840293Y-46279677D01*
X116686601Y-46376249D01*
X116558249Y-46504601D01*
X116461677Y-46658293D01*
X116401725Y-46829625D01*
X116401724Y-46829630D01*
X116381403Y-47009996D01*
X116381403Y-47010003D01*
X116394392Y-47125289D01*
X116382337Y-47194111D01*
X116334988Y-47245490D01*
X116267378Y-47263114D01*
X116257289Y-47262392D01*
X116142004Y-47249403D01*
X116141996Y-47249403D01*
X115961630Y-47269724D01*
X115961625Y-47269725D01*
X115790293Y-47329677D01*
X115636601Y-47426249D01*
X115508249Y-47554601D01*
X115411674Y-47708298D01*
X115408598Y-47717090D01*
X115367875Y-47773865D01*
X115302921Y-47799610D01*
X115234360Y-47786152D01*
X115225586Y-47781126D01*
X115143706Y-47729677D01*
X114972374Y-47669725D01*
X114972369Y-47669724D01*
X114792004Y-47649403D01*
X114791996Y-47649403D01*
X114611630Y-47669724D01*
X114611625Y-47669725D01*
X114440293Y-47729677D01*
X114286601Y-47826249D01*
X114158249Y-47954601D01*
X114061677Y-48108293D01*
X114001725Y-48279625D01*
X114001724Y-48279630D01*
X113981403Y-48459996D01*
X113981403Y-48460003D01*
X114001724Y-48640369D01*
X114001725Y-48640374D01*
X114061677Y-48811706D01*
X114158249Y-48965398D01*
X114158250Y-48965399D01*
X114286601Y-49093750D01*
X114440295Y-49190323D01*
X114611625Y-49250274D01*
X114611630Y-49250275D01*
X114743269Y-49265106D01*
X114807684Y-49292172D01*
X114817068Y-49300645D01*
X117028981Y-51512558D01*
X117062466Y-51573881D01*
X117065300Y-51600239D01*
X117065300Y-57645082D01*
X117045615Y-57712121D01*
X116992811Y-57757876D01*
X116927417Y-57768302D01*
X116808394Y-57754892D01*
X116743980Y-57727826D01*
X116734596Y-57719353D01*
X115563770Y-56548527D01*
X115563764Y-56548522D01*
X115432266Y-56472602D01*
X115432265Y-56472601D01*
X115432264Y-56472601D01*
X115285590Y-56433300D01*
X115285589Y-56433300D01*
X113616036Y-56433300D01*
X113548997Y-56413615D01*
X113503242Y-56360811D01*
X113492816Y-56323183D01*
X113482275Y-56229630D01*
X113482274Y-56229625D01*
X113422323Y-56058295D01*
X113397885Y-56019403D01*
X113325750Y-55904601D01*
X113197398Y-55776249D01*
X113043706Y-55679677D01*
X112872374Y-55619725D01*
X112872369Y-55619724D01*
X112692004Y-55599403D01*
X112691996Y-55599403D01*
X112511630Y-55619724D01*
X112511625Y-55619725D01*
X112340292Y-55679677D01*
X112285204Y-55714293D01*
X112219231Y-55733300D01*
X104317924Y-55733300D01*
X104166076Y-55733300D01*
X104019402Y-55772601D01*
X104019401Y-55772601D01*
X104019399Y-55772602D01*
X104019398Y-55772602D01*
X103887901Y-55848522D01*
X103887895Y-55848527D01*
X103317068Y-56419353D01*
X103255745Y-56452838D01*
X103243271Y-56454892D01*
X103111630Y-56469724D01*
X102940295Y-56529676D01*
X102786601Y-56626249D01*
X102658249Y-56754601D01*
X102561677Y-56908293D01*
X102501725Y-57079625D01*
X102501724Y-57079630D01*
X102481403Y-57259996D01*
X102481403Y-57260003D01*
X102501724Y-57440369D01*
X102501725Y-57440374D01*
X102561677Y-57611706D01*
X102658249Y-57765398D01*
X102786601Y-57893750D01*
X102939629Y-57989905D01*
X102940295Y-57990323D01*
X103111625Y-58050274D01*
X103137834Y-58053227D01*
X103202247Y-58080292D01*
X103241804Y-58137885D01*
X103243943Y-58207722D01*
X103240994Y-58217401D01*
X103201726Y-58329622D01*
X103201724Y-58329630D01*
X103181403Y-58509996D01*
X103181403Y-58510003D01*
X103201724Y-58690369D01*
X103201725Y-58690374D01*
X103261677Y-58861706D01*
X103358249Y-59015398D01*
X103445571Y-59102720D01*
X103479056Y-59164043D01*
X103474072Y-59233735D01*
X103462890Y-59256363D01*
X103461677Y-59258292D01*
X103401724Y-59429630D01*
X103386892Y-59561270D01*
X103359825Y-59625684D01*
X103351355Y-59635066D01*
X103287899Y-59698524D01*
X103180522Y-59805901D01*
X103104602Y-59937398D01*
X103104602Y-59937399D01*
X103104601Y-59937401D01*
X103104601Y-59937402D01*
X103076459Y-60042429D01*
X103065300Y-60084076D01*
X103065300Y-69696189D01*
X103045615Y-69763228D01*
X103028981Y-69783870D01*
X103008249Y-69804601D01*
X102911677Y-69958293D01*
X102851725Y-70129625D01*
X102851724Y-70129630D01*
X102831403Y-70309996D01*
X102831403Y-70310003D01*
X102851724Y-70490369D01*
X102851725Y-70490374D01*
X102911677Y-70661706D01*
X103008249Y-70815398D01*
X103008250Y-70815399D01*
X103136601Y-70943750D01*
X103290295Y-71040323D01*
X103461625Y-71100274D01*
X103461630Y-71100275D01*
X103641996Y-71120597D01*
X103642000Y-71120597D01*
X103642004Y-71120597D01*
X103822369Y-71100275D01*
X103822372Y-71100274D01*
X103822375Y-71100274D01*
X103993705Y-71040323D01*
X104147399Y-70943750D01*
X104275750Y-70815399D01*
X104372323Y-70661705D01*
X104432274Y-70490375D01*
X104432275Y-70490369D01*
X104452597Y-70310003D01*
X104452597Y-70309996D01*
X104432275Y-70129630D01*
X104432274Y-70129625D01*
X104399052Y-70034682D01*
X104372323Y-69958295D01*
X104275750Y-69804601D01*
X104255019Y-69783870D01*
X104221534Y-69722547D01*
X104218700Y-69696189D01*
X104218700Y-65359996D01*
X106531403Y-65359996D01*
X106531403Y-65360003D01*
X106551724Y-65540369D01*
X106551725Y-65540374D01*
X106611677Y-65711706D01*
X106701465Y-65854601D01*
X106708250Y-65865399D01*
X106836601Y-65993750D01*
X106990295Y-66090323D01*
X107104134Y-66130156D01*
X107150860Y-66159517D01*
X108104181Y-67112838D01*
X108137666Y-67174161D01*
X108140500Y-67200519D01*
X108140500Y-67334074D01*
X108121494Y-67400046D01*
X108053477Y-67508293D01*
X107993525Y-67679625D01*
X107993524Y-67679630D01*
X107973203Y-67859996D01*
X107973203Y-67860003D01*
X107993524Y-68040369D01*
X107993525Y-68040374D01*
X108053477Y-68211706D01*
X108150049Y-68365398D01*
X108278401Y-68493750D01*
X108401538Y-68571123D01*
X108432095Y-68590323D01*
X108603425Y-68650274D01*
X108603430Y-68650275D01*
X108783796Y-68670597D01*
X108783800Y-68670597D01*
X108783804Y-68670597D01*
X108964169Y-68650275D01*
X108964172Y-68650274D01*
X108964175Y-68650274D01*
X109135505Y-68590323D01*
X109289199Y-68493750D01*
X109417550Y-68365399D01*
X109514123Y-68211705D01*
X109574074Y-68040375D01*
X109594397Y-67860000D01*
X109574074Y-67679625D01*
X109545382Y-67597629D01*
X109540989Y-67535068D01*
X109540903Y-67535060D01*
X109540952Y-67534552D01*
X109540807Y-67532475D01*
X109541500Y-67528993D01*
X109541500Y-66790007D01*
X109541500Y-66790004D01*
X109514581Y-66654677D01*
X109514580Y-66654676D01*
X109514580Y-66654672D01*
X109461775Y-66527189D01*
X109447549Y-66505898D01*
X109440880Y-66495917D01*
X109385114Y-66412456D01*
X109385111Y-66412453D01*
X108141517Y-65168860D01*
X108112156Y-65122133D01*
X108109855Y-65115558D01*
X108072323Y-65008295D01*
X108054311Y-64979630D01*
X107975750Y-64854601D01*
X107847398Y-64726249D01*
X107693706Y-64629677D01*
X107522374Y-64569725D01*
X107522369Y-64569724D01*
X107342004Y-64549403D01*
X107341996Y-64549403D01*
X107161630Y-64569724D01*
X107161625Y-64569725D01*
X106990293Y-64629677D01*
X106836601Y-64726249D01*
X106708249Y-64854601D01*
X106611677Y-65008293D01*
X106551725Y-65179625D01*
X106551724Y-65179630D01*
X106531403Y-65359996D01*
X104218700Y-65359996D01*
X104218700Y-60528401D01*
X104238385Y-60461362D01*
X104291189Y-60415607D01*
X104328812Y-60405181D01*
X104372375Y-60400274D01*
X104543705Y-60340323D01*
X104697399Y-60243750D01*
X104825750Y-60115399D01*
X104922323Y-59961705D01*
X104982274Y-59790375D01*
X104986903Y-59749292D01*
X105002597Y-59610003D01*
X105002597Y-59609996D01*
X104982275Y-59429630D01*
X104982274Y-59429625D01*
X104920023Y-59251722D01*
X104922969Y-59250690D01*
X104914010Y-59195164D01*
X104941939Y-59131119D01*
X105000060Y-59092341D01*
X105037033Y-59086700D01*
X105108872Y-59086700D01*
X105149827Y-59093659D01*
X105311617Y-59150272D01*
X105311623Y-59150273D01*
X105311625Y-59150274D01*
X105311626Y-59150274D01*
X105311630Y-59150275D01*
X105491996Y-59170597D01*
X105492000Y-59170597D01*
X105492004Y-59170597D01*
X105672369Y-59150275D01*
X105672372Y-59150274D01*
X105672375Y-59150274D01*
X105843705Y-59090323D01*
X105997399Y-58993750D01*
X106125750Y-58865399D01*
X106222323Y-58711705D01*
X106282274Y-58540375D01*
X106282734Y-58536298D01*
X106302597Y-58360002D01*
X106302597Y-58359997D01*
X106287642Y-58227268D01*
X106299696Y-58158446D01*
X106347045Y-58107066D01*
X106410862Y-58089384D01*
X106765420Y-58089384D01*
X106832459Y-58109069D01*
X106878214Y-58161873D01*
X106888640Y-58227268D01*
X106885403Y-58255997D01*
X106885403Y-58256003D01*
X106905724Y-58436369D01*
X106905725Y-58436374D01*
X106965677Y-58607706D01*
X107062247Y-58761395D01*
X107062250Y-58761399D01*
X107141220Y-58840369D01*
X107190602Y-58889751D01*
X107196042Y-58894089D01*
X107194831Y-58895607D01*
X107234753Y-58940725D01*
X107246500Y-58993405D01*
X107246500Y-60756318D01*
X107239542Y-60797272D01*
X107210725Y-60879627D01*
X107190403Y-61059996D01*
X107190403Y-61060003D01*
X107210724Y-61240369D01*
X107210725Y-61240374D01*
X107270677Y-61411706D01*
X107367249Y-61565398D01*
X107367250Y-61565399D01*
X107495601Y-61693750D01*
X107649295Y-61790323D01*
X107792335Y-61840375D01*
X107820625Y-61850274D01*
X107820630Y-61850275D01*
X108000996Y-61870597D01*
X108001000Y-61870597D01*
X108001004Y-61870597D01*
X108181369Y-61850275D01*
X108181372Y-61850274D01*
X108181375Y-61850274D01*
X108352705Y-61790323D01*
X108506399Y-61693750D01*
X108634750Y-61565399D01*
X108731323Y-61411705D01*
X108791274Y-61240375D01*
X108791275Y-61240369D01*
X108811597Y-61060003D01*
X108811597Y-61059996D01*
X108791274Y-60879627D01*
X108791274Y-60879625D01*
X108762458Y-60797272D01*
X108755500Y-60756318D01*
X108755500Y-58641446D01*
X108755501Y-58641425D01*
X108755501Y-58486686D01*
X108734214Y-58379677D01*
X108730300Y-58360000D01*
X108730299Y-58359997D01*
X108726506Y-58340926D01*
X108726505Y-58340920D01*
X108693332Y-58260835D01*
X108685864Y-58191368D01*
X108717139Y-58128888D01*
X108777228Y-58093236D01*
X108807894Y-58089384D01*
X114042695Y-58089384D01*
X114109734Y-58109069D01*
X114130376Y-58125703D01*
X114816920Y-58812247D01*
X114850405Y-58873570D01*
X114845421Y-58943262D01*
X114803549Y-58999195D01*
X114767636Y-59015821D01*
X114768198Y-59017426D01*
X114590293Y-59079677D01*
X114436601Y-59176249D01*
X114415870Y-59196981D01*
X114354547Y-59230466D01*
X114328189Y-59233300D01*
X114155811Y-59233300D01*
X114088772Y-59213615D01*
X114068130Y-59196981D01*
X114047398Y-59176249D01*
X113893706Y-59079677D01*
X113722374Y-59019725D01*
X113722369Y-59019724D01*
X113542004Y-58999403D01*
X113541996Y-58999403D01*
X113361630Y-59019724D01*
X113361625Y-59019725D01*
X113190293Y-59079677D01*
X113036601Y-59176249D01*
X112908249Y-59304601D01*
X112811677Y-59458293D01*
X112751725Y-59629625D01*
X112751724Y-59629630D01*
X112731403Y-59809996D01*
X112731403Y-59810003D01*
X112751724Y-59990369D01*
X112751725Y-59990374D01*
X112811677Y-60161706D01*
X112908249Y-60315398D01*
X112908250Y-60315399D01*
X113036601Y-60443750D01*
X113190295Y-60540323D01*
X113361625Y-60600274D01*
X113361630Y-60600275D01*
X113541996Y-60620597D01*
X113542000Y-60620597D01*
X113542004Y-60620597D01*
X113722369Y-60600275D01*
X113722372Y-60600274D01*
X113722375Y-60600274D01*
X113893705Y-60540323D01*
X114047399Y-60443750D01*
X114068130Y-60423019D01*
X114129453Y-60389534D01*
X114155811Y-60386700D01*
X114328189Y-60386700D01*
X114395228Y-60406385D01*
X114415870Y-60423019D01*
X114436601Y-60443750D01*
X114590295Y-60540323D01*
X114761625Y-60600274D01*
X114761630Y-60600275D01*
X114941996Y-60620597D01*
X114942000Y-60620597D01*
X114942004Y-60620597D01*
X115122369Y-60600275D01*
X115122372Y-60600274D01*
X115122375Y-60600274D01*
X115293705Y-60540323D01*
X115447399Y-60443750D01*
X115575750Y-60315399D01*
X115672323Y-60161705D01*
X115694193Y-60099203D01*
X115734912Y-60042429D01*
X115799865Y-60016680D01*
X115852185Y-60023116D01*
X115883769Y-60034168D01*
X115883773Y-60034168D01*
X115883777Y-60034169D01*
X116064140Y-60054491D01*
X116064144Y-60054491D01*
X116064148Y-60054491D01*
X116244513Y-60034169D01*
X116244516Y-60034168D01*
X116244519Y-60034168D01*
X116415849Y-59974217D01*
X116569543Y-59877644D01*
X116697894Y-59749293D01*
X116794467Y-59595599D01*
X116824258Y-59510460D01*
X116864980Y-59453685D01*
X116929932Y-59427937D01*
X116998494Y-59441393D01*
X117048897Y-59489780D01*
X117065300Y-59551415D01*
X117065300Y-61519760D01*
X117045615Y-61586799D01*
X117028981Y-61607442D01*
X116917068Y-61719354D01*
X116855745Y-61752838D01*
X116843271Y-61754892D01*
X116711630Y-61769724D01*
X116540294Y-61829676D01*
X116429524Y-61899278D01*
X116362287Y-61918278D01*
X116301552Y-61901671D01*
X116164601Y-61822602D01*
X116164598Y-61822601D01*
X116017924Y-61783300D01*
X115317924Y-61783300D01*
X115166076Y-61783300D01*
X115019402Y-61822601D01*
X115019401Y-61822601D01*
X115019399Y-61822602D01*
X115019398Y-61822602D01*
X114887901Y-61898522D01*
X114887895Y-61898527D01*
X114430527Y-62355895D01*
X114430522Y-62355901D01*
X114354602Y-62487398D01*
X114354600Y-62487403D01*
X114337266Y-62552090D01*
X114305175Y-62607674D01*
X114258250Y-62654600D01*
X114161677Y-62808292D01*
X114101725Y-62979625D01*
X114101724Y-62979630D01*
X114081403Y-63159996D01*
X114081403Y-63160003D01*
X114101724Y-63340369D01*
X114101725Y-63340374D01*
X114161677Y-63511706D01*
X114258249Y-63665398D01*
X114386601Y-63793750D01*
X114507879Y-63869955D01*
X114540295Y-63890323D01*
X114635810Y-63923745D01*
X114711625Y-63950274D01*
X114711630Y-63950275D01*
X114891996Y-63970597D01*
X114892000Y-63970597D01*
X114892004Y-63970597D01*
X115050527Y-63952736D01*
X115119348Y-63964791D01*
X115170728Y-64012140D01*
X115188410Y-64075956D01*
X115188410Y-67846651D01*
X115168725Y-67913690D01*
X115152091Y-67934332D01*
X110689442Y-72396981D01*
X110628119Y-72430466D01*
X110601761Y-72433300D01*
X100678818Y-72433300D01*
X100611779Y-72413615D01*
X100591137Y-72396981D01*
X100342683Y-72148527D01*
X100342677Y-72148522D01*
X100211179Y-72072602D01*
X100211178Y-72072601D01*
X100211177Y-72072601D01*
X100064503Y-72033300D01*
X100064502Y-72033300D01*
X99755811Y-72033300D01*
X99688772Y-72013615D01*
X99668130Y-71996981D01*
X99647398Y-71976249D01*
X99606070Y-71950281D01*
X99560382Y-71921573D01*
X99514093Y-71869241D01*
X99503444Y-71800187D01*
X99531819Y-71736339D01*
X99538662Y-71728913D01*
X101603475Y-69664102D01*
X101679399Y-69532598D01*
X101718700Y-69385924D01*
X101718700Y-69234076D01*
X101718700Y-65632767D01*
X101737706Y-65566795D01*
X101772323Y-65511705D01*
X101825407Y-65360000D01*
X101832272Y-65340382D01*
X101832275Y-65340369D01*
X101852597Y-65160003D01*
X101852597Y-65159996D01*
X101832275Y-64979630D01*
X101832274Y-64979625D01*
X101772322Y-64808292D01*
X101684844Y-64669074D01*
X101665843Y-64601837D01*
X101686210Y-64535002D01*
X101702147Y-64515429D01*
X101803475Y-64414102D01*
X101879399Y-64282598D01*
X101918700Y-64135924D01*
X101918700Y-63984076D01*
X101918700Y-57012343D01*
X101937707Y-56946370D01*
X102022322Y-56811707D01*
X102022323Y-56811704D01*
X102082274Y-56640375D01*
X102083669Y-56627996D01*
X102102597Y-56460003D01*
X102102597Y-56459996D01*
X102082275Y-56279630D01*
X102082274Y-56279625D01*
X102072728Y-56252344D01*
X102022323Y-56108295D01*
X101999099Y-56071335D01*
X101925750Y-55954601D01*
X101797398Y-55826249D01*
X101643706Y-55729677D01*
X101472374Y-55669725D01*
X101472369Y-55669724D01*
X101292004Y-55649403D01*
X101291996Y-55649403D01*
X101111630Y-55669724D01*
X101111625Y-55669725D01*
X100940293Y-55729677D01*
X100786601Y-55826249D01*
X100658249Y-55954601D01*
X100561676Y-56108295D01*
X100559741Y-56113826D01*
X100519018Y-56170601D01*
X100454064Y-56196347D01*
X100385503Y-56182889D01*
X100335101Y-56134501D01*
X100318700Y-56072869D01*
X100318700Y-55093149D01*
X100338385Y-55026110D01*
X100376726Y-54988156D01*
X100447399Y-54943750D01*
X100575750Y-54815399D01*
X100672323Y-54661705D01*
X100732274Y-54490375D01*
X100732293Y-54490206D01*
X100752597Y-54310003D01*
X100752597Y-54309996D01*
X100732275Y-54129630D01*
X100732274Y-54129625D01*
X100672322Y-53958293D01*
X100575750Y-53804601D01*
X100447398Y-53676249D01*
X100293706Y-53579677D01*
X100122374Y-53519725D01*
X100122369Y-53519724D01*
X99942004Y-53499403D01*
X99941996Y-53499403D01*
X99761630Y-53519724D01*
X99761625Y-53519725D01*
X99590293Y-53579677D01*
X99436601Y-53676249D01*
X99308249Y-53804601D01*
X99211677Y-53958293D01*
X99151725Y-54129625D01*
X99151724Y-54129630D01*
X99131403Y-54309996D01*
X99131403Y-54310003D01*
X99151724Y-54490366D01*
X99151726Y-54490376D01*
X99156270Y-54503362D01*
X99158232Y-54508969D01*
X99158341Y-54509279D01*
X99165300Y-54550234D01*
X99165300Y-64169763D01*
X99158342Y-64210717D01*
X99151725Y-64229627D01*
X99131403Y-64409996D01*
X99131403Y-64410003D01*
X99151724Y-64590369D01*
X99151725Y-64590374D01*
X99211677Y-64761706D01*
X99287939Y-64883075D01*
X99308250Y-64915399D01*
X99372476Y-64979625D01*
X99401476Y-65008625D01*
X99434960Y-65069949D01*
X99437015Y-65110187D01*
X99431404Y-65159996D01*
X99431403Y-65160003D01*
X99451724Y-65340369D01*
X99451725Y-65340374D01*
X99511677Y-65511706D01*
X99608249Y-65665398D01*
X99608250Y-65665399D01*
X99736601Y-65793750D01*
X99890295Y-65890323D01*
X100060002Y-65949706D01*
X100061625Y-65950274D01*
X100061630Y-65950275D01*
X100241996Y-65970597D01*
X100242000Y-65970597D01*
X100242003Y-65970597D01*
X100427416Y-65949706D01*
X100496238Y-65961760D01*
X100547618Y-66009110D01*
X100565300Y-66072926D01*
X100565300Y-69019761D01*
X100545615Y-69086800D01*
X100528981Y-69107442D01*
X96930527Y-72705895D01*
X96930522Y-72705901D01*
X96854602Y-72837398D01*
X96854602Y-72837399D01*
X96854601Y-72837401D01*
X96854601Y-72837402D01*
X96815300Y-72984076D01*
X96815300Y-75984076D01*
X96815300Y-76135924D01*
X96851151Y-76269724D01*
X96854602Y-76282600D01*
X96854602Y-76282601D01*
X96930522Y-76414098D01*
X96930527Y-76414104D01*
X98659242Y-78142819D01*
X98692727Y-78204142D01*
X98687743Y-78273834D01*
X98645871Y-78329767D01*
X98580407Y-78354184D01*
X98571561Y-78354500D01*
X98170110Y-78354500D01*
X98027703Y-78374974D01*
X98027691Y-78374977D01*
X97889741Y-78415483D01*
X97758863Y-78475252D01*
X97758861Y-78475254D01*
X97643523Y-78549376D01*
X97642083Y-78550196D01*
X97637901Y-78552988D01*
X97529169Y-78647207D01*
X97529166Y-78647210D01*
X97435018Y-78755864D01*
X97435015Y-78755867D01*
X97357231Y-78876905D01*
X97357223Y-78876918D01*
X97300263Y-79001643D01*
X97298015Y-79005939D01*
X97256966Y-79145738D01*
X97256965Y-79145744D01*
X97236503Y-79288059D01*
X97236503Y-79344399D01*
X97236500Y-79344409D01*
X97236500Y-79875573D01*
X97236503Y-79875601D01*
X97236503Y-79931941D01*
X97255505Y-80064102D01*
X97255703Y-80065478D01*
X97255703Y-80065481D01*
X97256964Y-80074255D01*
X97297503Y-80212313D01*
X97357223Y-80343081D01*
X97357227Y-80343087D01*
X97357230Y-80343094D01*
X97400677Y-80410700D01*
X97435015Y-80464132D01*
X97435018Y-80464136D01*
X97529152Y-80572773D01*
X97529169Y-80572792D01*
X97529185Y-80572807D01*
X97571763Y-80609700D01*
X97622502Y-80653665D01*
X97660277Y-80712440D01*
X97665300Y-80747377D01*
X97665300Y-80884076D01*
X97665300Y-81035924D01*
X97702633Y-81175255D01*
X97704602Y-81182600D01*
X97704602Y-81182601D01*
X97780522Y-81314098D01*
X97780524Y-81314100D01*
X97780525Y-81314102D01*
X98230525Y-81764102D01*
X98337898Y-81871475D01*
X98337899Y-81871476D01*
X98337901Y-81871477D01*
X98363652Y-81886344D01*
X98469402Y-81947399D01*
X98616076Y-81986700D01*
X98616078Y-81986700D01*
X100642199Y-81986700D01*
X100709238Y-82006385D01*
X100754993Y-82059189D01*
X100764937Y-82128347D01*
X100761974Y-82142794D01*
X100724151Y-82283947D01*
X100724150Y-82283954D01*
X100707864Y-82470108D01*
X100682411Y-82535176D01*
X100625820Y-82576155D01*
X100584336Y-82583300D01*
X96382239Y-82583300D01*
X96315200Y-82563615D01*
X96294558Y-82546981D01*
X93905019Y-80157442D01*
X93871534Y-80096119D01*
X93868700Y-80069761D01*
X93868700Y-76195883D01*
X93888385Y-76128844D01*
X93941189Y-76083089D01*
X94025076Y-76044779D01*
X94025081Y-76044775D01*
X94025094Y-76044770D01*
X94146130Y-75966986D01*
X94254791Y-75872832D01*
X94254794Y-75872829D01*
X94335666Y-75779496D01*
X94394442Y-75741723D01*
X94429378Y-75736700D01*
X94617922Y-75736700D01*
X94617924Y-75736700D01*
X94764598Y-75697399D01*
X94896102Y-75621475D01*
X95453475Y-75064102D01*
X95529399Y-74932598D01*
X95568700Y-74785924D01*
X95568700Y-74634076D01*
X95568700Y-72896576D01*
X95531768Y-72758743D01*
X95533431Y-72688898D01*
X95572593Y-72631035D01*
X95636821Y-72603531D01*
X95662343Y-72603126D01*
X95789310Y-72614234D01*
X95804499Y-72615563D01*
X95804500Y-72615563D01*
X95804502Y-72615563D01*
X95862262Y-72610509D01*
X96035550Y-72595349D01*
X96259579Y-72535320D01*
X96469782Y-72437301D01*
X96659769Y-72304270D01*
X96823770Y-72140269D01*
X96956801Y-71950282D01*
X97054820Y-71740079D01*
X97114849Y-71516050D01*
X97135063Y-71285000D01*
X97114849Y-71053950D01*
X97054820Y-70829921D01*
X96956801Y-70619719D01*
X96956799Y-70619716D01*
X96956798Y-70619714D01*
X96823773Y-70429735D01*
X96823768Y-70429729D01*
X96659769Y-70265730D01*
X96659763Y-70265726D01*
X96469782Y-70132699D01*
X96259579Y-70034680D01*
X96259576Y-70034679D01*
X96259574Y-70034678D01*
X96035551Y-69974651D01*
X96035544Y-69974650D01*
X95804502Y-69954437D01*
X95804498Y-69954437D01*
X95573455Y-69974650D01*
X95573448Y-69974651D01*
X95349417Y-70034681D01*
X95139218Y-70132699D01*
X95139214Y-70132701D01*
X94949235Y-70265726D01*
X94949229Y-70265731D01*
X94785231Y-70429729D01*
X94785226Y-70429735D01*
X94656075Y-70614183D01*
X94601498Y-70657808D01*
X94532000Y-70665002D01*
X94469645Y-70633479D01*
X94452925Y-70614183D01*
X94323773Y-70429735D01*
X94323768Y-70429729D01*
X94159769Y-70265730D01*
X94159763Y-70265726D01*
X93969782Y-70132699D01*
X93759579Y-70034680D01*
X93759576Y-70034679D01*
X93759574Y-70034678D01*
X93535551Y-69974651D01*
X93535544Y-69974650D01*
X93304502Y-69954437D01*
X93304498Y-69954437D01*
X93073455Y-69974650D01*
X93073448Y-69974651D01*
X92944099Y-70009310D01*
X92849421Y-70034680D01*
X92849419Y-70034680D01*
X92849415Y-70034682D01*
X92795104Y-70060008D01*
X92726027Y-70070500D01*
X92662243Y-70041980D01*
X92624004Y-69983503D01*
X92618700Y-69947626D01*
X92618700Y-67150238D01*
X92638385Y-67083199D01*
X92655015Y-67062561D01*
X93416932Y-66300643D01*
X93478253Y-66267160D01*
X93490726Y-66265106D01*
X93530963Y-66260573D01*
X93622369Y-66250275D01*
X93622372Y-66250274D01*
X93622375Y-66250274D01*
X93793705Y-66190323D01*
X93947399Y-66093750D01*
X94075750Y-65965399D01*
X94172323Y-65811705D01*
X94232274Y-65640375D01*
X94232275Y-65640369D01*
X94252597Y-65460003D01*
X94252597Y-65459996D01*
X94232275Y-65279630D01*
X94232274Y-65279625D01*
X94196500Y-65177388D01*
X94172323Y-65108295D01*
X94149099Y-65071335D01*
X94075752Y-64954604D01*
X94075751Y-64954603D01*
X94075750Y-64954601D01*
X94004224Y-64883075D01*
X93970740Y-64821751D01*
X93974864Y-64754440D01*
X94022457Y-64618430D01*
X94032273Y-64590379D01*
X94032275Y-64590369D01*
X94047106Y-64458730D01*
X94074172Y-64394316D01*
X94082633Y-64384943D01*
X94103475Y-64364102D01*
X94179399Y-64232598D01*
X94218700Y-64085924D01*
X94218700Y-63934076D01*
X94218700Y-62273811D01*
X94238385Y-62206772D01*
X94255019Y-62186130D01*
X94275750Y-62165399D01*
X94372323Y-62011705D01*
X94432274Y-61840375D01*
X94432275Y-61840369D01*
X94452597Y-61660003D01*
X94452597Y-61659996D01*
X94432275Y-61479630D01*
X94432274Y-61479625D01*
X94401044Y-61390375D01*
X94372323Y-61308295D01*
X94317860Y-61221619D01*
X94275750Y-61154601D01*
X94147398Y-61026249D01*
X93993706Y-60929677D01*
X93822374Y-60869725D01*
X93822369Y-60869724D01*
X93642004Y-60849403D01*
X93641996Y-60849403D01*
X93461630Y-60869724D01*
X93461625Y-60869725D01*
X93290293Y-60929677D01*
X93136601Y-61026249D01*
X93008249Y-61154601D01*
X92911677Y-61308293D01*
X92851725Y-61479625D01*
X92851724Y-61479630D01*
X92831403Y-61659996D01*
X92831403Y-61660003D01*
X92851724Y-61840369D01*
X92851726Y-61840377D01*
X92878218Y-61916088D01*
X92881779Y-61985867D01*
X92847050Y-62046494D01*
X92785056Y-62078721D01*
X92715481Y-62072315D01*
X92695204Y-62062036D01*
X92643705Y-62029677D01*
X92472374Y-61969725D01*
X92472369Y-61969724D01*
X92292004Y-61949403D01*
X92291996Y-61949403D01*
X92111630Y-61969724D01*
X92111625Y-61969725D01*
X91940292Y-62029677D01*
X91901438Y-62054091D01*
X91834201Y-62073090D01*
X91767367Y-62052721D01*
X91722153Y-61999453D01*
X91718426Y-61990050D01*
X91706688Y-61956506D01*
X91672323Y-61858295D01*
X91575750Y-61704601D01*
X91447399Y-61576250D01*
X91447398Y-61576249D01*
X91293706Y-61479677D01*
X91122374Y-61419725D01*
X91122369Y-61419724D01*
X90942004Y-61399403D01*
X90941996Y-61399403D01*
X90761633Y-61419724D01*
X90761623Y-61419726D01*
X90742721Y-61426341D01*
X90701766Y-61433300D01*
X88116194Y-61433300D01*
X88049155Y-61413615D01*
X88003400Y-61360811D01*
X87992974Y-61295417D01*
X88002597Y-61210004D01*
X88002597Y-61209996D01*
X87998607Y-61174583D01*
X88010662Y-61105761D01*
X88058011Y-61054382D01*
X88121827Y-61036700D01*
X88467922Y-61036700D01*
X88467924Y-61036700D01*
X88614598Y-60997399D01*
X88746102Y-60921475D01*
X88766930Y-60900646D01*
X88828249Y-60867161D01*
X88840730Y-60865106D01*
X88972369Y-60850275D01*
X88972372Y-60850274D01*
X88972375Y-60850274D01*
X89143705Y-60790323D01*
X89297399Y-60693750D01*
X89425750Y-60565399D01*
X89522323Y-60411705D01*
X89582274Y-60240375D01*
X89596355Y-60115399D01*
X89602597Y-60060003D01*
X89602597Y-60059996D01*
X89582275Y-59879630D01*
X89582274Y-59879625D01*
X89522322Y-59708293D01*
X89425750Y-59554601D01*
X89297398Y-59426249D01*
X89143706Y-59329677D01*
X88972374Y-59269725D01*
X88972369Y-59269724D01*
X88792004Y-59249403D01*
X88791996Y-59249403D01*
X88611630Y-59269724D01*
X88611625Y-59269725D01*
X88440293Y-59329677D01*
X88286601Y-59426249D01*
X88158249Y-59554601D01*
X88061676Y-59708295D01*
X88029499Y-59800254D01*
X87988777Y-59857031D01*
X87923824Y-59882778D01*
X87912457Y-59883300D01*
X86473611Y-59883300D01*
X86406572Y-59863615D01*
X86360817Y-59810811D01*
X86350873Y-59741653D01*
X86379898Y-59678097D01*
X86385930Y-59671619D01*
X86442150Y-59615399D01*
X86538723Y-59461705D01*
X86598674Y-59290375D01*
X86598675Y-59290367D01*
X86618997Y-59110003D01*
X86618997Y-59109996D01*
X86598675Y-58929630D01*
X86598674Y-58929625D01*
X86562160Y-58825274D01*
X86538723Y-58758295D01*
X86509448Y-58711705D01*
X86442150Y-58604601D01*
X86313797Y-58476248D01*
X86313795Y-58476247D01*
X86296999Y-58465693D01*
X86250709Y-58413359D01*
X86240061Y-58344305D01*
X86268436Y-58280457D01*
X86326826Y-58242085D01*
X86362972Y-58236700D01*
X92940268Y-58236700D01*
X93007307Y-58256385D01*
X93045262Y-58294728D01*
X93058250Y-58315399D01*
X93186601Y-58443750D01*
X93292036Y-58510000D01*
X93340295Y-58540323D01*
X93511625Y-58600274D01*
X93511630Y-58600275D01*
X93691996Y-58620597D01*
X93692000Y-58620597D01*
X93692004Y-58620597D01*
X93872369Y-58600275D01*
X93872372Y-58600274D01*
X93872375Y-58600274D01*
X94043705Y-58540323D01*
X94197399Y-58443750D01*
X94325750Y-58315399D01*
X94422323Y-58161705D01*
X94430562Y-58138159D01*
X94471283Y-58081382D01*
X94536235Y-58055634D01*
X94561486Y-58055891D01*
X94592494Y-58059385D01*
X94691997Y-58070597D01*
X94692000Y-58070597D01*
X94692004Y-58070597D01*
X94872369Y-58050275D01*
X94872372Y-58050274D01*
X94872375Y-58050274D01*
X95043705Y-57990323D01*
X95197399Y-57893750D01*
X95275819Y-57815330D01*
X95337142Y-57781845D01*
X95406834Y-57786829D01*
X95462767Y-57828701D01*
X95487184Y-57894165D01*
X95487500Y-57903011D01*
X95487500Y-65156318D01*
X95480542Y-65197272D01*
X95451725Y-65279627D01*
X95431403Y-65459996D01*
X95431403Y-65460003D01*
X95451724Y-65640369D01*
X95451725Y-65640374D01*
X95511677Y-65811706D01*
X95608249Y-65965398D01*
X95736601Y-66093750D01*
X95873329Y-66179663D01*
X95890295Y-66190323D01*
X95954628Y-66212834D01*
X96061625Y-66250274D01*
X96061630Y-66250275D01*
X96241996Y-66270597D01*
X96242000Y-66270597D01*
X96242004Y-66270597D01*
X96422369Y-66250275D01*
X96422372Y-66250274D01*
X96422375Y-66250274D01*
X96593705Y-66190323D01*
X96747399Y-66093750D01*
X96875750Y-65965399D01*
X96972323Y-65811705D01*
X97032274Y-65640375D01*
X97032275Y-65640369D01*
X97052597Y-65460003D01*
X97052597Y-65459996D01*
X97034523Y-65299586D01*
X97032274Y-65279625D01*
X97003458Y-65197272D01*
X96996500Y-65156318D01*
X96996500Y-41336100D01*
X97016185Y-41269061D01*
X97068989Y-41223306D01*
X97120500Y-41212100D01*
X97241240Y-41212100D01*
X97308279Y-41231785D01*
X97328921Y-41248419D01*
X97455914Y-41375412D01*
X97489399Y-41436735D01*
X97491453Y-41449209D01*
X97501724Y-41540369D01*
X97561676Y-41711704D01*
X97561678Y-41711706D01*
X97658250Y-41865399D01*
X97786601Y-41993750D01*
X97940295Y-42090323D01*
X98111625Y-42150274D01*
X98111630Y-42150275D01*
X98291996Y-42170597D01*
X98292000Y-42170597D01*
X98292004Y-42170597D01*
X98472369Y-42150275D01*
X98472372Y-42150274D01*
X98472375Y-42150274D01*
X98643705Y-42090323D01*
X98797399Y-41993750D01*
X98925750Y-41865399D01*
X99022323Y-41711705D01*
X99082274Y-41540375D01*
X99092546Y-41449209D01*
X99102597Y-41360003D01*
X99102597Y-41359996D01*
X99082275Y-41179630D01*
X99082274Y-41179625D01*
X99022322Y-41008293D01*
X98925750Y-40854601D01*
X98797398Y-40726249D01*
X98643704Y-40629676D01*
X98472369Y-40569724D01*
X98381209Y-40559453D01*
X98316795Y-40532386D01*
X98307412Y-40523914D01*
X97911699Y-40128201D01*
X97911698Y-40128200D01*
X97870994Y-40104700D01*
X97870994Y-40104699D01*
X97870992Y-40104699D01*
X97774404Y-40048934D01*
X97774403Y-40048933D01*
X97723357Y-40035255D01*
X97621268Y-40007900D01*
X97621266Y-40007900D01*
X97120500Y-40007900D01*
X97053461Y-39988215D01*
X97007706Y-39935411D01*
X96996500Y-39883900D01*
X96996500Y-35073887D01*
X97016185Y-35006848D01*
X97032819Y-34986206D01*
X99918206Y-32100819D01*
X99979529Y-32067334D01*
X100005887Y-32064500D01*
X102511554Y-32064500D01*
X102511574Y-32064501D01*
X102517688Y-32064501D01*
X102666314Y-32064501D01*
X102787894Y-32040315D01*
X102787894Y-32040316D01*
X102787900Y-32040313D01*
X102812080Y-32035505D01*
X102847942Y-32020649D01*
X102868944Y-32011951D01*
X102868947Y-32011949D01*
X102868955Y-32011946D01*
X102949389Y-31978630D01*
X103072966Y-31896059D01*
X104637963Y-30331060D01*
X104637966Y-30331059D01*
X104743059Y-30225966D01*
X104825629Y-30102390D01*
X104882505Y-29965080D01*
X104905014Y-29851918D01*
X104937398Y-29790008D01*
X104955508Y-29774535D01*
X105028401Y-29723495D01*
X105195495Y-29556401D01*
X105331035Y-29362830D01*
X105430903Y-29148663D01*
X105468058Y-29009997D01*
X117436652Y-29009997D01*
X117436652Y-29010002D01*
X117443988Y-29145304D01*
X117447810Y-29215807D01*
X117456028Y-29367368D01*
X117456029Y-29367385D01*
X117513926Y-29720539D01*
X117513932Y-29720565D01*
X117609672Y-30065392D01*
X117609674Y-30065399D01*
X117742142Y-30397870D01*
X117742151Y-30397888D01*
X117909784Y-30714077D01*
X117909787Y-30714082D01*
X117909789Y-30714085D01*
X118094449Y-30986439D01*
X118110634Y-31010309D01*
X118110641Y-31010319D01*
X118313533Y-31249181D01*
X118342332Y-31283086D01*
X118602163Y-31529211D01*
X118887081Y-31745800D01*
X119193747Y-31930315D01*
X119193749Y-31930316D01*
X119193751Y-31930317D01*
X119193755Y-31930319D01*
X119483785Y-32064500D01*
X119518565Y-32080591D01*
X119857726Y-32194868D01*
X120207254Y-32271805D01*
X120563052Y-32310500D01*
X120563058Y-32310500D01*
X120920942Y-32310500D01*
X120920948Y-32310500D01*
X121276746Y-32271805D01*
X121626274Y-32194868D01*
X121965435Y-32080591D01*
X122290253Y-31930315D01*
X122596919Y-31745800D01*
X122881837Y-31529211D01*
X123141668Y-31283086D01*
X123373365Y-31010311D01*
X123574211Y-30714085D01*
X123741853Y-30397880D01*
X123874324Y-30065403D01*
X123970071Y-29720552D01*
X123996983Y-29556395D01*
X124027970Y-29367385D01*
X124027970Y-29367382D01*
X124027972Y-29367371D01*
X124047348Y-29010000D01*
X124027972Y-28652629D01*
X124017459Y-28588505D01*
X123970073Y-28299460D01*
X123970072Y-28299459D01*
X123970071Y-28299448D01*
X123970067Y-28299435D01*
X123970065Y-28299424D01*
X123874327Y-27954607D01*
X123874325Y-27954600D01*
X123858976Y-27916078D01*
X123818145Y-27813599D01*
X123741857Y-27622129D01*
X123741848Y-27622111D01*
X123574215Y-27305922D01*
X123574213Y-27305919D01*
X123574211Y-27305915D01*
X123373365Y-27009689D01*
X123373361Y-27009684D01*
X123373358Y-27009680D01*
X123141668Y-26736914D01*
X123104432Y-26701642D01*
X122881837Y-26490789D01*
X122881830Y-26490783D01*
X122881827Y-26490781D01*
X122804974Y-26432359D01*
X122596919Y-26274200D01*
X122290253Y-26089685D01*
X122290252Y-26089684D01*
X122290248Y-26089682D01*
X122290244Y-26089680D01*
X121965447Y-25939414D01*
X121965441Y-25939411D01*
X121965435Y-25939409D01*
X121795854Y-25882270D01*
X121626273Y-25825131D01*
X121276744Y-25748194D01*
X120920949Y-25709500D01*
X120920948Y-25709500D01*
X120563052Y-25709500D01*
X120563050Y-25709500D01*
X120207255Y-25748194D01*
X119857726Y-25825131D01*
X119601970Y-25911306D01*
X119518565Y-25939409D01*
X119518563Y-25939410D01*
X119518552Y-25939414D01*
X119193755Y-26089680D01*
X119193751Y-26089682D01*
X118965367Y-26227096D01*
X118887081Y-26274200D01*
X118838014Y-26311500D01*
X118602172Y-26490781D01*
X118602163Y-26490789D01*
X118342331Y-26736914D01*
X118110641Y-27009680D01*
X118110634Y-27009690D01*
X117909790Y-27305913D01*
X117909784Y-27305922D01*
X117742151Y-27622111D01*
X117742142Y-27622129D01*
X117609674Y-27954600D01*
X117609672Y-27954607D01*
X117513935Y-28299424D01*
X117513926Y-28299460D01*
X117456029Y-28652614D01*
X117456028Y-28652627D01*
X117456028Y-28652629D01*
X117450950Y-28746284D01*
X117436652Y-29009997D01*
X105468058Y-29009997D01*
X105492063Y-28920408D01*
X105512659Y-28685000D01*
X105492063Y-28449592D01*
X105430903Y-28221337D01*
X105331035Y-28007171D01*
X105294230Y-27954607D01*
X105195494Y-27813597D01*
X105028402Y-27646506D01*
X105028396Y-27646501D01*
X104842842Y-27516575D01*
X104799217Y-27461998D01*
X104792023Y-27392500D01*
X104823546Y-27330145D01*
X104842842Y-27313425D01*
X104905800Y-27269341D01*
X105028401Y-27183495D01*
X105195495Y-27016401D01*
X105331035Y-26822830D01*
X105430903Y-26608663D01*
X105492063Y-26380408D01*
X105512659Y-26145000D01*
X105492063Y-25909592D01*
X105430903Y-25681337D01*
X105331035Y-25467171D01*
X105268471Y-25377819D01*
X105195494Y-25273597D01*
X105028402Y-25106506D01*
X105028395Y-25106501D01*
X104834834Y-24970967D01*
X104834830Y-24970965D01*
X104620663Y-24871097D01*
X104620659Y-24871096D01*
X104620655Y-24871094D01*
X104392413Y-24809938D01*
X104392403Y-24809936D01*
X104157001Y-24789341D01*
X104156996Y-24789341D01*
X104114341Y-24793072D01*
X104045841Y-24779304D01*
X104015855Y-24757225D01*
X103033927Y-23775296D01*
X103033924Y-23775293D01*
X102976766Y-23737102D01*
X102931961Y-23683490D01*
X102923254Y-23614165D01*
X102953408Y-23551138D01*
X103012851Y-23514418D01*
X103045657Y-23510000D01*
X120741290Y-23510000D01*
X120742642Y-23510007D01*
X120977302Y-23512565D01*
X120986734Y-23513029D01*
X121454846Y-23553984D01*
X121465567Y-23555396D01*
X121927664Y-23636875D01*
X121938192Y-23639209D01*
X122391458Y-23760661D01*
X122401747Y-23763906D01*
X122842688Y-23924395D01*
X122852654Y-23928523D01*
X123277926Y-24126830D01*
X123287512Y-24131821D01*
X123693866Y-24366429D01*
X123702985Y-24372238D01*
X124087353Y-24641376D01*
X124095935Y-24647962D01*
X124455370Y-24949564D01*
X124463345Y-24956872D01*
X124795127Y-25288654D01*
X124802435Y-25296629D01*
X125104037Y-25656064D01*
X125110623Y-25664646D01*
X125379761Y-26049014D01*
X125385573Y-26058138D01*
X125620176Y-26464483D01*
X125625171Y-26474078D01*
X125823470Y-26899331D01*
X125827609Y-26909323D01*
X125883477Y-27062819D01*
X125988089Y-27350239D01*
X125991342Y-27360555D01*
X126112786Y-27813790D01*
X126115127Y-27824352D01*
X126196603Y-28286432D01*
X126198015Y-28297156D01*
X126238969Y-28765252D01*
X126239434Y-28774708D01*
X126241993Y-29009357D01*
X126242000Y-29010709D01*
X126242000Y-99009290D01*
X126241993Y-99010642D01*
X126239434Y-99245291D01*
X126238969Y-99254747D01*
X126198015Y-99722843D01*
X126196603Y-99733567D01*
X126115127Y-100195647D01*
X126112786Y-100206209D01*
X125991342Y-100659444D01*
X125988089Y-100669760D01*
X125827610Y-101110673D01*
X125823470Y-101120668D01*
X125625171Y-101545921D01*
X125620176Y-101555516D01*
X125385573Y-101961861D01*
X125379761Y-101970985D01*
X125110623Y-102355353D01*
X125104037Y-102363935D01*
X124802435Y-102723370D01*
X124795127Y-102731345D01*
X124463345Y-103063127D01*
X124455370Y-103070435D01*
X124095935Y-103372037D01*
X124087353Y-103378623D01*
X123702985Y-103647761D01*
X123693861Y-103653573D01*
X123287516Y-103888176D01*
X123277921Y-103893171D01*
X122852668Y-104091470D01*
X122842673Y-104095610D01*
X122401760Y-104256089D01*
X122391444Y-104259342D01*
X121938209Y-104380786D01*
X121927647Y-104383127D01*
X121465567Y-104464603D01*
X121454843Y-104466015D01*
X120986747Y-104506969D01*
X120977291Y-104507434D01*
X120742642Y-104509993D01*
X120741290Y-104510000D01*
X30742710Y-104510000D01*
X30741358Y-104509993D01*
X30506708Y-104507434D01*
X30497252Y-104506969D01*
X30029156Y-104466015D01*
X30018432Y-104464603D01*
X29556352Y-104383127D01*
X29545790Y-104380786D01*
X29092555Y-104259342D01*
X29082239Y-104256089D01*
X28641326Y-104095610D01*
X28631331Y-104091470D01*
X28206078Y-103893171D01*
X28196483Y-103888176D01*
X27790138Y-103653573D01*
X27781014Y-103647761D01*
X27396646Y-103378623D01*
X27388064Y-103372037D01*
X27028629Y-103070435D01*
X27020654Y-103063127D01*
X26688872Y-102731345D01*
X26681564Y-102723370D01*
X26379962Y-102363935D01*
X26373376Y-102355353D01*
X26104238Y-101970985D01*
X26098426Y-101961861D01*
X26080215Y-101930319D01*
X25863821Y-101555512D01*
X25858828Y-101545921D01*
X25660523Y-101120654D01*
X25656395Y-101110688D01*
X25495906Y-100669747D01*
X25492661Y-100659458D01*
X25371209Y-100206192D01*
X25368875Y-100195664D01*
X25287396Y-99733567D01*
X25285984Y-99722843D01*
X25285785Y-99720565D01*
X25245029Y-99254734D01*
X25244565Y-99245291D01*
X25242007Y-99010642D01*
X25242004Y-99009997D01*
X27436652Y-99009997D01*
X27436652Y-99010002D01*
X27456028Y-99367368D01*
X27456029Y-99367385D01*
X27513926Y-99720539D01*
X27513932Y-99720565D01*
X27609672Y-100065392D01*
X27609674Y-100065399D01*
X27742142Y-100397870D01*
X27742151Y-100397888D01*
X27909784Y-100714077D01*
X27909790Y-100714086D01*
X28110634Y-101010309D01*
X28110641Y-101010319D01*
X28342331Y-101283085D01*
X28342332Y-101283086D01*
X28602163Y-101529211D01*
X28887081Y-101745800D01*
X29193747Y-101930315D01*
X29193749Y-101930316D01*
X29193751Y-101930317D01*
X29193755Y-101930319D01*
X29281654Y-101970985D01*
X29518565Y-102080591D01*
X29857726Y-102194868D01*
X30207254Y-102271805D01*
X30563052Y-102310500D01*
X30563058Y-102310500D01*
X30920942Y-102310500D01*
X30920948Y-102310500D01*
X31276746Y-102271805D01*
X31626274Y-102194868D01*
X31965435Y-102080591D01*
X32290253Y-101930315D01*
X32596919Y-101745800D01*
X32881837Y-101529211D01*
X33141668Y-101283086D01*
X33373365Y-101010311D01*
X33574211Y-100714085D01*
X33741853Y-100397880D01*
X33874324Y-100065403D01*
X33970071Y-99720552D01*
X34027972Y-99367371D01*
X34047348Y-99010000D01*
X34047348Y-99009997D01*
X117436652Y-99009997D01*
X117436652Y-99010002D01*
X117456028Y-99367368D01*
X117456029Y-99367385D01*
X117513926Y-99720539D01*
X117513932Y-99720565D01*
X117609672Y-100065392D01*
X117609674Y-100065399D01*
X117742142Y-100397870D01*
X117742151Y-100397888D01*
X117909784Y-100714077D01*
X117909790Y-100714086D01*
X118110634Y-101010309D01*
X118110641Y-101010319D01*
X118342331Y-101283085D01*
X118342332Y-101283086D01*
X118602163Y-101529211D01*
X118887081Y-101745800D01*
X119193747Y-101930315D01*
X119193749Y-101930316D01*
X119193751Y-101930317D01*
X119193755Y-101930319D01*
X119281654Y-101970985D01*
X119518565Y-102080591D01*
X119857726Y-102194868D01*
X120207254Y-102271805D01*
X120563052Y-102310500D01*
X120563058Y-102310500D01*
X120920942Y-102310500D01*
X120920948Y-102310500D01*
X121276746Y-102271805D01*
X121626274Y-102194868D01*
X121965435Y-102080591D01*
X122290253Y-101930315D01*
X122596919Y-101745800D01*
X122881837Y-101529211D01*
X123141668Y-101283086D01*
X123373365Y-101010311D01*
X123574211Y-100714085D01*
X123741853Y-100397880D01*
X123874324Y-100065403D01*
X123970071Y-99720552D01*
X124027972Y-99367371D01*
X124047348Y-99010000D01*
X124027972Y-98652629D01*
X124002131Y-98495008D01*
X123970073Y-98299460D01*
X123970072Y-98299459D01*
X123970071Y-98299448D01*
X123936540Y-98178678D01*
X123874327Y-97954607D01*
X123874325Y-97954600D01*
X123741857Y-97622129D01*
X123741848Y-97622111D01*
X123574215Y-97305922D01*
X123574213Y-97305919D01*
X123574211Y-97305915D01*
X123373365Y-97009689D01*
X123373361Y-97009684D01*
X123373358Y-97009680D01*
X123141668Y-96736914D01*
X122881837Y-96490789D01*
X122881830Y-96490783D01*
X122881827Y-96490781D01*
X122814245Y-96439407D01*
X122596919Y-96274200D01*
X122290253Y-96089685D01*
X122290252Y-96089684D01*
X122290248Y-96089682D01*
X122290244Y-96089680D01*
X121965447Y-95939414D01*
X121965441Y-95939411D01*
X121965435Y-95939409D01*
X121795854Y-95882270D01*
X121626273Y-95825131D01*
X121276744Y-95748194D01*
X120920949Y-95709500D01*
X120920948Y-95709500D01*
X120563052Y-95709500D01*
X120563050Y-95709500D01*
X120207255Y-95748194D01*
X119857726Y-95825131D01*
X119601970Y-95911306D01*
X119518565Y-95939409D01*
X119518563Y-95939410D01*
X119518552Y-95939414D01*
X119193755Y-96089680D01*
X119193751Y-96089682D01*
X118965367Y-96227096D01*
X118887081Y-96274200D01*
X118798768Y-96341333D01*
X118602172Y-96490781D01*
X118602163Y-96490789D01*
X118342331Y-96736914D01*
X118110641Y-97009680D01*
X118110634Y-97009690D01*
X117909790Y-97305913D01*
X117909784Y-97305922D01*
X117742151Y-97622111D01*
X117742142Y-97622129D01*
X117609674Y-97954600D01*
X117609672Y-97954607D01*
X117513932Y-98299434D01*
X117513926Y-98299460D01*
X117456029Y-98652614D01*
X117456028Y-98652631D01*
X117436652Y-99009997D01*
X34047348Y-99009997D01*
X34027972Y-98652629D01*
X34002131Y-98495008D01*
X33970073Y-98299460D01*
X33970072Y-98299459D01*
X33970071Y-98299448D01*
X33936540Y-98178678D01*
X33874327Y-97954607D01*
X33874325Y-97954600D01*
X33844087Y-97878707D01*
X105172500Y-97878707D01*
X105172500Y-98031293D01*
X105211992Y-98178678D01*
X105211993Y-98178681D01*
X105288282Y-98310817D01*
X105288284Y-98310819D01*
X105288285Y-98310821D01*
X105396179Y-98418715D01*
X105396180Y-98418716D01*
X105396182Y-98418717D01*
X105528318Y-98495006D01*
X105528319Y-98495006D01*
X105528322Y-98495008D01*
X105675707Y-98534500D01*
X105675710Y-98534500D01*
X105828290Y-98534500D01*
X105828293Y-98534500D01*
X105975678Y-98495008D01*
X106107821Y-98418715D01*
X106215715Y-98310821D01*
X106292008Y-98178678D01*
X106331500Y-98031293D01*
X106331500Y-97878707D01*
X110952500Y-97878707D01*
X110952500Y-98031293D01*
X110991992Y-98178678D01*
X110991993Y-98178681D01*
X111068282Y-98310817D01*
X111068284Y-98310819D01*
X111068285Y-98310821D01*
X111176179Y-98418715D01*
X111176180Y-98418716D01*
X111176182Y-98418717D01*
X111308318Y-98495006D01*
X111308319Y-98495006D01*
X111308322Y-98495008D01*
X111455707Y-98534500D01*
X111455710Y-98534500D01*
X111608290Y-98534500D01*
X111608293Y-98534500D01*
X111755678Y-98495008D01*
X111887821Y-98418715D01*
X111995715Y-98310821D01*
X112072008Y-98178678D01*
X112111500Y-98031293D01*
X112111500Y-97878707D01*
X112072008Y-97731322D01*
X111995715Y-97599179D01*
X111887821Y-97491285D01*
X111887819Y-97491284D01*
X111887817Y-97491282D01*
X111755681Y-97414993D01*
X111755682Y-97414993D01*
X111743595Y-97411754D01*
X111608293Y-97375500D01*
X111455707Y-97375500D01*
X111320404Y-97411754D01*
X111308318Y-97414993D01*
X111176182Y-97491282D01*
X111176176Y-97491287D01*
X111068287Y-97599176D01*
X111068282Y-97599182D01*
X110991993Y-97731318D01*
X110991992Y-97731322D01*
X110952500Y-97878707D01*
X106331500Y-97878707D01*
X106292008Y-97731322D01*
X106215715Y-97599179D01*
X106107821Y-97491285D01*
X106107819Y-97491284D01*
X106107817Y-97491282D01*
X105975681Y-97414993D01*
X105975682Y-97414993D01*
X105963595Y-97411754D01*
X105828293Y-97375500D01*
X105675707Y-97375500D01*
X105540404Y-97411754D01*
X105528318Y-97414993D01*
X105396182Y-97491282D01*
X105396176Y-97491287D01*
X105288287Y-97599176D01*
X105288282Y-97599182D01*
X105211993Y-97731318D01*
X105211992Y-97731322D01*
X105172500Y-97878707D01*
X33844087Y-97878707D01*
X33741857Y-97622129D01*
X33741848Y-97622111D01*
X33574215Y-97305922D01*
X33574213Y-97305919D01*
X33574211Y-97305915D01*
X33373365Y-97009689D01*
X33373361Y-97009684D01*
X33373358Y-97009680D01*
X33141668Y-96736914D01*
X32881837Y-96490789D01*
X32881830Y-96490783D01*
X32881827Y-96490781D01*
X32814245Y-96439407D01*
X32596919Y-96274200D01*
X32290253Y-96089685D01*
X32290252Y-96089684D01*
X32290248Y-96089682D01*
X32290244Y-96089680D01*
X31965447Y-95939414D01*
X31965441Y-95939411D01*
X31965435Y-95939409D01*
X31795854Y-95882270D01*
X31626273Y-95825131D01*
X31276744Y-95748194D01*
X30920949Y-95709500D01*
X30920948Y-95709500D01*
X30563052Y-95709500D01*
X30563050Y-95709500D01*
X30207255Y-95748194D01*
X29857726Y-95825131D01*
X29601970Y-95911306D01*
X29518565Y-95939409D01*
X29518563Y-95939410D01*
X29518552Y-95939414D01*
X29193755Y-96089680D01*
X29193751Y-96089682D01*
X28965367Y-96227096D01*
X28887081Y-96274200D01*
X28798768Y-96341333D01*
X28602172Y-96490781D01*
X28602163Y-96490789D01*
X28342331Y-96736914D01*
X28110641Y-97009680D01*
X28110634Y-97009690D01*
X27909790Y-97305913D01*
X27909784Y-97305922D01*
X27742151Y-97622111D01*
X27742142Y-97622129D01*
X27609674Y-97954600D01*
X27609672Y-97954607D01*
X27513932Y-98299434D01*
X27513926Y-98299460D01*
X27456029Y-98652614D01*
X27456028Y-98652631D01*
X27436652Y-99009997D01*
X25242004Y-99009997D01*
X25242000Y-99009290D01*
X25242000Y-91068986D01*
X51360500Y-91068986D01*
X51360500Y-91335013D01*
X51360501Y-91335030D01*
X51395223Y-91598774D01*
X51395224Y-91598779D01*
X51395225Y-91598785D01*
X51464081Y-91855761D01*
X51497618Y-91936725D01*
X51565888Y-92101544D01*
X51565892Y-92101554D01*
X51698910Y-92331948D01*
X51860865Y-92543012D01*
X51860871Y-92543019D01*
X52048980Y-92731128D01*
X52048987Y-92731134D01*
X52260051Y-92893089D01*
X52490445Y-93026107D01*
X52490446Y-93026107D01*
X52490449Y-93026109D01*
X52736239Y-93127919D01*
X52993215Y-93196775D01*
X53256980Y-93231500D01*
X53256987Y-93231500D01*
X53523013Y-93231500D01*
X53523020Y-93231500D01*
X53786785Y-93196775D01*
X54043761Y-93127919D01*
X54070124Y-93116999D01*
X111090341Y-93116999D01*
X111090341Y-93117000D01*
X111110936Y-93352403D01*
X111110938Y-93352413D01*
X111172094Y-93580655D01*
X111172096Y-93580659D01*
X111172097Y-93580663D01*
X111271965Y-93794830D01*
X111271967Y-93794834D01*
X111380281Y-93949521D01*
X111407505Y-93988401D01*
X111574599Y-94155495D01*
X111671384Y-94223265D01*
X111768165Y-94291032D01*
X111768167Y-94291033D01*
X111768170Y-94291035D01*
X111982337Y-94390903D01*
X112210592Y-94452063D01*
X112398918Y-94468539D01*
X112445999Y-94472659D01*
X112446000Y-94472659D01*
X112446001Y-94472659D01*
X112485234Y-94469226D01*
X112681408Y-94452063D01*
X112909663Y-94390903D01*
X113123830Y-94291035D01*
X113317401Y-94155495D01*
X113484495Y-93988401D01*
X113620035Y-93794830D01*
X113719903Y-93580663D01*
X113781063Y-93352408D01*
X113801659Y-93117000D01*
X113781063Y-92881592D01*
X113719903Y-92653337D01*
X113620035Y-92439171D01*
X113484495Y-92245599D01*
X113362567Y-92123671D01*
X113329084Y-92062351D01*
X113334068Y-91992659D01*
X113375939Y-91936725D01*
X113406915Y-91919810D01*
X113538331Y-91870796D01*
X113653546Y-91784546D01*
X113739796Y-91669331D01*
X113790091Y-91534483D01*
X113796500Y-91474873D01*
X113796499Y-89679128D01*
X113790091Y-89619517D01*
X113784496Y-89604517D01*
X113739797Y-89484671D01*
X113739793Y-89484664D01*
X113653547Y-89369455D01*
X113653544Y-89369452D01*
X113538335Y-89283206D01*
X113538328Y-89283202D01*
X113403482Y-89232908D01*
X113403483Y-89232908D01*
X113343883Y-89226501D01*
X113343881Y-89226500D01*
X113343873Y-89226500D01*
X113343864Y-89226500D01*
X111548129Y-89226500D01*
X111548123Y-89226501D01*
X111488516Y-89232908D01*
X111353671Y-89283202D01*
X111353664Y-89283206D01*
X111238455Y-89369452D01*
X111238452Y-89369455D01*
X111152206Y-89484664D01*
X111152202Y-89484671D01*
X111101908Y-89619517D01*
X111095501Y-89679116D01*
X111095501Y-89679123D01*
X111095500Y-89679135D01*
X111095500Y-91474870D01*
X111095501Y-91474876D01*
X111101908Y-91534483D01*
X111152202Y-91669328D01*
X111152206Y-91669335D01*
X111238452Y-91784544D01*
X111238455Y-91784547D01*
X111353664Y-91870793D01*
X111353671Y-91870797D01*
X111485081Y-91919810D01*
X111541015Y-91961681D01*
X111565432Y-92027145D01*
X111550580Y-92095418D01*
X111529430Y-92123673D01*
X111407503Y-92245600D01*
X111271965Y-92439169D01*
X111271964Y-92439171D01*
X111172098Y-92653335D01*
X111172094Y-92653344D01*
X111110938Y-92881586D01*
X111110936Y-92881596D01*
X111090341Y-93116999D01*
X54070124Y-93116999D01*
X54289551Y-93026109D01*
X54519949Y-92893089D01*
X54731014Y-92731133D01*
X54919133Y-92543014D01*
X55081089Y-92331949D01*
X55214109Y-92101551D01*
X55315919Y-91855761D01*
X55384775Y-91598785D01*
X55419500Y-91335020D01*
X55419500Y-91068980D01*
X55395542Y-90886999D01*
X57238341Y-90886999D01*
X57238341Y-90887000D01*
X57258936Y-91122403D01*
X57258938Y-91122413D01*
X57320094Y-91350655D01*
X57320096Y-91350659D01*
X57320097Y-91350663D01*
X57405814Y-91534483D01*
X57419965Y-91564830D01*
X57419967Y-91564834D01*
X57528281Y-91719521D01*
X57555505Y-91758401D01*
X57722599Y-91925495D01*
X57747549Y-91942965D01*
X57916165Y-92061032D01*
X57916167Y-92061033D01*
X57916170Y-92061035D01*
X58130337Y-92160903D01*
X58358592Y-92222063D01*
X58546918Y-92238539D01*
X58593999Y-92242659D01*
X58594000Y-92242659D01*
X58594001Y-92242659D01*
X58633234Y-92239226D01*
X58829408Y-92222063D01*
X59057663Y-92160903D01*
X59271830Y-92061035D01*
X59465401Y-91925495D01*
X59632495Y-91758401D01*
X59768035Y-91564830D01*
X59867903Y-91350663D01*
X59929063Y-91122408D01*
X59949659Y-90887000D01*
X59929063Y-90651592D01*
X59867903Y-90423337D01*
X59768035Y-90209171D01*
X59636492Y-90021308D01*
X59632496Y-90015600D01*
X59632495Y-90015599D01*
X59510567Y-89893671D01*
X59477084Y-89832351D01*
X59482068Y-89762659D01*
X59523939Y-89706725D01*
X59554915Y-89689810D01*
X59686331Y-89640796D01*
X59801546Y-89554546D01*
X59887796Y-89439331D01*
X59938091Y-89304483D01*
X59944500Y-89244873D01*
X59944499Y-87449128D01*
X59938091Y-87389517D01*
X59933142Y-87376249D01*
X59887797Y-87254671D01*
X59887793Y-87254664D01*
X59801547Y-87139455D01*
X59801544Y-87139452D01*
X59686335Y-87053206D01*
X59686328Y-87053202D01*
X59551482Y-87002908D01*
X59551483Y-87002908D01*
X59491883Y-86996501D01*
X59491881Y-86996500D01*
X59491873Y-86996500D01*
X59491864Y-86996500D01*
X57696129Y-86996500D01*
X57696123Y-86996501D01*
X57636516Y-87002908D01*
X57501671Y-87053202D01*
X57501664Y-87053206D01*
X57386455Y-87139452D01*
X57386452Y-87139455D01*
X57300206Y-87254664D01*
X57300202Y-87254671D01*
X57249908Y-87389517D01*
X57243706Y-87447209D01*
X57243501Y-87449123D01*
X57243500Y-87449135D01*
X57243500Y-89244870D01*
X57243501Y-89244876D01*
X57249908Y-89304483D01*
X57300202Y-89439328D01*
X57300206Y-89439335D01*
X57386452Y-89554544D01*
X57386455Y-89554547D01*
X57501664Y-89640793D01*
X57501671Y-89640797D01*
X57633081Y-89689810D01*
X57689015Y-89731681D01*
X57713432Y-89797145D01*
X57698580Y-89865418D01*
X57677430Y-89893673D01*
X57555503Y-90015600D01*
X57419965Y-90209169D01*
X57419964Y-90209171D01*
X57320098Y-90423335D01*
X57320094Y-90423344D01*
X57258938Y-90651586D01*
X57258936Y-90651596D01*
X57238341Y-90886999D01*
X55395542Y-90886999D01*
X55384775Y-90805215D01*
X55315919Y-90548239D01*
X55214109Y-90302449D01*
X55192484Y-90264994D01*
X55081089Y-90072051D01*
X54919134Y-89860987D01*
X54919128Y-89860980D01*
X54731019Y-89672871D01*
X54731012Y-89672865D01*
X54519948Y-89510910D01*
X54289554Y-89377892D01*
X54289544Y-89377888D01*
X54112329Y-89304483D01*
X54043761Y-89276081D01*
X54043759Y-89276080D01*
X54043758Y-89276080D01*
X53967414Y-89255624D01*
X53786785Y-89207225D01*
X53786779Y-89207224D01*
X53786774Y-89207223D01*
X53523030Y-89172501D01*
X53523025Y-89172500D01*
X53523020Y-89172500D01*
X53256980Y-89172500D01*
X53256974Y-89172500D01*
X53256969Y-89172501D01*
X52993225Y-89207223D01*
X52993218Y-89207224D01*
X52993215Y-89207225D01*
X52921279Y-89226500D01*
X52736241Y-89276080D01*
X52490455Y-89377888D01*
X52490445Y-89377892D01*
X52260051Y-89510910D01*
X52048987Y-89672865D01*
X52048980Y-89672871D01*
X51860871Y-89860980D01*
X51860865Y-89860987D01*
X51698910Y-90072051D01*
X51565892Y-90302445D01*
X51565888Y-90302455D01*
X51464080Y-90548241D01*
X51395226Y-90805212D01*
X51395223Y-90805225D01*
X51360501Y-91068969D01*
X51360500Y-91068986D01*
X25242000Y-91068986D01*
X25242000Y-85014995D01*
X85274232Y-85014995D01*
X85274232Y-85015004D01*
X85293277Y-85269154D01*
X85348775Y-85512308D01*
X85349992Y-85517637D01*
X85443107Y-85754888D01*
X85570541Y-85975612D01*
X85729450Y-86174877D01*
X85916283Y-86348232D01*
X86126866Y-86491805D01*
X86126871Y-86491807D01*
X86126872Y-86491808D01*
X86126873Y-86491809D01*
X86248828Y-86550538D01*
X86356492Y-86602387D01*
X86356493Y-86602387D01*
X86356496Y-86602389D01*
X86600042Y-86677513D01*
X86852065Y-86715500D01*
X87106935Y-86715500D01*
X87358958Y-86677513D01*
X87602504Y-86602389D01*
X87832134Y-86491805D01*
X88042717Y-86348232D01*
X88229550Y-86174877D01*
X88388459Y-85975612D01*
X88515893Y-85754888D01*
X88609008Y-85517637D01*
X88665722Y-85269157D01*
X88684768Y-85015000D01*
X88672824Y-84855621D01*
X88665722Y-84760845D01*
X88646293Y-84675722D01*
X88609008Y-84512363D01*
X88515893Y-84275112D01*
X88388459Y-84054388D01*
X88229550Y-83855123D01*
X88042717Y-83681768D01*
X87832134Y-83538195D01*
X87832130Y-83538193D01*
X87832127Y-83538191D01*
X87832126Y-83538190D01*
X87602506Y-83427612D01*
X87602508Y-83427612D01*
X87358966Y-83352489D01*
X87358962Y-83352488D01*
X87358958Y-83352487D01*
X87237731Y-83334214D01*
X87106940Y-83314500D01*
X87106935Y-83314500D01*
X86852065Y-83314500D01*
X86852059Y-83314500D01*
X86695109Y-83338157D01*
X86600042Y-83352487D01*
X86600039Y-83352488D01*
X86600033Y-83352489D01*
X86356492Y-83427612D01*
X86126873Y-83538190D01*
X86126872Y-83538191D01*
X86126866Y-83538194D01*
X86126866Y-83538195D01*
X86119876Y-83542961D01*
X85916282Y-83681768D01*
X85729452Y-83855121D01*
X85729450Y-83855123D01*
X85570541Y-84054388D01*
X85443108Y-84275109D01*
X85349992Y-84512362D01*
X85349990Y-84512369D01*
X85293277Y-84760845D01*
X85274232Y-85014995D01*
X25242000Y-85014995D01*
X25242000Y-83209996D01*
X49931403Y-83209996D01*
X49931403Y-83210003D01*
X49951724Y-83390369D01*
X49951725Y-83390374D01*
X50011677Y-83561706D01*
X50108249Y-83715398D01*
X50236601Y-83843750D01*
X50386618Y-83938013D01*
X50390295Y-83940323D01*
X50476813Y-83970597D01*
X50561625Y-84000274D01*
X50561630Y-84000275D01*
X50741996Y-84020597D01*
X50742000Y-84020597D01*
X50742004Y-84020597D01*
X50922369Y-84000275D01*
X50922372Y-84000274D01*
X50922375Y-84000274D01*
X51093705Y-83940323D01*
X51247399Y-83843750D01*
X51318130Y-83773019D01*
X51379453Y-83739534D01*
X51405811Y-83736700D01*
X69328189Y-83736700D01*
X69395228Y-83756385D01*
X69415870Y-83773019D01*
X69436601Y-83793750D01*
X69534271Y-83855121D01*
X69590295Y-83890323D01*
X69726585Y-83938013D01*
X69761625Y-83950274D01*
X69761630Y-83950275D01*
X69941996Y-83970597D01*
X69942000Y-83970597D01*
X69942004Y-83970597D01*
X70122369Y-83950275D01*
X70122372Y-83950274D01*
X70122375Y-83950274D01*
X70293705Y-83890323D01*
X70447399Y-83793750D01*
X70575750Y-83665399D01*
X70672323Y-83511705D01*
X70732274Y-83340375D01*
X70732275Y-83340369D01*
X70752597Y-83160003D01*
X70752597Y-83159996D01*
X70732275Y-82979630D01*
X70732274Y-82979625D01*
X70689818Y-82858293D01*
X70672323Y-82808295D01*
X70575750Y-82654601D01*
X70447399Y-82526250D01*
X70447398Y-82526249D01*
X70293706Y-82429677D01*
X70122374Y-82369725D01*
X70122369Y-82369724D01*
X69942004Y-82349403D01*
X69941996Y-82349403D01*
X69761630Y-82369724D01*
X69761625Y-82369725D01*
X69590293Y-82429677D01*
X69436601Y-82526249D01*
X69415870Y-82546981D01*
X69354547Y-82580466D01*
X69328189Y-82583300D01*
X51294344Y-82583300D01*
X51228372Y-82564294D01*
X51093706Y-82479677D01*
X50922374Y-82419725D01*
X50922369Y-82419724D01*
X50742004Y-82399403D01*
X50741996Y-82399403D01*
X50561630Y-82419724D01*
X50561625Y-82419725D01*
X50390293Y-82479677D01*
X50236601Y-82576249D01*
X50108249Y-82704601D01*
X50011677Y-82858293D01*
X49951725Y-83029625D01*
X49951724Y-83029630D01*
X49931403Y-83209996D01*
X25242000Y-83209996D01*
X25242000Y-35868986D01*
X35360500Y-35868986D01*
X35360500Y-36135013D01*
X35360501Y-36135030D01*
X35395223Y-36398774D01*
X35395224Y-36398779D01*
X35395225Y-36398785D01*
X35443624Y-36579414D01*
X35464080Y-36655758D01*
X35565888Y-36901544D01*
X35565892Y-36901554D01*
X35698910Y-37131948D01*
X35860865Y-37343012D01*
X35860871Y-37343019D01*
X36048980Y-37531128D01*
X36048987Y-37531134D01*
X36260051Y-37693089D01*
X36490445Y-37826107D01*
X36490446Y-37826107D01*
X36490449Y-37826109D01*
X36736239Y-37927919D01*
X36993215Y-37996775D01*
X37256980Y-38031500D01*
X37256987Y-38031500D01*
X37523013Y-38031500D01*
X37523020Y-38031500D01*
X37786785Y-37996775D01*
X38043761Y-37927919D01*
X38289551Y-37826109D01*
X38519949Y-37693089D01*
X38731014Y-37531133D01*
X38919133Y-37343014D01*
X39081089Y-37131949D01*
X39214109Y-36901551D01*
X39315919Y-36655761D01*
X39384775Y-36398785D01*
X39419500Y-36135020D01*
X39419500Y-35868980D01*
X39384775Y-35605215D01*
X39315919Y-35348239D01*
X39214109Y-35102449D01*
X39197757Y-35074127D01*
X39081089Y-34872051D01*
X38919134Y-34660987D01*
X38919128Y-34660980D01*
X38731019Y-34472871D01*
X38731012Y-34472865D01*
X38519948Y-34310910D01*
X38289554Y-34177892D01*
X38289544Y-34177888D01*
X38217562Y-34148072D01*
X38043761Y-34076081D01*
X38043759Y-34076080D01*
X38043758Y-34076080D01*
X37967414Y-34055624D01*
X37786785Y-34007225D01*
X37786779Y-34007224D01*
X37786774Y-34007223D01*
X37523030Y-33972501D01*
X37523025Y-33972500D01*
X37523020Y-33972500D01*
X37256980Y-33972500D01*
X37256974Y-33972500D01*
X37256969Y-33972501D01*
X36993225Y-34007223D01*
X36993218Y-34007224D01*
X36993215Y-34007225D01*
X36916868Y-34027681D01*
X36736241Y-34076080D01*
X36490455Y-34177888D01*
X36490445Y-34177892D01*
X36260051Y-34310910D01*
X36048987Y-34472865D01*
X36048980Y-34472871D01*
X35860871Y-34660980D01*
X35860865Y-34660987D01*
X35698910Y-34872051D01*
X35565892Y-35102445D01*
X35565888Y-35102455D01*
X35464080Y-35348241D01*
X35395226Y-35605212D01*
X35395223Y-35605225D01*
X35360501Y-35868969D01*
X35360500Y-35868986D01*
X25242000Y-35868986D01*
X25242000Y-29010709D01*
X25242004Y-29009997D01*
X27436652Y-29009997D01*
X27436652Y-29010002D01*
X27443988Y-29145304D01*
X27447810Y-29215807D01*
X27456028Y-29367368D01*
X27456029Y-29367385D01*
X27513926Y-29720539D01*
X27513932Y-29720565D01*
X27609672Y-30065392D01*
X27609674Y-30065399D01*
X27742142Y-30397870D01*
X27742151Y-30397888D01*
X27909784Y-30714077D01*
X27909787Y-30714082D01*
X27909789Y-30714085D01*
X28094449Y-30986439D01*
X28110634Y-31010309D01*
X28110641Y-31010319D01*
X28313533Y-31249181D01*
X28342332Y-31283086D01*
X28602163Y-31529211D01*
X28887081Y-31745800D01*
X29193747Y-31930315D01*
X29193749Y-31930316D01*
X29193751Y-31930317D01*
X29193755Y-31930319D01*
X29483785Y-32064500D01*
X29518565Y-32080591D01*
X29857726Y-32194868D01*
X30207254Y-32271805D01*
X30563052Y-32310500D01*
X30563058Y-32310500D01*
X30920942Y-32310500D01*
X30920948Y-32310500D01*
X31276746Y-32271805D01*
X31626274Y-32194868D01*
X31965435Y-32080591D01*
X32290253Y-31930315D01*
X32596919Y-31745800D01*
X32881837Y-31529211D01*
X33141668Y-31283086D01*
X33373365Y-31010311D01*
X33574211Y-30714085D01*
X33741853Y-30397880D01*
X33874324Y-30065403D01*
X33970071Y-29720552D01*
X33996983Y-29556395D01*
X34027970Y-29367385D01*
X34027970Y-29367382D01*
X34027972Y-29367371D01*
X34047348Y-29010000D01*
X34027972Y-28652629D01*
X34017459Y-28588505D01*
X33970073Y-28299460D01*
X33970072Y-28299459D01*
X33970071Y-28299448D01*
X33970067Y-28299435D01*
X33970065Y-28299424D01*
X33874327Y-27954607D01*
X33874325Y-27954600D01*
X33858976Y-27916078D01*
X33818145Y-27813599D01*
X33813521Y-27801994D01*
X43894392Y-27801994D01*
X43894392Y-27802005D01*
X43914789Y-28048165D01*
X43975428Y-28287623D01*
X44047954Y-28452967D01*
X44074652Y-28513831D01*
X44123439Y-28588505D01*
X44191067Y-28692018D01*
X44209755Y-28720621D01*
X44377052Y-28902355D01*
X44377055Y-28902357D01*
X44377058Y-28902360D01*
X44571971Y-29054067D01*
X44571977Y-29054071D01*
X44571980Y-29054073D01*
X44789221Y-29171638D01*
X44910536Y-29213285D01*
X45022846Y-29251842D01*
X45022848Y-29251842D01*
X45022850Y-29251843D01*
X45266494Y-29292500D01*
X45266495Y-29292500D01*
X45513505Y-29292500D01*
X45513506Y-29292500D01*
X45757150Y-29251843D01*
X45990779Y-29171638D01*
X46208020Y-29054073D01*
X46223888Y-29041723D01*
X46273476Y-29003126D01*
X46402948Y-28902355D01*
X46570245Y-28720621D01*
X46705348Y-28513831D01*
X46804572Y-28287623D01*
X46865210Y-28048169D01*
X46877171Y-27903824D01*
X46885608Y-27802005D01*
X46885608Y-27801994D01*
X46870702Y-27622111D01*
X46865210Y-27555831D01*
X46804572Y-27316377D01*
X46705348Y-27090169D01*
X46570245Y-26883379D01*
X46402948Y-26701645D01*
X46402943Y-26701641D01*
X46402941Y-26701639D01*
X46208028Y-26549932D01*
X46208022Y-26549928D01*
X45990780Y-26432362D01*
X45990771Y-26432359D01*
X45757153Y-26352157D01*
X45574417Y-26321664D01*
X45513506Y-26311500D01*
X45266494Y-26311500D01*
X45217765Y-26319631D01*
X45022846Y-26352157D01*
X44789228Y-26432359D01*
X44789219Y-26432362D01*
X44571977Y-26549928D01*
X44571971Y-26549932D01*
X44377058Y-26701639D01*
X44377055Y-26701642D01*
X44209752Y-26883382D01*
X44074650Y-27090172D01*
X43975428Y-27316376D01*
X43914789Y-27555834D01*
X43894392Y-27801994D01*
X33813521Y-27801994D01*
X33741857Y-27622129D01*
X33741848Y-27622111D01*
X33574215Y-27305922D01*
X33574213Y-27305919D01*
X33574211Y-27305915D01*
X33373365Y-27009689D01*
X33373361Y-27009684D01*
X33373358Y-27009680D01*
X33141668Y-26736914D01*
X33104432Y-26701642D01*
X32881837Y-26490789D01*
X32881830Y-26490783D01*
X32881827Y-26490781D01*
X32804974Y-26432359D01*
X32596919Y-26274200D01*
X32290253Y-26089685D01*
X32290252Y-26089684D01*
X32290248Y-26089682D01*
X32290244Y-26089680D01*
X31965447Y-25939414D01*
X31965441Y-25939411D01*
X31965435Y-25939409D01*
X31795854Y-25882270D01*
X31626273Y-25825131D01*
X31276744Y-25748194D01*
X30920949Y-25709500D01*
X30920948Y-25709500D01*
X30563052Y-25709500D01*
X30563050Y-25709500D01*
X30207255Y-25748194D01*
X29857726Y-25825131D01*
X29601970Y-25911306D01*
X29518565Y-25939409D01*
X29518563Y-25939410D01*
X29518552Y-25939414D01*
X29193755Y-26089680D01*
X29193751Y-26089682D01*
X28965367Y-26227096D01*
X28887081Y-26274200D01*
X28838014Y-26311500D01*
X28602172Y-26490781D01*
X28602163Y-26490789D01*
X28342331Y-26736914D01*
X28110641Y-27009680D01*
X28110634Y-27009690D01*
X27909790Y-27305913D01*
X27909784Y-27305922D01*
X27742151Y-27622111D01*
X27742142Y-27622129D01*
X27609674Y-27954600D01*
X27609672Y-27954607D01*
X27513935Y-28299424D01*
X27513926Y-28299460D01*
X27456029Y-28652614D01*
X27456028Y-28652627D01*
X27456028Y-28652629D01*
X27450950Y-28746284D01*
X27436652Y-29009997D01*
X25242004Y-29009997D01*
X25242007Y-29009357D01*
X25243116Y-28907618D01*
X25244565Y-28774696D01*
X25245029Y-28765266D01*
X25285984Y-28297150D01*
X25287396Y-28286432D01*
X25312964Y-28141429D01*
X25368876Y-27824331D01*
X25371208Y-27813812D01*
X25492663Y-27360534D01*
X25495903Y-27350258D01*
X25656398Y-26909303D01*
X25660519Y-26899353D01*
X25858835Y-26474063D01*
X25863815Y-26464496D01*
X26098435Y-26058122D01*
X26104228Y-26049028D01*
X26373384Y-25664634D01*
X26379953Y-25656074D01*
X26681575Y-25296616D01*
X26688861Y-25288665D01*
X27020665Y-24956861D01*
X27028616Y-24949575D01*
X27388074Y-24647953D01*
X27396634Y-24641384D01*
X27781028Y-24372228D01*
X27790122Y-24366435D01*
X28196496Y-24131815D01*
X28206063Y-24126835D01*
X28631353Y-23928519D01*
X28641303Y-23924398D01*
X29082258Y-23763903D01*
X29092534Y-23760663D01*
X29545812Y-23639208D01*
X29556331Y-23636876D01*
X30018435Y-23555395D01*
X30029150Y-23553984D01*
X30497266Y-23513029D01*
X30506696Y-23512565D01*
X30741358Y-23510007D01*
X30742710Y-23510000D01*
X58968343Y-23510000D01*
X59035382Y-23529685D01*
G37*
%TD.AperFunction*%
%TA.AperFunction,Conductor*%
G36*
X104818800Y-80006385D02*
G01*
X104839442Y-80023019D01*
X104880525Y-80064102D01*
X104987898Y-80171475D01*
X104987899Y-80171476D01*
X104987901Y-80171477D01*
X105039849Y-80201469D01*
X105119402Y-80247399D01*
X105266076Y-80286700D01*
X115106117Y-80286700D01*
X115173156Y-80306385D01*
X115218911Y-80359189D01*
X115257220Y-80443076D01*
X115257227Y-80443087D01*
X115257230Y-80443094D01*
X115312496Y-80529091D01*
X115335015Y-80564132D01*
X115335018Y-80564136D01*
X115424161Y-80667013D01*
X115429168Y-80672791D01*
X115429171Y-80672794D01*
X115537909Y-80767015D01*
X115596264Y-80804517D01*
X115658857Y-80844744D01*
X115658874Y-80844753D01*
X115773730Y-80897206D01*
X115826534Y-80942961D01*
X115846219Y-81010000D01*
X115826534Y-81077039D01*
X115773730Y-81122794D01*
X115658874Y-81175246D01*
X115658861Y-81175254D01*
X115543523Y-81249376D01*
X115542083Y-81250196D01*
X115537901Y-81252988D01*
X115429169Y-81347207D01*
X115429166Y-81347210D01*
X115335018Y-81455864D01*
X115335015Y-81455867D01*
X115257231Y-81576905D01*
X115257223Y-81576918D01*
X115200263Y-81701643D01*
X115198015Y-81705939D01*
X115156966Y-81845738D01*
X115156963Y-81845748D01*
X115136503Y-81988059D01*
X115136503Y-82044399D01*
X115136500Y-82044409D01*
X115136500Y-82448561D01*
X115116815Y-82515600D01*
X115100181Y-82536242D01*
X114439442Y-83196981D01*
X114378119Y-83230466D01*
X114351761Y-83233300D01*
X103356719Y-83233300D01*
X103289680Y-83213615D01*
X103243925Y-83160811D01*
X103233981Y-83091653D01*
X103244337Y-83056895D01*
X103284820Y-82970079D01*
X103344849Y-82746050D01*
X103365063Y-82515000D01*
X103344849Y-82283950D01*
X103284820Y-82059921D01*
X103186801Y-81849719D01*
X103186799Y-81849716D01*
X103186798Y-81849714D01*
X103053773Y-81659735D01*
X103053768Y-81659729D01*
X102889769Y-81495730D01*
X102865305Y-81478600D01*
X102705314Y-81366572D01*
X102661692Y-81311998D01*
X102654499Y-81242499D01*
X102686021Y-81180145D01*
X102705309Y-81163430D01*
X102889769Y-81034270D01*
X103053770Y-80870269D01*
X103186801Y-80680282D01*
X103284820Y-80470079D01*
X103344849Y-80246050D01*
X103357636Y-80099893D01*
X103383088Y-80034824D01*
X103439679Y-79993845D01*
X103481164Y-79986700D01*
X104751761Y-79986700D01*
X104818800Y-80006385D01*
G37*
%TD.AperFunction*%
%TA.AperFunction,Conductor*%
G36*
X100858937Y-76292885D02*
G01*
X100913266Y-76336818D01*
X100928333Y-76366412D01*
X100961676Y-76461704D01*
X101058249Y-76615398D01*
X101186601Y-76743750D01*
X101313010Y-76823179D01*
X101340295Y-76840323D01*
X101454866Y-76880413D01*
X101511625Y-76900274D01*
X101511630Y-76900275D01*
X101691996Y-76920597D01*
X101692000Y-76920597D01*
X101692004Y-76920597D01*
X101872369Y-76900275D01*
X101872372Y-76900274D01*
X101872375Y-76900274D01*
X102043705Y-76840323D01*
X102197399Y-76743750D01*
X102325750Y-76615399D01*
X102338739Y-76594727D01*
X102391072Y-76548437D01*
X102443732Y-76536700D01*
X115601761Y-76536700D01*
X115668800Y-76556385D01*
X115689442Y-76573019D01*
X116011842Y-76895419D01*
X116045327Y-76956742D01*
X116040343Y-77026434D01*
X115998471Y-77082367D01*
X115933007Y-77106784D01*
X115924161Y-77107100D01*
X112979473Y-77107100D01*
X112912434Y-77087415D01*
X112902156Y-77080043D01*
X112897402Y-77076251D01*
X112743706Y-76979677D01*
X112572374Y-76919725D01*
X112572369Y-76919724D01*
X112392004Y-76899403D01*
X112391996Y-76899403D01*
X112211630Y-76919724D01*
X112211625Y-76919725D01*
X112040293Y-76979677D01*
X111886597Y-77076251D01*
X111881844Y-77080043D01*
X111817159Y-77106455D01*
X111804527Y-77107100D01*
X104752646Y-77107100D01*
X104686673Y-77088093D01*
X104593707Y-77029677D01*
X104422374Y-76969725D01*
X104422369Y-76969724D01*
X104242004Y-76949403D01*
X104241996Y-76949403D01*
X104061630Y-76969724D01*
X104061625Y-76969725D01*
X103890293Y-77029677D01*
X103736601Y-77126249D01*
X103608249Y-77254601D01*
X103511677Y-77408293D01*
X103451725Y-77579625D01*
X103451724Y-77579630D01*
X103431403Y-77759996D01*
X103431403Y-77760003D01*
X103451724Y-77940369D01*
X103451725Y-77940374D01*
X103511677Y-78111706D01*
X103608249Y-78265398D01*
X103736601Y-78393750D01*
X103882442Y-78485389D01*
X103890295Y-78490323D01*
X104054303Y-78547712D01*
X104061625Y-78550274D01*
X104061630Y-78550275D01*
X104241996Y-78570597D01*
X104242000Y-78570597D01*
X104242004Y-78570597D01*
X104422369Y-78550275D01*
X104422372Y-78550274D01*
X104422375Y-78550274D01*
X104593705Y-78490323D01*
X104601558Y-78485389D01*
X104686673Y-78431907D01*
X104752646Y-78412900D01*
X111960929Y-78412900D01*
X112026900Y-78431906D01*
X112040295Y-78440323D01*
X112169086Y-78485389D01*
X112211625Y-78500274D01*
X112211630Y-78500275D01*
X112391996Y-78520597D01*
X112392000Y-78520597D01*
X112392004Y-78520597D01*
X112572369Y-78500275D01*
X112572372Y-78500274D01*
X112572375Y-78500274D01*
X112743705Y-78440323D01*
X112757099Y-78431906D01*
X112823071Y-78412900D01*
X115489183Y-78412900D01*
X115556222Y-78432585D01*
X115601977Y-78485389D01*
X115611921Y-78554547D01*
X115582896Y-78618103D01*
X115556216Y-78641220D01*
X115543517Y-78649380D01*
X115542078Y-78650199D01*
X115537901Y-78652988D01*
X115429169Y-78747207D01*
X115429166Y-78747210D01*
X115335018Y-78855864D01*
X115335015Y-78855867D01*
X115257231Y-78976905D01*
X115257220Y-78976923D01*
X115218911Y-79060811D01*
X115173157Y-79113615D01*
X115106117Y-79133300D01*
X105632239Y-79133300D01*
X105565200Y-79113615D01*
X105544558Y-79096981D01*
X105396104Y-78948527D01*
X105396098Y-78948522D01*
X105264600Y-78872602D01*
X105264599Y-78872601D01*
X105264598Y-78872601D01*
X105117924Y-78833300D01*
X105117923Y-78833300D01*
X102664225Y-78833300D01*
X102611820Y-78821682D01*
X102489582Y-78764681D01*
X102489579Y-78764680D01*
X102314141Y-78717671D01*
X102265551Y-78704651D01*
X102265544Y-78704650D01*
X102034502Y-78684437D01*
X102034498Y-78684437D01*
X101803455Y-78704650D01*
X101803448Y-78704651D01*
X101579417Y-78764681D01*
X101369218Y-78862699D01*
X101369214Y-78862701D01*
X101179235Y-78995726D01*
X101179229Y-78995731D01*
X101015231Y-79159729D01*
X101015226Y-79159735D01*
X100882201Y-79349714D01*
X100882199Y-79349718D01*
X100783882Y-79560560D01*
X100737710Y-79612999D01*
X100670516Y-79632151D01*
X100603635Y-79611935D01*
X100558300Y-79558770D01*
X100547500Y-79508155D01*
X100547500Y-79344426D01*
X100547497Y-79344399D01*
X100547497Y-79288060D01*
X100529875Y-79165500D01*
X100527035Y-79145744D01*
X100527035Y-79145743D01*
X100486498Y-79007691D01*
X100486468Y-79007625D01*
X100426776Y-78876918D01*
X100426773Y-78876914D01*
X100426770Y-78876906D01*
X100348986Y-78755870D01*
X100348985Y-78755869D01*
X100348984Y-78755867D01*
X100348981Y-78755863D01*
X100254847Y-78647226D01*
X100254830Y-78647207D01*
X100254811Y-78647190D01*
X100161498Y-78566334D01*
X100123723Y-78507556D01*
X100118700Y-78472621D01*
X100118700Y-78134078D01*
X100118700Y-78134076D01*
X100079399Y-77987402D01*
X100073654Y-77977452D01*
X100003477Y-77855901D01*
X100003472Y-77855895D01*
X98989088Y-76841511D01*
X98955603Y-76780188D01*
X98960587Y-76710496D01*
X99002459Y-76654563D01*
X99067923Y-76630146D01*
X99113316Y-76635338D01*
X99250042Y-76677513D01*
X99502065Y-76715500D01*
X99756935Y-76715500D01*
X100008958Y-76677513D01*
X100252504Y-76602389D01*
X100482134Y-76491805D01*
X100692717Y-76348232D01*
X100726952Y-76316466D01*
X100789481Y-76285299D01*
X100858937Y-76292885D01*
G37*
%TD.AperFunction*%
%TA.AperFunction,Conductor*%
G36*
X116934634Y-68635457D02*
G01*
X116990567Y-68677329D01*
X117014984Y-68742793D01*
X117015300Y-68751639D01*
X117015300Y-68885924D01*
X117051161Y-69019761D01*
X117054602Y-69032600D01*
X117054602Y-69032601D01*
X117130522Y-69164098D01*
X117130527Y-69164104D01*
X124428981Y-76462558D01*
X124462466Y-76523881D01*
X124465300Y-76550239D01*
X124465300Y-78523147D01*
X124445615Y-78590186D01*
X124392811Y-78635941D01*
X124323653Y-78645885D01*
X124288895Y-78635529D01*
X124251525Y-78618103D01*
X124075663Y-78536097D01*
X124075659Y-78536096D01*
X124075655Y-78536094D01*
X123847413Y-78474938D01*
X123847403Y-78474936D01*
X123612001Y-78454341D01*
X123611999Y-78454341D01*
X123376596Y-78474936D01*
X123376583Y-78474939D01*
X123306686Y-78493667D01*
X123236836Y-78492004D01*
X123186913Y-78461573D01*
X121978205Y-77252863D01*
X121978204Y-77252862D01*
X121978200Y-77252859D01*
X121871264Y-77181408D01*
X121836779Y-77167124D01*
X121752444Y-77132191D01*
X121752438Y-77132189D01*
X121626307Y-77107100D01*
X121626305Y-77107100D01*
X120279473Y-77107100D01*
X120212434Y-77087415D01*
X120202156Y-77080043D01*
X120197402Y-77076251D01*
X120043706Y-76979677D01*
X119872374Y-76919725D01*
X119872369Y-76919724D01*
X119692004Y-76899403D01*
X119691996Y-76899403D01*
X119511630Y-76919724D01*
X119511625Y-76919725D01*
X119340293Y-76979677D01*
X119186597Y-77076251D01*
X119181844Y-77080043D01*
X119117159Y-77106455D01*
X119104527Y-77107100D01*
X117918717Y-77107100D01*
X117851678Y-77087415D01*
X117805923Y-77034611D01*
X117795497Y-76996983D01*
X117782275Y-76879630D01*
X117782274Y-76879625D01*
X117722322Y-76708293D01*
X117625750Y-76554601D01*
X117497398Y-76426249D01*
X117343704Y-76329676D01*
X117172372Y-76269725D01*
X117172367Y-76269724D01*
X117040727Y-76254892D01*
X116976313Y-76227825D01*
X116966930Y-76219353D01*
X116246104Y-75498527D01*
X116246098Y-75498522D01*
X116114600Y-75422602D01*
X116114599Y-75422601D01*
X116114598Y-75422601D01*
X115967924Y-75383300D01*
X115967923Y-75383300D01*
X102075128Y-75383300D01*
X102034173Y-75376341D01*
X101872382Y-75319727D01*
X101872369Y-75319724D01*
X101692004Y-75299403D01*
X101691996Y-75299403D01*
X101511630Y-75319724D01*
X101511623Y-75319726D01*
X101485313Y-75328932D01*
X101415534Y-75332492D01*
X101354907Y-75297761D01*
X101322682Y-75235767D01*
X101320708Y-75202623D01*
X101334768Y-75015004D01*
X101334768Y-75014995D01*
X101321163Y-74833459D01*
X101315722Y-74760843D01*
X101259008Y-74512363D01*
X101165893Y-74275112D01*
X101106766Y-74172700D01*
X101090293Y-74104800D01*
X101113146Y-74038773D01*
X101168067Y-73995582D01*
X101214153Y-73986700D01*
X111317922Y-73986700D01*
X111317924Y-73986700D01*
X111464598Y-73947399D01*
X111596102Y-73871475D01*
X116803619Y-68663958D01*
X116864942Y-68630473D01*
X116934634Y-68635457D01*
G37*
%TD.AperFunction*%
%TA.AperFunction,Conductor*%
G36*
X100523903Y-56753417D02*
G01*
X100559742Y-56806176D01*
X100561676Y-56811704D01*
X100658249Y-56965398D01*
X100728981Y-57036130D01*
X100762466Y-57097453D01*
X100765300Y-57123811D01*
X100765300Y-63769759D01*
X100745615Y-63836798D01*
X100728981Y-63857440D01*
X100716466Y-63869955D01*
X100655143Y-63903440D01*
X100585451Y-63898456D01*
X100541104Y-63869955D01*
X100447397Y-63776248D01*
X100447395Y-63776247D01*
X100376727Y-63731842D01*
X100330436Y-63679507D01*
X100318700Y-63626849D01*
X100318700Y-56847130D01*
X100338385Y-56780091D01*
X100391189Y-56734336D01*
X100460347Y-56724392D01*
X100523903Y-56753417D01*
G37*
%TD.AperFunction*%
%TA.AperFunction,Conductor*%
G36*
X84303063Y-58781158D02*
G01*
X84333550Y-58803499D01*
X84436601Y-58906550D01*
X84584374Y-58999403D01*
X84590295Y-59003123D01*
X84637741Y-59019725D01*
X84761625Y-59063074D01*
X84761630Y-59063075D01*
X84846314Y-59072616D01*
X84897217Y-59078351D01*
X84961632Y-59105417D01*
X85001187Y-59163011D01*
X85006555Y-59187687D01*
X85018124Y-59290367D01*
X85018125Y-59290372D01*
X85078076Y-59461704D01*
X85174649Y-59615398D01*
X85230870Y-59671619D01*
X85264355Y-59732942D01*
X85259371Y-59802634D01*
X85217499Y-59858567D01*
X85152035Y-59882984D01*
X85143189Y-59883300D01*
X84417924Y-59883300D01*
X84266076Y-59883300D01*
X84119402Y-59922601D01*
X84119401Y-59922601D01*
X84119399Y-59922602D01*
X84119396Y-59922603D01*
X84104698Y-59931089D01*
X84036797Y-59947560D01*
X83970771Y-59924707D01*
X83927581Y-59869785D01*
X83918700Y-59823701D01*
X83918700Y-59273811D01*
X83938385Y-59206772D01*
X83955019Y-59186130D01*
X83964900Y-59176249D01*
X83975750Y-59165399D01*
X84072323Y-59011705D01*
X84128827Y-58850226D01*
X84169549Y-58793449D01*
X84234502Y-58767702D01*
X84303063Y-58781158D01*
G37*
%TD.AperFunction*%
%TA.AperFunction,Conductor*%
G36*
X100225513Y-29586185D02*
G01*
X100271268Y-29638989D01*
X100274656Y-29647167D01*
X100323202Y-29777328D01*
X100323206Y-29777335D01*
X100409452Y-29892544D01*
X100409455Y-29892547D01*
X100524664Y-29978793D01*
X100524671Y-29978797D01*
X100659517Y-30029091D01*
X100659516Y-30029091D01*
X100666444Y-30029835D01*
X100719127Y-30035500D01*
X102500113Y-30035499D01*
X102567152Y-30055184D01*
X102612907Y-30107987D01*
X102622851Y-30177146D01*
X102593826Y-30240702D01*
X102587794Y-30247180D01*
X102315794Y-30519181D01*
X102254471Y-30552666D01*
X102228113Y-30555500D01*
X99722446Y-30555500D01*
X99722426Y-30555499D01*
X99716312Y-30555499D01*
X99567688Y-30555499D01*
X99567686Y-30555499D01*
X99446105Y-30579684D01*
X99421920Y-30584495D01*
X99286161Y-30640727D01*
X99286162Y-30640728D01*
X99284609Y-30641371D01*
X99284606Y-30641372D01*
X99161031Y-30723942D01*
X95655942Y-34229031D01*
X95573368Y-34352612D01*
X95540053Y-34433042D01*
X95540053Y-34433045D01*
X95523950Y-34471924D01*
X95523558Y-34472871D01*
X95516495Y-34489919D01*
X95516493Y-34489925D01*
X95487499Y-34635685D01*
X95487499Y-34790425D01*
X95487500Y-34790446D01*
X95487500Y-56616989D01*
X95467815Y-56684028D01*
X95415011Y-56729783D01*
X95345853Y-56739727D01*
X95282297Y-56710702D01*
X95275819Y-56704670D01*
X95197398Y-56626249D01*
X95043706Y-56529677D01*
X94872374Y-56469725D01*
X94872369Y-56469724D01*
X94692004Y-56449403D01*
X94691996Y-56449403D01*
X94511630Y-56469724D01*
X94511625Y-56469725D01*
X94340293Y-56529677D01*
X94205628Y-56614294D01*
X94139656Y-56633300D01*
X89626131Y-56633300D01*
X89559092Y-56613615D01*
X89513337Y-56560811D01*
X89503393Y-56491653D01*
X89507470Y-56473305D01*
X89535348Y-56381405D01*
X89544787Y-56333952D01*
X89554500Y-56235334D01*
X89554500Y-55384665D01*
X89544787Y-55286047D01*
X89535348Y-55238594D01*
X89506581Y-55143764D01*
X89454747Y-55018627D01*
X89408032Y-54931231D01*
X89406734Y-54929289D01*
X89395582Y-54912599D01*
X89381152Y-54891003D01*
X89318289Y-54814405D01*
X89318286Y-54814402D01*
X89318284Y-54814399D01*
X87857065Y-53353181D01*
X87823580Y-53291858D01*
X87828564Y-53222166D01*
X87870436Y-53166233D01*
X87935900Y-53141816D01*
X87944746Y-53141500D01*
X93028822Y-53141500D01*
X93143394Y-53118709D01*
X93199124Y-53107624D01*
X93359547Y-53041175D01*
X93503923Y-52944706D01*
X93626706Y-52821923D01*
X93723175Y-52677547D01*
X93789624Y-52517124D01*
X93823500Y-52346820D01*
X93823500Y-33126491D01*
X93843185Y-33059452D01*
X93859819Y-33038810D01*
X97295810Y-29602819D01*
X97357133Y-29569334D01*
X97383491Y-29566500D01*
X100158474Y-29566500D01*
X100225513Y-29586185D01*
G37*
%TD.AperFunction*%
%TA.AperFunction,Conductor*%
G36*
X67531546Y-25361185D02*
G01*
X67577301Y-25413989D01*
X67587245Y-25483147D01*
X67558220Y-25546703D01*
X67552188Y-25553181D01*
X61856189Y-31249181D01*
X61794866Y-31282666D01*
X61768508Y-31285500D01*
X60056526Y-31285500D01*
X59989487Y-31265815D01*
X59943732Y-31213011D01*
X59940344Y-31204833D01*
X59891797Y-31074671D01*
X59891793Y-31074664D01*
X59805547Y-30959455D01*
X59805544Y-30959452D01*
X59690335Y-30873206D01*
X59690328Y-30873202D01*
X59558917Y-30824189D01*
X59502983Y-30782318D01*
X59478566Y-30716853D01*
X59493418Y-30648580D01*
X59514563Y-30620332D01*
X59636495Y-30498401D01*
X59772035Y-30304830D01*
X59871903Y-30090663D01*
X59933063Y-29862408D01*
X59953659Y-29627000D01*
X59933063Y-29391592D01*
X59871903Y-29163337D01*
X59772035Y-28949171D01*
X59742943Y-28907622D01*
X59636494Y-28755597D01*
X59469402Y-28588506D01*
X59469395Y-28588501D01*
X59275834Y-28452967D01*
X59275830Y-28452965D01*
X59189192Y-28412565D01*
X59061663Y-28353097D01*
X59061659Y-28353096D01*
X59061655Y-28353094D01*
X58833413Y-28291938D01*
X58833403Y-28291936D01*
X58598001Y-28271341D01*
X58597999Y-28271341D01*
X58362596Y-28291936D01*
X58362586Y-28291938D01*
X58134344Y-28353094D01*
X58134337Y-28353096D01*
X58134337Y-28353097D01*
X58128744Y-28355705D01*
X57920171Y-28452964D01*
X57920169Y-28452965D01*
X57726597Y-28588505D01*
X57559505Y-28755597D01*
X57423965Y-28949169D01*
X57423964Y-28949171D01*
X57324098Y-29163335D01*
X57324094Y-29163344D01*
X57262938Y-29391586D01*
X57262936Y-29391596D01*
X57242341Y-29626999D01*
X57242341Y-29627000D01*
X57262936Y-29862403D01*
X57262938Y-29862413D01*
X57324094Y-30090655D01*
X57324096Y-30090659D01*
X57324097Y-30090663D01*
X57364425Y-30177146D01*
X57423965Y-30304830D01*
X57423967Y-30304834D01*
X57468442Y-30368350D01*
X57559501Y-30498396D01*
X57559506Y-30498402D01*
X57681430Y-30620326D01*
X57714915Y-30681649D01*
X57709931Y-30751341D01*
X57668059Y-30807274D01*
X57637083Y-30824189D01*
X57505669Y-30873203D01*
X57505664Y-30873206D01*
X57390455Y-30959452D01*
X57390452Y-30959455D01*
X57304206Y-31074664D01*
X57304202Y-31074671D01*
X57253908Y-31209517D01*
X57247501Y-31269116D01*
X57247500Y-31269135D01*
X57247500Y-33064870D01*
X57247501Y-33064876D01*
X57253908Y-33124483D01*
X57304202Y-33259328D01*
X57304206Y-33259335D01*
X57390452Y-33374544D01*
X57390455Y-33374547D01*
X57505664Y-33460793D01*
X57505671Y-33460797D01*
X57640517Y-33511091D01*
X57640516Y-33511091D01*
X57647444Y-33511835D01*
X57700127Y-33517500D01*
X59495872Y-33517499D01*
X59555483Y-33511091D01*
X59690331Y-33460796D01*
X59805546Y-33374546D01*
X59891796Y-33259331D01*
X59940344Y-33129167D01*
X59982215Y-33073233D01*
X60047679Y-33048816D01*
X60056526Y-33048500D01*
X62271823Y-33048500D01*
X62386393Y-33025709D01*
X62442124Y-33014624D01*
X62522335Y-32981399D01*
X62602543Y-32948177D01*
X62602544Y-32948176D01*
X62602547Y-32948175D01*
X62746924Y-32851706D01*
X65899136Y-29699494D01*
X77114100Y-29699494D01*
X77114100Y-29699507D01*
X77133264Y-29930798D01*
X77133266Y-29930809D01*
X77190242Y-30155801D01*
X77283475Y-30368349D01*
X77410416Y-30562648D01*
X77410419Y-30562652D01*
X77410421Y-30562654D01*
X77567616Y-30733414D01*
X77567619Y-30733416D01*
X77567622Y-30733419D01*
X77750765Y-30875965D01*
X77750771Y-30875969D01*
X77750774Y-30875971D01*
X77954897Y-30986437D01*
X78024434Y-31010309D01*
X78174415Y-31061798D01*
X78174417Y-31061798D01*
X78174419Y-31061799D01*
X78403351Y-31100001D01*
X78403352Y-31100001D01*
X78635448Y-31100001D01*
X78635449Y-31100001D01*
X78864381Y-31061799D01*
X79083903Y-30986437D01*
X79288026Y-30875971D01*
X79291579Y-30873206D01*
X79448151Y-30751341D01*
X79471184Y-30733414D01*
X79628379Y-30562654D01*
X79634905Y-30552666D01*
X79670357Y-30498402D01*
X79755324Y-30368350D01*
X79848557Y-30155801D01*
X79905534Y-29930806D01*
X79905535Y-29930798D01*
X79924700Y-29699507D01*
X79924700Y-29699494D01*
X80614100Y-29699494D01*
X80614100Y-29699507D01*
X80633264Y-29930798D01*
X80633266Y-29930809D01*
X80690242Y-30155801D01*
X80783475Y-30368349D01*
X80910416Y-30562648D01*
X80910419Y-30562652D01*
X80910421Y-30562654D01*
X81067616Y-30733414D01*
X81067619Y-30733416D01*
X81067622Y-30733419D01*
X81250765Y-30875965D01*
X81250771Y-30875969D01*
X81250774Y-30875971D01*
X81454897Y-30986437D01*
X81524434Y-31010309D01*
X81674415Y-31061798D01*
X81674417Y-31061798D01*
X81674419Y-31061799D01*
X81903351Y-31100001D01*
X81903352Y-31100001D01*
X82135448Y-31100001D01*
X82135449Y-31100001D01*
X82364381Y-31061799D01*
X82583903Y-30986437D01*
X82788026Y-30875971D01*
X82791579Y-30873206D01*
X82948151Y-30751341D01*
X82971184Y-30733414D01*
X83128379Y-30562654D01*
X83134905Y-30552666D01*
X83170357Y-30498402D01*
X83255324Y-30368350D01*
X83348557Y-30155801D01*
X83405534Y-29930806D01*
X83405535Y-29930798D01*
X83424700Y-29699507D01*
X83424700Y-29699494D01*
X84114100Y-29699494D01*
X84114100Y-29699507D01*
X84133264Y-29930798D01*
X84133266Y-29930809D01*
X84190242Y-30155801D01*
X84283475Y-30368349D01*
X84410416Y-30562648D01*
X84410419Y-30562652D01*
X84410421Y-30562654D01*
X84567616Y-30733414D01*
X84567619Y-30733416D01*
X84567622Y-30733419D01*
X84750765Y-30875965D01*
X84750771Y-30875969D01*
X84750774Y-30875971D01*
X84954897Y-30986437D01*
X85024434Y-31010309D01*
X85174415Y-31061798D01*
X85174417Y-31061798D01*
X85174419Y-31061799D01*
X85403351Y-31100001D01*
X85403352Y-31100001D01*
X85635448Y-31100001D01*
X85635449Y-31100001D01*
X85864381Y-31061799D01*
X86083903Y-30986437D01*
X86288026Y-30875971D01*
X86291579Y-30873206D01*
X86448151Y-30751341D01*
X86471184Y-30733414D01*
X86628379Y-30562654D01*
X86634905Y-30552666D01*
X86670357Y-30498402D01*
X86755324Y-30368350D01*
X86848557Y-30155801D01*
X86905534Y-29930806D01*
X86905535Y-29930798D01*
X86924700Y-29699507D01*
X86924700Y-29699494D01*
X86905535Y-29468203D01*
X86905533Y-29468192D01*
X86848557Y-29243200D01*
X86755324Y-29030652D01*
X86628383Y-28836353D01*
X86628380Y-28836350D01*
X86628379Y-28836348D01*
X86550396Y-28751636D01*
X87618900Y-28751636D01*
X87618900Y-30647371D01*
X87618901Y-30647377D01*
X87625308Y-30706984D01*
X87675602Y-30841829D01*
X87675606Y-30841836D01*
X87761852Y-30957045D01*
X87761855Y-30957048D01*
X87877064Y-31043294D01*
X87877071Y-31043298D01*
X88011917Y-31093592D01*
X88011916Y-31093592D01*
X88018844Y-31094336D01*
X88071527Y-31100001D01*
X89967272Y-31100000D01*
X90026883Y-31093592D01*
X90161731Y-31043297D01*
X90276946Y-30957047D01*
X90363196Y-30841832D01*
X90413491Y-30706984D01*
X90419900Y-30647374D01*
X90419899Y-28751629D01*
X90413491Y-28692018D01*
X90410873Y-28685000D01*
X90363197Y-28557172D01*
X90363193Y-28557165D01*
X90276947Y-28441956D01*
X90276944Y-28441953D01*
X90161735Y-28355707D01*
X90161728Y-28355703D01*
X90026882Y-28305409D01*
X90026883Y-28305409D01*
X89967283Y-28299002D01*
X89967281Y-28299001D01*
X89967273Y-28299001D01*
X89967264Y-28299001D01*
X88071529Y-28299001D01*
X88071523Y-28299002D01*
X88011916Y-28305409D01*
X87877071Y-28355703D01*
X87877064Y-28355707D01*
X87761855Y-28441953D01*
X87761852Y-28441956D01*
X87675606Y-28557165D01*
X87675602Y-28557172D01*
X87625308Y-28692018D01*
X87619474Y-28746286D01*
X87618901Y-28751624D01*
X87618900Y-28751636D01*
X86550396Y-28751636D01*
X86471184Y-28665588D01*
X86471179Y-28665584D01*
X86471177Y-28665582D01*
X86288034Y-28523036D01*
X86288028Y-28523032D01*
X86083904Y-28412565D01*
X86083895Y-28412562D01*
X85864384Y-28337203D01*
X85673850Y-28305409D01*
X85635449Y-28299001D01*
X85403351Y-28299001D01*
X85364950Y-28305409D01*
X85174415Y-28337203D01*
X84954904Y-28412562D01*
X84954895Y-28412565D01*
X84750771Y-28523032D01*
X84750765Y-28523036D01*
X84567622Y-28665582D01*
X84567619Y-28665585D01*
X84567616Y-28665587D01*
X84567616Y-28665588D01*
X84543286Y-28692018D01*
X84410416Y-28836353D01*
X84283475Y-29030652D01*
X84190242Y-29243200D01*
X84133266Y-29468192D01*
X84133264Y-29468203D01*
X84114100Y-29699494D01*
X83424700Y-29699494D01*
X83405535Y-29468203D01*
X83405533Y-29468192D01*
X83348557Y-29243200D01*
X83255324Y-29030652D01*
X83128383Y-28836353D01*
X83128380Y-28836350D01*
X83128379Y-28836348D01*
X82971184Y-28665588D01*
X82971179Y-28665584D01*
X82971177Y-28665582D01*
X82788034Y-28523036D01*
X82788028Y-28523032D01*
X82583904Y-28412565D01*
X82583895Y-28412562D01*
X82364384Y-28337203D01*
X82173850Y-28305409D01*
X82135449Y-28299001D01*
X81903351Y-28299001D01*
X81864950Y-28305409D01*
X81674415Y-28337203D01*
X81454904Y-28412562D01*
X81454895Y-28412565D01*
X81250771Y-28523032D01*
X81250765Y-28523036D01*
X81067622Y-28665582D01*
X81067619Y-28665585D01*
X81067616Y-28665587D01*
X81067616Y-28665588D01*
X81043286Y-28692018D01*
X80910416Y-28836353D01*
X80783475Y-29030652D01*
X80690242Y-29243200D01*
X80633266Y-29468192D01*
X80633264Y-29468203D01*
X80614100Y-29699494D01*
X79924700Y-29699494D01*
X79905535Y-29468203D01*
X79905533Y-29468192D01*
X79848557Y-29243200D01*
X79755324Y-29030652D01*
X79628383Y-28836353D01*
X79628380Y-28836350D01*
X79628379Y-28836348D01*
X79471184Y-28665588D01*
X79471179Y-28665584D01*
X79471177Y-28665582D01*
X79288034Y-28523036D01*
X79288028Y-28523032D01*
X79083904Y-28412565D01*
X79083895Y-28412562D01*
X78864384Y-28337203D01*
X78673850Y-28305409D01*
X78635449Y-28299001D01*
X78403351Y-28299001D01*
X78364950Y-28305409D01*
X78174415Y-28337203D01*
X77954904Y-28412562D01*
X77954895Y-28412565D01*
X77750771Y-28523032D01*
X77750765Y-28523036D01*
X77567622Y-28665582D01*
X77567619Y-28665585D01*
X77567616Y-28665587D01*
X77567616Y-28665588D01*
X77543286Y-28692018D01*
X77410416Y-28836353D01*
X77283475Y-29030652D01*
X77190242Y-29243200D01*
X77133266Y-29468192D01*
X77133264Y-29468203D01*
X77114100Y-29699494D01*
X65899136Y-29699494D01*
X68535811Y-27062819D01*
X68597134Y-27029334D01*
X68623492Y-27026500D01*
X100537242Y-27026500D01*
X100604281Y-27046185D01*
X100624923Y-27062819D01*
X100700430Y-27138326D01*
X100733915Y-27199649D01*
X100728931Y-27269341D01*
X100687059Y-27325274D01*
X100656083Y-27342189D01*
X100524669Y-27391203D01*
X100524664Y-27391206D01*
X100409455Y-27477452D01*
X100409452Y-27477455D01*
X100323206Y-27592664D01*
X100323202Y-27592671D01*
X100274656Y-27722833D01*
X100232785Y-27778767D01*
X100167321Y-27803184D01*
X100158474Y-27803500D01*
X96880175Y-27803500D01*
X96709883Y-27837373D01*
X96709875Y-27837375D01*
X96596440Y-27884362D01*
X96549454Y-27903824D01*
X96549450Y-27903826D01*
X96466136Y-27959495D01*
X96405081Y-28000290D01*
X96405073Y-28000296D01*
X92257296Y-32148072D01*
X92257295Y-32148073D01*
X92160822Y-32292456D01*
X92094377Y-32452871D01*
X92094374Y-32452881D01*
X92060500Y-32623177D01*
X92060500Y-51254500D01*
X92040815Y-51321539D01*
X91988011Y-51367294D01*
X91936500Y-51378500D01*
X84655177Y-51378500D01*
X84484881Y-51412374D01*
X84484871Y-51412377D01*
X84324459Y-51478821D01*
X84324451Y-51478826D01*
X84203715Y-51559500D01*
X84203714Y-51559501D01*
X84180078Y-51575293D01*
X84129680Y-51625690D01*
X84068356Y-51659174D01*
X83998664Y-51654188D01*
X83954319Y-51625688D01*
X83853926Y-51525295D01*
X83709543Y-51428822D01*
X83549128Y-51362377D01*
X83549118Y-51362374D01*
X83378823Y-51328500D01*
X83378821Y-51328500D01*
X83378820Y-51328500D01*
X83228820Y-51328500D01*
X75728821Y-51328500D01*
X75555180Y-51328500D01*
X75555175Y-51328500D01*
X75384883Y-51362373D01*
X75384875Y-51362375D01*
X75295484Y-51399403D01*
X75295483Y-51399403D01*
X75224459Y-51428821D01*
X75224447Y-51428828D01*
X75149623Y-51478825D01*
X75149622Y-51478826D01*
X75080074Y-51525295D01*
X75080073Y-51525296D01*
X74907296Y-51698072D01*
X74907295Y-51698073D01*
X74810822Y-51842456D01*
X74744377Y-52002871D01*
X74744374Y-52002883D01*
X74714196Y-52154598D01*
X74714196Y-52154601D01*
X74710500Y-52173180D01*
X74710500Y-53696820D01*
X74710500Y-53696822D01*
X74710499Y-53696822D01*
X74744374Y-53867118D01*
X74744377Y-53867128D01*
X74810821Y-54027540D01*
X74810828Y-54027553D01*
X74907293Y-54171922D01*
X74907296Y-54171926D01*
X75030073Y-54294703D01*
X75030077Y-54294706D01*
X75174446Y-54391171D01*
X75174459Y-54391178D01*
X75313906Y-54448938D01*
X75334876Y-54457624D01*
X75334880Y-54457624D01*
X75334881Y-54457625D01*
X75505177Y-54491500D01*
X75505180Y-54491500D01*
X75678822Y-54491500D01*
X75793394Y-54468709D01*
X75849124Y-54457624D01*
X76009547Y-54391175D01*
X76153923Y-54294706D01*
X76276706Y-54171923D01*
X76373175Y-54027547D01*
X76439624Y-53867124D01*
X76470412Y-53712344D01*
X76473500Y-53696822D01*
X76473500Y-53215500D01*
X76493185Y-53148461D01*
X76545989Y-53102706D01*
X76597500Y-53091500D01*
X80346252Y-53091500D01*
X80413291Y-53111185D01*
X80459046Y-53163989D01*
X80468990Y-53233147D01*
X80439965Y-53296703D01*
X80433933Y-53303181D01*
X78922711Y-54814402D01*
X78859837Y-54891016D01*
X78832956Y-54931248D01*
X78786250Y-55018630D01*
X78786244Y-55018644D01*
X78734418Y-55143762D01*
X78705653Y-55238590D01*
X78705651Y-55238598D01*
X78696212Y-55286048D01*
X78691754Y-55331318D01*
X78686500Y-55384665D01*
X78686500Y-56235334D01*
X78689683Y-56267653D01*
X78696212Y-56333950D01*
X78696213Y-56333954D01*
X78705652Y-56381406D01*
X78705653Y-56381412D01*
X78705656Y-56381421D01*
X78733529Y-56473304D01*
X78734153Y-56543171D01*
X78696905Y-56602284D01*
X78633611Y-56631875D01*
X78614869Y-56633300D01*
X72777500Y-56633300D01*
X72710461Y-56613615D01*
X72664706Y-56560811D01*
X72653500Y-56509300D01*
X72653499Y-54886129D01*
X72653498Y-54886123D01*
X72650216Y-54855593D01*
X72647091Y-54826517D01*
X72645810Y-54823083D01*
X72596797Y-54691671D01*
X72596793Y-54691664D01*
X72510547Y-54576455D01*
X72510544Y-54576452D01*
X72395335Y-54490206D01*
X72395328Y-54490202D01*
X72260482Y-54439908D01*
X72260483Y-54439908D01*
X72200883Y-54433501D01*
X72200881Y-54433500D01*
X72200873Y-54433500D01*
X72200864Y-54433500D01*
X70405129Y-54433500D01*
X70405123Y-54433501D01*
X70345516Y-54439908D01*
X70210671Y-54490202D01*
X70210664Y-54490206D01*
X70095455Y-54576452D01*
X70095452Y-54576455D01*
X70009206Y-54691664D01*
X70009203Y-54691669D01*
X69960189Y-54823083D01*
X69918317Y-54879016D01*
X69852853Y-54903433D01*
X69784580Y-54888581D01*
X69756326Y-54867430D01*
X69634402Y-54745506D01*
X69634395Y-54745501D01*
X69624779Y-54738768D01*
X69557518Y-54691671D01*
X69440834Y-54609967D01*
X69440830Y-54609965D01*
X69226663Y-54510097D01*
X69226659Y-54510096D01*
X69226655Y-54510094D01*
X68998413Y-54448938D01*
X68998403Y-54448936D01*
X68763001Y-54428341D01*
X68762999Y-54428341D01*
X68527596Y-54448936D01*
X68527586Y-54448938D01*
X68372697Y-54490440D01*
X68302847Y-54488777D01*
X68252923Y-54458346D01*
X68243104Y-54448527D01*
X68243098Y-54448522D01*
X68111600Y-54372602D01*
X68111599Y-54372601D01*
X68111598Y-54372601D01*
X67964924Y-54333300D01*
X67964923Y-54333300D01*
X63655811Y-54333300D01*
X63588772Y-54313615D01*
X63568130Y-54296981D01*
X63547398Y-54276249D01*
X63393706Y-54179677D01*
X63222374Y-54119725D01*
X63222369Y-54119724D01*
X63042004Y-54099403D01*
X63041996Y-54099403D01*
X62861630Y-54119724D01*
X62861625Y-54119725D01*
X62690293Y-54179677D01*
X62536601Y-54276249D01*
X62408249Y-54404601D01*
X62311677Y-54558293D01*
X62251725Y-54729625D01*
X62251724Y-54729630D01*
X62231403Y-54909996D01*
X62231403Y-54910003D01*
X62251724Y-55090369D01*
X62251725Y-55090374D01*
X62311677Y-55261706D01*
X62408249Y-55415398D01*
X62536601Y-55543750D01*
X62663793Y-55623671D01*
X62690295Y-55640323D01*
X62774321Y-55669725D01*
X62861625Y-55700274D01*
X62861630Y-55700275D01*
X63041996Y-55720597D01*
X63042000Y-55720597D01*
X63042004Y-55720597D01*
X63222369Y-55700275D01*
X63222372Y-55700274D01*
X63222375Y-55700274D01*
X63393705Y-55640323D01*
X63547399Y-55543750D01*
X63568130Y-55523019D01*
X63629453Y-55489534D01*
X63655811Y-55486700D01*
X67298030Y-55486700D01*
X67365069Y-55506385D01*
X67410824Y-55559189D01*
X67421557Y-55621506D01*
X67414666Y-55700274D01*
X67407341Y-55783999D01*
X67407341Y-55784000D01*
X67427936Y-56019403D01*
X67427938Y-56019413D01*
X67489094Y-56247655D01*
X67489096Y-56247659D01*
X67489097Y-56247663D01*
X67573235Y-56428097D01*
X67586664Y-56456895D01*
X67597156Y-56525973D01*
X67568636Y-56589757D01*
X67510160Y-56627996D01*
X67474282Y-56633300D01*
X65618261Y-56633300D01*
X65551222Y-56613615D01*
X65505467Y-56560811D01*
X65495041Y-56523183D01*
X65484275Y-56427630D01*
X65484274Y-56427625D01*
X65482172Y-56421619D01*
X65424323Y-56256295D01*
X65421840Y-56252344D01*
X65327750Y-56102601D01*
X65199398Y-55974249D01*
X65045706Y-55877677D01*
X64874374Y-55817725D01*
X64874369Y-55817724D01*
X64694004Y-55797403D01*
X64693996Y-55797403D01*
X64513630Y-55817724D01*
X64513625Y-55817725D01*
X64342293Y-55877677D01*
X64188601Y-55974249D01*
X64167870Y-55994981D01*
X64106547Y-56028466D01*
X64080189Y-56031300D01*
X59880239Y-56031300D01*
X59813200Y-56011615D01*
X59792558Y-55994981D01*
X59705019Y-55907442D01*
X59671534Y-55846119D01*
X59668700Y-55819761D01*
X59668700Y-47100239D01*
X59688385Y-47033200D01*
X59705019Y-47012558D01*
X59744558Y-46973019D01*
X59805881Y-46939534D01*
X59832239Y-46936700D01*
X61828189Y-46936700D01*
X61895228Y-46956385D01*
X61915870Y-46973019D01*
X61936601Y-46993750D01*
X62024334Y-47048877D01*
X62090295Y-47090323D01*
X62190222Y-47125289D01*
X62261625Y-47150274D01*
X62261630Y-47150275D01*
X62441996Y-47170597D01*
X62442000Y-47170597D01*
X62442004Y-47170597D01*
X62622369Y-47150275D01*
X62622372Y-47150274D01*
X62622375Y-47150274D01*
X62793705Y-47090323D01*
X62947399Y-46993750D01*
X63075750Y-46865399D01*
X63172323Y-46711705D01*
X63232274Y-46540375D01*
X63241792Y-46455898D01*
X63252597Y-46360003D01*
X63252597Y-46359996D01*
X63232275Y-46179630D01*
X63232274Y-46179625D01*
X63201733Y-46092344D01*
X63172323Y-46008295D01*
X63103349Y-45898525D01*
X63075750Y-45854601D01*
X62947398Y-45726249D01*
X62793706Y-45629677D01*
X62622374Y-45569725D01*
X62622369Y-45569724D01*
X62442004Y-45549403D01*
X62441996Y-45549403D01*
X62261630Y-45569724D01*
X62261625Y-45569725D01*
X62090293Y-45629677D01*
X61936601Y-45726249D01*
X61915870Y-45746981D01*
X61854547Y-45780466D01*
X61828189Y-45783300D01*
X59617924Y-45783300D01*
X59466076Y-45783300D01*
X59319402Y-45822601D01*
X59319401Y-45822601D01*
X59319399Y-45822602D01*
X59319398Y-45822602D01*
X59187901Y-45898522D01*
X59187895Y-45898527D01*
X58630527Y-46455895D01*
X58630522Y-46455901D01*
X58554602Y-46587398D01*
X58554602Y-46587399D01*
X58554601Y-46587401D01*
X58554601Y-46587402D01*
X58515300Y-46734076D01*
X58515300Y-56034076D01*
X58515300Y-56185924D01*
X58552078Y-56323183D01*
X58554602Y-56332600D01*
X58554602Y-56332601D01*
X58620824Y-56447300D01*
X58637297Y-56515200D01*
X58614445Y-56581227D01*
X58559523Y-56624418D01*
X58513437Y-56633300D01*
X52489038Y-56633300D01*
X52421999Y-56613615D01*
X52376244Y-56560811D01*
X52372000Y-56550266D01*
X52322323Y-56408295D01*
X52225750Y-56254601D01*
X52097399Y-56126250D01*
X52097398Y-56126249D01*
X51943706Y-56029677D01*
X51772374Y-55969725D01*
X51772369Y-55969724D01*
X51592004Y-55949403D01*
X51591996Y-55949403D01*
X51411630Y-55969724D01*
X51411625Y-55969725D01*
X51240293Y-56029677D01*
X51163472Y-56077948D01*
X51096235Y-56096948D01*
X51029400Y-56076580D01*
X50984186Y-56023313D01*
X50973500Y-55972954D01*
X50973500Y-44786100D01*
X50993185Y-44719061D01*
X51045989Y-44673306D01*
X51097500Y-44662100D01*
X56921268Y-44662100D01*
X56927145Y-44661326D01*
X56957216Y-44661044D01*
X57029990Y-44669243D01*
X57041999Y-44670597D01*
X57042000Y-44670597D01*
X57042003Y-44670597D01*
X57222369Y-44650275D01*
X57222372Y-44650274D01*
X57222375Y-44650274D01*
X57393705Y-44590323D01*
X57547399Y-44493750D01*
X57675750Y-44365399D01*
X57772323Y-44211705D01*
X57832274Y-44040375D01*
X57852597Y-43860000D01*
X57832274Y-43679625D01*
X57772323Y-43508295D01*
X57675750Y-43354601D01*
X57547399Y-43226250D01*
X57547398Y-43226249D01*
X57393706Y-43129677D01*
X57222374Y-43069725D01*
X57222369Y-43069724D01*
X57042004Y-43049403D01*
X57041996Y-43049403D01*
X56861630Y-43069724D01*
X56861625Y-43069725D01*
X56690293Y-43129677D01*
X56536601Y-43226249D01*
X56408249Y-43354601D01*
X56379804Y-43399872D01*
X56327469Y-43446163D01*
X56274810Y-43457900D01*
X51097500Y-43457900D01*
X51030461Y-43438215D01*
X50984706Y-43385411D01*
X50973500Y-43333900D01*
X50973500Y-38859996D01*
X55231403Y-38859996D01*
X55231403Y-38860003D01*
X55251724Y-39040369D01*
X55251725Y-39040374D01*
X55311677Y-39211706D01*
X55408249Y-39365398D01*
X55536601Y-39493750D01*
X55672422Y-39579093D01*
X55690295Y-39590323D01*
X55802119Y-39629452D01*
X55861625Y-39650274D01*
X55861630Y-39650275D01*
X56041996Y-39670597D01*
X56042000Y-39670597D01*
X56042004Y-39670597D01*
X56222369Y-39650275D01*
X56222372Y-39650274D01*
X56222375Y-39650274D01*
X56393705Y-39590323D01*
X56498528Y-39524458D01*
X56565764Y-39505458D01*
X56632600Y-39525825D01*
X56677814Y-39579093D01*
X56688500Y-39629452D01*
X56688500Y-39793573D01*
X56688503Y-39793601D01*
X56688503Y-39849939D01*
X56707703Y-39983478D01*
X56707703Y-39983481D01*
X56708964Y-39992255D01*
X56749503Y-40130313D01*
X56809223Y-40261081D01*
X56809227Y-40261087D01*
X56809230Y-40261094D01*
X56869749Y-40355264D01*
X56887015Y-40382132D01*
X56887018Y-40382136D01*
X56981152Y-40490773D01*
X56981168Y-40490791D01*
X56981171Y-40490794D01*
X57089909Y-40585015D01*
X57150386Y-40623881D01*
X57210857Y-40662744D01*
X57210863Y-40662747D01*
X57341741Y-40722517D01*
X57479696Y-40763024D01*
X57622111Y-40783500D01*
X57622114Y-40783500D01*
X58194000Y-40783500D01*
X58265940Y-40778355D01*
X58303259Y-40767396D01*
X58355841Y-40763636D01*
X58494000Y-40783500D01*
X58494003Y-40783500D01*
X59065886Y-40783500D01*
X59065889Y-40783500D01*
X59208304Y-40763024D01*
X59346259Y-40722517D01*
X59477137Y-40662747D01*
X59592477Y-40588622D01*
X59593915Y-40587804D01*
X59598098Y-40585011D01*
X59647017Y-40542620D01*
X59706832Y-40490791D01*
X59800986Y-40382130D01*
X59878770Y-40261094D01*
X59935742Y-40136342D01*
X59937986Y-40132053D01*
X59938498Y-40130308D01*
X59938499Y-40130308D01*
X59979035Y-39992256D01*
X59999497Y-39849941D01*
X59999497Y-39793601D01*
X59999500Y-39793590D01*
X59999500Y-39458444D01*
X60018167Y-39394868D01*
X60017723Y-39394631D01*
X60018865Y-39392494D01*
X60019185Y-39391405D01*
X60020374Y-39389589D01*
X60020592Y-39389264D01*
X60069809Y-39270443D01*
X60094900Y-39144305D01*
X60094900Y-38220646D01*
X60113907Y-38154673D01*
X60172322Y-38061707D01*
X60172323Y-38061705D01*
X60232274Y-37890375D01*
X60237743Y-37841836D01*
X60252597Y-37710003D01*
X60252597Y-37709996D01*
X60232275Y-37529630D01*
X60232274Y-37529625D01*
X60172322Y-37358293D01*
X60075750Y-37204601D01*
X59956370Y-37085221D01*
X59922885Y-37023898D01*
X59927866Y-36954213D01*
X59935810Y-36932916D01*
X59977676Y-36876985D01*
X60043139Y-36852565D01*
X60111413Y-36867414D01*
X60139672Y-36888568D01*
X60261599Y-37010495D01*
X60355507Y-37076250D01*
X60455165Y-37146032D01*
X60455167Y-37146033D01*
X60455170Y-37146035D01*
X60669337Y-37245903D01*
X60897592Y-37307063D01*
X61074034Y-37322500D01*
X61132999Y-37327659D01*
X61133000Y-37327659D01*
X61133001Y-37327659D01*
X61191966Y-37322500D01*
X61368408Y-37307063D01*
X61596663Y-37245903D01*
X61810830Y-37146035D01*
X62004401Y-37010495D01*
X62171495Y-36843401D01*
X62272260Y-36699494D01*
X77114100Y-36699494D01*
X77114100Y-36699507D01*
X77133264Y-36930798D01*
X77133266Y-36930809D01*
X77190242Y-37155801D01*
X77283475Y-37368349D01*
X77410416Y-37562648D01*
X77410419Y-37562652D01*
X77410421Y-37562654D01*
X77567616Y-37733414D01*
X77567619Y-37733416D01*
X77567622Y-37733419D01*
X77750765Y-37875965D01*
X77750771Y-37875969D01*
X77750774Y-37875971D01*
X77954897Y-37986437D01*
X78068887Y-38025569D01*
X78174415Y-38061798D01*
X78174417Y-38061798D01*
X78174419Y-38061799D01*
X78403351Y-38100001D01*
X78403352Y-38100001D01*
X78635448Y-38100001D01*
X78635449Y-38100001D01*
X78864381Y-38061799D01*
X79083903Y-37986437D01*
X79288026Y-37875971D01*
X79471184Y-37733414D01*
X79628379Y-37562654D01*
X79755324Y-37368350D01*
X79848557Y-37155801D01*
X79905534Y-36930806D01*
X79910583Y-36869872D01*
X79924700Y-36699507D01*
X79924700Y-36699494D01*
X80614100Y-36699494D01*
X80614100Y-36699507D01*
X80633264Y-36930798D01*
X80633266Y-36930809D01*
X80690242Y-37155801D01*
X80783475Y-37368349D01*
X80910416Y-37562648D01*
X80910419Y-37562652D01*
X80910421Y-37562654D01*
X81067616Y-37733414D01*
X81067619Y-37733416D01*
X81067622Y-37733419D01*
X81250765Y-37875965D01*
X81250771Y-37875969D01*
X81250774Y-37875971D01*
X81454897Y-37986437D01*
X81568887Y-38025569D01*
X81674415Y-38061798D01*
X81674417Y-38061798D01*
X81674419Y-38061799D01*
X81903351Y-38100001D01*
X81903352Y-38100001D01*
X82135448Y-38100001D01*
X82135449Y-38100001D01*
X82364381Y-38061799D01*
X82583903Y-37986437D01*
X82788026Y-37875971D01*
X82971184Y-37733414D01*
X83128379Y-37562654D01*
X83255324Y-37368350D01*
X83348557Y-37155801D01*
X83405534Y-36930806D01*
X83410583Y-36869872D01*
X83424700Y-36699507D01*
X83424700Y-36699494D01*
X84114100Y-36699494D01*
X84114100Y-36699507D01*
X84133264Y-36930798D01*
X84133266Y-36930809D01*
X84190242Y-37155801D01*
X84283475Y-37368349D01*
X84410416Y-37562648D01*
X84410419Y-37562652D01*
X84410421Y-37562654D01*
X84567616Y-37733414D01*
X84567619Y-37733416D01*
X84567622Y-37733419D01*
X84750765Y-37875965D01*
X84750771Y-37875969D01*
X84750774Y-37875971D01*
X84954897Y-37986437D01*
X85068887Y-38025569D01*
X85174415Y-38061798D01*
X85174417Y-38061798D01*
X85174419Y-38061799D01*
X85403351Y-38100001D01*
X85403352Y-38100001D01*
X85635448Y-38100001D01*
X85635449Y-38100001D01*
X85864381Y-38061799D01*
X86083903Y-37986437D01*
X86288026Y-37875971D01*
X86471184Y-37733414D01*
X86628379Y-37562654D01*
X86755324Y-37368350D01*
X86848557Y-37155801D01*
X86905534Y-36930806D01*
X86910583Y-36869872D01*
X86924700Y-36699507D01*
X86924700Y-36699494D01*
X86905535Y-36468203D01*
X86905533Y-36468192D01*
X86848557Y-36243200D01*
X86755324Y-36030652D01*
X86628383Y-35836353D01*
X86628380Y-35836350D01*
X86628379Y-35836348D01*
X86550396Y-35751636D01*
X87618900Y-35751636D01*
X87618900Y-37647371D01*
X87618901Y-37647377D01*
X87625308Y-37706984D01*
X87675602Y-37841829D01*
X87675606Y-37841836D01*
X87761852Y-37957045D01*
X87761855Y-37957048D01*
X87877064Y-38043294D01*
X87877071Y-38043298D01*
X88011917Y-38093592D01*
X88011916Y-38093592D01*
X88018844Y-38094336D01*
X88071527Y-38100001D01*
X89967272Y-38100000D01*
X90026883Y-38093592D01*
X90161731Y-38043297D01*
X90276946Y-37957047D01*
X90363196Y-37841832D01*
X90413491Y-37706984D01*
X90419900Y-37647374D01*
X90419899Y-35751629D01*
X90413491Y-35692018D01*
X90403633Y-35665588D01*
X90363197Y-35557172D01*
X90363193Y-35557165D01*
X90276947Y-35441956D01*
X90276944Y-35441953D01*
X90161735Y-35355707D01*
X90161728Y-35355703D01*
X90026882Y-35305409D01*
X90026883Y-35305409D01*
X89967283Y-35299002D01*
X89967281Y-35299001D01*
X89967273Y-35299001D01*
X89967264Y-35299001D01*
X88071529Y-35299001D01*
X88071523Y-35299002D01*
X88011916Y-35305409D01*
X87877071Y-35355703D01*
X87877064Y-35355707D01*
X87761855Y-35441953D01*
X87761852Y-35441956D01*
X87675606Y-35557165D01*
X87675602Y-35557172D01*
X87625308Y-35692018D01*
X87620516Y-35736596D01*
X87618901Y-35751624D01*
X87618900Y-35751636D01*
X86550396Y-35751636D01*
X86471184Y-35665588D01*
X86471179Y-35665584D01*
X86471177Y-35665582D01*
X86288034Y-35523036D01*
X86288028Y-35523032D01*
X86083904Y-35412565D01*
X86083895Y-35412562D01*
X85864384Y-35337203D01*
X85673850Y-35305409D01*
X85635449Y-35299001D01*
X85403351Y-35299001D01*
X85364950Y-35305409D01*
X85174415Y-35337203D01*
X84954904Y-35412562D01*
X84954895Y-35412565D01*
X84750771Y-35523032D01*
X84750765Y-35523036D01*
X84567622Y-35665582D01*
X84567619Y-35665585D01*
X84567616Y-35665587D01*
X84567616Y-35665588D01*
X84543286Y-35692018D01*
X84410416Y-35836353D01*
X84283475Y-36030652D01*
X84190242Y-36243200D01*
X84133266Y-36468192D01*
X84133264Y-36468203D01*
X84114100Y-36699494D01*
X83424700Y-36699494D01*
X83405535Y-36468203D01*
X83405533Y-36468192D01*
X83348557Y-36243200D01*
X83255324Y-36030652D01*
X83128383Y-35836353D01*
X83128380Y-35836350D01*
X83128379Y-35836348D01*
X82971184Y-35665588D01*
X82971179Y-35665584D01*
X82971177Y-35665582D01*
X82788034Y-35523036D01*
X82788028Y-35523032D01*
X82583904Y-35412565D01*
X82583895Y-35412562D01*
X82364384Y-35337203D01*
X82173850Y-35305409D01*
X82135449Y-35299001D01*
X81903351Y-35299001D01*
X81864950Y-35305409D01*
X81674415Y-35337203D01*
X81454904Y-35412562D01*
X81454895Y-35412565D01*
X81250771Y-35523032D01*
X81250765Y-35523036D01*
X81067622Y-35665582D01*
X81067619Y-35665585D01*
X81067616Y-35665587D01*
X81067616Y-35665588D01*
X81043286Y-35692018D01*
X80910416Y-35836353D01*
X80783475Y-36030652D01*
X80690242Y-36243200D01*
X80633266Y-36468192D01*
X80633264Y-36468203D01*
X80614100Y-36699494D01*
X79924700Y-36699494D01*
X79905535Y-36468203D01*
X79905533Y-36468192D01*
X79848557Y-36243200D01*
X79755324Y-36030652D01*
X79628383Y-35836353D01*
X79628380Y-35836350D01*
X79628379Y-35836348D01*
X79471184Y-35665588D01*
X79471179Y-35665584D01*
X79471177Y-35665582D01*
X79288034Y-35523036D01*
X79288028Y-35523032D01*
X79083904Y-35412565D01*
X79083895Y-35412562D01*
X78864384Y-35337203D01*
X78673850Y-35305409D01*
X78635449Y-35299001D01*
X78403351Y-35299001D01*
X78364950Y-35305409D01*
X78174415Y-35337203D01*
X77954904Y-35412562D01*
X77954895Y-35412565D01*
X77750771Y-35523032D01*
X77750765Y-35523036D01*
X77567622Y-35665582D01*
X77567619Y-35665585D01*
X77567616Y-35665587D01*
X77567616Y-35665588D01*
X77543286Y-35692018D01*
X77410416Y-35836353D01*
X77283475Y-36030652D01*
X77190242Y-36243200D01*
X77133266Y-36468192D01*
X77133264Y-36468203D01*
X77114100Y-36699494D01*
X62272260Y-36699494D01*
X62307035Y-36649830D01*
X62406903Y-36435663D01*
X62468063Y-36207408D01*
X62488659Y-35972000D01*
X62468063Y-35736592D01*
X62410842Y-35523036D01*
X62406905Y-35508344D01*
X62406904Y-35508343D01*
X62406903Y-35508337D01*
X62307035Y-35294171D01*
X62172791Y-35102449D01*
X62171494Y-35100597D01*
X62004402Y-34933506D01*
X62004395Y-34933501D01*
X61810834Y-34797967D01*
X61810830Y-34797965D01*
X61781551Y-34784312D01*
X61596663Y-34698097D01*
X61596659Y-34698096D01*
X61596655Y-34698094D01*
X61368413Y-34636938D01*
X61368403Y-34636936D01*
X61133001Y-34616341D01*
X61132999Y-34616341D01*
X60897596Y-34636936D01*
X60897586Y-34636938D01*
X60669344Y-34698094D01*
X60669335Y-34698098D01*
X60455171Y-34797964D01*
X60455169Y-34797965D01*
X60261600Y-34933503D01*
X60139673Y-35055430D01*
X60078350Y-35088914D01*
X60008658Y-35083930D01*
X59952725Y-35042058D01*
X59935810Y-35011081D01*
X59886797Y-34879671D01*
X59886793Y-34879664D01*
X59800547Y-34764455D01*
X59800544Y-34764452D01*
X59685335Y-34678206D01*
X59685328Y-34678202D01*
X59550482Y-34627908D01*
X59550483Y-34627908D01*
X59490883Y-34621501D01*
X59490881Y-34621500D01*
X59490873Y-34621500D01*
X59490864Y-34621500D01*
X57695129Y-34621500D01*
X57695123Y-34621501D01*
X57635516Y-34627908D01*
X57500671Y-34678202D01*
X57500664Y-34678206D01*
X57385455Y-34764452D01*
X57385452Y-34764455D01*
X57299206Y-34879664D01*
X57299202Y-34879671D01*
X57248908Y-35014517D01*
X57242501Y-35074116D01*
X57242500Y-35074135D01*
X57242500Y-36869870D01*
X57242501Y-36869876D01*
X57248908Y-36929483D01*
X57299202Y-37064328D01*
X57299206Y-37064335D01*
X57385452Y-37179544D01*
X57385455Y-37179547D01*
X57500664Y-37265793D01*
X57500671Y-37265797D01*
X57635517Y-37316091D01*
X57635516Y-37316091D01*
X57642444Y-37316835D01*
X57695127Y-37322500D01*
X58549440Y-37322499D01*
X58616479Y-37342183D01*
X58662234Y-37394987D01*
X58672178Y-37464146D01*
X58666482Y-37487453D01*
X58651726Y-37529622D01*
X58651724Y-37529630D01*
X58631403Y-37709996D01*
X58631403Y-37710003D01*
X58651724Y-37890369D01*
X58651725Y-37890374D01*
X58711677Y-38061707D01*
X58724760Y-38082527D01*
X58743761Y-38149764D01*
X58723394Y-38216599D01*
X58670126Y-38261813D01*
X58619767Y-38272500D01*
X58493997Y-38272500D01*
X58422061Y-38277644D01*
X58422056Y-38277645D01*
X58384735Y-38288603D01*
X58332158Y-38292363D01*
X58194001Y-38272500D01*
X58194000Y-38272500D01*
X57622111Y-38272500D01*
X57622110Y-38272500D01*
X57479703Y-38292974D01*
X57479687Y-38292978D01*
X57343440Y-38332983D01*
X57273570Y-38332983D01*
X57256184Y-38325537D01*
X57256112Y-38325713D01*
X57248600Y-38322602D01*
X57248599Y-38322601D01*
X57248598Y-38322601D01*
X57101924Y-38283300D01*
X57101923Y-38283300D01*
X56655811Y-38283300D01*
X56588772Y-38263615D01*
X56568130Y-38246981D01*
X56547398Y-38226249D01*
X56393706Y-38129677D01*
X56222374Y-38069725D01*
X56222369Y-38069724D01*
X56042004Y-38049403D01*
X56041996Y-38049403D01*
X55861630Y-38069724D01*
X55861625Y-38069725D01*
X55690293Y-38129677D01*
X55536601Y-38226249D01*
X55408249Y-38354601D01*
X55311677Y-38508293D01*
X55251725Y-38679625D01*
X55251724Y-38679630D01*
X55231403Y-38859996D01*
X50973500Y-38859996D01*
X50973500Y-34326492D01*
X50993185Y-34259453D01*
X51009819Y-34238811D01*
X59870811Y-25377819D01*
X59932134Y-25344334D01*
X59958492Y-25341500D01*
X67464507Y-25341500D01*
X67531546Y-25361185D01*
G37*
%TD.AperFunction*%
%TA.AperFunction,Conductor*%
G36*
X84517696Y-53543890D02*
G01*
X84572874Y-53586752D01*
X84596120Y-53652642D01*
X84590959Y-53695275D01*
X84562654Y-53788583D01*
X84562651Y-53788598D01*
X84553212Y-53836048D01*
X84543500Y-53934667D01*
X84543500Y-54285331D01*
X84553212Y-54383950D01*
X84554649Y-54391175D01*
X84562652Y-54431406D01*
X84570824Y-54458346D01*
X84591418Y-54526236D01*
X84643244Y-54651354D01*
X84643250Y-54651368D01*
X84689960Y-54738758D01*
X84689972Y-54738778D01*
X84716830Y-54778974D01*
X84716847Y-54778997D01*
X84779699Y-54855582D01*
X84779701Y-54855584D01*
X84779705Y-54855588D01*
X84779710Y-54855594D01*
X84853405Y-54929289D01*
X84930003Y-54992152D01*
X84962117Y-55013610D01*
X84970229Y-55019031D01*
X84970231Y-55019032D01*
X85057627Y-55065747D01*
X85182764Y-55117581D01*
X85277594Y-55146348D01*
X85325047Y-55155787D01*
X85423665Y-55165500D01*
X86288254Y-55165500D01*
X86355293Y-55185185D01*
X86375935Y-55201819D01*
X87595735Y-56421619D01*
X87629220Y-56482942D01*
X87624236Y-56552634D01*
X87582364Y-56608567D01*
X87516900Y-56632984D01*
X87508054Y-56633300D01*
X80732945Y-56633300D01*
X80665906Y-56613615D01*
X80620151Y-56560811D01*
X80610207Y-56491653D01*
X80639232Y-56428097D01*
X80645264Y-56421619D01*
X81865064Y-55201819D01*
X81926387Y-55168334D01*
X81952745Y-55165500D01*
X82817330Y-55165500D01*
X82817335Y-55165500D01*
X82915957Y-55155786D01*
X82963408Y-55146347D01*
X83058234Y-55117581D01*
X83139013Y-55084121D01*
X83183366Y-55065750D01*
X83270774Y-55019029D01*
X83311001Y-54992149D01*
X83387594Y-54929289D01*
X83461289Y-54855594D01*
X83524152Y-54778996D01*
X83551032Y-54738768D01*
X83597747Y-54651372D01*
X83649581Y-54526235D01*
X83678348Y-54431405D01*
X83687787Y-54383952D01*
X83697500Y-54285334D01*
X83697500Y-53934665D01*
X83687787Y-53836047D01*
X83678348Y-53788594D01*
X83672088Y-53767959D01*
X83651927Y-53701496D01*
X83651303Y-53631629D01*
X83688551Y-53572516D01*
X83751845Y-53542925D01*
X83770587Y-53541500D01*
X84428822Y-53541500D01*
X84441530Y-53538971D01*
X84448105Y-53537664D01*
X84517696Y-53543890D01*
G37*
%TD.AperFunction*%
%TD*%
%TA.AperFunction,Conductor*%
%TO.N,/Motor Driver/BRB*%
G36*
X87121787Y-53419438D02*
G01*
X87246925Y-53471272D01*
X87287152Y-53498152D01*
X88960847Y-55171847D01*
X88987727Y-55212075D01*
X89039561Y-55337212D01*
X89049000Y-55384665D01*
X89049000Y-56235334D01*
X89039561Y-56282787D01*
X88995432Y-56389324D01*
X88951591Y-56443727D01*
X88928324Y-56456432D01*
X88821788Y-56500561D01*
X88774335Y-56510000D01*
X88523665Y-56510000D01*
X88476212Y-56500561D01*
X88351075Y-56448727D01*
X88310847Y-56421847D01*
X86619711Y-54730711D01*
X86549000Y-54660000D01*
X86449002Y-54660000D01*
X85423665Y-54660000D01*
X85376212Y-54650561D01*
X85251075Y-54598727D01*
X85210847Y-54571847D01*
X85137152Y-54498152D01*
X85110272Y-54457923D01*
X85058439Y-54332786D01*
X85049000Y-54285334D01*
X85049000Y-53934665D01*
X85058439Y-53887213D01*
X85110272Y-53762076D01*
X85137149Y-53721850D01*
X85360850Y-53498149D01*
X85401074Y-53471272D01*
X85463644Y-53445355D01*
X85526213Y-53419439D01*
X85573665Y-53410000D01*
X87074335Y-53410000D01*
X87121787Y-53419438D01*
G37*
%TD.AperFunction*%
%TD*%
%TA.AperFunction,Conductor*%
%TO.N,/Motor Driver/BRA*%
G36*
X82714787Y-53419438D02*
G01*
X82839925Y-53471272D01*
X82880152Y-53498152D01*
X83103847Y-53721847D01*
X83130727Y-53762075D01*
X83182561Y-53887212D01*
X83192000Y-53934665D01*
X83192000Y-54285334D01*
X83182561Y-54332787D01*
X83130727Y-54457924D01*
X83103847Y-54498152D01*
X83030152Y-54571847D01*
X82989925Y-54598727D01*
X82945572Y-54617098D01*
X82864786Y-54650561D01*
X82817335Y-54660000D01*
X81692000Y-54660000D01*
X81621289Y-54730710D01*
X81621288Y-54730711D01*
X79930152Y-56421847D01*
X79889925Y-56448727D01*
X79871324Y-56456432D01*
X79764786Y-56500561D01*
X79717335Y-56510000D01*
X79466665Y-56510000D01*
X79419212Y-56500561D01*
X79312674Y-56456431D01*
X79258272Y-56412591D01*
X79245567Y-56389323D01*
X79201439Y-56282786D01*
X79192000Y-56235334D01*
X79192000Y-55384665D01*
X79201439Y-55337213D01*
X79253272Y-55212076D01*
X79280149Y-55171850D01*
X80953850Y-53498149D01*
X80994074Y-53471272D01*
X81056644Y-53445355D01*
X81119213Y-53419439D01*
X81166665Y-53410000D01*
X82667335Y-53410000D01*
X82714787Y-53419438D01*
G37*
%TD.AperFunction*%
%TD*%
D38*
X62150000Y-89400000D03*
X84592000Y-56310000D03*
X84562000Y-94611750D03*
X93242000Y-68710000D03*
X72562000Y-100611750D03*
X104192000Y-79960000D03*
X42562000Y-70611750D03*
X66562000Y-64611750D03*
X60092000Y-54260000D03*
X120562000Y-34611750D03*
X42562000Y-46611750D03*
X74342000Y-56310000D03*
X57192000Y-67110000D03*
X58742000Y-65910000D03*
X114942000Y-34060000D03*
X115742000Y-61060000D03*
X106292000Y-54910000D03*
X116242000Y-34060000D03*
X74992000Y-48660000D03*
X72562000Y-34611750D03*
X30562000Y-64611750D03*
X84392000Y-49110000D03*
X90562000Y-94611750D03*
X54562000Y-34611750D03*
X104742000Y-70960000D03*
X78562000Y-88611750D03*
X42562000Y-28611750D03*
X54562000Y-100611750D03*
X108392000Y-42310000D03*
X58692000Y-44810000D03*
X66562000Y-34611750D03*
X48562000Y-94611750D03*
X64142000Y-26460000D03*
X36562000Y-28611750D03*
X106942000Y-55710000D03*
X102562000Y-94611750D03*
X72562000Y-88611750D03*
X30562000Y-70611750D03*
X48562000Y-70611750D03*
X110042000Y-71960000D03*
X120562000Y-40611750D03*
X108642000Y-94710000D03*
X75292000Y-68460000D03*
X30562000Y-94611750D03*
X60092000Y-55810000D03*
X60562000Y-28611750D03*
X112892000Y-67010000D03*
X101892000Y-67010000D03*
X48562000Y-64611750D03*
X120562000Y-94611750D03*
X68642000Y-87560000D03*
X36562000Y-94611750D03*
X48562000Y-52611750D03*
X42562000Y-88611750D03*
X76142000Y-60610000D03*
X48562000Y-40611750D03*
X68292000Y-38510000D03*
X36562000Y-46611750D03*
X42562000Y-34611750D03*
X76142000Y-59060000D03*
X42562000Y-76611750D03*
X102562000Y-40611750D03*
X85092000Y-49160000D03*
X60562000Y-64611750D03*
X111142000Y-54310000D03*
X30562000Y-46611750D03*
X84592000Y-55510000D03*
X102562000Y-34611750D03*
X96562000Y-94611750D03*
X67192000Y-66410000D03*
X68442000Y-66360000D03*
X54562000Y-94611750D03*
X54562000Y-70611750D03*
X48562000Y-88611750D03*
X83592000Y-49660000D03*
X36562000Y-58611750D03*
X72592000Y-41110000D03*
X78562000Y-70611750D03*
X83642000Y-55510000D03*
X87542000Y-64260000D03*
X36562000Y-64611750D03*
X36562000Y-52611750D03*
X119492000Y-90110000D03*
X42562000Y-52611750D03*
X101942000Y-66160000D03*
X36562000Y-76611750D03*
X108562000Y-28611750D03*
X61992000Y-74310000D03*
X83992000Y-63860000D03*
X107742000Y-50260000D03*
X42562000Y-64611750D03*
X93742000Y-54860000D03*
X84042000Y-41960000D03*
X64142000Y-25560000D03*
X30562000Y-76611750D03*
X48562000Y-100611750D03*
X93742000Y-56160000D03*
X111142000Y-53210000D03*
X42562000Y-40611750D03*
X102562000Y-46611750D03*
X36562000Y-100611750D03*
X74092000Y-80910000D03*
X61192000Y-37860000D03*
X83642000Y-56310000D03*
X67792000Y-87560000D03*
X54562000Y-88611750D03*
X119292000Y-59910000D03*
X42562000Y-100611750D03*
X60562000Y-94611750D03*
X114442000Y-67060000D03*
X93742000Y-55510000D03*
X76292000Y-67360000D03*
X72562000Y-64611750D03*
X90562000Y-100611750D03*
X30562000Y-40611750D03*
X30562000Y-34611750D03*
X79542000Y-64160000D03*
X42562000Y-94611750D03*
X84562000Y-100611750D03*
X111042000Y-74860000D03*
X74292000Y-48660000D03*
X100392000Y-62110000D03*
X36562000Y-40611750D03*
X61192000Y-87810000D03*
X80792000Y-74960000D03*
X74342000Y-55660000D03*
X119492000Y-91660000D03*
X74342000Y-55010000D03*
X109042000Y-71960000D03*
X60562000Y-58611750D03*
X84562000Y-88611750D03*
X90562000Y-58611750D03*
X42562000Y-58611750D03*
X117542000Y-34060000D03*
X60562000Y-100611750D03*
X108562000Y-100611750D03*
X48562000Y-46611750D03*
X64392000Y-79310000D03*
X48562000Y-34611750D03*
X36562000Y-70611750D03*
X78562000Y-94611750D03*
X63992000Y-52510000D03*
X36562000Y-88611750D03*
X105692000Y-71010000D03*
X30562000Y-88611750D03*
X84892000Y-59760000D03*
X48562000Y-58611750D03*
X66562000Y-58611750D03*
X96562000Y-100611750D03*
X60292000Y-67160000D03*
X30562000Y-58611750D03*
X64842000Y-52860000D03*
X66562000Y-100611750D03*
X54562000Y-64611750D03*
X58692000Y-43810000D03*
X63992000Y-51360000D03*
X68292000Y-37610000D03*
X48562000Y-76611750D03*
X114562000Y-28611750D03*
X102562000Y-52611750D03*
X58692000Y-45860000D03*
X110192000Y-40510000D03*
X119342000Y-69460000D03*
X54562000Y-76611750D03*
X72562000Y-58611750D03*
X107742000Y-55710000D03*
X109774600Y-58647777D03*
X84042000Y-40310000D03*
X68292000Y-39460000D03*
X72562000Y-28611750D03*
X84792000Y-63860000D03*
X94442000Y-40160000D03*
X59442000Y-37710000D03*
X57042000Y-43860000D03*
X119692000Y-77710000D03*
X98292000Y-41360000D03*
X112392000Y-77710000D03*
X96242000Y-65460000D03*
X104242000Y-77760000D03*
X108001000Y-61060000D03*
X107696000Y-58256000D03*
X108783800Y-67860000D03*
X107342000Y-65360000D03*
X101692000Y-76110000D03*
X116992000Y-77060000D03*
X69942000Y-83160000D03*
X50742000Y-83210000D03*
X116759666Y-58560000D03*
X105592000Y-56860000D03*
X51592000Y-56760000D03*
X112692000Y-56410000D03*
X94692000Y-57260000D03*
X103292000Y-57260000D03*
X103992000Y-58510000D03*
X51817000Y-58035000D03*
X93692000Y-57810000D03*
X105492000Y-58360000D03*
X116064144Y-59243894D03*
X105093670Y-57512684D03*
X114942000Y-59810000D03*
X113542000Y-59810000D03*
X75592000Y-53610000D03*
X83692000Y-52610000D03*
X75592000Y-52910000D03*
X83142000Y-52210000D03*
X84342000Y-52660000D03*
X92942000Y-52260000D03*
X75592000Y-52260000D03*
X93642000Y-61660000D03*
X93242000Y-64410000D03*
X73342000Y-66360000D03*
X85142000Y-65310000D03*
X87192000Y-61210000D03*
X85742000Y-61210000D03*
X83342000Y-58660000D03*
X83342000Y-60610000D03*
X78742000Y-62560000D03*
X92292000Y-62760000D03*
X90942000Y-62210000D03*
X77342000Y-62310000D03*
X84942000Y-58272800D03*
X85808400Y-59110000D03*
X88792000Y-60060000D03*
X56042000Y-38860000D03*
X74642000Y-61660000D03*
X99942000Y-54310000D03*
X99942000Y-64410000D03*
X100242000Y-65160000D03*
X101292000Y-56460000D03*
X115342000Y-88010000D03*
X117142000Y-63960000D03*
X62442000Y-46360000D03*
X64694000Y-56608000D03*
X115765110Y-63017200D03*
X99142000Y-72610000D03*
X82792000Y-54260000D03*
X79642000Y-56060000D03*
X82542000Y-53760000D03*
X79642000Y-55410000D03*
X88599000Y-56060000D03*
X88599000Y-55410000D03*
X85699000Y-53760000D03*
X85449000Y-54260000D03*
X118742000Y-62210000D03*
X117192000Y-47010000D03*
X117742000Y-62510000D03*
X116142000Y-48060000D03*
X114792000Y-48460000D03*
X116892000Y-62560000D03*
X63042000Y-54910000D03*
X99742000Y-73210000D03*
X114892000Y-63160000D03*
X118942000Y-47360000D03*
X93442000Y-65460000D03*
X101042000Y-65160000D03*
X104192000Y-59610000D03*
X103642000Y-70310000D03*
X97442000Y-88310000D03*
D39*
X45390000Y-27802000D03*
X45390000Y-100022000D03*
X53390000Y-27802000D03*
X37390000Y-36002000D03*
X53390000Y-91202000D03*
D40*
X112962000Y-101635000D03*
D41*
X112962000Y-97455000D03*
D40*
X104322000Y-101635000D03*
D41*
X104322000Y-97455000D03*
D39*
X111532000Y-97955000D03*
X105752000Y-97955000D03*
D38*
X107366000Y-61880000D03*
X107366000Y-63155000D03*
X107366000Y-64430000D03*
X108641000Y-61880000D03*
X108641000Y-63155000D03*
X108641000Y-64430000D03*
X109916000Y-61880000D03*
X109916000Y-63155000D03*
X109916000Y-64430000D03*
D39*
X95804500Y-71285000D03*
X93304500Y-71285000D03*
X90804500Y-71285000D03*
X102034500Y-82515000D03*
X102034500Y-80015000D03*
X102034500Y-77515000D03*
X90054500Y-85765000D03*
X96554500Y-85765000D03*
X90054500Y-90265000D03*
X96554500Y-90265000D03*
X99629500Y-75015000D03*
X86979500Y-75015000D03*
X86979500Y-85015000D03*
X99629500Y-85015000D03*
X30742000Y-29010000D03*
D38*
X62311000Y-48330000D03*
X61361000Y-48330000D03*
X60411000Y-48330000D03*
X62311000Y-49330000D03*
X61361000Y-49330000D03*
X60411000Y-49330000D03*
D39*
X123622000Y-56716000D03*
X121082000Y-56716000D03*
X123622000Y-54176000D03*
X121082000Y-54176000D03*
X123622000Y-51636000D03*
X121082000Y-51636000D03*
X123622000Y-49096000D03*
X121082000Y-49096000D03*
X123622000Y-46556000D03*
X121082000Y-46556000D03*
X123622000Y-44016000D03*
X121082000Y-44016000D03*
X30742000Y-99010000D03*
X89019400Y-36699501D03*
X89019400Y-29699501D03*
X85519400Y-36699501D03*
X85519400Y-29699501D03*
X82019400Y-36699501D03*
X82019400Y-29699501D03*
X78519400Y-36699501D03*
X78519400Y-29699501D03*
X123617000Y-65535000D03*
X121077000Y-65535000D03*
X123617000Y-62995000D03*
X121077000Y-62995000D03*
X123617000Y-60455000D03*
X121077000Y-60455000D03*
X58594000Y-88347000D03*
X58594000Y-90887000D03*
X71303000Y-55784000D03*
X68763000Y-55784000D03*
X120742000Y-99010000D03*
X66542000Y-79185000D03*
X66542000Y-76645000D03*
X101617000Y-28685000D03*
X101617000Y-26145000D03*
X104157000Y-28685000D03*
X104157000Y-26145000D03*
X106697000Y-28685000D03*
X106697000Y-26145000D03*
X112446000Y-90577000D03*
X112446000Y-93117000D03*
X58598000Y-32167000D03*
X58598000Y-29627000D03*
X120742000Y-29010000D03*
X121072000Y-79810000D03*
X123612000Y-79810000D03*
X121072000Y-82350000D03*
X123612000Y-82350000D03*
X121072000Y-84890000D03*
X123612000Y-84890000D03*
X58593000Y-35972000D03*
X61133000Y-35972000D03*
M02*
