%TF.GenerationSoftware,KiCad,Pcbnew,9.0.0*%
%TF.CreationDate,2025-03-03T22:11:57+00:00*%
%TF.ProjectId,StepUp,53746570-5570-42e6-9b69-6361645f7063,v0.3*%
%TF.SameCoordinates,Original*%
%TF.FileFunction,Other,User*%
%FSLAX45Y45*%
G04 Gerber Fmt 4.5, Leading zero omitted, Abs format (unit mm)*
G04 Created by KiCad (PCBNEW 9.0.0) date 2025-03-03 22:11:57*
%MOMM*%
%LPD*%
G01*
G04 APERTURE LIST*
%ADD10C,0.050000*%
%ADD11C,0.100000*%
G04 APERTURE END LIST*
D10*
%TO.C,J3*%
X9972500Y-10625000D02*
X11092500Y-10625000D01*
X9972500Y-10985000D02*
X9972500Y-10625000D01*
X11092500Y-10625000D02*
X11092500Y-10985000D01*
X11092500Y-10985000D02*
X9972500Y-10985000D01*
D11*
%TO.C,LED2*%
X10385000Y-5147500D02*
X10385000Y-5927500D01*
X10385000Y-5927500D02*
X11165000Y-5927500D01*
X11165000Y-5147500D02*
X10385000Y-5147500D01*
X11165000Y-5927500D02*
X11165000Y-5147500D01*
D10*
%TO.C,J6*%
X9276500Y-12640000D02*
X9276500Y-13000000D01*
X9276500Y-13000000D02*
X10651500Y-13000000D01*
X10651500Y-12640000D02*
X9276500Y-12640000D01*
X10651500Y-13000000D02*
X10651500Y-12640000D01*
%TO.C,J4*%
X10090000Y-11249000D02*
X10090000Y-12114000D01*
X10090000Y-12114000D02*
X10705000Y-12114000D01*
X10705000Y-11249000D02*
X10090000Y-11249000D01*
X10705000Y-12114000D02*
X10705000Y-11249000D01*
%TO.C,J2*%
X10732500Y-11002000D02*
X11092500Y-11002000D01*
X10732500Y-12377000D02*
X10732500Y-11002000D01*
X11092500Y-11002000D02*
X11092500Y-12377000D01*
X11092500Y-12377000D02*
X10732500Y-12377000D01*
D11*
%TO.C,BT1*%
X5741300Y-5050000D02*
X5741300Y-6550000D01*
X5741300Y-6550000D02*
X7490300Y-6550000D01*
X7490300Y-5050000D02*
X5741300Y-5050000D01*
X7490300Y-6550000D02*
X7490300Y-5050000D01*
%TO.C,BT2*%
X5741300Y-10594000D02*
X7490300Y-10594000D01*
X5741300Y-12294000D02*
X5741300Y-10594000D01*
X7490300Y-10594000D02*
X7490300Y-12294000D01*
X7490300Y-12294000D02*
X5741300Y-12294000D01*
%TD*%
M02*
