%TF.GenerationSoftware,KiCad,Pcbnew,8.0.2*%
%TF.CreationDate,2024-05-30T20:06:03+01:00*%
%TF.ProjectId,StepUp,53746570-5570-42e6-9b69-6361645f7063,v0.1*%
%TF.SameCoordinates,Original*%
%TF.FileFunction,Copper,L3,Inr*%
%TF.FilePolarity,Positive*%
%FSLAX46Y46*%
G04 Gerber Fmt 4.6, Leading zero omitted, Abs format (unit mm)*
G04 Created by KiCad (PCBNEW 8.0.2) date 2024-05-30 20:06:03*
%MOMM*%
%LPD*%
G01*
G04 APERTURE LIST*
%TA.AperFunction,ComponentPad*%
%ADD10C,1.980000*%
%TD*%
%TA.AperFunction,ComponentPad*%
%ADD11O,1.000000X1.800000*%
%TD*%
%TA.AperFunction,ComponentPad*%
%ADD12O,1.000000X2.100000*%
%TD*%
%TA.AperFunction,ComponentPad*%
%ADD13C,0.600000*%
%TD*%
%TA.AperFunction,ComponentPad*%
%ADD14C,1.650000*%
%TD*%
%TA.AperFunction,ComponentPad*%
%ADD15C,1.950000*%
%TD*%
%TA.AperFunction,ComponentPad*%
%ADD16C,2.400000*%
%TD*%
%TA.AperFunction,ComponentPad*%
%ADD17C,5.600000*%
%TD*%
%TA.AperFunction,HeatsinkPad*%
%ADD18C,0.600000*%
%TD*%
%TA.AperFunction,ComponentPad*%
%ADD19R,1.700000X1.700000*%
%TD*%
%TA.AperFunction,ComponentPad*%
%ADD20O,1.700000X1.700000*%
%TD*%
%TA.AperFunction,ComponentPad*%
%ADD21R,1.800000X1.800000*%
%TD*%
%TA.AperFunction,ComponentPad*%
%ADD22C,1.800000*%
%TD*%
%TA.AperFunction,ViaPad*%
%ADD23C,0.610000*%
%TD*%
%ADD24C,0.300000*%
%ADD25C,0.350000*%
%ADD26O,0.600000X1.400000*%
%ADD27O,0.600000X1.700000*%
G04 APERTURE END LIST*
D10*
%TO.N,Net-(D14-K)*%
%TO.C,BT1*%
X45390000Y-27802000D03*
%TO.N,GND*%
X45390000Y-100022000D03*
%TD*%
D11*
%TO.N,GND*%
%TO.C,J1*%
X112962000Y-101635000D03*
D12*
X112962000Y-97455000D03*
D11*
X104322000Y-101635000D03*
D12*
X104322000Y-97455000D03*
%TD*%
D13*
%TO.N,GND*%
%TO.C,U3*%
X107366000Y-61880000D03*
X107366000Y-63155000D03*
X107366000Y-64430000D03*
X108641000Y-61880000D03*
X108641000Y-63155000D03*
X108641000Y-64430000D03*
X109916000Y-61880000D03*
X109916000Y-63155000D03*
X109916000Y-64430000D03*
%TD*%
D14*
%TO.N,+3V3*%
%TO.C,JOY1*%
X95804500Y-71285000D03*
%TO.N,/User Input/JOYSTICK_AXIS_H*%
X93304500Y-71285000D03*
%TO.N,GND*%
X90804500Y-71285000D03*
%TO.N,+3V3*%
X102034500Y-82515000D03*
%TO.N,/User Input/JOYSTICK_AXIS_V*%
X102034500Y-80015000D03*
%TO.N,GND*%
X102034500Y-77515000D03*
D15*
X90054500Y-85765000D03*
%TO.N,/User Input/JOYSTICK_BUTTON*%
X96554500Y-85765000D03*
%TO.N,GND*%
X90054500Y-90265000D03*
%TO.N,/User Input/JOYSTICK_BUTTON*%
X96554500Y-90265000D03*
D16*
%TO.N,unconnected-(JOY1-PadMH1)*%
X99629500Y-75015000D03*
%TO.N,unconnected-(JOY1-PadMH2)*%
X86979500Y-75015000D03*
%TO.N,unconnected-(JOY1-PadMH3)*%
X86979500Y-85015000D03*
%TO.N,unconnected-(JOY1-PadMH4)*%
X99629500Y-85015000D03*
%TD*%
D17*
%TO.N,N/C*%
%TO.C,H1*%
X30742000Y-29010000D03*
%TD*%
D18*
%TO.N,GND*%
%TO.C,U8*%
X62311000Y-48330000D03*
X61361000Y-48330000D03*
X60411000Y-48330000D03*
X62311000Y-49330000D03*
X61361000Y-49330000D03*
X60411000Y-49330000D03*
%TD*%
D19*
%TO.N,/MCU/GPIO8*%
%TO.C,J4*%
X123622000Y-56716000D03*
D20*
%TO.N,/MCU/GPIO10*%
X121082000Y-56716000D03*
%TO.N,/MCU/GPIO9*%
X123622000Y-54176000D03*
%TO.N,/MCU/GPIO11*%
X121082000Y-54176000D03*
%TO.N,GND*%
X123622000Y-51636000D03*
X121082000Y-51636000D03*
%TO.N,/MCU/GPIO14*%
X123622000Y-49096000D03*
%TO.N,/MCU/GPIO12*%
X121082000Y-49096000D03*
%TO.N,/MCU/GPIO15*%
X123622000Y-46556000D03*
%TO.N,/MCU/GPIO13*%
X121082000Y-46556000D03*
%TO.N,GND*%
X123622000Y-44016000D03*
X121082000Y-44016000D03*
%TD*%
D17*
%TO.N,N/C*%
%TO.C,H2*%
X30742000Y-99010000D03*
%TD*%
D21*
%TO.N,OB2_OUT*%
%TO.C,J5*%
X89019400Y-36699501D03*
X89019400Y-29699501D03*
D22*
%TO.N,OB1_OUT*%
X85519400Y-36699501D03*
X85519400Y-29699501D03*
%TO.N,OA1_OUT*%
X82019400Y-36699501D03*
X82019400Y-29699501D03*
%TO.N,OA2_OUT*%
X78519400Y-36699501D03*
X78519400Y-29699501D03*
%TD*%
D19*
%TO.N,/MCU/SWCLK*%
%TO.C,J3*%
X123617000Y-65535000D03*
D20*
%TO.N,/MCU/UART_0_TX*%
X121077000Y-65535000D03*
%TO.N,/MCU/SWD*%
X123617000Y-62995000D03*
%TO.N,/MCU/UART_0_RX*%
X121077000Y-62995000D03*
%TO.N,GND*%
X123617000Y-60455000D03*
X121077000Y-60455000D03*
%TD*%
D19*
%TO.N,Vbat*%
%TO.C,J8*%
X58594000Y-88347000D03*
D20*
%TO.N,Net-(J8-Pin_2)*%
X58594000Y-90887000D03*
%TD*%
D19*
%TO.N,VMotor*%
%TO.C,J9*%
X71303000Y-55784000D03*
D20*
%TO.N,BOOST_VOUT*%
X68763000Y-55784000D03*
%TD*%
D17*
%TO.N,N/C*%
%TO.C,H4*%
X120742000Y-99010000D03*
%TD*%
D19*
%TO.N,V_USB*%
%TO.C,J6*%
X66542000Y-79185000D03*
D20*
%TO.N,Net-(D11-A)*%
X66542000Y-76645000D03*
%TD*%
D19*
%TO.N,VMotor*%
%TO.C,J10*%
X101617000Y-28685000D03*
D20*
%TO.N,Vbat*%
X101617000Y-26145000D03*
%TO.N,+3V3*%
X104157000Y-28685000D03*
%TO.N,V_USB*%
X104157000Y-26145000D03*
%TO.N,GND*%
X106697000Y-28685000D03*
X106697000Y-26145000D03*
%TD*%
D19*
%TO.N,V_USB*%
%TO.C,J2*%
X112446000Y-90577000D03*
D20*
%TO.N,Net-(J2-Pin_2)*%
X112446000Y-93117000D03*
%TD*%
D19*
%TO.N,Vbat*%
%TO.C,J11*%
X58598000Y-32167000D03*
D20*
%TO.N,Net-(D14-K)*%
X58598000Y-29627000D03*
%TD*%
D17*
%TO.N,N/C*%
%TO.C,H3*%
X120742000Y-29010000D03*
%TD*%
D19*
%TO.N,Net-(J12-Pin_1)*%
%TO.C,J12*%
X121072000Y-79810000D03*
D20*
%TO.N,+3V3*%
X123612000Y-79810000D03*
%TO.N,Net-(J12-Pin_3)*%
X121072000Y-82350000D03*
%TO.N,GND*%
X123612000Y-82350000D03*
%TO.N,Net-(J12-Pin_5)*%
X121072000Y-84890000D03*
%TO.N,GND*%
X123612000Y-84890000D03*
%TD*%
D19*
%TO.N,Vbat*%
%TO.C,J7*%
X58593000Y-35972000D03*
D20*
%TO.N,BOOST_VIN*%
X61133000Y-35972000D03*
%TD*%
D23*
%TO.N,GND*%
X62150000Y-89400000D03*
X84592000Y-56310000D03*
X84562000Y-94611750D03*
X93242000Y-68710000D03*
X72562000Y-100611750D03*
X104192000Y-79960000D03*
X42562000Y-70611750D03*
X66562000Y-64611750D03*
X60092000Y-54260000D03*
X120562000Y-34611750D03*
X42562000Y-46611750D03*
X74342000Y-56310000D03*
X57192000Y-67110000D03*
X58742000Y-65910000D03*
X114942000Y-34060000D03*
X115742000Y-61060000D03*
X106292000Y-54910000D03*
X116242000Y-34060000D03*
X74992000Y-48660000D03*
X72562000Y-34611750D03*
X30562000Y-64611750D03*
X84392000Y-49110000D03*
X90562000Y-94611750D03*
X54562000Y-34611750D03*
X104742000Y-70960000D03*
X78562000Y-88611750D03*
X42562000Y-28611750D03*
X54562000Y-100611750D03*
X108392000Y-42310000D03*
X58692000Y-44810000D03*
X66562000Y-34611750D03*
X48562000Y-94611750D03*
X64142000Y-26460000D03*
X36562000Y-28611750D03*
X106942000Y-55710000D03*
X102562000Y-94611750D03*
X72562000Y-88611750D03*
X30562000Y-70611750D03*
X48562000Y-70611750D03*
X110042000Y-71960000D03*
X120562000Y-40611750D03*
X108642000Y-94710000D03*
X75292000Y-68460000D03*
X30562000Y-94611750D03*
X60092000Y-55810000D03*
X60562000Y-28611750D03*
X112892000Y-67010000D03*
X101892000Y-67010000D03*
X48562000Y-64611750D03*
X120562000Y-94611750D03*
X68642000Y-87560000D03*
X36562000Y-94611750D03*
X48562000Y-52611750D03*
X42562000Y-88611750D03*
X76142000Y-60610000D03*
X48562000Y-40611750D03*
X68292000Y-38510000D03*
X36562000Y-46611750D03*
X42562000Y-34611750D03*
X76142000Y-59060000D03*
X42562000Y-76611750D03*
X102562000Y-40611750D03*
X85092000Y-49160000D03*
X60562000Y-64611750D03*
X111142000Y-54310000D03*
X30562000Y-46611750D03*
X84592000Y-55510000D03*
X102562000Y-34611750D03*
X96562000Y-94611750D03*
X67192000Y-66410000D03*
X68442000Y-66360000D03*
X54562000Y-94611750D03*
X54562000Y-70611750D03*
X48562000Y-88611750D03*
X83592000Y-49660000D03*
X36562000Y-58611750D03*
X72592000Y-41110000D03*
X78562000Y-70611750D03*
X83642000Y-55510000D03*
X87542000Y-64260000D03*
X36562000Y-64611750D03*
X36562000Y-52611750D03*
X119492000Y-90110000D03*
X42562000Y-52611750D03*
X101942000Y-66160000D03*
X36562000Y-76611750D03*
X108562000Y-28611750D03*
X61992000Y-74310000D03*
X83992000Y-63860000D03*
X107742000Y-50260000D03*
X42562000Y-64611750D03*
X93742000Y-54860000D03*
X84042000Y-41960000D03*
X64142000Y-25560000D03*
X30562000Y-76611750D03*
X48562000Y-100611750D03*
X93742000Y-56160000D03*
X111142000Y-53210000D03*
X42562000Y-40611750D03*
X102562000Y-46611750D03*
X36562000Y-100611750D03*
X74092000Y-80910000D03*
X61192000Y-37860000D03*
X83642000Y-56310000D03*
X67792000Y-87560000D03*
X54562000Y-88611750D03*
X119292000Y-59910000D03*
X42562000Y-100611750D03*
X60562000Y-94611750D03*
X114442000Y-67060000D03*
X93742000Y-55510000D03*
X76292000Y-67360000D03*
X72562000Y-64611750D03*
X90562000Y-100611750D03*
X30562000Y-40611750D03*
X30562000Y-34611750D03*
X79542000Y-64160000D03*
X42562000Y-94611750D03*
X84562000Y-100611750D03*
X111042000Y-74860000D03*
X74292000Y-48660000D03*
X100392000Y-62110000D03*
X36562000Y-40611750D03*
X61192000Y-87810000D03*
X80792000Y-74960000D03*
X74342000Y-55660000D03*
X119492000Y-91660000D03*
X74342000Y-55010000D03*
X109042000Y-71960000D03*
X60562000Y-58611750D03*
X84562000Y-88611750D03*
X90562000Y-58611750D03*
X42562000Y-58611750D03*
X117542000Y-34060000D03*
X60562000Y-100611750D03*
X108562000Y-100611750D03*
X48562000Y-46611750D03*
X64392000Y-79310000D03*
X48562000Y-34611750D03*
X36562000Y-70611750D03*
X78562000Y-94611750D03*
X63992000Y-52510000D03*
X36562000Y-88611750D03*
X105692000Y-71010000D03*
X30562000Y-88611750D03*
X84892000Y-59760000D03*
X48562000Y-58611750D03*
X66562000Y-58611750D03*
X96562000Y-100611750D03*
X60292000Y-67160000D03*
X30562000Y-58611750D03*
X64842000Y-52860000D03*
X66562000Y-100611750D03*
X54562000Y-64611750D03*
X58692000Y-43810000D03*
X63992000Y-51360000D03*
X68292000Y-37610000D03*
X48562000Y-76611750D03*
X114562000Y-28611750D03*
X102562000Y-52611750D03*
X58692000Y-45860000D03*
X110192000Y-40510000D03*
X119342000Y-69460000D03*
X54562000Y-76611750D03*
X72562000Y-58611750D03*
X107742000Y-55710000D03*
X109774600Y-58647777D03*
X84042000Y-40310000D03*
X68292000Y-39460000D03*
X72562000Y-28611750D03*
X84792000Y-63860000D03*
X94442000Y-40160000D03*
%TO.N,/Power/BOOST_ENABLE*%
X59442000Y-37710000D03*
%TO.N,V_USB*%
X57042000Y-43860000D03*
%TO.N,+3V3*%
X119692000Y-77710000D03*
X98292000Y-41360000D03*
X112392000Y-77710000D03*
X96242000Y-65460000D03*
X104242000Y-77760000D03*
%TO.N,+1V1*%
X108001000Y-61060000D03*
X107696000Y-58256000D03*
X108783800Y-67860000D03*
X107342000Y-65360000D03*
%TO.N,/MCU/~{USB_BOOT}*%
X101692000Y-76110000D03*
X116992000Y-77060000D03*
X69942000Y-83160000D03*
X50742000Y-83210000D03*
%TO.N,/MCU/SWCLK*%
X116759666Y-58560000D03*
X105592000Y-56860000D03*
%TO.N,/MCU/GPIO13*%
X51592000Y-56760000D03*
X112692000Y-56410000D03*
X94692000Y-57260000D03*
X103292000Y-57260000D03*
%TO.N,/MCU/RUN*%
X103992000Y-58510000D03*
X51817000Y-58035000D03*
X93692000Y-57810000D03*
X105492000Y-58360000D03*
%TO.N,/MCU/SWD*%
X116064144Y-59243894D03*
X105093670Y-57512684D03*
%TO.N,/MCU/GPIO10*%
X114942000Y-59810000D03*
X113542000Y-59810000D03*
%TO.N,VMotor*%
X75592000Y-53610000D03*
X83692000Y-52610000D03*
X75592000Y-52910000D03*
X83142000Y-52210000D03*
X84342000Y-52660000D03*
X92942000Y-52260000D03*
X75592000Y-52260000D03*
%TO.N,~{TMC_STBDY}*%
X93642000Y-61660000D03*
X93242000Y-64410000D03*
X73342000Y-66360000D03*
X85142000Y-65310000D03*
%TO.N,TMC_EN*%
X87192000Y-61210000D03*
X85742000Y-61210000D03*
X83342000Y-58660000D03*
X83342000Y-60610000D03*
%TO.N,TMC_STEP*%
X78742000Y-62560000D03*
X92292000Y-62760000D03*
%TO.N,TMC_DIR*%
X90942000Y-62210000D03*
X77342000Y-62310000D03*
%TO.N,TMC_UART_RX*%
X84942000Y-58272800D03*
X85808400Y-59110000D03*
%TO.N,MCU_BOOST_EN*%
X88792000Y-60060000D03*
X56042000Y-38860000D03*
X74642000Y-61660000D03*
%TO.N,VBAT_MONITOR*%
X99942000Y-54310000D03*
X99942000Y-64410000D03*
%TO.N,VMOTOR_MONITOR*%
X100242000Y-65160000D03*
X101292000Y-56460000D03*
%TO.N,VUSB_MONITOR*%
X115342000Y-88010000D03*
X117142000Y-63960000D03*
%TO.N,Net-(U8-OVP)*%
X62442000Y-46360000D03*
X64694000Y-56608000D03*
%TO.N,/MCU/EEPROM_SCL*%
X115765110Y-63017200D03*
X99142000Y-72610000D03*
%TO.N,/Motor Driver/BRA*%
X82792000Y-54260000D03*
X79642000Y-56060000D03*
X82542000Y-53760000D03*
X79642000Y-55410000D03*
%TO.N,/Motor Driver/BRB*%
X88599000Y-56060000D03*
X88599000Y-55410000D03*
X85699000Y-53760000D03*
X85449000Y-54260000D03*
%TO.N,LED_RED*%
X118742000Y-62210000D03*
X117192000Y-47010000D03*
%TO.N,LED_GREEN*%
X117742000Y-62510000D03*
X116142000Y-48060000D03*
%TO.N,LED_BLUE*%
X114792000Y-48460000D03*
X116892000Y-62560000D03*
%TO.N,BOOST_VOUT*%
X63042000Y-54910000D03*
%TO.N,/MCU/EEPROM_SDA*%
X99742000Y-73210000D03*
X114892000Y-63160000D03*
%TO.N,/MCU/GPIO14*%
X118942000Y-47360000D03*
%TO.N,JOY_AXIS_MCU_H*%
X93442000Y-65460000D03*
%TO.N,JOY_AXIS_MCU_V*%
X101042000Y-65160000D03*
%TO.N,JOY_MCU_BTN*%
X104192000Y-59610000D03*
X103642000Y-70310000D03*
X97442000Y-88310000D03*
%TD*%
%TA.AperFunction,Conductor*%
%TO.N,GND*%
G36*
X120742642Y-23510007D02*
G01*
X120977302Y-23512565D01*
X120986734Y-23513029D01*
X121454846Y-23553984D01*
X121465567Y-23555396D01*
X121927664Y-23636875D01*
X121938192Y-23639209D01*
X122391458Y-23760661D01*
X122401747Y-23763906D01*
X122842688Y-23924395D01*
X122852654Y-23928523D01*
X123277926Y-24126830D01*
X123287512Y-24131821D01*
X123693866Y-24366429D01*
X123702985Y-24372238D01*
X124087353Y-24641376D01*
X124095935Y-24647962D01*
X124455370Y-24949564D01*
X124463345Y-24956872D01*
X124795127Y-25288654D01*
X124802435Y-25296629D01*
X125104037Y-25656064D01*
X125110623Y-25664646D01*
X125379761Y-26049014D01*
X125385573Y-26058138D01*
X125620176Y-26464483D01*
X125625171Y-26474078D01*
X125823470Y-26899331D01*
X125827610Y-26909326D01*
X125988089Y-27350239D01*
X125991342Y-27360555D01*
X126112786Y-27813790D01*
X126115127Y-27824352D01*
X126196603Y-28286432D01*
X126198015Y-28297156D01*
X126238969Y-28765252D01*
X126239434Y-28774708D01*
X126241993Y-29009357D01*
X126242000Y-29010709D01*
X126242000Y-99009290D01*
X126241993Y-99010642D01*
X126239434Y-99245291D01*
X126238969Y-99254747D01*
X126198015Y-99722843D01*
X126196603Y-99733567D01*
X126115127Y-100195647D01*
X126112786Y-100206209D01*
X125991342Y-100659444D01*
X125988089Y-100669760D01*
X125827610Y-101110673D01*
X125823470Y-101120668D01*
X125625171Y-101545921D01*
X125620176Y-101555516D01*
X125385573Y-101961861D01*
X125379761Y-101970985D01*
X125110623Y-102355353D01*
X125104037Y-102363935D01*
X124802435Y-102723370D01*
X124795127Y-102731345D01*
X124463345Y-103063127D01*
X124455370Y-103070435D01*
X124095935Y-103372037D01*
X124087353Y-103378623D01*
X123702985Y-103647761D01*
X123693861Y-103653573D01*
X123287516Y-103888176D01*
X123277921Y-103893171D01*
X122852668Y-104091470D01*
X122842673Y-104095610D01*
X122401760Y-104256089D01*
X122391444Y-104259342D01*
X121938209Y-104380786D01*
X121927647Y-104383127D01*
X121465567Y-104464603D01*
X121454843Y-104466015D01*
X120986747Y-104506969D01*
X120977291Y-104507434D01*
X120742642Y-104509993D01*
X120741290Y-104510000D01*
X30742710Y-104510000D01*
X30741358Y-104509993D01*
X30506708Y-104507434D01*
X30497252Y-104506969D01*
X30029156Y-104466015D01*
X30018432Y-104464603D01*
X29556352Y-104383127D01*
X29545790Y-104380786D01*
X29092555Y-104259342D01*
X29082239Y-104256089D01*
X28641326Y-104095610D01*
X28631331Y-104091470D01*
X28206078Y-103893171D01*
X28196483Y-103888176D01*
X27790138Y-103653573D01*
X27781014Y-103647761D01*
X27396646Y-103378623D01*
X27388064Y-103372037D01*
X27028629Y-103070435D01*
X27020654Y-103063127D01*
X26688872Y-102731345D01*
X26681564Y-102723370D01*
X26379962Y-102363935D01*
X26373376Y-102355353D01*
X26104238Y-101970985D01*
X26098426Y-101961861D01*
X26080215Y-101930319D01*
X25863821Y-101555512D01*
X25858828Y-101545921D01*
X25660523Y-101120654D01*
X25656395Y-101110688D01*
X25495906Y-100669747D01*
X25492661Y-100659458D01*
X25371209Y-100206192D01*
X25368875Y-100195664D01*
X25287396Y-99733567D01*
X25285984Y-99722843D01*
X25285785Y-99720565D01*
X25245029Y-99254734D01*
X25244565Y-99245291D01*
X25242007Y-99010642D01*
X25242004Y-99009997D01*
X27436652Y-99009997D01*
X27436652Y-99010002D01*
X27456028Y-99367368D01*
X27456029Y-99367385D01*
X27513926Y-99720539D01*
X27513932Y-99720565D01*
X27609672Y-100065392D01*
X27609674Y-100065399D01*
X27742142Y-100397870D01*
X27742151Y-100397888D01*
X27909784Y-100714077D01*
X27909790Y-100714086D01*
X28110634Y-101010309D01*
X28110641Y-101010319D01*
X28342331Y-101283085D01*
X28342332Y-101283086D01*
X28602163Y-101529211D01*
X28887081Y-101745800D01*
X29193747Y-101930315D01*
X29193749Y-101930316D01*
X29193751Y-101930317D01*
X29193755Y-101930319D01*
X29281654Y-101970985D01*
X29518565Y-102080591D01*
X29857726Y-102194868D01*
X30207254Y-102271805D01*
X30563052Y-102310500D01*
X30563058Y-102310500D01*
X30920942Y-102310500D01*
X30920948Y-102310500D01*
X31276746Y-102271805D01*
X31626274Y-102194868D01*
X31965435Y-102080591D01*
X32290253Y-101930315D01*
X32596919Y-101745800D01*
X32881837Y-101529211D01*
X33141668Y-101283086D01*
X33373365Y-101010311D01*
X33574211Y-100714085D01*
X33741853Y-100397880D01*
X33874324Y-100065403D01*
X33970071Y-99720552D01*
X34027972Y-99367371D01*
X34047348Y-99010000D01*
X34047348Y-99009997D01*
X117436652Y-99009997D01*
X117436652Y-99010002D01*
X117456028Y-99367368D01*
X117456029Y-99367385D01*
X117513926Y-99720539D01*
X117513932Y-99720565D01*
X117609672Y-100065392D01*
X117609674Y-100065399D01*
X117742142Y-100397870D01*
X117742151Y-100397888D01*
X117909784Y-100714077D01*
X117909790Y-100714086D01*
X118110634Y-101010309D01*
X118110641Y-101010319D01*
X118342331Y-101283085D01*
X118342332Y-101283086D01*
X118602163Y-101529211D01*
X118887081Y-101745800D01*
X119193747Y-101930315D01*
X119193749Y-101930316D01*
X119193751Y-101930317D01*
X119193755Y-101930319D01*
X119281654Y-101970985D01*
X119518565Y-102080591D01*
X119857726Y-102194868D01*
X120207254Y-102271805D01*
X120563052Y-102310500D01*
X120563058Y-102310500D01*
X120920942Y-102310500D01*
X120920948Y-102310500D01*
X121276746Y-102271805D01*
X121626274Y-102194868D01*
X121965435Y-102080591D01*
X122290253Y-101930315D01*
X122596919Y-101745800D01*
X122881837Y-101529211D01*
X123141668Y-101283086D01*
X123373365Y-101010311D01*
X123574211Y-100714085D01*
X123741853Y-100397880D01*
X123874324Y-100065403D01*
X123970071Y-99720552D01*
X124027972Y-99367371D01*
X124047348Y-99010000D01*
X124027972Y-98652629D01*
X124002131Y-98495008D01*
X123970073Y-98299460D01*
X123970072Y-98299459D01*
X123970071Y-98299448D01*
X123936540Y-98178678D01*
X123874327Y-97954607D01*
X123874325Y-97954600D01*
X123741857Y-97622129D01*
X123741848Y-97622111D01*
X123574215Y-97305922D01*
X123574213Y-97305919D01*
X123574211Y-97305915D01*
X123373365Y-97009689D01*
X123373361Y-97009684D01*
X123373358Y-97009680D01*
X123141668Y-96736914D01*
X122881837Y-96490789D01*
X122881830Y-96490783D01*
X122881827Y-96490781D01*
X122814245Y-96439407D01*
X122596919Y-96274200D01*
X122290253Y-96089685D01*
X122290252Y-96089684D01*
X122290248Y-96089682D01*
X122290244Y-96089680D01*
X121965447Y-95939414D01*
X121965441Y-95939411D01*
X121965435Y-95939409D01*
X121795854Y-95882270D01*
X121626273Y-95825131D01*
X121276744Y-95748194D01*
X120920949Y-95709500D01*
X120920948Y-95709500D01*
X120563052Y-95709500D01*
X120563050Y-95709500D01*
X120207255Y-95748194D01*
X119857726Y-95825131D01*
X119601970Y-95911306D01*
X119518565Y-95939409D01*
X119518563Y-95939410D01*
X119518552Y-95939414D01*
X119193755Y-96089680D01*
X119193751Y-96089682D01*
X118965367Y-96227096D01*
X118887081Y-96274200D01*
X118798768Y-96341333D01*
X118602172Y-96490781D01*
X118602163Y-96490789D01*
X118342331Y-96736914D01*
X118110641Y-97009680D01*
X118110634Y-97009690D01*
X117909790Y-97305913D01*
X117909784Y-97305922D01*
X117742151Y-97622111D01*
X117742142Y-97622129D01*
X117609674Y-97954600D01*
X117609672Y-97954607D01*
X117513932Y-98299434D01*
X117513926Y-98299460D01*
X117456029Y-98652614D01*
X117456028Y-98652631D01*
X117436652Y-99009997D01*
X34047348Y-99009997D01*
X34027972Y-98652629D01*
X34002131Y-98495008D01*
X33970073Y-98299460D01*
X33970072Y-98299459D01*
X33970071Y-98299448D01*
X33936540Y-98178678D01*
X33874327Y-97954607D01*
X33874325Y-97954600D01*
X33844087Y-97878707D01*
X105172500Y-97878707D01*
X105172500Y-98031293D01*
X105211992Y-98178678D01*
X105211993Y-98178681D01*
X105288282Y-98310817D01*
X105288284Y-98310819D01*
X105288285Y-98310821D01*
X105396179Y-98418715D01*
X105396180Y-98418716D01*
X105396182Y-98418717D01*
X105528318Y-98495006D01*
X105528319Y-98495006D01*
X105528322Y-98495008D01*
X105675707Y-98534500D01*
X105675710Y-98534500D01*
X105828290Y-98534500D01*
X105828293Y-98534500D01*
X105975678Y-98495008D01*
X106107821Y-98418715D01*
X106215715Y-98310821D01*
X106292008Y-98178678D01*
X106331500Y-98031293D01*
X106331500Y-97878707D01*
X110952500Y-97878707D01*
X110952500Y-98031293D01*
X110991992Y-98178678D01*
X110991993Y-98178681D01*
X111068282Y-98310817D01*
X111068284Y-98310819D01*
X111068285Y-98310821D01*
X111176179Y-98418715D01*
X111176180Y-98418716D01*
X111176182Y-98418717D01*
X111308318Y-98495006D01*
X111308319Y-98495006D01*
X111308322Y-98495008D01*
X111455707Y-98534500D01*
X111455710Y-98534500D01*
X111608290Y-98534500D01*
X111608293Y-98534500D01*
X111755678Y-98495008D01*
X111887821Y-98418715D01*
X111995715Y-98310821D01*
X112072008Y-98178678D01*
X112111500Y-98031293D01*
X112111500Y-97878707D01*
X112072008Y-97731322D01*
X111995715Y-97599179D01*
X111887821Y-97491285D01*
X111887819Y-97491284D01*
X111887817Y-97491282D01*
X111755681Y-97414993D01*
X111755682Y-97414993D01*
X111743595Y-97411754D01*
X111608293Y-97375500D01*
X111455707Y-97375500D01*
X111320404Y-97411754D01*
X111308318Y-97414993D01*
X111176182Y-97491282D01*
X111176176Y-97491287D01*
X111068287Y-97599176D01*
X111068282Y-97599182D01*
X110991993Y-97731318D01*
X110991992Y-97731322D01*
X110952500Y-97878707D01*
X106331500Y-97878707D01*
X106292008Y-97731322D01*
X106215715Y-97599179D01*
X106107821Y-97491285D01*
X106107819Y-97491284D01*
X106107817Y-97491282D01*
X105975681Y-97414993D01*
X105975682Y-97414993D01*
X105963595Y-97411754D01*
X105828293Y-97375500D01*
X105675707Y-97375500D01*
X105540404Y-97411754D01*
X105528318Y-97414993D01*
X105396182Y-97491282D01*
X105396176Y-97491287D01*
X105288287Y-97599176D01*
X105288282Y-97599182D01*
X105211993Y-97731318D01*
X105211992Y-97731322D01*
X105172500Y-97878707D01*
X33844087Y-97878707D01*
X33741857Y-97622129D01*
X33741848Y-97622111D01*
X33574215Y-97305922D01*
X33574213Y-97305919D01*
X33574211Y-97305915D01*
X33373365Y-97009689D01*
X33373361Y-97009684D01*
X33373358Y-97009680D01*
X33141668Y-96736914D01*
X32881837Y-96490789D01*
X32881830Y-96490783D01*
X32881827Y-96490781D01*
X32814245Y-96439407D01*
X32596919Y-96274200D01*
X32290253Y-96089685D01*
X32290252Y-96089684D01*
X32290248Y-96089682D01*
X32290244Y-96089680D01*
X31965447Y-95939414D01*
X31965441Y-95939411D01*
X31965435Y-95939409D01*
X31795854Y-95882270D01*
X31626273Y-95825131D01*
X31276744Y-95748194D01*
X30920949Y-95709500D01*
X30920948Y-95709500D01*
X30563052Y-95709500D01*
X30563050Y-95709500D01*
X30207255Y-95748194D01*
X29857726Y-95825131D01*
X29601970Y-95911306D01*
X29518565Y-95939409D01*
X29518563Y-95939410D01*
X29518552Y-95939414D01*
X29193755Y-96089680D01*
X29193751Y-96089682D01*
X28965367Y-96227096D01*
X28887081Y-96274200D01*
X28798768Y-96341333D01*
X28602172Y-96490781D01*
X28602163Y-96490789D01*
X28342331Y-96736914D01*
X28110641Y-97009680D01*
X28110634Y-97009690D01*
X27909790Y-97305913D01*
X27909784Y-97305922D01*
X27742151Y-97622111D01*
X27742142Y-97622129D01*
X27609674Y-97954600D01*
X27609672Y-97954607D01*
X27513932Y-98299434D01*
X27513926Y-98299460D01*
X27456029Y-98652614D01*
X27456028Y-98652631D01*
X27436652Y-99009997D01*
X25242004Y-99009997D01*
X25242000Y-99009290D01*
X25242000Y-91068986D01*
X51360500Y-91068986D01*
X51360500Y-91335013D01*
X51360501Y-91335030D01*
X51395223Y-91598774D01*
X51395224Y-91598779D01*
X51395225Y-91598785D01*
X51464081Y-91855761D01*
X51497618Y-91936725D01*
X51565888Y-92101544D01*
X51565892Y-92101554D01*
X51698910Y-92331948D01*
X51860865Y-92543012D01*
X51860871Y-92543019D01*
X52048980Y-92731128D01*
X52048987Y-92731134D01*
X52260051Y-92893089D01*
X52490445Y-93026107D01*
X52490446Y-93026107D01*
X52490449Y-93026109D01*
X52736239Y-93127919D01*
X52993215Y-93196775D01*
X53256980Y-93231500D01*
X53256987Y-93231500D01*
X53523013Y-93231500D01*
X53523020Y-93231500D01*
X53786785Y-93196775D01*
X54043761Y-93127919D01*
X54070124Y-93116999D01*
X111090341Y-93116999D01*
X111090341Y-93117000D01*
X111110936Y-93352403D01*
X111110938Y-93352413D01*
X111172094Y-93580655D01*
X111172096Y-93580659D01*
X111172097Y-93580663D01*
X111271965Y-93794830D01*
X111271967Y-93794834D01*
X111380281Y-93949521D01*
X111407505Y-93988401D01*
X111574599Y-94155495D01*
X111671384Y-94223265D01*
X111768165Y-94291032D01*
X111768167Y-94291033D01*
X111768170Y-94291035D01*
X111982337Y-94390903D01*
X112210592Y-94452063D01*
X112398918Y-94468539D01*
X112445999Y-94472659D01*
X112446000Y-94472659D01*
X112446001Y-94472659D01*
X112485234Y-94469226D01*
X112681408Y-94452063D01*
X112909663Y-94390903D01*
X113123830Y-94291035D01*
X113317401Y-94155495D01*
X113484495Y-93988401D01*
X113620035Y-93794830D01*
X113719903Y-93580663D01*
X113781063Y-93352408D01*
X113801659Y-93117000D01*
X113781063Y-92881592D01*
X113719903Y-92653337D01*
X113620035Y-92439171D01*
X113484495Y-92245599D01*
X113362567Y-92123671D01*
X113329084Y-92062351D01*
X113334068Y-91992659D01*
X113375939Y-91936725D01*
X113406915Y-91919810D01*
X113538331Y-91870796D01*
X113653546Y-91784546D01*
X113739796Y-91669331D01*
X113790091Y-91534483D01*
X113796500Y-91474873D01*
X113796499Y-89679128D01*
X113790091Y-89619517D01*
X113765858Y-89554546D01*
X113739797Y-89484671D01*
X113739793Y-89484664D01*
X113653547Y-89369455D01*
X113653544Y-89369452D01*
X113538335Y-89283206D01*
X113538328Y-89283202D01*
X113403482Y-89232908D01*
X113403483Y-89232908D01*
X113343883Y-89226501D01*
X113343881Y-89226500D01*
X113343873Y-89226500D01*
X113343864Y-89226500D01*
X111548129Y-89226500D01*
X111548123Y-89226501D01*
X111488516Y-89232908D01*
X111353671Y-89283202D01*
X111353664Y-89283206D01*
X111238455Y-89369452D01*
X111238452Y-89369455D01*
X111152206Y-89484664D01*
X111152202Y-89484671D01*
X111101908Y-89619517D01*
X111095501Y-89679116D01*
X111095501Y-89679123D01*
X111095500Y-89679135D01*
X111095500Y-91474870D01*
X111095501Y-91474876D01*
X111101908Y-91534483D01*
X111152202Y-91669328D01*
X111152206Y-91669335D01*
X111238452Y-91784544D01*
X111238455Y-91784547D01*
X111353664Y-91870793D01*
X111353671Y-91870797D01*
X111485081Y-91919810D01*
X111541015Y-91961681D01*
X111565432Y-92027145D01*
X111550580Y-92095418D01*
X111529430Y-92123673D01*
X111407503Y-92245600D01*
X111271965Y-92439169D01*
X111271964Y-92439171D01*
X111172098Y-92653335D01*
X111172094Y-92653344D01*
X111110938Y-92881586D01*
X111110936Y-92881596D01*
X111090341Y-93116999D01*
X54070124Y-93116999D01*
X54289551Y-93026109D01*
X54519949Y-92893089D01*
X54731014Y-92731133D01*
X54919133Y-92543014D01*
X55081089Y-92331949D01*
X55214109Y-92101551D01*
X55315919Y-91855761D01*
X55384775Y-91598785D01*
X55419500Y-91335020D01*
X55419500Y-91068980D01*
X55395542Y-90886999D01*
X57238341Y-90886999D01*
X57238341Y-90887000D01*
X57258936Y-91122403D01*
X57258938Y-91122413D01*
X57320094Y-91350655D01*
X57320096Y-91350659D01*
X57320097Y-91350663D01*
X57405814Y-91534483D01*
X57419965Y-91564830D01*
X57419967Y-91564834D01*
X57528281Y-91719521D01*
X57555505Y-91758401D01*
X57722599Y-91925495D01*
X57747549Y-91942965D01*
X57916165Y-92061032D01*
X57916167Y-92061033D01*
X57916170Y-92061035D01*
X58130337Y-92160903D01*
X58358592Y-92222063D01*
X58546918Y-92238539D01*
X58593999Y-92242659D01*
X58594000Y-92242659D01*
X58594001Y-92242659D01*
X58633234Y-92239226D01*
X58829408Y-92222063D01*
X59057663Y-92160903D01*
X59271830Y-92061035D01*
X59465401Y-91925495D01*
X59632495Y-91758401D01*
X59768035Y-91564830D01*
X59867903Y-91350663D01*
X59929063Y-91122408D01*
X59949659Y-90887000D01*
X59929063Y-90651592D01*
X59867903Y-90423337D01*
X59794066Y-90264994D01*
X95073943Y-90264994D01*
X95073943Y-90265005D01*
X95094134Y-90508683D01*
X95094136Y-90508695D01*
X95154163Y-90745734D01*
X95252388Y-90969666D01*
X95386132Y-91174378D01*
X95534008Y-91335013D01*
X95551746Y-91354281D01*
X95744712Y-91504473D01*
X95959767Y-91620855D01*
X95959770Y-91620856D01*
X96191041Y-91700251D01*
X96191043Y-91700251D01*
X96191045Y-91700252D01*
X96432237Y-91740500D01*
X96432238Y-91740500D01*
X96676762Y-91740500D01*
X96676763Y-91740500D01*
X96917955Y-91700252D01*
X97149233Y-91620855D01*
X97364288Y-91504473D01*
X97557254Y-91354281D01*
X97722868Y-91174377D01*
X97856611Y-90969667D01*
X97954836Y-90745736D01*
X98014864Y-90508692D01*
X98021937Y-90423335D01*
X98035057Y-90265005D01*
X98035057Y-90264994D01*
X98014865Y-90021316D01*
X98014863Y-90021304D01*
X98011944Y-90009778D01*
X97954836Y-89784264D01*
X97856611Y-89560333D01*
X97807174Y-89484664D01*
X97722870Y-89355625D01*
X97648309Y-89274631D01*
X97617387Y-89211977D01*
X97625247Y-89142550D01*
X97669394Y-89088395D01*
X97698582Y-89073607D01*
X97761981Y-89051423D01*
X97793703Y-89040324D01*
X97817249Y-89025529D01*
X97947399Y-88943750D01*
X98075750Y-88815399D01*
X98172323Y-88661705D01*
X98232274Y-88490375D01*
X98232275Y-88490369D01*
X98252597Y-88310003D01*
X98252597Y-88309996D01*
X98232275Y-88129630D01*
X98232274Y-88129625D01*
X98190414Y-88009996D01*
X114531403Y-88009996D01*
X114531403Y-88010003D01*
X114551724Y-88190369D01*
X114551725Y-88190374D01*
X114611677Y-88361706D01*
X114708249Y-88515398D01*
X114836601Y-88643750D01*
X114917088Y-88694324D01*
X114990295Y-88740323D01*
X115124202Y-88787179D01*
X115161625Y-88800274D01*
X115161630Y-88800275D01*
X115341996Y-88820597D01*
X115342000Y-88820597D01*
X115342004Y-88820597D01*
X115522369Y-88800275D01*
X115522372Y-88800274D01*
X115522375Y-88800274D01*
X115693705Y-88740323D01*
X115847399Y-88643750D01*
X115975750Y-88515399D01*
X116072323Y-88361705D01*
X116132274Y-88190375D01*
X116132275Y-88190369D01*
X116152597Y-88010003D01*
X116152597Y-88009996D01*
X116132275Y-87829630D01*
X116132274Y-87829625D01*
X116123518Y-87804601D01*
X116072323Y-87658295D01*
X115985252Y-87519724D01*
X115975750Y-87504601D01*
X115847398Y-87376249D01*
X115693706Y-87279677D01*
X115522374Y-87219725D01*
X115522369Y-87219724D01*
X115342004Y-87199403D01*
X115341996Y-87199403D01*
X115161630Y-87219724D01*
X115161625Y-87219725D01*
X114990293Y-87279677D01*
X114836601Y-87376249D01*
X114708249Y-87504601D01*
X114611677Y-87658293D01*
X114551725Y-87829625D01*
X114551724Y-87829630D01*
X114531403Y-88009996D01*
X98190414Y-88009996D01*
X98172322Y-87958293D01*
X98075750Y-87804601D01*
X97947398Y-87676249D01*
X97793706Y-87579677D01*
X97622374Y-87519725D01*
X97622369Y-87519724D01*
X97442004Y-87499403D01*
X97441996Y-87499403D01*
X97261630Y-87519724D01*
X97261625Y-87519725D01*
X97090293Y-87579677D01*
X96936601Y-87676249D01*
X96808249Y-87804601D01*
X96711677Y-87958293D01*
X96651725Y-88129625D01*
X96651724Y-88129630D01*
X96631403Y-88309996D01*
X96631403Y-88310003D01*
X96651724Y-88490369D01*
X96651725Y-88490374D01*
X96698674Y-88624545D01*
X96702235Y-88694324D01*
X96667506Y-88754952D01*
X96605513Y-88787179D01*
X96581632Y-88789500D01*
X96432237Y-88789500D01*
X96383998Y-88797549D01*
X96191041Y-88829748D01*
X95959770Y-88909143D01*
X95959765Y-88909145D01*
X95744712Y-89025526D01*
X95744708Y-89025529D01*
X95551752Y-89175713D01*
X95551742Y-89175722D01*
X95386132Y-89355621D01*
X95252388Y-89560333D01*
X95154163Y-89784265D01*
X95094136Y-90021304D01*
X95094134Y-90021316D01*
X95073943Y-90264994D01*
X59794066Y-90264994D01*
X59768035Y-90209171D01*
X59636492Y-90021308D01*
X59632496Y-90015600D01*
X59632495Y-90015599D01*
X59510567Y-89893671D01*
X59477084Y-89832351D01*
X59482068Y-89762659D01*
X59523939Y-89706725D01*
X59554915Y-89689810D01*
X59686331Y-89640796D01*
X59801546Y-89554546D01*
X59887796Y-89439331D01*
X59938091Y-89304483D01*
X59944500Y-89244873D01*
X59944499Y-87449128D01*
X59938091Y-87389517D01*
X59933142Y-87376249D01*
X59887797Y-87254671D01*
X59887793Y-87254664D01*
X59801547Y-87139455D01*
X59801544Y-87139452D01*
X59686335Y-87053206D01*
X59686328Y-87053202D01*
X59551482Y-87002908D01*
X59551483Y-87002908D01*
X59491883Y-86996501D01*
X59491881Y-86996500D01*
X59491873Y-86996500D01*
X59491864Y-86996500D01*
X57696129Y-86996500D01*
X57696123Y-86996501D01*
X57636516Y-87002908D01*
X57501671Y-87053202D01*
X57501664Y-87053206D01*
X57386455Y-87139452D01*
X57386452Y-87139455D01*
X57300206Y-87254664D01*
X57300202Y-87254671D01*
X57249908Y-87389517D01*
X57243501Y-87449116D01*
X57243501Y-87449123D01*
X57243500Y-87449135D01*
X57243500Y-89244870D01*
X57243501Y-89244876D01*
X57249908Y-89304483D01*
X57300202Y-89439328D01*
X57300206Y-89439335D01*
X57386452Y-89554544D01*
X57386455Y-89554547D01*
X57501664Y-89640793D01*
X57501671Y-89640797D01*
X57633081Y-89689810D01*
X57689015Y-89731681D01*
X57713432Y-89797145D01*
X57698580Y-89865418D01*
X57677430Y-89893673D01*
X57555503Y-90015600D01*
X57419965Y-90209169D01*
X57419964Y-90209171D01*
X57320098Y-90423335D01*
X57320094Y-90423344D01*
X57258938Y-90651586D01*
X57258936Y-90651596D01*
X57238341Y-90886999D01*
X55395542Y-90886999D01*
X55384775Y-90805215D01*
X55315919Y-90548239D01*
X55214109Y-90302449D01*
X55192484Y-90264994D01*
X55081089Y-90072051D01*
X54919134Y-89860987D01*
X54919128Y-89860980D01*
X54731019Y-89672871D01*
X54731012Y-89672865D01*
X54519948Y-89510910D01*
X54289554Y-89377892D01*
X54289544Y-89377888D01*
X54112329Y-89304483D01*
X54043761Y-89276081D01*
X54043759Y-89276080D01*
X54043758Y-89276080D01*
X53967414Y-89255624D01*
X53786785Y-89207225D01*
X53786779Y-89207224D01*
X53786774Y-89207223D01*
X53523030Y-89172501D01*
X53523025Y-89172500D01*
X53523020Y-89172500D01*
X53256980Y-89172500D01*
X53256974Y-89172500D01*
X53256969Y-89172501D01*
X52993225Y-89207223D01*
X52993218Y-89207224D01*
X52993215Y-89207225D01*
X52921279Y-89226500D01*
X52736241Y-89276080D01*
X52490455Y-89377888D01*
X52490445Y-89377892D01*
X52260051Y-89510910D01*
X52048987Y-89672865D01*
X52048980Y-89672871D01*
X51860871Y-89860980D01*
X51860865Y-89860987D01*
X51698910Y-90072051D01*
X51565892Y-90302445D01*
X51565888Y-90302455D01*
X51464080Y-90548241D01*
X51395226Y-90805212D01*
X51395223Y-90805225D01*
X51360501Y-91068969D01*
X51360500Y-91068986D01*
X25242000Y-91068986D01*
X25242000Y-85014995D01*
X85274232Y-85014995D01*
X85274232Y-85015004D01*
X85293277Y-85269154D01*
X85293278Y-85269157D01*
X85349992Y-85517637D01*
X85443107Y-85754888D01*
X85570541Y-85975612D01*
X85729450Y-86174877D01*
X85916283Y-86348232D01*
X86126866Y-86491805D01*
X86126871Y-86491807D01*
X86126872Y-86491808D01*
X86126873Y-86491809D01*
X86248828Y-86550538D01*
X86356492Y-86602387D01*
X86356493Y-86602387D01*
X86356496Y-86602389D01*
X86600042Y-86677513D01*
X86852065Y-86715500D01*
X87106935Y-86715500D01*
X87358958Y-86677513D01*
X87602504Y-86602389D01*
X87832134Y-86491805D01*
X88042717Y-86348232D01*
X88229550Y-86174877D01*
X88388459Y-85975612D01*
X88510058Y-85764994D01*
X95073943Y-85764994D01*
X95073943Y-85765005D01*
X95094134Y-86008683D01*
X95094136Y-86008695D01*
X95154163Y-86245734D01*
X95252388Y-86469666D01*
X95386132Y-86674378D01*
X95551742Y-86854277D01*
X95551752Y-86854286D01*
X95744708Y-87004470D01*
X95744712Y-87004473D01*
X95959767Y-87120855D01*
X95959770Y-87120856D01*
X96191041Y-87200251D01*
X96191043Y-87200251D01*
X96191045Y-87200252D01*
X96432237Y-87240500D01*
X96432238Y-87240500D01*
X96676762Y-87240500D01*
X96676763Y-87240500D01*
X96917955Y-87200252D01*
X97149233Y-87120855D01*
X97364288Y-87004473D01*
X97557254Y-86854281D01*
X97722868Y-86674377D01*
X97856611Y-86469667D01*
X97954836Y-86245736D01*
X98009447Y-86030081D01*
X98044987Y-85969926D01*
X98107407Y-85938534D01*
X98176890Y-85945872D01*
X98226598Y-85983207D01*
X98379450Y-86174877D01*
X98566283Y-86348232D01*
X98776866Y-86491805D01*
X98776871Y-86491807D01*
X98776872Y-86491808D01*
X98776873Y-86491809D01*
X98898828Y-86550538D01*
X99006492Y-86602387D01*
X99006493Y-86602387D01*
X99006496Y-86602389D01*
X99250042Y-86677513D01*
X99502065Y-86715500D01*
X99756935Y-86715500D01*
X100008958Y-86677513D01*
X100252504Y-86602389D01*
X100482134Y-86491805D01*
X100692717Y-86348232D01*
X100879550Y-86174877D01*
X101038459Y-85975612D01*
X101165893Y-85754888D01*
X101259008Y-85517637D01*
X101315722Y-85269157D01*
X101334768Y-85015000D01*
X101322824Y-84855621D01*
X101315722Y-84760845D01*
X101296293Y-84675722D01*
X101259008Y-84512363D01*
X101165893Y-84275112D01*
X101038459Y-84054388D01*
X100879550Y-83855123D01*
X100692717Y-83681768D01*
X100482134Y-83538195D01*
X100482130Y-83538193D01*
X100482127Y-83538191D01*
X100482126Y-83538190D01*
X100252506Y-83427612D01*
X100252508Y-83427612D01*
X100008966Y-83352489D01*
X100008962Y-83352488D01*
X100008958Y-83352487D01*
X99887731Y-83334214D01*
X99756940Y-83314500D01*
X99756935Y-83314500D01*
X99502065Y-83314500D01*
X99502059Y-83314500D01*
X99345109Y-83338157D01*
X99250042Y-83352487D01*
X99250039Y-83352488D01*
X99250033Y-83352489D01*
X99006492Y-83427612D01*
X98776873Y-83538190D01*
X98776872Y-83538191D01*
X98566282Y-83681768D01*
X98379452Y-83855121D01*
X98379450Y-83855123D01*
X98220541Y-84054388D01*
X98093108Y-84275109D01*
X97999992Y-84512362D01*
X97999990Y-84512369D01*
X97943277Y-84760844D01*
X97941467Y-84784994D01*
X97916826Y-84850375D01*
X97860750Y-84892054D01*
X97791042Y-84896800D01*
X97729833Y-84863106D01*
X97726466Y-84859281D01*
X97726342Y-84859396D01*
X97557257Y-84675722D01*
X97557247Y-84675713D01*
X97364291Y-84525529D01*
X97364287Y-84525526D01*
X97149234Y-84409145D01*
X97149229Y-84409143D01*
X96917958Y-84329748D01*
X96737061Y-84299562D01*
X96676763Y-84289500D01*
X96432237Y-84289500D01*
X96383998Y-84297549D01*
X96191041Y-84329748D01*
X95959770Y-84409143D01*
X95959765Y-84409145D01*
X95744712Y-84525526D01*
X95744708Y-84525529D01*
X95551752Y-84675713D01*
X95551742Y-84675722D01*
X95386132Y-84855621D01*
X95252388Y-85060333D01*
X95154163Y-85284265D01*
X95094136Y-85521304D01*
X95094134Y-85521316D01*
X95073943Y-85764994D01*
X88510058Y-85764994D01*
X88515893Y-85754888D01*
X88609008Y-85517637D01*
X88665722Y-85269157D01*
X88684768Y-85015000D01*
X88672824Y-84855621D01*
X88665722Y-84760845D01*
X88646293Y-84675722D01*
X88609008Y-84512363D01*
X88515893Y-84275112D01*
X88388459Y-84054388D01*
X88229550Y-83855123D01*
X88042717Y-83681768D01*
X87832134Y-83538195D01*
X87832130Y-83538193D01*
X87832127Y-83538191D01*
X87832126Y-83538190D01*
X87602506Y-83427612D01*
X87602508Y-83427612D01*
X87358966Y-83352489D01*
X87358962Y-83352488D01*
X87358958Y-83352487D01*
X87237731Y-83334214D01*
X87106940Y-83314500D01*
X87106935Y-83314500D01*
X86852065Y-83314500D01*
X86852059Y-83314500D01*
X86695109Y-83338157D01*
X86600042Y-83352487D01*
X86600039Y-83352488D01*
X86600033Y-83352489D01*
X86356492Y-83427612D01*
X86126873Y-83538190D01*
X86126872Y-83538191D01*
X85916282Y-83681768D01*
X85729452Y-83855121D01*
X85729450Y-83855123D01*
X85570541Y-84054388D01*
X85443108Y-84275109D01*
X85349992Y-84512362D01*
X85349990Y-84512369D01*
X85293277Y-84760845D01*
X85274232Y-85014995D01*
X25242000Y-85014995D01*
X25242000Y-83209996D01*
X49931403Y-83209996D01*
X49931403Y-83210003D01*
X49951724Y-83390369D01*
X49951725Y-83390374D01*
X50011677Y-83561706D01*
X50108249Y-83715398D01*
X50236601Y-83843750D01*
X50248944Y-83851506D01*
X50390295Y-83940323D01*
X50476813Y-83970597D01*
X50561625Y-84000274D01*
X50561630Y-84000275D01*
X50741996Y-84020597D01*
X50742000Y-84020597D01*
X50742004Y-84020597D01*
X50922369Y-84000275D01*
X50922372Y-84000274D01*
X50922375Y-84000274D01*
X51093705Y-83940323D01*
X51247399Y-83843750D01*
X51375750Y-83715399D01*
X51472323Y-83561705D01*
X51532274Y-83390375D01*
X51532275Y-83390369D01*
X51552597Y-83210003D01*
X51552597Y-83209996D01*
X51546963Y-83159996D01*
X69131403Y-83159996D01*
X69131403Y-83160003D01*
X69151724Y-83340369D01*
X69151725Y-83340374D01*
X69211677Y-83511706D01*
X69308249Y-83665398D01*
X69436601Y-83793750D01*
X69534271Y-83855121D01*
X69590295Y-83890323D01*
X69733184Y-83940322D01*
X69761625Y-83950274D01*
X69761630Y-83950275D01*
X69941996Y-83970597D01*
X69942000Y-83970597D01*
X69942004Y-83970597D01*
X70122369Y-83950275D01*
X70122372Y-83950274D01*
X70122375Y-83950274D01*
X70293705Y-83890323D01*
X70447399Y-83793750D01*
X70575750Y-83665399D01*
X70672323Y-83511705D01*
X70732274Y-83340375D01*
X70732275Y-83340369D01*
X70752597Y-83160003D01*
X70752597Y-83159996D01*
X70732275Y-82979630D01*
X70732274Y-82979625D01*
X70689818Y-82858293D01*
X70672323Y-82808295D01*
X70575750Y-82654601D01*
X70447399Y-82526250D01*
X70447398Y-82526249D01*
X70293706Y-82429677D01*
X70122374Y-82369725D01*
X70122369Y-82369724D01*
X69942004Y-82349403D01*
X69941996Y-82349403D01*
X69761630Y-82369724D01*
X69761625Y-82369725D01*
X69590293Y-82429677D01*
X69436601Y-82526249D01*
X69308249Y-82654601D01*
X69211677Y-82808293D01*
X69151725Y-82979625D01*
X69151724Y-82979630D01*
X69131403Y-83159996D01*
X51546963Y-83159996D01*
X51532275Y-83029630D01*
X51532274Y-83029625D01*
X51472322Y-82858293D01*
X51375750Y-82704601D01*
X51247398Y-82576249D01*
X51093706Y-82479677D01*
X50922374Y-82419725D01*
X50922369Y-82419724D01*
X50742004Y-82399403D01*
X50741996Y-82399403D01*
X50561630Y-82419724D01*
X50561625Y-82419725D01*
X50390293Y-82479677D01*
X50236601Y-82576249D01*
X50108249Y-82704601D01*
X50011677Y-82858293D01*
X49951725Y-83029625D01*
X49951724Y-83029630D01*
X49931403Y-83209996D01*
X25242000Y-83209996D01*
X25242000Y-76644999D01*
X65186341Y-76644999D01*
X65186341Y-76645000D01*
X65206936Y-76880403D01*
X65206938Y-76880413D01*
X65268094Y-77108655D01*
X65268096Y-77108659D01*
X65268097Y-77108663D01*
X65336149Y-77254601D01*
X65367965Y-77322830D01*
X65367967Y-77322834D01*
X65476281Y-77477521D01*
X65503501Y-77516396D01*
X65503506Y-77516402D01*
X65625430Y-77638326D01*
X65658915Y-77699649D01*
X65653931Y-77769341D01*
X65612059Y-77825274D01*
X65581083Y-77842189D01*
X65449669Y-77891203D01*
X65449664Y-77891206D01*
X65334455Y-77977452D01*
X65334452Y-77977455D01*
X65248206Y-78092664D01*
X65248202Y-78092671D01*
X65197908Y-78227517D01*
X65193836Y-78265398D01*
X65191501Y-78287123D01*
X65191500Y-78287135D01*
X65191500Y-80082870D01*
X65191501Y-80082876D01*
X65197908Y-80142483D01*
X65248202Y-80277328D01*
X65248206Y-80277335D01*
X65334452Y-80392544D01*
X65334455Y-80392547D01*
X65449664Y-80478793D01*
X65449671Y-80478797D01*
X65584517Y-80529091D01*
X65584516Y-80529091D01*
X65591444Y-80529835D01*
X65644127Y-80535500D01*
X67439872Y-80535499D01*
X67499483Y-80529091D01*
X67634331Y-80478796D01*
X67749546Y-80392546D01*
X67835796Y-80277331D01*
X67886091Y-80142483D01*
X67892500Y-80082873D01*
X67892500Y-80014998D01*
X100703937Y-80014998D01*
X100703937Y-80015001D01*
X100724150Y-80246044D01*
X100724151Y-80246051D01*
X100784178Y-80470074D01*
X100784179Y-80470076D01*
X100784180Y-80470079D01*
X100882199Y-80680282D01*
X101015230Y-80870269D01*
X101179231Y-81034270D01*
X101359505Y-81160500D01*
X101363683Y-81163425D01*
X101407308Y-81218002D01*
X101414500Y-81287501D01*
X101382978Y-81349855D01*
X101363683Y-81366575D01*
X101179231Y-81495730D01*
X101179229Y-81495731D01*
X101015231Y-81659729D01*
X101015226Y-81659735D01*
X100882201Y-81849714D01*
X100882199Y-81849718D01*
X100784181Y-82059917D01*
X100724151Y-82283948D01*
X100724150Y-82283955D01*
X100703937Y-82514998D01*
X100703937Y-82515001D01*
X100724150Y-82746044D01*
X100724151Y-82746051D01*
X100784178Y-82970074D01*
X100784179Y-82970076D01*
X100784180Y-82970079D01*
X100882199Y-83180282D01*
X101015230Y-83370269D01*
X101179231Y-83534270D01*
X101369218Y-83667301D01*
X101579421Y-83765320D01*
X101803450Y-83825349D01*
X101968485Y-83839787D01*
X102034498Y-83845563D01*
X102034500Y-83845563D01*
X102034502Y-83845563D01*
X102092262Y-83840509D01*
X102265550Y-83825349D01*
X102489579Y-83765320D01*
X102699782Y-83667301D01*
X102889769Y-83534270D01*
X103053770Y-83370269D01*
X103186801Y-83180282D01*
X103284820Y-82970079D01*
X103344849Y-82746050D01*
X103365063Y-82515000D01*
X103344849Y-82283950D01*
X103284820Y-82059921D01*
X103186801Y-81849719D01*
X103186799Y-81849716D01*
X103186798Y-81849714D01*
X103053773Y-81659735D01*
X103053768Y-81659729D01*
X102889769Y-81495730D01*
X102865305Y-81478600D01*
X102705314Y-81366572D01*
X102661692Y-81311998D01*
X102654499Y-81242499D01*
X102686021Y-81180145D01*
X102705309Y-81163430D01*
X102889769Y-81034270D01*
X103053770Y-80870269D01*
X103186801Y-80680282D01*
X103284820Y-80470079D01*
X103344849Y-80246050D01*
X103365063Y-80015000D01*
X103344849Y-79783950D01*
X103284820Y-79559921D01*
X103186801Y-79349719D01*
X103186799Y-79349716D01*
X103186798Y-79349714D01*
X103053773Y-79159735D01*
X103053768Y-79159729D01*
X102889769Y-78995730D01*
X102889763Y-78995726D01*
X102699782Y-78862699D01*
X102489579Y-78764680D01*
X102489576Y-78764679D01*
X102489574Y-78764678D01*
X102265551Y-78704651D01*
X102265544Y-78704650D01*
X102034502Y-78684437D01*
X102034498Y-78684437D01*
X101803455Y-78704650D01*
X101803448Y-78704651D01*
X101579417Y-78764681D01*
X101369218Y-78862699D01*
X101369214Y-78862701D01*
X101179235Y-78995726D01*
X101179229Y-78995731D01*
X101015231Y-79159729D01*
X101015226Y-79159735D01*
X100882201Y-79349714D01*
X100882199Y-79349718D01*
X100784181Y-79559917D01*
X100724151Y-79783948D01*
X100724150Y-79783955D01*
X100703937Y-80014998D01*
X67892500Y-80014998D01*
X67892499Y-78287128D01*
X67886091Y-78227517D01*
X67881571Y-78215399D01*
X67835797Y-78092671D01*
X67835793Y-78092664D01*
X67749547Y-77977455D01*
X67749544Y-77977452D01*
X67634335Y-77891206D01*
X67634328Y-77891202D01*
X67502917Y-77842189D01*
X67446983Y-77800318D01*
X67431944Y-77759996D01*
X103431403Y-77759996D01*
X103431403Y-77760003D01*
X103451724Y-77940369D01*
X103451725Y-77940374D01*
X103511677Y-78111706D01*
X103608249Y-78265398D01*
X103736601Y-78393750D01*
X103851440Y-78465909D01*
X103890295Y-78490323D01*
X104054303Y-78547712D01*
X104061625Y-78550274D01*
X104061630Y-78550275D01*
X104241996Y-78570597D01*
X104242000Y-78570597D01*
X104242004Y-78570597D01*
X104422369Y-78550275D01*
X104422372Y-78550274D01*
X104422375Y-78550274D01*
X104593705Y-78490323D01*
X104747399Y-78393750D01*
X104875750Y-78265399D01*
X104972323Y-78111705D01*
X105032274Y-77940375D01*
X105037814Y-77891204D01*
X105052597Y-77760003D01*
X105052597Y-77759996D01*
X105046963Y-77709996D01*
X111581403Y-77709996D01*
X111581403Y-77710003D01*
X111601724Y-77890369D01*
X111601725Y-77890374D01*
X111661677Y-78061706D01*
X111758249Y-78215398D01*
X111886601Y-78343750D01*
X112039486Y-78439815D01*
X112040295Y-78440323D01*
X112139216Y-78474937D01*
X112211625Y-78500274D01*
X112211630Y-78500275D01*
X112391996Y-78520597D01*
X112392000Y-78520597D01*
X112392004Y-78520597D01*
X112572369Y-78500275D01*
X112572372Y-78500274D01*
X112572375Y-78500274D01*
X112743705Y-78440323D01*
X112897399Y-78343750D01*
X113025750Y-78215399D01*
X113122323Y-78061705D01*
X113182274Y-77890375D01*
X113182275Y-77890369D01*
X113202597Y-77710003D01*
X113202597Y-77709996D01*
X113182275Y-77529630D01*
X113182274Y-77529625D01*
X113122322Y-77358293D01*
X113025750Y-77204601D01*
X112897398Y-77076249D01*
X112871532Y-77059996D01*
X116181403Y-77059996D01*
X116181403Y-77060003D01*
X116201724Y-77240369D01*
X116201725Y-77240374D01*
X116261677Y-77411706D01*
X116358249Y-77565398D01*
X116486601Y-77693750D01*
X116606902Y-77769341D01*
X116640295Y-77790323D01*
X116811625Y-77850274D01*
X116811630Y-77850275D01*
X116991996Y-77870597D01*
X116992000Y-77870597D01*
X116992004Y-77870597D01*
X117172369Y-77850275D01*
X117172372Y-77850274D01*
X117172375Y-77850274D01*
X117343705Y-77790323D01*
X117471544Y-77709996D01*
X118881403Y-77709996D01*
X118881403Y-77710003D01*
X118901724Y-77890369D01*
X118901725Y-77890374D01*
X118961677Y-78061706D01*
X119058249Y-78215398D01*
X119186601Y-78343750D01*
X119339486Y-78439815D01*
X119340295Y-78440323D01*
X119439216Y-78474937D01*
X119511625Y-78500274D01*
X119511629Y-78500275D01*
X119609791Y-78511334D01*
X119692000Y-78520597D01*
X119692002Y-78520596D01*
X119692439Y-78520646D01*
X119756853Y-78547712D01*
X119796408Y-78605306D01*
X119798547Y-78675143D01*
X119781949Y-78709610D01*
X119782454Y-78709886D01*
X119778202Y-78717671D01*
X119727908Y-78852517D01*
X119721501Y-78912116D01*
X119721500Y-78912135D01*
X119721500Y-80707870D01*
X119721501Y-80707876D01*
X119727908Y-80767483D01*
X119778202Y-80902328D01*
X119778206Y-80902335D01*
X119864452Y-81017544D01*
X119864455Y-81017547D01*
X119979664Y-81103793D01*
X119979671Y-81103797D01*
X120111081Y-81152810D01*
X120167015Y-81194681D01*
X120191432Y-81260145D01*
X120176580Y-81328418D01*
X120155430Y-81356673D01*
X120033503Y-81478600D01*
X119897965Y-81672169D01*
X119897964Y-81672171D01*
X119798098Y-81886335D01*
X119798094Y-81886344D01*
X119736938Y-82114586D01*
X119736936Y-82114596D01*
X119716341Y-82349999D01*
X119716341Y-82350000D01*
X119736936Y-82585403D01*
X119736938Y-82585413D01*
X119798094Y-82813655D01*
X119798096Y-82813659D01*
X119798097Y-82813663D01*
X119871033Y-82970074D01*
X119897965Y-83027830D01*
X119897967Y-83027834D01*
X120033501Y-83221395D01*
X120033506Y-83221402D01*
X120200597Y-83388493D01*
X120200603Y-83388498D01*
X120386158Y-83518425D01*
X120429783Y-83573002D01*
X120436977Y-83642500D01*
X120405454Y-83704855D01*
X120386158Y-83721575D01*
X120200597Y-83851505D01*
X120033505Y-84018597D01*
X119897965Y-84212169D01*
X119897964Y-84212171D01*
X119798098Y-84426335D01*
X119798094Y-84426344D01*
X119736938Y-84654586D01*
X119736936Y-84654596D01*
X119716341Y-84889999D01*
X119716341Y-84890000D01*
X119736936Y-85125403D01*
X119736938Y-85125413D01*
X119798094Y-85353655D01*
X119798096Y-85353659D01*
X119798097Y-85353663D01*
X119874556Y-85517630D01*
X119897965Y-85567830D01*
X119897967Y-85567834D01*
X120006281Y-85722521D01*
X120033505Y-85761401D01*
X120200599Y-85928495D01*
X120225416Y-85945872D01*
X120394165Y-86064032D01*
X120394167Y-86064033D01*
X120394170Y-86064035D01*
X120608337Y-86163903D01*
X120836592Y-86225063D01*
X121024918Y-86241539D01*
X121071999Y-86245659D01*
X121072000Y-86245659D01*
X121072001Y-86245659D01*
X121111234Y-86242226D01*
X121307408Y-86225063D01*
X121535663Y-86163903D01*
X121749830Y-86064035D01*
X121943401Y-85928495D01*
X122110495Y-85761401D01*
X122246035Y-85567830D01*
X122345903Y-85353663D01*
X122407063Y-85125408D01*
X122427659Y-84890000D01*
X122407063Y-84654592D01*
X122345903Y-84426337D01*
X122246035Y-84212171D01*
X122110495Y-84018599D01*
X122110494Y-84018597D01*
X121943402Y-83851506D01*
X121943396Y-83851501D01*
X121757842Y-83721575D01*
X121714217Y-83666998D01*
X121707023Y-83597500D01*
X121738546Y-83535145D01*
X121757842Y-83518425D01*
X121887536Y-83427612D01*
X121943401Y-83388495D01*
X122110495Y-83221401D01*
X122246035Y-83027830D01*
X122345903Y-82813663D01*
X122407063Y-82585408D01*
X122427659Y-82350000D01*
X122407063Y-82114592D01*
X122345903Y-81886337D01*
X122246035Y-81672171D01*
X122237327Y-81659735D01*
X122110496Y-81478600D01*
X122110495Y-81478599D01*
X121988567Y-81356671D01*
X121955084Y-81295351D01*
X121960068Y-81225659D01*
X122001939Y-81169725D01*
X122032915Y-81152810D01*
X122164331Y-81103796D01*
X122279546Y-81017546D01*
X122365796Y-80902331D01*
X122414810Y-80770916D01*
X122456681Y-80714984D01*
X122522145Y-80690566D01*
X122590418Y-80705417D01*
X122618673Y-80726569D01*
X122740599Y-80848495D01*
X122837384Y-80916265D01*
X122934165Y-80984032D01*
X122934167Y-80984033D01*
X122934170Y-80984035D01*
X123148337Y-81083903D01*
X123376592Y-81145063D01*
X123553034Y-81160500D01*
X123611999Y-81165659D01*
X123612000Y-81165659D01*
X123612001Y-81165659D01*
X123670966Y-81160500D01*
X123847408Y-81145063D01*
X124075663Y-81083903D01*
X124289830Y-80984035D01*
X124483401Y-80848495D01*
X124650495Y-80681401D01*
X124786035Y-80487830D01*
X124885903Y-80273663D01*
X124947063Y-80045408D01*
X124967659Y-79810000D01*
X124947063Y-79574592D01*
X124885903Y-79346337D01*
X124786035Y-79132171D01*
X124690499Y-78995730D01*
X124650494Y-78938597D01*
X124483402Y-78771506D01*
X124483395Y-78771501D01*
X124289834Y-78635967D01*
X124289830Y-78635965D01*
X124289828Y-78635964D01*
X124075663Y-78536097D01*
X124075659Y-78536096D01*
X124075655Y-78536094D01*
X123847413Y-78474938D01*
X123847403Y-78474936D01*
X123612001Y-78454341D01*
X123611999Y-78454341D01*
X123376596Y-78474936D01*
X123376586Y-78474938D01*
X123148344Y-78536094D01*
X123148335Y-78536098D01*
X122934171Y-78635964D01*
X122934169Y-78635965D01*
X122740600Y-78771503D01*
X122618673Y-78893430D01*
X122557350Y-78926914D01*
X122487658Y-78921930D01*
X122431725Y-78880058D01*
X122414810Y-78849081D01*
X122365797Y-78717671D01*
X122365793Y-78717664D01*
X122279547Y-78602455D01*
X122279544Y-78602452D01*
X122164335Y-78516206D01*
X122164328Y-78516202D01*
X122029482Y-78465908D01*
X122029483Y-78465908D01*
X121969883Y-78459501D01*
X121969881Y-78459500D01*
X121969873Y-78459500D01*
X121969865Y-78459500D01*
X120381010Y-78459500D01*
X120313971Y-78439815D01*
X120268216Y-78387011D01*
X120258272Y-78317853D01*
X120287297Y-78254297D01*
X120293316Y-78247832D01*
X120325750Y-78215399D01*
X120422323Y-78061705D01*
X120482274Y-77890375D01*
X120482275Y-77890369D01*
X120502597Y-77710003D01*
X120502597Y-77709996D01*
X120482275Y-77529630D01*
X120482274Y-77529625D01*
X120422322Y-77358293D01*
X120325750Y-77204601D01*
X120197398Y-77076249D01*
X120043706Y-76979677D01*
X119872374Y-76919725D01*
X119872369Y-76919724D01*
X119692004Y-76899403D01*
X119691996Y-76899403D01*
X119511630Y-76919724D01*
X119511625Y-76919725D01*
X119340293Y-76979677D01*
X119186601Y-77076249D01*
X119058249Y-77204601D01*
X118961677Y-77358293D01*
X118901725Y-77529625D01*
X118901724Y-77529630D01*
X118881403Y-77709996D01*
X117471544Y-77709996D01*
X117497399Y-77693750D01*
X117625750Y-77565399D01*
X117722323Y-77411705D01*
X117782274Y-77240375D01*
X117800766Y-77076250D01*
X117802597Y-77060003D01*
X117802597Y-77059996D01*
X117782275Y-76879630D01*
X117782274Y-76879625D01*
X117722322Y-76708293D01*
X117625750Y-76554601D01*
X117497398Y-76426249D01*
X117343706Y-76329677D01*
X117172374Y-76269725D01*
X117172369Y-76269724D01*
X116992004Y-76249403D01*
X116991996Y-76249403D01*
X116811630Y-76269724D01*
X116811625Y-76269725D01*
X116640293Y-76329677D01*
X116486601Y-76426249D01*
X116358249Y-76554601D01*
X116261677Y-76708293D01*
X116201725Y-76879625D01*
X116201724Y-76879630D01*
X116181403Y-77059996D01*
X112871532Y-77059996D01*
X112743706Y-76979677D01*
X112572374Y-76919725D01*
X112572369Y-76919724D01*
X112392004Y-76899403D01*
X112391996Y-76899403D01*
X112211630Y-76919724D01*
X112211625Y-76919725D01*
X112040293Y-76979677D01*
X111886601Y-77076249D01*
X111758249Y-77204601D01*
X111661677Y-77358293D01*
X111601725Y-77529625D01*
X111601724Y-77529630D01*
X111581403Y-77709996D01*
X105046963Y-77709996D01*
X105032275Y-77579630D01*
X105032274Y-77579625D01*
X105010149Y-77516395D01*
X104972323Y-77408295D01*
X104940904Y-77358293D01*
X104875750Y-77254601D01*
X104747398Y-77126249D01*
X104593706Y-77029677D01*
X104422374Y-76969725D01*
X104422369Y-76969724D01*
X104242004Y-76949403D01*
X104241996Y-76949403D01*
X104061630Y-76969724D01*
X104061625Y-76969725D01*
X103890293Y-77029677D01*
X103736601Y-77126249D01*
X103608249Y-77254601D01*
X103511677Y-77408293D01*
X103451725Y-77579625D01*
X103451724Y-77579630D01*
X103431403Y-77759996D01*
X67431944Y-77759996D01*
X67422566Y-77734853D01*
X67437418Y-77666580D01*
X67458563Y-77638332D01*
X67580495Y-77516401D01*
X67716035Y-77322830D01*
X67815903Y-77108663D01*
X67877063Y-76880408D01*
X67897659Y-76645000D01*
X67877063Y-76409592D01*
X67815903Y-76181337D01*
X67716035Y-75967171D01*
X67689746Y-75929625D01*
X67580494Y-75773597D01*
X67413402Y-75606506D01*
X67413395Y-75606501D01*
X67219834Y-75470967D01*
X67219830Y-75470965D01*
X67102399Y-75416206D01*
X67005663Y-75371097D01*
X67005659Y-75371096D01*
X67005655Y-75371094D01*
X66777413Y-75309938D01*
X66777403Y-75309936D01*
X66542001Y-75289341D01*
X66541999Y-75289341D01*
X66306596Y-75309936D01*
X66306586Y-75309938D01*
X66078344Y-75371094D01*
X66078335Y-75371098D01*
X65864171Y-75470964D01*
X65864169Y-75470965D01*
X65670597Y-75606505D01*
X65503505Y-75773597D01*
X65367965Y-75967169D01*
X65367964Y-75967171D01*
X65268098Y-76181335D01*
X65268094Y-76181344D01*
X65206938Y-76409586D01*
X65206936Y-76409596D01*
X65186341Y-76644999D01*
X25242000Y-76644999D01*
X25242000Y-75014995D01*
X85274232Y-75014995D01*
X85274232Y-75015004D01*
X85293277Y-75269154D01*
X85340545Y-75476250D01*
X85349992Y-75517637D01*
X85384870Y-75606505D01*
X85443108Y-75754890D01*
X85453910Y-75773599D01*
X85570541Y-75975612D01*
X85729450Y-76174877D01*
X85916283Y-76348232D01*
X86126866Y-76491805D01*
X86126871Y-76491807D01*
X86126872Y-76491808D01*
X86126873Y-76491809D01*
X86248828Y-76550538D01*
X86356492Y-76602387D01*
X86356493Y-76602387D01*
X86356496Y-76602389D01*
X86600042Y-76677513D01*
X86852065Y-76715500D01*
X87106935Y-76715500D01*
X87358958Y-76677513D01*
X87602504Y-76602389D01*
X87832134Y-76491805D01*
X88042717Y-76348232D01*
X88229550Y-76174877D01*
X88388459Y-75975612D01*
X88515893Y-75754888D01*
X88609008Y-75517637D01*
X88665722Y-75269157D01*
X88684768Y-75015000D01*
X88684768Y-75014995D01*
X97924232Y-75014995D01*
X97924232Y-75015004D01*
X97943277Y-75269154D01*
X97990545Y-75476250D01*
X97999992Y-75517637D01*
X98034870Y-75606505D01*
X98093108Y-75754890D01*
X98103910Y-75773599D01*
X98220541Y-75975612D01*
X98379450Y-76174877D01*
X98566283Y-76348232D01*
X98776866Y-76491805D01*
X98776871Y-76491807D01*
X98776872Y-76491808D01*
X98776873Y-76491809D01*
X98898828Y-76550538D01*
X99006492Y-76602387D01*
X99006493Y-76602387D01*
X99006496Y-76602389D01*
X99250042Y-76677513D01*
X99502065Y-76715500D01*
X99756935Y-76715500D01*
X100008958Y-76677513D01*
X100252504Y-76602389D01*
X100482134Y-76491805D01*
X100692717Y-76348232D01*
X100726952Y-76316466D01*
X100789481Y-76285299D01*
X100858937Y-76292885D01*
X100913266Y-76336818D01*
X100928333Y-76366412D01*
X100961676Y-76461704D01*
X101020048Y-76554601D01*
X101058250Y-76615399D01*
X101186601Y-76743750D01*
X101340295Y-76840323D01*
X101454866Y-76880413D01*
X101511625Y-76900274D01*
X101511630Y-76900275D01*
X101691996Y-76920597D01*
X101692000Y-76920597D01*
X101692004Y-76920597D01*
X101872369Y-76900275D01*
X101872372Y-76900274D01*
X101872375Y-76900274D01*
X102043705Y-76840323D01*
X102197399Y-76743750D01*
X102325750Y-76615399D01*
X102422323Y-76461705D01*
X102482274Y-76290375D01*
X102484601Y-76269724D01*
X102502597Y-76110003D01*
X102502597Y-76109996D01*
X102482275Y-75929630D01*
X102482274Y-75929625D01*
X102422322Y-75758293D01*
X102325750Y-75604601D01*
X102197398Y-75476249D01*
X102043706Y-75379677D01*
X101872374Y-75319725D01*
X101872369Y-75319724D01*
X101692004Y-75299403D01*
X101691996Y-75299403D01*
X101511630Y-75319724D01*
X101511623Y-75319726D01*
X101485313Y-75328932D01*
X101415534Y-75332492D01*
X101354907Y-75297761D01*
X101322682Y-75235767D01*
X101320708Y-75202623D01*
X101334768Y-75015004D01*
X101334768Y-75014995D01*
X101315722Y-74760845D01*
X101259009Y-74512369D01*
X101259008Y-74512363D01*
X101165893Y-74275112D01*
X101038459Y-74054388D01*
X100879550Y-73855123D01*
X100692717Y-73681768D01*
X100559467Y-73590919D01*
X100515167Y-73536893D01*
X100507108Y-73467490D01*
X100512277Y-73447520D01*
X100532274Y-73390375D01*
X100548794Y-73243755D01*
X100552597Y-73210003D01*
X100552597Y-73209996D01*
X100532275Y-73029630D01*
X100532274Y-73029625D01*
X100472322Y-72858293D01*
X100375750Y-72704601D01*
X100247398Y-72576249D01*
X100093703Y-72479676D01*
X99986070Y-72442013D01*
X99929295Y-72401291D01*
X99909987Y-72365933D01*
X99872323Y-72258295D01*
X99775750Y-72104601D01*
X99647399Y-71976250D01*
X99647398Y-71976249D01*
X99493706Y-71879677D01*
X99322374Y-71819725D01*
X99322369Y-71819724D01*
X99142004Y-71799403D01*
X99141996Y-71799403D01*
X98961630Y-71819724D01*
X98961625Y-71819725D01*
X98790293Y-71879677D01*
X98636601Y-71976249D01*
X98508249Y-72104601D01*
X98411677Y-72258293D01*
X98351725Y-72429625D01*
X98351724Y-72429630D01*
X98331403Y-72609996D01*
X98331403Y-72610003D01*
X98351724Y-72790369D01*
X98351725Y-72790374D01*
X98411677Y-72961706D01*
X98508249Y-73115398D01*
X98636602Y-73243751D01*
X98636607Y-73243755D01*
X98773978Y-73330072D01*
X98820269Y-73382406D01*
X98830917Y-73451460D01*
X98802542Y-73515308D01*
X98777858Y-73537519D01*
X98566282Y-73681768D01*
X98379452Y-73855121D01*
X98379450Y-73855123D01*
X98220541Y-74054388D01*
X98093108Y-74275109D01*
X97999992Y-74512362D01*
X97999990Y-74512369D01*
X97943277Y-74760845D01*
X97924232Y-75014995D01*
X88684768Y-75014995D01*
X88665722Y-74760843D01*
X88609008Y-74512363D01*
X88515893Y-74275112D01*
X88388459Y-74054388D01*
X88229550Y-73855123D01*
X88042717Y-73681768D01*
X87832134Y-73538195D01*
X87832130Y-73538193D01*
X87832127Y-73538191D01*
X87832126Y-73538190D01*
X87602506Y-73427612D01*
X87602508Y-73427612D01*
X87358966Y-73352489D01*
X87358962Y-73352488D01*
X87358958Y-73352487D01*
X87237731Y-73334214D01*
X87106940Y-73314500D01*
X87106935Y-73314500D01*
X86852065Y-73314500D01*
X86852059Y-73314500D01*
X86695109Y-73338157D01*
X86600042Y-73352487D01*
X86600039Y-73352488D01*
X86600033Y-73352489D01*
X86356492Y-73427612D01*
X86126873Y-73538190D01*
X86126872Y-73538191D01*
X85916282Y-73681768D01*
X85729452Y-73855121D01*
X85729450Y-73855123D01*
X85570541Y-74054388D01*
X85443108Y-74275109D01*
X85349992Y-74512362D01*
X85349990Y-74512369D01*
X85293277Y-74760845D01*
X85274232Y-75014995D01*
X25242000Y-75014995D01*
X25242000Y-71284998D01*
X91973937Y-71284998D01*
X91973937Y-71285001D01*
X91994150Y-71516044D01*
X91994151Y-71516051D01*
X92054178Y-71740074D01*
X92054179Y-71740076D01*
X92054180Y-71740079D01*
X92152199Y-71950282D01*
X92285230Y-72140269D01*
X92449231Y-72304270D01*
X92639218Y-72437301D01*
X92849421Y-72535320D01*
X93073450Y-72595349D01*
X93238485Y-72609787D01*
X93304498Y-72615563D01*
X93304500Y-72615563D01*
X93304502Y-72615563D01*
X93368132Y-72609996D01*
X93535550Y-72595349D01*
X93759579Y-72535320D01*
X93969782Y-72437301D01*
X94159769Y-72304270D01*
X94323770Y-72140269D01*
X94452927Y-71955814D01*
X94507502Y-71912192D01*
X94577001Y-71904999D01*
X94639355Y-71936521D01*
X94656069Y-71955809D01*
X94785230Y-72140269D01*
X94949231Y-72304270D01*
X95139218Y-72437301D01*
X95349421Y-72535320D01*
X95573450Y-72595349D01*
X95738485Y-72609787D01*
X95804498Y-72615563D01*
X95804500Y-72615563D01*
X95804502Y-72615563D01*
X95868132Y-72609996D01*
X96035550Y-72595349D01*
X96259579Y-72535320D01*
X96469782Y-72437301D01*
X96659769Y-72304270D01*
X96823770Y-72140269D01*
X96956801Y-71950282D01*
X97054820Y-71740079D01*
X97114849Y-71516050D01*
X97135063Y-71285000D01*
X97114849Y-71053950D01*
X97054820Y-70829921D01*
X96956801Y-70619719D01*
X96956799Y-70619716D01*
X96956798Y-70619714D01*
X96823773Y-70429735D01*
X96823768Y-70429729D01*
X96704035Y-70309996D01*
X102831403Y-70309996D01*
X102831403Y-70310003D01*
X102851724Y-70490369D01*
X102851725Y-70490374D01*
X102911677Y-70661706D01*
X103008249Y-70815398D01*
X103008250Y-70815399D01*
X103136601Y-70943750D01*
X103290295Y-71040323D01*
X103461625Y-71100274D01*
X103461630Y-71100275D01*
X103641996Y-71120597D01*
X103642000Y-71120597D01*
X103642004Y-71120597D01*
X103822369Y-71100275D01*
X103822372Y-71100274D01*
X103822375Y-71100274D01*
X103993705Y-71040323D01*
X104147399Y-70943750D01*
X104275750Y-70815399D01*
X104372323Y-70661705D01*
X104432274Y-70490375D01*
X104432275Y-70490369D01*
X104452597Y-70310003D01*
X104452597Y-70309996D01*
X104432275Y-70129630D01*
X104432274Y-70129625D01*
X104372323Y-69958295D01*
X104275750Y-69804601D01*
X104147399Y-69676250D01*
X104147398Y-69676249D01*
X103993706Y-69579677D01*
X103822374Y-69519725D01*
X103822369Y-69519724D01*
X103642004Y-69499403D01*
X103641996Y-69499403D01*
X103461630Y-69519724D01*
X103461625Y-69519725D01*
X103290293Y-69579677D01*
X103136601Y-69676249D01*
X103008249Y-69804601D01*
X102911677Y-69958293D01*
X102851725Y-70129625D01*
X102851724Y-70129630D01*
X102831403Y-70309996D01*
X96704035Y-70309996D01*
X96659769Y-70265730D01*
X96659763Y-70265726D01*
X96469782Y-70132699D01*
X96259579Y-70034680D01*
X96259576Y-70034679D01*
X96259574Y-70034678D01*
X96035551Y-69974651D01*
X96035544Y-69974650D01*
X95804502Y-69954437D01*
X95804498Y-69954437D01*
X95573455Y-69974650D01*
X95573448Y-69974651D01*
X95349417Y-70034681D01*
X95139218Y-70132699D01*
X95139214Y-70132701D01*
X94949235Y-70265726D01*
X94949229Y-70265731D01*
X94785231Y-70429729D01*
X94785226Y-70429735D01*
X94656075Y-70614183D01*
X94601498Y-70657808D01*
X94532000Y-70665002D01*
X94469645Y-70633479D01*
X94452925Y-70614183D01*
X94323773Y-70429735D01*
X94323768Y-70429729D01*
X94159769Y-70265730D01*
X94159763Y-70265726D01*
X93969782Y-70132699D01*
X93759579Y-70034680D01*
X93759576Y-70034679D01*
X93759574Y-70034678D01*
X93535551Y-69974651D01*
X93535544Y-69974650D01*
X93304502Y-69954437D01*
X93304498Y-69954437D01*
X93073455Y-69974650D01*
X93073448Y-69974651D01*
X92849417Y-70034681D01*
X92639218Y-70132699D01*
X92639214Y-70132701D01*
X92449235Y-70265726D01*
X92449229Y-70265731D01*
X92285231Y-70429729D01*
X92285226Y-70429735D01*
X92152201Y-70619714D01*
X92152199Y-70619718D01*
X92054181Y-70829917D01*
X91994151Y-71053948D01*
X91994150Y-71053955D01*
X91973937Y-71284998D01*
X25242000Y-71284998D01*
X25242000Y-67859996D01*
X107973203Y-67859996D01*
X107973203Y-67860003D01*
X107993524Y-68040369D01*
X107993525Y-68040374D01*
X108053477Y-68211706D01*
X108150049Y-68365398D01*
X108150050Y-68365399D01*
X108278401Y-68493750D01*
X108432095Y-68590323D01*
X108603425Y-68650274D01*
X108603430Y-68650275D01*
X108783796Y-68670597D01*
X108783800Y-68670597D01*
X108783804Y-68670597D01*
X108964169Y-68650275D01*
X108964172Y-68650274D01*
X108964175Y-68650274D01*
X109135505Y-68590323D01*
X109289199Y-68493750D01*
X109417550Y-68365399D01*
X109514123Y-68211705D01*
X109574074Y-68040375D01*
X109594397Y-67860000D01*
X109574074Y-67679625D01*
X109514123Y-67508295D01*
X109417550Y-67354601D01*
X109289199Y-67226250D01*
X109289198Y-67226249D01*
X109135506Y-67129677D01*
X108964174Y-67069725D01*
X108964169Y-67069724D01*
X108783804Y-67049403D01*
X108783796Y-67049403D01*
X108603430Y-67069724D01*
X108603425Y-67069725D01*
X108432093Y-67129677D01*
X108278401Y-67226249D01*
X108150049Y-67354601D01*
X108053477Y-67508293D01*
X107993525Y-67679625D01*
X107993524Y-67679630D01*
X107973203Y-67859996D01*
X25242000Y-67859996D01*
X25242000Y-66359996D01*
X72531403Y-66359996D01*
X72531403Y-66360003D01*
X72551724Y-66540369D01*
X72551725Y-66540374D01*
X72611677Y-66711706D01*
X72708249Y-66865398D01*
X72836601Y-66993750D01*
X72957513Y-67069725D01*
X72990295Y-67090323D01*
X73102762Y-67129677D01*
X73161625Y-67150274D01*
X73161630Y-67150275D01*
X73341996Y-67170597D01*
X73342000Y-67170597D01*
X73342004Y-67170597D01*
X73522369Y-67150275D01*
X73522372Y-67150274D01*
X73522375Y-67150274D01*
X73693705Y-67090323D01*
X73847399Y-66993750D01*
X73975750Y-66865399D01*
X74072323Y-66711705D01*
X74132274Y-66540375D01*
X74137670Y-66492482D01*
X74152597Y-66360003D01*
X74152597Y-66359996D01*
X74132275Y-66179630D01*
X74132274Y-66179625D01*
X74101026Y-66090323D01*
X74072323Y-66008295D01*
X74066271Y-65998664D01*
X73975750Y-65854601D01*
X73847398Y-65726249D01*
X73693706Y-65629677D01*
X73522374Y-65569725D01*
X73522369Y-65569724D01*
X73342004Y-65549403D01*
X73341996Y-65549403D01*
X73161630Y-65569724D01*
X73161625Y-65569725D01*
X72990293Y-65629677D01*
X72836601Y-65726249D01*
X72708249Y-65854601D01*
X72611677Y-66008293D01*
X72551725Y-66179625D01*
X72551724Y-66179630D01*
X72531403Y-66359996D01*
X25242000Y-66359996D01*
X25242000Y-65309996D01*
X84331403Y-65309996D01*
X84331403Y-65310003D01*
X84351724Y-65490369D01*
X84351725Y-65490374D01*
X84411677Y-65661706D01*
X84508249Y-65815398D01*
X84636601Y-65943750D01*
X84723995Y-65998664D01*
X84790295Y-66040323D01*
X84961625Y-66100274D01*
X84961630Y-66100275D01*
X85141996Y-66120597D01*
X85142000Y-66120597D01*
X85142004Y-66120597D01*
X85322369Y-66100275D01*
X85322372Y-66100274D01*
X85322375Y-66100274D01*
X85493705Y-66040323D01*
X85647399Y-65943750D01*
X85775750Y-65815399D01*
X85872323Y-65661705D01*
X85932274Y-65490375D01*
X85935696Y-65460003D01*
X85952597Y-65310003D01*
X85952597Y-65309996D01*
X85932275Y-65129630D01*
X85932274Y-65129625D01*
X85924810Y-65108293D01*
X85872323Y-64958295D01*
X85845369Y-64915399D01*
X85775750Y-64804601D01*
X85647398Y-64676249D01*
X85493706Y-64579677D01*
X85322374Y-64519725D01*
X85322369Y-64519724D01*
X85142004Y-64499403D01*
X85141996Y-64499403D01*
X84961630Y-64519724D01*
X84961625Y-64519725D01*
X84790293Y-64579677D01*
X84636601Y-64676249D01*
X84508249Y-64804601D01*
X84411677Y-64958293D01*
X84351725Y-65129625D01*
X84351724Y-65129630D01*
X84331403Y-65309996D01*
X25242000Y-65309996D01*
X25242000Y-64409996D01*
X92431403Y-64409996D01*
X92431403Y-64410003D01*
X92451724Y-64590369D01*
X92451725Y-64590374D01*
X92511677Y-64761706D01*
X92608249Y-64915398D01*
X92679774Y-64986923D01*
X92713259Y-65048246D01*
X92709135Y-65115559D01*
X92651725Y-65279625D01*
X92651724Y-65279630D01*
X92631403Y-65459996D01*
X92631403Y-65460003D01*
X92651724Y-65640369D01*
X92651725Y-65640374D01*
X92711677Y-65811706D01*
X92808249Y-65965398D01*
X92936601Y-66093750D01*
X93073329Y-66179663D01*
X93090295Y-66190323D01*
X93154628Y-66212834D01*
X93261625Y-66250274D01*
X93261630Y-66250275D01*
X93441996Y-66270597D01*
X93442000Y-66270597D01*
X93442004Y-66270597D01*
X93622369Y-66250275D01*
X93622372Y-66250274D01*
X93622375Y-66250274D01*
X93793705Y-66190323D01*
X93947399Y-66093750D01*
X94075750Y-65965399D01*
X94172323Y-65811705D01*
X94232274Y-65640375D01*
X94232275Y-65640369D01*
X94252597Y-65460003D01*
X94252597Y-65459996D01*
X95431403Y-65459996D01*
X95431403Y-65460003D01*
X95451724Y-65640369D01*
X95451725Y-65640374D01*
X95511677Y-65811706D01*
X95608249Y-65965398D01*
X95736601Y-66093750D01*
X95873329Y-66179663D01*
X95890295Y-66190323D01*
X95954628Y-66212834D01*
X96061625Y-66250274D01*
X96061630Y-66250275D01*
X96241996Y-66270597D01*
X96242000Y-66270597D01*
X96242004Y-66270597D01*
X96422369Y-66250275D01*
X96422372Y-66250274D01*
X96422375Y-66250274D01*
X96593705Y-66190323D01*
X96747399Y-66093750D01*
X96875750Y-65965399D01*
X96972323Y-65811705D01*
X97032274Y-65640375D01*
X97032275Y-65640369D01*
X97052597Y-65460003D01*
X97052597Y-65459996D01*
X97032275Y-65279630D01*
X97032274Y-65279625D01*
X96979788Y-65129630D01*
X96972323Y-65108295D01*
X96949099Y-65071335D01*
X96875750Y-64954601D01*
X96747398Y-64826249D01*
X96593706Y-64729677D01*
X96422374Y-64669725D01*
X96422369Y-64669724D01*
X96242004Y-64649403D01*
X96241996Y-64649403D01*
X96061630Y-64669724D01*
X96061625Y-64669725D01*
X95890293Y-64729677D01*
X95736601Y-64826249D01*
X95608249Y-64954601D01*
X95511677Y-65108293D01*
X95451725Y-65279625D01*
X95451724Y-65279630D01*
X95431403Y-65459996D01*
X94252597Y-65459996D01*
X94232275Y-65279630D01*
X94232274Y-65279625D01*
X94179788Y-65129630D01*
X94172323Y-65108295D01*
X94149099Y-65071335D01*
X94075752Y-64954604D01*
X94075751Y-64954603D01*
X94075750Y-64954601D01*
X94004224Y-64883075D01*
X93970740Y-64821751D01*
X93974864Y-64754440D01*
X94032274Y-64590375D01*
X94032275Y-64590369D01*
X94052597Y-64410003D01*
X94052597Y-64409996D01*
X99131403Y-64409996D01*
X99131403Y-64410003D01*
X99151724Y-64590369D01*
X99151725Y-64590374D01*
X99211677Y-64761706D01*
X99287939Y-64883075D01*
X99308250Y-64915399D01*
X99372476Y-64979625D01*
X99401476Y-65008625D01*
X99434960Y-65069949D01*
X99437015Y-65110187D01*
X99431404Y-65159996D01*
X99431403Y-65160003D01*
X99451724Y-65340369D01*
X99451725Y-65340374D01*
X99511677Y-65511706D01*
X99608249Y-65665398D01*
X99736601Y-65793750D01*
X99888682Y-65889310D01*
X99890295Y-65890323D01*
X100061625Y-65950274D01*
X100061630Y-65950275D01*
X100241996Y-65970597D01*
X100242000Y-65970597D01*
X100242004Y-65970597D01*
X100422369Y-65950275D01*
X100422372Y-65950274D01*
X100422375Y-65950274D01*
X100593705Y-65890323D01*
X100593705Y-65890322D01*
X100600278Y-65888023D01*
X100601263Y-65890838D01*
X100657057Y-65881613D01*
X100683271Y-65889310D01*
X100683722Y-65888023D01*
X100861625Y-65950274D01*
X100861630Y-65950275D01*
X101041996Y-65970597D01*
X101042000Y-65970597D01*
X101042004Y-65970597D01*
X101222369Y-65950275D01*
X101222372Y-65950274D01*
X101222375Y-65950274D01*
X101393705Y-65890323D01*
X101547399Y-65793750D01*
X101675750Y-65665399D01*
X101772323Y-65511705D01*
X101825408Y-65359996D01*
X106531403Y-65359996D01*
X106531403Y-65360003D01*
X106551724Y-65540369D01*
X106551725Y-65540374D01*
X106611677Y-65711706D01*
X106701465Y-65854601D01*
X106708250Y-65865399D01*
X106836601Y-65993750D01*
X106990295Y-66090323D01*
X107076813Y-66120597D01*
X107161625Y-66150274D01*
X107161630Y-66150275D01*
X107341996Y-66170597D01*
X107342000Y-66170597D01*
X107342004Y-66170597D01*
X107522369Y-66150275D01*
X107522372Y-66150274D01*
X107522375Y-66150274D01*
X107693705Y-66090323D01*
X107847399Y-65993750D01*
X107975750Y-65865399D01*
X108072323Y-65711705D01*
X108132274Y-65540375D01*
X108135504Y-65511706D01*
X108152597Y-65360003D01*
X108152597Y-65359996D01*
X108132275Y-65179630D01*
X108132274Y-65179625D01*
X108125407Y-65160000D01*
X108072323Y-65008295D01*
X108054311Y-64979630D01*
X107975750Y-64854601D01*
X107847398Y-64726249D01*
X107693706Y-64629677D01*
X107522374Y-64569725D01*
X107522369Y-64569724D01*
X107342004Y-64549403D01*
X107341996Y-64549403D01*
X107161630Y-64569724D01*
X107161625Y-64569725D01*
X106990293Y-64629677D01*
X106836601Y-64726249D01*
X106708249Y-64854601D01*
X106611677Y-65008293D01*
X106551725Y-65179625D01*
X106551724Y-65179630D01*
X106531403Y-65359996D01*
X101825408Y-65359996D01*
X101832274Y-65340375D01*
X101835696Y-65310003D01*
X101852597Y-65160003D01*
X101852597Y-65159996D01*
X101832275Y-64979630D01*
X101832274Y-64979625D01*
X101788526Y-64854601D01*
X101772323Y-64808295D01*
X101743048Y-64761705D01*
X101675750Y-64654601D01*
X101547398Y-64526249D01*
X101393706Y-64429677D01*
X101222374Y-64369725D01*
X101222369Y-64369724D01*
X101042004Y-64349403D01*
X101041996Y-64349403D01*
X100872702Y-64368477D01*
X100803880Y-64356422D01*
X100752501Y-64309073D01*
X100735599Y-64259139D01*
X100732274Y-64229625D01*
X100672323Y-64058295D01*
X100666890Y-64049649D01*
X100575750Y-63904601D01*
X100447398Y-63776249D01*
X100293706Y-63679677D01*
X100122374Y-63619725D01*
X100122369Y-63619724D01*
X99942004Y-63599403D01*
X99941996Y-63599403D01*
X99761630Y-63619724D01*
X99761625Y-63619725D01*
X99590293Y-63679677D01*
X99436601Y-63776249D01*
X99308249Y-63904601D01*
X99211677Y-64058293D01*
X99151725Y-64229625D01*
X99151724Y-64229630D01*
X99131403Y-64409996D01*
X94052597Y-64409996D01*
X94032275Y-64229630D01*
X94032274Y-64229625D01*
X94011073Y-64169035D01*
X93972323Y-64058295D01*
X93966890Y-64049649D01*
X93875750Y-63904601D01*
X93747398Y-63776249D01*
X93593706Y-63679677D01*
X93422374Y-63619725D01*
X93422369Y-63619724D01*
X93242004Y-63599403D01*
X93241996Y-63599403D01*
X93061630Y-63619724D01*
X93061625Y-63619725D01*
X92890293Y-63679677D01*
X92736601Y-63776249D01*
X92608249Y-63904601D01*
X92511677Y-64058293D01*
X92451725Y-64229625D01*
X92451724Y-64229630D01*
X92431403Y-64409996D01*
X25242000Y-64409996D01*
X25242000Y-61659996D01*
X73831403Y-61659996D01*
X73831403Y-61660003D01*
X73851724Y-61840369D01*
X73851725Y-61840374D01*
X73911677Y-62011706D01*
X74008249Y-62165398D01*
X74136601Y-62293750D01*
X74281772Y-62384968D01*
X74290295Y-62390323D01*
X74380374Y-62421843D01*
X74461625Y-62450274D01*
X74461630Y-62450275D01*
X74641996Y-62470597D01*
X74642000Y-62470597D01*
X74642004Y-62470597D01*
X74822369Y-62450275D01*
X74822372Y-62450274D01*
X74822375Y-62450274D01*
X74993705Y-62390323D01*
X75121544Y-62309996D01*
X76531403Y-62309996D01*
X76531403Y-62310003D01*
X76551724Y-62490369D01*
X76551725Y-62490374D01*
X76611677Y-62661706D01*
X76708249Y-62815398D01*
X76836601Y-62943750D01*
X76943796Y-63011106D01*
X76990295Y-63040323D01*
X77161625Y-63100274D01*
X77161630Y-63100275D01*
X77341996Y-63120597D01*
X77342000Y-63120597D01*
X77342004Y-63120597D01*
X77522369Y-63100275D01*
X77522372Y-63100274D01*
X77522375Y-63100274D01*
X77693705Y-63040323D01*
X77847399Y-62943750D01*
X77850700Y-62940448D01*
X77912018Y-62906962D01*
X77981709Y-62911943D01*
X78037646Y-62953811D01*
X78043377Y-62962155D01*
X78108249Y-63065398D01*
X78236601Y-63193750D01*
X78294933Y-63230403D01*
X78390295Y-63290323D01*
X78533335Y-63340375D01*
X78561625Y-63350274D01*
X78561630Y-63350275D01*
X78741996Y-63370597D01*
X78742000Y-63370597D01*
X78742004Y-63370597D01*
X78922369Y-63350275D01*
X78922372Y-63350274D01*
X78922375Y-63350274D01*
X79093705Y-63290323D01*
X79247399Y-63193750D01*
X79375750Y-63065399D01*
X79472323Y-62911705D01*
X79532274Y-62740375D01*
X79535088Y-62715399D01*
X79552597Y-62560003D01*
X79552597Y-62559996D01*
X79532275Y-62379630D01*
X79532274Y-62379625D01*
X79507910Y-62309996D01*
X79472918Y-62209996D01*
X90131403Y-62209996D01*
X90131403Y-62210003D01*
X90151724Y-62390369D01*
X90151725Y-62390374D01*
X90211677Y-62561706D01*
X90308249Y-62715398D01*
X90436601Y-62843750D01*
X90544751Y-62911706D01*
X90590295Y-62940323D01*
X90702614Y-62979625D01*
X90761625Y-63000274D01*
X90761630Y-63000275D01*
X90941996Y-63020597D01*
X90942000Y-63020597D01*
X90942004Y-63020597D01*
X91122369Y-63000275D01*
X91122372Y-63000274D01*
X91122375Y-63000274D01*
X91293705Y-62940323D01*
X91332559Y-62915909D01*
X91399792Y-62896908D01*
X91466628Y-62917274D01*
X91511844Y-62970541D01*
X91515573Y-62979947D01*
X91561677Y-63111706D01*
X91658249Y-63265398D01*
X91786601Y-63393750D01*
X91889908Y-63458663D01*
X91940295Y-63490323D01*
X92111625Y-63550274D01*
X92111630Y-63550275D01*
X92291996Y-63570597D01*
X92292000Y-63570597D01*
X92292004Y-63570597D01*
X92472369Y-63550275D01*
X92472372Y-63550274D01*
X92472375Y-63550274D01*
X92643705Y-63490323D01*
X92797399Y-63393750D01*
X92925750Y-63265399D01*
X92991980Y-63159996D01*
X114081403Y-63159996D01*
X114081403Y-63160003D01*
X114101724Y-63340369D01*
X114101725Y-63340374D01*
X114161677Y-63511706D01*
X114258249Y-63665398D01*
X114386601Y-63793750D01*
X114502223Y-63866401D01*
X114540295Y-63890323D01*
X114711625Y-63950274D01*
X114711630Y-63950275D01*
X114891996Y-63970597D01*
X114892000Y-63970597D01*
X114892004Y-63970597D01*
X115072369Y-63950275D01*
X115072372Y-63950274D01*
X115072375Y-63950274D01*
X115243705Y-63890323D01*
X115281777Y-63866401D01*
X115375556Y-63807475D01*
X115397399Y-63793750D01*
X115397399Y-63793749D01*
X115399816Y-63792231D01*
X115467053Y-63773230D01*
X115506740Y-63780182D01*
X115584735Y-63807474D01*
X115584739Y-63807474D01*
X115584743Y-63807475D01*
X115765106Y-63827797D01*
X115765110Y-63827797D01*
X115765114Y-63827797D01*
X115945479Y-63807475D01*
X115945482Y-63807474D01*
X115945485Y-63807474D01*
X116116815Y-63747523D01*
X116155493Y-63723220D01*
X116222729Y-63704219D01*
X116289565Y-63724586D01*
X116334779Y-63777853D01*
X116344686Y-63842095D01*
X116331403Y-63959994D01*
X116331403Y-63960003D01*
X116351724Y-64140369D01*
X116351725Y-64140374D01*
X116411677Y-64311706D01*
X116508249Y-64465398D01*
X116636601Y-64593750D01*
X116767896Y-64676249D01*
X116790295Y-64690323D01*
X116902762Y-64729677D01*
X116961625Y-64750274D01*
X116961630Y-64750275D01*
X117141996Y-64770597D01*
X117142000Y-64770597D01*
X117142004Y-64770597D01*
X117322369Y-64750275D01*
X117322372Y-64750274D01*
X117322375Y-64750274D01*
X117493705Y-64690323D01*
X117647399Y-64593750D01*
X117775750Y-64465399D01*
X117872323Y-64311705D01*
X117932274Y-64140375D01*
X117941522Y-64058295D01*
X117952597Y-63960003D01*
X117952597Y-63959996D01*
X117932275Y-63779630D01*
X117932274Y-63779625D01*
X117872322Y-63608292D01*
X117799880Y-63493003D01*
X117780879Y-63425766D01*
X117801246Y-63358931D01*
X117854514Y-63313716D01*
X117890986Y-63303810D01*
X117922375Y-63300274D01*
X118093705Y-63240323D01*
X118247399Y-63143750D01*
X118375750Y-63015399D01*
X118375753Y-63015393D01*
X118380041Y-63011106D01*
X118441364Y-62977621D01*
X118508674Y-62981745D01*
X118561625Y-63000274D01*
X118561629Y-63000274D01*
X118561633Y-63000275D01*
X118741996Y-63020597D01*
X118742000Y-63020597D01*
X118742004Y-63020597D01*
X118922369Y-63000275D01*
X118922372Y-63000274D01*
X118922375Y-63000274D01*
X118937450Y-62994999D01*
X119721341Y-62994999D01*
X119721341Y-62995000D01*
X119741936Y-63230403D01*
X119741938Y-63230413D01*
X119803094Y-63458655D01*
X119803096Y-63458659D01*
X119803097Y-63458663D01*
X119872872Y-63608295D01*
X119902965Y-63672830D01*
X119902967Y-63672834D01*
X120011281Y-63827521D01*
X120038501Y-63866396D01*
X120038506Y-63866402D01*
X120205597Y-64033493D01*
X120205603Y-64033498D01*
X120391158Y-64163425D01*
X120434783Y-64218002D01*
X120441977Y-64287500D01*
X120410454Y-64349855D01*
X120391158Y-64366575D01*
X120205597Y-64496505D01*
X120038505Y-64663597D01*
X119902965Y-64857169D01*
X119902964Y-64857171D01*
X119803098Y-65071335D01*
X119803094Y-65071344D01*
X119741938Y-65299586D01*
X119741936Y-65299596D01*
X119721341Y-65534999D01*
X119721341Y-65535000D01*
X119741936Y-65770403D01*
X119741938Y-65770413D01*
X119803094Y-65998655D01*
X119803096Y-65998659D01*
X119803097Y-65998663D01*
X119845839Y-66090323D01*
X119902965Y-66212830D01*
X119902967Y-66212834D01*
X120006012Y-66359996D01*
X120038505Y-66406401D01*
X120205599Y-66573495D01*
X120302384Y-66641265D01*
X120399165Y-66709032D01*
X120399167Y-66709033D01*
X120399170Y-66709035D01*
X120613337Y-66808903D01*
X120841592Y-66870063D01*
X121018034Y-66885500D01*
X121076999Y-66890659D01*
X121077000Y-66890659D01*
X121077001Y-66890659D01*
X121135966Y-66885500D01*
X121312408Y-66870063D01*
X121540663Y-66808903D01*
X121754830Y-66709035D01*
X121948401Y-66573495D01*
X122070329Y-66451566D01*
X122131648Y-66418084D01*
X122201340Y-66423068D01*
X122257274Y-66464939D01*
X122274189Y-66495917D01*
X122323202Y-66627328D01*
X122323206Y-66627335D01*
X122409452Y-66742544D01*
X122409455Y-66742547D01*
X122524664Y-66828793D01*
X122524671Y-66828797D01*
X122659517Y-66879091D01*
X122659516Y-66879091D01*
X122666444Y-66879835D01*
X122719127Y-66885500D01*
X124514872Y-66885499D01*
X124574483Y-66879091D01*
X124709331Y-66828796D01*
X124824546Y-66742546D01*
X124910796Y-66627331D01*
X124961091Y-66492483D01*
X124967500Y-66432873D01*
X124967499Y-64637128D01*
X124961091Y-64577517D01*
X124959810Y-64574083D01*
X124910797Y-64442671D01*
X124910793Y-64442664D01*
X124824547Y-64327455D01*
X124824544Y-64327452D01*
X124709335Y-64241206D01*
X124709328Y-64241202D01*
X124577917Y-64192189D01*
X124521983Y-64150318D01*
X124497566Y-64084853D01*
X124512418Y-64016580D01*
X124533563Y-63988332D01*
X124655495Y-63866401D01*
X124791035Y-63672830D01*
X124890903Y-63458663D01*
X124952063Y-63230408D01*
X124972659Y-62995000D01*
X124971138Y-62977621D01*
X124965392Y-62911943D01*
X124952063Y-62759592D01*
X124890903Y-62531337D01*
X124791035Y-62317171D01*
X124785425Y-62309158D01*
X124655494Y-62123597D01*
X124488402Y-61956506D01*
X124488395Y-61956501D01*
X124294834Y-61820967D01*
X124294830Y-61820965D01*
X124229116Y-61790322D01*
X124080663Y-61721097D01*
X124080659Y-61721096D01*
X124080655Y-61721094D01*
X123852413Y-61659938D01*
X123852403Y-61659936D01*
X123617001Y-61639341D01*
X123616999Y-61639341D01*
X123381596Y-61659936D01*
X123381586Y-61659938D01*
X123153344Y-61721094D01*
X123153335Y-61721098D01*
X122939171Y-61820964D01*
X122939169Y-61820965D01*
X122745597Y-61956505D01*
X122578505Y-62123597D01*
X122448575Y-62309158D01*
X122393998Y-62352783D01*
X122324500Y-62359977D01*
X122262145Y-62328454D01*
X122245425Y-62309158D01*
X122115494Y-62123597D01*
X121948402Y-61956506D01*
X121948395Y-61956501D01*
X121754834Y-61820967D01*
X121754830Y-61820965D01*
X121689116Y-61790322D01*
X121540663Y-61721097D01*
X121540659Y-61721096D01*
X121540655Y-61721094D01*
X121312413Y-61659938D01*
X121312403Y-61659936D01*
X121077001Y-61639341D01*
X121076999Y-61639341D01*
X120841596Y-61659936D01*
X120841586Y-61659938D01*
X120613344Y-61721094D01*
X120613335Y-61721098D01*
X120399171Y-61820964D01*
X120399169Y-61820965D01*
X120205597Y-61956505D01*
X120038505Y-62123597D01*
X119902965Y-62317169D01*
X119902964Y-62317171D01*
X119803098Y-62531335D01*
X119803094Y-62531344D01*
X119741938Y-62759586D01*
X119741936Y-62759596D01*
X119721341Y-62994999D01*
X118937450Y-62994999D01*
X119093705Y-62940323D01*
X119247399Y-62843750D01*
X119375750Y-62715399D01*
X119472323Y-62561705D01*
X119532274Y-62390375D01*
X119532280Y-62390322D01*
X119552597Y-62210003D01*
X119552597Y-62209996D01*
X119532275Y-62029630D01*
X119532274Y-62029625D01*
X119526004Y-62011706D01*
X119472323Y-61858295D01*
X119461064Y-61840377D01*
X119375750Y-61704601D01*
X119247398Y-61576249D01*
X119093706Y-61479677D01*
X118922374Y-61419725D01*
X118922369Y-61419724D01*
X118742004Y-61399403D01*
X118741996Y-61399403D01*
X118561630Y-61419724D01*
X118561625Y-61419725D01*
X118390293Y-61479677D01*
X118236604Y-61576247D01*
X118103958Y-61708893D01*
X118042635Y-61742377D01*
X117975323Y-61738253D01*
X117926293Y-61721097D01*
X117922375Y-61719726D01*
X117922374Y-61719725D01*
X117922372Y-61719725D01*
X117742004Y-61699403D01*
X117741996Y-61699403D01*
X117561630Y-61719724D01*
X117561617Y-61719727D01*
X117390296Y-61779675D01*
X117337311Y-61812968D01*
X117270074Y-61831968D01*
X117230385Y-61825016D01*
X117072374Y-61769725D01*
X117072369Y-61769724D01*
X116892004Y-61749403D01*
X116891996Y-61749403D01*
X116711630Y-61769724D01*
X116711625Y-61769725D01*
X116540293Y-61829677D01*
X116386601Y-61926249D01*
X116258248Y-62054602D01*
X116258247Y-62054604D01*
X116165724Y-62201852D01*
X116113390Y-62248142D01*
X116044336Y-62258790D01*
X116019777Y-62252921D01*
X115945487Y-62226926D01*
X115945479Y-62226924D01*
X115765114Y-62206603D01*
X115765106Y-62206603D01*
X115584740Y-62226924D01*
X115584735Y-62226925D01*
X115413403Y-62286877D01*
X115257294Y-62384968D01*
X115190057Y-62403968D01*
X115150368Y-62397016D01*
X115072377Y-62369726D01*
X115072369Y-62369724D01*
X114892004Y-62349403D01*
X114891996Y-62349403D01*
X114711630Y-62369724D01*
X114711625Y-62369725D01*
X114540293Y-62429677D01*
X114386601Y-62526249D01*
X114258249Y-62654601D01*
X114161677Y-62808293D01*
X114101725Y-62979625D01*
X114101724Y-62979630D01*
X114081403Y-63159996D01*
X92991980Y-63159996D01*
X93022323Y-63111705D01*
X93082274Y-62940375D01*
X93084877Y-62917274D01*
X93102597Y-62760003D01*
X93102597Y-62759996D01*
X93082275Y-62579630D01*
X93082273Y-62579622D01*
X93055781Y-62503911D01*
X93052220Y-62434133D01*
X93086949Y-62373505D01*
X93148942Y-62341278D01*
X93218518Y-62347683D01*
X93238796Y-62357964D01*
X93290292Y-62390322D01*
X93461625Y-62450274D01*
X93461630Y-62450275D01*
X93641996Y-62470597D01*
X93642000Y-62470597D01*
X93642004Y-62470597D01*
X93822369Y-62450275D01*
X93822372Y-62450274D01*
X93822375Y-62450274D01*
X93993705Y-62390323D01*
X94147399Y-62293750D01*
X94275750Y-62165399D01*
X94372323Y-62011705D01*
X94432274Y-61840375D01*
X94432275Y-61840369D01*
X94452597Y-61660003D01*
X94452597Y-61659996D01*
X94432275Y-61479630D01*
X94432274Y-61479625D01*
X94383530Y-61340323D01*
X94372323Y-61308295D01*
X94331766Y-61243750D01*
X94275750Y-61154601D01*
X94181145Y-61059996D01*
X107190403Y-61059996D01*
X107190403Y-61060003D01*
X107210724Y-61240369D01*
X107210725Y-61240374D01*
X107270677Y-61411706D01*
X107367249Y-61565398D01*
X107495601Y-61693750D01*
X107616513Y-61769725D01*
X107649295Y-61790323D01*
X107820625Y-61850274D01*
X107820630Y-61850275D01*
X108000996Y-61870597D01*
X108001000Y-61870597D01*
X108001004Y-61870597D01*
X108181369Y-61850275D01*
X108181372Y-61850274D01*
X108181375Y-61850274D01*
X108352705Y-61790323D01*
X108506399Y-61693750D01*
X108634750Y-61565399D01*
X108731323Y-61411705D01*
X108791274Y-61240375D01*
X108794696Y-61210003D01*
X108811597Y-61060003D01*
X108811597Y-61059996D01*
X108791275Y-60879630D01*
X108791274Y-60879625D01*
X108760026Y-60790323D01*
X108731323Y-60708295D01*
X108731244Y-60708170D01*
X108634750Y-60554601D01*
X108506398Y-60426249D01*
X108352706Y-60329677D01*
X108181374Y-60269725D01*
X108181369Y-60269724D01*
X108001004Y-60249403D01*
X108000996Y-60249403D01*
X107820630Y-60269724D01*
X107820625Y-60269725D01*
X107649293Y-60329677D01*
X107495601Y-60426249D01*
X107367249Y-60554601D01*
X107270677Y-60708293D01*
X107210725Y-60879625D01*
X107210724Y-60879630D01*
X107190403Y-61059996D01*
X94181145Y-61059996D01*
X94147398Y-61026249D01*
X93993706Y-60929677D01*
X93822374Y-60869725D01*
X93822369Y-60869724D01*
X93642004Y-60849403D01*
X93641996Y-60849403D01*
X93461630Y-60869724D01*
X93461625Y-60869725D01*
X93290293Y-60929677D01*
X93136601Y-61026249D01*
X93008249Y-61154601D01*
X92911677Y-61308293D01*
X92851725Y-61479625D01*
X92851724Y-61479630D01*
X92831403Y-61659996D01*
X92831403Y-61660003D01*
X92851724Y-61840369D01*
X92851726Y-61840377D01*
X92878218Y-61916088D01*
X92881779Y-61985867D01*
X92847050Y-62046494D01*
X92785056Y-62078721D01*
X92715481Y-62072315D01*
X92695204Y-62062036D01*
X92643705Y-62029677D01*
X92472374Y-61969725D01*
X92472369Y-61969724D01*
X92292004Y-61949403D01*
X92291996Y-61949403D01*
X92111630Y-61969724D01*
X92111625Y-61969725D01*
X91940292Y-62029677D01*
X91901438Y-62054091D01*
X91834201Y-62073090D01*
X91767367Y-62052721D01*
X91722153Y-61999453D01*
X91718426Y-61990050D01*
X91707314Y-61958295D01*
X91672323Y-61858295D01*
X91575750Y-61704601D01*
X91447399Y-61576250D01*
X91447398Y-61576249D01*
X91293706Y-61479677D01*
X91122374Y-61419725D01*
X91122369Y-61419724D01*
X90942004Y-61399403D01*
X90941996Y-61399403D01*
X90761630Y-61419724D01*
X90761625Y-61419725D01*
X90590293Y-61479677D01*
X90436601Y-61576249D01*
X90308249Y-61704601D01*
X90211677Y-61858293D01*
X90151725Y-62029625D01*
X90151724Y-62029630D01*
X90131403Y-62209996D01*
X79472918Y-62209996D01*
X79472323Y-62208295D01*
X79445369Y-62165399D01*
X79375750Y-62054601D01*
X79247398Y-61926249D01*
X79093706Y-61829677D01*
X78922374Y-61769725D01*
X78922369Y-61769724D01*
X78742004Y-61749403D01*
X78741996Y-61749403D01*
X78561630Y-61769724D01*
X78561625Y-61769725D01*
X78390293Y-61829677D01*
X78236603Y-61926248D01*
X78233292Y-61929559D01*
X78171967Y-61963040D01*
X78102275Y-61958051D01*
X78046344Y-61916176D01*
X78040622Y-61907844D01*
X78004735Y-61850731D01*
X77975750Y-61804601D01*
X77847399Y-61676250D01*
X77847398Y-61676249D01*
X77693706Y-61579677D01*
X77522374Y-61519725D01*
X77522369Y-61519724D01*
X77342004Y-61499403D01*
X77341996Y-61499403D01*
X77161630Y-61519724D01*
X77161625Y-61519725D01*
X76990293Y-61579677D01*
X76836601Y-61676249D01*
X76708249Y-61804601D01*
X76611677Y-61958293D01*
X76551725Y-62129625D01*
X76551724Y-62129630D01*
X76531403Y-62309996D01*
X75121544Y-62309996D01*
X75147399Y-62293750D01*
X75275750Y-62165399D01*
X75372323Y-62011705D01*
X75432274Y-61840375D01*
X75432275Y-61840369D01*
X75452597Y-61660003D01*
X75452597Y-61659996D01*
X75432275Y-61479630D01*
X75432274Y-61479625D01*
X75383530Y-61340323D01*
X75372323Y-61308295D01*
X75331766Y-61243750D01*
X75275750Y-61154601D01*
X75147398Y-61026249D01*
X74993706Y-60929677D01*
X74822374Y-60869725D01*
X74822369Y-60869724D01*
X74642004Y-60849403D01*
X74641996Y-60849403D01*
X74461630Y-60869724D01*
X74461625Y-60869725D01*
X74290293Y-60929677D01*
X74136601Y-61026249D01*
X74008249Y-61154601D01*
X73911677Y-61308293D01*
X73851725Y-61479625D01*
X73851724Y-61479630D01*
X73831403Y-61659996D01*
X25242000Y-61659996D01*
X25242000Y-60609996D01*
X82531403Y-60609996D01*
X82531403Y-60610003D01*
X82551724Y-60790369D01*
X82551725Y-60790374D01*
X82611677Y-60961706D01*
X82673440Y-61060000D01*
X82708250Y-61115399D01*
X82836601Y-61243750D01*
X82990295Y-61340323D01*
X83133335Y-61390375D01*
X83161625Y-61400274D01*
X83161630Y-61400275D01*
X83341996Y-61420597D01*
X83342000Y-61420597D01*
X83342004Y-61420597D01*
X83522369Y-61400275D01*
X83522372Y-61400274D01*
X83522375Y-61400274D01*
X83693705Y-61340323D01*
X83847399Y-61243750D01*
X83881153Y-61209996D01*
X84931403Y-61209996D01*
X84931403Y-61210003D01*
X84951724Y-61390369D01*
X84951725Y-61390374D01*
X85011677Y-61561706D01*
X85108249Y-61715398D01*
X85236601Y-61843750D01*
X85367896Y-61926249D01*
X85390295Y-61940323D01*
X85474321Y-61969725D01*
X85561625Y-62000274D01*
X85561630Y-62000275D01*
X85741996Y-62020597D01*
X85742000Y-62020597D01*
X85742004Y-62020597D01*
X85922369Y-62000275D01*
X85922372Y-62000274D01*
X85922375Y-62000274D01*
X86093705Y-61940323D01*
X86247399Y-61843750D01*
X86375750Y-61715399D01*
X86375750Y-61715398D01*
X86379319Y-61711830D01*
X86440642Y-61678345D01*
X86510334Y-61683329D01*
X86554681Y-61711830D01*
X86686601Y-61843750D01*
X86817896Y-61926249D01*
X86840295Y-61940323D01*
X86924321Y-61969725D01*
X87011625Y-62000274D01*
X87011630Y-62000275D01*
X87191996Y-62020597D01*
X87192000Y-62020597D01*
X87192004Y-62020597D01*
X87372369Y-62000275D01*
X87372372Y-62000274D01*
X87372375Y-62000274D01*
X87543705Y-61940323D01*
X87697399Y-61843750D01*
X87825750Y-61715399D01*
X87922323Y-61561705D01*
X87982274Y-61390375D01*
X87982275Y-61390369D01*
X88002597Y-61210003D01*
X88002597Y-61209996D01*
X87982275Y-61029630D01*
X87982274Y-61029625D01*
X87958508Y-60961705D01*
X87922323Y-60858295D01*
X87879612Y-60790322D01*
X87825750Y-60704601D01*
X87697398Y-60576249D01*
X87543706Y-60479677D01*
X87372374Y-60419725D01*
X87372369Y-60419724D01*
X87192004Y-60399403D01*
X87191996Y-60399403D01*
X87011630Y-60419724D01*
X87011625Y-60419725D01*
X86840293Y-60479677D01*
X86686601Y-60576249D01*
X86554681Y-60708170D01*
X86493358Y-60741655D01*
X86423666Y-60736671D01*
X86379319Y-60708170D01*
X86247398Y-60576249D01*
X86093706Y-60479677D01*
X85922374Y-60419725D01*
X85922369Y-60419724D01*
X85742004Y-60399403D01*
X85741996Y-60399403D01*
X85561630Y-60419724D01*
X85561625Y-60419725D01*
X85390293Y-60479677D01*
X85236601Y-60576249D01*
X85108249Y-60704601D01*
X85011677Y-60858293D01*
X84951725Y-61029625D01*
X84951724Y-61029630D01*
X84931403Y-61209996D01*
X83881153Y-61209996D01*
X83975750Y-61115399D01*
X84072323Y-60961705D01*
X84132274Y-60790375D01*
X84132280Y-60790322D01*
X84152597Y-60610003D01*
X84152597Y-60609996D01*
X84132275Y-60429630D01*
X84132274Y-60429625D01*
X84126004Y-60411706D01*
X84072323Y-60258295D01*
X84061062Y-60240374D01*
X83975750Y-60104601D01*
X83931145Y-60059996D01*
X87981403Y-60059996D01*
X87981403Y-60060003D01*
X88001724Y-60240369D01*
X88001725Y-60240374D01*
X88061677Y-60411706D01*
X88151465Y-60554601D01*
X88158250Y-60565399D01*
X88286601Y-60693750D01*
X88440295Y-60790323D01*
X88440444Y-60790375D01*
X88611625Y-60850274D01*
X88611630Y-60850275D01*
X88791996Y-60870597D01*
X88792000Y-60870597D01*
X88792004Y-60870597D01*
X88972369Y-60850275D01*
X88972372Y-60850274D01*
X88972375Y-60850274D01*
X89143705Y-60790323D01*
X89297399Y-60693750D01*
X89425750Y-60565399D01*
X89522323Y-60411705D01*
X89582274Y-60240375D01*
X89596355Y-60115399D01*
X89602597Y-60060003D01*
X89602597Y-60059996D01*
X89582275Y-59879630D01*
X89582274Y-59879625D01*
X89522322Y-59708293D01*
X89425750Y-59554601D01*
X89297398Y-59426249D01*
X89143706Y-59329677D01*
X88972374Y-59269725D01*
X88972369Y-59269724D01*
X88792004Y-59249403D01*
X88791996Y-59249403D01*
X88611630Y-59269724D01*
X88611625Y-59269725D01*
X88440293Y-59329677D01*
X88286601Y-59426249D01*
X88158249Y-59554601D01*
X88061677Y-59708293D01*
X88001725Y-59879625D01*
X88001724Y-59879630D01*
X87981403Y-60059996D01*
X83931145Y-60059996D01*
X83847398Y-59976249D01*
X83693706Y-59879677D01*
X83522374Y-59819725D01*
X83522369Y-59819724D01*
X83342004Y-59799403D01*
X83341996Y-59799403D01*
X83161630Y-59819724D01*
X83161625Y-59819725D01*
X82990293Y-59879677D01*
X82836601Y-59976249D01*
X82708249Y-60104601D01*
X82611677Y-60258293D01*
X82551725Y-60429625D01*
X82551724Y-60429630D01*
X82531403Y-60609996D01*
X25242000Y-60609996D01*
X25242000Y-56759996D01*
X50781403Y-56759996D01*
X50781403Y-56760003D01*
X50801724Y-56940369D01*
X50801725Y-56940374D01*
X50861677Y-57111706D01*
X50954859Y-57260003D01*
X50958250Y-57265399D01*
X51086601Y-57393750D01*
X51112097Y-57409770D01*
X51158387Y-57462103D01*
X51169037Y-57531157D01*
X51151119Y-57580736D01*
X51086677Y-57683293D01*
X51026725Y-57854625D01*
X51026724Y-57854630D01*
X51006403Y-58034996D01*
X51006403Y-58035003D01*
X51026724Y-58215369D01*
X51026725Y-58215374D01*
X51086677Y-58386706D01*
X51183249Y-58540398D01*
X51311601Y-58668750D01*
X51425590Y-58740375D01*
X51465295Y-58765323D01*
X51574396Y-58803499D01*
X51636625Y-58825274D01*
X51636630Y-58825275D01*
X51816996Y-58845597D01*
X51817000Y-58845597D01*
X51817004Y-58845597D01*
X51997369Y-58825275D01*
X51997372Y-58825274D01*
X51997375Y-58825274D01*
X52168705Y-58765323D01*
X52322399Y-58668750D01*
X52331153Y-58659996D01*
X82531403Y-58659996D01*
X82531403Y-58660003D01*
X82551724Y-58840369D01*
X82551725Y-58840374D01*
X82611677Y-59011706D01*
X82708249Y-59165398D01*
X82836601Y-59293750D01*
X82931989Y-59353687D01*
X82990295Y-59390323D01*
X83102591Y-59429617D01*
X83161625Y-59450274D01*
X83161630Y-59450275D01*
X83341996Y-59470597D01*
X83342000Y-59470597D01*
X83342004Y-59470597D01*
X83522369Y-59450275D01*
X83522372Y-59450274D01*
X83522375Y-59450274D01*
X83693705Y-59390323D01*
X83847399Y-59293750D01*
X83975750Y-59165399D01*
X84072323Y-59011705D01*
X84128827Y-58850226D01*
X84169549Y-58793449D01*
X84234502Y-58767702D01*
X84303063Y-58781158D01*
X84333550Y-58803499D01*
X84436601Y-58906550D01*
X84584374Y-58999403D01*
X84590295Y-59003123D01*
X84713616Y-59046275D01*
X84761625Y-59063074D01*
X84761630Y-59063075D01*
X84844273Y-59072386D01*
X84897217Y-59078351D01*
X84961632Y-59105417D01*
X85001187Y-59163011D01*
X85006555Y-59187687D01*
X85018124Y-59290370D01*
X85018125Y-59290374D01*
X85078077Y-59461706D01*
X85174649Y-59615398D01*
X85303001Y-59743750D01*
X85423913Y-59819725D01*
X85456695Y-59840323D01*
X85569014Y-59879625D01*
X85628025Y-59900274D01*
X85628030Y-59900275D01*
X85808396Y-59920597D01*
X85808400Y-59920597D01*
X85808404Y-59920597D01*
X85988769Y-59900275D01*
X85988772Y-59900274D01*
X85988775Y-59900274D01*
X86160105Y-59840323D01*
X86313799Y-59743750D01*
X86442150Y-59615399D01*
X86538723Y-59461705D01*
X86598674Y-59290375D01*
X86601001Y-59269724D01*
X86618997Y-59110003D01*
X86618997Y-59109996D01*
X86598675Y-58929630D01*
X86598674Y-58929625D01*
X86592404Y-58911706D01*
X86538723Y-58758295D01*
X86527462Y-58740374D01*
X86442150Y-58604601D01*
X86313798Y-58476249D01*
X86160106Y-58379677D01*
X85988774Y-58319725D01*
X85988769Y-58319724D01*
X85853181Y-58304448D01*
X85788767Y-58277382D01*
X85749212Y-58219787D01*
X85743844Y-58195111D01*
X85732275Y-58092430D01*
X85732274Y-58092425D01*
X85720960Y-58060091D01*
X85672323Y-57921095D01*
X85640045Y-57869726D01*
X85602514Y-57809996D01*
X92881403Y-57809996D01*
X92881403Y-57810003D01*
X92901724Y-57990369D01*
X92901725Y-57990374D01*
X92961677Y-58161706D01*
X93058249Y-58315398D01*
X93186601Y-58443750D01*
X93297719Y-58513571D01*
X93340295Y-58540323D01*
X93511625Y-58600274D01*
X93511630Y-58600275D01*
X93691996Y-58620597D01*
X93692000Y-58620597D01*
X93692004Y-58620597D01*
X93872369Y-58600275D01*
X93872372Y-58600274D01*
X93872375Y-58600274D01*
X94043705Y-58540323D01*
X94197399Y-58443750D01*
X94325750Y-58315399D01*
X94422323Y-58161705D01*
X94430562Y-58138159D01*
X94471283Y-58081382D01*
X94536235Y-58055634D01*
X94561486Y-58055891D01*
X94592494Y-58059385D01*
X94691997Y-58070597D01*
X94692000Y-58070597D01*
X94692004Y-58070597D01*
X94872369Y-58050275D01*
X94872372Y-58050274D01*
X94872375Y-58050274D01*
X95043705Y-57990323D01*
X95197399Y-57893750D01*
X95325750Y-57765399D01*
X95422323Y-57611705D01*
X95482274Y-57440375D01*
X95484728Y-57418597D01*
X95502597Y-57260003D01*
X95502597Y-57259996D01*
X95482275Y-57079630D01*
X95482274Y-57079625D01*
X95461314Y-57019724D01*
X95422323Y-56908295D01*
X95422320Y-56908291D01*
X95325750Y-56754601D01*
X95197398Y-56626249D01*
X95043706Y-56529677D01*
X94872374Y-56469725D01*
X94872369Y-56469724D01*
X94786025Y-56459996D01*
X100481403Y-56459996D01*
X100481403Y-56460003D01*
X100501724Y-56640369D01*
X100501725Y-56640374D01*
X100561677Y-56811706D01*
X100658249Y-56965398D01*
X100786601Y-57093750D01*
X100923329Y-57179663D01*
X100940295Y-57190323D01*
X101008709Y-57214262D01*
X101111625Y-57250274D01*
X101111630Y-57250275D01*
X101291996Y-57270597D01*
X101292000Y-57270597D01*
X101292004Y-57270597D01*
X101386092Y-57259996D01*
X102481403Y-57259996D01*
X102481403Y-57260003D01*
X102501724Y-57440369D01*
X102501725Y-57440374D01*
X102561677Y-57611706D01*
X102658249Y-57765398D01*
X102786601Y-57893750D01*
X102939629Y-57989905D01*
X102940295Y-57990323D01*
X103111625Y-58050274D01*
X103137834Y-58053227D01*
X103202247Y-58080292D01*
X103241804Y-58137885D01*
X103243943Y-58207722D01*
X103240994Y-58217401D01*
X103201726Y-58329622D01*
X103201724Y-58329630D01*
X103181403Y-58509996D01*
X103181403Y-58510003D01*
X103201724Y-58690369D01*
X103201725Y-58690374D01*
X103261677Y-58861706D01*
X103358249Y-59015398D01*
X103445571Y-59102720D01*
X103479056Y-59164043D01*
X103474072Y-59233735D01*
X103462890Y-59256363D01*
X103461677Y-59258293D01*
X103461676Y-59258295D01*
X103401727Y-59429617D01*
X103401724Y-59429630D01*
X103381403Y-59609996D01*
X103381403Y-59610003D01*
X103401724Y-59790369D01*
X103401725Y-59790374D01*
X103461677Y-59961706D01*
X103551465Y-60104601D01*
X103558250Y-60115399D01*
X103686601Y-60243750D01*
X103840295Y-60340323D01*
X104009136Y-60399403D01*
X104011625Y-60400274D01*
X104011630Y-60400275D01*
X104191996Y-60420597D01*
X104192000Y-60420597D01*
X104192004Y-60420597D01*
X104372369Y-60400275D01*
X104372372Y-60400274D01*
X104372375Y-60400274D01*
X104543705Y-60340323D01*
X104697399Y-60243750D01*
X104825750Y-60115399D01*
X104922323Y-59961705D01*
X104975408Y-59809996D01*
X112731403Y-59809996D01*
X112731403Y-59810003D01*
X112751724Y-59990369D01*
X112751725Y-59990374D01*
X112811677Y-60161706D01*
X112908249Y-60315398D01*
X112908250Y-60315399D01*
X113036601Y-60443750D01*
X113190295Y-60540323D01*
X113361625Y-60600274D01*
X113361630Y-60600275D01*
X113541996Y-60620597D01*
X113542000Y-60620597D01*
X113542004Y-60620597D01*
X113722369Y-60600275D01*
X113722372Y-60600274D01*
X113722375Y-60600274D01*
X113893705Y-60540323D01*
X114047399Y-60443750D01*
X114154319Y-60336830D01*
X114215642Y-60303345D01*
X114285334Y-60308329D01*
X114329681Y-60336830D01*
X114436601Y-60443750D01*
X114590295Y-60540323D01*
X114761625Y-60600274D01*
X114761630Y-60600275D01*
X114941996Y-60620597D01*
X114942000Y-60620597D01*
X114942004Y-60620597D01*
X115122369Y-60600275D01*
X115122372Y-60600274D01*
X115122375Y-60600274D01*
X115293705Y-60540323D01*
X115447399Y-60443750D01*
X115575750Y-60315399D01*
X115672323Y-60161705D01*
X115694193Y-60099203D01*
X115734912Y-60042429D01*
X115799865Y-60016680D01*
X115852185Y-60023116D01*
X115883769Y-60034168D01*
X115883773Y-60034168D01*
X115883777Y-60034169D01*
X116064140Y-60054491D01*
X116064144Y-60054491D01*
X116064148Y-60054491D01*
X116244513Y-60034169D01*
X116244516Y-60034168D01*
X116244519Y-60034168D01*
X116415849Y-59974217D01*
X116569543Y-59877644D01*
X116697894Y-59749293D01*
X116794467Y-59595599D01*
X116852491Y-59429775D01*
X116893212Y-59373001D01*
X116933857Y-59353687D01*
X116933468Y-59352574D01*
X116940041Y-59350274D01*
X117111371Y-59290323D01*
X117265065Y-59193750D01*
X117393416Y-59065399D01*
X117489989Y-58911705D01*
X117549940Y-58740375D01*
X117553170Y-58711706D01*
X117570263Y-58560003D01*
X117570263Y-58559996D01*
X117549941Y-58379630D01*
X117549940Y-58379625D01*
X117543073Y-58360000D01*
X117489989Y-58208295D01*
X117471977Y-58179630D01*
X117393416Y-58054601D01*
X117265064Y-57926249D01*
X117111372Y-57829677D01*
X116940040Y-57769725D01*
X116940035Y-57769724D01*
X116759670Y-57749403D01*
X116759662Y-57749403D01*
X116579296Y-57769724D01*
X116579291Y-57769725D01*
X116407959Y-57829677D01*
X116254267Y-57926249D01*
X116125915Y-58054601D01*
X116029342Y-58208295D01*
X115986889Y-58329622D01*
X115976261Y-58359996D01*
X115971320Y-58374116D01*
X115930598Y-58430892D01*
X115889953Y-58450214D01*
X115890341Y-58451321D01*
X115883771Y-58453619D01*
X115883769Y-58453620D01*
X115820665Y-58475701D01*
X115712439Y-58513570D01*
X115558745Y-58610143D01*
X115430393Y-58738495D01*
X115333819Y-58892191D01*
X115311950Y-58954689D01*
X115271228Y-59011465D01*
X115206276Y-59037212D01*
X115153955Y-59030776D01*
X115122372Y-59019725D01*
X114942004Y-58999403D01*
X114941996Y-58999403D01*
X114761630Y-59019724D01*
X114761625Y-59019725D01*
X114590293Y-59079677D01*
X114436601Y-59176249D01*
X114329681Y-59283170D01*
X114268358Y-59316655D01*
X114198666Y-59311671D01*
X114154319Y-59283170D01*
X114047398Y-59176249D01*
X113893706Y-59079677D01*
X113722374Y-59019725D01*
X113722369Y-59019724D01*
X113542004Y-58999403D01*
X113541996Y-58999403D01*
X113361630Y-59019724D01*
X113361625Y-59019725D01*
X113190293Y-59079677D01*
X113036601Y-59176249D01*
X112908249Y-59304601D01*
X112811677Y-59458293D01*
X112751725Y-59629625D01*
X112751724Y-59629630D01*
X112731403Y-59809996D01*
X104975408Y-59809996D01*
X104982274Y-59790375D01*
X104986903Y-59749292D01*
X105002597Y-59610003D01*
X105002597Y-59609996D01*
X104982275Y-59429630D01*
X104982274Y-59429625D01*
X104922322Y-59258292D01*
X104894766Y-59214438D01*
X104875765Y-59147201D01*
X104896132Y-59080366D01*
X104949400Y-59035151D01*
X105018656Y-59025913D01*
X105065732Y-59043472D01*
X105140292Y-59090322D01*
X105311625Y-59150274D01*
X105311630Y-59150275D01*
X105491996Y-59170597D01*
X105492000Y-59170597D01*
X105492004Y-59170597D01*
X105672369Y-59150275D01*
X105672372Y-59150274D01*
X105672375Y-59150274D01*
X105843705Y-59090323D01*
X105997399Y-58993750D01*
X106125750Y-58865399D01*
X106222323Y-58711705D01*
X106282274Y-58540375D01*
X106285696Y-58510003D01*
X106302597Y-58360003D01*
X106302597Y-58359996D01*
X106290879Y-58255996D01*
X106885403Y-58255996D01*
X106885403Y-58256003D01*
X106905724Y-58436369D01*
X106905725Y-58436374D01*
X106965677Y-58607706D01*
X107062249Y-58761398D01*
X107190601Y-58889750D01*
X107225543Y-58911706D01*
X107344295Y-58986323D01*
X107483837Y-59035151D01*
X107515625Y-59046274D01*
X107515630Y-59046275D01*
X107695996Y-59066597D01*
X107696000Y-59066597D01*
X107696004Y-59066597D01*
X107876369Y-59046275D01*
X107876372Y-59046274D01*
X107876375Y-59046274D01*
X108047705Y-58986323D01*
X108201399Y-58889750D01*
X108329750Y-58761399D01*
X108426323Y-58607705D01*
X108486274Y-58436375D01*
X108486892Y-58430892D01*
X108506597Y-58256003D01*
X108506597Y-58255996D01*
X108486275Y-58075630D01*
X108486274Y-58075625D01*
X108468997Y-58026250D01*
X108426323Y-57904295D01*
X108404600Y-57869724D01*
X108329750Y-57750601D01*
X108201398Y-57622249D01*
X108047706Y-57525677D01*
X107876374Y-57465725D01*
X107876369Y-57465724D01*
X107696004Y-57445403D01*
X107695996Y-57445403D01*
X107515630Y-57465724D01*
X107515625Y-57465725D01*
X107344293Y-57525677D01*
X107190601Y-57622249D01*
X107062249Y-57750601D01*
X106965677Y-57904293D01*
X106905725Y-58075625D01*
X106905724Y-58075630D01*
X106885403Y-58255996D01*
X106290879Y-58255996D01*
X106282275Y-58179630D01*
X106282274Y-58179625D01*
X106276004Y-58161706D01*
X106222323Y-58008295D01*
X106211062Y-57990374D01*
X106125750Y-57854601D01*
X106003152Y-57732003D01*
X105969667Y-57670680D01*
X105974651Y-57600988D01*
X106016523Y-57545055D01*
X106024856Y-57539331D01*
X106067266Y-57512684D01*
X106097395Y-57493753D01*
X106097396Y-57493751D01*
X106097399Y-57493750D01*
X106225750Y-57365399D01*
X106322323Y-57211705D01*
X106382274Y-57040375D01*
X106382275Y-57040369D01*
X106402597Y-56860003D01*
X106402597Y-56859996D01*
X106382275Y-56679630D01*
X106382274Y-56679625D01*
X106347282Y-56579625D01*
X106322323Y-56508295D01*
X106304918Y-56480596D01*
X106260557Y-56409996D01*
X111881403Y-56409996D01*
X111881403Y-56410003D01*
X111901724Y-56590369D01*
X111901725Y-56590374D01*
X111961677Y-56761706D01*
X112058249Y-56915398D01*
X112186601Y-57043750D01*
X112331027Y-57134500D01*
X112340295Y-57140323D01*
X112452722Y-57179663D01*
X112511625Y-57200274D01*
X112511630Y-57200275D01*
X112691996Y-57220597D01*
X112692000Y-57220597D01*
X112692004Y-57220597D01*
X112872369Y-57200275D01*
X112872372Y-57200274D01*
X112872375Y-57200274D01*
X113043705Y-57140323D01*
X113197399Y-57043750D01*
X113325750Y-56915399D01*
X113422323Y-56761705D01*
X113482274Y-56590375D01*
X113483485Y-56579630D01*
X113502597Y-56410003D01*
X113502597Y-56409996D01*
X113482275Y-56229630D01*
X113482274Y-56229625D01*
X113481093Y-56226249D01*
X113422323Y-56058295D01*
X113397885Y-56019403D01*
X113325750Y-55904601D01*
X113197398Y-55776249D01*
X113043706Y-55679677D01*
X112872374Y-55619725D01*
X112872369Y-55619724D01*
X112692004Y-55599403D01*
X112691996Y-55599403D01*
X112511630Y-55619724D01*
X112511625Y-55619725D01*
X112340293Y-55679677D01*
X112186601Y-55776249D01*
X112058249Y-55904601D01*
X111961677Y-56058293D01*
X111901725Y-56229625D01*
X111901724Y-56229630D01*
X111881403Y-56409996D01*
X106260557Y-56409996D01*
X106225750Y-56354601D01*
X106097398Y-56226249D01*
X105943706Y-56129677D01*
X105772374Y-56069725D01*
X105772369Y-56069724D01*
X105592004Y-56049403D01*
X105591996Y-56049403D01*
X105411630Y-56069724D01*
X105411625Y-56069725D01*
X105240293Y-56129677D01*
X105086601Y-56226249D01*
X104958249Y-56354601D01*
X104861676Y-56508295D01*
X104801724Y-56679630D01*
X104800507Y-56690437D01*
X104773440Y-56754851D01*
X104743260Y-56781546D01*
X104588274Y-56878931D01*
X104588272Y-56878932D01*
X104459919Y-57007285D01*
X104363345Y-57160980D01*
X104337101Y-57235981D01*
X104296379Y-57292756D01*
X104231426Y-57318503D01*
X104162864Y-57305046D01*
X104112462Y-57256658D01*
X104096840Y-57208907D01*
X104095867Y-57200275D01*
X104086717Y-57119061D01*
X104082275Y-57079630D01*
X104082274Y-57079625D01*
X104061314Y-57019724D01*
X104022323Y-56908295D01*
X104022320Y-56908291D01*
X103925750Y-56754601D01*
X103797398Y-56626249D01*
X103643706Y-56529677D01*
X103472374Y-56469725D01*
X103472369Y-56469724D01*
X103292004Y-56449403D01*
X103291996Y-56449403D01*
X103111630Y-56469724D01*
X103111625Y-56469725D01*
X102940293Y-56529677D01*
X102786601Y-56626249D01*
X102658249Y-56754601D01*
X102561677Y-56908293D01*
X102501725Y-57079625D01*
X102501724Y-57079630D01*
X102481403Y-57259996D01*
X101386092Y-57259996D01*
X101472369Y-57250275D01*
X101472372Y-57250274D01*
X101472375Y-57250274D01*
X101643705Y-57190323D01*
X101797399Y-57093750D01*
X101925750Y-56965399D01*
X102022323Y-56811705D01*
X102082274Y-56640375D01*
X102082275Y-56640369D01*
X102102597Y-56460003D01*
X102102597Y-56459996D01*
X102082275Y-56279630D01*
X102082274Y-56279625D01*
X102072728Y-56252344D01*
X102022323Y-56108295D01*
X101999099Y-56071335D01*
X101925750Y-55954601D01*
X101797398Y-55826249D01*
X101643706Y-55729677D01*
X101472374Y-55669725D01*
X101472369Y-55669724D01*
X101292004Y-55649403D01*
X101291996Y-55649403D01*
X101111630Y-55669724D01*
X101111625Y-55669725D01*
X100940293Y-55729677D01*
X100786601Y-55826249D01*
X100658249Y-55954601D01*
X100561677Y-56108293D01*
X100501725Y-56279625D01*
X100501724Y-56279630D01*
X100481403Y-56459996D01*
X94786025Y-56459996D01*
X94692004Y-56449403D01*
X94691996Y-56449403D01*
X94511630Y-56469724D01*
X94511625Y-56469725D01*
X94340293Y-56529677D01*
X94186601Y-56626249D01*
X94058249Y-56754601D01*
X93961678Y-56908291D01*
X93953437Y-56931844D01*
X93912714Y-56988619D01*
X93847761Y-57014365D01*
X93822513Y-57014107D01*
X93692004Y-56999403D01*
X93691996Y-56999403D01*
X93511630Y-57019724D01*
X93511625Y-57019725D01*
X93340293Y-57079677D01*
X93186601Y-57176249D01*
X93058249Y-57304601D01*
X92961677Y-57458293D01*
X92901725Y-57629625D01*
X92901724Y-57629630D01*
X92881403Y-57809996D01*
X85602514Y-57809996D01*
X85575750Y-57767401D01*
X85447398Y-57639049D01*
X85293706Y-57542477D01*
X85122374Y-57482525D01*
X85122369Y-57482524D01*
X84942004Y-57462203D01*
X84941996Y-57462203D01*
X84761630Y-57482524D01*
X84761625Y-57482525D01*
X84590293Y-57542477D01*
X84436601Y-57639049D01*
X84308249Y-57767401D01*
X84211675Y-57921097D01*
X84155171Y-58082574D01*
X84114449Y-58139350D01*
X84049496Y-58165097D01*
X83980935Y-58151640D01*
X83950449Y-58129300D01*
X83847398Y-58026249D01*
X83693706Y-57929677D01*
X83522374Y-57869725D01*
X83522369Y-57869724D01*
X83342004Y-57849403D01*
X83341996Y-57849403D01*
X83161630Y-57869724D01*
X83161625Y-57869725D01*
X82990293Y-57929677D01*
X82836601Y-58026249D01*
X82708249Y-58154601D01*
X82611677Y-58308293D01*
X82551725Y-58479625D01*
X82551724Y-58479630D01*
X82531403Y-58659996D01*
X52331153Y-58659996D01*
X52450750Y-58540399D01*
X52547323Y-58386705D01*
X52607274Y-58215375D01*
X52608072Y-58208293D01*
X52627597Y-58035003D01*
X52627597Y-58034996D01*
X52607275Y-57854630D01*
X52607274Y-57854625D01*
X52579653Y-57775689D01*
X52547323Y-57683295D01*
X52543315Y-57676917D01*
X52450750Y-57529601D01*
X52322400Y-57401251D01*
X52322399Y-57401250D01*
X52296899Y-57385227D01*
X52250610Y-57332892D01*
X52239963Y-57263838D01*
X52257880Y-57214264D01*
X52308000Y-57134500D01*
X52322322Y-57111707D01*
X52322323Y-57111705D01*
X52382274Y-56940375D01*
X52382275Y-56940369D01*
X52402597Y-56760003D01*
X52402597Y-56759996D01*
X52385471Y-56607996D01*
X63883403Y-56607996D01*
X63883403Y-56608003D01*
X63903724Y-56788369D01*
X63903725Y-56788374D01*
X63963677Y-56959706D01*
X64060249Y-57113398D01*
X64188601Y-57241750D01*
X64333651Y-57332892D01*
X64342295Y-57338323D01*
X64419671Y-57365398D01*
X64513625Y-57398274D01*
X64513630Y-57398275D01*
X64693996Y-57418597D01*
X64694000Y-57418597D01*
X64694004Y-57418597D01*
X64874369Y-57398275D01*
X64874372Y-57398274D01*
X64874375Y-57398274D01*
X65045705Y-57338323D01*
X65199399Y-57241750D01*
X65327750Y-57113399D01*
X65424323Y-56959705D01*
X65484274Y-56788375D01*
X65484952Y-56782361D01*
X65504597Y-56608003D01*
X65504597Y-56607996D01*
X65484275Y-56427630D01*
X65484274Y-56427625D01*
X65432488Y-56279630D01*
X65424323Y-56256295D01*
X65421840Y-56252344D01*
X65327750Y-56102601D01*
X65199398Y-55974249D01*
X65045706Y-55877677D01*
X64874374Y-55817725D01*
X64874369Y-55817724D01*
X64694004Y-55797403D01*
X64693996Y-55797403D01*
X64513630Y-55817724D01*
X64513625Y-55817725D01*
X64342293Y-55877677D01*
X64188601Y-55974249D01*
X64060249Y-56102601D01*
X63963677Y-56256293D01*
X63903725Y-56427625D01*
X63903724Y-56427630D01*
X63883403Y-56607996D01*
X52385471Y-56607996D01*
X52382275Y-56579630D01*
X52382274Y-56579625D01*
X52364796Y-56529677D01*
X52322323Y-56408295D01*
X52225750Y-56254601D01*
X52097399Y-56126250D01*
X52097398Y-56126249D01*
X51943706Y-56029677D01*
X51772374Y-55969725D01*
X51772369Y-55969724D01*
X51592004Y-55949403D01*
X51591996Y-55949403D01*
X51411630Y-55969724D01*
X51411625Y-55969725D01*
X51240293Y-56029677D01*
X51086601Y-56126249D01*
X50958249Y-56254601D01*
X50861677Y-56408293D01*
X50801725Y-56579625D01*
X50801724Y-56579630D01*
X50781403Y-56759996D01*
X25242000Y-56759996D01*
X25242000Y-55783999D01*
X67407341Y-55783999D01*
X67407341Y-55784000D01*
X67427936Y-56019403D01*
X67427938Y-56019413D01*
X67489094Y-56247655D01*
X67489096Y-56247659D01*
X67489097Y-56247663D01*
X67538963Y-56354601D01*
X67588965Y-56461830D01*
X67588967Y-56461834D01*
X67697281Y-56616521D01*
X67724505Y-56655401D01*
X67891599Y-56822495D01*
X67972198Y-56878931D01*
X68085165Y-56958032D01*
X68085167Y-56958033D01*
X68085170Y-56958035D01*
X68299337Y-57057903D01*
X68527592Y-57119063D01*
X68704034Y-57134500D01*
X68762999Y-57139659D01*
X68763000Y-57139659D01*
X68763001Y-57139659D01*
X68821966Y-57134500D01*
X68998408Y-57119063D01*
X69226663Y-57057903D01*
X69440830Y-56958035D01*
X69634401Y-56822495D01*
X69756329Y-56700566D01*
X69817648Y-56667084D01*
X69887340Y-56672068D01*
X69943274Y-56713939D01*
X69960189Y-56744917D01*
X70009202Y-56876328D01*
X70009206Y-56876335D01*
X70095452Y-56991544D01*
X70095455Y-56991547D01*
X70210664Y-57077793D01*
X70210671Y-57077797D01*
X70345517Y-57128091D01*
X70345516Y-57128091D01*
X70352444Y-57128835D01*
X70405127Y-57134500D01*
X72200872Y-57134499D01*
X72260483Y-57128091D01*
X72395331Y-57077796D01*
X72510546Y-56991546D01*
X72596796Y-56876331D01*
X72647091Y-56741483D01*
X72653500Y-56681873D01*
X72653499Y-55409996D01*
X78831403Y-55409996D01*
X78831403Y-55410003D01*
X78851725Y-55590372D01*
X78888001Y-55694046D01*
X78891562Y-55763825D01*
X78888001Y-55775954D01*
X78851725Y-55879627D01*
X78831403Y-56059996D01*
X78831403Y-56060003D01*
X78851724Y-56240369D01*
X78851725Y-56240374D01*
X78911677Y-56411706D01*
X79008249Y-56565398D01*
X79136601Y-56693750D01*
X79287194Y-56788375D01*
X79290295Y-56790323D01*
X79382246Y-56822498D01*
X79461625Y-56850274D01*
X79461630Y-56850275D01*
X79641996Y-56870597D01*
X79642000Y-56870597D01*
X79642004Y-56870597D01*
X79822369Y-56850275D01*
X79822372Y-56850274D01*
X79822375Y-56850274D01*
X79993705Y-56790323D01*
X80147399Y-56693750D01*
X80275750Y-56565399D01*
X80372323Y-56411705D01*
X80432274Y-56240375D01*
X80433485Y-56229630D01*
X80452597Y-56060003D01*
X80452597Y-56059996D01*
X80432275Y-55879633D01*
X80432274Y-55879626D01*
X80431592Y-55877677D01*
X80395996Y-55775951D01*
X80392434Y-55706177D01*
X80395990Y-55694066D01*
X80432274Y-55590375D01*
X80451222Y-55422203D01*
X80452597Y-55410003D01*
X80452597Y-55409996D01*
X87788403Y-55409996D01*
X87788403Y-55410003D01*
X87808725Y-55590372D01*
X87845001Y-55694046D01*
X87848562Y-55763825D01*
X87845001Y-55775954D01*
X87808725Y-55879627D01*
X87788403Y-56059996D01*
X87788403Y-56060003D01*
X87808724Y-56240369D01*
X87808725Y-56240374D01*
X87868677Y-56411706D01*
X87965249Y-56565398D01*
X88093601Y-56693750D01*
X88244194Y-56788375D01*
X88247295Y-56790323D01*
X88339246Y-56822498D01*
X88418625Y-56850274D01*
X88418630Y-56850275D01*
X88598996Y-56870597D01*
X88599000Y-56870597D01*
X88599004Y-56870597D01*
X88779369Y-56850275D01*
X88779372Y-56850274D01*
X88779375Y-56850274D01*
X88950705Y-56790323D01*
X89104399Y-56693750D01*
X89232750Y-56565399D01*
X89329323Y-56411705D01*
X89389274Y-56240375D01*
X89390485Y-56229630D01*
X89409597Y-56060003D01*
X89409597Y-56059996D01*
X89389275Y-55879633D01*
X89389274Y-55879626D01*
X89388592Y-55877677D01*
X89352996Y-55775951D01*
X89349434Y-55706177D01*
X89352990Y-55694066D01*
X89389274Y-55590375D01*
X89408222Y-55422203D01*
X89409597Y-55410003D01*
X89409597Y-55409996D01*
X89389275Y-55229630D01*
X89389274Y-55229625D01*
X89351123Y-55120597D01*
X89329323Y-55058295D01*
X89322478Y-55047402D01*
X89232750Y-54904601D01*
X89104398Y-54776249D01*
X88950706Y-54679677D01*
X88779374Y-54619725D01*
X88779369Y-54619724D01*
X88599004Y-54599403D01*
X88598996Y-54599403D01*
X88418630Y-54619724D01*
X88418625Y-54619725D01*
X88247293Y-54679677D01*
X88093601Y-54776249D01*
X87965249Y-54904601D01*
X87868677Y-55058293D01*
X87808725Y-55229625D01*
X87808724Y-55229630D01*
X87788403Y-55409996D01*
X80452597Y-55409996D01*
X80432275Y-55229630D01*
X80432274Y-55229625D01*
X80394123Y-55120597D01*
X80372323Y-55058295D01*
X80365478Y-55047402D01*
X80275750Y-54904601D01*
X80147398Y-54776249D01*
X79993706Y-54679677D01*
X79822374Y-54619725D01*
X79822369Y-54619724D01*
X79642004Y-54599403D01*
X79641996Y-54599403D01*
X79461630Y-54619724D01*
X79461625Y-54619725D01*
X79290293Y-54679677D01*
X79136601Y-54776249D01*
X79008249Y-54904601D01*
X78911677Y-55058293D01*
X78851725Y-55229625D01*
X78851724Y-55229630D01*
X78831403Y-55409996D01*
X72653499Y-55409996D01*
X72653499Y-54886128D01*
X72647091Y-54826517D01*
X72645810Y-54823083D01*
X72596797Y-54691671D01*
X72596793Y-54691664D01*
X72510547Y-54576455D01*
X72510544Y-54576452D01*
X72395335Y-54490206D01*
X72395328Y-54490202D01*
X72260482Y-54439908D01*
X72260483Y-54439908D01*
X72200883Y-54433501D01*
X72200881Y-54433500D01*
X72200873Y-54433500D01*
X72200864Y-54433500D01*
X70405129Y-54433500D01*
X70405123Y-54433501D01*
X70345516Y-54439908D01*
X70210671Y-54490202D01*
X70210664Y-54490206D01*
X70095455Y-54576452D01*
X70095452Y-54576455D01*
X70009206Y-54691664D01*
X70009203Y-54691669D01*
X69960189Y-54823083D01*
X69918317Y-54879016D01*
X69852853Y-54903433D01*
X69784580Y-54888581D01*
X69756326Y-54867430D01*
X69634402Y-54745506D01*
X69634395Y-54745501D01*
X69440834Y-54609967D01*
X69440830Y-54609965D01*
X69418180Y-54599403D01*
X69226663Y-54510097D01*
X69226659Y-54510096D01*
X69226655Y-54510094D01*
X68998413Y-54448938D01*
X68998403Y-54448936D01*
X68763001Y-54428341D01*
X68762999Y-54428341D01*
X68527596Y-54448936D01*
X68527586Y-54448938D01*
X68299344Y-54510094D01*
X68299335Y-54510098D01*
X68085171Y-54609964D01*
X68085169Y-54609965D01*
X67891597Y-54745505D01*
X67724505Y-54912597D01*
X67588965Y-55106169D01*
X67588964Y-55106171D01*
X67489098Y-55320335D01*
X67489094Y-55320344D01*
X67427938Y-55548586D01*
X67427936Y-55548596D01*
X67407341Y-55783999D01*
X25242000Y-55783999D01*
X25242000Y-54909996D01*
X62231403Y-54909996D01*
X62231403Y-54910003D01*
X62251724Y-55090369D01*
X62251725Y-55090374D01*
X62311677Y-55261706D01*
X62408249Y-55415398D01*
X62536601Y-55543750D01*
X62663793Y-55623671D01*
X62690295Y-55640323D01*
X62774321Y-55669725D01*
X62861625Y-55700274D01*
X62861630Y-55700275D01*
X63041996Y-55720597D01*
X63042000Y-55720597D01*
X63042004Y-55720597D01*
X63222369Y-55700275D01*
X63222372Y-55700274D01*
X63222375Y-55700274D01*
X63393705Y-55640323D01*
X63547399Y-55543750D01*
X63675750Y-55415399D01*
X63772323Y-55261705D01*
X63832274Y-55090375D01*
X63832275Y-55090369D01*
X63852597Y-54910003D01*
X63852597Y-54909996D01*
X63832275Y-54729630D01*
X63832274Y-54729625D01*
X63800792Y-54639655D01*
X63772323Y-54558295D01*
X63698228Y-54440375D01*
X63675750Y-54404601D01*
X63547398Y-54276249D01*
X63393706Y-54179677D01*
X63222374Y-54119725D01*
X63222369Y-54119724D01*
X63042004Y-54099403D01*
X63041996Y-54099403D01*
X62861630Y-54119724D01*
X62861625Y-54119725D01*
X62690293Y-54179677D01*
X62536601Y-54276249D01*
X62408249Y-54404601D01*
X62311677Y-54558293D01*
X62251725Y-54729625D01*
X62251724Y-54729630D01*
X62231403Y-54909996D01*
X25242000Y-54909996D01*
X25242000Y-52259996D01*
X74781403Y-52259996D01*
X74781403Y-52260003D01*
X74801725Y-52440372D01*
X74838001Y-52544046D01*
X74841562Y-52613825D01*
X74838001Y-52625954D01*
X74801725Y-52729627D01*
X74781403Y-52909996D01*
X74781403Y-52910003D01*
X74801725Y-53090372D01*
X74846749Y-53219046D01*
X74850310Y-53288825D01*
X74846749Y-53300954D01*
X74801725Y-53429627D01*
X74781403Y-53609996D01*
X74781403Y-53610003D01*
X74801724Y-53790369D01*
X74801725Y-53790374D01*
X74861677Y-53961706D01*
X74958249Y-54115398D01*
X75086601Y-54243750D01*
X75204518Y-54317843D01*
X75240295Y-54340323D01*
X75351305Y-54379167D01*
X75411625Y-54400274D01*
X75411630Y-54400275D01*
X75591996Y-54420597D01*
X75592000Y-54420597D01*
X75592004Y-54420597D01*
X75772369Y-54400275D01*
X75772372Y-54400274D01*
X75772375Y-54400274D01*
X75943705Y-54340323D01*
X76097399Y-54243750D01*
X76225750Y-54115399D01*
X76322323Y-53961705D01*
X76382274Y-53790375D01*
X76385696Y-53760003D01*
X76385697Y-53759996D01*
X81731403Y-53759996D01*
X81731403Y-53760003D01*
X81751724Y-53940369D01*
X81751725Y-53940374D01*
X81811677Y-54111706D01*
X81908249Y-54265398D01*
X81960695Y-54317844D01*
X81994180Y-54379167D01*
X81996234Y-54391641D01*
X82001724Y-54440369D01*
X82061676Y-54611704D01*
X82158249Y-54765398D01*
X82286601Y-54893750D01*
X82312462Y-54910000D01*
X82440295Y-54990323D01*
X82583184Y-55040322D01*
X82611625Y-55050274D01*
X82611630Y-55050275D01*
X82791996Y-55070597D01*
X82792000Y-55070597D01*
X82792004Y-55070597D01*
X82972369Y-55050275D01*
X82972372Y-55050274D01*
X82972375Y-55050274D01*
X83143705Y-54990323D01*
X83297399Y-54893750D01*
X83425750Y-54765399D01*
X83522323Y-54611705D01*
X83582274Y-54440375D01*
X83582327Y-54439908D01*
X83602597Y-54260003D01*
X83602597Y-54259996D01*
X83582275Y-54079630D01*
X83582274Y-54079625D01*
X83539818Y-53958293D01*
X83522323Y-53908295D01*
X83448228Y-53790375D01*
X83425750Y-53754601D01*
X83373303Y-53702154D01*
X83339818Y-53640831D01*
X83337766Y-53628373D01*
X83332274Y-53579625D01*
X83320780Y-53546776D01*
X83317217Y-53476998D01*
X83351946Y-53416370D01*
X83413939Y-53384142D01*
X83478777Y-53388780D01*
X83511621Y-53400273D01*
X83511624Y-53400273D01*
X83511625Y-53400274D01*
X83511626Y-53400274D01*
X83511630Y-53400275D01*
X83691996Y-53420597D01*
X83692000Y-53420597D01*
X83692004Y-53420597D01*
X83872369Y-53400275D01*
X83872370Y-53400274D01*
X83872375Y-53400274D01*
X83904599Y-53388997D01*
X83974375Y-53385435D01*
X83986508Y-53388998D01*
X84161617Y-53450272D01*
X84161623Y-53450273D01*
X84161625Y-53450274D01*
X84161626Y-53450274D01*
X84161630Y-53450275D01*
X84341996Y-53470597D01*
X84342000Y-53470597D01*
X84342004Y-53470597D01*
X84522369Y-53450275D01*
X84522372Y-53450274D01*
X84522375Y-53450274D01*
X84693705Y-53390323D01*
X84696161Y-53388780D01*
X84754177Y-53352326D01*
X84821414Y-53333325D01*
X84888249Y-53353692D01*
X84933464Y-53406960D01*
X84942702Y-53476216D01*
X84937192Y-53498272D01*
X84908724Y-53579628D01*
X84903234Y-53628357D01*
X84876167Y-53692771D01*
X84867697Y-53702152D01*
X84815249Y-53754600D01*
X84718677Y-53908292D01*
X84658725Y-54079625D01*
X84658724Y-54079630D01*
X84638403Y-54259996D01*
X84638403Y-54260003D01*
X84658724Y-54440369D01*
X84658725Y-54440374D01*
X84718677Y-54611706D01*
X84815249Y-54765398D01*
X84943601Y-54893750D01*
X84969462Y-54910000D01*
X85097295Y-54990323D01*
X85240184Y-55040322D01*
X85268625Y-55050274D01*
X85268630Y-55050275D01*
X85448996Y-55070597D01*
X85449000Y-55070597D01*
X85449004Y-55070597D01*
X85629369Y-55050275D01*
X85629372Y-55050274D01*
X85629375Y-55050274D01*
X85800705Y-54990323D01*
X85954399Y-54893750D01*
X86082750Y-54765399D01*
X86179323Y-54611705D01*
X86239274Y-54440375D01*
X86244765Y-54391641D01*
X86271828Y-54327231D01*
X86280291Y-54317857D01*
X86288152Y-54309996D01*
X99131403Y-54309996D01*
X99131403Y-54310003D01*
X99151724Y-54490369D01*
X99151725Y-54490374D01*
X99211677Y-54661706D01*
X99305500Y-54811023D01*
X99308250Y-54815399D01*
X99436601Y-54943750D01*
X99590295Y-55040323D01*
X99733335Y-55090375D01*
X99761625Y-55100274D01*
X99761630Y-55100275D01*
X99941996Y-55120597D01*
X99942000Y-55120597D01*
X99942004Y-55120597D01*
X100122369Y-55100275D01*
X100122372Y-55100274D01*
X100122375Y-55100274D01*
X100293705Y-55040323D01*
X100447399Y-54943750D01*
X100575750Y-54815399D01*
X100672323Y-54661705D01*
X100732274Y-54490375D01*
X100732293Y-54490206D01*
X100752597Y-54310003D01*
X100752597Y-54309996D01*
X100737499Y-54175999D01*
X119726341Y-54175999D01*
X119726341Y-54176000D01*
X119746936Y-54411403D01*
X119746938Y-54411413D01*
X119808094Y-54639655D01*
X119808096Y-54639659D01*
X119808097Y-54639663D01*
X119866729Y-54765399D01*
X119907965Y-54853830D01*
X119907967Y-54853834D01*
X120016281Y-55008521D01*
X120043501Y-55047396D01*
X120043506Y-55047402D01*
X120210597Y-55214493D01*
X120210603Y-55214498D01*
X120396158Y-55344425D01*
X120439783Y-55399002D01*
X120446977Y-55468500D01*
X120415454Y-55530855D01*
X120396158Y-55547575D01*
X120210597Y-55677505D01*
X120043505Y-55844597D01*
X119907965Y-56038169D01*
X119907964Y-56038171D01*
X119808098Y-56252335D01*
X119808094Y-56252344D01*
X119746938Y-56480586D01*
X119746936Y-56480596D01*
X119726341Y-56715999D01*
X119726341Y-56716000D01*
X119746936Y-56951403D01*
X119746938Y-56951413D01*
X119808094Y-57179655D01*
X119808096Y-57179659D01*
X119808097Y-57179663D01*
X119879277Y-57332309D01*
X119907965Y-57393830D01*
X119907967Y-57393834D01*
X120000285Y-57525677D01*
X120043505Y-57587401D01*
X120210599Y-57754495D01*
X120289863Y-57809996D01*
X120404165Y-57890032D01*
X120404167Y-57890033D01*
X120404170Y-57890035D01*
X120618337Y-57989903D01*
X120618343Y-57989904D01*
X120618344Y-57989905D01*
X120673285Y-58004626D01*
X120846592Y-58051063D01*
X121023034Y-58066500D01*
X121081999Y-58071659D01*
X121082000Y-58071659D01*
X121082001Y-58071659D01*
X121140966Y-58066500D01*
X121317408Y-58051063D01*
X121545663Y-57989903D01*
X121759830Y-57890035D01*
X121953401Y-57754495D01*
X122075329Y-57632566D01*
X122136648Y-57599084D01*
X122206340Y-57604068D01*
X122262274Y-57645939D01*
X122279189Y-57676917D01*
X122328202Y-57808328D01*
X122328206Y-57808335D01*
X122414452Y-57923544D01*
X122414455Y-57923547D01*
X122529664Y-58009793D01*
X122529671Y-58009797D01*
X122664517Y-58060091D01*
X122664516Y-58060091D01*
X122671444Y-58060835D01*
X122724127Y-58066500D01*
X124519872Y-58066499D01*
X124579483Y-58060091D01*
X124714331Y-58009796D01*
X124829546Y-57923546D01*
X124915796Y-57808331D01*
X124966091Y-57673483D01*
X124972500Y-57613873D01*
X124972499Y-55818128D01*
X124966091Y-55758517D01*
X124964810Y-55755083D01*
X124915797Y-55623671D01*
X124915793Y-55623664D01*
X124829547Y-55508455D01*
X124829544Y-55508452D01*
X124714335Y-55422206D01*
X124714328Y-55422202D01*
X124582917Y-55373189D01*
X124526983Y-55331318D01*
X124502566Y-55265853D01*
X124517418Y-55197580D01*
X124538563Y-55169332D01*
X124660495Y-55047401D01*
X124796035Y-54853830D01*
X124895903Y-54639663D01*
X124957063Y-54411408D01*
X124977659Y-54176000D01*
X124957063Y-53940592D01*
X124895903Y-53712337D01*
X124796035Y-53498171D01*
X124790425Y-53490158D01*
X124660494Y-53304597D01*
X124493402Y-53137506D01*
X124493395Y-53137501D01*
X124299834Y-53001967D01*
X124299830Y-53001965D01*
X124274864Y-52990323D01*
X124085663Y-52902097D01*
X124085659Y-52902096D01*
X124085655Y-52902094D01*
X123857413Y-52840938D01*
X123857403Y-52840936D01*
X123622001Y-52820341D01*
X123621999Y-52820341D01*
X123386596Y-52840936D01*
X123386586Y-52840938D01*
X123158344Y-52902094D01*
X123158335Y-52902098D01*
X122944171Y-53001964D01*
X122944169Y-53001965D01*
X122750597Y-53137505D01*
X122583505Y-53304597D01*
X122453575Y-53490158D01*
X122398998Y-53533783D01*
X122329500Y-53540977D01*
X122267145Y-53509454D01*
X122250425Y-53490158D01*
X122120494Y-53304597D01*
X121953402Y-53137506D01*
X121953395Y-53137501D01*
X121759834Y-53001967D01*
X121759830Y-53001965D01*
X121734864Y-52990323D01*
X121545663Y-52902097D01*
X121545659Y-52902096D01*
X121545655Y-52902094D01*
X121317413Y-52840938D01*
X121317403Y-52840936D01*
X121082001Y-52820341D01*
X121081999Y-52820341D01*
X120846596Y-52840936D01*
X120846586Y-52840938D01*
X120618344Y-52902094D01*
X120618335Y-52902098D01*
X120404171Y-53001964D01*
X120404169Y-53001965D01*
X120210597Y-53137505D01*
X120043505Y-53304597D01*
X119907965Y-53498169D01*
X119907964Y-53498171D01*
X119808098Y-53712335D01*
X119808094Y-53712344D01*
X119746938Y-53940586D01*
X119746936Y-53940596D01*
X119726341Y-54175999D01*
X100737499Y-54175999D01*
X100732275Y-54129630D01*
X100732274Y-54129625D01*
X100726004Y-54111706D01*
X100672323Y-53958295D01*
X100661199Y-53940592D01*
X100575750Y-53804601D01*
X100447398Y-53676249D01*
X100293706Y-53579677D01*
X100122374Y-53519725D01*
X100122369Y-53519724D01*
X99942004Y-53499403D01*
X99941996Y-53499403D01*
X99761630Y-53519724D01*
X99761625Y-53519725D01*
X99590293Y-53579677D01*
X99436601Y-53676249D01*
X99308249Y-53804601D01*
X99211677Y-53958293D01*
X99151725Y-54129625D01*
X99151724Y-54129630D01*
X99131403Y-54309996D01*
X86288152Y-54309996D01*
X86332750Y-54265399D01*
X86429323Y-54111705D01*
X86489274Y-53940375D01*
X86489275Y-53940369D01*
X86509597Y-53760003D01*
X86509597Y-53759996D01*
X86489275Y-53579630D01*
X86489274Y-53579625D01*
X86453363Y-53476998D01*
X86429323Y-53408295D01*
X86424282Y-53400273D01*
X86332750Y-53254601D01*
X86204398Y-53126249D01*
X86050706Y-53029677D01*
X85879374Y-52969725D01*
X85879369Y-52969724D01*
X85699004Y-52949403D01*
X85698996Y-52949403D01*
X85518630Y-52969724D01*
X85518625Y-52969725D01*
X85347293Y-53029677D01*
X85286822Y-53067674D01*
X85219585Y-53086674D01*
X85152750Y-53066306D01*
X85107536Y-53013038D01*
X85098299Y-52943781D01*
X85103809Y-52921725D01*
X85132272Y-52840382D01*
X85132275Y-52840369D01*
X85152597Y-52660003D01*
X85152597Y-52659996D01*
X85132275Y-52479630D01*
X85132274Y-52479625D01*
X85072322Y-52308293D01*
X85041975Y-52259996D01*
X92131403Y-52259996D01*
X92131403Y-52260003D01*
X92151724Y-52440369D01*
X92151725Y-52440374D01*
X92211677Y-52611706D01*
X92308249Y-52765398D01*
X92436601Y-52893750D01*
X92557513Y-52969725D01*
X92590295Y-52990323D01*
X92655211Y-53013038D01*
X92761625Y-53050274D01*
X92761630Y-53050275D01*
X92941996Y-53070597D01*
X92942000Y-53070597D01*
X92942004Y-53070597D01*
X93122369Y-53050275D01*
X93122372Y-53050274D01*
X93122375Y-53050274D01*
X93293705Y-52990323D01*
X93447399Y-52893750D01*
X93575750Y-52765399D01*
X93672323Y-52611705D01*
X93732274Y-52440375D01*
X93737908Y-52390374D01*
X93752597Y-52260003D01*
X93752597Y-52259996D01*
X93732275Y-52079630D01*
X93732274Y-52079625D01*
X93672322Y-51908293D01*
X93575750Y-51754601D01*
X93447398Y-51626249D01*
X93293706Y-51529677D01*
X93122374Y-51469725D01*
X93122369Y-51469724D01*
X92942004Y-51449403D01*
X92941996Y-51449403D01*
X92761630Y-51469724D01*
X92761625Y-51469725D01*
X92590293Y-51529677D01*
X92436601Y-51626249D01*
X92308249Y-51754601D01*
X92211677Y-51908293D01*
X92151725Y-52079625D01*
X92151724Y-52079630D01*
X92131403Y-52259996D01*
X85041975Y-52259996D01*
X84975750Y-52154601D01*
X84847398Y-52026249D01*
X84693706Y-51929677D01*
X84522374Y-51869725D01*
X84522369Y-51869724D01*
X84342004Y-51849403D01*
X84341996Y-51849403D01*
X84161626Y-51869725D01*
X84161625Y-51869725D01*
X84129397Y-51881002D01*
X84059618Y-51884563D01*
X84047488Y-51881001D01*
X84043705Y-51879677D01*
X84015261Y-51869724D01*
X83882195Y-51823161D01*
X83825420Y-51782439D01*
X83818157Y-51772092D01*
X83775749Y-51704600D01*
X83647398Y-51576249D01*
X83493706Y-51479677D01*
X83322374Y-51419725D01*
X83322369Y-51419724D01*
X83142004Y-51399403D01*
X83141996Y-51399403D01*
X82961630Y-51419724D01*
X82961625Y-51419725D01*
X82790293Y-51479677D01*
X82636601Y-51576249D01*
X82508249Y-51704601D01*
X82411677Y-51858293D01*
X82351725Y-52029625D01*
X82351724Y-52029630D01*
X82331403Y-52209996D01*
X82331403Y-52210003D01*
X82351724Y-52390369D01*
X82351725Y-52390374D01*
X82411677Y-52561706D01*
X82508249Y-52715398D01*
X82539903Y-52747052D01*
X82573388Y-52808375D01*
X82568404Y-52878067D01*
X82526532Y-52934000D01*
X82466106Y-52957953D01*
X82361629Y-52969724D01*
X82361625Y-52969725D01*
X82190293Y-53029677D01*
X82036601Y-53126249D01*
X81908249Y-53254601D01*
X81811677Y-53408293D01*
X81751725Y-53579625D01*
X81751724Y-53579630D01*
X81731403Y-53759996D01*
X76385697Y-53759996D01*
X76402597Y-53610003D01*
X76402597Y-53609996D01*
X76382275Y-53429633D01*
X76382274Y-53429626D01*
X76379115Y-53420597D01*
X76337248Y-53300951D01*
X76333686Y-53231177D01*
X76337242Y-53219066D01*
X76382274Y-53090375D01*
X76397194Y-52957953D01*
X76402597Y-52910003D01*
X76402597Y-52909996D01*
X76382275Y-52729633D01*
X76382274Y-52729626D01*
X76377296Y-52715399D01*
X76345996Y-52625951D01*
X76342434Y-52556177D01*
X76345990Y-52544066D01*
X76382274Y-52440375D01*
X76402597Y-52260000D01*
X76396963Y-52210000D01*
X76382275Y-52079630D01*
X76382274Y-52079625D01*
X76322322Y-51908293D01*
X76225750Y-51754601D01*
X76097398Y-51626249D01*
X75943706Y-51529677D01*
X75772374Y-51469725D01*
X75772369Y-51469724D01*
X75592004Y-51449403D01*
X75591996Y-51449403D01*
X75411630Y-51469724D01*
X75411625Y-51469725D01*
X75240293Y-51529677D01*
X75086601Y-51626249D01*
X74958249Y-51754601D01*
X74861677Y-51908293D01*
X74801725Y-52079625D01*
X74801724Y-52079630D01*
X74781403Y-52259996D01*
X25242000Y-52259996D01*
X25242000Y-48459996D01*
X113981403Y-48459996D01*
X113981403Y-48460003D01*
X114001724Y-48640369D01*
X114001725Y-48640374D01*
X114061677Y-48811706D01*
X114158249Y-48965398D01*
X114158250Y-48965399D01*
X114286601Y-49093750D01*
X114440295Y-49190323D01*
X114611625Y-49250274D01*
X114611630Y-49250275D01*
X114791996Y-49270597D01*
X114792000Y-49270597D01*
X114792004Y-49270597D01*
X114972369Y-49250275D01*
X114972372Y-49250274D01*
X114972375Y-49250274D01*
X115143705Y-49190323D01*
X115297399Y-49093750D01*
X115425750Y-48965399D01*
X115522323Y-48811705D01*
X115525398Y-48802918D01*
X115566117Y-48746140D01*
X115631068Y-48720390D01*
X115699630Y-48733843D01*
X115708413Y-48738873D01*
X115739013Y-48758100D01*
X115790295Y-48790323D01*
X115961625Y-48850274D01*
X115961630Y-48850275D01*
X116141996Y-48870597D01*
X116142000Y-48870597D01*
X116142004Y-48870597D01*
X116322369Y-48850275D01*
X116322372Y-48850274D01*
X116322375Y-48850274D01*
X116493705Y-48790323D01*
X116647399Y-48693750D01*
X116775750Y-48565399D01*
X116872323Y-48411705D01*
X116932274Y-48240375D01*
X116932275Y-48240369D01*
X116952597Y-48060003D01*
X116952597Y-48059997D01*
X116945133Y-47993750D01*
X116939607Y-47944709D01*
X116951661Y-47875889D01*
X116999010Y-47824509D01*
X117066620Y-47806885D01*
X117076703Y-47807606D01*
X117130270Y-47813641D01*
X117191997Y-47820597D01*
X117192000Y-47820597D01*
X117192004Y-47820597D01*
X117372369Y-47800275D01*
X117372372Y-47800274D01*
X117372375Y-47800274D01*
X117543705Y-47740323D01*
X117697399Y-47643750D01*
X117825750Y-47515399D01*
X117911237Y-47379347D01*
X117963572Y-47333057D01*
X118032625Y-47322409D01*
X118096474Y-47350784D01*
X118134846Y-47409174D01*
X118139451Y-47431436D01*
X118151724Y-47540370D01*
X118151725Y-47540374D01*
X118211677Y-47711706D01*
X118308249Y-47865398D01*
X118436601Y-47993750D01*
X118542036Y-48060000D01*
X118590295Y-48090323D01*
X118761625Y-48150274D01*
X118761630Y-48150275D01*
X118941996Y-48170597D01*
X118942000Y-48170597D01*
X118942004Y-48170597D01*
X119122369Y-48150275D01*
X119122372Y-48150274D01*
X119122375Y-48150274D01*
X119293705Y-48090323D01*
X119447399Y-47993750D01*
X119575750Y-47865399D01*
X119672323Y-47711705D01*
X119732274Y-47540375D01*
X119745004Y-47427396D01*
X119749664Y-47386033D01*
X119776730Y-47321619D01*
X119834325Y-47282064D01*
X119904162Y-47279926D01*
X119964068Y-47315884D01*
X119974459Y-47328793D01*
X120043501Y-47427396D01*
X120043506Y-47427402D01*
X120210597Y-47594493D01*
X120210603Y-47594498D01*
X120396158Y-47724425D01*
X120439783Y-47779002D01*
X120446977Y-47848500D01*
X120415454Y-47910855D01*
X120396158Y-47927575D01*
X120210597Y-48057505D01*
X120043505Y-48224597D01*
X119907965Y-48418169D01*
X119907964Y-48418171D01*
X119808098Y-48632335D01*
X119808094Y-48632344D01*
X119746938Y-48860586D01*
X119746936Y-48860596D01*
X119726341Y-49095999D01*
X119726341Y-49096000D01*
X119746936Y-49331403D01*
X119746938Y-49331413D01*
X119808094Y-49559655D01*
X119808096Y-49559659D01*
X119808097Y-49559663D01*
X119812000Y-49568032D01*
X119907965Y-49773830D01*
X119907967Y-49773834D01*
X120016281Y-49928521D01*
X120043505Y-49967401D01*
X120210599Y-50134495D01*
X120307384Y-50202265D01*
X120404165Y-50270032D01*
X120404167Y-50270033D01*
X120404170Y-50270035D01*
X120618337Y-50369903D01*
X120846592Y-50431063D01*
X121034918Y-50447539D01*
X121081999Y-50451659D01*
X121082000Y-50451659D01*
X121082001Y-50451659D01*
X121121234Y-50448226D01*
X121317408Y-50431063D01*
X121545663Y-50369903D01*
X121759830Y-50270035D01*
X121953401Y-50134495D01*
X122120495Y-49967401D01*
X122250425Y-49781842D01*
X122305002Y-49738217D01*
X122374500Y-49731023D01*
X122436855Y-49762546D01*
X122453575Y-49781842D01*
X122583500Y-49967395D01*
X122583505Y-49967401D01*
X122750599Y-50134495D01*
X122847384Y-50202265D01*
X122944165Y-50270032D01*
X122944167Y-50270033D01*
X122944170Y-50270035D01*
X123158337Y-50369903D01*
X123386592Y-50431063D01*
X123574918Y-50447539D01*
X123621999Y-50451659D01*
X123622000Y-50451659D01*
X123622001Y-50451659D01*
X123661234Y-50448226D01*
X123857408Y-50431063D01*
X124085663Y-50369903D01*
X124299830Y-50270035D01*
X124493401Y-50134495D01*
X124660495Y-49967401D01*
X124796035Y-49773830D01*
X124895903Y-49559663D01*
X124957063Y-49331408D01*
X124977659Y-49096000D01*
X124957063Y-48860592D01*
X124898057Y-48640375D01*
X124895905Y-48632344D01*
X124895904Y-48632343D01*
X124895903Y-48632337D01*
X124796035Y-48418171D01*
X124791509Y-48411706D01*
X124660494Y-48224597D01*
X124493402Y-48057506D01*
X124493396Y-48057501D01*
X124307842Y-47927575D01*
X124264217Y-47872998D01*
X124257023Y-47803500D01*
X124288546Y-47741145D01*
X124307842Y-47724425D01*
X124385960Y-47669726D01*
X124493401Y-47594495D01*
X124660495Y-47427401D01*
X124796035Y-47233830D01*
X124895903Y-47019663D01*
X124957063Y-46791408D01*
X124977659Y-46556000D01*
X124957063Y-46320592D01*
X124895903Y-46092337D01*
X124796035Y-45878171D01*
X124790425Y-45870158D01*
X124660494Y-45684597D01*
X124493402Y-45517506D01*
X124493395Y-45517501D01*
X124299834Y-45381967D01*
X124299830Y-45381965D01*
X124299828Y-45381964D01*
X124085663Y-45282097D01*
X124085659Y-45282096D01*
X124085655Y-45282094D01*
X123857413Y-45220938D01*
X123857403Y-45220936D01*
X123622001Y-45200341D01*
X123621999Y-45200341D01*
X123386596Y-45220936D01*
X123386586Y-45220938D01*
X123158344Y-45282094D01*
X123158335Y-45282098D01*
X122944171Y-45381964D01*
X122944169Y-45381965D01*
X122750597Y-45517505D01*
X122583505Y-45684597D01*
X122453575Y-45870158D01*
X122398998Y-45913783D01*
X122329500Y-45920977D01*
X122267145Y-45889454D01*
X122250425Y-45870158D01*
X122120494Y-45684597D01*
X121953402Y-45517506D01*
X121953395Y-45517501D01*
X121759834Y-45381967D01*
X121759830Y-45381965D01*
X121759828Y-45381964D01*
X121545663Y-45282097D01*
X121545659Y-45282096D01*
X121545655Y-45282094D01*
X121317413Y-45220938D01*
X121317403Y-45220936D01*
X121082001Y-45200341D01*
X121081999Y-45200341D01*
X120846596Y-45220936D01*
X120846586Y-45220938D01*
X120618344Y-45282094D01*
X120618335Y-45282098D01*
X120404171Y-45381964D01*
X120404169Y-45381965D01*
X120210597Y-45517505D01*
X120043505Y-45684597D01*
X119907965Y-45878169D01*
X119907964Y-45878171D01*
X119808098Y-46092335D01*
X119808094Y-46092344D01*
X119746938Y-46320586D01*
X119746936Y-46320596D01*
X119726341Y-46555999D01*
X119726341Y-46556002D01*
X119739715Y-46708869D01*
X119725948Y-46777369D01*
X119677333Y-46827552D01*
X119609304Y-46843485D01*
X119543461Y-46820110D01*
X119528506Y-46807357D01*
X119447398Y-46726249D01*
X119293706Y-46629677D01*
X119122374Y-46569725D01*
X119122369Y-46569724D01*
X118942004Y-46549403D01*
X118941996Y-46549403D01*
X118761630Y-46569724D01*
X118761625Y-46569725D01*
X118590293Y-46629677D01*
X118436601Y-46726249D01*
X118308248Y-46854602D01*
X118308247Y-46854604D01*
X118222761Y-46990652D01*
X118170426Y-47036943D01*
X118101373Y-47047590D01*
X118037524Y-47019215D01*
X117999153Y-46960824D01*
X117994548Y-46938562D01*
X117982275Y-46829629D01*
X117982274Y-46829625D01*
X117968901Y-46791408D01*
X117922323Y-46658295D01*
X117866670Y-46569725D01*
X117825750Y-46504601D01*
X117697398Y-46376249D01*
X117543706Y-46279677D01*
X117372374Y-46219725D01*
X117372369Y-46219724D01*
X117192004Y-46199403D01*
X117191996Y-46199403D01*
X117011630Y-46219724D01*
X117011625Y-46219725D01*
X116840293Y-46279677D01*
X116686601Y-46376249D01*
X116558249Y-46504601D01*
X116461677Y-46658293D01*
X116401725Y-46829625D01*
X116401724Y-46829630D01*
X116381403Y-47009996D01*
X116381403Y-47010003D01*
X116394392Y-47125289D01*
X116382337Y-47194111D01*
X116334988Y-47245490D01*
X116267378Y-47263114D01*
X116257289Y-47262392D01*
X116142004Y-47249403D01*
X116141996Y-47249403D01*
X115961630Y-47269724D01*
X115961625Y-47269725D01*
X115790293Y-47329677D01*
X115636601Y-47426249D01*
X115508249Y-47554601D01*
X115411674Y-47708298D01*
X115408598Y-47717090D01*
X115367875Y-47773865D01*
X115302921Y-47799610D01*
X115234360Y-47786152D01*
X115225586Y-47781126D01*
X115143706Y-47729677D01*
X114972374Y-47669725D01*
X114972369Y-47669724D01*
X114792004Y-47649403D01*
X114791996Y-47649403D01*
X114611630Y-47669724D01*
X114611625Y-47669725D01*
X114440293Y-47729677D01*
X114286601Y-47826249D01*
X114158249Y-47954601D01*
X114061677Y-48108293D01*
X114001725Y-48279625D01*
X114001724Y-48279630D01*
X113981403Y-48459996D01*
X25242000Y-48459996D01*
X25242000Y-46359996D01*
X61631403Y-46359996D01*
X61631403Y-46360003D01*
X61651724Y-46540369D01*
X61651725Y-46540374D01*
X61711677Y-46711706D01*
X61808249Y-46865398D01*
X61936601Y-46993750D01*
X61962462Y-47010000D01*
X62090295Y-47090323D01*
X62190222Y-47125289D01*
X62261625Y-47150274D01*
X62261630Y-47150275D01*
X62441996Y-47170597D01*
X62442000Y-47170597D01*
X62442004Y-47170597D01*
X62622369Y-47150275D01*
X62622372Y-47150274D01*
X62622375Y-47150274D01*
X62793705Y-47090323D01*
X62947399Y-46993750D01*
X63075750Y-46865399D01*
X63172323Y-46711705D01*
X63232274Y-46540375D01*
X63250766Y-46376250D01*
X63252597Y-46360003D01*
X63252597Y-46359996D01*
X63232275Y-46179630D01*
X63232274Y-46179625D01*
X63201733Y-46092344D01*
X63172323Y-46008295D01*
X63075750Y-45854601D01*
X62947399Y-45726250D01*
X62947398Y-45726249D01*
X62793706Y-45629677D01*
X62622374Y-45569725D01*
X62622369Y-45569724D01*
X62442004Y-45549403D01*
X62441996Y-45549403D01*
X62261630Y-45569724D01*
X62261625Y-45569725D01*
X62090293Y-45629677D01*
X61936601Y-45726249D01*
X61808249Y-45854601D01*
X61711677Y-46008293D01*
X61651725Y-46179625D01*
X61651724Y-46179630D01*
X61631403Y-46359996D01*
X25242000Y-46359996D01*
X25242000Y-43859996D01*
X56231403Y-43859996D01*
X56231403Y-43860003D01*
X56251724Y-44040369D01*
X56251725Y-44040374D01*
X56311677Y-44211706D01*
X56408249Y-44365398D01*
X56408250Y-44365399D01*
X56536601Y-44493750D01*
X56690295Y-44590323D01*
X56861625Y-44650274D01*
X56861630Y-44650275D01*
X57041996Y-44670597D01*
X57042000Y-44670597D01*
X57042004Y-44670597D01*
X57222369Y-44650275D01*
X57222372Y-44650274D01*
X57222375Y-44650274D01*
X57393705Y-44590323D01*
X57547399Y-44493750D01*
X57675750Y-44365399D01*
X57772323Y-44211705D01*
X57832274Y-44040375D01*
X57852597Y-43860000D01*
X57832274Y-43679625D01*
X57772323Y-43508295D01*
X57675750Y-43354601D01*
X57547399Y-43226250D01*
X57547398Y-43226249D01*
X57393706Y-43129677D01*
X57222374Y-43069725D01*
X57222369Y-43069724D01*
X57042004Y-43049403D01*
X57041996Y-43049403D01*
X56861630Y-43069724D01*
X56861625Y-43069725D01*
X56690293Y-43129677D01*
X56536601Y-43226249D01*
X56408249Y-43354601D01*
X56311677Y-43508293D01*
X56251725Y-43679625D01*
X56251724Y-43679630D01*
X56231403Y-43859996D01*
X25242000Y-43859996D01*
X25242000Y-41359996D01*
X97481403Y-41359996D01*
X97481403Y-41360003D01*
X97501724Y-41540369D01*
X97501725Y-41540374D01*
X97561677Y-41711706D01*
X97658249Y-41865398D01*
X97658250Y-41865399D01*
X97786601Y-41993750D01*
X97940295Y-42090323D01*
X98111625Y-42150274D01*
X98111630Y-42150275D01*
X98291996Y-42170597D01*
X98292000Y-42170597D01*
X98292004Y-42170597D01*
X98472369Y-42150275D01*
X98472372Y-42150274D01*
X98472375Y-42150274D01*
X98643705Y-42090323D01*
X98797399Y-41993750D01*
X98925750Y-41865399D01*
X99022323Y-41711705D01*
X99082274Y-41540375D01*
X99102597Y-41360000D01*
X99082274Y-41179625D01*
X99022323Y-41008295D01*
X98925750Y-40854601D01*
X98797399Y-40726250D01*
X98797398Y-40726249D01*
X98643706Y-40629677D01*
X98472374Y-40569725D01*
X98472369Y-40569724D01*
X98292004Y-40549403D01*
X98291996Y-40549403D01*
X98111630Y-40569724D01*
X98111625Y-40569725D01*
X97940293Y-40629677D01*
X97786601Y-40726249D01*
X97658249Y-40854601D01*
X97561677Y-41008293D01*
X97501725Y-41179625D01*
X97501724Y-41179630D01*
X97481403Y-41359996D01*
X25242000Y-41359996D01*
X25242000Y-38859996D01*
X55231403Y-38859996D01*
X55231403Y-38860003D01*
X55251724Y-39040369D01*
X55251725Y-39040374D01*
X55311677Y-39211706D01*
X55408249Y-39365398D01*
X55408250Y-39365399D01*
X55536601Y-39493750D01*
X55690295Y-39590323D01*
X55861625Y-39650274D01*
X55861630Y-39650275D01*
X56041996Y-39670597D01*
X56042000Y-39670597D01*
X56042004Y-39670597D01*
X56222369Y-39650275D01*
X56222372Y-39650274D01*
X56222375Y-39650274D01*
X56393705Y-39590323D01*
X56547399Y-39493750D01*
X56675750Y-39365399D01*
X56772323Y-39211705D01*
X56832274Y-39040375D01*
X56852597Y-38860000D01*
X56832274Y-38679625D01*
X56772323Y-38508295D01*
X56729612Y-38440322D01*
X56675750Y-38354601D01*
X56547398Y-38226249D01*
X56393706Y-38129677D01*
X56222374Y-38069725D01*
X56222369Y-38069724D01*
X56042004Y-38049403D01*
X56041996Y-38049403D01*
X55861630Y-38069724D01*
X55861625Y-38069725D01*
X55690293Y-38129677D01*
X55536601Y-38226249D01*
X55408249Y-38354601D01*
X55311677Y-38508293D01*
X55251725Y-38679625D01*
X55251724Y-38679630D01*
X55231403Y-38859996D01*
X25242000Y-38859996D01*
X25242000Y-35868986D01*
X35360500Y-35868986D01*
X35360500Y-36135013D01*
X35360501Y-36135030D01*
X35395223Y-36398774D01*
X35395224Y-36398779D01*
X35395225Y-36398785D01*
X35443624Y-36579414D01*
X35464080Y-36655758D01*
X35565888Y-36901544D01*
X35565892Y-36901554D01*
X35698910Y-37131948D01*
X35860865Y-37343012D01*
X35860871Y-37343019D01*
X36048980Y-37531128D01*
X36048987Y-37531134D01*
X36260051Y-37693089D01*
X36490445Y-37826107D01*
X36490446Y-37826107D01*
X36490449Y-37826109D01*
X36736239Y-37927919D01*
X36993215Y-37996775D01*
X37256980Y-38031500D01*
X37256987Y-38031500D01*
X37523013Y-38031500D01*
X37523020Y-38031500D01*
X37786785Y-37996775D01*
X38043761Y-37927919D01*
X38289551Y-37826109D01*
X38519949Y-37693089D01*
X38731014Y-37531133D01*
X38919133Y-37343014D01*
X39081089Y-37131949D01*
X39214109Y-36901551D01*
X39315919Y-36655761D01*
X39384775Y-36398785D01*
X39419500Y-36135020D01*
X39419500Y-35868980D01*
X39384775Y-35605215D01*
X39315919Y-35348239D01*
X39214109Y-35102449D01*
X39197762Y-35074135D01*
X57242500Y-35074135D01*
X57242500Y-36869870D01*
X57242501Y-36869876D01*
X57248908Y-36929483D01*
X57299202Y-37064328D01*
X57299206Y-37064335D01*
X57385452Y-37179544D01*
X57385455Y-37179547D01*
X57500664Y-37265793D01*
X57500671Y-37265797D01*
X57635517Y-37316091D01*
X57635516Y-37316091D01*
X57642444Y-37316835D01*
X57695127Y-37322500D01*
X58549440Y-37322499D01*
X58616479Y-37342183D01*
X58662234Y-37394987D01*
X58672178Y-37464146D01*
X58666482Y-37487453D01*
X58651726Y-37529622D01*
X58651724Y-37529630D01*
X58631403Y-37709996D01*
X58631403Y-37710003D01*
X58651724Y-37890369D01*
X58651725Y-37890374D01*
X58711677Y-38061706D01*
X58808249Y-38215398D01*
X58808250Y-38215399D01*
X58936601Y-38343750D01*
X59090295Y-38440323D01*
X59261625Y-38500274D01*
X59261630Y-38500275D01*
X59441996Y-38520597D01*
X59442000Y-38520597D01*
X59442004Y-38520597D01*
X59622369Y-38500275D01*
X59622372Y-38500274D01*
X59622375Y-38500274D01*
X59793705Y-38440323D01*
X59947399Y-38343750D01*
X60075750Y-38215399D01*
X60172323Y-38061705D01*
X60232274Y-37890375D01*
X60237743Y-37841836D01*
X60252597Y-37710003D01*
X60252597Y-37709996D01*
X60232275Y-37529630D01*
X60232274Y-37529625D01*
X60172322Y-37358293D01*
X60075750Y-37204601D01*
X59956370Y-37085221D01*
X59922885Y-37023898D01*
X59927866Y-36954213D01*
X59935810Y-36932916D01*
X59977676Y-36876985D01*
X60043139Y-36852565D01*
X60111413Y-36867414D01*
X60139672Y-36888568D01*
X60261599Y-37010495D01*
X60355507Y-37076250D01*
X60455165Y-37146032D01*
X60455167Y-37146033D01*
X60455170Y-37146035D01*
X60669337Y-37245903D01*
X60897592Y-37307063D01*
X61074034Y-37322500D01*
X61132999Y-37327659D01*
X61133000Y-37327659D01*
X61133001Y-37327659D01*
X61191966Y-37322500D01*
X61368408Y-37307063D01*
X61596663Y-37245903D01*
X61810830Y-37146035D01*
X62004401Y-37010495D01*
X62171495Y-36843401D01*
X62272260Y-36699494D01*
X77114100Y-36699494D01*
X77114100Y-36699507D01*
X77133264Y-36930798D01*
X77133266Y-36930809D01*
X77190242Y-37155801D01*
X77283475Y-37368349D01*
X77410416Y-37562648D01*
X77410419Y-37562652D01*
X77410421Y-37562654D01*
X77567616Y-37733414D01*
X77567619Y-37733416D01*
X77567622Y-37733419D01*
X77750765Y-37875965D01*
X77750771Y-37875969D01*
X77750774Y-37875971D01*
X77954897Y-37986437D01*
X78068887Y-38025569D01*
X78174415Y-38061798D01*
X78174417Y-38061798D01*
X78174419Y-38061799D01*
X78403351Y-38100001D01*
X78403352Y-38100001D01*
X78635448Y-38100001D01*
X78635449Y-38100001D01*
X78864381Y-38061799D01*
X79083903Y-37986437D01*
X79288026Y-37875971D01*
X79471184Y-37733414D01*
X79628379Y-37562654D01*
X79755324Y-37368350D01*
X79848557Y-37155801D01*
X79905534Y-36930806D01*
X79910583Y-36869872D01*
X79924700Y-36699507D01*
X79924700Y-36699494D01*
X80614100Y-36699494D01*
X80614100Y-36699507D01*
X80633264Y-36930798D01*
X80633266Y-36930809D01*
X80690242Y-37155801D01*
X80783475Y-37368349D01*
X80910416Y-37562648D01*
X80910419Y-37562652D01*
X80910421Y-37562654D01*
X81067616Y-37733414D01*
X81067619Y-37733416D01*
X81067622Y-37733419D01*
X81250765Y-37875965D01*
X81250771Y-37875969D01*
X81250774Y-37875971D01*
X81454897Y-37986437D01*
X81568887Y-38025569D01*
X81674415Y-38061798D01*
X81674417Y-38061798D01*
X81674419Y-38061799D01*
X81903351Y-38100001D01*
X81903352Y-38100001D01*
X82135448Y-38100001D01*
X82135449Y-38100001D01*
X82364381Y-38061799D01*
X82583903Y-37986437D01*
X82788026Y-37875971D01*
X82971184Y-37733414D01*
X83128379Y-37562654D01*
X83255324Y-37368350D01*
X83348557Y-37155801D01*
X83405534Y-36930806D01*
X83410583Y-36869872D01*
X83424700Y-36699507D01*
X83424700Y-36699494D01*
X84114100Y-36699494D01*
X84114100Y-36699507D01*
X84133264Y-36930798D01*
X84133266Y-36930809D01*
X84190242Y-37155801D01*
X84283475Y-37368349D01*
X84410416Y-37562648D01*
X84410419Y-37562652D01*
X84410421Y-37562654D01*
X84567616Y-37733414D01*
X84567619Y-37733416D01*
X84567622Y-37733419D01*
X84750765Y-37875965D01*
X84750771Y-37875969D01*
X84750774Y-37875971D01*
X84954897Y-37986437D01*
X85068887Y-38025569D01*
X85174415Y-38061798D01*
X85174417Y-38061798D01*
X85174419Y-38061799D01*
X85403351Y-38100001D01*
X85403352Y-38100001D01*
X85635448Y-38100001D01*
X85635449Y-38100001D01*
X85864381Y-38061799D01*
X86083903Y-37986437D01*
X86288026Y-37875971D01*
X86471184Y-37733414D01*
X86628379Y-37562654D01*
X86755324Y-37368350D01*
X86848557Y-37155801D01*
X86905534Y-36930806D01*
X86910583Y-36869872D01*
X86924700Y-36699507D01*
X86924700Y-36699494D01*
X86905535Y-36468203D01*
X86905533Y-36468192D01*
X86848557Y-36243200D01*
X86755324Y-36030652D01*
X86628383Y-35836353D01*
X86628380Y-35836350D01*
X86628379Y-35836348D01*
X86550396Y-35751636D01*
X87618900Y-35751636D01*
X87618900Y-37647371D01*
X87618901Y-37647377D01*
X87625308Y-37706984D01*
X87675602Y-37841829D01*
X87675606Y-37841836D01*
X87761852Y-37957045D01*
X87761855Y-37957048D01*
X87877064Y-38043294D01*
X87877071Y-38043298D01*
X88011917Y-38093592D01*
X88011916Y-38093592D01*
X88018844Y-38094336D01*
X88071527Y-38100001D01*
X89967272Y-38100000D01*
X90026883Y-38093592D01*
X90161731Y-38043297D01*
X90276946Y-37957047D01*
X90363196Y-37841832D01*
X90413491Y-37706984D01*
X90419900Y-37647374D01*
X90419899Y-35751629D01*
X90413491Y-35692018D01*
X90403633Y-35665588D01*
X90363197Y-35557172D01*
X90363193Y-35557165D01*
X90276947Y-35441956D01*
X90276944Y-35441953D01*
X90161735Y-35355707D01*
X90161728Y-35355703D01*
X90026882Y-35305409D01*
X90026883Y-35305409D01*
X89967283Y-35299002D01*
X89967281Y-35299001D01*
X89967273Y-35299001D01*
X89967264Y-35299001D01*
X88071529Y-35299001D01*
X88071523Y-35299002D01*
X88011916Y-35305409D01*
X87877071Y-35355703D01*
X87877064Y-35355707D01*
X87761855Y-35441953D01*
X87761852Y-35441956D01*
X87675606Y-35557165D01*
X87675602Y-35557172D01*
X87625308Y-35692018D01*
X87620516Y-35736596D01*
X87618901Y-35751624D01*
X87618900Y-35751636D01*
X86550396Y-35751636D01*
X86471184Y-35665588D01*
X86471179Y-35665584D01*
X86471177Y-35665582D01*
X86288034Y-35523036D01*
X86288028Y-35523032D01*
X86083904Y-35412565D01*
X86083895Y-35412562D01*
X85864384Y-35337203D01*
X85673850Y-35305409D01*
X85635449Y-35299001D01*
X85403351Y-35299001D01*
X85364950Y-35305409D01*
X85174415Y-35337203D01*
X84954904Y-35412562D01*
X84954895Y-35412565D01*
X84750771Y-35523032D01*
X84750765Y-35523036D01*
X84567622Y-35665582D01*
X84567619Y-35665585D01*
X84567616Y-35665587D01*
X84567616Y-35665588D01*
X84543286Y-35692018D01*
X84410416Y-35836353D01*
X84283475Y-36030652D01*
X84190242Y-36243200D01*
X84133266Y-36468192D01*
X84133264Y-36468203D01*
X84114100Y-36699494D01*
X83424700Y-36699494D01*
X83405535Y-36468203D01*
X83405533Y-36468192D01*
X83348557Y-36243200D01*
X83255324Y-36030652D01*
X83128383Y-35836353D01*
X83128380Y-35836350D01*
X83128379Y-35836348D01*
X82971184Y-35665588D01*
X82971179Y-35665584D01*
X82971177Y-35665582D01*
X82788034Y-35523036D01*
X82788028Y-35523032D01*
X82583904Y-35412565D01*
X82583895Y-35412562D01*
X82364384Y-35337203D01*
X82173850Y-35305409D01*
X82135449Y-35299001D01*
X81903351Y-35299001D01*
X81864950Y-35305409D01*
X81674415Y-35337203D01*
X81454904Y-35412562D01*
X81454895Y-35412565D01*
X81250771Y-35523032D01*
X81250765Y-35523036D01*
X81067622Y-35665582D01*
X81067619Y-35665585D01*
X81067616Y-35665587D01*
X81067616Y-35665588D01*
X81043286Y-35692018D01*
X80910416Y-35836353D01*
X80783475Y-36030652D01*
X80690242Y-36243200D01*
X80633266Y-36468192D01*
X80633264Y-36468203D01*
X80614100Y-36699494D01*
X79924700Y-36699494D01*
X79905535Y-36468203D01*
X79905533Y-36468192D01*
X79848557Y-36243200D01*
X79755324Y-36030652D01*
X79628383Y-35836353D01*
X79628380Y-35836350D01*
X79628379Y-35836348D01*
X79471184Y-35665588D01*
X79471179Y-35665584D01*
X79471177Y-35665582D01*
X79288034Y-35523036D01*
X79288028Y-35523032D01*
X79083904Y-35412565D01*
X79083895Y-35412562D01*
X78864384Y-35337203D01*
X78673850Y-35305409D01*
X78635449Y-35299001D01*
X78403351Y-35299001D01*
X78364950Y-35305409D01*
X78174415Y-35337203D01*
X77954904Y-35412562D01*
X77954895Y-35412565D01*
X77750771Y-35523032D01*
X77750765Y-35523036D01*
X77567622Y-35665582D01*
X77567619Y-35665585D01*
X77567616Y-35665587D01*
X77567616Y-35665588D01*
X77543286Y-35692018D01*
X77410416Y-35836353D01*
X77283475Y-36030652D01*
X77190242Y-36243200D01*
X77133266Y-36468192D01*
X77133264Y-36468203D01*
X77114100Y-36699494D01*
X62272260Y-36699494D01*
X62307035Y-36649830D01*
X62406903Y-36435663D01*
X62468063Y-36207408D01*
X62488659Y-35972000D01*
X62468063Y-35736592D01*
X62410842Y-35523036D01*
X62406905Y-35508344D01*
X62406904Y-35508343D01*
X62406903Y-35508337D01*
X62307035Y-35294171D01*
X62172791Y-35102449D01*
X62171494Y-35100597D01*
X62004402Y-34933506D01*
X62004395Y-34933501D01*
X61810834Y-34797967D01*
X61810830Y-34797965D01*
X61810828Y-34797964D01*
X61596663Y-34698097D01*
X61596659Y-34698096D01*
X61596655Y-34698094D01*
X61368413Y-34636938D01*
X61368403Y-34636936D01*
X61133001Y-34616341D01*
X61132999Y-34616341D01*
X60897596Y-34636936D01*
X60897586Y-34636938D01*
X60669344Y-34698094D01*
X60669335Y-34698098D01*
X60455171Y-34797964D01*
X60455169Y-34797965D01*
X60261600Y-34933503D01*
X60139673Y-35055430D01*
X60078350Y-35088914D01*
X60008658Y-35083930D01*
X59952725Y-35042058D01*
X59935810Y-35011081D01*
X59886797Y-34879671D01*
X59886793Y-34879664D01*
X59800547Y-34764455D01*
X59800544Y-34764452D01*
X59685335Y-34678206D01*
X59685328Y-34678202D01*
X59550482Y-34627908D01*
X59550483Y-34627908D01*
X59490883Y-34621501D01*
X59490881Y-34621500D01*
X59490873Y-34621500D01*
X59490864Y-34621500D01*
X57695129Y-34621500D01*
X57695123Y-34621501D01*
X57635516Y-34627908D01*
X57500671Y-34678202D01*
X57500664Y-34678206D01*
X57385455Y-34764452D01*
X57385452Y-34764455D01*
X57299206Y-34879664D01*
X57299202Y-34879671D01*
X57248908Y-35014517D01*
X57242501Y-35074116D01*
X57242500Y-35074135D01*
X39197762Y-35074135D01*
X39197757Y-35074127D01*
X39081089Y-34872051D01*
X38919134Y-34660987D01*
X38919128Y-34660980D01*
X38731019Y-34472871D01*
X38731012Y-34472865D01*
X38519948Y-34310910D01*
X38289554Y-34177892D01*
X38289544Y-34177888D01*
X38217562Y-34148072D01*
X38043761Y-34076081D01*
X38043759Y-34076080D01*
X38043758Y-34076080D01*
X37967414Y-34055624D01*
X37786785Y-34007225D01*
X37786779Y-34007224D01*
X37786774Y-34007223D01*
X37523030Y-33972501D01*
X37523025Y-33972500D01*
X37523020Y-33972500D01*
X37256980Y-33972500D01*
X37256974Y-33972500D01*
X37256969Y-33972501D01*
X36993225Y-34007223D01*
X36993218Y-34007224D01*
X36993215Y-34007225D01*
X36916868Y-34027681D01*
X36736241Y-34076080D01*
X36490455Y-34177888D01*
X36490445Y-34177892D01*
X36260051Y-34310910D01*
X36048987Y-34472865D01*
X36048980Y-34472871D01*
X35860871Y-34660980D01*
X35860865Y-34660987D01*
X35698910Y-34872051D01*
X35565892Y-35102445D01*
X35565888Y-35102455D01*
X35464080Y-35348241D01*
X35395226Y-35605212D01*
X35395223Y-35605225D01*
X35360501Y-35868969D01*
X35360500Y-35868986D01*
X25242000Y-35868986D01*
X25242000Y-29010709D01*
X25242004Y-29009997D01*
X27436652Y-29009997D01*
X27436652Y-29010002D01*
X27443988Y-29145304D01*
X27447810Y-29215807D01*
X27456028Y-29367368D01*
X27456029Y-29367385D01*
X27513926Y-29720539D01*
X27513932Y-29720565D01*
X27609672Y-30065392D01*
X27609674Y-30065399D01*
X27742142Y-30397870D01*
X27742151Y-30397888D01*
X27909784Y-30714077D01*
X27909787Y-30714082D01*
X27909789Y-30714085D01*
X28094449Y-30986439D01*
X28110634Y-31010309D01*
X28110641Y-31010319D01*
X28186817Y-31100000D01*
X28342332Y-31283086D01*
X28602163Y-31529211D01*
X28887081Y-31745800D01*
X29193747Y-31930315D01*
X29193749Y-31930316D01*
X29193751Y-31930317D01*
X29193755Y-31930319D01*
X29518552Y-32080585D01*
X29518565Y-32080591D01*
X29857726Y-32194868D01*
X30207254Y-32271805D01*
X30563052Y-32310500D01*
X30563058Y-32310500D01*
X30920942Y-32310500D01*
X30920948Y-32310500D01*
X31276746Y-32271805D01*
X31626274Y-32194868D01*
X31965435Y-32080591D01*
X32290253Y-31930315D01*
X32596919Y-31745800D01*
X32881837Y-31529211D01*
X33141668Y-31283086D01*
X33373365Y-31010311D01*
X33574211Y-30714085D01*
X33741853Y-30397880D01*
X33874324Y-30065403D01*
X33970071Y-29720552D01*
X33985408Y-29626999D01*
X57242341Y-29626999D01*
X57242341Y-29627000D01*
X57262936Y-29862403D01*
X57262938Y-29862413D01*
X57324094Y-30090655D01*
X57324096Y-30090659D01*
X57324097Y-30090663D01*
X57423965Y-30304830D01*
X57423967Y-30304834D01*
X57468442Y-30368350D01*
X57559501Y-30498396D01*
X57559506Y-30498402D01*
X57681430Y-30620326D01*
X57714915Y-30681649D01*
X57709931Y-30751341D01*
X57668059Y-30807274D01*
X57637083Y-30824189D01*
X57505669Y-30873203D01*
X57505664Y-30873206D01*
X57390455Y-30959452D01*
X57390452Y-30959455D01*
X57304206Y-31074664D01*
X57304202Y-31074671D01*
X57253908Y-31209517D01*
X57247501Y-31269116D01*
X57247501Y-31269123D01*
X57247500Y-31269135D01*
X57247500Y-33064870D01*
X57247501Y-33064876D01*
X57253908Y-33124483D01*
X57304202Y-33259328D01*
X57304206Y-33259335D01*
X57390452Y-33374544D01*
X57390455Y-33374547D01*
X57505664Y-33460793D01*
X57505671Y-33460797D01*
X57640517Y-33511091D01*
X57640516Y-33511091D01*
X57647444Y-33511835D01*
X57700127Y-33517500D01*
X59495872Y-33517499D01*
X59555483Y-33511091D01*
X59690331Y-33460796D01*
X59805546Y-33374546D01*
X59891796Y-33259331D01*
X59942091Y-33124483D01*
X59948500Y-33064873D01*
X59948499Y-31269128D01*
X59942091Y-31209517D01*
X59901243Y-31099999D01*
X59891797Y-31074671D01*
X59891793Y-31074664D01*
X59805547Y-30959455D01*
X59805544Y-30959452D01*
X59690335Y-30873206D01*
X59690328Y-30873202D01*
X59558917Y-30824189D01*
X59502983Y-30782318D01*
X59478566Y-30716853D01*
X59493418Y-30648580D01*
X59514563Y-30620332D01*
X59636495Y-30498401D01*
X59772035Y-30304830D01*
X59871903Y-30090663D01*
X59933063Y-29862408D01*
X59947316Y-29699494D01*
X77114100Y-29699494D01*
X77114100Y-29699507D01*
X77133264Y-29930798D01*
X77133266Y-29930809D01*
X77190242Y-30155801D01*
X77283475Y-30368349D01*
X77410416Y-30562648D01*
X77410419Y-30562652D01*
X77410421Y-30562654D01*
X77567616Y-30733414D01*
X77567619Y-30733416D01*
X77567622Y-30733419D01*
X77750765Y-30875965D01*
X77750771Y-30875969D01*
X77750774Y-30875971D01*
X77954897Y-30986437D01*
X78024434Y-31010309D01*
X78174415Y-31061798D01*
X78174417Y-31061798D01*
X78174419Y-31061799D01*
X78403351Y-31100001D01*
X78403352Y-31100001D01*
X78635448Y-31100001D01*
X78635449Y-31100001D01*
X78864381Y-31061799D01*
X79083903Y-30986437D01*
X79288026Y-30875971D01*
X79291579Y-30873206D01*
X79448151Y-30751341D01*
X79471184Y-30733414D01*
X79628379Y-30562654D01*
X79755324Y-30368350D01*
X79848557Y-30155801D01*
X79905534Y-29930806D01*
X79905535Y-29930798D01*
X79924700Y-29699507D01*
X79924700Y-29699494D01*
X80614100Y-29699494D01*
X80614100Y-29699507D01*
X80633264Y-29930798D01*
X80633266Y-29930809D01*
X80690242Y-30155801D01*
X80783475Y-30368349D01*
X80910416Y-30562648D01*
X80910419Y-30562652D01*
X80910421Y-30562654D01*
X81067616Y-30733414D01*
X81067619Y-30733416D01*
X81067622Y-30733419D01*
X81250765Y-30875965D01*
X81250771Y-30875969D01*
X81250774Y-30875971D01*
X81454897Y-30986437D01*
X81524434Y-31010309D01*
X81674415Y-31061798D01*
X81674417Y-31061798D01*
X81674419Y-31061799D01*
X81903351Y-31100001D01*
X81903352Y-31100001D01*
X82135448Y-31100001D01*
X82135449Y-31100001D01*
X82364381Y-31061799D01*
X82583903Y-30986437D01*
X82788026Y-30875971D01*
X82791579Y-30873206D01*
X82948151Y-30751341D01*
X82971184Y-30733414D01*
X83128379Y-30562654D01*
X83255324Y-30368350D01*
X83348557Y-30155801D01*
X83405534Y-29930806D01*
X83405535Y-29930798D01*
X83424700Y-29699507D01*
X83424700Y-29699494D01*
X84114100Y-29699494D01*
X84114100Y-29699507D01*
X84133264Y-29930798D01*
X84133266Y-29930809D01*
X84190242Y-30155801D01*
X84283475Y-30368349D01*
X84410416Y-30562648D01*
X84410419Y-30562652D01*
X84410421Y-30562654D01*
X84567616Y-30733414D01*
X84567619Y-30733416D01*
X84567622Y-30733419D01*
X84750765Y-30875965D01*
X84750771Y-30875969D01*
X84750774Y-30875971D01*
X84954897Y-30986437D01*
X85024434Y-31010309D01*
X85174415Y-31061798D01*
X85174417Y-31061798D01*
X85174419Y-31061799D01*
X85403351Y-31100001D01*
X85403352Y-31100001D01*
X85635448Y-31100001D01*
X85635449Y-31100001D01*
X85864381Y-31061799D01*
X86083903Y-30986437D01*
X86288026Y-30875971D01*
X86291579Y-30873206D01*
X86448151Y-30751341D01*
X86471184Y-30733414D01*
X86628379Y-30562654D01*
X86755324Y-30368350D01*
X86848557Y-30155801D01*
X86905534Y-29930806D01*
X86905535Y-29930798D01*
X86924700Y-29699507D01*
X86924700Y-29699494D01*
X86905535Y-29468203D01*
X86905533Y-29468192D01*
X86848557Y-29243200D01*
X86755324Y-29030652D01*
X86628383Y-28836353D01*
X86628380Y-28836350D01*
X86628379Y-28836348D01*
X86550396Y-28751636D01*
X87618900Y-28751636D01*
X87618900Y-30647371D01*
X87618901Y-30647377D01*
X87625308Y-30706984D01*
X87675602Y-30841829D01*
X87675606Y-30841836D01*
X87761852Y-30957045D01*
X87761855Y-30957048D01*
X87877064Y-31043294D01*
X87877071Y-31043298D01*
X88011917Y-31093592D01*
X88011916Y-31093592D01*
X88018844Y-31094336D01*
X88071527Y-31100001D01*
X89967272Y-31100000D01*
X90026883Y-31093592D01*
X90161731Y-31043297D01*
X90276946Y-30957047D01*
X90363196Y-30841832D01*
X90413491Y-30706984D01*
X90419900Y-30647374D01*
X90419899Y-28751629D01*
X90413491Y-28692018D01*
X90410873Y-28685000D01*
X90363197Y-28557172D01*
X90363193Y-28557165D01*
X90276947Y-28441956D01*
X90276944Y-28441953D01*
X90161735Y-28355707D01*
X90161728Y-28355703D01*
X90026882Y-28305409D01*
X90026883Y-28305409D01*
X89967283Y-28299002D01*
X89967281Y-28299001D01*
X89967273Y-28299001D01*
X89967264Y-28299001D01*
X88071529Y-28299001D01*
X88071523Y-28299002D01*
X88011916Y-28305409D01*
X87877071Y-28355703D01*
X87877064Y-28355707D01*
X87761855Y-28441953D01*
X87761852Y-28441956D01*
X87675606Y-28557165D01*
X87675602Y-28557172D01*
X87625308Y-28692018D01*
X87619474Y-28746286D01*
X87618901Y-28751624D01*
X87618900Y-28751636D01*
X86550396Y-28751636D01*
X86471184Y-28665588D01*
X86471179Y-28665584D01*
X86471177Y-28665582D01*
X86288034Y-28523036D01*
X86288028Y-28523032D01*
X86083904Y-28412565D01*
X86083895Y-28412562D01*
X85864384Y-28337203D01*
X85673850Y-28305409D01*
X85635449Y-28299001D01*
X85403351Y-28299001D01*
X85364950Y-28305409D01*
X85174415Y-28337203D01*
X84954904Y-28412562D01*
X84954895Y-28412565D01*
X84750771Y-28523032D01*
X84750765Y-28523036D01*
X84567622Y-28665582D01*
X84567619Y-28665585D01*
X84567616Y-28665587D01*
X84567616Y-28665588D01*
X84543286Y-28692018D01*
X84410416Y-28836353D01*
X84283475Y-29030652D01*
X84190242Y-29243200D01*
X84133266Y-29468192D01*
X84133264Y-29468203D01*
X84114100Y-29699494D01*
X83424700Y-29699494D01*
X83405535Y-29468203D01*
X83405533Y-29468192D01*
X83348557Y-29243200D01*
X83255324Y-29030652D01*
X83128383Y-28836353D01*
X83128380Y-28836350D01*
X83128379Y-28836348D01*
X82971184Y-28665588D01*
X82971179Y-28665584D01*
X82971177Y-28665582D01*
X82788034Y-28523036D01*
X82788028Y-28523032D01*
X82583904Y-28412565D01*
X82583895Y-28412562D01*
X82364384Y-28337203D01*
X82173850Y-28305409D01*
X82135449Y-28299001D01*
X81903351Y-28299001D01*
X81864950Y-28305409D01*
X81674415Y-28337203D01*
X81454904Y-28412562D01*
X81454895Y-28412565D01*
X81250771Y-28523032D01*
X81250765Y-28523036D01*
X81067622Y-28665582D01*
X81067619Y-28665585D01*
X81067616Y-28665587D01*
X81067616Y-28665588D01*
X81043286Y-28692018D01*
X80910416Y-28836353D01*
X80783475Y-29030652D01*
X80690242Y-29243200D01*
X80633266Y-29468192D01*
X80633264Y-29468203D01*
X80614100Y-29699494D01*
X79924700Y-29699494D01*
X79905535Y-29468203D01*
X79905533Y-29468192D01*
X79848557Y-29243200D01*
X79755324Y-29030652D01*
X79628383Y-28836353D01*
X79628380Y-28836350D01*
X79628379Y-28836348D01*
X79471184Y-28665588D01*
X79471179Y-28665584D01*
X79471177Y-28665582D01*
X79288034Y-28523036D01*
X79288028Y-28523032D01*
X79083904Y-28412565D01*
X79083895Y-28412562D01*
X78864384Y-28337203D01*
X78673850Y-28305409D01*
X78635449Y-28299001D01*
X78403351Y-28299001D01*
X78364950Y-28305409D01*
X78174415Y-28337203D01*
X77954904Y-28412562D01*
X77954895Y-28412565D01*
X77750771Y-28523032D01*
X77750765Y-28523036D01*
X77567622Y-28665582D01*
X77567619Y-28665585D01*
X77567616Y-28665587D01*
X77567616Y-28665588D01*
X77543286Y-28692018D01*
X77410416Y-28836353D01*
X77283475Y-29030652D01*
X77190242Y-29243200D01*
X77133266Y-29468192D01*
X77133264Y-29468203D01*
X77114100Y-29699494D01*
X59947316Y-29699494D01*
X59953659Y-29627000D01*
X59933063Y-29391592D01*
X59871903Y-29163337D01*
X59772035Y-28949171D01*
X59742943Y-28907622D01*
X59636494Y-28755597D01*
X59469402Y-28588506D01*
X59469395Y-28588501D01*
X59275834Y-28452967D01*
X59275830Y-28452965D01*
X59189192Y-28412565D01*
X59061663Y-28353097D01*
X59061659Y-28353096D01*
X59061655Y-28353094D01*
X58833413Y-28291938D01*
X58833403Y-28291936D01*
X58598001Y-28271341D01*
X58597999Y-28271341D01*
X58362596Y-28291936D01*
X58362586Y-28291938D01*
X58134344Y-28353094D01*
X58134337Y-28353096D01*
X58134337Y-28353097D01*
X58128744Y-28355705D01*
X57920171Y-28452964D01*
X57920169Y-28452965D01*
X57726597Y-28588505D01*
X57559505Y-28755597D01*
X57423965Y-28949169D01*
X57423964Y-28949171D01*
X57324098Y-29163335D01*
X57324094Y-29163344D01*
X57262938Y-29391586D01*
X57262936Y-29391596D01*
X57242341Y-29626999D01*
X33985408Y-29626999D01*
X33996983Y-29556395D01*
X34027970Y-29367385D01*
X34027970Y-29367382D01*
X34027972Y-29367371D01*
X34047348Y-29010000D01*
X34027972Y-28652629D01*
X34017459Y-28588505D01*
X33970073Y-28299460D01*
X33970072Y-28299459D01*
X33970071Y-28299448D01*
X33970067Y-28299435D01*
X33970065Y-28299424D01*
X33874327Y-27954607D01*
X33874325Y-27954600D01*
X33858976Y-27916078D01*
X33818145Y-27813599D01*
X33813521Y-27801994D01*
X43894392Y-27801994D01*
X43894392Y-27802005D01*
X43914789Y-28048165D01*
X43975428Y-28287623D01*
X44047954Y-28452967D01*
X44074652Y-28513831D01*
X44123439Y-28588505D01*
X44191067Y-28692018D01*
X44209755Y-28720621D01*
X44377052Y-28902355D01*
X44377055Y-28902357D01*
X44377058Y-28902360D01*
X44571971Y-29054067D01*
X44571977Y-29054071D01*
X44571980Y-29054073D01*
X44789221Y-29171638D01*
X44910536Y-29213285D01*
X45022846Y-29251842D01*
X45022848Y-29251842D01*
X45022850Y-29251843D01*
X45266494Y-29292500D01*
X45266495Y-29292500D01*
X45513505Y-29292500D01*
X45513506Y-29292500D01*
X45757150Y-29251843D01*
X45990779Y-29171638D01*
X46208020Y-29054073D01*
X46223888Y-29041723D01*
X46273476Y-29003126D01*
X46402948Y-28902355D01*
X46570245Y-28720621D01*
X46705348Y-28513831D01*
X46804572Y-28287623D01*
X46865210Y-28048169D01*
X46883758Y-27824331D01*
X46885608Y-27802005D01*
X46885608Y-27801994D01*
X46876155Y-27687922D01*
X51940500Y-27687922D01*
X51940500Y-27916078D01*
X51954928Y-28007169D01*
X51976192Y-28141426D01*
X51976192Y-28141429D01*
X52046694Y-28358412D01*
X52046696Y-28358415D01*
X52147964Y-28557165D01*
X52150279Y-28561707D01*
X52284377Y-28746279D01*
X52284381Y-28746284D01*
X52445715Y-28907618D01*
X52445720Y-28907622D01*
X52587609Y-29010709D01*
X52630296Y-29041723D01*
X52833585Y-29145304D01*
X52833587Y-29145305D01*
X53050571Y-29215807D01*
X53050572Y-29215807D01*
X53050575Y-29215808D01*
X53275922Y-29251500D01*
X53275923Y-29251500D01*
X53504077Y-29251500D01*
X53504078Y-29251500D01*
X53729425Y-29215808D01*
X53729428Y-29215807D01*
X53729429Y-29215807D01*
X53946412Y-29145305D01*
X53946412Y-29145304D01*
X53946415Y-29145304D01*
X54149704Y-29041723D01*
X54334286Y-28907617D01*
X54495617Y-28746286D01*
X54629723Y-28561704D01*
X54733304Y-28358415D01*
X54752460Y-28299460D01*
X54803807Y-28141429D01*
X54803807Y-28141428D01*
X54803808Y-28141425D01*
X54839500Y-27916078D01*
X54839500Y-27687922D01*
X54803808Y-27462575D01*
X54803807Y-27462571D01*
X54803807Y-27462570D01*
X54733305Y-27245587D01*
X54701669Y-27183498D01*
X54629723Y-27042296D01*
X54610905Y-27016395D01*
X54495622Y-26857720D01*
X54495618Y-26857715D01*
X54334284Y-26696381D01*
X54334279Y-26696377D01*
X54149707Y-26562279D01*
X54149706Y-26562278D01*
X54149704Y-26562277D01*
X54009401Y-26490789D01*
X53946412Y-26458694D01*
X53729428Y-26388192D01*
X53560414Y-26361423D01*
X53504078Y-26352500D01*
X53275922Y-26352500D01*
X53200806Y-26364397D01*
X53050573Y-26388192D01*
X53050570Y-26388192D01*
X52833587Y-26458694D01*
X52630292Y-26562279D01*
X52445720Y-26696377D01*
X52445715Y-26696381D01*
X52284381Y-26857715D01*
X52284377Y-26857720D01*
X52150279Y-27042292D01*
X52046694Y-27245587D01*
X51976192Y-27462570D01*
X51976192Y-27462573D01*
X51947060Y-27646503D01*
X51940500Y-27687922D01*
X46876155Y-27687922D01*
X46870702Y-27622111D01*
X46865210Y-27555831D01*
X46804572Y-27316377D01*
X46705348Y-27090169D01*
X46570245Y-26883379D01*
X46402948Y-26701645D01*
X46402943Y-26701641D01*
X46402941Y-26701639D01*
X46208028Y-26549932D01*
X46208022Y-26549928D01*
X45990780Y-26432362D01*
X45990771Y-26432359D01*
X45757153Y-26352157D01*
X45574417Y-26321664D01*
X45513506Y-26311500D01*
X45266494Y-26311500D01*
X45217765Y-26319631D01*
X45022846Y-26352157D01*
X44789228Y-26432359D01*
X44789219Y-26432362D01*
X44571977Y-26549928D01*
X44571971Y-26549932D01*
X44377058Y-26701639D01*
X44377055Y-26701642D01*
X44209752Y-26883382D01*
X44074650Y-27090172D01*
X43975428Y-27316376D01*
X43914789Y-27555834D01*
X43894392Y-27801994D01*
X33813521Y-27801994D01*
X33741857Y-27622129D01*
X33741848Y-27622111D01*
X33574215Y-27305922D01*
X33574213Y-27305919D01*
X33574211Y-27305915D01*
X33373365Y-27009689D01*
X33373361Y-27009684D01*
X33373358Y-27009680D01*
X33141668Y-26736914D01*
X33104432Y-26701642D01*
X32881837Y-26490789D01*
X32881830Y-26490783D01*
X32881827Y-26490781D01*
X32804974Y-26432359D01*
X32596919Y-26274200D01*
X32382185Y-26144999D01*
X100261341Y-26144999D01*
X100261341Y-26145000D01*
X100281936Y-26380403D01*
X100281938Y-26380413D01*
X100343094Y-26608655D01*
X100343096Y-26608659D01*
X100343097Y-26608663D01*
X100402902Y-26736914D01*
X100442965Y-26822830D01*
X100442967Y-26822834D01*
X100496547Y-26899353D01*
X100578501Y-27016396D01*
X100578506Y-27016402D01*
X100700430Y-27138326D01*
X100733915Y-27199649D01*
X100728931Y-27269341D01*
X100687059Y-27325274D01*
X100656083Y-27342189D01*
X100524669Y-27391203D01*
X100524664Y-27391206D01*
X100409455Y-27477452D01*
X100409452Y-27477455D01*
X100323206Y-27592664D01*
X100323202Y-27592671D01*
X100272908Y-27727517D01*
X100266501Y-27787116D01*
X100266500Y-27787135D01*
X100266500Y-29582870D01*
X100266501Y-29582876D01*
X100272908Y-29642483D01*
X100323202Y-29777328D01*
X100323206Y-29777335D01*
X100409452Y-29892544D01*
X100409455Y-29892547D01*
X100524664Y-29978793D01*
X100524671Y-29978797D01*
X100659517Y-30029091D01*
X100659516Y-30029091D01*
X100666444Y-30029835D01*
X100719127Y-30035500D01*
X102514872Y-30035499D01*
X102574483Y-30029091D01*
X102709331Y-29978796D01*
X102824546Y-29892546D01*
X102910796Y-29777331D01*
X102959810Y-29645916D01*
X103001681Y-29589984D01*
X103067145Y-29565566D01*
X103135418Y-29580417D01*
X103163673Y-29601569D01*
X103285599Y-29723495D01*
X103382384Y-29791265D01*
X103479165Y-29859032D01*
X103479167Y-29859033D01*
X103479170Y-29859035D01*
X103693337Y-29958903D01*
X103921592Y-30020063D01*
X104098034Y-30035500D01*
X104156999Y-30040659D01*
X104157000Y-30040659D01*
X104157001Y-30040659D01*
X104215966Y-30035500D01*
X104392408Y-30020063D01*
X104620663Y-29958903D01*
X104834830Y-29859035D01*
X105028401Y-29723495D01*
X105195495Y-29556401D01*
X105331035Y-29362830D01*
X105430903Y-29148663D01*
X105468058Y-29009997D01*
X117436652Y-29009997D01*
X117436652Y-29010002D01*
X117443988Y-29145304D01*
X117447810Y-29215807D01*
X117456028Y-29367368D01*
X117456029Y-29367385D01*
X117513926Y-29720539D01*
X117513932Y-29720565D01*
X117609672Y-30065392D01*
X117609674Y-30065399D01*
X117742142Y-30397870D01*
X117742151Y-30397888D01*
X117909784Y-30714077D01*
X117909787Y-30714082D01*
X117909789Y-30714085D01*
X118094449Y-30986439D01*
X118110634Y-31010309D01*
X118110641Y-31010319D01*
X118186817Y-31100000D01*
X118342332Y-31283086D01*
X118602163Y-31529211D01*
X118887081Y-31745800D01*
X119193747Y-31930315D01*
X119193749Y-31930316D01*
X119193751Y-31930317D01*
X119193755Y-31930319D01*
X119518552Y-32080585D01*
X119518565Y-32080591D01*
X119857726Y-32194868D01*
X120207254Y-32271805D01*
X120563052Y-32310500D01*
X120563058Y-32310500D01*
X120920942Y-32310500D01*
X120920948Y-32310500D01*
X121276746Y-32271805D01*
X121626274Y-32194868D01*
X121965435Y-32080591D01*
X122290253Y-31930315D01*
X122596919Y-31745800D01*
X122881837Y-31529211D01*
X123141668Y-31283086D01*
X123373365Y-31010311D01*
X123574211Y-30714085D01*
X123741853Y-30397880D01*
X123874324Y-30065403D01*
X123970071Y-29720552D01*
X123996983Y-29556395D01*
X124027970Y-29367385D01*
X124027970Y-29367382D01*
X124027972Y-29367371D01*
X124047348Y-29010000D01*
X124027972Y-28652629D01*
X124017459Y-28588505D01*
X123970073Y-28299460D01*
X123970072Y-28299459D01*
X123970071Y-28299448D01*
X123970067Y-28299435D01*
X123970065Y-28299424D01*
X123874327Y-27954607D01*
X123874325Y-27954600D01*
X123858976Y-27916078D01*
X123818145Y-27813599D01*
X123741857Y-27622129D01*
X123741848Y-27622111D01*
X123574215Y-27305922D01*
X123574213Y-27305919D01*
X123574211Y-27305915D01*
X123373365Y-27009689D01*
X123373361Y-27009684D01*
X123373358Y-27009680D01*
X123141668Y-26736914D01*
X123104432Y-26701642D01*
X122881837Y-26490789D01*
X122881830Y-26490783D01*
X122881827Y-26490781D01*
X122804974Y-26432359D01*
X122596919Y-26274200D01*
X122290253Y-26089685D01*
X122290252Y-26089684D01*
X122290248Y-26089682D01*
X122290244Y-26089680D01*
X121965447Y-25939414D01*
X121965441Y-25939411D01*
X121965435Y-25939409D01*
X121795854Y-25882270D01*
X121626273Y-25825131D01*
X121276744Y-25748194D01*
X120920949Y-25709500D01*
X120920948Y-25709500D01*
X120563052Y-25709500D01*
X120563050Y-25709500D01*
X120207255Y-25748194D01*
X119857726Y-25825131D01*
X119601970Y-25911306D01*
X119518565Y-25939409D01*
X119518563Y-25939410D01*
X119518552Y-25939414D01*
X119193755Y-26089680D01*
X119193751Y-26089682D01*
X118965367Y-26227096D01*
X118887081Y-26274200D01*
X118838014Y-26311500D01*
X118602172Y-26490781D01*
X118602163Y-26490789D01*
X118342331Y-26736914D01*
X118110641Y-27009680D01*
X118110634Y-27009690D01*
X117909790Y-27305913D01*
X117909784Y-27305922D01*
X117742151Y-27622111D01*
X117742142Y-27622129D01*
X117609674Y-27954600D01*
X117609672Y-27954607D01*
X117513935Y-28299424D01*
X117513926Y-28299460D01*
X117456029Y-28652614D01*
X117456028Y-28652627D01*
X117456028Y-28652629D01*
X117450950Y-28746284D01*
X117436652Y-29009997D01*
X105468058Y-29009997D01*
X105492063Y-28920408D01*
X105512659Y-28685000D01*
X105492063Y-28449592D01*
X105430903Y-28221337D01*
X105331035Y-28007171D01*
X105294230Y-27954607D01*
X105195494Y-27813597D01*
X105028402Y-27646506D01*
X105028396Y-27646501D01*
X104842842Y-27516575D01*
X104799217Y-27461998D01*
X104792023Y-27392500D01*
X104823546Y-27330145D01*
X104842842Y-27313425D01*
X104905800Y-27269341D01*
X105028401Y-27183495D01*
X105195495Y-27016401D01*
X105331035Y-26822830D01*
X105430903Y-26608663D01*
X105492063Y-26380408D01*
X105512659Y-26145000D01*
X105492063Y-25909592D01*
X105430903Y-25681337D01*
X105331035Y-25467171D01*
X105325425Y-25459158D01*
X105195494Y-25273597D01*
X105028402Y-25106506D01*
X105028395Y-25106501D01*
X104834834Y-24970967D01*
X104834830Y-24970965D01*
X104834828Y-24970964D01*
X104620663Y-24871097D01*
X104620659Y-24871096D01*
X104620655Y-24871094D01*
X104392413Y-24809938D01*
X104392403Y-24809936D01*
X104157001Y-24789341D01*
X104156999Y-24789341D01*
X103921596Y-24809936D01*
X103921586Y-24809938D01*
X103693344Y-24871094D01*
X103693335Y-24871098D01*
X103479171Y-24970964D01*
X103479169Y-24970965D01*
X103285597Y-25106505D01*
X103118505Y-25273597D01*
X102988575Y-25459158D01*
X102933998Y-25502783D01*
X102864500Y-25509977D01*
X102802145Y-25478454D01*
X102785425Y-25459158D01*
X102655494Y-25273597D01*
X102488402Y-25106506D01*
X102488395Y-25106501D01*
X102294834Y-24970967D01*
X102294830Y-24970965D01*
X102294828Y-24970964D01*
X102080663Y-24871097D01*
X102080659Y-24871096D01*
X102080655Y-24871094D01*
X101852413Y-24809938D01*
X101852403Y-24809936D01*
X101617001Y-24789341D01*
X101616999Y-24789341D01*
X101381596Y-24809936D01*
X101381586Y-24809938D01*
X101153344Y-24871094D01*
X101153335Y-24871098D01*
X100939171Y-24970964D01*
X100939169Y-24970965D01*
X100745597Y-25106505D01*
X100578505Y-25273597D01*
X100442965Y-25467169D01*
X100442964Y-25467171D01*
X100343098Y-25681335D01*
X100343094Y-25681344D01*
X100281938Y-25909586D01*
X100281936Y-25909596D01*
X100261341Y-26144999D01*
X32382185Y-26144999D01*
X32290253Y-26089685D01*
X32290252Y-26089684D01*
X32290248Y-26089682D01*
X32290244Y-26089680D01*
X31965447Y-25939414D01*
X31965441Y-25939411D01*
X31965435Y-25939409D01*
X31795854Y-25882270D01*
X31626273Y-25825131D01*
X31276744Y-25748194D01*
X30920949Y-25709500D01*
X30920948Y-25709500D01*
X30563052Y-25709500D01*
X30563050Y-25709500D01*
X30207255Y-25748194D01*
X29857726Y-25825131D01*
X29601970Y-25911306D01*
X29518565Y-25939409D01*
X29518563Y-25939410D01*
X29518552Y-25939414D01*
X29193755Y-26089680D01*
X29193751Y-26089682D01*
X28965367Y-26227096D01*
X28887081Y-26274200D01*
X28838014Y-26311500D01*
X28602172Y-26490781D01*
X28602163Y-26490789D01*
X28342331Y-26736914D01*
X28110641Y-27009680D01*
X28110634Y-27009690D01*
X27909790Y-27305913D01*
X27909784Y-27305922D01*
X27742151Y-27622111D01*
X27742142Y-27622129D01*
X27609674Y-27954600D01*
X27609672Y-27954607D01*
X27513935Y-28299424D01*
X27513926Y-28299460D01*
X27456029Y-28652614D01*
X27456028Y-28652627D01*
X27456028Y-28652629D01*
X27450950Y-28746284D01*
X27436652Y-29009997D01*
X25242004Y-29009997D01*
X25242007Y-29009357D01*
X25243116Y-28907618D01*
X25244565Y-28774696D01*
X25245029Y-28765266D01*
X25285984Y-28297150D01*
X25287396Y-28286432D01*
X25312964Y-28141429D01*
X25368876Y-27824331D01*
X25371208Y-27813812D01*
X25492663Y-27360534D01*
X25495903Y-27350258D01*
X25656398Y-26909303D01*
X25660519Y-26899353D01*
X25858835Y-26474063D01*
X25863815Y-26464496D01*
X26098435Y-26058122D01*
X26104228Y-26049028D01*
X26373384Y-25664634D01*
X26379953Y-25656074D01*
X26681575Y-25296616D01*
X26688861Y-25288665D01*
X27020665Y-24956861D01*
X27028616Y-24949575D01*
X27388074Y-24647953D01*
X27396634Y-24641384D01*
X27781028Y-24372228D01*
X27790122Y-24366435D01*
X28196496Y-24131815D01*
X28206063Y-24126835D01*
X28631353Y-23928519D01*
X28641303Y-23924398D01*
X29082258Y-23763903D01*
X29092534Y-23760663D01*
X29545812Y-23639208D01*
X29556331Y-23636876D01*
X30018435Y-23555395D01*
X30029150Y-23553984D01*
X30497266Y-23513029D01*
X30506696Y-23512565D01*
X30741358Y-23510007D01*
X30742710Y-23510000D01*
X120741290Y-23510000D01*
X120742642Y-23510007D01*
G37*
%TD.AperFunction*%
%TD*%
D24*
X62150000Y-89400000D03*
X84592000Y-56310000D03*
X84562000Y-94611750D03*
X93242000Y-68710000D03*
X72562000Y-100611750D03*
X104192000Y-79960000D03*
X42562000Y-70611750D03*
X66562000Y-64611750D03*
X60092000Y-54260000D03*
X120562000Y-34611750D03*
X42562000Y-46611750D03*
X74342000Y-56310000D03*
X57192000Y-67110000D03*
X58742000Y-65910000D03*
X114942000Y-34060000D03*
X115742000Y-61060000D03*
X106292000Y-54910000D03*
X116242000Y-34060000D03*
X74992000Y-48660000D03*
X72562000Y-34611750D03*
X30562000Y-64611750D03*
X84392000Y-49110000D03*
X90562000Y-94611750D03*
X54562000Y-34611750D03*
X104742000Y-70960000D03*
X78562000Y-88611750D03*
X42562000Y-28611750D03*
X54562000Y-100611750D03*
X108392000Y-42310000D03*
X58692000Y-44810000D03*
X66562000Y-34611750D03*
X48562000Y-94611750D03*
X64142000Y-26460000D03*
X36562000Y-28611750D03*
X106942000Y-55710000D03*
X102562000Y-94611750D03*
X72562000Y-88611750D03*
X30562000Y-70611750D03*
X48562000Y-70611750D03*
X110042000Y-71960000D03*
X120562000Y-40611750D03*
X108642000Y-94710000D03*
X75292000Y-68460000D03*
X30562000Y-94611750D03*
X60092000Y-55810000D03*
X60562000Y-28611750D03*
X112892000Y-67010000D03*
X101892000Y-67010000D03*
X48562000Y-64611750D03*
X120562000Y-94611750D03*
X68642000Y-87560000D03*
X36562000Y-94611750D03*
X48562000Y-52611750D03*
X42562000Y-88611750D03*
X76142000Y-60610000D03*
X48562000Y-40611750D03*
X68292000Y-38510000D03*
X36562000Y-46611750D03*
X42562000Y-34611750D03*
X76142000Y-59060000D03*
X42562000Y-76611750D03*
X102562000Y-40611750D03*
X85092000Y-49160000D03*
X60562000Y-64611750D03*
X111142000Y-54310000D03*
X30562000Y-46611750D03*
X84592000Y-55510000D03*
X102562000Y-34611750D03*
X96562000Y-94611750D03*
X67192000Y-66410000D03*
X68442000Y-66360000D03*
X54562000Y-94611750D03*
X54562000Y-70611750D03*
X48562000Y-88611750D03*
X83592000Y-49660000D03*
X36562000Y-58611750D03*
X72592000Y-41110000D03*
X78562000Y-70611750D03*
X83642000Y-55510000D03*
X87542000Y-64260000D03*
X36562000Y-64611750D03*
X36562000Y-52611750D03*
X119492000Y-90110000D03*
X42562000Y-52611750D03*
X101942000Y-66160000D03*
X36562000Y-76611750D03*
X108562000Y-28611750D03*
X61992000Y-74310000D03*
X83992000Y-63860000D03*
X107742000Y-50260000D03*
X42562000Y-64611750D03*
X93742000Y-54860000D03*
X84042000Y-41960000D03*
X64142000Y-25560000D03*
X30562000Y-76611750D03*
X48562000Y-100611750D03*
X93742000Y-56160000D03*
X111142000Y-53210000D03*
X42562000Y-40611750D03*
X102562000Y-46611750D03*
X36562000Y-100611750D03*
X74092000Y-80910000D03*
X61192000Y-37860000D03*
X83642000Y-56310000D03*
X67792000Y-87560000D03*
X54562000Y-88611750D03*
X119292000Y-59910000D03*
X42562000Y-100611750D03*
X60562000Y-94611750D03*
X114442000Y-67060000D03*
X93742000Y-55510000D03*
X76292000Y-67360000D03*
X72562000Y-64611750D03*
X90562000Y-100611750D03*
X30562000Y-40611750D03*
X30562000Y-34611750D03*
X79542000Y-64160000D03*
X42562000Y-94611750D03*
X84562000Y-100611750D03*
X111042000Y-74860000D03*
X74292000Y-48660000D03*
X100392000Y-62110000D03*
X36562000Y-40611750D03*
X61192000Y-87810000D03*
X80792000Y-74960000D03*
X74342000Y-55660000D03*
X119492000Y-91660000D03*
X74342000Y-55010000D03*
X109042000Y-71960000D03*
X60562000Y-58611750D03*
X84562000Y-88611750D03*
X90562000Y-58611750D03*
X42562000Y-58611750D03*
X117542000Y-34060000D03*
X60562000Y-100611750D03*
X108562000Y-100611750D03*
X48562000Y-46611750D03*
X64392000Y-79310000D03*
X48562000Y-34611750D03*
X36562000Y-70611750D03*
X78562000Y-94611750D03*
X63992000Y-52510000D03*
X36562000Y-88611750D03*
X105692000Y-71010000D03*
X30562000Y-88611750D03*
X84892000Y-59760000D03*
X48562000Y-58611750D03*
X66562000Y-58611750D03*
X96562000Y-100611750D03*
X60292000Y-67160000D03*
X30562000Y-58611750D03*
X64842000Y-52860000D03*
X66562000Y-100611750D03*
X54562000Y-64611750D03*
X58692000Y-43810000D03*
X63992000Y-51360000D03*
X68292000Y-37610000D03*
X48562000Y-76611750D03*
X114562000Y-28611750D03*
X102562000Y-52611750D03*
X58692000Y-45860000D03*
X110192000Y-40510000D03*
X119342000Y-69460000D03*
X54562000Y-76611750D03*
X72562000Y-58611750D03*
X107742000Y-55710000D03*
X109774600Y-58647777D03*
X84042000Y-40310000D03*
X68292000Y-39460000D03*
X72562000Y-28611750D03*
X84792000Y-63860000D03*
X94442000Y-40160000D03*
X59442000Y-37710000D03*
X57042000Y-43860000D03*
X119692000Y-77710000D03*
X98292000Y-41360000D03*
X112392000Y-77710000D03*
X96242000Y-65460000D03*
X104242000Y-77760000D03*
X108001000Y-61060000D03*
X107696000Y-58256000D03*
X108783800Y-67860000D03*
X107342000Y-65360000D03*
X101692000Y-76110000D03*
X116992000Y-77060000D03*
X69942000Y-83160000D03*
X50742000Y-83210000D03*
X116759666Y-58560000D03*
X105592000Y-56860000D03*
X51592000Y-56760000D03*
X112692000Y-56410000D03*
X94692000Y-57260000D03*
X103292000Y-57260000D03*
X103992000Y-58510000D03*
X51817000Y-58035000D03*
X93692000Y-57810000D03*
X105492000Y-58360000D03*
X116064144Y-59243894D03*
X105093670Y-57512684D03*
X114942000Y-59810000D03*
X113542000Y-59810000D03*
X75592000Y-53610000D03*
X83692000Y-52610000D03*
X75592000Y-52910000D03*
X83142000Y-52210000D03*
X84342000Y-52660000D03*
X92942000Y-52260000D03*
X75592000Y-52260000D03*
X93642000Y-61660000D03*
X93242000Y-64410000D03*
X73342000Y-66360000D03*
X85142000Y-65310000D03*
X87192000Y-61210000D03*
X85742000Y-61210000D03*
X83342000Y-58660000D03*
X83342000Y-60610000D03*
X78742000Y-62560000D03*
X92292000Y-62760000D03*
X90942000Y-62210000D03*
X77342000Y-62310000D03*
X84942000Y-58272800D03*
X85808400Y-59110000D03*
X88792000Y-60060000D03*
X56042000Y-38860000D03*
X74642000Y-61660000D03*
X99942000Y-54310000D03*
X99942000Y-64410000D03*
X100242000Y-65160000D03*
X101292000Y-56460000D03*
X115342000Y-88010000D03*
X117142000Y-63960000D03*
X62442000Y-46360000D03*
X64694000Y-56608000D03*
X115765110Y-63017200D03*
X99142000Y-72610000D03*
X82792000Y-54260000D03*
X79642000Y-56060000D03*
X82542000Y-53760000D03*
X79642000Y-55410000D03*
X88599000Y-56060000D03*
X88599000Y-55410000D03*
X85699000Y-53760000D03*
X85449000Y-54260000D03*
X118742000Y-62210000D03*
X117192000Y-47010000D03*
X117742000Y-62510000D03*
X116142000Y-48060000D03*
X114792000Y-48460000D03*
X116892000Y-62560000D03*
X63042000Y-54910000D03*
X99742000Y-73210000D03*
X114892000Y-63160000D03*
X118942000Y-47360000D03*
X93442000Y-65460000D03*
X101042000Y-65160000D03*
X104192000Y-59610000D03*
X103642000Y-70310000D03*
X97442000Y-88310000D03*
D25*
X45390000Y-27802000D03*
X45390000Y-100022000D03*
X53390000Y-27802000D03*
X37390000Y-36002000D03*
X53390000Y-91202000D03*
D26*
X112962000Y-101635000D03*
D27*
X112962000Y-97455000D03*
D26*
X104322000Y-101635000D03*
D27*
X104322000Y-97455000D03*
D25*
X111532000Y-97955000D03*
X105752000Y-97955000D03*
D24*
X107366000Y-61880000D03*
X107366000Y-63155000D03*
X107366000Y-64430000D03*
X108641000Y-61880000D03*
X108641000Y-63155000D03*
X108641000Y-64430000D03*
X109916000Y-61880000D03*
X109916000Y-63155000D03*
X109916000Y-64430000D03*
D25*
X95804500Y-71285000D03*
X93304500Y-71285000D03*
X90804500Y-71285000D03*
X102034500Y-82515000D03*
X102034500Y-80015000D03*
X102034500Y-77515000D03*
X90054500Y-85765000D03*
X96554500Y-85765000D03*
X90054500Y-90265000D03*
X96554500Y-90265000D03*
X99629500Y-75015000D03*
X86979500Y-75015000D03*
X86979500Y-85015000D03*
X99629500Y-85015000D03*
X30742000Y-29010000D03*
D24*
X62311000Y-48330000D03*
X61361000Y-48330000D03*
X60411000Y-48330000D03*
X62311000Y-49330000D03*
X61361000Y-49330000D03*
X60411000Y-49330000D03*
D25*
X123622000Y-56716000D03*
X121082000Y-56716000D03*
X123622000Y-54176000D03*
X121082000Y-54176000D03*
X123622000Y-51636000D03*
X121082000Y-51636000D03*
X123622000Y-49096000D03*
X121082000Y-49096000D03*
X123622000Y-46556000D03*
X121082000Y-46556000D03*
X123622000Y-44016000D03*
X121082000Y-44016000D03*
X30742000Y-99010000D03*
X89019400Y-36699501D03*
X89019400Y-29699501D03*
X85519400Y-36699501D03*
X85519400Y-29699501D03*
X82019400Y-36699501D03*
X82019400Y-29699501D03*
X78519400Y-36699501D03*
X78519400Y-29699501D03*
X123617000Y-65535000D03*
X121077000Y-65535000D03*
X123617000Y-62995000D03*
X121077000Y-62995000D03*
X123617000Y-60455000D03*
X121077000Y-60455000D03*
X58594000Y-88347000D03*
X58594000Y-90887000D03*
X71303000Y-55784000D03*
X68763000Y-55784000D03*
X120742000Y-99010000D03*
X66542000Y-79185000D03*
X66542000Y-76645000D03*
X101617000Y-28685000D03*
X101617000Y-26145000D03*
X104157000Y-28685000D03*
X104157000Y-26145000D03*
X106697000Y-28685000D03*
X106697000Y-26145000D03*
X112446000Y-90577000D03*
X112446000Y-93117000D03*
X58598000Y-32167000D03*
X58598000Y-29627000D03*
X120742000Y-29010000D03*
X121072000Y-79810000D03*
X123612000Y-79810000D03*
X121072000Y-82350000D03*
X123612000Y-82350000D03*
X121072000Y-84890000D03*
X123612000Y-84890000D03*
X58593000Y-35972000D03*
X61133000Y-35972000D03*
M02*
