M48
; DRILL file {KiCad 8.0.6} date 2024-10-28T23:36:15+0000
; FORMAT={-:-/ absolute / metric / decimal}
; #@! TF.CreationDate,2024-10-28T23:36:15+00:00
; #@! TF.GenerationSoftware,Kicad,Pcbnew,8.0.6
; #@! TF.FileFunction,Plated,1,4,PTH
FMAT,2
METRIC
; #@! TA.AperFunction,Plated,PTH,ComponentDrill
T1C0.300
; #@! TA.AperFunction,Plated,PTH,ComponentDrill
T2C0.600
; #@! TA.AperFunction,Plated,PTH,ComponentDrill
T3C0.850
; #@! TA.AperFunction,Plated,PTH,ComponentDrill
T4C1.000
; #@! TA.AperFunction,Plated,PTH,ComponentDrill
T5C1.100
; #@! TA.AperFunction,Plated,PTH,ComponentDrill
T6C1.300
; #@! TA.AperFunction,Plated,PTH,ComponentDrill
T7C1.600
; #@! TA.AperFunction,Plated,PTH,ComponentDrill
T8C1.830
%
G90
G05
T1
X62.619Y-74.47
X62.619Y-75.47
X63.569Y-74.47
X63.569Y-75.47
X64.519Y-74.47
X64.519Y-75.47
X89.284Y-110.838
X89.284Y-112.113
X89.284Y-113.388
X90.559Y-110.838
X90.559Y-112.113
X90.559Y-113.388
X91.834Y-110.838
X91.834Y-112.113
X91.834Y-113.388
T3
X79.05Y-112.4
X84.05Y-112.4
T4
X98.643Y-113.835
X98.643Y-116.375
X98.643Y-118.915
X101.183Y-113.835
X101.183Y-116.375
X101.183Y-118.915
X101.908Y-80.19
X101.908Y-84.69
T5
X75.974Y-88.899
X75.974Y-91.399
X75.974Y-93.899
X80.658Y-55.14
X80.658Y-60.14
X82.204Y-100.129
X84.158Y-55.14
X84.158Y-60.14
X84.704Y-100.129
X87.204Y-100.129
X87.658Y-55.14
X87.658Y-60.14
X91.158Y-55.14
X91.158Y-60.14
T6
X90.454Y-88.149
X90.454Y-94.649
X94.954Y-88.149
X94.954Y-94.649
X99.418Y-78.935
X99.418Y-85.945
T7
X79.704Y-85.074
X79.704Y-97.724
X89.704Y-85.074
X89.704Y-97.724
T8
X63.618Y-62.72
X63.618Y-108.72
X66.158Y-55.1
X66.158Y-116.34
X68.698Y-62.72
X68.698Y-108.72
T2
G00X77.738Y-122.975
M15
G01X77.738Y-124.075
M16
G05
G00X77.738Y-127.305
M15
G01X77.738Y-128.105
M16
G05
G00X86.378Y-122.975
M15
G01X86.378Y-124.075
M16
G05
G00X86.378Y-127.305
M15
G01X86.378Y-128.105
M16
G05
M30
