%TF.GenerationSoftware,KiCad,Pcbnew,8.0.0*%
%TF.CreationDate,2024-04-27T18:31:45+01:00*%
%TF.ProjectId,StepUp,53746570-5570-42e6-9b69-6361645f7063,rev?*%
%TF.SameCoordinates,Original*%
%TF.FileFunction,Paste,Top*%
%TF.FilePolarity,Positive*%
%FSLAX46Y46*%
G04 Gerber Fmt 4.6, Leading zero omitted, Abs format (unit mm)*
G04 Created by KiCad (PCBNEW 8.0.0) date 2024-04-27 18:31:45*
%MOMM*%
%LPD*%
G01*
G04 APERTURE LIST*
G04 Aperture macros list*
%AMRoundRect*
0 Rectangle with rounded corners*
0 $1 Rounding radius*
0 $2 $3 $4 $5 $6 $7 $8 $9 X,Y pos of 4 corners*
0 Add a 4 corners polygon primitive as box body*
4,1,4,$2,$3,$4,$5,$6,$7,$8,$9,$2,$3,0*
0 Add four circle primitives for the rounded corners*
1,1,$1+$1,$2,$3*
1,1,$1+$1,$4,$5*
1,1,$1+$1,$6,$7*
1,1,$1+$1,$8,$9*
0 Add four rect primitives between the rounded corners*
20,1,$1+$1,$2,$3,$4,$5,0*
20,1,$1+$1,$4,$5,$6,$7,0*
20,1,$1+$1,$6,$7,$8,$9,0*
20,1,$1+$1,$8,$9,$2,$3,0*%
G04 Aperture macros list end*
%ADD10R,0.762000X0.254000*%
%ADD11R,0.254000X0.762000*%
%ADD12R,1.701800X1.701800*%
%ADD13R,2.150000X2.200000*%
%ADD14RoundRect,0.250000X-0.400000X-0.450000X0.400000X-0.450000X0.400000X0.450000X-0.400000X0.450000X0*%
%ADD15RoundRect,0.200000X-0.200000X-0.275000X0.200000X-0.275000X0.200000X0.275000X-0.200000X0.275000X0*%
%ADD16R,1.300000X0.600000*%
%ADD17RoundRect,0.140000X-0.140000X-0.170000X0.140000X-0.170000X0.140000X0.170000X-0.140000X0.170000X0*%
%ADD18RoundRect,0.250000X-0.250000X-0.475000X0.250000X-0.475000X0.250000X0.475000X-0.250000X0.475000X0*%
%ADD19RoundRect,0.225000X-0.225000X-0.250000X0.225000X-0.250000X0.225000X0.250000X-0.225000X0.250000X0*%
%ADD20RoundRect,0.135000X-0.135000X-0.185000X0.135000X-0.185000X0.135000X0.185000X-0.135000X0.185000X0*%
%ADD21RoundRect,0.250000X-0.312500X-0.625000X0.312500X-0.625000X0.312500X0.625000X-0.312500X0.625000X0*%
%ADD22RoundRect,0.250000X-0.412500X-0.925000X0.412500X-0.925000X0.412500X0.925000X-0.412500X0.925000X0*%
%ADD23R,1.300000X0.700000*%
%ADD24RoundRect,0.160000X-0.160000X-0.345000X0.160000X-0.345000X0.160000X0.345000X-0.160000X0.345000X0*%
%ADD25RoundRect,0.062500X-0.362500X-0.062500X0.362500X-0.062500X0.362500X0.062500X-0.362500X0.062500X0*%
%ADD26RoundRect,0.243750X-0.243750X-0.456250X0.243750X-0.456250X0.243750X0.456250X-0.243750X0.456250X0*%
%ADD27R,1.050000X0.650000*%
%ADD28RoundRect,0.250000X-0.292217X-0.292217X0.292217X-0.292217X0.292217X0.292217X-0.292217X0.292217X0*%
%ADD29RoundRect,0.050000X-0.387500X-0.050000X0.387500X-0.050000X0.387500X0.050000X-0.387500X0.050000X0*%
%ADD30RoundRect,0.050000X-0.050000X-0.387500X0.050000X-0.387500X0.050000X0.387500X-0.050000X0.387500X0*%
%ADD31RoundRect,0.150000X-0.150000X-0.425000X0.150000X-0.425000X0.150000X0.425000X-0.150000X0.425000X0*%
%ADD32RoundRect,0.075000X-0.075000X-0.500000X0.075000X-0.500000X0.075000X0.500000X-0.075000X0.500000X0*%
%ADD33O,1.000000X2.100000*%
%ADD34O,1.000000X1.800000*%
%ADD35RoundRect,0.250000X-1.000000X-0.650000X1.000000X-0.650000X1.000000X0.650000X-1.000000X0.650000X0*%
%ADD36RoundRect,0.150000X-0.512500X-0.150000X0.512500X-0.150000X0.512500X0.150000X-0.512500X0.150000X0*%
%ADD37R,1.400000X1.200000*%
%ADD38R,0.600000X1.050000*%
%ADD39RoundRect,0.150000X-0.587500X-0.150000X0.587500X-0.150000X0.587500X0.150000X-0.587500X0.150000X0*%
%ADD40RoundRect,0.375000X-0.625000X-0.375000X0.625000X-0.375000X0.625000X0.375000X-0.625000X0.375000X0*%
%ADD41RoundRect,0.500000X-0.500000X-1.400000X0.500000X-1.400000X0.500000X1.400000X-0.500000X1.400000X0*%
%ADD42R,0.900000X0.950000*%
%ADD43RoundRect,0.250000X-0.300000X-0.300000X0.300000X-0.300000X0.300000X0.300000X-0.300000X0.300000X0*%
%ADD44RoundRect,0.150000X-0.650000X-0.150000X0.650000X-0.150000X0.650000X0.150000X-0.650000X0.150000X0*%
G04 APERTURE END LIST*
D10*
%TO.C,U3*%
X209655200Y-128899998D03*
X209655200Y-129300000D03*
X209655200Y-129699999D03*
X209655200Y-130099998D03*
X209655200Y-130500000D03*
D11*
X210277599Y-131122399D03*
X210677601Y-131122399D03*
X211077600Y-131122399D03*
X211477599Y-131122399D03*
X211877601Y-131122399D03*
D10*
X212500000Y-130500000D03*
X212500000Y-130099998D03*
X212500000Y-129699999D03*
X212500000Y-129300000D03*
X212500000Y-128899998D03*
D11*
X211877601Y-128277599D03*
X211477599Y-128277599D03*
X211077600Y-128277599D03*
X210677601Y-128277599D03*
X210277599Y-128277599D03*
D12*
X211077600Y-129699999D03*
%TD*%
D13*
%TO.C,L2*%
X201980000Y-95800000D03*
X206780000Y-95800000D03*
%TD*%
D14*
%TO.C,D6*%
X143050000Y-104000000D03*
X145950000Y-104000000D03*
%TD*%
D15*
%TO.C,R20*%
X178345000Y-96700000D03*
X179995000Y-96700000D03*
%TD*%
D16*
%TO.C,Q4*%
X202900000Y-130050000D03*
X202900000Y-131950000D03*
X205000000Y-131000000D03*
%TD*%
D17*
%TO.C,C10*%
X146997500Y-96017500D03*
X147957500Y-96017500D03*
%TD*%
%TO.C,C5*%
X162262500Y-84617500D03*
X163222500Y-84617500D03*
%TD*%
D15*
%TO.C,R6*%
X156892500Y-93737500D03*
X158542500Y-93737500D03*
%TD*%
D17*
%TO.C,C8*%
X134520000Y-85500000D03*
X135480000Y-85500000D03*
%TD*%
D18*
%TO.C,C19*%
X139187500Y-93527500D03*
X141087500Y-93527500D03*
%TD*%
D15*
%TO.C,R34*%
X206100000Y-117230000D03*
X207750000Y-117230000D03*
%TD*%
D19*
%TO.C,C18*%
X139362500Y-91557500D03*
X140912500Y-91557500D03*
%TD*%
D15*
%TO.C,R10*%
X123702500Y-91627500D03*
X125352500Y-91627500D03*
%TD*%
D20*
%TO.C,R2*%
X157207500Y-83697500D03*
X158227500Y-83697500D03*
%TD*%
D21*
%TO.C,R29*%
X210272500Y-115110000D03*
X213197500Y-115110000D03*
%TD*%
D20*
%TO.C,R5*%
X157207500Y-91227500D03*
X158227500Y-91227500D03*
%TD*%
D15*
%TO.C,R7*%
X123702500Y-85657500D03*
X125352500Y-85657500D03*
%TD*%
D22*
%TO.C,C15*%
X137962500Y-84500000D03*
X141037500Y-84500000D03*
%TD*%
D15*
%TO.C,R8*%
X123702500Y-87647500D03*
X125352500Y-87647500D03*
%TD*%
%TO.C,R32*%
X202090000Y-127270000D03*
X203740000Y-127270000D03*
%TD*%
D20*
%TO.C,R4*%
X157207500Y-88717500D03*
X158227500Y-88717500D03*
%TD*%
D18*
%TO.C,C28*%
X210205000Y-121550000D03*
X212105000Y-121550000D03*
%TD*%
D16*
%TO.C,Q3*%
X198200000Y-130050000D03*
X198200000Y-131950000D03*
X200300000Y-131000000D03*
%TD*%
D20*
%TO.C,R3*%
X157207500Y-86207500D03*
X158227500Y-86207500D03*
%TD*%
D17*
%TO.C,C7*%
X161537500Y-79397500D03*
X162497500Y-79397500D03*
%TD*%
D15*
%TO.C,R23*%
X198080000Y-124760000D03*
X199730000Y-124760000D03*
%TD*%
D17*
%TO.C,C6*%
X153227500Y-93737500D03*
X154187500Y-93737500D03*
%TD*%
D23*
%TO.C,D4*%
X183400000Y-115800000D03*
X183400000Y-116900000D03*
X183400000Y-118000000D03*
X186500000Y-118000000D03*
X186500000Y-116900000D03*
X186500000Y-115800000D03*
%TD*%
D21*
%TO.C,R31*%
X210272500Y-118400000D03*
X213197500Y-118400000D03*
%TD*%
D15*
%TO.C,R27*%
X202090000Y-119740000D03*
X203740000Y-119740000D03*
%TD*%
D17*
%TO.C,C13*%
X136787500Y-91557500D03*
X137747500Y-91557500D03*
%TD*%
D24*
%TO.C,U7*%
X155450000Y-109020000D03*
X155450000Y-110270000D03*
X156250000Y-109020000D03*
X156250000Y-110270000D03*
D25*
X154425000Y-108395000D03*
X154425000Y-108895000D03*
X154425000Y-109395000D03*
X154425000Y-109895000D03*
X154425000Y-110395000D03*
X154425000Y-110895000D03*
X157275000Y-110895000D03*
X157275000Y-110395000D03*
X157275000Y-109895000D03*
X157275000Y-109395000D03*
X157275000Y-108895000D03*
X157275000Y-108395000D03*
%TD*%
D17*
%TO.C,C3*%
X153227500Y-88717500D03*
X154187500Y-88717500D03*
%TD*%
D15*
%TO.C,R28*%
X202090000Y-122250000D03*
X203740000Y-122250000D03*
%TD*%
D26*
%TO.C,D1*%
X154835000Y-80167500D03*
X156710000Y-80167500D03*
%TD*%
D17*
%TO.C,C14*%
X136787500Y-93527500D03*
X137747500Y-93527500D03*
%TD*%
D27*
%TO.C,SW1*%
X167925000Y-102925000D03*
X172075000Y-102925000D03*
X167925000Y-105075000D03*
X172050000Y-105075000D03*
%TD*%
D15*
%TO.C,R14*%
X121355000Y-124130000D03*
X123005000Y-124130000D03*
%TD*%
D28*
%TO.C,U2*%
X122087500Y-107137500D03*
X122087500Y-108412500D03*
X123362500Y-107137500D03*
X123362500Y-108412500D03*
D29*
X119287500Y-105175000D03*
X119287500Y-105575000D03*
X119287500Y-105975000D03*
X119287500Y-106375000D03*
X119287500Y-106775000D03*
X119287500Y-107175000D03*
X119287500Y-107575000D03*
X119287500Y-107975000D03*
X119287500Y-108375000D03*
X119287500Y-108775000D03*
X119287500Y-109175000D03*
X119287500Y-109575000D03*
X119287500Y-109975000D03*
X119287500Y-110375000D03*
D30*
X120125000Y-111212500D03*
X120525000Y-111212500D03*
X120925000Y-111212500D03*
X121325000Y-111212500D03*
X121725000Y-111212500D03*
X122125000Y-111212500D03*
X122525000Y-111212500D03*
X122925000Y-111212500D03*
X123325000Y-111212500D03*
X123725000Y-111212500D03*
X124125000Y-111212500D03*
X124525000Y-111212500D03*
X124925000Y-111212500D03*
X125325000Y-111212500D03*
D29*
X126162500Y-110375000D03*
X126162500Y-109975000D03*
X126162500Y-109575000D03*
X126162500Y-109175000D03*
X126162500Y-108775000D03*
X126162500Y-108375000D03*
X126162500Y-107975000D03*
X126162500Y-107575000D03*
X126162500Y-107175000D03*
X126162500Y-106775000D03*
X126162500Y-106375000D03*
X126162500Y-105975000D03*
X126162500Y-105575000D03*
X126162500Y-105175000D03*
D30*
X125325000Y-104337500D03*
X124925000Y-104337500D03*
X124525000Y-104337500D03*
X124125000Y-104337500D03*
X123725000Y-104337500D03*
X123325000Y-104337500D03*
X122925000Y-104337500D03*
X122525000Y-104337500D03*
X122125000Y-104337500D03*
X121725000Y-104337500D03*
X121325000Y-104337500D03*
X120925000Y-104337500D03*
X120525000Y-104337500D03*
X120125000Y-104337500D03*
%TD*%
D19*
%TO.C,C32*%
X198130000Y-119740000D03*
X199680000Y-119740000D03*
%TD*%
D15*
%TO.C,R13*%
X159380000Y-110760000D03*
X161030000Y-110760000D03*
%TD*%
D18*
%TO.C,C20*%
X144050000Y-85500000D03*
X145950000Y-85500000D03*
%TD*%
D17*
%TO.C,C4*%
X153227500Y-91227500D03*
X154187500Y-91227500D03*
%TD*%
D31*
%TO.C,J8*%
X121300000Y-136820000D03*
X122100000Y-136820000D03*
D32*
X123250000Y-136820000D03*
X124250000Y-136820000D03*
X124750000Y-136820000D03*
X125750000Y-136820000D03*
D31*
X126900000Y-136820000D03*
X127700000Y-136820000D03*
X127700000Y-136820000D03*
X126900000Y-136820000D03*
D32*
X126250000Y-136820000D03*
X125250000Y-136820000D03*
X123750000Y-136820000D03*
X122750000Y-136820000D03*
D31*
X122100000Y-136820000D03*
X121300000Y-136820000D03*
D33*
X120180000Y-137395000D03*
D34*
X120180000Y-141575000D03*
D33*
X128820000Y-137395000D03*
D34*
X128820000Y-141575000D03*
%TD*%
D15*
%TO.C,R26*%
X202090000Y-117230000D03*
X203740000Y-117230000D03*
%TD*%
D35*
%TO.C,D2*%
X128500000Y-132000000D03*
X132500000Y-132000000D03*
%TD*%
D17*
%TO.C,C2*%
X153227500Y-86207500D03*
X154187500Y-86207500D03*
%TD*%
D27*
%TO.C,SW2*%
X167875000Y-112000000D03*
X172025000Y-112000000D03*
X167875000Y-114150000D03*
X172000000Y-114150000D03*
%TD*%
D19*
%TO.C,C24*%
X150500000Y-108500000D03*
X152050000Y-108500000D03*
%TD*%
%TO.C,C31*%
X198130000Y-117230000D03*
X199680000Y-117230000D03*
%TD*%
D17*
%TO.C,C1*%
X153227500Y-83697500D03*
X154187500Y-83697500D03*
%TD*%
D15*
%TO.C,R16*%
X165350000Y-121990000D03*
X167000000Y-121990000D03*
%TD*%
D36*
%TO.C,U4*%
X116862500Y-131050000D03*
X116862500Y-132000000D03*
X116862500Y-132950000D03*
X119137500Y-132950000D03*
X119137500Y-132000000D03*
X119137500Y-131050000D03*
%TD*%
D15*
%TO.C,R12*%
X159380000Y-108250000D03*
X161030000Y-108250000D03*
%TD*%
D17*
%TO.C,C9*%
X136787500Y-87617500D03*
X137747500Y-87617500D03*
%TD*%
D19*
%TO.C,C23*%
X145725000Y-92500000D03*
X147275000Y-92500000D03*
%TD*%
D37*
%TO.C,Y1*%
X130125000Y-102625000D03*
X132325000Y-102625000D03*
X132325000Y-100925000D03*
X130125000Y-100925000D03*
%TD*%
D15*
%TO.C,R17*%
X165350000Y-124500000D03*
X167000000Y-124500000D03*
%TD*%
%TO.C,R19*%
X178345000Y-94190000D03*
X179995000Y-94190000D03*
%TD*%
D19*
%TO.C,C21*%
X145725000Y-88000000D03*
X147275000Y-88000000D03*
%TD*%
D38*
%TO.C,U5*%
X131000000Y-94850000D03*
X131950000Y-94850000D03*
X132900000Y-94850000D03*
X132900000Y-92150000D03*
X131000000Y-92150000D03*
%TD*%
D20*
%TO.C,R1*%
X153197500Y-96247500D03*
X154217500Y-96247500D03*
%TD*%
D17*
%TO.C,C12*%
X136787500Y-89587500D03*
X137747500Y-89587500D03*
%TD*%
D15*
%TO.C,R11*%
X123702500Y-93617500D03*
X125352500Y-93617500D03*
%TD*%
%TO.C,R25*%
X202090000Y-114720000D03*
X203740000Y-114720000D03*
%TD*%
%TO.C,R35*%
X206100000Y-119740000D03*
X207750000Y-119740000D03*
%TD*%
D19*
%TO.C,C30*%
X178395000Y-89170000D03*
X179945000Y-89170000D03*
%TD*%
D18*
%TO.C,C25*%
X150325000Y-111510000D03*
X152225000Y-111510000D03*
%TD*%
D15*
%TO.C,R15*%
X121355000Y-126640000D03*
X123005000Y-126640000D03*
%TD*%
D19*
%TO.C,C29*%
X198130000Y-114720000D03*
X199680000Y-114720000D03*
%TD*%
%TO.C,C17*%
X139362500Y-89587500D03*
X140912500Y-89587500D03*
%TD*%
D39*
%TO.C,Q1*%
X125692500Y-124325000D03*
X125692500Y-126225000D03*
X127567500Y-125275000D03*
%TD*%
D19*
%TO.C,C33*%
X198130000Y-122250000D03*
X199680000Y-122250000D03*
%TD*%
D15*
%TO.C,R21*%
X178345000Y-99210000D03*
X179995000Y-99210000D03*
%TD*%
D17*
%TO.C,C11*%
X146997500Y-99027500D03*
X147957500Y-99027500D03*
%TD*%
D15*
%TO.C,R9*%
X123702500Y-89637500D03*
X125352500Y-89637500D03*
%TD*%
%TO.C,R33*%
X206100000Y-114720000D03*
X207750000Y-114720000D03*
%TD*%
D19*
%TO.C,C27*%
X178395000Y-86660000D03*
X179945000Y-86660000D03*
%TD*%
D40*
%TO.C,U6*%
X133700000Y-107200000D03*
X133700000Y-109500000D03*
D41*
X140000000Y-109500000D03*
D40*
X133700000Y-111800000D03*
%TD*%
D42*
%TO.C,D5*%
X219575000Y-125500000D03*
X216425000Y-125500000D03*
%TD*%
D15*
%TO.C,R30*%
X202090000Y-124760000D03*
X203740000Y-124760000D03*
%TD*%
D39*
%TO.C,Q2*%
X182682500Y-94055000D03*
X182682500Y-95955000D03*
X184557500Y-95005000D03*
%TD*%
D19*
%TO.C,C26*%
X121405000Y-131150000D03*
X122955000Y-131150000D03*
%TD*%
D15*
%TO.C,R18*%
X178345000Y-91680000D03*
X179995000Y-91680000D03*
%TD*%
D18*
%TO.C,C22*%
X145550000Y-90000000D03*
X147450000Y-90000000D03*
%TD*%
D43*
%TO.C,D3*%
X134662500Y-139460000D03*
X137462500Y-139460000D03*
%TD*%
D15*
%TO.C,R24*%
X198080000Y-127270000D03*
X199730000Y-127270000D03*
%TD*%
D44*
%TO.C,U1*%
X150478900Y-100304100D03*
X150478900Y-101574100D03*
X150478900Y-102844100D03*
X150478900Y-104114100D03*
X157678900Y-104114100D03*
X157678900Y-102844100D03*
X157678900Y-101574100D03*
X157678900Y-100304100D03*
%TD*%
D18*
%TO.C,C16*%
X139187500Y-87617500D03*
X141087500Y-87617500D03*
%TD*%
D15*
%TO.C,R22*%
X178345000Y-101720000D03*
X179995000Y-101720000D03*
%TD*%
M02*
