%TF.GenerationSoftware,KiCad,Pcbnew,8.0.0*%
%TF.CreationDate,2024-04-27T18:31:45+01:00*%
%TF.ProjectId,StepUp,53746570-5570-42e6-9b69-6361645f7063,rev?*%
%TF.SameCoordinates,Original*%
%TF.FileFunction,Legend,Bot*%
%TF.FilePolarity,Positive*%
%FSLAX46Y46*%
G04 Gerber Fmt 4.6, Leading zero omitted, Abs format (unit mm)*
G04 Created by KiCad (PCBNEW 8.0.0) date 2024-04-27 18:31:45*
%MOMM*%
%LPD*%
G01*
G04 APERTURE LIST*
G04 Aperture macros list*
%AMRoundRect*
0 Rectangle with rounded corners*
0 $1 Rounding radius*
0 $2 $3 $4 $5 $6 $7 $8 $9 X,Y pos of 4 corners*
0 Add a 4 corners polygon primitive as box body*
4,1,4,$2,$3,$4,$5,$6,$7,$8,$9,$2,$3,0*
0 Add four circle primitives for the rounded corners*
1,1,$1+$1,$2,$3*
1,1,$1+$1,$4,$5*
1,1,$1+$1,$6,$7*
1,1,$1+$1,$8,$9*
0 Add four rect primitives between the rounded corners*
20,1,$1+$1,$2,$3,$4,$5,0*
20,1,$1+$1,$4,$5,$6,$7,0*
20,1,$1+$1,$6,$7,$8,$9,0*
20,1,$1+$1,$8,$9,$2,$3,0*%
G04 Aperture macros list end*
%ADD10RoundRect,0.102000X0.900000X0.900000X-0.900000X0.900000X-0.900000X-0.900000X0.900000X-0.900000X0*%
%ADD11C,2.004000*%
%ADD12C,3.550000*%
%ADD13C,2.390000*%
%ADD14C,2.184000*%
%ADD15R,1.700000X1.700000*%
%ADD16O,1.700000X1.700000*%
%ADD17C,2.700000*%
%ADD18C,1.982000*%
%ADD19C,2.490000*%
%ADD20C,0.650000*%
%ADD21O,1.000000X2.100000*%
%ADD22O,1.000000X1.800000*%
G04 APERTURE END LIST*
%LPC*%
D10*
%TO.C,J3*%
X144250000Y-79437500D03*
D11*
X140750000Y-79437500D03*
X137250000Y-79437500D03*
X133750000Y-79437500D03*
D10*
X144250000Y-72437500D03*
D11*
X140750000Y-72437500D03*
X137250000Y-72437500D03*
X133750000Y-72437500D03*
%TD*%
D12*
%TO.C,BT1*%
X112390000Y-132290000D03*
X96390000Y-77090000D03*
D13*
X112390000Y-68890000D03*
D14*
X104390000Y-141110000D03*
X104390000Y-68890000D03*
%TD*%
D15*
%TO.C,J1*%
X183500000Y-87730000D03*
D16*
X183500000Y-90270000D03*
%TD*%
D17*
%TO.C,H1*%
X89500000Y-65500000D03*
%TD*%
D18*
%TO.C,U8*%
X149825000Y-121800000D03*
X156175000Y-121800000D03*
X149825000Y-126880000D03*
X156175000Y-126880000D03*
X150460000Y-144660000D03*
X153000000Y-144660000D03*
X155540000Y-144660000D03*
D19*
X145380000Y-127832500D03*
X145380000Y-141167500D03*
X160620000Y-141167500D03*
X160620000Y-127832500D03*
D18*
X142840000Y-131960000D03*
X142840000Y-134500000D03*
X142840000Y-137040000D03*
%TD*%
D15*
%TO.C,J4*%
X127150000Y-118000000D03*
D16*
X127150000Y-120540000D03*
%TD*%
D20*
%TO.C,J8*%
X121610000Y-137895000D03*
X127390000Y-137895000D03*
D21*
X120180000Y-137395000D03*
D22*
X120180000Y-141575000D03*
D21*
X128820000Y-137395000D03*
D22*
X128820000Y-141575000D03*
%TD*%
D17*
%TO.C,H2*%
X88500000Y-143500000D03*
%TD*%
D15*
%TO.C,J7*%
X177500000Y-124225000D03*
D16*
X177500000Y-126765000D03*
%TD*%
D15*
%TO.C,J5*%
X131800000Y-118000000D03*
D16*
X131800000Y-120540000D03*
%TD*%
D17*
%TO.C,H4*%
X181000000Y-141500000D03*
%TD*%
D15*
%TO.C,J2*%
X218865000Y-115790000D03*
D16*
X218865000Y-118330000D03*
%TD*%
D17*
%TO.C,H3*%
X180000000Y-66500000D03*
%TD*%
%LPD*%
M02*
