%TF.GenerationSoftware,KiCad,Pcbnew,8.0.0*%
%TF.CreationDate,2024-04-27T18:31:45+01:00*%
%TF.ProjectId,StepUp,53746570-5570-42e6-9b69-6361645f7063,rev?*%
%TF.SameCoordinates,Original*%
%TF.FileFunction,Copper,L4,Bot*%
%TF.FilePolarity,Positive*%
%FSLAX46Y46*%
G04 Gerber Fmt 4.6, Leading zero omitted, Abs format (unit mm)*
G04 Created by KiCad (PCBNEW 8.0.0) date 2024-04-27 18:31:45*
%MOMM*%
%LPD*%
G01*
G04 APERTURE LIST*
%TA.AperFunction,ComponentPad*%
%ADD10R,1.800000X1.800000*%
%TD*%
%TA.AperFunction,ComponentPad*%
%ADD11C,1.800000*%
%TD*%
%TA.AperFunction,ComponentPad*%
%ADD12C,1.980000*%
%TD*%
%TA.AperFunction,ComponentPad*%
%ADD13R,1.700000X1.700000*%
%TD*%
%TA.AperFunction,ComponentPad*%
%ADD14O,1.700000X1.700000*%
%TD*%
%TA.AperFunction,HeatsinkPad*%
%ADD15C,0.600000*%
%TD*%
%TA.AperFunction,HeatsinkPad*%
%ADD16R,1.600000X2.500000*%
%TD*%
%TA.AperFunction,ComponentPad*%
%ADD17C,0.600000*%
%TD*%
%TA.AperFunction,ComponentPad*%
%ADD18C,1.778000*%
%TD*%
%TA.AperFunction,ComponentPad*%
%ADD19C,2.286000*%
%TD*%
%TA.AperFunction,ComponentPad*%
%ADD20O,1.000000X2.100000*%
%TD*%
%TA.AperFunction,ComponentPad*%
%ADD21O,1.000000X1.800000*%
%TD*%
G04 APERTURE END LIST*
D10*
%TO.P,J3,1_A,1*%
%TO.N,/Motor Driver/OA1*%
X144250000Y-79437500D03*
D11*
%TO.P,J3,2_A,2*%
%TO.N,/Motor Driver/OA2*%
X140750000Y-79437500D03*
%TO.P,J3,3_A,3*%
%TO.N,/Motor Driver/OB1*%
X137250000Y-79437500D03*
%TO.P,J3,4_A,4*%
%TO.N,/Motor Driver/OB2*%
X133750000Y-79437500D03*
D10*
%TO.P,J3,1_B,1__1*%
%TO.N,/Motor Driver/OA1*%
X144250000Y-72437500D03*
D11*
%TO.P,J3,2_B,2__1*%
%TO.N,/Motor Driver/OA2*%
X140750000Y-72437500D03*
%TO.P,J3,3_B,3__1*%
%TO.N,/Motor Driver/OB1*%
X137250000Y-72437500D03*
%TO.P,J3,4_B,4__1*%
%TO.N,/Motor Driver/OB2*%
X133750000Y-72437500D03*
%TD*%
D12*
%TO.P,BT1,N*%
%TO.N,GND*%
X104390000Y-141110000D03*
%TO.P,BT1,P*%
%TO.N,Vbat*%
X104390000Y-68890000D03*
%TD*%
D13*
%TO.P,J1,1,Pin_1*%
%TO.N,V_USB*%
X183500000Y-87730000D03*
D14*
%TO.P,J1,2,Pin_2*%
%TO.N,Net-(D3-A)*%
X183500000Y-90270000D03*
%TD*%
D15*
%TO.P,U7,13,PGND*%
%TO.N,GND*%
X155350000Y-108695000D03*
X155350000Y-109645000D03*
X155350000Y-110595000D03*
D16*
X155850000Y-109645000D03*
D15*
X156350000Y-108695000D03*
X156350000Y-109645000D03*
X156350000Y-110595000D03*
%TD*%
D17*
%TO.P,U2,57,GND*%
%TO.N,GND*%
X121450000Y-106500000D03*
X121450000Y-107775000D03*
X121450000Y-109050000D03*
X122725000Y-106500000D03*
X122725000Y-107775000D03*
X122725000Y-109050000D03*
X124000000Y-106500000D03*
X124000000Y-107775000D03*
X124000000Y-109050000D03*
%TD*%
D18*
%TO.P,U8,B1A,SEL+*%
%TO.N,JOYSTSICK_BUTTON*%
X149825000Y-121800000D03*
%TO.P,U8,B1B*%
%TO.N,N/C*%
X156175000Y-121800000D03*
%TO.P,U8,B2A,SEL-*%
%TO.N,GND*%
X149825000Y-126880000D03*
%TO.P,U8,B2B*%
%TO.N,N/C*%
X156175000Y-126880000D03*
%TO.P,U8,H1,H+*%
%TO.N,+3V3*%
X150460000Y-144660000D03*
%TO.P,U8,H2,H*%
%TO.N,JOYSTSICK_AXIS_H*%
X153000000Y-144660000D03*
%TO.P,U8,H3,H-*%
%TO.N,GND*%
X155540000Y-144660000D03*
D19*
%TO.P,U8,S1,SHIELD*%
X145380000Y-127832500D03*
%TO.P,U8,S2,SHIELD*%
X145380000Y-141167500D03*
%TO.P,U8,S3,SHIELD*%
X160620000Y-141167500D03*
%TO.P,U8,S4,SHIELD*%
X160620000Y-127832500D03*
D18*
%TO.P,U8,V1,V+*%
%TO.N,+3V3*%
X142840000Y-131960000D03*
%TO.P,U8,V2,V*%
%TO.N,JOYSTSICK_AXIS_V*%
X142840000Y-134500000D03*
%TO.P,U8,V3,V-*%
%TO.N,GND*%
X142840000Y-137040000D03*
%TD*%
D13*
%TO.P,J4,1,Pin_1*%
%TO.N,Vbat*%
X127150000Y-118000000D03*
D14*
%TO.P,J4,2,Pin_2*%
%TO.N,Net-(J4-Pin_2)*%
X127150000Y-120540000D03*
%TD*%
D20*
%TO.P,J8,S1,SHIELD*%
%TO.N,GND*%
X120180000Y-137395000D03*
D21*
X120180000Y-141575000D03*
D20*
X128820000Y-137395000D03*
D21*
X128820000Y-141575000D03*
%TD*%
D13*
%TO.P,J7,1,Pin_1*%
%TO.N,Vbat*%
X177500000Y-124225000D03*
D14*
%TO.P,J7,2,Pin_2*%
%TO.N,/Power/BOOST_VIN*%
X177500000Y-126765000D03*
%TD*%
D13*
%TO.P,J5,1,Pin_1*%
%TO.N,V_USB*%
X131800000Y-118000000D03*
D14*
%TO.P,J5,2,Pin_2*%
%TO.N,Net-(J5-Pin_2)*%
X131800000Y-120540000D03*
%TD*%
D13*
%TO.P,J2,1,Pin_1*%
%TO.N,VMotor*%
X218865000Y-115790000D03*
D14*
%TO.P,J2,2,Pin_2*%
%TO.N,/Power/BOOST_VOUT*%
X218865000Y-118330000D03*
%TD*%
M02*
