%TF.GenerationSoftware,KiCad,Pcbnew,8.0.0*%
%TF.CreationDate,2024-04-27T18:31:45+01:00*%
%TF.ProjectId,StepUp,53746570-5570-42e6-9b69-6361645f7063,rev?*%
%TF.SameCoordinates,Original*%
%TF.FileFunction,Copper,L1,Top*%
%TF.FilePolarity,Positive*%
%FSLAX46Y46*%
G04 Gerber Fmt 4.6, Leading zero omitted, Abs format (unit mm)*
G04 Created by KiCad (PCBNEW 8.0.0) date 2024-04-27 18:31:45*
%MOMM*%
%LPD*%
G01*
G04 APERTURE LIST*
G04 Aperture macros list*
%AMRoundRect*
0 Rectangle with rounded corners*
0 $1 Rounding radius*
0 $2 $3 $4 $5 $6 $7 $8 $9 X,Y pos of 4 corners*
0 Add a 4 corners polygon primitive as box body*
4,1,4,$2,$3,$4,$5,$6,$7,$8,$9,$2,$3,0*
0 Add four circle primitives for the rounded corners*
1,1,$1+$1,$2,$3*
1,1,$1+$1,$4,$5*
1,1,$1+$1,$6,$7*
1,1,$1+$1,$8,$9*
0 Add four rect primitives between the rounded corners*
20,1,$1+$1,$2,$3,$4,$5,0*
20,1,$1+$1,$4,$5,$6,$7,0*
20,1,$1+$1,$6,$7,$8,$9,0*
20,1,$1+$1,$8,$9,$2,$3,0*%
%AMFreePoly0*
4,1,19,0.500000,-0.750000,0.000000,-0.750000,0.000000,-0.744911,-0.071157,-0.744911,-0.207708,-0.704816,-0.327430,-0.627875,-0.420627,-0.520320,-0.479746,-0.390866,-0.500000,-0.250000,-0.500000,0.250000,-0.479746,0.390866,-0.420627,0.520320,-0.327430,0.627875,-0.207708,0.704816,-0.071157,0.744911,0.000000,0.744911,0.000000,0.750000,0.500000,0.750000,0.500000,-0.750000,0.500000,-0.750000,
$1*%
%AMFreePoly1*
4,1,19,0.000000,0.744911,0.071157,0.744911,0.207708,0.704816,0.327430,0.627875,0.420627,0.520320,0.479746,0.390866,0.500000,0.250000,0.500000,-0.250000,0.479746,-0.390866,0.420627,-0.520320,0.327430,-0.627875,0.207708,-0.704816,0.071157,-0.744911,0.000000,-0.744911,0.000000,-0.750000,-0.500000,-0.750000,-0.500000,0.750000,0.000000,0.750000,0.000000,0.744911,0.000000,0.744911,
$1*%
G04 Aperture macros list end*
%TA.AperFunction,SMDPad,CuDef*%
%ADD10R,0.762000X0.254000*%
%TD*%
%TA.AperFunction,SMDPad,CuDef*%
%ADD11R,0.254000X0.762000*%
%TD*%
%TA.AperFunction,SMDPad,CuDef*%
%ADD12R,1.701800X1.701800*%
%TD*%
%TA.AperFunction,SMDPad,CuDef*%
%ADD13C,1.500000*%
%TD*%
%TA.AperFunction,SMDPad,CuDef*%
%ADD14R,2.150000X2.200000*%
%TD*%
%TA.AperFunction,SMDPad,CuDef*%
%ADD15RoundRect,0.250000X-0.400000X-0.450000X0.400000X-0.450000X0.400000X0.450000X-0.400000X0.450000X0*%
%TD*%
%TA.AperFunction,ComponentPad*%
%ADD16R,1.800000X1.800000*%
%TD*%
%TA.AperFunction,ComponentPad*%
%ADD17C,1.800000*%
%TD*%
%TA.AperFunction,SMDPad,CuDef*%
%ADD18RoundRect,0.200000X-0.200000X-0.275000X0.200000X-0.275000X0.200000X0.275000X-0.200000X0.275000X0*%
%TD*%
%TA.AperFunction,ComponentPad*%
%ADD19C,1.980000*%
%TD*%
%TA.AperFunction,SMDPad,CuDef*%
%ADD20R,1.300000X0.600000*%
%TD*%
%TA.AperFunction,SMDPad,CuDef*%
%ADD21RoundRect,0.140000X-0.140000X-0.170000X0.140000X-0.170000X0.140000X0.170000X-0.140000X0.170000X0*%
%TD*%
%TA.AperFunction,ComponentPad*%
%ADD22R,1.700000X1.700000*%
%TD*%
%TA.AperFunction,ComponentPad*%
%ADD23O,1.700000X1.700000*%
%TD*%
%TA.AperFunction,SMDPad,CuDef*%
%ADD24RoundRect,0.250000X-0.250000X-0.475000X0.250000X-0.475000X0.250000X0.475000X-0.250000X0.475000X0*%
%TD*%
%TA.AperFunction,SMDPad,CuDef*%
%ADD25RoundRect,0.225000X-0.225000X-0.250000X0.225000X-0.250000X0.225000X0.250000X-0.225000X0.250000X0*%
%TD*%
%TA.AperFunction,SMDPad,CuDef*%
%ADD26RoundRect,0.135000X-0.135000X-0.185000X0.135000X-0.185000X0.135000X0.185000X-0.135000X0.185000X0*%
%TD*%
%TA.AperFunction,SMDPad,CuDef*%
%ADD27RoundRect,0.250000X-0.312500X-0.625000X0.312500X-0.625000X0.312500X0.625000X-0.312500X0.625000X0*%
%TD*%
%TA.AperFunction,SMDPad,CuDef*%
%ADD28RoundRect,0.250000X-0.412500X-0.925000X0.412500X-0.925000X0.412500X0.925000X-0.412500X0.925000X0*%
%TD*%
%TA.AperFunction,SMDPad,CuDef*%
%ADD29R,1.300000X0.700000*%
%TD*%
%TA.AperFunction,SMDPad,CuDef*%
%ADD30RoundRect,0.062500X-0.362500X-0.062500X0.362500X-0.062500X0.362500X0.062500X-0.362500X0.062500X0*%
%TD*%
%TA.AperFunction,HeatsinkPad*%
%ADD31C,0.600000*%
%TD*%
%TA.AperFunction,HeatsinkPad*%
%ADD32R,1.600000X2.500000*%
%TD*%
%TA.AperFunction,SMDPad,CuDef*%
%ADD33RoundRect,0.243750X-0.243750X-0.456250X0.243750X-0.456250X0.243750X0.456250X-0.243750X0.456250X0*%
%TD*%
%TA.AperFunction,SMDPad,CuDef*%
%ADD34R,1.050000X0.650000*%
%TD*%
%TA.AperFunction,SMDPad,CuDef*%
%ADD35RoundRect,0.050000X-0.387500X-0.050000X0.387500X-0.050000X0.387500X0.050000X-0.387500X0.050000X0*%
%TD*%
%TA.AperFunction,SMDPad,CuDef*%
%ADD36RoundRect,0.050000X-0.050000X-0.387500X0.050000X-0.387500X0.050000X0.387500X-0.050000X0.387500X0*%
%TD*%
%TA.AperFunction,ComponentPad*%
%ADD37C,0.600000*%
%TD*%
%TA.AperFunction,SMDPad,CuDef*%
%ADD38RoundRect,0.144000X-1.456000X-1.456000X1.456000X-1.456000X1.456000X1.456000X-1.456000X1.456000X0*%
%TD*%
%TA.AperFunction,ComponentPad*%
%ADD39C,1.778000*%
%TD*%
%TA.AperFunction,ComponentPad*%
%ADD40C,2.286000*%
%TD*%
%TA.AperFunction,SMDPad,CuDef*%
%ADD41RoundRect,0.150000X-0.150000X-0.425000X0.150000X-0.425000X0.150000X0.425000X-0.150000X0.425000X0*%
%TD*%
%TA.AperFunction,SMDPad,CuDef*%
%ADD42RoundRect,0.075000X-0.075000X-0.500000X0.075000X-0.500000X0.075000X0.500000X-0.075000X0.500000X0*%
%TD*%
%TA.AperFunction,ComponentPad*%
%ADD43O,1.000000X2.100000*%
%TD*%
%TA.AperFunction,ComponentPad*%
%ADD44O,1.000000X1.800000*%
%TD*%
%TA.AperFunction,SMDPad,CuDef*%
%ADD45RoundRect,0.250000X-1.000000X-0.650000X1.000000X-0.650000X1.000000X0.650000X-1.000000X0.650000X0*%
%TD*%
%TA.AperFunction,SMDPad,CuDef*%
%ADD46FreePoly0,0.000000*%
%TD*%
%TA.AperFunction,SMDPad,CuDef*%
%ADD47FreePoly1,0.000000*%
%TD*%
%TA.AperFunction,SMDPad,CuDef*%
%ADD48RoundRect,0.150000X-0.512500X-0.150000X0.512500X-0.150000X0.512500X0.150000X-0.512500X0.150000X0*%
%TD*%
%TA.AperFunction,SMDPad,CuDef*%
%ADD49R,1.400000X1.200000*%
%TD*%
%TA.AperFunction,SMDPad,CuDef*%
%ADD50R,0.600000X1.050000*%
%TD*%
%TA.AperFunction,SMDPad,CuDef*%
%ADD51RoundRect,0.150000X-0.587500X-0.150000X0.587500X-0.150000X0.587500X0.150000X-0.587500X0.150000X0*%
%TD*%
%TA.AperFunction,SMDPad,CuDef*%
%ADD52RoundRect,0.375000X-0.625000X-0.375000X0.625000X-0.375000X0.625000X0.375000X-0.625000X0.375000X0*%
%TD*%
%TA.AperFunction,SMDPad,CuDef*%
%ADD53RoundRect,0.500000X-0.500000X-1.400000X0.500000X-1.400000X0.500000X1.400000X-0.500000X1.400000X0*%
%TD*%
%TA.AperFunction,SMDPad,CuDef*%
%ADD54R,0.900000X0.950000*%
%TD*%
%TA.AperFunction,SMDPad,CuDef*%
%ADD55RoundRect,0.250000X-0.300000X-0.300000X0.300000X-0.300000X0.300000X0.300000X-0.300000X0.300000X0*%
%TD*%
%TA.AperFunction,SMDPad,CuDef*%
%ADD56RoundRect,0.150000X-0.650000X-0.150000X0.650000X-0.150000X0.650000X0.150000X-0.650000X0.150000X0*%
%TD*%
%TA.AperFunction,Conductor*%
%ADD57C,0.152400*%
%TD*%
G04 APERTURE END LIST*
D10*
%TO.P,U3,1,OA2*%
%TO.N,/Motor Driver/OA2*%
X209655200Y-128899998D03*
%TO.P,U3,2,VCP*%
%TO.N,Net-(U3-VCP)*%
X209655200Y-129300000D03*
%TO.P,U3,3,DIR*%
%TO.N,TMC_DIR*%
X209655200Y-129699999D03*
%TO.P,U3,4,STEP*%
%TO.N,TMC_STEP*%
X209655200Y-130099998D03*
%TO.P,U3,5,MS1_AD0*%
%TO.N,TMC_MS1{slash}AD0*%
X209655200Y-130500000D03*
D11*
%TO.P,U3,6,MS2_AD1*%
%TO.N,TMC_MS2{slash}AD1*%
X210277599Y-131122399D03*
%TO.P,U3,7,EN*%
%TO.N,TMC_EN*%
X210677601Y-131122399D03*
%TO.P,U3,8,STEPPER*%
%TO.N,/Motor Driver/VCC_IO*%
X211077600Y-131122399D03*
%TO.P,U3,9,MODE*%
%TO.N,TMC_MODE*%
X211477599Y-131122399D03*
%TO.P,U3,10,PDN_UART*%
%TO.N,TMC_UART_RX*%
X211877601Y-131122399D03*
D10*
%TO.P,U3,11,VIO/NSTDBY*%
%TO.N,/Motor Driver/VCC_IO*%
X212500000Y-130500000D03*
%TO.P,U3,12,DIAG*%
%TO.N,TMC_DIAG*%
X212500000Y-130099998D03*
%TO.P,U3,13,1.8VOUT*%
%TO.N,Net-(U3-1.8VOUT)*%
X212500000Y-129699999D03*
%TO.P,U3,14,GND*%
%TO.N,GND*%
X212500000Y-129300000D03*
%TO.P,U3,15,OB2*%
%TO.N,/Motor Driver/OB2*%
X212500000Y-128899998D03*
D11*
%TO.P,U3,16,BRB*%
%TO.N,Net-(U3-BRB)*%
X211877601Y-128277599D03*
%TO.P,U3,17,OB1*%
%TO.N,/Motor Driver/OB1*%
X211477599Y-128277599D03*
%TO.P,U3,18,VS*%
%TO.N,VMotor*%
X211077600Y-128277599D03*
%TO.P,U3,19,OA1*%
%TO.N,/Motor Driver/OA1*%
X210677601Y-128277599D03*
%TO.P,U3,20,BRA*%
%TO.N,Net-(U3-BRA)*%
X210277599Y-128277599D03*
D12*
%TO.P,U3,21,EPAD*%
%TO.N,GND*%
X211077600Y-129699999D03*
%TD*%
D13*
%TO.P,TP1,1,1*%
%TO.N,/Power/BOOST_VOUT*%
X201905000Y-101050000D03*
%TD*%
D14*
%TO.P,L2,1,1*%
%TO.N,/Power/BOOST_VIN*%
X201980000Y-95800000D03*
%TO.P,L2,2,2*%
%TO.N,Net-(D2-A)*%
X206780000Y-95800000D03*
%TD*%
D15*
%TO.P,D6,1,A1*%
%TO.N,VMotor*%
X143050000Y-104000000D03*
%TO.P,D6,2,A2*%
%TO.N,GND*%
X145950000Y-104000000D03*
%TD*%
D16*
%TO.P,J3,1_A,1*%
%TO.N,/Motor Driver/OA1*%
X144250000Y-79437500D03*
D17*
%TO.P,J3,2_A,2*%
%TO.N,/Motor Driver/OA2*%
X140750000Y-79437500D03*
%TO.P,J3,3_A,3*%
%TO.N,/Motor Driver/OB1*%
X137250000Y-79437500D03*
%TO.P,J3,4_A,4*%
%TO.N,/Motor Driver/OB2*%
X133750000Y-79437500D03*
D16*
%TO.P,J3,1_B,1__1*%
%TO.N,/Motor Driver/OA1*%
X144250000Y-72437500D03*
D17*
%TO.P,J3,2_B,2__1*%
%TO.N,/Motor Driver/OA2*%
X140750000Y-72437500D03*
%TO.P,J3,3_B,3__1*%
%TO.N,/Motor Driver/OB1*%
X137250000Y-72437500D03*
%TO.P,J3,4_B,4__1*%
%TO.N,/Motor Driver/OB2*%
X133750000Y-72437500D03*
%TD*%
D18*
%TO.P,R20,1*%
%TO.N,Vbat_monitor*%
X178345000Y-96700000D03*
%TO.P,R20,2*%
%TO.N,Vbat*%
X179995000Y-96700000D03*
%TD*%
D19*
%TO.P,BT1,N*%
%TO.N,GND*%
X104390000Y-141110000D03*
%TO.P,BT1,P*%
%TO.N,Vbat*%
X104390000Y-68890000D03*
%TD*%
D20*
%TO.P,Q4,1,G*%
%TO.N,~{TMC_STBDY}*%
X202900000Y-130050000D03*
%TO.P,Q4,2,S*%
%TO.N,GND*%
X202900000Y-131950000D03*
%TO.P,Q4,3,D*%
%TO.N,Net-(Q3-G)*%
X205000000Y-131000000D03*
%TD*%
D21*
%TO.P,C10,1*%
%TO.N,+3V3*%
X146997500Y-96017500D03*
%TO.P,C10,2*%
%TO.N,GND*%
X147957500Y-96017500D03*
%TD*%
%TO.P,C5,1*%
%TO.N,+1V1*%
X162262500Y-84617500D03*
%TO.P,C5,2*%
%TO.N,GND*%
X163222500Y-84617500D03*
%TD*%
D18*
%TO.P,R6,1*%
%TO.N,GND*%
X156892500Y-93737500D03*
%TO.P,R6,2*%
%TO.N,Net-(U5-PROG)*%
X158542500Y-93737500D03*
%TD*%
D21*
%TO.P,C8,1*%
%TO.N,+3V3*%
X134520000Y-85500000D03*
%TO.P,C8,2*%
%TO.N,GND*%
X135480000Y-85500000D03*
%TD*%
D22*
%TO.P,J1,1,Pin_1*%
%TO.N,V_USB*%
X183500000Y-87730000D03*
D23*
%TO.P,J1,2,Pin_2*%
%TO.N,Net-(D3-A)*%
X183500000Y-90270000D03*
%TD*%
D24*
%TO.P,C19,1*%
%TO.N,Net-(J4-Pin_2)*%
X139187500Y-93527500D03*
%TO.P,C19,2*%
%TO.N,GND*%
X141087500Y-93527500D03*
%TD*%
D18*
%TO.P,R34,1*%
%TO.N,Net-(Q3-G)*%
X206100000Y-117230000D03*
%TO.P,R34,2*%
%TO.N,+3V3*%
X207750000Y-117230000D03*
%TD*%
D25*
%TO.P,C18,1*%
%TO.N,/Power/BOOST_VIN*%
X139362500Y-91557500D03*
%TO.P,C18,2*%
%TO.N,GND*%
X140912500Y-91557500D03*
%TD*%
D18*
%TO.P,R10,1*%
%TO.N,Net-(U7-OVP)*%
X123702500Y-91627500D03*
%TO.P,R10,2*%
%TO.N,/Power/BOOST_VOUT*%
X125352500Y-91627500D03*
%TD*%
D26*
%TO.P,R2,1*%
%TO.N,+3V3*%
X157207500Y-83697500D03*
%TO.P,R2,2*%
%TO.N,/MCU/QSPI_SS*%
X158227500Y-83697500D03*
%TD*%
D27*
%TO.P,R29,1*%
%TO.N,GND*%
X210272500Y-115110000D03*
%TO.P,R29,2*%
%TO.N,Net-(U3-BRA)*%
X213197500Y-115110000D03*
%TD*%
D26*
%TO.P,R5,1*%
%TO.N,/MCU/USB_D-*%
X157207500Y-91227500D03*
%TO.P,R5,2*%
%TO.N,Net-(U2-USB_DM)*%
X158227500Y-91227500D03*
%TD*%
D18*
%TO.P,R7,1*%
%TO.N,Net-(U5-STAT)*%
X123702500Y-85657500D03*
%TO.P,R7,2*%
%TO.N,Net-(D1-K)*%
X125352500Y-85657500D03*
%TD*%
D28*
%TO.P,C15,1*%
%TO.N,/Power/BOOST_VIN*%
X137962500Y-84500000D03*
%TO.P,C15,2*%
%TO.N,GND*%
X141037500Y-84500000D03*
%TD*%
D18*
%TO.P,R8,1*%
%TO.N,GND*%
X123702500Y-87647500D03*
%TO.P,R8,2*%
%TO.N,/Power/BOOST_ENABLE*%
X125352500Y-87647500D03*
%TD*%
%TO.P,R32,1*%
%TO.N,TMC_UART_RX*%
X202090000Y-127270000D03*
%TO.P,R32,2*%
%TO.N,GND*%
X203740000Y-127270000D03*
%TD*%
D26*
%TO.P,R4,1*%
%TO.N,/MCU/USB_D+*%
X157207500Y-88717500D03*
%TO.P,R4,2*%
%TO.N,Net-(U2-USB_DP)*%
X158227500Y-88717500D03*
%TD*%
D24*
%TO.P,C28,1*%
%TO.N,VMotor*%
X210205000Y-121550000D03*
%TO.P,C28,2*%
%TO.N,GND*%
X212105000Y-121550000D03*
%TD*%
D20*
%TO.P,Q3,1,G*%
%TO.N,Net-(Q3-G)*%
X198200000Y-130050000D03*
%TO.P,Q3,2,D*%
%TO.N,+3V3*%
X198200000Y-131950000D03*
%TO.P,Q3,3,S*%
%TO.N,/Motor Driver/VCC_IO*%
X200300000Y-131000000D03*
%TD*%
D26*
%TO.P,R3,1*%
%TO.N,/MCU/XOUT*%
X157207500Y-86207500D03*
%TO.P,R3,2*%
%TO.N,Net-(C2-Pad1)*%
X158227500Y-86207500D03*
%TD*%
D21*
%TO.P,C7,1*%
%TO.N,+3V3*%
X161537500Y-79397500D03*
%TO.P,C7,2*%
%TO.N,GND*%
X162497500Y-79397500D03*
%TD*%
D18*
%TO.P,R23,1*%
%TO.N,/Motor Driver/VCC_IO*%
X198080000Y-124760000D03*
%TO.P,R23,2*%
%TO.N,TMC_MS2{slash}AD1*%
X199730000Y-124760000D03*
%TD*%
D21*
%TO.P,C6,1*%
%TO.N,+1V1*%
X153227500Y-93737500D03*
%TO.P,C6,2*%
%TO.N,GND*%
X154187500Y-93737500D03*
%TD*%
D29*
%TO.P,D4,1,KB*%
%TO.N,unconnected-(D4-KB-Pad1)*%
X183400000Y-115800000D03*
%TO.P,D4,2,KG*%
%TO.N,unconnected-(D4-KG-Pad2)*%
X183400000Y-116900000D03*
%TO.P,D4,3,KR*%
%TO.N,unconnected-(D4-KR-Pad3)*%
X183400000Y-118000000D03*
%TO.P,D4,4,AR*%
%TO.N,unconnected-(D4-AR-Pad4)*%
X186500000Y-118000000D03*
%TO.P,D4,5,AG*%
%TO.N,unconnected-(D4-AG-Pad5)*%
X186500000Y-116900000D03*
%TO.P,D4,6,AB*%
%TO.N,unconnected-(D4-AB-Pad6)*%
X186500000Y-115800000D03*
%TD*%
D27*
%TO.P,R31,1*%
%TO.N,GND*%
X210272500Y-118400000D03*
%TO.P,R31,2*%
%TO.N,Net-(U3-BRB)*%
X213197500Y-118400000D03*
%TD*%
D18*
%TO.P,R27,1*%
%TO.N,TMC_STEP*%
X202090000Y-119740000D03*
%TO.P,R27,2*%
%TO.N,GND*%
X203740000Y-119740000D03*
%TD*%
D21*
%TO.P,C13,1*%
%TO.N,+3V3*%
X136787500Y-91557500D03*
%TO.P,C13,2*%
%TO.N,GND*%
X137747500Y-91557500D03*
%TD*%
D30*
%TO.P,U7,1,NC*%
%TO.N,unconnected-(U7-NC-Pad1)*%
X154425000Y-108395000D03*
%TO.P,U7,2,SS*%
%TO.N,Net-(U7-SS)*%
X154425000Y-108895000D03*
%TO.P,U7,3,FB*%
%TO.N,Net-(U7-FB)*%
X154425000Y-109395000D03*
%TO.P,U7,4,AGND*%
%TO.N,GND*%
X154425000Y-109895000D03*
%TO.P,U7,5,PGND*%
X154425000Y-110395000D03*
%TO.P,U7,6,PGND*%
X154425000Y-110895000D03*
%TO.P,U7,7,SW*%
%TO.N,Net-(D2-A)*%
X157275000Y-110895000D03*
%TO.P,U7,8,SW*%
X157275000Y-110395000D03*
%TO.P,U7,9,OVP*%
%TO.N,Net-(U7-OVP)*%
X157275000Y-109895000D03*
%TO.P,U7,10,VIN*%
%TO.N,/Power/BOOST_VIN*%
X157275000Y-109395000D03*
%TO.P,U7,11,EN*%
%TO.N,/Power/BOOST_ENABLE*%
X157275000Y-108895000D03*
%TO.P,U7,12,COMP*%
%TO.N,Net-(U7-COMP)*%
X157275000Y-108395000D03*
D31*
%TO.P,U7,13,PGND*%
%TO.N,GND*%
X155350000Y-108695000D03*
X155350000Y-109645000D03*
X155350000Y-110595000D03*
D32*
X155850000Y-109645000D03*
D31*
X156350000Y-108695000D03*
X156350000Y-109645000D03*
X156350000Y-110595000D03*
%TD*%
D21*
%TO.P,C3,1*%
%TO.N,+3V3*%
X153227500Y-88717500D03*
%TO.P,C3,2*%
%TO.N,GND*%
X154187500Y-88717500D03*
%TD*%
D18*
%TO.P,R28,1*%
%TO.N,TMC_DIR*%
X202090000Y-122250000D03*
%TO.P,R28,2*%
%TO.N,GND*%
X203740000Y-122250000D03*
%TD*%
D33*
%TO.P,D1,1,K*%
%TO.N,Net-(D1-K)*%
X154835000Y-80167500D03*
%TO.P,D1,2,A*%
%TO.N,V_USB*%
X156710000Y-80167500D03*
%TD*%
D21*
%TO.P,C14,1*%
%TO.N,+3V3*%
X136787500Y-93527500D03*
%TO.P,C14,2*%
%TO.N,GND*%
X137747500Y-93527500D03*
%TD*%
D34*
%TO.P,SW1,1,1*%
%TO.N,GND*%
X167925000Y-102925000D03*
X172075000Y-102925000D03*
%TO.P,SW1,2,2*%
%TO.N,Net-(D5-PadK)*%
X167925000Y-105075000D03*
X172050000Y-105075000D03*
%TD*%
D18*
%TO.P,R14,1*%
%TO.N,V_USB*%
X121355000Y-124130000D03*
%TO.P,R14,2*%
%TO.N,Net-(Q1-G)*%
X123005000Y-124130000D03*
%TD*%
D35*
%TO.P,U2,1,IOVDD*%
%TO.N,+3V3*%
X119287500Y-105175000D03*
%TO.P,U2,2,GPIO0*%
%TO.N,/MCU/GPIO0*%
X119287500Y-105575000D03*
%TO.P,U2,3,GPIO1*%
%TO.N,/MCU/GPIO1*%
X119287500Y-105975000D03*
%TO.P,U2,4,GPIO2*%
%TO.N,/MCU/GPIO2*%
X119287500Y-106375000D03*
%TO.P,U2,5,GPIO3*%
%TO.N,/MCU/GPIO3*%
X119287500Y-106775000D03*
%TO.P,U2,6,GPIO4*%
%TO.N,/MCU/GPIO4*%
X119287500Y-107175000D03*
%TO.P,U2,7,GPIO5*%
%TO.N,/MCU/GPIO5*%
X119287500Y-107575000D03*
%TO.P,U2,8,GPIO6*%
%TO.N,/MCU/GPIO6*%
X119287500Y-107975000D03*
%TO.P,U2,9,GPIO7*%
%TO.N,/MCU/GPIO7*%
X119287500Y-108375000D03*
%TO.P,U2,10,IOVDD*%
%TO.N,+3V3*%
X119287500Y-108775000D03*
%TO.P,U2,11,GPIO8*%
%TO.N,/MCU/GPIO8*%
X119287500Y-109175000D03*
%TO.P,U2,12,GPIO9*%
%TO.N,/MCU/GPIO9*%
X119287500Y-109575000D03*
%TO.P,U2,13,GPIO10*%
%TO.N,/MCU/GPIO10*%
X119287500Y-109975000D03*
%TO.P,U2,14,GPIO11*%
%TO.N,/MCU/GPIO11*%
X119287500Y-110375000D03*
D36*
%TO.P,U2,15,GPIO12*%
%TO.N,/MCU/GPIO12*%
X120125000Y-111212500D03*
%TO.P,U2,16,GPIO13*%
%TO.N,/MCU/GPIO13*%
X120525000Y-111212500D03*
%TO.P,U2,17,GPIO14*%
%TO.N,/MCU/GPIO14*%
X120925000Y-111212500D03*
%TO.P,U2,18,GPIO15*%
%TO.N,/MCU/GPIO15*%
X121325000Y-111212500D03*
%TO.P,U2,19,TESTEN*%
%TO.N,GND*%
X121725000Y-111212500D03*
%TO.P,U2,20,XIN*%
%TO.N,/MCU/XIN*%
X122125000Y-111212500D03*
%TO.P,U2,21,XOUT*%
%TO.N,/MCU/XOUT*%
X122525000Y-111212500D03*
%TO.P,U2,22,IOVDD*%
%TO.N,+3V3*%
X122925000Y-111212500D03*
%TO.P,U2,23,DVDD*%
%TO.N,+1V1*%
X123325000Y-111212500D03*
%TO.P,U2,24,SWCLK*%
%TO.N,/MCU/SWCLK*%
X123725000Y-111212500D03*
%TO.P,U2,25,SWD*%
%TO.N,/MCU/SWD*%
X124125000Y-111212500D03*
%TO.P,U2,26,RUN*%
%TO.N,/MCU/RUN*%
X124525000Y-111212500D03*
%TO.P,U2,27,GPIO16*%
%TO.N,/MCU/GPIO16*%
X124925000Y-111212500D03*
%TO.P,U2,28,GPIO17*%
%TO.N,/MCU/GPIO17*%
X125325000Y-111212500D03*
D35*
%TO.P,U2,29,GPIO18*%
%TO.N,/MCU/GPIO18*%
X126162500Y-110375000D03*
%TO.P,U2,30,GPIO19*%
%TO.N,/MCU/GPIO19*%
X126162500Y-109975000D03*
%TO.P,U2,31,GPIO20*%
%TO.N,/MCU/GPIO20*%
X126162500Y-109575000D03*
%TO.P,U2,32,GPIO21*%
%TO.N,/MCU/GPIO21*%
X126162500Y-109175000D03*
%TO.P,U2,33,IOVDD*%
%TO.N,+3V3*%
X126162500Y-108775000D03*
%TO.P,U2,34,GPIO22*%
%TO.N,JOYSTSICK_BUTTON*%
X126162500Y-108375000D03*
%TO.P,U2,35,GPIO23*%
%TO.N,/MCU/GPIO23*%
X126162500Y-107975000D03*
%TO.P,U2,36,GPIO24*%
%TO.N,/MCU/GPIO24*%
X126162500Y-107575000D03*
%TO.P,U2,37,GPIO25*%
%TO.N,VUSB_monitor*%
X126162500Y-107175000D03*
%TO.P,U2,38,GPIO26_ADC0*%
%TO.N,JOYSTSICK_AXIS_V*%
X126162500Y-106775000D03*
%TO.P,U2,39,GPIO27_ADC1*%
%TO.N,JOYSTSICK_AXIS_H*%
X126162500Y-106375000D03*
%TO.P,U2,40,GPIO28_ADC2*%
%TO.N,Vbat_monitor*%
X126162500Y-105975000D03*
%TO.P,U2,41,GPIO29_ADC3*%
%TO.N,/MCU/GPIO29_ADC3*%
X126162500Y-105575000D03*
%TO.P,U2,42,IOVDD*%
%TO.N,+3V3*%
X126162500Y-105175000D03*
D36*
%TO.P,U2,43,ADC_AVDD*%
X125325000Y-104337500D03*
%TO.P,U2,44,VREG_IN*%
X124925000Y-104337500D03*
%TO.P,U2,45,VREG_VOUT*%
%TO.N,+1V1*%
X124525000Y-104337500D03*
%TO.P,U2,46,USB_DM*%
%TO.N,Net-(U2-USB_DM)*%
X124125000Y-104337500D03*
%TO.P,U2,47,USB_DP*%
%TO.N,Net-(U2-USB_DP)*%
X123725000Y-104337500D03*
%TO.P,U2,48,USB_VDD*%
%TO.N,+3V3*%
X123325000Y-104337500D03*
%TO.P,U2,49,IOVDD*%
X122925000Y-104337500D03*
%TO.P,U2,50,DVDD*%
%TO.N,+1V1*%
X122525000Y-104337500D03*
%TO.P,U2,51,QSPI_SD3*%
%TO.N,/MCU/QSPI_SD3*%
X122125000Y-104337500D03*
%TO.P,U2,52,QSPI_SCLK*%
%TO.N,/MCU/QSPI_SCLK*%
X121725000Y-104337500D03*
%TO.P,U2,53,QSPI_SD0*%
%TO.N,/MCU/QSPI_SD0*%
X121325000Y-104337500D03*
%TO.P,U2,54,QSPI_SD2*%
%TO.N,/MCU/QSPI_SD2*%
X120925000Y-104337500D03*
%TO.P,U2,55,QSPI_SD1*%
%TO.N,/MCU/QSPI_SD1*%
X120525000Y-104337500D03*
%TO.P,U2,56,QSPI_SS*%
%TO.N,/MCU/QSPI_SS*%
X120125000Y-104337500D03*
D37*
%TO.P,U2,57,GND*%
%TO.N,GND*%
X121450000Y-106500000D03*
X121450000Y-107775000D03*
X121450000Y-109050000D03*
X122725000Y-106500000D03*
X122725000Y-107775000D03*
D38*
X122725000Y-107775000D03*
D37*
X122725000Y-109050000D03*
X124000000Y-106500000D03*
X124000000Y-107775000D03*
X124000000Y-109050000D03*
%TD*%
D25*
%TO.P,C32,1*%
%TO.N,/Motor Driver/VCC_IO*%
X198130000Y-119740000D03*
%TO.P,C32,2*%
%TO.N,GND*%
X199680000Y-119740000D03*
%TD*%
D18*
%TO.P,R13,1*%
%TO.N,GND*%
X159380000Y-110760000D03*
%TO.P,R13,2*%
%TO.N,Net-(U7-FB)*%
X161030000Y-110760000D03*
%TD*%
D24*
%TO.P,C20,1*%
%TO.N,Net-(D3-K)*%
X144050000Y-85500000D03*
%TO.P,C20,2*%
%TO.N,GND*%
X145950000Y-85500000D03*
%TD*%
D21*
%TO.P,C4,1*%
%TO.N,+1V1*%
X153227500Y-91227500D03*
%TO.P,C4,2*%
%TO.N,GND*%
X154187500Y-91227500D03*
%TD*%
D39*
%TO.P,U8,B1A,SEL+*%
%TO.N,JOYSTSICK_BUTTON*%
X149825000Y-121800000D03*
%TO.P,U8,B1B*%
%TO.N,N/C*%
X156175000Y-121800000D03*
%TO.P,U8,B2A,SEL-*%
%TO.N,GND*%
X149825000Y-126880000D03*
%TO.P,U8,B2B*%
%TO.N,N/C*%
X156175000Y-126880000D03*
%TO.P,U8,H1,H+*%
%TO.N,+3V3*%
X150460000Y-144660000D03*
%TO.P,U8,H2,H*%
%TO.N,JOYSTSICK_AXIS_H*%
X153000000Y-144660000D03*
%TO.P,U8,H3,H-*%
%TO.N,GND*%
X155540000Y-144660000D03*
D40*
%TO.P,U8,S1,SHIELD*%
X145380000Y-127832500D03*
%TO.P,U8,S2,SHIELD*%
X145380000Y-141167500D03*
%TO.P,U8,S3,SHIELD*%
X160620000Y-141167500D03*
%TO.P,U8,S4,SHIELD*%
X160620000Y-127832500D03*
D39*
%TO.P,U8,V1,V+*%
%TO.N,+3V3*%
X142840000Y-131960000D03*
%TO.P,U8,V2,V*%
%TO.N,JOYSTSICK_AXIS_V*%
X142840000Y-134500000D03*
%TO.P,U8,V3,V-*%
%TO.N,GND*%
X142840000Y-137040000D03*
%TD*%
D22*
%TO.P,J4,1,Pin_1*%
%TO.N,Vbat*%
X127150000Y-118000000D03*
D23*
%TO.P,J4,2,Pin_2*%
%TO.N,Net-(J4-Pin_2)*%
X127150000Y-120540000D03*
%TD*%
D41*
%TO.P,J8,A1,GND*%
%TO.N,GND*%
X121300000Y-136820000D03*
%TO.P,J8,A4,VBUS*%
%TO.N,Net-(J5-Pin_2)*%
X122100000Y-136820000D03*
D42*
%TO.P,J8,A5,CC1*%
%TO.N,Net-(J8-CC1)*%
X123250000Y-136820000D03*
%TO.P,J8,A6,D+*%
%TO.N,/Power/USB_D+_IN*%
X124250000Y-136820000D03*
%TO.P,J8,A7,D-*%
%TO.N,/Power/USB_D-_IN*%
X124750000Y-136820000D03*
%TO.P,J8,A8,SBU1*%
%TO.N,unconnected-(J8-SBU1-PadA8)*%
X125750000Y-136820000D03*
D41*
%TO.P,J8,A9,VBUS*%
%TO.N,Net-(J5-Pin_2)*%
X126900000Y-136820000D03*
%TO.P,J8,A12,GND*%
%TO.N,GND*%
X127700000Y-136820000D03*
%TO.P,J8,B1,GND*%
X127700000Y-136820000D03*
%TO.P,J8,B4,VBUS*%
%TO.N,Net-(J5-Pin_2)*%
X126900000Y-136820000D03*
D42*
%TO.P,J8,B5,CC2*%
%TO.N,Net-(J8-CC2)*%
X126250000Y-136820000D03*
%TO.P,J8,B6,D+*%
%TO.N,/Power/USB_D+_IN*%
X125250000Y-136820000D03*
%TO.P,J8,B7,D-*%
%TO.N,/Power/USB_D-_IN*%
X123750000Y-136820000D03*
%TO.P,J8,B8,SBU2*%
%TO.N,unconnected-(J8-SBU2-PadB8)*%
X122750000Y-136820000D03*
D41*
%TO.P,J8,B9,VBUS*%
%TO.N,Net-(J5-Pin_2)*%
X122100000Y-136820000D03*
%TO.P,J8,B12,GND*%
%TO.N,GND*%
X121300000Y-136820000D03*
D43*
%TO.P,J8,S1,SHIELD*%
X120180000Y-137395000D03*
D44*
X120180000Y-141575000D03*
D43*
X128820000Y-137395000D03*
D44*
X128820000Y-141575000D03*
%TD*%
D18*
%TO.P,R26,1*%
%TO.N,TMC_EN*%
X202090000Y-117230000D03*
%TO.P,R26,2*%
%TO.N,GND*%
X203740000Y-117230000D03*
%TD*%
D45*
%TO.P,D2,1,K*%
%TO.N,/Power/BOOST_VOUT*%
X128500000Y-132000000D03*
%TO.P,D2,2,A*%
%TO.N,Net-(D2-A)*%
X132500000Y-132000000D03*
%TD*%
D21*
%TO.P,C2,1*%
%TO.N,Net-(C2-Pad1)*%
X153227500Y-86207500D03*
%TO.P,C2,2*%
%TO.N,GND*%
X154187500Y-86207500D03*
%TD*%
D34*
%TO.P,SW2,1,1*%
%TO.N,GND*%
X167875000Y-112000000D03*
X172025000Y-112000000D03*
%TO.P,SW2,2,2*%
%TO.N,/MCU/RUN*%
X167875000Y-114150000D03*
X172000000Y-114150000D03*
%TD*%
D25*
%TO.P,C24,1*%
%TO.N,/Power/BOOST_VOUT*%
X150500000Y-108500000D03*
%TO.P,C24,2*%
%TO.N,Net-(U7-FB)*%
X152050000Y-108500000D03*
%TD*%
D46*
%TO.P,JP1,1,A*%
%TO.N,/Power/BOOST_ENABLE*%
X182700000Y-99000000D03*
D47*
%TO.P,JP1,2,B*%
%TO.N,/Power/MCU_BOOST_EN*%
X184000000Y-99000000D03*
%TD*%
D25*
%TO.P,C31,1*%
%TO.N,VMotor*%
X198130000Y-117230000D03*
%TO.P,C31,2*%
%TO.N,Net-(U3-VCP)*%
X199680000Y-117230000D03*
%TD*%
D21*
%TO.P,C1,1*%
%TO.N,/MCU/XIN*%
X153227500Y-83697500D03*
%TO.P,C1,2*%
%TO.N,GND*%
X154187500Y-83697500D03*
%TD*%
D18*
%TO.P,R16,1*%
%TO.N,GND*%
X165350000Y-121990000D03*
%TO.P,R16,2*%
%TO.N,Net-(J8-CC1)*%
X167000000Y-121990000D03*
%TD*%
D48*
%TO.P,U4,1,I/O1*%
%TO.N,/Power/USB_D+_IN*%
X116862500Y-131050000D03*
%TO.P,U4,2,GND*%
%TO.N,GND*%
X116862500Y-132000000D03*
%TO.P,U4,3,I/O2*%
%TO.N,/Power/USB_D-_IN*%
X116862500Y-132950000D03*
%TO.P,U4,4,I/O2*%
%TO.N,/Power/USB_D-*%
X119137500Y-132950000D03*
%TO.P,U4,5,VBUS*%
%TO.N,Net-(J5-Pin_2)*%
X119137500Y-132000000D03*
%TO.P,U4,6,I/O1*%
%TO.N,/Power/USB_D+*%
X119137500Y-131050000D03*
%TD*%
D18*
%TO.P,R12,1*%
%TO.N,Net-(U7-FB)*%
X159380000Y-108250000D03*
%TO.P,R12,2*%
%TO.N,/Power/BOOST_VOUT*%
X161030000Y-108250000D03*
%TD*%
D21*
%TO.P,C9,1*%
%TO.N,+3V3*%
X136787500Y-87617500D03*
%TO.P,C9,2*%
%TO.N,GND*%
X137747500Y-87617500D03*
%TD*%
D22*
%TO.P,J7,1,Pin_1*%
%TO.N,Vbat*%
X177500000Y-124225000D03*
D23*
%TO.P,J7,2,Pin_2*%
%TO.N,/Power/BOOST_VIN*%
X177500000Y-126765000D03*
%TD*%
D25*
%TO.P,C23,1*%
%TO.N,Net-(C23-Pad1)*%
X145725000Y-92500000D03*
%TO.P,C23,2*%
%TO.N,GND*%
X147275000Y-92500000D03*
%TD*%
D49*
%TO.P,Y1,1,1*%
%TO.N,/MCU/XIN*%
X130125000Y-102625000D03*
%TO.P,Y1,2,2*%
%TO.N,GND*%
X132325000Y-102625000D03*
%TO.P,Y1,3,3*%
%TO.N,Net-(C2-Pad1)*%
X132325000Y-100925000D03*
%TO.P,Y1,4,4*%
%TO.N,GND*%
X130125000Y-100925000D03*
%TD*%
D18*
%TO.P,R17,1*%
%TO.N,GND*%
X165350000Y-124500000D03*
%TO.P,R17,2*%
%TO.N,Net-(J8-CC2)*%
X167000000Y-124500000D03*
%TD*%
%TO.P,R19,1*%
%TO.N,GND*%
X178345000Y-94190000D03*
%TO.P,R19,2*%
%TO.N,Vbat_monitor*%
X179995000Y-94190000D03*
%TD*%
D25*
%TO.P,C21,1*%
%TO.N,Net-(U7-SS)*%
X145725000Y-88000000D03*
%TO.P,C21,2*%
%TO.N,GND*%
X147275000Y-88000000D03*
%TD*%
D22*
%TO.P,J5,1,Pin_1*%
%TO.N,V_USB*%
X131800000Y-118000000D03*
D23*
%TO.P,J5,2,Pin_2*%
%TO.N,Net-(J5-Pin_2)*%
X131800000Y-120540000D03*
%TD*%
D50*
%TO.P,U5,1,STAT*%
%TO.N,Net-(U5-STAT)*%
X131000000Y-94850000D03*
%TO.P,U5,2,VSS*%
%TO.N,GND*%
X131950000Y-94850000D03*
%TO.P,U5,3,VBAT*%
%TO.N,Net-(J4-Pin_2)*%
X132900000Y-94850000D03*
%TO.P,U5,4,VDD*%
%TO.N,V_USB*%
X132900000Y-92150000D03*
%TO.P,U5,5,PROG*%
%TO.N,Net-(U5-PROG)*%
X131000000Y-92150000D03*
%TD*%
D26*
%TO.P,R1,1*%
%TO.N,/MCU/QSPI_SS*%
X153197500Y-96247500D03*
%TO.P,R1,2*%
%TO.N,/MCU/~{USB_BOOT}*%
X154217500Y-96247500D03*
%TD*%
D21*
%TO.P,C12,1*%
%TO.N,+3V3*%
X136787500Y-89587500D03*
%TO.P,C12,2*%
%TO.N,GND*%
X137747500Y-89587500D03*
%TD*%
D18*
%TO.P,R11,1*%
%TO.N,GND*%
X123702500Y-93617500D03*
%TO.P,R11,2*%
%TO.N,Net-(U7-OVP)*%
X125352500Y-93617500D03*
%TD*%
%TO.P,R25,1*%
%TO.N,/Motor Driver/VCC_IO*%
X202090000Y-114720000D03*
%TO.P,R25,2*%
%TO.N,TMC_MODE*%
X203740000Y-114720000D03*
%TD*%
%TO.P,R35,1*%
%TO.N,~{TMC_STBDY}*%
X206100000Y-119740000D03*
%TO.P,R35,2*%
%TO.N,GND*%
X207750000Y-119740000D03*
%TD*%
D25*
%TO.P,C30,1*%
%TO.N,GND*%
X178395000Y-89170000D03*
%TO.P,C30,2*%
%TO.N,VUSB_monitor*%
X179945000Y-89170000D03*
%TD*%
D24*
%TO.P,C25,1*%
%TO.N,/Power/BOOST_VOUT*%
X150325000Y-111510000D03*
%TO.P,C25,2*%
%TO.N,GND*%
X152225000Y-111510000D03*
%TD*%
D18*
%TO.P,R15,1*%
%TO.N,GND*%
X121355000Y-126640000D03*
%TO.P,R15,2*%
%TO.N,Net-(Q1-G)*%
X123005000Y-126640000D03*
%TD*%
D25*
%TO.P,C29,1*%
%TO.N,VMotor*%
X198130000Y-114720000D03*
%TO.P,C29,2*%
%TO.N,GND*%
X199680000Y-114720000D03*
%TD*%
%TO.P,C17,1*%
%TO.N,/Power/BOOST_VIN*%
X139362500Y-89587500D03*
%TO.P,C17,2*%
%TO.N,GND*%
X140912500Y-89587500D03*
%TD*%
D51*
%TO.P,Q1,1,G*%
%TO.N,Net-(Q1-G)*%
X125692500Y-124325000D03*
%TO.P,Q1,2,S*%
%TO.N,/Power/BOOST_ENABLE*%
X125692500Y-126225000D03*
%TO.P,Q1,3,D*%
%TO.N,/Power/MCU_BOOST_EN*%
X127567500Y-125275000D03*
%TD*%
D25*
%TO.P,C33,1*%
%TO.N,Net-(U3-1.8VOUT)*%
X198130000Y-122250000D03*
%TO.P,C33,2*%
%TO.N,GND*%
X199680000Y-122250000D03*
%TD*%
D18*
%TO.P,R21,1*%
%TO.N,VUSB_monitor*%
X178345000Y-99210000D03*
%TO.P,R21,2*%
%TO.N,V_USB*%
X179995000Y-99210000D03*
%TD*%
D21*
%TO.P,C11,1*%
%TO.N,+3V3*%
X146997500Y-99027500D03*
%TO.P,C11,2*%
%TO.N,GND*%
X147957500Y-99027500D03*
%TD*%
D18*
%TO.P,R9,1*%
%TO.N,Net-(U7-COMP)*%
X123702500Y-89637500D03*
%TO.P,R9,2*%
%TO.N,Net-(C23-Pad1)*%
X125352500Y-89637500D03*
%TD*%
%TO.P,R33,1*%
%TO.N,/Motor Driver/VCC_IO*%
X206100000Y-114720000D03*
%TO.P,R33,2*%
%TO.N,GND*%
X207750000Y-114720000D03*
%TD*%
D25*
%TO.P,C27,1*%
%TO.N,GND*%
X178395000Y-86660000D03*
%TO.P,C27,2*%
%TO.N,Vbat_monitor*%
X179945000Y-86660000D03*
%TD*%
D52*
%TO.P,U6,1,GND*%
%TO.N,GND*%
X133700000Y-107200000D03*
%TO.P,U6,2,VO*%
%TO.N,+3V3*%
X133700000Y-109500000D03*
D53*
X140000000Y-109500000D03*
D52*
%TO.P,U6,3,VI*%
%TO.N,Net-(D3-K)*%
X133700000Y-111800000D03*
%TD*%
D54*
%TO.P,D5,A*%
%TO.N,/MCU/~{USB_BOOT}*%
X219575000Y-125500000D03*
%TO.P,D5,K*%
%TO.N,Net-(D5-PadK)*%
X216425000Y-125500000D03*
%TD*%
D18*
%TO.P,R30,1*%
%TO.N,TMC_UART_RX*%
X202090000Y-124760000D03*
%TO.P,R30,2*%
%TO.N,TMC_UART_TX*%
X203740000Y-124760000D03*
%TD*%
D51*
%TO.P,Q2,1,G*%
%TO.N,Net-(D3-A)*%
X182682500Y-94055000D03*
%TO.P,Q2,2,S*%
%TO.N,Net-(D3-K)*%
X182682500Y-95955000D03*
%TO.P,Q2,3,D*%
%TO.N,Vbat*%
X184557500Y-95005000D03*
%TD*%
D25*
%TO.P,C26,1*%
%TO.N,+3V3*%
X121405000Y-131150000D03*
%TO.P,C26,2*%
%TO.N,GND*%
X122955000Y-131150000D03*
%TD*%
D18*
%TO.P,R18,1*%
%TO.N,Net-(D3-A)*%
X178345000Y-91680000D03*
%TO.P,R18,2*%
%TO.N,GND*%
X179995000Y-91680000D03*
%TD*%
D24*
%TO.P,C22,1*%
%TO.N,+3V3*%
X145550000Y-90000000D03*
%TO.P,C22,2*%
%TO.N,GND*%
X147450000Y-90000000D03*
%TD*%
D22*
%TO.P,J2,1,Pin_1*%
%TO.N,VMotor*%
X218865000Y-115790000D03*
D23*
%TO.P,J2,2,Pin_2*%
%TO.N,/Power/BOOST_VOUT*%
X218865000Y-118330000D03*
%TD*%
D55*
%TO.P,D3,1,K*%
%TO.N,Net-(D3-K)*%
X134662500Y-139460000D03*
%TO.P,D3,2,A*%
%TO.N,Net-(D3-A)*%
X137462500Y-139460000D03*
%TD*%
D18*
%TO.P,R24,1*%
%TO.N,/Motor Driver/VCC_IO*%
X198080000Y-127270000D03*
%TO.P,R24,2*%
%TO.N,TMC_MS1{slash}AD0*%
X199730000Y-127270000D03*
%TD*%
D56*
%TO.P,U1,1,~{CS}*%
%TO.N,/MCU/QSPI_SS*%
X150478900Y-100304100D03*
%TO.P,U1,2,DO(IO1)*%
%TO.N,/MCU/QSPI_SD1*%
X150478900Y-101574100D03*
%TO.P,U1,3,IO2*%
%TO.N,/MCU/QSPI_SD2*%
X150478900Y-102844100D03*
%TO.P,U1,4,GND*%
%TO.N,GND*%
X150478900Y-104114100D03*
%TO.P,U1,5,DI(IO0)*%
%TO.N,/MCU/QSPI_SD0*%
X157678900Y-104114100D03*
%TO.P,U1,6,CLK*%
%TO.N,/MCU/QSPI_SCLK*%
X157678900Y-102844100D03*
%TO.P,U1,7,IO3*%
%TO.N,/MCU/QSPI_SD3*%
X157678900Y-101574100D03*
%TO.P,U1,8,VCC*%
%TO.N,+3V3*%
X157678900Y-100304100D03*
%TD*%
D24*
%TO.P,C16,1*%
%TO.N,GND*%
X139187500Y-87617500D03*
%TO.P,C16,2*%
%TO.N,V_USB*%
X141087500Y-87617500D03*
%TD*%
D18*
%TO.P,R22,1*%
%TO.N,GND*%
X178345000Y-101720000D03*
%TO.P,R22,2*%
%TO.N,VUSB_monitor*%
X179995000Y-101720000D03*
%TD*%
D57*
%TO.N,/Motor Driver/OA1*%
X144250000Y-79437500D02*
X144250000Y-72437500D01*
%TO.N,/Motor Driver/OA2*%
X140750000Y-72437500D02*
X140750000Y-79437500D01*
%TO.N,/Motor Driver/OB1*%
X137250000Y-72437500D02*
X137250000Y-79437500D01*
%TO.N,/Motor Driver/OB2*%
X133750000Y-72437500D02*
X133750000Y-79437500D01*
%TD*%
M02*
