M48
INCH
T1C0.0118
T2C0.0138
T3C0.0236
T4C0.0350
T5C0.0354
T6C0.0394
T7C0.0472
T8C0.0520
T9C0.0550
%
G90
G05
T1
X6.1161Y-4.2793
X6.1161Y-4.3167
X6.1161Y-4.3541
X6.1555Y-4.2793
X6.1555Y-4.3167
X6.1555Y-4.3541
T2
X4.7815Y-4.1929
X4.7815Y-4.2431
X4.7815Y-4.2933
X4.8317Y-4.1929
X4.8317Y-4.2431
X4.8317Y-4.2933
X4.8819Y-4.1929
X4.8819Y-4.2431
X4.8819Y-4.2933
T4
X5.6236Y-5.1953
X5.6236Y-5.2953
X5.6236Y-5.3953
X5.9236Y-5.6953
X6.0236Y-5.6953
X6.1236Y-5.6953
T5
X5.8986Y-4.7953
X5.8986Y-4.9953
X6.1486Y-4.7953
X6.1486Y-4.9953
T6
X5.0059Y-4.6457
X5.0059Y-4.7457
X5.189Y-4.6457
X5.189Y-4.7457
X6.9882Y-4.8907
X6.9882Y-4.9907
X7.2244Y-3.4539
X7.2244Y-3.5539
X8.6167Y-4.5587
X8.6167Y-4.6587
T7
X5.2657Y-2.8519
X5.2657Y-3.1275
X5.4035Y-2.8519
X5.4035Y-3.1275
X5.5413Y-2.8519
X5.5413Y-3.1275
X5.6791Y-2.8519
X5.6791Y-3.1275
T8
X4.1098Y-2.7122
X4.1098Y-5.5555
T9
X5.7236Y-5.0328
X5.7236Y-5.5578
X6.3236Y-5.0328
X6.3236Y-5.5578
T3
G00X4.7315Y-5.3876
M15
G01X4.7315Y-5.4309
M16
G05
G00X4.7315Y-5.5581
M15
G01X4.7315Y-5.5896
M16
G05
G00X5.0717Y-5.3876
M15
G01X5.0717Y-5.4309
M16
G05
G00X5.0717Y-5.5581
M15
G01X5.0717Y-5.5896
M16
G05
M30
