%TF.GenerationSoftware,KiCad,Pcbnew,8.0.0*%
%TF.CreationDate,2024-04-27T18:31:45+01:00*%
%TF.ProjectId,StepUp,53746570-5570-42e6-9b69-6361645f7063,rev?*%
%TF.SameCoordinates,Original*%
%TF.FileFunction,Legend,Top*%
%TF.FilePolarity,Positive*%
%FSLAX46Y46*%
G04 Gerber Fmt 4.6, Leading zero omitted, Abs format (unit mm)*
G04 Created by KiCad (PCBNEW 8.0.0) date 2024-04-27 18:31:45*
%MOMM*%
%LPD*%
G01*
G04 APERTURE LIST*
G04 Aperture macros list*
%AMRoundRect*
0 Rectangle with rounded corners*
0 $1 Rounding radius*
0 $2 $3 $4 $5 $6 $7 $8 $9 X,Y pos of 4 corners*
0 Add a 4 corners polygon primitive as box body*
4,1,4,$2,$3,$4,$5,$6,$7,$8,$9,$2,$3,0*
0 Add four circle primitives for the rounded corners*
1,1,$1+$1,$2,$3*
1,1,$1+$1,$4,$5*
1,1,$1+$1,$6,$7*
1,1,$1+$1,$8,$9*
0 Add four rect primitives between the rounded corners*
20,1,$1+$1,$2,$3,$4,$5,0*
20,1,$1+$1,$4,$5,$6,$7,0*
20,1,$1+$1,$6,$7,$8,$9,0*
20,1,$1+$1,$8,$9,$2,$3,0*%
%AMFreePoly0*
4,1,19,0.500000,-0.750000,0.000000,-0.750000,0.000000,-0.744911,-0.071157,-0.744911,-0.207708,-0.704816,-0.327430,-0.627875,-0.420627,-0.520320,-0.479746,-0.390866,-0.500000,-0.250000,-0.500000,0.250000,-0.479746,0.390866,-0.420627,0.520320,-0.327430,0.627875,-0.207708,0.704816,-0.071157,0.744911,0.000000,0.744911,0.000000,0.750000,0.500000,0.750000,0.500000,-0.750000,0.500000,-0.750000,
$1*%
%AMFreePoly1*
4,1,19,0.000000,0.744911,0.071157,0.744911,0.207708,0.704816,0.327430,0.627875,0.420627,0.520320,0.479746,0.390866,0.500000,0.250000,0.500000,-0.250000,0.479746,-0.390866,0.420627,-0.520320,0.327430,-0.627875,0.207708,-0.704816,0.071157,-0.744911,0.000000,-0.744911,0.000000,-0.750000,-0.500000,-0.750000,-0.500000,0.750000,0.000000,0.750000,0.000000,0.744911,0.000000,0.744911,
$1*%
G04 Aperture macros list end*
%ADD10C,0.150000*%
%ADD11C,0.254000*%
%ADD12C,0.000000*%
%ADD13C,0.152400*%
%ADD14C,0.120000*%
%ADD15C,0.200000*%
%ADD16C,0.127000*%
%ADD17C,0.100000*%
%ADD18R,0.762000X0.254000*%
%ADD19R,0.254000X0.762000*%
%ADD20R,1.701800X1.701800*%
%ADD21C,1.500000*%
%ADD22R,2.150000X2.200000*%
%ADD23RoundRect,0.250000X-0.400000X-0.450000X0.400000X-0.450000X0.400000X0.450000X-0.400000X0.450000X0*%
%ADD24RoundRect,0.102000X0.900000X0.900000X-0.900000X0.900000X-0.900000X-0.900000X0.900000X-0.900000X0*%
%ADD25C,2.004000*%
%ADD26RoundRect,0.200000X-0.200000X-0.275000X0.200000X-0.275000X0.200000X0.275000X-0.200000X0.275000X0*%
%ADD27C,3.550000*%
%ADD28C,2.390000*%
%ADD29C,2.184000*%
%ADD30RoundRect,0.070000X-0.650000X-0.300000X0.650000X-0.300000X0.650000X0.300000X-0.650000X0.300000X0*%
%ADD31RoundRect,0.140000X-0.140000X-0.170000X0.140000X-0.170000X0.140000X0.170000X-0.140000X0.170000X0*%
%ADD32R,1.700000X1.700000*%
%ADD33O,1.700000X1.700000*%
%ADD34RoundRect,0.250000X-0.250000X-0.475000X0.250000X-0.475000X0.250000X0.475000X-0.250000X0.475000X0*%
%ADD35RoundRect,0.225000X-0.225000X-0.250000X0.225000X-0.250000X0.225000X0.250000X-0.225000X0.250000X0*%
%ADD36RoundRect,0.135000X-0.135000X-0.185000X0.135000X-0.185000X0.135000X0.185000X-0.135000X0.185000X0*%
%ADD37RoundRect,0.250000X-0.312500X-0.625000X0.312500X-0.625000X0.312500X0.625000X-0.312500X0.625000X0*%
%ADD38RoundRect,0.250000X-0.412500X-0.925000X0.412500X-0.925000X0.412500X0.925000X-0.412500X0.925000X0*%
%ADD39R,1.300000X0.700000*%
%ADD40C,2.700000*%
%ADD41RoundRect,0.062500X-0.362500X-0.062500X0.362500X-0.062500X0.362500X0.062500X-0.362500X0.062500X0*%
%ADD42R,1.600000X2.500000*%
%ADD43RoundRect,0.243750X-0.243750X-0.456250X0.243750X-0.456250X0.243750X0.456250X-0.243750X0.456250X0*%
%ADD44R,1.050000X0.650000*%
%ADD45RoundRect,0.050000X-0.387500X-0.050000X0.387500X-0.050000X0.387500X0.050000X-0.387500X0.050000X0*%
%ADD46RoundRect,0.050000X-0.050000X-0.387500X0.050000X-0.387500X0.050000X0.387500X-0.050000X0.387500X0*%
%ADD47RoundRect,0.144000X-1.456000X-1.456000X1.456000X-1.456000X1.456000X1.456000X-1.456000X1.456000X0*%
%ADD48C,1.982000*%
%ADD49C,2.490000*%
%ADD50C,0.650000*%
%ADD51RoundRect,0.150000X-0.150000X-0.425000X0.150000X-0.425000X0.150000X0.425000X-0.150000X0.425000X0*%
%ADD52RoundRect,0.075000X-0.075000X-0.500000X0.075000X-0.500000X0.075000X0.500000X-0.075000X0.500000X0*%
%ADD53O,1.000000X2.100000*%
%ADD54O,1.000000X1.800000*%
%ADD55RoundRect,0.250000X-1.000000X-0.650000X1.000000X-0.650000X1.000000X0.650000X-1.000000X0.650000X0*%
%ADD56FreePoly0,0.000000*%
%ADD57FreePoly1,0.000000*%
%ADD58RoundRect,0.150000X-0.512500X-0.150000X0.512500X-0.150000X0.512500X0.150000X-0.512500X0.150000X0*%
%ADD59R,1.400000X1.200000*%
%ADD60RoundRect,0.070000X-0.300000X-0.525000X0.300000X-0.525000X0.300000X0.525000X-0.300000X0.525000X0*%
%ADD61RoundRect,0.150000X-0.587500X-0.150000X0.587500X-0.150000X0.587500X0.150000X-0.587500X0.150000X0*%
%ADD62RoundRect,0.375000X-0.625000X-0.375000X0.625000X-0.375000X0.625000X0.375000X-0.625000X0.375000X0*%
%ADD63RoundRect,0.500000X-0.500000X-1.400000X0.500000X-1.400000X0.500000X1.400000X-0.500000X1.400000X0*%
%ADD64R,0.900000X0.950000*%
%ADD65RoundRect,0.250000X-0.300000X-0.300000X0.300000X-0.300000X0.300000X0.300000X-0.300000X0.300000X0*%
%ADD66RoundRect,0.150000X-0.650000X-0.150000X0.650000X-0.150000X0.650000X0.150000X-0.650000X0.150000X0*%
G04 APERTURE END LIST*
D10*
X210315695Y-129154818D02*
X210315695Y-129964341D01*
X210315695Y-129964341D02*
X210363314Y-130059579D01*
X210363314Y-130059579D02*
X210410933Y-130107199D01*
X210410933Y-130107199D02*
X210506171Y-130154818D01*
X210506171Y-130154818D02*
X210696647Y-130154818D01*
X210696647Y-130154818D02*
X210791885Y-130107199D01*
X210791885Y-130107199D02*
X210839504Y-130059579D01*
X210839504Y-130059579D02*
X210887123Y-129964341D01*
X210887123Y-129964341D02*
X210887123Y-129154818D01*
X211268076Y-129154818D02*
X211887123Y-129154818D01*
X211887123Y-129154818D02*
X211553790Y-129535770D01*
X211553790Y-129535770D02*
X211696647Y-129535770D01*
X211696647Y-129535770D02*
X211791885Y-129583389D01*
X211791885Y-129583389D02*
X211839504Y-129631008D01*
X211839504Y-129631008D02*
X211887123Y-129726246D01*
X211887123Y-129726246D02*
X211887123Y-129964341D01*
X211887123Y-129964341D02*
X211839504Y-130059579D01*
X211839504Y-130059579D02*
X211791885Y-130107199D01*
X211791885Y-130107199D02*
X211696647Y-130154818D01*
X211696647Y-130154818D02*
X211410933Y-130154818D01*
X211410933Y-130154818D02*
X211315695Y-130107199D01*
X211315695Y-130107199D02*
X211268076Y-130059579D01*
X208639200Y-128154818D02*
X208639200Y-128392913D01*
X208401105Y-128297675D02*
X208639200Y-128392913D01*
X208639200Y-128392913D02*
X208877295Y-128297675D01*
X208496343Y-128583389D02*
X208639200Y-128392913D01*
X208639200Y-128392913D02*
X208782057Y-128583389D01*
X208639200Y-128154818D02*
X208639200Y-128392913D01*
X208401105Y-128297675D02*
X208639200Y-128392913D01*
X208639200Y-128392913D02*
X208877295Y-128297675D01*
X208496343Y-128583389D02*
X208639200Y-128392913D01*
X208639200Y-128392913D02*
X208782057Y-128583389D01*
X200643095Y-98856819D02*
X201214523Y-98856819D01*
X200928809Y-99856819D02*
X200928809Y-98856819D01*
X201547857Y-99856819D02*
X201547857Y-98856819D01*
X201547857Y-98856819D02*
X201928809Y-98856819D01*
X201928809Y-98856819D02*
X202024047Y-98904438D01*
X202024047Y-98904438D02*
X202071666Y-98952057D01*
X202071666Y-98952057D02*
X202119285Y-99047295D01*
X202119285Y-99047295D02*
X202119285Y-99190152D01*
X202119285Y-99190152D02*
X202071666Y-99285390D01*
X202071666Y-99285390D02*
X202024047Y-99333009D01*
X202024047Y-99333009D02*
X201928809Y-99380628D01*
X201928809Y-99380628D02*
X201547857Y-99380628D01*
X203071666Y-99856819D02*
X202500238Y-99856819D01*
X202785952Y-99856819D02*
X202785952Y-98856819D01*
X202785952Y-98856819D02*
X202690714Y-98999676D01*
X202690714Y-98999676D02*
X202595476Y-99094914D01*
X202595476Y-99094914D02*
X202500238Y-99142533D01*
D11*
X204168333Y-96374318D02*
X203563571Y-96374318D01*
X203563571Y-96374318D02*
X203563571Y-95104318D01*
X204531190Y-95225270D02*
X204591666Y-95164794D01*
X204591666Y-95164794D02*
X204712619Y-95104318D01*
X204712619Y-95104318D02*
X205015000Y-95104318D01*
X205015000Y-95104318D02*
X205135952Y-95164794D01*
X205135952Y-95164794D02*
X205196428Y-95225270D01*
X205196428Y-95225270D02*
X205256905Y-95346222D01*
X205256905Y-95346222D02*
X205256905Y-95467175D01*
X205256905Y-95467175D02*
X205196428Y-95648603D01*
X205196428Y-95648603D02*
X204470714Y-96374318D01*
X204470714Y-96374318D02*
X205256905Y-96374318D01*
D10*
X143761905Y-102454819D02*
X143761905Y-101454819D01*
X143761905Y-101454819D02*
X144000000Y-101454819D01*
X144000000Y-101454819D02*
X144142857Y-101502438D01*
X144142857Y-101502438D02*
X144238095Y-101597676D01*
X144238095Y-101597676D02*
X144285714Y-101692914D01*
X144285714Y-101692914D02*
X144333333Y-101883390D01*
X144333333Y-101883390D02*
X144333333Y-102026247D01*
X144333333Y-102026247D02*
X144285714Y-102216723D01*
X144285714Y-102216723D02*
X144238095Y-102311961D01*
X144238095Y-102311961D02*
X144142857Y-102407200D01*
X144142857Y-102407200D02*
X144000000Y-102454819D01*
X144000000Y-102454819D02*
X143761905Y-102454819D01*
X145190476Y-101454819D02*
X145000000Y-101454819D01*
X145000000Y-101454819D02*
X144904762Y-101502438D01*
X144904762Y-101502438D02*
X144857143Y-101550057D01*
X144857143Y-101550057D02*
X144761905Y-101692914D01*
X144761905Y-101692914D02*
X144714286Y-101883390D01*
X144714286Y-101883390D02*
X144714286Y-102264342D01*
X144714286Y-102264342D02*
X144761905Y-102359580D01*
X144761905Y-102359580D02*
X144809524Y-102407200D01*
X144809524Y-102407200D02*
X144904762Y-102454819D01*
X144904762Y-102454819D02*
X145095238Y-102454819D01*
X145095238Y-102454819D02*
X145190476Y-102407200D01*
X145190476Y-102407200D02*
X145238095Y-102359580D01*
X145238095Y-102359580D02*
X145285714Y-102264342D01*
X145285714Y-102264342D02*
X145285714Y-102026247D01*
X145285714Y-102026247D02*
X145238095Y-101931009D01*
X145238095Y-101931009D02*
X145190476Y-101883390D01*
X145190476Y-101883390D02*
X145095238Y-101835771D01*
X145095238Y-101835771D02*
X144904762Y-101835771D01*
X144904762Y-101835771D02*
X144809524Y-101883390D01*
X144809524Y-101883390D02*
X144761905Y-101931009D01*
X144761905Y-101931009D02*
X144714286Y-102026247D01*
X142438333Y-82266366D02*
X142438333Y-83266366D01*
X142438333Y-83266366D02*
X142371666Y-83466366D01*
X142371666Y-83466366D02*
X142238333Y-83599700D01*
X142238333Y-83599700D02*
X142038333Y-83666366D01*
X142038333Y-83666366D02*
X141905000Y-83666366D01*
X142971667Y-82266366D02*
X143838333Y-82266366D01*
X143838333Y-82266366D02*
X143371667Y-82799700D01*
X143371667Y-82799700D02*
X143571667Y-82799700D01*
X143571667Y-82799700D02*
X143705000Y-82866366D01*
X143705000Y-82866366D02*
X143771667Y-82933033D01*
X143771667Y-82933033D02*
X143838333Y-83066366D01*
X143838333Y-83066366D02*
X143838333Y-83399700D01*
X143838333Y-83399700D02*
X143771667Y-83533033D01*
X143771667Y-83533033D02*
X143705000Y-83599700D01*
X143705000Y-83599700D02*
X143571667Y-83666366D01*
X143571667Y-83666366D02*
X143171667Y-83666366D01*
X143171667Y-83666366D02*
X143038333Y-83599700D01*
X143038333Y-83599700D02*
X142971667Y-83533033D01*
X178527142Y-95724819D02*
X178193809Y-95248628D01*
X177955714Y-95724819D02*
X177955714Y-94724819D01*
X177955714Y-94724819D02*
X178336666Y-94724819D01*
X178336666Y-94724819D02*
X178431904Y-94772438D01*
X178431904Y-94772438D02*
X178479523Y-94820057D01*
X178479523Y-94820057D02*
X178527142Y-94915295D01*
X178527142Y-94915295D02*
X178527142Y-95058152D01*
X178527142Y-95058152D02*
X178479523Y-95153390D01*
X178479523Y-95153390D02*
X178431904Y-95201009D01*
X178431904Y-95201009D02*
X178336666Y-95248628D01*
X178336666Y-95248628D02*
X177955714Y-95248628D01*
X178908095Y-94820057D02*
X178955714Y-94772438D01*
X178955714Y-94772438D02*
X179050952Y-94724819D01*
X179050952Y-94724819D02*
X179289047Y-94724819D01*
X179289047Y-94724819D02*
X179384285Y-94772438D01*
X179384285Y-94772438D02*
X179431904Y-94820057D01*
X179431904Y-94820057D02*
X179479523Y-94915295D01*
X179479523Y-94915295D02*
X179479523Y-95010533D01*
X179479523Y-95010533D02*
X179431904Y-95153390D01*
X179431904Y-95153390D02*
X178860476Y-95724819D01*
X178860476Y-95724819D02*
X179479523Y-95724819D01*
X180098571Y-94724819D02*
X180193809Y-94724819D01*
X180193809Y-94724819D02*
X180289047Y-94772438D01*
X180289047Y-94772438D02*
X180336666Y-94820057D01*
X180336666Y-94820057D02*
X180384285Y-94915295D01*
X180384285Y-94915295D02*
X180431904Y-95105771D01*
X180431904Y-95105771D02*
X180431904Y-95343866D01*
X180431904Y-95343866D02*
X180384285Y-95534342D01*
X180384285Y-95534342D02*
X180336666Y-95629580D01*
X180336666Y-95629580D02*
X180289047Y-95677200D01*
X180289047Y-95677200D02*
X180193809Y-95724819D01*
X180193809Y-95724819D02*
X180098571Y-95724819D01*
X180098571Y-95724819D02*
X180003333Y-95677200D01*
X180003333Y-95677200D02*
X179955714Y-95629580D01*
X179955714Y-95629580D02*
X179908095Y-95534342D01*
X179908095Y-95534342D02*
X179860476Y-95343866D01*
X179860476Y-95343866D02*
X179860476Y-95105771D01*
X179860476Y-95105771D02*
X179908095Y-94915295D01*
X179908095Y-94915295D02*
X179955714Y-94820057D01*
X179955714Y-94820057D02*
X180003333Y-94772438D01*
X180003333Y-94772438D02*
X180098571Y-94724819D01*
X92891009Y-140710714D02*
X92938628Y-140567857D01*
X92938628Y-140567857D02*
X92986247Y-140520238D01*
X92986247Y-140520238D02*
X93081485Y-140472619D01*
X93081485Y-140472619D02*
X93224342Y-140472619D01*
X93224342Y-140472619D02*
X93319580Y-140520238D01*
X93319580Y-140520238D02*
X93367200Y-140567857D01*
X93367200Y-140567857D02*
X93414819Y-140663095D01*
X93414819Y-140663095D02*
X93414819Y-141044047D01*
X93414819Y-141044047D02*
X92414819Y-141044047D01*
X92414819Y-141044047D02*
X92414819Y-140710714D01*
X92414819Y-140710714D02*
X92462438Y-140615476D01*
X92462438Y-140615476D02*
X92510057Y-140567857D01*
X92510057Y-140567857D02*
X92605295Y-140520238D01*
X92605295Y-140520238D02*
X92700533Y-140520238D01*
X92700533Y-140520238D02*
X92795771Y-140567857D01*
X92795771Y-140567857D02*
X92843390Y-140615476D01*
X92843390Y-140615476D02*
X92891009Y-140710714D01*
X92891009Y-140710714D02*
X92891009Y-141044047D01*
X92414819Y-140186904D02*
X92414819Y-139615476D01*
X93414819Y-139901190D02*
X92414819Y-139901190D01*
X93414819Y-138758333D02*
X93414819Y-139329761D01*
X93414819Y-139044047D02*
X92414819Y-139044047D01*
X92414819Y-139044047D02*
X92557676Y-139139285D01*
X92557676Y-139139285D02*
X92652914Y-139234523D01*
X92652914Y-139234523D02*
X92700533Y-139329761D01*
X203879761Y-128175057D02*
X203784523Y-128127438D01*
X203784523Y-128127438D02*
X203689285Y-128032200D01*
X203689285Y-128032200D02*
X203546428Y-127889342D01*
X203546428Y-127889342D02*
X203451190Y-127841723D01*
X203451190Y-127841723D02*
X203355952Y-127841723D01*
X203403571Y-128079819D02*
X203308333Y-128032200D01*
X203308333Y-128032200D02*
X203213095Y-127936961D01*
X203213095Y-127936961D02*
X203165476Y-127746485D01*
X203165476Y-127746485D02*
X203165476Y-127413152D01*
X203165476Y-127413152D02*
X203213095Y-127222676D01*
X203213095Y-127222676D02*
X203308333Y-127127438D01*
X203308333Y-127127438D02*
X203403571Y-127079819D01*
X203403571Y-127079819D02*
X203594047Y-127079819D01*
X203594047Y-127079819D02*
X203689285Y-127127438D01*
X203689285Y-127127438D02*
X203784523Y-127222676D01*
X203784523Y-127222676D02*
X203832142Y-127413152D01*
X203832142Y-127413152D02*
X203832142Y-127746485D01*
X203832142Y-127746485D02*
X203784523Y-127936961D01*
X203784523Y-127936961D02*
X203689285Y-128032200D01*
X203689285Y-128032200D02*
X203594047Y-128079819D01*
X203594047Y-128079819D02*
X203403571Y-128079819D01*
X204689285Y-127413152D02*
X204689285Y-128079819D01*
X204451190Y-127032200D02*
X204213095Y-127746485D01*
X204213095Y-127746485D02*
X204832142Y-127746485D01*
X146834642Y-95217080D02*
X146787023Y-95264700D01*
X146787023Y-95264700D02*
X146644166Y-95312319D01*
X146644166Y-95312319D02*
X146548928Y-95312319D01*
X146548928Y-95312319D02*
X146406071Y-95264700D01*
X146406071Y-95264700D02*
X146310833Y-95169461D01*
X146310833Y-95169461D02*
X146263214Y-95074223D01*
X146263214Y-95074223D02*
X146215595Y-94883747D01*
X146215595Y-94883747D02*
X146215595Y-94740890D01*
X146215595Y-94740890D02*
X146263214Y-94550414D01*
X146263214Y-94550414D02*
X146310833Y-94455176D01*
X146310833Y-94455176D02*
X146406071Y-94359938D01*
X146406071Y-94359938D02*
X146548928Y-94312319D01*
X146548928Y-94312319D02*
X146644166Y-94312319D01*
X146644166Y-94312319D02*
X146787023Y-94359938D01*
X146787023Y-94359938D02*
X146834642Y-94407557D01*
X147787023Y-95312319D02*
X147215595Y-95312319D01*
X147501309Y-95312319D02*
X147501309Y-94312319D01*
X147501309Y-94312319D02*
X147406071Y-94455176D01*
X147406071Y-94455176D02*
X147310833Y-94550414D01*
X147310833Y-94550414D02*
X147215595Y-94598033D01*
X148406071Y-94312319D02*
X148501309Y-94312319D01*
X148501309Y-94312319D02*
X148596547Y-94359938D01*
X148596547Y-94359938D02*
X148644166Y-94407557D01*
X148644166Y-94407557D02*
X148691785Y-94502795D01*
X148691785Y-94502795D02*
X148739404Y-94693271D01*
X148739404Y-94693271D02*
X148739404Y-94931366D01*
X148739404Y-94931366D02*
X148691785Y-95121842D01*
X148691785Y-95121842D02*
X148644166Y-95217080D01*
X148644166Y-95217080D02*
X148596547Y-95264700D01*
X148596547Y-95264700D02*
X148501309Y-95312319D01*
X148501309Y-95312319D02*
X148406071Y-95312319D01*
X148406071Y-95312319D02*
X148310833Y-95264700D01*
X148310833Y-95264700D02*
X148263214Y-95217080D01*
X148263214Y-95217080D02*
X148215595Y-95121842D01*
X148215595Y-95121842D02*
X148167976Y-94931366D01*
X148167976Y-94931366D02*
X148167976Y-94693271D01*
X148167976Y-94693271D02*
X148215595Y-94502795D01*
X148215595Y-94502795D02*
X148263214Y-94407557D01*
X148263214Y-94407557D02*
X148310833Y-94359938D01*
X148310833Y-94359938D02*
X148406071Y-94312319D01*
X162575833Y-83817080D02*
X162528214Y-83864700D01*
X162528214Y-83864700D02*
X162385357Y-83912319D01*
X162385357Y-83912319D02*
X162290119Y-83912319D01*
X162290119Y-83912319D02*
X162147262Y-83864700D01*
X162147262Y-83864700D02*
X162052024Y-83769461D01*
X162052024Y-83769461D02*
X162004405Y-83674223D01*
X162004405Y-83674223D02*
X161956786Y-83483747D01*
X161956786Y-83483747D02*
X161956786Y-83340890D01*
X161956786Y-83340890D02*
X162004405Y-83150414D01*
X162004405Y-83150414D02*
X162052024Y-83055176D01*
X162052024Y-83055176D02*
X162147262Y-82959938D01*
X162147262Y-82959938D02*
X162290119Y-82912319D01*
X162290119Y-82912319D02*
X162385357Y-82912319D01*
X162385357Y-82912319D02*
X162528214Y-82959938D01*
X162528214Y-82959938D02*
X162575833Y-83007557D01*
X163480595Y-82912319D02*
X163004405Y-82912319D01*
X163004405Y-82912319D02*
X162956786Y-83388509D01*
X162956786Y-83388509D02*
X163004405Y-83340890D01*
X163004405Y-83340890D02*
X163099643Y-83293271D01*
X163099643Y-83293271D02*
X163337738Y-83293271D01*
X163337738Y-83293271D02*
X163432976Y-83340890D01*
X163432976Y-83340890D02*
X163480595Y-83388509D01*
X163480595Y-83388509D02*
X163528214Y-83483747D01*
X163528214Y-83483747D02*
X163528214Y-83721842D01*
X163528214Y-83721842D02*
X163480595Y-83817080D01*
X163480595Y-83817080D02*
X163432976Y-83864700D01*
X163432976Y-83864700D02*
X163337738Y-83912319D01*
X163337738Y-83912319D02*
X163099643Y-83912319D01*
X163099643Y-83912319D02*
X163004405Y-83864700D01*
X163004405Y-83864700D02*
X162956786Y-83817080D01*
X157550833Y-92762319D02*
X157217500Y-92286128D01*
X156979405Y-92762319D02*
X156979405Y-91762319D01*
X156979405Y-91762319D02*
X157360357Y-91762319D01*
X157360357Y-91762319D02*
X157455595Y-91809938D01*
X157455595Y-91809938D02*
X157503214Y-91857557D01*
X157503214Y-91857557D02*
X157550833Y-91952795D01*
X157550833Y-91952795D02*
X157550833Y-92095652D01*
X157550833Y-92095652D02*
X157503214Y-92190890D01*
X157503214Y-92190890D02*
X157455595Y-92238509D01*
X157455595Y-92238509D02*
X157360357Y-92286128D01*
X157360357Y-92286128D02*
X156979405Y-92286128D01*
X158407976Y-91762319D02*
X158217500Y-91762319D01*
X158217500Y-91762319D02*
X158122262Y-91809938D01*
X158122262Y-91809938D02*
X158074643Y-91857557D01*
X158074643Y-91857557D02*
X157979405Y-92000414D01*
X157979405Y-92000414D02*
X157931786Y-92190890D01*
X157931786Y-92190890D02*
X157931786Y-92571842D01*
X157931786Y-92571842D02*
X157979405Y-92667080D01*
X157979405Y-92667080D02*
X158027024Y-92714700D01*
X158027024Y-92714700D02*
X158122262Y-92762319D01*
X158122262Y-92762319D02*
X158312738Y-92762319D01*
X158312738Y-92762319D02*
X158407976Y-92714700D01*
X158407976Y-92714700D02*
X158455595Y-92667080D01*
X158455595Y-92667080D02*
X158503214Y-92571842D01*
X158503214Y-92571842D02*
X158503214Y-92333747D01*
X158503214Y-92333747D02*
X158455595Y-92238509D01*
X158455595Y-92238509D02*
X158407976Y-92190890D01*
X158407976Y-92190890D02*
X158312738Y-92143271D01*
X158312738Y-92143271D02*
X158122262Y-92143271D01*
X158122262Y-92143271D02*
X158027024Y-92190890D01*
X158027024Y-92190890D02*
X157979405Y-92238509D01*
X157979405Y-92238509D02*
X157931786Y-92333747D01*
X134833333Y-84699580D02*
X134785714Y-84747200D01*
X134785714Y-84747200D02*
X134642857Y-84794819D01*
X134642857Y-84794819D02*
X134547619Y-84794819D01*
X134547619Y-84794819D02*
X134404762Y-84747200D01*
X134404762Y-84747200D02*
X134309524Y-84651961D01*
X134309524Y-84651961D02*
X134261905Y-84556723D01*
X134261905Y-84556723D02*
X134214286Y-84366247D01*
X134214286Y-84366247D02*
X134214286Y-84223390D01*
X134214286Y-84223390D02*
X134261905Y-84032914D01*
X134261905Y-84032914D02*
X134309524Y-83937676D01*
X134309524Y-83937676D02*
X134404762Y-83842438D01*
X134404762Y-83842438D02*
X134547619Y-83794819D01*
X134547619Y-83794819D02*
X134642857Y-83794819D01*
X134642857Y-83794819D02*
X134785714Y-83842438D01*
X134785714Y-83842438D02*
X134833333Y-83890057D01*
X135404762Y-84223390D02*
X135309524Y-84175771D01*
X135309524Y-84175771D02*
X135261905Y-84128152D01*
X135261905Y-84128152D02*
X135214286Y-84032914D01*
X135214286Y-84032914D02*
X135214286Y-83985295D01*
X135214286Y-83985295D02*
X135261905Y-83890057D01*
X135261905Y-83890057D02*
X135309524Y-83842438D01*
X135309524Y-83842438D02*
X135404762Y-83794819D01*
X135404762Y-83794819D02*
X135595238Y-83794819D01*
X135595238Y-83794819D02*
X135690476Y-83842438D01*
X135690476Y-83842438D02*
X135738095Y-83890057D01*
X135738095Y-83890057D02*
X135785714Y-83985295D01*
X135785714Y-83985295D02*
X135785714Y-84032914D01*
X135785714Y-84032914D02*
X135738095Y-84128152D01*
X135738095Y-84128152D02*
X135690476Y-84175771D01*
X135690476Y-84175771D02*
X135595238Y-84223390D01*
X135595238Y-84223390D02*
X135404762Y-84223390D01*
X135404762Y-84223390D02*
X135309524Y-84271009D01*
X135309524Y-84271009D02*
X135261905Y-84318628D01*
X135261905Y-84318628D02*
X135214286Y-84413866D01*
X135214286Y-84413866D02*
X135214286Y-84604342D01*
X135214286Y-84604342D02*
X135261905Y-84699580D01*
X135261905Y-84699580D02*
X135309524Y-84747200D01*
X135309524Y-84747200D02*
X135404762Y-84794819D01*
X135404762Y-84794819D02*
X135595238Y-84794819D01*
X135595238Y-84794819D02*
X135690476Y-84747200D01*
X135690476Y-84747200D02*
X135738095Y-84699580D01*
X135738095Y-84699580D02*
X135785714Y-84604342D01*
X135785714Y-84604342D02*
X135785714Y-84413866D01*
X135785714Y-84413866D02*
X135738095Y-84318628D01*
X135738095Y-84318628D02*
X135690476Y-84271009D01*
X135690476Y-84271009D02*
X135595238Y-84223390D01*
X183166666Y-84854819D02*
X183166666Y-85569104D01*
X183166666Y-85569104D02*
X183119047Y-85711961D01*
X183119047Y-85711961D02*
X183023809Y-85807200D01*
X183023809Y-85807200D02*
X182880952Y-85854819D01*
X182880952Y-85854819D02*
X182785714Y-85854819D01*
X184166666Y-85854819D02*
X183595238Y-85854819D01*
X183880952Y-85854819D02*
X183880952Y-84854819D01*
X183880952Y-84854819D02*
X183785714Y-84997676D01*
X183785714Y-84997676D02*
X183690476Y-85092914D01*
X183690476Y-85092914D02*
X183595238Y-85140533D01*
X139494642Y-92207080D02*
X139447023Y-92254700D01*
X139447023Y-92254700D02*
X139304166Y-92302319D01*
X139304166Y-92302319D02*
X139208928Y-92302319D01*
X139208928Y-92302319D02*
X139066071Y-92254700D01*
X139066071Y-92254700D02*
X138970833Y-92159461D01*
X138970833Y-92159461D02*
X138923214Y-92064223D01*
X138923214Y-92064223D02*
X138875595Y-91873747D01*
X138875595Y-91873747D02*
X138875595Y-91730890D01*
X138875595Y-91730890D02*
X138923214Y-91540414D01*
X138923214Y-91540414D02*
X138970833Y-91445176D01*
X138970833Y-91445176D02*
X139066071Y-91349938D01*
X139066071Y-91349938D02*
X139208928Y-91302319D01*
X139208928Y-91302319D02*
X139304166Y-91302319D01*
X139304166Y-91302319D02*
X139447023Y-91349938D01*
X139447023Y-91349938D02*
X139494642Y-91397557D01*
X140447023Y-92302319D02*
X139875595Y-92302319D01*
X140161309Y-92302319D02*
X140161309Y-91302319D01*
X140161309Y-91302319D02*
X140066071Y-91445176D01*
X140066071Y-91445176D02*
X139970833Y-91540414D01*
X139970833Y-91540414D02*
X139875595Y-91588033D01*
X140923214Y-92302319D02*
X141113690Y-92302319D01*
X141113690Y-92302319D02*
X141208928Y-92254700D01*
X141208928Y-92254700D02*
X141256547Y-92207080D01*
X141256547Y-92207080D02*
X141351785Y-92064223D01*
X141351785Y-92064223D02*
X141399404Y-91873747D01*
X141399404Y-91873747D02*
X141399404Y-91492795D01*
X141399404Y-91492795D02*
X141351785Y-91397557D01*
X141351785Y-91397557D02*
X141304166Y-91349938D01*
X141304166Y-91349938D02*
X141208928Y-91302319D01*
X141208928Y-91302319D02*
X141018452Y-91302319D01*
X141018452Y-91302319D02*
X140923214Y-91349938D01*
X140923214Y-91349938D02*
X140875595Y-91397557D01*
X140875595Y-91397557D02*
X140827976Y-91492795D01*
X140827976Y-91492795D02*
X140827976Y-91730890D01*
X140827976Y-91730890D02*
X140875595Y-91826128D01*
X140875595Y-91826128D02*
X140923214Y-91873747D01*
X140923214Y-91873747D02*
X141018452Y-91921366D01*
X141018452Y-91921366D02*
X141208928Y-91921366D01*
X141208928Y-91921366D02*
X141304166Y-91873747D01*
X141304166Y-91873747D02*
X141351785Y-91826128D01*
X141351785Y-91826128D02*
X141399404Y-91730890D01*
X206282142Y-116254819D02*
X205948809Y-115778628D01*
X205710714Y-116254819D02*
X205710714Y-115254819D01*
X205710714Y-115254819D02*
X206091666Y-115254819D01*
X206091666Y-115254819D02*
X206186904Y-115302438D01*
X206186904Y-115302438D02*
X206234523Y-115350057D01*
X206234523Y-115350057D02*
X206282142Y-115445295D01*
X206282142Y-115445295D02*
X206282142Y-115588152D01*
X206282142Y-115588152D02*
X206234523Y-115683390D01*
X206234523Y-115683390D02*
X206186904Y-115731009D01*
X206186904Y-115731009D02*
X206091666Y-115778628D01*
X206091666Y-115778628D02*
X205710714Y-115778628D01*
X206615476Y-115254819D02*
X207234523Y-115254819D01*
X207234523Y-115254819D02*
X206901190Y-115635771D01*
X206901190Y-115635771D02*
X207044047Y-115635771D01*
X207044047Y-115635771D02*
X207139285Y-115683390D01*
X207139285Y-115683390D02*
X207186904Y-115731009D01*
X207186904Y-115731009D02*
X207234523Y-115826247D01*
X207234523Y-115826247D02*
X207234523Y-116064342D01*
X207234523Y-116064342D02*
X207186904Y-116159580D01*
X207186904Y-116159580D02*
X207139285Y-116207200D01*
X207139285Y-116207200D02*
X207044047Y-116254819D01*
X207044047Y-116254819D02*
X206758333Y-116254819D01*
X206758333Y-116254819D02*
X206663095Y-116207200D01*
X206663095Y-116207200D02*
X206615476Y-116159580D01*
X208091666Y-115588152D02*
X208091666Y-116254819D01*
X207853571Y-115207200D02*
X207615476Y-115921485D01*
X207615476Y-115921485D02*
X208234523Y-115921485D01*
X139494642Y-90487080D02*
X139447023Y-90534700D01*
X139447023Y-90534700D02*
X139304166Y-90582319D01*
X139304166Y-90582319D02*
X139208928Y-90582319D01*
X139208928Y-90582319D02*
X139066071Y-90534700D01*
X139066071Y-90534700D02*
X138970833Y-90439461D01*
X138970833Y-90439461D02*
X138923214Y-90344223D01*
X138923214Y-90344223D02*
X138875595Y-90153747D01*
X138875595Y-90153747D02*
X138875595Y-90010890D01*
X138875595Y-90010890D02*
X138923214Y-89820414D01*
X138923214Y-89820414D02*
X138970833Y-89725176D01*
X138970833Y-89725176D02*
X139066071Y-89629938D01*
X139066071Y-89629938D02*
X139208928Y-89582319D01*
X139208928Y-89582319D02*
X139304166Y-89582319D01*
X139304166Y-89582319D02*
X139447023Y-89629938D01*
X139447023Y-89629938D02*
X139494642Y-89677557D01*
X140447023Y-90582319D02*
X139875595Y-90582319D01*
X140161309Y-90582319D02*
X140161309Y-89582319D01*
X140161309Y-89582319D02*
X140066071Y-89725176D01*
X140066071Y-89725176D02*
X139970833Y-89820414D01*
X139970833Y-89820414D02*
X139875595Y-89868033D01*
X141018452Y-90010890D02*
X140923214Y-89963271D01*
X140923214Y-89963271D02*
X140875595Y-89915652D01*
X140875595Y-89915652D02*
X140827976Y-89820414D01*
X140827976Y-89820414D02*
X140827976Y-89772795D01*
X140827976Y-89772795D02*
X140875595Y-89677557D01*
X140875595Y-89677557D02*
X140923214Y-89629938D01*
X140923214Y-89629938D02*
X141018452Y-89582319D01*
X141018452Y-89582319D02*
X141208928Y-89582319D01*
X141208928Y-89582319D02*
X141304166Y-89629938D01*
X141304166Y-89629938D02*
X141351785Y-89677557D01*
X141351785Y-89677557D02*
X141399404Y-89772795D01*
X141399404Y-89772795D02*
X141399404Y-89820414D01*
X141399404Y-89820414D02*
X141351785Y-89915652D01*
X141351785Y-89915652D02*
X141304166Y-89963271D01*
X141304166Y-89963271D02*
X141208928Y-90010890D01*
X141208928Y-90010890D02*
X141018452Y-90010890D01*
X141018452Y-90010890D02*
X140923214Y-90058509D01*
X140923214Y-90058509D02*
X140875595Y-90106128D01*
X140875595Y-90106128D02*
X140827976Y-90201366D01*
X140827976Y-90201366D02*
X140827976Y-90391842D01*
X140827976Y-90391842D02*
X140875595Y-90487080D01*
X140875595Y-90487080D02*
X140923214Y-90534700D01*
X140923214Y-90534700D02*
X141018452Y-90582319D01*
X141018452Y-90582319D02*
X141208928Y-90582319D01*
X141208928Y-90582319D02*
X141304166Y-90534700D01*
X141304166Y-90534700D02*
X141351785Y-90487080D01*
X141351785Y-90487080D02*
X141399404Y-90391842D01*
X141399404Y-90391842D02*
X141399404Y-90201366D01*
X141399404Y-90201366D02*
X141351785Y-90106128D01*
X141351785Y-90106128D02*
X141304166Y-90058509D01*
X141304166Y-90058509D02*
X141208928Y-90010890D01*
X123884642Y-90652319D02*
X123551309Y-90176128D01*
X123313214Y-90652319D02*
X123313214Y-89652319D01*
X123313214Y-89652319D02*
X123694166Y-89652319D01*
X123694166Y-89652319D02*
X123789404Y-89699938D01*
X123789404Y-89699938D02*
X123837023Y-89747557D01*
X123837023Y-89747557D02*
X123884642Y-89842795D01*
X123884642Y-89842795D02*
X123884642Y-89985652D01*
X123884642Y-89985652D02*
X123837023Y-90080890D01*
X123837023Y-90080890D02*
X123789404Y-90128509D01*
X123789404Y-90128509D02*
X123694166Y-90176128D01*
X123694166Y-90176128D02*
X123313214Y-90176128D01*
X124837023Y-90652319D02*
X124265595Y-90652319D01*
X124551309Y-90652319D02*
X124551309Y-89652319D01*
X124551309Y-89652319D02*
X124456071Y-89795176D01*
X124456071Y-89795176D02*
X124360833Y-89890414D01*
X124360833Y-89890414D02*
X124265595Y-89938033D01*
X125456071Y-89652319D02*
X125551309Y-89652319D01*
X125551309Y-89652319D02*
X125646547Y-89699938D01*
X125646547Y-89699938D02*
X125694166Y-89747557D01*
X125694166Y-89747557D02*
X125741785Y-89842795D01*
X125741785Y-89842795D02*
X125789404Y-90033271D01*
X125789404Y-90033271D02*
X125789404Y-90271366D01*
X125789404Y-90271366D02*
X125741785Y-90461842D01*
X125741785Y-90461842D02*
X125694166Y-90557080D01*
X125694166Y-90557080D02*
X125646547Y-90604700D01*
X125646547Y-90604700D02*
X125551309Y-90652319D01*
X125551309Y-90652319D02*
X125456071Y-90652319D01*
X125456071Y-90652319D02*
X125360833Y-90604700D01*
X125360833Y-90604700D02*
X125313214Y-90557080D01*
X125313214Y-90557080D02*
X125265595Y-90461842D01*
X125265595Y-90461842D02*
X125217976Y-90271366D01*
X125217976Y-90271366D02*
X125217976Y-90033271D01*
X125217976Y-90033271D02*
X125265595Y-89842795D01*
X125265595Y-89842795D02*
X125313214Y-89747557D01*
X125313214Y-89747557D02*
X125360833Y-89699938D01*
X125360833Y-89699938D02*
X125456071Y-89652319D01*
X157550833Y-82982319D02*
X157217500Y-82506128D01*
X156979405Y-82982319D02*
X156979405Y-81982319D01*
X156979405Y-81982319D02*
X157360357Y-81982319D01*
X157360357Y-81982319D02*
X157455595Y-82029938D01*
X157455595Y-82029938D02*
X157503214Y-82077557D01*
X157503214Y-82077557D02*
X157550833Y-82172795D01*
X157550833Y-82172795D02*
X157550833Y-82315652D01*
X157550833Y-82315652D02*
X157503214Y-82410890D01*
X157503214Y-82410890D02*
X157455595Y-82458509D01*
X157455595Y-82458509D02*
X157360357Y-82506128D01*
X157360357Y-82506128D02*
X156979405Y-82506128D01*
X157931786Y-82077557D02*
X157979405Y-82029938D01*
X157979405Y-82029938D02*
X158074643Y-81982319D01*
X158074643Y-81982319D02*
X158312738Y-81982319D01*
X158312738Y-81982319D02*
X158407976Y-82029938D01*
X158407976Y-82029938D02*
X158455595Y-82077557D01*
X158455595Y-82077557D02*
X158503214Y-82172795D01*
X158503214Y-82172795D02*
X158503214Y-82268033D01*
X158503214Y-82268033D02*
X158455595Y-82410890D01*
X158455595Y-82410890D02*
X157884167Y-82982319D01*
X157884167Y-82982319D02*
X158503214Y-82982319D01*
X211092142Y-113744819D02*
X210758809Y-113268628D01*
X210520714Y-113744819D02*
X210520714Y-112744819D01*
X210520714Y-112744819D02*
X210901666Y-112744819D01*
X210901666Y-112744819D02*
X210996904Y-112792438D01*
X210996904Y-112792438D02*
X211044523Y-112840057D01*
X211044523Y-112840057D02*
X211092142Y-112935295D01*
X211092142Y-112935295D02*
X211092142Y-113078152D01*
X211092142Y-113078152D02*
X211044523Y-113173390D01*
X211044523Y-113173390D02*
X210996904Y-113221009D01*
X210996904Y-113221009D02*
X210901666Y-113268628D01*
X210901666Y-113268628D02*
X210520714Y-113268628D01*
X211473095Y-112840057D02*
X211520714Y-112792438D01*
X211520714Y-112792438D02*
X211615952Y-112744819D01*
X211615952Y-112744819D02*
X211854047Y-112744819D01*
X211854047Y-112744819D02*
X211949285Y-112792438D01*
X211949285Y-112792438D02*
X211996904Y-112840057D01*
X211996904Y-112840057D02*
X212044523Y-112935295D01*
X212044523Y-112935295D02*
X212044523Y-113030533D01*
X212044523Y-113030533D02*
X211996904Y-113173390D01*
X211996904Y-113173390D02*
X211425476Y-113744819D01*
X211425476Y-113744819D02*
X212044523Y-113744819D01*
X212520714Y-113744819D02*
X212711190Y-113744819D01*
X212711190Y-113744819D02*
X212806428Y-113697200D01*
X212806428Y-113697200D02*
X212854047Y-113649580D01*
X212854047Y-113649580D02*
X212949285Y-113506723D01*
X212949285Y-113506723D02*
X212996904Y-113316247D01*
X212996904Y-113316247D02*
X212996904Y-112935295D01*
X212996904Y-112935295D02*
X212949285Y-112840057D01*
X212949285Y-112840057D02*
X212901666Y-112792438D01*
X212901666Y-112792438D02*
X212806428Y-112744819D01*
X212806428Y-112744819D02*
X212615952Y-112744819D01*
X212615952Y-112744819D02*
X212520714Y-112792438D01*
X212520714Y-112792438D02*
X212473095Y-112840057D01*
X212473095Y-112840057D02*
X212425476Y-112935295D01*
X212425476Y-112935295D02*
X212425476Y-113173390D01*
X212425476Y-113173390D02*
X212473095Y-113268628D01*
X212473095Y-113268628D02*
X212520714Y-113316247D01*
X212520714Y-113316247D02*
X212615952Y-113363866D01*
X212615952Y-113363866D02*
X212806428Y-113363866D01*
X212806428Y-113363866D02*
X212901666Y-113316247D01*
X212901666Y-113316247D02*
X212949285Y-113268628D01*
X212949285Y-113268628D02*
X212996904Y-113173390D01*
X157550833Y-90512319D02*
X157217500Y-90036128D01*
X156979405Y-90512319D02*
X156979405Y-89512319D01*
X156979405Y-89512319D02*
X157360357Y-89512319D01*
X157360357Y-89512319D02*
X157455595Y-89559938D01*
X157455595Y-89559938D02*
X157503214Y-89607557D01*
X157503214Y-89607557D02*
X157550833Y-89702795D01*
X157550833Y-89702795D02*
X157550833Y-89845652D01*
X157550833Y-89845652D02*
X157503214Y-89940890D01*
X157503214Y-89940890D02*
X157455595Y-89988509D01*
X157455595Y-89988509D02*
X157360357Y-90036128D01*
X157360357Y-90036128D02*
X156979405Y-90036128D01*
X158455595Y-89512319D02*
X157979405Y-89512319D01*
X157979405Y-89512319D02*
X157931786Y-89988509D01*
X157931786Y-89988509D02*
X157979405Y-89940890D01*
X157979405Y-89940890D02*
X158074643Y-89893271D01*
X158074643Y-89893271D02*
X158312738Y-89893271D01*
X158312738Y-89893271D02*
X158407976Y-89940890D01*
X158407976Y-89940890D02*
X158455595Y-89988509D01*
X158455595Y-89988509D02*
X158503214Y-90083747D01*
X158503214Y-90083747D02*
X158503214Y-90321842D01*
X158503214Y-90321842D02*
X158455595Y-90417080D01*
X158455595Y-90417080D02*
X158407976Y-90464700D01*
X158407976Y-90464700D02*
X158312738Y-90512319D01*
X158312738Y-90512319D02*
X158074643Y-90512319D01*
X158074643Y-90512319D02*
X157979405Y-90464700D01*
X157979405Y-90464700D02*
X157931786Y-90417080D01*
X124360833Y-84682319D02*
X124027500Y-84206128D01*
X123789405Y-84682319D02*
X123789405Y-83682319D01*
X123789405Y-83682319D02*
X124170357Y-83682319D01*
X124170357Y-83682319D02*
X124265595Y-83729938D01*
X124265595Y-83729938D02*
X124313214Y-83777557D01*
X124313214Y-83777557D02*
X124360833Y-83872795D01*
X124360833Y-83872795D02*
X124360833Y-84015652D01*
X124360833Y-84015652D02*
X124313214Y-84110890D01*
X124313214Y-84110890D02*
X124265595Y-84158509D01*
X124265595Y-84158509D02*
X124170357Y-84206128D01*
X124170357Y-84206128D02*
X123789405Y-84206128D01*
X124694167Y-83682319D02*
X125360833Y-83682319D01*
X125360833Y-83682319D02*
X124932262Y-84682319D01*
X138857142Y-82509580D02*
X138809523Y-82557200D01*
X138809523Y-82557200D02*
X138666666Y-82604819D01*
X138666666Y-82604819D02*
X138571428Y-82604819D01*
X138571428Y-82604819D02*
X138428571Y-82557200D01*
X138428571Y-82557200D02*
X138333333Y-82461961D01*
X138333333Y-82461961D02*
X138285714Y-82366723D01*
X138285714Y-82366723D02*
X138238095Y-82176247D01*
X138238095Y-82176247D02*
X138238095Y-82033390D01*
X138238095Y-82033390D02*
X138285714Y-81842914D01*
X138285714Y-81842914D02*
X138333333Y-81747676D01*
X138333333Y-81747676D02*
X138428571Y-81652438D01*
X138428571Y-81652438D02*
X138571428Y-81604819D01*
X138571428Y-81604819D02*
X138666666Y-81604819D01*
X138666666Y-81604819D02*
X138809523Y-81652438D01*
X138809523Y-81652438D02*
X138857142Y-81700057D01*
X139809523Y-82604819D02*
X139238095Y-82604819D01*
X139523809Y-82604819D02*
X139523809Y-81604819D01*
X139523809Y-81604819D02*
X139428571Y-81747676D01*
X139428571Y-81747676D02*
X139333333Y-81842914D01*
X139333333Y-81842914D02*
X139238095Y-81890533D01*
X140714285Y-81604819D02*
X140238095Y-81604819D01*
X140238095Y-81604819D02*
X140190476Y-82081009D01*
X140190476Y-82081009D02*
X140238095Y-82033390D01*
X140238095Y-82033390D02*
X140333333Y-81985771D01*
X140333333Y-81985771D02*
X140571428Y-81985771D01*
X140571428Y-81985771D02*
X140666666Y-82033390D01*
X140666666Y-82033390D02*
X140714285Y-82081009D01*
X140714285Y-82081009D02*
X140761904Y-82176247D01*
X140761904Y-82176247D02*
X140761904Y-82414342D01*
X140761904Y-82414342D02*
X140714285Y-82509580D01*
X140714285Y-82509580D02*
X140666666Y-82557200D01*
X140666666Y-82557200D02*
X140571428Y-82604819D01*
X140571428Y-82604819D02*
X140333333Y-82604819D01*
X140333333Y-82604819D02*
X140238095Y-82557200D01*
X140238095Y-82557200D02*
X140190476Y-82509580D01*
X124360833Y-86672319D02*
X124027500Y-86196128D01*
X123789405Y-86672319D02*
X123789405Y-85672319D01*
X123789405Y-85672319D02*
X124170357Y-85672319D01*
X124170357Y-85672319D02*
X124265595Y-85719938D01*
X124265595Y-85719938D02*
X124313214Y-85767557D01*
X124313214Y-85767557D02*
X124360833Y-85862795D01*
X124360833Y-85862795D02*
X124360833Y-86005652D01*
X124360833Y-86005652D02*
X124313214Y-86100890D01*
X124313214Y-86100890D02*
X124265595Y-86148509D01*
X124265595Y-86148509D02*
X124170357Y-86196128D01*
X124170357Y-86196128D02*
X123789405Y-86196128D01*
X124932262Y-86100890D02*
X124837024Y-86053271D01*
X124837024Y-86053271D02*
X124789405Y-86005652D01*
X124789405Y-86005652D02*
X124741786Y-85910414D01*
X124741786Y-85910414D02*
X124741786Y-85862795D01*
X124741786Y-85862795D02*
X124789405Y-85767557D01*
X124789405Y-85767557D02*
X124837024Y-85719938D01*
X124837024Y-85719938D02*
X124932262Y-85672319D01*
X124932262Y-85672319D02*
X125122738Y-85672319D01*
X125122738Y-85672319D02*
X125217976Y-85719938D01*
X125217976Y-85719938D02*
X125265595Y-85767557D01*
X125265595Y-85767557D02*
X125313214Y-85862795D01*
X125313214Y-85862795D02*
X125313214Y-85910414D01*
X125313214Y-85910414D02*
X125265595Y-86005652D01*
X125265595Y-86005652D02*
X125217976Y-86053271D01*
X125217976Y-86053271D02*
X125122738Y-86100890D01*
X125122738Y-86100890D02*
X124932262Y-86100890D01*
X124932262Y-86100890D02*
X124837024Y-86148509D01*
X124837024Y-86148509D02*
X124789405Y-86196128D01*
X124789405Y-86196128D02*
X124741786Y-86291366D01*
X124741786Y-86291366D02*
X124741786Y-86481842D01*
X124741786Y-86481842D02*
X124789405Y-86577080D01*
X124789405Y-86577080D02*
X124837024Y-86624700D01*
X124837024Y-86624700D02*
X124932262Y-86672319D01*
X124932262Y-86672319D02*
X125122738Y-86672319D01*
X125122738Y-86672319D02*
X125217976Y-86624700D01*
X125217976Y-86624700D02*
X125265595Y-86577080D01*
X125265595Y-86577080D02*
X125313214Y-86481842D01*
X125313214Y-86481842D02*
X125313214Y-86291366D01*
X125313214Y-86291366D02*
X125265595Y-86196128D01*
X125265595Y-86196128D02*
X125217976Y-86148509D01*
X125217976Y-86148509D02*
X125122738Y-86100890D01*
X202272142Y-126294819D02*
X201938809Y-125818628D01*
X201700714Y-126294819D02*
X201700714Y-125294819D01*
X201700714Y-125294819D02*
X202081666Y-125294819D01*
X202081666Y-125294819D02*
X202176904Y-125342438D01*
X202176904Y-125342438D02*
X202224523Y-125390057D01*
X202224523Y-125390057D02*
X202272142Y-125485295D01*
X202272142Y-125485295D02*
X202272142Y-125628152D01*
X202272142Y-125628152D02*
X202224523Y-125723390D01*
X202224523Y-125723390D02*
X202176904Y-125771009D01*
X202176904Y-125771009D02*
X202081666Y-125818628D01*
X202081666Y-125818628D02*
X201700714Y-125818628D01*
X202605476Y-125294819D02*
X203224523Y-125294819D01*
X203224523Y-125294819D02*
X202891190Y-125675771D01*
X202891190Y-125675771D02*
X203034047Y-125675771D01*
X203034047Y-125675771D02*
X203129285Y-125723390D01*
X203129285Y-125723390D02*
X203176904Y-125771009D01*
X203176904Y-125771009D02*
X203224523Y-125866247D01*
X203224523Y-125866247D02*
X203224523Y-126104342D01*
X203224523Y-126104342D02*
X203176904Y-126199580D01*
X203176904Y-126199580D02*
X203129285Y-126247200D01*
X203129285Y-126247200D02*
X203034047Y-126294819D01*
X203034047Y-126294819D02*
X202748333Y-126294819D01*
X202748333Y-126294819D02*
X202653095Y-126247200D01*
X202653095Y-126247200D02*
X202605476Y-126199580D01*
X203605476Y-125390057D02*
X203653095Y-125342438D01*
X203653095Y-125342438D02*
X203748333Y-125294819D01*
X203748333Y-125294819D02*
X203986428Y-125294819D01*
X203986428Y-125294819D02*
X204081666Y-125342438D01*
X204081666Y-125342438D02*
X204129285Y-125390057D01*
X204129285Y-125390057D02*
X204176904Y-125485295D01*
X204176904Y-125485295D02*
X204176904Y-125580533D01*
X204176904Y-125580533D02*
X204129285Y-125723390D01*
X204129285Y-125723390D02*
X203557857Y-126294819D01*
X203557857Y-126294819D02*
X204176904Y-126294819D01*
X157550833Y-88002319D02*
X157217500Y-87526128D01*
X156979405Y-88002319D02*
X156979405Y-87002319D01*
X156979405Y-87002319D02*
X157360357Y-87002319D01*
X157360357Y-87002319D02*
X157455595Y-87049938D01*
X157455595Y-87049938D02*
X157503214Y-87097557D01*
X157503214Y-87097557D02*
X157550833Y-87192795D01*
X157550833Y-87192795D02*
X157550833Y-87335652D01*
X157550833Y-87335652D02*
X157503214Y-87430890D01*
X157503214Y-87430890D02*
X157455595Y-87478509D01*
X157455595Y-87478509D02*
X157360357Y-87526128D01*
X157360357Y-87526128D02*
X156979405Y-87526128D01*
X158407976Y-87335652D02*
X158407976Y-88002319D01*
X158169881Y-86954700D02*
X157931786Y-87668985D01*
X157931786Y-87668985D02*
X158550833Y-87668985D01*
X210512142Y-120229580D02*
X210464523Y-120277200D01*
X210464523Y-120277200D02*
X210321666Y-120324819D01*
X210321666Y-120324819D02*
X210226428Y-120324819D01*
X210226428Y-120324819D02*
X210083571Y-120277200D01*
X210083571Y-120277200D02*
X209988333Y-120181961D01*
X209988333Y-120181961D02*
X209940714Y-120086723D01*
X209940714Y-120086723D02*
X209893095Y-119896247D01*
X209893095Y-119896247D02*
X209893095Y-119753390D01*
X209893095Y-119753390D02*
X209940714Y-119562914D01*
X209940714Y-119562914D02*
X209988333Y-119467676D01*
X209988333Y-119467676D02*
X210083571Y-119372438D01*
X210083571Y-119372438D02*
X210226428Y-119324819D01*
X210226428Y-119324819D02*
X210321666Y-119324819D01*
X210321666Y-119324819D02*
X210464523Y-119372438D01*
X210464523Y-119372438D02*
X210512142Y-119420057D01*
X210893095Y-119420057D02*
X210940714Y-119372438D01*
X210940714Y-119372438D02*
X211035952Y-119324819D01*
X211035952Y-119324819D02*
X211274047Y-119324819D01*
X211274047Y-119324819D02*
X211369285Y-119372438D01*
X211369285Y-119372438D02*
X211416904Y-119420057D01*
X211416904Y-119420057D02*
X211464523Y-119515295D01*
X211464523Y-119515295D02*
X211464523Y-119610533D01*
X211464523Y-119610533D02*
X211416904Y-119753390D01*
X211416904Y-119753390D02*
X210845476Y-120324819D01*
X210845476Y-120324819D02*
X211464523Y-120324819D01*
X212035952Y-119753390D02*
X211940714Y-119705771D01*
X211940714Y-119705771D02*
X211893095Y-119658152D01*
X211893095Y-119658152D02*
X211845476Y-119562914D01*
X211845476Y-119562914D02*
X211845476Y-119515295D01*
X211845476Y-119515295D02*
X211893095Y-119420057D01*
X211893095Y-119420057D02*
X211940714Y-119372438D01*
X211940714Y-119372438D02*
X212035952Y-119324819D01*
X212035952Y-119324819D02*
X212226428Y-119324819D01*
X212226428Y-119324819D02*
X212321666Y-119372438D01*
X212321666Y-119372438D02*
X212369285Y-119420057D01*
X212369285Y-119420057D02*
X212416904Y-119515295D01*
X212416904Y-119515295D02*
X212416904Y-119562914D01*
X212416904Y-119562914D02*
X212369285Y-119658152D01*
X212369285Y-119658152D02*
X212321666Y-119705771D01*
X212321666Y-119705771D02*
X212226428Y-119753390D01*
X212226428Y-119753390D02*
X212035952Y-119753390D01*
X212035952Y-119753390D02*
X211940714Y-119801009D01*
X211940714Y-119801009D02*
X211893095Y-119848628D01*
X211893095Y-119848628D02*
X211845476Y-119943866D01*
X211845476Y-119943866D02*
X211845476Y-120134342D01*
X211845476Y-120134342D02*
X211893095Y-120229580D01*
X211893095Y-120229580D02*
X211940714Y-120277200D01*
X211940714Y-120277200D02*
X212035952Y-120324819D01*
X212035952Y-120324819D02*
X212226428Y-120324819D01*
X212226428Y-120324819D02*
X212321666Y-120277200D01*
X212321666Y-120277200D02*
X212369285Y-120229580D01*
X212369285Y-120229580D02*
X212416904Y-120134342D01*
X212416904Y-120134342D02*
X212416904Y-119943866D01*
X212416904Y-119943866D02*
X212369285Y-119848628D01*
X212369285Y-119848628D02*
X212321666Y-119801009D01*
X212321666Y-119801009D02*
X212226428Y-119753390D01*
X199179761Y-128175057D02*
X199084523Y-128127438D01*
X199084523Y-128127438D02*
X198989285Y-128032200D01*
X198989285Y-128032200D02*
X198846428Y-127889342D01*
X198846428Y-127889342D02*
X198751190Y-127841723D01*
X198751190Y-127841723D02*
X198655952Y-127841723D01*
X198703571Y-128079819D02*
X198608333Y-128032200D01*
X198608333Y-128032200D02*
X198513095Y-127936961D01*
X198513095Y-127936961D02*
X198465476Y-127746485D01*
X198465476Y-127746485D02*
X198465476Y-127413152D01*
X198465476Y-127413152D02*
X198513095Y-127222676D01*
X198513095Y-127222676D02*
X198608333Y-127127438D01*
X198608333Y-127127438D02*
X198703571Y-127079819D01*
X198703571Y-127079819D02*
X198894047Y-127079819D01*
X198894047Y-127079819D02*
X198989285Y-127127438D01*
X198989285Y-127127438D02*
X199084523Y-127222676D01*
X199084523Y-127222676D02*
X199132142Y-127413152D01*
X199132142Y-127413152D02*
X199132142Y-127746485D01*
X199132142Y-127746485D02*
X199084523Y-127936961D01*
X199084523Y-127936961D02*
X198989285Y-128032200D01*
X198989285Y-128032200D02*
X198894047Y-128079819D01*
X198894047Y-128079819D02*
X198703571Y-128079819D01*
X199465476Y-127079819D02*
X200084523Y-127079819D01*
X200084523Y-127079819D02*
X199751190Y-127460771D01*
X199751190Y-127460771D02*
X199894047Y-127460771D01*
X199894047Y-127460771D02*
X199989285Y-127508390D01*
X199989285Y-127508390D02*
X200036904Y-127556009D01*
X200036904Y-127556009D02*
X200084523Y-127651247D01*
X200084523Y-127651247D02*
X200084523Y-127889342D01*
X200084523Y-127889342D02*
X200036904Y-127984580D01*
X200036904Y-127984580D02*
X199989285Y-128032200D01*
X199989285Y-128032200D02*
X199894047Y-128079819D01*
X199894047Y-128079819D02*
X199608333Y-128079819D01*
X199608333Y-128079819D02*
X199513095Y-128032200D01*
X199513095Y-128032200D02*
X199465476Y-127984580D01*
X157550833Y-85492319D02*
X157217500Y-85016128D01*
X156979405Y-85492319D02*
X156979405Y-84492319D01*
X156979405Y-84492319D02*
X157360357Y-84492319D01*
X157360357Y-84492319D02*
X157455595Y-84539938D01*
X157455595Y-84539938D02*
X157503214Y-84587557D01*
X157503214Y-84587557D02*
X157550833Y-84682795D01*
X157550833Y-84682795D02*
X157550833Y-84825652D01*
X157550833Y-84825652D02*
X157503214Y-84920890D01*
X157503214Y-84920890D02*
X157455595Y-84968509D01*
X157455595Y-84968509D02*
X157360357Y-85016128D01*
X157360357Y-85016128D02*
X156979405Y-85016128D01*
X157884167Y-84492319D02*
X158503214Y-84492319D01*
X158503214Y-84492319D02*
X158169881Y-84873271D01*
X158169881Y-84873271D02*
X158312738Y-84873271D01*
X158312738Y-84873271D02*
X158407976Y-84920890D01*
X158407976Y-84920890D02*
X158455595Y-84968509D01*
X158455595Y-84968509D02*
X158503214Y-85063747D01*
X158503214Y-85063747D02*
X158503214Y-85301842D01*
X158503214Y-85301842D02*
X158455595Y-85397080D01*
X158455595Y-85397080D02*
X158407976Y-85444700D01*
X158407976Y-85444700D02*
X158312738Y-85492319D01*
X158312738Y-85492319D02*
X158027024Y-85492319D01*
X158027024Y-85492319D02*
X157931786Y-85444700D01*
X157931786Y-85444700D02*
X157884167Y-85397080D01*
X161850833Y-78597080D02*
X161803214Y-78644700D01*
X161803214Y-78644700D02*
X161660357Y-78692319D01*
X161660357Y-78692319D02*
X161565119Y-78692319D01*
X161565119Y-78692319D02*
X161422262Y-78644700D01*
X161422262Y-78644700D02*
X161327024Y-78549461D01*
X161327024Y-78549461D02*
X161279405Y-78454223D01*
X161279405Y-78454223D02*
X161231786Y-78263747D01*
X161231786Y-78263747D02*
X161231786Y-78120890D01*
X161231786Y-78120890D02*
X161279405Y-77930414D01*
X161279405Y-77930414D02*
X161327024Y-77835176D01*
X161327024Y-77835176D02*
X161422262Y-77739938D01*
X161422262Y-77739938D02*
X161565119Y-77692319D01*
X161565119Y-77692319D02*
X161660357Y-77692319D01*
X161660357Y-77692319D02*
X161803214Y-77739938D01*
X161803214Y-77739938D02*
X161850833Y-77787557D01*
X162184167Y-77692319D02*
X162850833Y-77692319D01*
X162850833Y-77692319D02*
X162422262Y-78692319D01*
X198262142Y-123784819D02*
X197928809Y-123308628D01*
X197690714Y-123784819D02*
X197690714Y-122784819D01*
X197690714Y-122784819D02*
X198071666Y-122784819D01*
X198071666Y-122784819D02*
X198166904Y-122832438D01*
X198166904Y-122832438D02*
X198214523Y-122880057D01*
X198214523Y-122880057D02*
X198262142Y-122975295D01*
X198262142Y-122975295D02*
X198262142Y-123118152D01*
X198262142Y-123118152D02*
X198214523Y-123213390D01*
X198214523Y-123213390D02*
X198166904Y-123261009D01*
X198166904Y-123261009D02*
X198071666Y-123308628D01*
X198071666Y-123308628D02*
X197690714Y-123308628D01*
X198643095Y-122880057D02*
X198690714Y-122832438D01*
X198690714Y-122832438D02*
X198785952Y-122784819D01*
X198785952Y-122784819D02*
X199024047Y-122784819D01*
X199024047Y-122784819D02*
X199119285Y-122832438D01*
X199119285Y-122832438D02*
X199166904Y-122880057D01*
X199166904Y-122880057D02*
X199214523Y-122975295D01*
X199214523Y-122975295D02*
X199214523Y-123070533D01*
X199214523Y-123070533D02*
X199166904Y-123213390D01*
X199166904Y-123213390D02*
X198595476Y-123784819D01*
X198595476Y-123784819D02*
X199214523Y-123784819D01*
X199547857Y-122784819D02*
X200166904Y-122784819D01*
X200166904Y-122784819D02*
X199833571Y-123165771D01*
X199833571Y-123165771D02*
X199976428Y-123165771D01*
X199976428Y-123165771D02*
X200071666Y-123213390D01*
X200071666Y-123213390D02*
X200119285Y-123261009D01*
X200119285Y-123261009D02*
X200166904Y-123356247D01*
X200166904Y-123356247D02*
X200166904Y-123594342D01*
X200166904Y-123594342D02*
X200119285Y-123689580D01*
X200119285Y-123689580D02*
X200071666Y-123737200D01*
X200071666Y-123737200D02*
X199976428Y-123784819D01*
X199976428Y-123784819D02*
X199690714Y-123784819D01*
X199690714Y-123784819D02*
X199595476Y-123737200D01*
X199595476Y-123737200D02*
X199547857Y-123689580D01*
X153540833Y-92937080D02*
X153493214Y-92984700D01*
X153493214Y-92984700D02*
X153350357Y-93032319D01*
X153350357Y-93032319D02*
X153255119Y-93032319D01*
X153255119Y-93032319D02*
X153112262Y-92984700D01*
X153112262Y-92984700D02*
X153017024Y-92889461D01*
X153017024Y-92889461D02*
X152969405Y-92794223D01*
X152969405Y-92794223D02*
X152921786Y-92603747D01*
X152921786Y-92603747D02*
X152921786Y-92460890D01*
X152921786Y-92460890D02*
X152969405Y-92270414D01*
X152969405Y-92270414D02*
X153017024Y-92175176D01*
X153017024Y-92175176D02*
X153112262Y-92079938D01*
X153112262Y-92079938D02*
X153255119Y-92032319D01*
X153255119Y-92032319D02*
X153350357Y-92032319D01*
X153350357Y-92032319D02*
X153493214Y-92079938D01*
X153493214Y-92079938D02*
X153540833Y-92127557D01*
X154397976Y-92032319D02*
X154207500Y-92032319D01*
X154207500Y-92032319D02*
X154112262Y-92079938D01*
X154112262Y-92079938D02*
X154064643Y-92127557D01*
X154064643Y-92127557D02*
X153969405Y-92270414D01*
X153969405Y-92270414D02*
X153921786Y-92460890D01*
X153921786Y-92460890D02*
X153921786Y-92841842D01*
X153921786Y-92841842D02*
X153969405Y-92937080D01*
X153969405Y-92937080D02*
X154017024Y-92984700D01*
X154017024Y-92984700D02*
X154112262Y-93032319D01*
X154112262Y-93032319D02*
X154302738Y-93032319D01*
X154302738Y-93032319D02*
X154397976Y-92984700D01*
X154397976Y-92984700D02*
X154445595Y-92937080D01*
X154445595Y-92937080D02*
X154493214Y-92841842D01*
X154493214Y-92841842D02*
X154493214Y-92603747D01*
X154493214Y-92603747D02*
X154445595Y-92508509D01*
X154445595Y-92508509D02*
X154397976Y-92460890D01*
X154397976Y-92460890D02*
X154302738Y-92413271D01*
X154302738Y-92413271D02*
X154112262Y-92413271D01*
X154112262Y-92413271D02*
X154017024Y-92460890D01*
X154017024Y-92460890D02*
X153969405Y-92508509D01*
X153969405Y-92508509D02*
X153921786Y-92603747D01*
X184211905Y-114804819D02*
X184211905Y-113804819D01*
X184211905Y-113804819D02*
X184450000Y-113804819D01*
X184450000Y-113804819D02*
X184592857Y-113852438D01*
X184592857Y-113852438D02*
X184688095Y-113947676D01*
X184688095Y-113947676D02*
X184735714Y-114042914D01*
X184735714Y-114042914D02*
X184783333Y-114233390D01*
X184783333Y-114233390D02*
X184783333Y-114376247D01*
X184783333Y-114376247D02*
X184735714Y-114566723D01*
X184735714Y-114566723D02*
X184688095Y-114661961D01*
X184688095Y-114661961D02*
X184592857Y-114757200D01*
X184592857Y-114757200D02*
X184450000Y-114804819D01*
X184450000Y-114804819D02*
X184211905Y-114804819D01*
X185640476Y-114138152D02*
X185640476Y-114804819D01*
X185402381Y-113757200D02*
X185164286Y-114471485D01*
X185164286Y-114471485D02*
X185783333Y-114471485D01*
X211092142Y-117034819D02*
X210758809Y-116558628D01*
X210520714Y-117034819D02*
X210520714Y-116034819D01*
X210520714Y-116034819D02*
X210901666Y-116034819D01*
X210901666Y-116034819D02*
X210996904Y-116082438D01*
X210996904Y-116082438D02*
X211044523Y-116130057D01*
X211044523Y-116130057D02*
X211092142Y-116225295D01*
X211092142Y-116225295D02*
X211092142Y-116368152D01*
X211092142Y-116368152D02*
X211044523Y-116463390D01*
X211044523Y-116463390D02*
X210996904Y-116511009D01*
X210996904Y-116511009D02*
X210901666Y-116558628D01*
X210901666Y-116558628D02*
X210520714Y-116558628D01*
X211425476Y-116034819D02*
X212044523Y-116034819D01*
X212044523Y-116034819D02*
X211711190Y-116415771D01*
X211711190Y-116415771D02*
X211854047Y-116415771D01*
X211854047Y-116415771D02*
X211949285Y-116463390D01*
X211949285Y-116463390D02*
X211996904Y-116511009D01*
X211996904Y-116511009D02*
X212044523Y-116606247D01*
X212044523Y-116606247D02*
X212044523Y-116844342D01*
X212044523Y-116844342D02*
X211996904Y-116939580D01*
X211996904Y-116939580D02*
X211949285Y-116987200D01*
X211949285Y-116987200D02*
X211854047Y-117034819D01*
X211854047Y-117034819D02*
X211568333Y-117034819D01*
X211568333Y-117034819D02*
X211473095Y-116987200D01*
X211473095Y-116987200D02*
X211425476Y-116939580D01*
X212996904Y-117034819D02*
X212425476Y-117034819D01*
X212711190Y-117034819D02*
X212711190Y-116034819D01*
X212711190Y-116034819D02*
X212615952Y-116177676D01*
X212615952Y-116177676D02*
X212520714Y-116272914D01*
X212520714Y-116272914D02*
X212425476Y-116320533D01*
X88738095Y-62254819D02*
X88738095Y-61254819D01*
X88738095Y-61731009D02*
X89309523Y-61731009D01*
X89309523Y-62254819D02*
X89309523Y-61254819D01*
X90309523Y-62254819D02*
X89738095Y-62254819D01*
X90023809Y-62254819D02*
X90023809Y-61254819D01*
X90023809Y-61254819D02*
X89928571Y-61397676D01*
X89928571Y-61397676D02*
X89833333Y-61492914D01*
X89833333Y-61492914D02*
X89738095Y-61540533D01*
X202272142Y-118764819D02*
X201938809Y-118288628D01*
X201700714Y-118764819D02*
X201700714Y-117764819D01*
X201700714Y-117764819D02*
X202081666Y-117764819D01*
X202081666Y-117764819D02*
X202176904Y-117812438D01*
X202176904Y-117812438D02*
X202224523Y-117860057D01*
X202224523Y-117860057D02*
X202272142Y-117955295D01*
X202272142Y-117955295D02*
X202272142Y-118098152D01*
X202272142Y-118098152D02*
X202224523Y-118193390D01*
X202224523Y-118193390D02*
X202176904Y-118241009D01*
X202176904Y-118241009D02*
X202081666Y-118288628D01*
X202081666Y-118288628D02*
X201700714Y-118288628D01*
X202653095Y-117860057D02*
X202700714Y-117812438D01*
X202700714Y-117812438D02*
X202795952Y-117764819D01*
X202795952Y-117764819D02*
X203034047Y-117764819D01*
X203034047Y-117764819D02*
X203129285Y-117812438D01*
X203129285Y-117812438D02*
X203176904Y-117860057D01*
X203176904Y-117860057D02*
X203224523Y-117955295D01*
X203224523Y-117955295D02*
X203224523Y-118050533D01*
X203224523Y-118050533D02*
X203176904Y-118193390D01*
X203176904Y-118193390D02*
X202605476Y-118764819D01*
X202605476Y-118764819D02*
X203224523Y-118764819D01*
X203557857Y-117764819D02*
X204224523Y-117764819D01*
X204224523Y-117764819D02*
X203795952Y-118764819D01*
X136624642Y-90757080D02*
X136577023Y-90804700D01*
X136577023Y-90804700D02*
X136434166Y-90852319D01*
X136434166Y-90852319D02*
X136338928Y-90852319D01*
X136338928Y-90852319D02*
X136196071Y-90804700D01*
X136196071Y-90804700D02*
X136100833Y-90709461D01*
X136100833Y-90709461D02*
X136053214Y-90614223D01*
X136053214Y-90614223D02*
X136005595Y-90423747D01*
X136005595Y-90423747D02*
X136005595Y-90280890D01*
X136005595Y-90280890D02*
X136053214Y-90090414D01*
X136053214Y-90090414D02*
X136100833Y-89995176D01*
X136100833Y-89995176D02*
X136196071Y-89899938D01*
X136196071Y-89899938D02*
X136338928Y-89852319D01*
X136338928Y-89852319D02*
X136434166Y-89852319D01*
X136434166Y-89852319D02*
X136577023Y-89899938D01*
X136577023Y-89899938D02*
X136624642Y-89947557D01*
X137577023Y-90852319D02*
X137005595Y-90852319D01*
X137291309Y-90852319D02*
X137291309Y-89852319D01*
X137291309Y-89852319D02*
X137196071Y-89995176D01*
X137196071Y-89995176D02*
X137100833Y-90090414D01*
X137100833Y-90090414D02*
X137005595Y-90138033D01*
X137910357Y-89852319D02*
X138529404Y-89852319D01*
X138529404Y-89852319D02*
X138196071Y-90233271D01*
X138196071Y-90233271D02*
X138338928Y-90233271D01*
X138338928Y-90233271D02*
X138434166Y-90280890D01*
X138434166Y-90280890D02*
X138481785Y-90328509D01*
X138481785Y-90328509D02*
X138529404Y-90423747D01*
X138529404Y-90423747D02*
X138529404Y-90661842D01*
X138529404Y-90661842D02*
X138481785Y-90757080D01*
X138481785Y-90757080D02*
X138434166Y-90804700D01*
X138434166Y-90804700D02*
X138338928Y-90852319D01*
X138338928Y-90852319D02*
X138053214Y-90852319D01*
X138053214Y-90852319D02*
X137957976Y-90804700D01*
X137957976Y-90804700D02*
X137910357Y-90757080D01*
X155088095Y-106649819D02*
X155088095Y-107459342D01*
X155088095Y-107459342D02*
X155135714Y-107554580D01*
X155135714Y-107554580D02*
X155183333Y-107602200D01*
X155183333Y-107602200D02*
X155278571Y-107649819D01*
X155278571Y-107649819D02*
X155469047Y-107649819D01*
X155469047Y-107649819D02*
X155564285Y-107602200D01*
X155564285Y-107602200D02*
X155611904Y-107554580D01*
X155611904Y-107554580D02*
X155659523Y-107459342D01*
X155659523Y-107459342D02*
X155659523Y-106649819D01*
X156040476Y-106649819D02*
X156707142Y-106649819D01*
X156707142Y-106649819D02*
X156278571Y-107649819D01*
X153540833Y-87917080D02*
X153493214Y-87964700D01*
X153493214Y-87964700D02*
X153350357Y-88012319D01*
X153350357Y-88012319D02*
X153255119Y-88012319D01*
X153255119Y-88012319D02*
X153112262Y-87964700D01*
X153112262Y-87964700D02*
X153017024Y-87869461D01*
X153017024Y-87869461D02*
X152969405Y-87774223D01*
X152969405Y-87774223D02*
X152921786Y-87583747D01*
X152921786Y-87583747D02*
X152921786Y-87440890D01*
X152921786Y-87440890D02*
X152969405Y-87250414D01*
X152969405Y-87250414D02*
X153017024Y-87155176D01*
X153017024Y-87155176D02*
X153112262Y-87059938D01*
X153112262Y-87059938D02*
X153255119Y-87012319D01*
X153255119Y-87012319D02*
X153350357Y-87012319D01*
X153350357Y-87012319D02*
X153493214Y-87059938D01*
X153493214Y-87059938D02*
X153540833Y-87107557D01*
X153874167Y-87012319D02*
X154493214Y-87012319D01*
X154493214Y-87012319D02*
X154159881Y-87393271D01*
X154159881Y-87393271D02*
X154302738Y-87393271D01*
X154302738Y-87393271D02*
X154397976Y-87440890D01*
X154397976Y-87440890D02*
X154445595Y-87488509D01*
X154445595Y-87488509D02*
X154493214Y-87583747D01*
X154493214Y-87583747D02*
X154493214Y-87821842D01*
X154493214Y-87821842D02*
X154445595Y-87917080D01*
X154445595Y-87917080D02*
X154397976Y-87964700D01*
X154397976Y-87964700D02*
X154302738Y-88012319D01*
X154302738Y-88012319D02*
X154017024Y-88012319D01*
X154017024Y-88012319D02*
X153921786Y-87964700D01*
X153921786Y-87964700D02*
X153874167Y-87917080D01*
X202272142Y-121274819D02*
X201938809Y-120798628D01*
X201700714Y-121274819D02*
X201700714Y-120274819D01*
X201700714Y-120274819D02*
X202081666Y-120274819D01*
X202081666Y-120274819D02*
X202176904Y-120322438D01*
X202176904Y-120322438D02*
X202224523Y-120370057D01*
X202224523Y-120370057D02*
X202272142Y-120465295D01*
X202272142Y-120465295D02*
X202272142Y-120608152D01*
X202272142Y-120608152D02*
X202224523Y-120703390D01*
X202224523Y-120703390D02*
X202176904Y-120751009D01*
X202176904Y-120751009D02*
X202081666Y-120798628D01*
X202081666Y-120798628D02*
X201700714Y-120798628D01*
X202653095Y-120370057D02*
X202700714Y-120322438D01*
X202700714Y-120322438D02*
X202795952Y-120274819D01*
X202795952Y-120274819D02*
X203034047Y-120274819D01*
X203034047Y-120274819D02*
X203129285Y-120322438D01*
X203129285Y-120322438D02*
X203176904Y-120370057D01*
X203176904Y-120370057D02*
X203224523Y-120465295D01*
X203224523Y-120465295D02*
X203224523Y-120560533D01*
X203224523Y-120560533D02*
X203176904Y-120703390D01*
X203176904Y-120703390D02*
X202605476Y-121274819D01*
X202605476Y-121274819D02*
X203224523Y-121274819D01*
X203795952Y-120703390D02*
X203700714Y-120655771D01*
X203700714Y-120655771D02*
X203653095Y-120608152D01*
X203653095Y-120608152D02*
X203605476Y-120512914D01*
X203605476Y-120512914D02*
X203605476Y-120465295D01*
X203605476Y-120465295D02*
X203653095Y-120370057D01*
X203653095Y-120370057D02*
X203700714Y-120322438D01*
X203700714Y-120322438D02*
X203795952Y-120274819D01*
X203795952Y-120274819D02*
X203986428Y-120274819D01*
X203986428Y-120274819D02*
X204081666Y-120322438D01*
X204081666Y-120322438D02*
X204129285Y-120370057D01*
X204129285Y-120370057D02*
X204176904Y-120465295D01*
X204176904Y-120465295D02*
X204176904Y-120512914D01*
X204176904Y-120512914D02*
X204129285Y-120608152D01*
X204129285Y-120608152D02*
X204081666Y-120655771D01*
X204081666Y-120655771D02*
X203986428Y-120703390D01*
X203986428Y-120703390D02*
X203795952Y-120703390D01*
X203795952Y-120703390D02*
X203700714Y-120751009D01*
X203700714Y-120751009D02*
X203653095Y-120798628D01*
X203653095Y-120798628D02*
X203605476Y-120893866D01*
X203605476Y-120893866D02*
X203605476Y-121084342D01*
X203605476Y-121084342D02*
X203653095Y-121179580D01*
X203653095Y-121179580D02*
X203700714Y-121227200D01*
X203700714Y-121227200D02*
X203795952Y-121274819D01*
X203795952Y-121274819D02*
X203986428Y-121274819D01*
X203986428Y-121274819D02*
X204081666Y-121227200D01*
X204081666Y-121227200D02*
X204129285Y-121179580D01*
X204129285Y-121179580D02*
X204176904Y-121084342D01*
X204176904Y-121084342D02*
X204176904Y-120893866D01*
X204176904Y-120893866D02*
X204129285Y-120798628D01*
X204129285Y-120798628D02*
X204081666Y-120751009D01*
X204081666Y-120751009D02*
X203986428Y-120703390D01*
X155034405Y-78972319D02*
X155034405Y-77972319D01*
X155034405Y-77972319D02*
X155272500Y-77972319D01*
X155272500Y-77972319D02*
X155415357Y-78019938D01*
X155415357Y-78019938D02*
X155510595Y-78115176D01*
X155510595Y-78115176D02*
X155558214Y-78210414D01*
X155558214Y-78210414D02*
X155605833Y-78400890D01*
X155605833Y-78400890D02*
X155605833Y-78543747D01*
X155605833Y-78543747D02*
X155558214Y-78734223D01*
X155558214Y-78734223D02*
X155510595Y-78829461D01*
X155510595Y-78829461D02*
X155415357Y-78924700D01*
X155415357Y-78924700D02*
X155272500Y-78972319D01*
X155272500Y-78972319D02*
X155034405Y-78972319D01*
X156558214Y-78972319D02*
X155986786Y-78972319D01*
X156272500Y-78972319D02*
X156272500Y-77972319D01*
X156272500Y-77972319D02*
X156177262Y-78115176D01*
X156177262Y-78115176D02*
X156082024Y-78210414D01*
X156082024Y-78210414D02*
X155986786Y-78258033D01*
X136624642Y-92727080D02*
X136577023Y-92774700D01*
X136577023Y-92774700D02*
X136434166Y-92822319D01*
X136434166Y-92822319D02*
X136338928Y-92822319D01*
X136338928Y-92822319D02*
X136196071Y-92774700D01*
X136196071Y-92774700D02*
X136100833Y-92679461D01*
X136100833Y-92679461D02*
X136053214Y-92584223D01*
X136053214Y-92584223D02*
X136005595Y-92393747D01*
X136005595Y-92393747D02*
X136005595Y-92250890D01*
X136005595Y-92250890D02*
X136053214Y-92060414D01*
X136053214Y-92060414D02*
X136100833Y-91965176D01*
X136100833Y-91965176D02*
X136196071Y-91869938D01*
X136196071Y-91869938D02*
X136338928Y-91822319D01*
X136338928Y-91822319D02*
X136434166Y-91822319D01*
X136434166Y-91822319D02*
X136577023Y-91869938D01*
X136577023Y-91869938D02*
X136624642Y-91917557D01*
X137577023Y-92822319D02*
X137005595Y-92822319D01*
X137291309Y-92822319D02*
X137291309Y-91822319D01*
X137291309Y-91822319D02*
X137196071Y-91965176D01*
X137196071Y-91965176D02*
X137100833Y-92060414D01*
X137100833Y-92060414D02*
X137005595Y-92108033D01*
X138434166Y-92155652D02*
X138434166Y-92822319D01*
X138196071Y-91774700D02*
X137957976Y-92488985D01*
X137957976Y-92488985D02*
X138577023Y-92488985D01*
X168816667Y-101807200D02*
X168959524Y-101854819D01*
X168959524Y-101854819D02*
X169197619Y-101854819D01*
X169197619Y-101854819D02*
X169292857Y-101807200D01*
X169292857Y-101807200D02*
X169340476Y-101759580D01*
X169340476Y-101759580D02*
X169388095Y-101664342D01*
X169388095Y-101664342D02*
X169388095Y-101569104D01*
X169388095Y-101569104D02*
X169340476Y-101473866D01*
X169340476Y-101473866D02*
X169292857Y-101426247D01*
X169292857Y-101426247D02*
X169197619Y-101378628D01*
X169197619Y-101378628D02*
X169007143Y-101331009D01*
X169007143Y-101331009D02*
X168911905Y-101283390D01*
X168911905Y-101283390D02*
X168864286Y-101235771D01*
X168864286Y-101235771D02*
X168816667Y-101140533D01*
X168816667Y-101140533D02*
X168816667Y-101045295D01*
X168816667Y-101045295D02*
X168864286Y-100950057D01*
X168864286Y-100950057D02*
X168911905Y-100902438D01*
X168911905Y-100902438D02*
X169007143Y-100854819D01*
X169007143Y-100854819D02*
X169245238Y-100854819D01*
X169245238Y-100854819D02*
X169388095Y-100902438D01*
X169721429Y-100854819D02*
X169959524Y-101854819D01*
X169959524Y-101854819D02*
X170150000Y-101140533D01*
X170150000Y-101140533D02*
X170340476Y-101854819D01*
X170340476Y-101854819D02*
X170578572Y-100854819D01*
X171483333Y-101854819D02*
X170911905Y-101854819D01*
X171197619Y-101854819D02*
X171197619Y-100854819D01*
X171197619Y-100854819D02*
X171102381Y-100997676D01*
X171102381Y-100997676D02*
X171007143Y-101092914D01*
X171007143Y-101092914D02*
X170911905Y-101140533D01*
X121537142Y-123154819D02*
X121203809Y-122678628D01*
X120965714Y-123154819D02*
X120965714Y-122154819D01*
X120965714Y-122154819D02*
X121346666Y-122154819D01*
X121346666Y-122154819D02*
X121441904Y-122202438D01*
X121441904Y-122202438D02*
X121489523Y-122250057D01*
X121489523Y-122250057D02*
X121537142Y-122345295D01*
X121537142Y-122345295D02*
X121537142Y-122488152D01*
X121537142Y-122488152D02*
X121489523Y-122583390D01*
X121489523Y-122583390D02*
X121441904Y-122631009D01*
X121441904Y-122631009D02*
X121346666Y-122678628D01*
X121346666Y-122678628D02*
X120965714Y-122678628D01*
X122489523Y-123154819D02*
X121918095Y-123154819D01*
X122203809Y-123154819D02*
X122203809Y-122154819D01*
X122203809Y-122154819D02*
X122108571Y-122297676D01*
X122108571Y-122297676D02*
X122013333Y-122392914D01*
X122013333Y-122392914D02*
X121918095Y-122440533D01*
X123346666Y-122488152D02*
X123346666Y-123154819D01*
X123108571Y-122107200D02*
X122870476Y-122821485D01*
X122870476Y-122821485D02*
X123489523Y-122821485D01*
X121963095Y-102409819D02*
X121963095Y-103219342D01*
X121963095Y-103219342D02*
X122010714Y-103314580D01*
X122010714Y-103314580D02*
X122058333Y-103362200D01*
X122058333Y-103362200D02*
X122153571Y-103409819D01*
X122153571Y-103409819D02*
X122344047Y-103409819D01*
X122344047Y-103409819D02*
X122439285Y-103362200D01*
X122439285Y-103362200D02*
X122486904Y-103314580D01*
X122486904Y-103314580D02*
X122534523Y-103219342D01*
X122534523Y-103219342D02*
X122534523Y-102409819D01*
X122963095Y-102505057D02*
X123010714Y-102457438D01*
X123010714Y-102457438D02*
X123105952Y-102409819D01*
X123105952Y-102409819D02*
X123344047Y-102409819D01*
X123344047Y-102409819D02*
X123439285Y-102457438D01*
X123439285Y-102457438D02*
X123486904Y-102505057D01*
X123486904Y-102505057D02*
X123534523Y-102600295D01*
X123534523Y-102600295D02*
X123534523Y-102695533D01*
X123534523Y-102695533D02*
X123486904Y-102838390D01*
X123486904Y-102838390D02*
X122915476Y-103409819D01*
X122915476Y-103409819D02*
X123534523Y-103409819D01*
X198262142Y-118669580D02*
X198214523Y-118717200D01*
X198214523Y-118717200D02*
X198071666Y-118764819D01*
X198071666Y-118764819D02*
X197976428Y-118764819D01*
X197976428Y-118764819D02*
X197833571Y-118717200D01*
X197833571Y-118717200D02*
X197738333Y-118621961D01*
X197738333Y-118621961D02*
X197690714Y-118526723D01*
X197690714Y-118526723D02*
X197643095Y-118336247D01*
X197643095Y-118336247D02*
X197643095Y-118193390D01*
X197643095Y-118193390D02*
X197690714Y-118002914D01*
X197690714Y-118002914D02*
X197738333Y-117907676D01*
X197738333Y-117907676D02*
X197833571Y-117812438D01*
X197833571Y-117812438D02*
X197976428Y-117764819D01*
X197976428Y-117764819D02*
X198071666Y-117764819D01*
X198071666Y-117764819D02*
X198214523Y-117812438D01*
X198214523Y-117812438D02*
X198262142Y-117860057D01*
X198595476Y-117764819D02*
X199214523Y-117764819D01*
X199214523Y-117764819D02*
X198881190Y-118145771D01*
X198881190Y-118145771D02*
X199024047Y-118145771D01*
X199024047Y-118145771D02*
X199119285Y-118193390D01*
X199119285Y-118193390D02*
X199166904Y-118241009D01*
X199166904Y-118241009D02*
X199214523Y-118336247D01*
X199214523Y-118336247D02*
X199214523Y-118574342D01*
X199214523Y-118574342D02*
X199166904Y-118669580D01*
X199166904Y-118669580D02*
X199119285Y-118717200D01*
X199119285Y-118717200D02*
X199024047Y-118764819D01*
X199024047Y-118764819D02*
X198738333Y-118764819D01*
X198738333Y-118764819D02*
X198643095Y-118717200D01*
X198643095Y-118717200D02*
X198595476Y-118669580D01*
X199595476Y-117860057D02*
X199643095Y-117812438D01*
X199643095Y-117812438D02*
X199738333Y-117764819D01*
X199738333Y-117764819D02*
X199976428Y-117764819D01*
X199976428Y-117764819D02*
X200071666Y-117812438D01*
X200071666Y-117812438D02*
X200119285Y-117860057D01*
X200119285Y-117860057D02*
X200166904Y-117955295D01*
X200166904Y-117955295D02*
X200166904Y-118050533D01*
X200166904Y-118050533D02*
X200119285Y-118193390D01*
X200119285Y-118193390D02*
X199547857Y-118764819D01*
X199547857Y-118764819D02*
X200166904Y-118764819D01*
X159562142Y-109784819D02*
X159228809Y-109308628D01*
X158990714Y-109784819D02*
X158990714Y-108784819D01*
X158990714Y-108784819D02*
X159371666Y-108784819D01*
X159371666Y-108784819D02*
X159466904Y-108832438D01*
X159466904Y-108832438D02*
X159514523Y-108880057D01*
X159514523Y-108880057D02*
X159562142Y-108975295D01*
X159562142Y-108975295D02*
X159562142Y-109118152D01*
X159562142Y-109118152D02*
X159514523Y-109213390D01*
X159514523Y-109213390D02*
X159466904Y-109261009D01*
X159466904Y-109261009D02*
X159371666Y-109308628D01*
X159371666Y-109308628D02*
X158990714Y-109308628D01*
X160514523Y-109784819D02*
X159943095Y-109784819D01*
X160228809Y-109784819D02*
X160228809Y-108784819D01*
X160228809Y-108784819D02*
X160133571Y-108927676D01*
X160133571Y-108927676D02*
X160038333Y-109022914D01*
X160038333Y-109022914D02*
X159943095Y-109070533D01*
X160847857Y-108784819D02*
X161466904Y-108784819D01*
X161466904Y-108784819D02*
X161133571Y-109165771D01*
X161133571Y-109165771D02*
X161276428Y-109165771D01*
X161276428Y-109165771D02*
X161371666Y-109213390D01*
X161371666Y-109213390D02*
X161419285Y-109261009D01*
X161419285Y-109261009D02*
X161466904Y-109356247D01*
X161466904Y-109356247D02*
X161466904Y-109594342D01*
X161466904Y-109594342D02*
X161419285Y-109689580D01*
X161419285Y-109689580D02*
X161371666Y-109737200D01*
X161371666Y-109737200D02*
X161276428Y-109784819D01*
X161276428Y-109784819D02*
X160990714Y-109784819D01*
X160990714Y-109784819D02*
X160895476Y-109737200D01*
X160895476Y-109737200D02*
X160847857Y-109689580D01*
X144357142Y-84179580D02*
X144309523Y-84227200D01*
X144309523Y-84227200D02*
X144166666Y-84274819D01*
X144166666Y-84274819D02*
X144071428Y-84274819D01*
X144071428Y-84274819D02*
X143928571Y-84227200D01*
X143928571Y-84227200D02*
X143833333Y-84131961D01*
X143833333Y-84131961D02*
X143785714Y-84036723D01*
X143785714Y-84036723D02*
X143738095Y-83846247D01*
X143738095Y-83846247D02*
X143738095Y-83703390D01*
X143738095Y-83703390D02*
X143785714Y-83512914D01*
X143785714Y-83512914D02*
X143833333Y-83417676D01*
X143833333Y-83417676D02*
X143928571Y-83322438D01*
X143928571Y-83322438D02*
X144071428Y-83274819D01*
X144071428Y-83274819D02*
X144166666Y-83274819D01*
X144166666Y-83274819D02*
X144309523Y-83322438D01*
X144309523Y-83322438D02*
X144357142Y-83370057D01*
X144738095Y-83370057D02*
X144785714Y-83322438D01*
X144785714Y-83322438D02*
X144880952Y-83274819D01*
X144880952Y-83274819D02*
X145119047Y-83274819D01*
X145119047Y-83274819D02*
X145214285Y-83322438D01*
X145214285Y-83322438D02*
X145261904Y-83370057D01*
X145261904Y-83370057D02*
X145309523Y-83465295D01*
X145309523Y-83465295D02*
X145309523Y-83560533D01*
X145309523Y-83560533D02*
X145261904Y-83703390D01*
X145261904Y-83703390D02*
X144690476Y-84274819D01*
X144690476Y-84274819D02*
X145309523Y-84274819D01*
X145928571Y-83274819D02*
X146023809Y-83274819D01*
X146023809Y-83274819D02*
X146119047Y-83322438D01*
X146119047Y-83322438D02*
X146166666Y-83370057D01*
X146166666Y-83370057D02*
X146214285Y-83465295D01*
X146214285Y-83465295D02*
X146261904Y-83655771D01*
X146261904Y-83655771D02*
X146261904Y-83893866D01*
X146261904Y-83893866D02*
X146214285Y-84084342D01*
X146214285Y-84084342D02*
X146166666Y-84179580D01*
X146166666Y-84179580D02*
X146119047Y-84227200D01*
X146119047Y-84227200D02*
X146023809Y-84274819D01*
X146023809Y-84274819D02*
X145928571Y-84274819D01*
X145928571Y-84274819D02*
X145833333Y-84227200D01*
X145833333Y-84227200D02*
X145785714Y-84179580D01*
X145785714Y-84179580D02*
X145738095Y-84084342D01*
X145738095Y-84084342D02*
X145690476Y-83893866D01*
X145690476Y-83893866D02*
X145690476Y-83655771D01*
X145690476Y-83655771D02*
X145738095Y-83465295D01*
X145738095Y-83465295D02*
X145785714Y-83370057D01*
X145785714Y-83370057D02*
X145833333Y-83322438D01*
X145833333Y-83322438D02*
X145928571Y-83274819D01*
X153540833Y-90427080D02*
X153493214Y-90474700D01*
X153493214Y-90474700D02*
X153350357Y-90522319D01*
X153350357Y-90522319D02*
X153255119Y-90522319D01*
X153255119Y-90522319D02*
X153112262Y-90474700D01*
X153112262Y-90474700D02*
X153017024Y-90379461D01*
X153017024Y-90379461D02*
X152969405Y-90284223D01*
X152969405Y-90284223D02*
X152921786Y-90093747D01*
X152921786Y-90093747D02*
X152921786Y-89950890D01*
X152921786Y-89950890D02*
X152969405Y-89760414D01*
X152969405Y-89760414D02*
X153017024Y-89665176D01*
X153017024Y-89665176D02*
X153112262Y-89569938D01*
X153112262Y-89569938D02*
X153255119Y-89522319D01*
X153255119Y-89522319D02*
X153350357Y-89522319D01*
X153350357Y-89522319D02*
X153493214Y-89569938D01*
X153493214Y-89569938D02*
X153540833Y-89617557D01*
X154397976Y-89855652D02*
X154397976Y-90522319D01*
X154159881Y-89474700D02*
X153921786Y-90188985D01*
X153921786Y-90188985D02*
X154540833Y-90188985D01*
X149613095Y-118719819D02*
X149613095Y-119529342D01*
X149613095Y-119529342D02*
X149660714Y-119624580D01*
X149660714Y-119624580D02*
X149708333Y-119672200D01*
X149708333Y-119672200D02*
X149803571Y-119719819D01*
X149803571Y-119719819D02*
X149994047Y-119719819D01*
X149994047Y-119719819D02*
X150089285Y-119672200D01*
X150089285Y-119672200D02*
X150136904Y-119624580D01*
X150136904Y-119624580D02*
X150184523Y-119529342D01*
X150184523Y-119529342D02*
X150184523Y-118719819D01*
X150803571Y-119148390D02*
X150708333Y-119100771D01*
X150708333Y-119100771D02*
X150660714Y-119053152D01*
X150660714Y-119053152D02*
X150613095Y-118957914D01*
X150613095Y-118957914D02*
X150613095Y-118910295D01*
X150613095Y-118910295D02*
X150660714Y-118815057D01*
X150660714Y-118815057D02*
X150708333Y-118767438D01*
X150708333Y-118767438D02*
X150803571Y-118719819D01*
X150803571Y-118719819D02*
X150994047Y-118719819D01*
X150994047Y-118719819D02*
X151089285Y-118767438D01*
X151089285Y-118767438D02*
X151136904Y-118815057D01*
X151136904Y-118815057D02*
X151184523Y-118910295D01*
X151184523Y-118910295D02*
X151184523Y-118957914D01*
X151184523Y-118957914D02*
X151136904Y-119053152D01*
X151136904Y-119053152D02*
X151089285Y-119100771D01*
X151089285Y-119100771D02*
X150994047Y-119148390D01*
X150994047Y-119148390D02*
X150803571Y-119148390D01*
X150803571Y-119148390D02*
X150708333Y-119196009D01*
X150708333Y-119196009D02*
X150660714Y-119243628D01*
X150660714Y-119243628D02*
X150613095Y-119338866D01*
X150613095Y-119338866D02*
X150613095Y-119529342D01*
X150613095Y-119529342D02*
X150660714Y-119624580D01*
X150660714Y-119624580D02*
X150708333Y-119672200D01*
X150708333Y-119672200D02*
X150803571Y-119719819D01*
X150803571Y-119719819D02*
X150994047Y-119719819D01*
X150994047Y-119719819D02*
X151089285Y-119672200D01*
X151089285Y-119672200D02*
X151136904Y-119624580D01*
X151136904Y-119624580D02*
X151184523Y-119529342D01*
X151184523Y-119529342D02*
X151184523Y-119338866D01*
X151184523Y-119338866D02*
X151136904Y-119243628D01*
X151136904Y-119243628D02*
X151089285Y-119196009D01*
X151089285Y-119196009D02*
X150994047Y-119148390D01*
X126816666Y-115124819D02*
X126816666Y-115839104D01*
X126816666Y-115839104D02*
X126769047Y-115981961D01*
X126769047Y-115981961D02*
X126673809Y-116077200D01*
X126673809Y-116077200D02*
X126530952Y-116124819D01*
X126530952Y-116124819D02*
X126435714Y-116124819D01*
X127721428Y-115458152D02*
X127721428Y-116124819D01*
X127483333Y-115077200D02*
X127245238Y-115791485D01*
X127245238Y-115791485D02*
X127864285Y-115791485D01*
X124166666Y-134454819D02*
X124166666Y-135169104D01*
X124166666Y-135169104D02*
X124119047Y-135311961D01*
X124119047Y-135311961D02*
X124023809Y-135407200D01*
X124023809Y-135407200D02*
X123880952Y-135454819D01*
X123880952Y-135454819D02*
X123785714Y-135454819D01*
X124785714Y-134883390D02*
X124690476Y-134835771D01*
X124690476Y-134835771D02*
X124642857Y-134788152D01*
X124642857Y-134788152D02*
X124595238Y-134692914D01*
X124595238Y-134692914D02*
X124595238Y-134645295D01*
X124595238Y-134645295D02*
X124642857Y-134550057D01*
X124642857Y-134550057D02*
X124690476Y-134502438D01*
X124690476Y-134502438D02*
X124785714Y-134454819D01*
X124785714Y-134454819D02*
X124976190Y-134454819D01*
X124976190Y-134454819D02*
X125071428Y-134502438D01*
X125071428Y-134502438D02*
X125119047Y-134550057D01*
X125119047Y-134550057D02*
X125166666Y-134645295D01*
X125166666Y-134645295D02*
X125166666Y-134692914D01*
X125166666Y-134692914D02*
X125119047Y-134788152D01*
X125119047Y-134788152D02*
X125071428Y-134835771D01*
X125071428Y-134835771D02*
X124976190Y-134883390D01*
X124976190Y-134883390D02*
X124785714Y-134883390D01*
X124785714Y-134883390D02*
X124690476Y-134931009D01*
X124690476Y-134931009D02*
X124642857Y-134978628D01*
X124642857Y-134978628D02*
X124595238Y-135073866D01*
X124595238Y-135073866D02*
X124595238Y-135264342D01*
X124595238Y-135264342D02*
X124642857Y-135359580D01*
X124642857Y-135359580D02*
X124690476Y-135407200D01*
X124690476Y-135407200D02*
X124785714Y-135454819D01*
X124785714Y-135454819D02*
X124976190Y-135454819D01*
X124976190Y-135454819D02*
X125071428Y-135407200D01*
X125071428Y-135407200D02*
X125119047Y-135359580D01*
X125119047Y-135359580D02*
X125166666Y-135264342D01*
X125166666Y-135264342D02*
X125166666Y-135073866D01*
X125166666Y-135073866D02*
X125119047Y-134978628D01*
X125119047Y-134978628D02*
X125071428Y-134931009D01*
X125071428Y-134931009D02*
X124976190Y-134883390D01*
X202272142Y-116254819D02*
X201938809Y-115778628D01*
X201700714Y-116254819D02*
X201700714Y-115254819D01*
X201700714Y-115254819D02*
X202081666Y-115254819D01*
X202081666Y-115254819D02*
X202176904Y-115302438D01*
X202176904Y-115302438D02*
X202224523Y-115350057D01*
X202224523Y-115350057D02*
X202272142Y-115445295D01*
X202272142Y-115445295D02*
X202272142Y-115588152D01*
X202272142Y-115588152D02*
X202224523Y-115683390D01*
X202224523Y-115683390D02*
X202176904Y-115731009D01*
X202176904Y-115731009D02*
X202081666Y-115778628D01*
X202081666Y-115778628D02*
X201700714Y-115778628D01*
X202653095Y-115350057D02*
X202700714Y-115302438D01*
X202700714Y-115302438D02*
X202795952Y-115254819D01*
X202795952Y-115254819D02*
X203034047Y-115254819D01*
X203034047Y-115254819D02*
X203129285Y-115302438D01*
X203129285Y-115302438D02*
X203176904Y-115350057D01*
X203176904Y-115350057D02*
X203224523Y-115445295D01*
X203224523Y-115445295D02*
X203224523Y-115540533D01*
X203224523Y-115540533D02*
X203176904Y-115683390D01*
X203176904Y-115683390D02*
X202605476Y-116254819D01*
X202605476Y-116254819D02*
X203224523Y-116254819D01*
X204081666Y-115254819D02*
X203891190Y-115254819D01*
X203891190Y-115254819D02*
X203795952Y-115302438D01*
X203795952Y-115302438D02*
X203748333Y-115350057D01*
X203748333Y-115350057D02*
X203653095Y-115492914D01*
X203653095Y-115492914D02*
X203605476Y-115683390D01*
X203605476Y-115683390D02*
X203605476Y-116064342D01*
X203605476Y-116064342D02*
X203653095Y-116159580D01*
X203653095Y-116159580D02*
X203700714Y-116207200D01*
X203700714Y-116207200D02*
X203795952Y-116254819D01*
X203795952Y-116254819D02*
X203986428Y-116254819D01*
X203986428Y-116254819D02*
X204081666Y-116207200D01*
X204081666Y-116207200D02*
X204129285Y-116159580D01*
X204129285Y-116159580D02*
X204176904Y-116064342D01*
X204176904Y-116064342D02*
X204176904Y-115826247D01*
X204176904Y-115826247D02*
X204129285Y-115731009D01*
X204129285Y-115731009D02*
X204081666Y-115683390D01*
X204081666Y-115683390D02*
X203986428Y-115635771D01*
X203986428Y-115635771D02*
X203795952Y-115635771D01*
X203795952Y-115635771D02*
X203700714Y-115683390D01*
X203700714Y-115683390D02*
X203653095Y-115731009D01*
X203653095Y-115731009D02*
X203605476Y-115826247D01*
X129761905Y-129954819D02*
X129761905Y-128954819D01*
X129761905Y-128954819D02*
X130000000Y-128954819D01*
X130000000Y-128954819D02*
X130142857Y-129002438D01*
X130142857Y-129002438D02*
X130238095Y-129097676D01*
X130238095Y-129097676D02*
X130285714Y-129192914D01*
X130285714Y-129192914D02*
X130333333Y-129383390D01*
X130333333Y-129383390D02*
X130333333Y-129526247D01*
X130333333Y-129526247D02*
X130285714Y-129716723D01*
X130285714Y-129716723D02*
X130238095Y-129811961D01*
X130238095Y-129811961D02*
X130142857Y-129907200D01*
X130142857Y-129907200D02*
X130000000Y-129954819D01*
X130000000Y-129954819D02*
X129761905Y-129954819D01*
X130714286Y-129050057D02*
X130761905Y-129002438D01*
X130761905Y-129002438D02*
X130857143Y-128954819D01*
X130857143Y-128954819D02*
X131095238Y-128954819D01*
X131095238Y-128954819D02*
X131190476Y-129002438D01*
X131190476Y-129002438D02*
X131238095Y-129050057D01*
X131238095Y-129050057D02*
X131285714Y-129145295D01*
X131285714Y-129145295D02*
X131285714Y-129240533D01*
X131285714Y-129240533D02*
X131238095Y-129383390D01*
X131238095Y-129383390D02*
X130666667Y-129954819D01*
X130666667Y-129954819D02*
X131285714Y-129954819D01*
X153540833Y-85407080D02*
X153493214Y-85454700D01*
X153493214Y-85454700D02*
X153350357Y-85502319D01*
X153350357Y-85502319D02*
X153255119Y-85502319D01*
X153255119Y-85502319D02*
X153112262Y-85454700D01*
X153112262Y-85454700D02*
X153017024Y-85359461D01*
X153017024Y-85359461D02*
X152969405Y-85264223D01*
X152969405Y-85264223D02*
X152921786Y-85073747D01*
X152921786Y-85073747D02*
X152921786Y-84930890D01*
X152921786Y-84930890D02*
X152969405Y-84740414D01*
X152969405Y-84740414D02*
X153017024Y-84645176D01*
X153017024Y-84645176D02*
X153112262Y-84549938D01*
X153112262Y-84549938D02*
X153255119Y-84502319D01*
X153255119Y-84502319D02*
X153350357Y-84502319D01*
X153350357Y-84502319D02*
X153493214Y-84549938D01*
X153493214Y-84549938D02*
X153540833Y-84597557D01*
X153921786Y-84597557D02*
X153969405Y-84549938D01*
X153969405Y-84549938D02*
X154064643Y-84502319D01*
X154064643Y-84502319D02*
X154302738Y-84502319D01*
X154302738Y-84502319D02*
X154397976Y-84549938D01*
X154397976Y-84549938D02*
X154445595Y-84597557D01*
X154445595Y-84597557D02*
X154493214Y-84692795D01*
X154493214Y-84692795D02*
X154493214Y-84788033D01*
X154493214Y-84788033D02*
X154445595Y-84930890D01*
X154445595Y-84930890D02*
X153874167Y-85502319D01*
X153874167Y-85502319D02*
X154493214Y-85502319D01*
X168766667Y-110882200D02*
X168909524Y-110929819D01*
X168909524Y-110929819D02*
X169147619Y-110929819D01*
X169147619Y-110929819D02*
X169242857Y-110882200D01*
X169242857Y-110882200D02*
X169290476Y-110834580D01*
X169290476Y-110834580D02*
X169338095Y-110739342D01*
X169338095Y-110739342D02*
X169338095Y-110644104D01*
X169338095Y-110644104D02*
X169290476Y-110548866D01*
X169290476Y-110548866D02*
X169242857Y-110501247D01*
X169242857Y-110501247D02*
X169147619Y-110453628D01*
X169147619Y-110453628D02*
X168957143Y-110406009D01*
X168957143Y-110406009D02*
X168861905Y-110358390D01*
X168861905Y-110358390D02*
X168814286Y-110310771D01*
X168814286Y-110310771D02*
X168766667Y-110215533D01*
X168766667Y-110215533D02*
X168766667Y-110120295D01*
X168766667Y-110120295D02*
X168814286Y-110025057D01*
X168814286Y-110025057D02*
X168861905Y-109977438D01*
X168861905Y-109977438D02*
X168957143Y-109929819D01*
X168957143Y-109929819D02*
X169195238Y-109929819D01*
X169195238Y-109929819D02*
X169338095Y-109977438D01*
X169671429Y-109929819D02*
X169909524Y-110929819D01*
X169909524Y-110929819D02*
X170100000Y-110215533D01*
X170100000Y-110215533D02*
X170290476Y-110929819D01*
X170290476Y-110929819D02*
X170528572Y-109929819D01*
X170861905Y-110025057D02*
X170909524Y-109977438D01*
X170909524Y-109977438D02*
X171004762Y-109929819D01*
X171004762Y-109929819D02*
X171242857Y-109929819D01*
X171242857Y-109929819D02*
X171338095Y-109977438D01*
X171338095Y-109977438D02*
X171385714Y-110025057D01*
X171385714Y-110025057D02*
X171433333Y-110120295D01*
X171433333Y-110120295D02*
X171433333Y-110215533D01*
X171433333Y-110215533D02*
X171385714Y-110358390D01*
X171385714Y-110358390D02*
X170814286Y-110929819D01*
X170814286Y-110929819D02*
X171433333Y-110929819D01*
X150632142Y-107429580D02*
X150584523Y-107477200D01*
X150584523Y-107477200D02*
X150441666Y-107524819D01*
X150441666Y-107524819D02*
X150346428Y-107524819D01*
X150346428Y-107524819D02*
X150203571Y-107477200D01*
X150203571Y-107477200D02*
X150108333Y-107381961D01*
X150108333Y-107381961D02*
X150060714Y-107286723D01*
X150060714Y-107286723D02*
X150013095Y-107096247D01*
X150013095Y-107096247D02*
X150013095Y-106953390D01*
X150013095Y-106953390D02*
X150060714Y-106762914D01*
X150060714Y-106762914D02*
X150108333Y-106667676D01*
X150108333Y-106667676D02*
X150203571Y-106572438D01*
X150203571Y-106572438D02*
X150346428Y-106524819D01*
X150346428Y-106524819D02*
X150441666Y-106524819D01*
X150441666Y-106524819D02*
X150584523Y-106572438D01*
X150584523Y-106572438D02*
X150632142Y-106620057D01*
X151013095Y-106620057D02*
X151060714Y-106572438D01*
X151060714Y-106572438D02*
X151155952Y-106524819D01*
X151155952Y-106524819D02*
X151394047Y-106524819D01*
X151394047Y-106524819D02*
X151489285Y-106572438D01*
X151489285Y-106572438D02*
X151536904Y-106620057D01*
X151536904Y-106620057D02*
X151584523Y-106715295D01*
X151584523Y-106715295D02*
X151584523Y-106810533D01*
X151584523Y-106810533D02*
X151536904Y-106953390D01*
X151536904Y-106953390D02*
X150965476Y-107524819D01*
X150965476Y-107524819D02*
X151584523Y-107524819D01*
X152441666Y-106858152D02*
X152441666Y-107524819D01*
X152203571Y-106477200D02*
X151965476Y-107191485D01*
X151965476Y-107191485D02*
X152584523Y-107191485D01*
X87738095Y-140254819D02*
X87738095Y-139254819D01*
X87738095Y-139731009D02*
X88309523Y-139731009D01*
X88309523Y-140254819D02*
X88309523Y-139254819D01*
X88738095Y-139350057D02*
X88785714Y-139302438D01*
X88785714Y-139302438D02*
X88880952Y-139254819D01*
X88880952Y-139254819D02*
X89119047Y-139254819D01*
X89119047Y-139254819D02*
X89214285Y-139302438D01*
X89214285Y-139302438D02*
X89261904Y-139350057D01*
X89261904Y-139350057D02*
X89309523Y-139445295D01*
X89309523Y-139445295D02*
X89309523Y-139540533D01*
X89309523Y-139540533D02*
X89261904Y-139683390D01*
X89261904Y-139683390D02*
X88690476Y-140254819D01*
X88690476Y-140254819D02*
X89309523Y-140254819D01*
X182516666Y-96654819D02*
X182516666Y-97369104D01*
X182516666Y-97369104D02*
X182469047Y-97511961D01*
X182469047Y-97511961D02*
X182373809Y-97607200D01*
X182373809Y-97607200D02*
X182230952Y-97654819D01*
X182230952Y-97654819D02*
X182135714Y-97654819D01*
X182992857Y-97654819D02*
X182992857Y-96654819D01*
X182992857Y-96654819D02*
X183373809Y-96654819D01*
X183373809Y-96654819D02*
X183469047Y-96702438D01*
X183469047Y-96702438D02*
X183516666Y-96750057D01*
X183516666Y-96750057D02*
X183564285Y-96845295D01*
X183564285Y-96845295D02*
X183564285Y-96988152D01*
X183564285Y-96988152D02*
X183516666Y-97083390D01*
X183516666Y-97083390D02*
X183469047Y-97131009D01*
X183469047Y-97131009D02*
X183373809Y-97178628D01*
X183373809Y-97178628D02*
X182992857Y-97178628D01*
X184516666Y-97654819D02*
X183945238Y-97654819D01*
X184230952Y-97654819D02*
X184230952Y-96654819D01*
X184230952Y-96654819D02*
X184135714Y-96797676D01*
X184135714Y-96797676D02*
X184040476Y-96892914D01*
X184040476Y-96892914D02*
X183945238Y-96940533D01*
X198262142Y-116159580D02*
X198214523Y-116207200D01*
X198214523Y-116207200D02*
X198071666Y-116254819D01*
X198071666Y-116254819D02*
X197976428Y-116254819D01*
X197976428Y-116254819D02*
X197833571Y-116207200D01*
X197833571Y-116207200D02*
X197738333Y-116111961D01*
X197738333Y-116111961D02*
X197690714Y-116016723D01*
X197690714Y-116016723D02*
X197643095Y-115826247D01*
X197643095Y-115826247D02*
X197643095Y-115683390D01*
X197643095Y-115683390D02*
X197690714Y-115492914D01*
X197690714Y-115492914D02*
X197738333Y-115397676D01*
X197738333Y-115397676D02*
X197833571Y-115302438D01*
X197833571Y-115302438D02*
X197976428Y-115254819D01*
X197976428Y-115254819D02*
X198071666Y-115254819D01*
X198071666Y-115254819D02*
X198214523Y-115302438D01*
X198214523Y-115302438D02*
X198262142Y-115350057D01*
X198595476Y-115254819D02*
X199214523Y-115254819D01*
X199214523Y-115254819D02*
X198881190Y-115635771D01*
X198881190Y-115635771D02*
X199024047Y-115635771D01*
X199024047Y-115635771D02*
X199119285Y-115683390D01*
X199119285Y-115683390D02*
X199166904Y-115731009D01*
X199166904Y-115731009D02*
X199214523Y-115826247D01*
X199214523Y-115826247D02*
X199214523Y-116064342D01*
X199214523Y-116064342D02*
X199166904Y-116159580D01*
X199166904Y-116159580D02*
X199119285Y-116207200D01*
X199119285Y-116207200D02*
X199024047Y-116254819D01*
X199024047Y-116254819D02*
X198738333Y-116254819D01*
X198738333Y-116254819D02*
X198643095Y-116207200D01*
X198643095Y-116207200D02*
X198595476Y-116159580D01*
X200166904Y-116254819D02*
X199595476Y-116254819D01*
X199881190Y-116254819D02*
X199881190Y-115254819D01*
X199881190Y-115254819D02*
X199785952Y-115397676D01*
X199785952Y-115397676D02*
X199690714Y-115492914D01*
X199690714Y-115492914D02*
X199595476Y-115540533D01*
X153540833Y-82897080D02*
X153493214Y-82944700D01*
X153493214Y-82944700D02*
X153350357Y-82992319D01*
X153350357Y-82992319D02*
X153255119Y-82992319D01*
X153255119Y-82992319D02*
X153112262Y-82944700D01*
X153112262Y-82944700D02*
X153017024Y-82849461D01*
X153017024Y-82849461D02*
X152969405Y-82754223D01*
X152969405Y-82754223D02*
X152921786Y-82563747D01*
X152921786Y-82563747D02*
X152921786Y-82420890D01*
X152921786Y-82420890D02*
X152969405Y-82230414D01*
X152969405Y-82230414D02*
X153017024Y-82135176D01*
X153017024Y-82135176D02*
X153112262Y-82039938D01*
X153112262Y-82039938D02*
X153255119Y-81992319D01*
X153255119Y-81992319D02*
X153350357Y-81992319D01*
X153350357Y-81992319D02*
X153493214Y-82039938D01*
X153493214Y-82039938D02*
X153540833Y-82087557D01*
X154493214Y-82992319D02*
X153921786Y-82992319D01*
X154207500Y-82992319D02*
X154207500Y-81992319D01*
X154207500Y-81992319D02*
X154112262Y-82135176D01*
X154112262Y-82135176D02*
X154017024Y-82230414D01*
X154017024Y-82230414D02*
X153921786Y-82278033D01*
X165532142Y-121014819D02*
X165198809Y-120538628D01*
X164960714Y-121014819D02*
X164960714Y-120014819D01*
X164960714Y-120014819D02*
X165341666Y-120014819D01*
X165341666Y-120014819D02*
X165436904Y-120062438D01*
X165436904Y-120062438D02*
X165484523Y-120110057D01*
X165484523Y-120110057D02*
X165532142Y-120205295D01*
X165532142Y-120205295D02*
X165532142Y-120348152D01*
X165532142Y-120348152D02*
X165484523Y-120443390D01*
X165484523Y-120443390D02*
X165436904Y-120491009D01*
X165436904Y-120491009D02*
X165341666Y-120538628D01*
X165341666Y-120538628D02*
X164960714Y-120538628D01*
X166484523Y-121014819D02*
X165913095Y-121014819D01*
X166198809Y-121014819D02*
X166198809Y-120014819D01*
X166198809Y-120014819D02*
X166103571Y-120157676D01*
X166103571Y-120157676D02*
X166008333Y-120252914D01*
X166008333Y-120252914D02*
X165913095Y-120300533D01*
X167341666Y-120014819D02*
X167151190Y-120014819D01*
X167151190Y-120014819D02*
X167055952Y-120062438D01*
X167055952Y-120062438D02*
X167008333Y-120110057D01*
X167008333Y-120110057D02*
X166913095Y-120252914D01*
X166913095Y-120252914D02*
X166865476Y-120443390D01*
X166865476Y-120443390D02*
X166865476Y-120824342D01*
X166865476Y-120824342D02*
X166913095Y-120919580D01*
X166913095Y-120919580D02*
X166960714Y-120967200D01*
X166960714Y-120967200D02*
X167055952Y-121014819D01*
X167055952Y-121014819D02*
X167246428Y-121014819D01*
X167246428Y-121014819D02*
X167341666Y-120967200D01*
X167341666Y-120967200D02*
X167389285Y-120919580D01*
X167389285Y-120919580D02*
X167436904Y-120824342D01*
X167436904Y-120824342D02*
X167436904Y-120586247D01*
X167436904Y-120586247D02*
X167389285Y-120491009D01*
X167389285Y-120491009D02*
X167341666Y-120443390D01*
X167341666Y-120443390D02*
X167246428Y-120395771D01*
X167246428Y-120395771D02*
X167055952Y-120395771D01*
X167055952Y-120395771D02*
X166960714Y-120443390D01*
X166960714Y-120443390D02*
X166913095Y-120491009D01*
X166913095Y-120491009D02*
X166865476Y-120586247D01*
X117238095Y-129054819D02*
X117238095Y-129864342D01*
X117238095Y-129864342D02*
X117285714Y-129959580D01*
X117285714Y-129959580D02*
X117333333Y-130007200D01*
X117333333Y-130007200D02*
X117428571Y-130054819D01*
X117428571Y-130054819D02*
X117619047Y-130054819D01*
X117619047Y-130054819D02*
X117714285Y-130007200D01*
X117714285Y-130007200D02*
X117761904Y-129959580D01*
X117761904Y-129959580D02*
X117809523Y-129864342D01*
X117809523Y-129864342D02*
X117809523Y-129054819D01*
X118714285Y-129388152D02*
X118714285Y-130054819D01*
X118476190Y-129007200D02*
X118238095Y-129721485D01*
X118238095Y-129721485D02*
X118857142Y-129721485D01*
X159562142Y-107274819D02*
X159228809Y-106798628D01*
X158990714Y-107274819D02*
X158990714Y-106274819D01*
X158990714Y-106274819D02*
X159371666Y-106274819D01*
X159371666Y-106274819D02*
X159466904Y-106322438D01*
X159466904Y-106322438D02*
X159514523Y-106370057D01*
X159514523Y-106370057D02*
X159562142Y-106465295D01*
X159562142Y-106465295D02*
X159562142Y-106608152D01*
X159562142Y-106608152D02*
X159514523Y-106703390D01*
X159514523Y-106703390D02*
X159466904Y-106751009D01*
X159466904Y-106751009D02*
X159371666Y-106798628D01*
X159371666Y-106798628D02*
X158990714Y-106798628D01*
X160514523Y-107274819D02*
X159943095Y-107274819D01*
X160228809Y-107274819D02*
X160228809Y-106274819D01*
X160228809Y-106274819D02*
X160133571Y-106417676D01*
X160133571Y-106417676D02*
X160038333Y-106512914D01*
X160038333Y-106512914D02*
X159943095Y-106560533D01*
X160895476Y-106370057D02*
X160943095Y-106322438D01*
X160943095Y-106322438D02*
X161038333Y-106274819D01*
X161038333Y-106274819D02*
X161276428Y-106274819D01*
X161276428Y-106274819D02*
X161371666Y-106322438D01*
X161371666Y-106322438D02*
X161419285Y-106370057D01*
X161419285Y-106370057D02*
X161466904Y-106465295D01*
X161466904Y-106465295D02*
X161466904Y-106560533D01*
X161466904Y-106560533D02*
X161419285Y-106703390D01*
X161419285Y-106703390D02*
X160847857Y-107274819D01*
X160847857Y-107274819D02*
X161466904Y-107274819D01*
X137100833Y-86817080D02*
X137053214Y-86864700D01*
X137053214Y-86864700D02*
X136910357Y-86912319D01*
X136910357Y-86912319D02*
X136815119Y-86912319D01*
X136815119Y-86912319D02*
X136672262Y-86864700D01*
X136672262Y-86864700D02*
X136577024Y-86769461D01*
X136577024Y-86769461D02*
X136529405Y-86674223D01*
X136529405Y-86674223D02*
X136481786Y-86483747D01*
X136481786Y-86483747D02*
X136481786Y-86340890D01*
X136481786Y-86340890D02*
X136529405Y-86150414D01*
X136529405Y-86150414D02*
X136577024Y-86055176D01*
X136577024Y-86055176D02*
X136672262Y-85959938D01*
X136672262Y-85959938D02*
X136815119Y-85912319D01*
X136815119Y-85912319D02*
X136910357Y-85912319D01*
X136910357Y-85912319D02*
X137053214Y-85959938D01*
X137053214Y-85959938D02*
X137100833Y-86007557D01*
X137577024Y-86912319D02*
X137767500Y-86912319D01*
X137767500Y-86912319D02*
X137862738Y-86864700D01*
X137862738Y-86864700D02*
X137910357Y-86817080D01*
X137910357Y-86817080D02*
X138005595Y-86674223D01*
X138005595Y-86674223D02*
X138053214Y-86483747D01*
X138053214Y-86483747D02*
X138053214Y-86102795D01*
X138053214Y-86102795D02*
X138005595Y-86007557D01*
X138005595Y-86007557D02*
X137957976Y-85959938D01*
X137957976Y-85959938D02*
X137862738Y-85912319D01*
X137862738Y-85912319D02*
X137672262Y-85912319D01*
X137672262Y-85912319D02*
X137577024Y-85959938D01*
X137577024Y-85959938D02*
X137529405Y-86007557D01*
X137529405Y-86007557D02*
X137481786Y-86102795D01*
X137481786Y-86102795D02*
X137481786Y-86340890D01*
X137481786Y-86340890D02*
X137529405Y-86436128D01*
X137529405Y-86436128D02*
X137577024Y-86483747D01*
X137577024Y-86483747D02*
X137672262Y-86531366D01*
X137672262Y-86531366D02*
X137862738Y-86531366D01*
X137862738Y-86531366D02*
X137957976Y-86483747D01*
X137957976Y-86483747D02*
X138005595Y-86436128D01*
X138005595Y-86436128D02*
X138053214Y-86340890D01*
X177166666Y-121349819D02*
X177166666Y-122064104D01*
X177166666Y-122064104D02*
X177119047Y-122206961D01*
X177119047Y-122206961D02*
X177023809Y-122302200D01*
X177023809Y-122302200D02*
X176880952Y-122349819D01*
X176880952Y-122349819D02*
X176785714Y-122349819D01*
X177547619Y-121349819D02*
X178214285Y-121349819D01*
X178214285Y-121349819D02*
X177785714Y-122349819D01*
X145857142Y-91429580D02*
X145809523Y-91477200D01*
X145809523Y-91477200D02*
X145666666Y-91524819D01*
X145666666Y-91524819D02*
X145571428Y-91524819D01*
X145571428Y-91524819D02*
X145428571Y-91477200D01*
X145428571Y-91477200D02*
X145333333Y-91381961D01*
X145333333Y-91381961D02*
X145285714Y-91286723D01*
X145285714Y-91286723D02*
X145238095Y-91096247D01*
X145238095Y-91096247D02*
X145238095Y-90953390D01*
X145238095Y-90953390D02*
X145285714Y-90762914D01*
X145285714Y-90762914D02*
X145333333Y-90667676D01*
X145333333Y-90667676D02*
X145428571Y-90572438D01*
X145428571Y-90572438D02*
X145571428Y-90524819D01*
X145571428Y-90524819D02*
X145666666Y-90524819D01*
X145666666Y-90524819D02*
X145809523Y-90572438D01*
X145809523Y-90572438D02*
X145857142Y-90620057D01*
X146238095Y-90620057D02*
X146285714Y-90572438D01*
X146285714Y-90572438D02*
X146380952Y-90524819D01*
X146380952Y-90524819D02*
X146619047Y-90524819D01*
X146619047Y-90524819D02*
X146714285Y-90572438D01*
X146714285Y-90572438D02*
X146761904Y-90620057D01*
X146761904Y-90620057D02*
X146809523Y-90715295D01*
X146809523Y-90715295D02*
X146809523Y-90810533D01*
X146809523Y-90810533D02*
X146761904Y-90953390D01*
X146761904Y-90953390D02*
X146190476Y-91524819D01*
X146190476Y-91524819D02*
X146809523Y-91524819D01*
X147142857Y-90524819D02*
X147761904Y-90524819D01*
X147761904Y-90524819D02*
X147428571Y-90905771D01*
X147428571Y-90905771D02*
X147571428Y-90905771D01*
X147571428Y-90905771D02*
X147666666Y-90953390D01*
X147666666Y-90953390D02*
X147714285Y-91001009D01*
X147714285Y-91001009D02*
X147761904Y-91096247D01*
X147761904Y-91096247D02*
X147761904Y-91334342D01*
X147761904Y-91334342D02*
X147714285Y-91429580D01*
X147714285Y-91429580D02*
X147666666Y-91477200D01*
X147666666Y-91477200D02*
X147571428Y-91524819D01*
X147571428Y-91524819D02*
X147285714Y-91524819D01*
X147285714Y-91524819D02*
X147190476Y-91477200D01*
X147190476Y-91477200D02*
X147142857Y-91429580D01*
X130748809Y-99303628D02*
X130748809Y-99779819D01*
X130415476Y-98779819D02*
X130748809Y-99303628D01*
X130748809Y-99303628D02*
X131082142Y-98779819D01*
X131939285Y-99779819D02*
X131367857Y-99779819D01*
X131653571Y-99779819D02*
X131653571Y-98779819D01*
X131653571Y-98779819D02*
X131558333Y-98922676D01*
X131558333Y-98922676D02*
X131463095Y-99017914D01*
X131463095Y-99017914D02*
X131367857Y-99065533D01*
X165532142Y-123524819D02*
X165198809Y-123048628D01*
X164960714Y-123524819D02*
X164960714Y-122524819D01*
X164960714Y-122524819D02*
X165341666Y-122524819D01*
X165341666Y-122524819D02*
X165436904Y-122572438D01*
X165436904Y-122572438D02*
X165484523Y-122620057D01*
X165484523Y-122620057D02*
X165532142Y-122715295D01*
X165532142Y-122715295D02*
X165532142Y-122858152D01*
X165532142Y-122858152D02*
X165484523Y-122953390D01*
X165484523Y-122953390D02*
X165436904Y-123001009D01*
X165436904Y-123001009D02*
X165341666Y-123048628D01*
X165341666Y-123048628D02*
X164960714Y-123048628D01*
X166484523Y-123524819D02*
X165913095Y-123524819D01*
X166198809Y-123524819D02*
X166198809Y-122524819D01*
X166198809Y-122524819D02*
X166103571Y-122667676D01*
X166103571Y-122667676D02*
X166008333Y-122762914D01*
X166008333Y-122762914D02*
X165913095Y-122810533D01*
X166817857Y-122524819D02*
X167484523Y-122524819D01*
X167484523Y-122524819D02*
X167055952Y-123524819D01*
X178527142Y-93214819D02*
X178193809Y-92738628D01*
X177955714Y-93214819D02*
X177955714Y-92214819D01*
X177955714Y-92214819D02*
X178336666Y-92214819D01*
X178336666Y-92214819D02*
X178431904Y-92262438D01*
X178431904Y-92262438D02*
X178479523Y-92310057D01*
X178479523Y-92310057D02*
X178527142Y-92405295D01*
X178527142Y-92405295D02*
X178527142Y-92548152D01*
X178527142Y-92548152D02*
X178479523Y-92643390D01*
X178479523Y-92643390D02*
X178431904Y-92691009D01*
X178431904Y-92691009D02*
X178336666Y-92738628D01*
X178336666Y-92738628D02*
X177955714Y-92738628D01*
X179479523Y-93214819D02*
X178908095Y-93214819D01*
X179193809Y-93214819D02*
X179193809Y-92214819D01*
X179193809Y-92214819D02*
X179098571Y-92357676D01*
X179098571Y-92357676D02*
X179003333Y-92452914D01*
X179003333Y-92452914D02*
X178908095Y-92500533D01*
X179955714Y-93214819D02*
X180146190Y-93214819D01*
X180146190Y-93214819D02*
X180241428Y-93167200D01*
X180241428Y-93167200D02*
X180289047Y-93119580D01*
X180289047Y-93119580D02*
X180384285Y-92976723D01*
X180384285Y-92976723D02*
X180431904Y-92786247D01*
X180431904Y-92786247D02*
X180431904Y-92405295D01*
X180431904Y-92405295D02*
X180384285Y-92310057D01*
X180384285Y-92310057D02*
X180336666Y-92262438D01*
X180336666Y-92262438D02*
X180241428Y-92214819D01*
X180241428Y-92214819D02*
X180050952Y-92214819D01*
X180050952Y-92214819D02*
X179955714Y-92262438D01*
X179955714Y-92262438D02*
X179908095Y-92310057D01*
X179908095Y-92310057D02*
X179860476Y-92405295D01*
X179860476Y-92405295D02*
X179860476Y-92643390D01*
X179860476Y-92643390D02*
X179908095Y-92738628D01*
X179908095Y-92738628D02*
X179955714Y-92786247D01*
X179955714Y-92786247D02*
X180050952Y-92833866D01*
X180050952Y-92833866D02*
X180241428Y-92833866D01*
X180241428Y-92833866D02*
X180336666Y-92786247D01*
X180336666Y-92786247D02*
X180384285Y-92738628D01*
X180384285Y-92738628D02*
X180431904Y-92643390D01*
X145857142Y-86929580D02*
X145809523Y-86977200D01*
X145809523Y-86977200D02*
X145666666Y-87024819D01*
X145666666Y-87024819D02*
X145571428Y-87024819D01*
X145571428Y-87024819D02*
X145428571Y-86977200D01*
X145428571Y-86977200D02*
X145333333Y-86881961D01*
X145333333Y-86881961D02*
X145285714Y-86786723D01*
X145285714Y-86786723D02*
X145238095Y-86596247D01*
X145238095Y-86596247D02*
X145238095Y-86453390D01*
X145238095Y-86453390D02*
X145285714Y-86262914D01*
X145285714Y-86262914D02*
X145333333Y-86167676D01*
X145333333Y-86167676D02*
X145428571Y-86072438D01*
X145428571Y-86072438D02*
X145571428Y-86024819D01*
X145571428Y-86024819D02*
X145666666Y-86024819D01*
X145666666Y-86024819D02*
X145809523Y-86072438D01*
X145809523Y-86072438D02*
X145857142Y-86120057D01*
X146238095Y-86120057D02*
X146285714Y-86072438D01*
X146285714Y-86072438D02*
X146380952Y-86024819D01*
X146380952Y-86024819D02*
X146619047Y-86024819D01*
X146619047Y-86024819D02*
X146714285Y-86072438D01*
X146714285Y-86072438D02*
X146761904Y-86120057D01*
X146761904Y-86120057D02*
X146809523Y-86215295D01*
X146809523Y-86215295D02*
X146809523Y-86310533D01*
X146809523Y-86310533D02*
X146761904Y-86453390D01*
X146761904Y-86453390D02*
X146190476Y-87024819D01*
X146190476Y-87024819D02*
X146809523Y-87024819D01*
X147761904Y-87024819D02*
X147190476Y-87024819D01*
X147476190Y-87024819D02*
X147476190Y-86024819D01*
X147476190Y-86024819D02*
X147380952Y-86167676D01*
X147380952Y-86167676D02*
X147285714Y-86262914D01*
X147285714Y-86262914D02*
X147190476Y-86310533D01*
X131466666Y-115124819D02*
X131466666Y-115839104D01*
X131466666Y-115839104D02*
X131419047Y-115981961D01*
X131419047Y-115981961D02*
X131323809Y-116077200D01*
X131323809Y-116077200D02*
X131180952Y-116124819D01*
X131180952Y-116124819D02*
X131085714Y-116124819D01*
X132419047Y-115124819D02*
X131942857Y-115124819D01*
X131942857Y-115124819D02*
X131895238Y-115601009D01*
X131895238Y-115601009D02*
X131942857Y-115553390D01*
X131942857Y-115553390D02*
X132038095Y-115505771D01*
X132038095Y-115505771D02*
X132276190Y-115505771D01*
X132276190Y-115505771D02*
X132371428Y-115553390D01*
X132371428Y-115553390D02*
X132419047Y-115601009D01*
X132419047Y-115601009D02*
X132466666Y-115696247D01*
X132466666Y-115696247D02*
X132466666Y-115934342D01*
X132466666Y-115934342D02*
X132419047Y-116029580D01*
X132419047Y-116029580D02*
X132371428Y-116077200D01*
X132371428Y-116077200D02*
X132276190Y-116124819D01*
X132276190Y-116124819D02*
X132038095Y-116124819D01*
X132038095Y-116124819D02*
X131942857Y-116077200D01*
X131942857Y-116077200D02*
X131895238Y-116029580D01*
X131163095Y-89579819D02*
X131163095Y-90389342D01*
X131163095Y-90389342D02*
X131210714Y-90484580D01*
X131210714Y-90484580D02*
X131258333Y-90532200D01*
X131258333Y-90532200D02*
X131353571Y-90579819D01*
X131353571Y-90579819D02*
X131544047Y-90579819D01*
X131544047Y-90579819D02*
X131639285Y-90532200D01*
X131639285Y-90532200D02*
X131686904Y-90484580D01*
X131686904Y-90484580D02*
X131734523Y-90389342D01*
X131734523Y-90389342D02*
X131734523Y-89579819D01*
X132686904Y-89579819D02*
X132210714Y-89579819D01*
X132210714Y-89579819D02*
X132163095Y-90056009D01*
X132163095Y-90056009D02*
X132210714Y-90008390D01*
X132210714Y-90008390D02*
X132305952Y-89960771D01*
X132305952Y-89960771D02*
X132544047Y-89960771D01*
X132544047Y-89960771D02*
X132639285Y-90008390D01*
X132639285Y-90008390D02*
X132686904Y-90056009D01*
X132686904Y-90056009D02*
X132734523Y-90151247D01*
X132734523Y-90151247D02*
X132734523Y-90389342D01*
X132734523Y-90389342D02*
X132686904Y-90484580D01*
X132686904Y-90484580D02*
X132639285Y-90532200D01*
X132639285Y-90532200D02*
X132544047Y-90579819D01*
X132544047Y-90579819D02*
X132305952Y-90579819D01*
X132305952Y-90579819D02*
X132210714Y-90532200D01*
X132210714Y-90532200D02*
X132163095Y-90484580D01*
X153540833Y-95532319D02*
X153207500Y-95056128D01*
X152969405Y-95532319D02*
X152969405Y-94532319D01*
X152969405Y-94532319D02*
X153350357Y-94532319D01*
X153350357Y-94532319D02*
X153445595Y-94579938D01*
X153445595Y-94579938D02*
X153493214Y-94627557D01*
X153493214Y-94627557D02*
X153540833Y-94722795D01*
X153540833Y-94722795D02*
X153540833Y-94865652D01*
X153540833Y-94865652D02*
X153493214Y-94960890D01*
X153493214Y-94960890D02*
X153445595Y-95008509D01*
X153445595Y-95008509D02*
X153350357Y-95056128D01*
X153350357Y-95056128D02*
X152969405Y-95056128D01*
X154493214Y-95532319D02*
X153921786Y-95532319D01*
X154207500Y-95532319D02*
X154207500Y-94532319D01*
X154207500Y-94532319D02*
X154112262Y-94675176D01*
X154112262Y-94675176D02*
X154017024Y-94770414D01*
X154017024Y-94770414D02*
X153921786Y-94818033D01*
X136624642Y-88787080D02*
X136577023Y-88834700D01*
X136577023Y-88834700D02*
X136434166Y-88882319D01*
X136434166Y-88882319D02*
X136338928Y-88882319D01*
X136338928Y-88882319D02*
X136196071Y-88834700D01*
X136196071Y-88834700D02*
X136100833Y-88739461D01*
X136100833Y-88739461D02*
X136053214Y-88644223D01*
X136053214Y-88644223D02*
X136005595Y-88453747D01*
X136005595Y-88453747D02*
X136005595Y-88310890D01*
X136005595Y-88310890D02*
X136053214Y-88120414D01*
X136053214Y-88120414D02*
X136100833Y-88025176D01*
X136100833Y-88025176D02*
X136196071Y-87929938D01*
X136196071Y-87929938D02*
X136338928Y-87882319D01*
X136338928Y-87882319D02*
X136434166Y-87882319D01*
X136434166Y-87882319D02*
X136577023Y-87929938D01*
X136577023Y-87929938D02*
X136624642Y-87977557D01*
X137577023Y-88882319D02*
X137005595Y-88882319D01*
X137291309Y-88882319D02*
X137291309Y-87882319D01*
X137291309Y-87882319D02*
X137196071Y-88025176D01*
X137196071Y-88025176D02*
X137100833Y-88120414D01*
X137100833Y-88120414D02*
X137005595Y-88168033D01*
X137957976Y-87977557D02*
X138005595Y-87929938D01*
X138005595Y-87929938D02*
X138100833Y-87882319D01*
X138100833Y-87882319D02*
X138338928Y-87882319D01*
X138338928Y-87882319D02*
X138434166Y-87929938D01*
X138434166Y-87929938D02*
X138481785Y-87977557D01*
X138481785Y-87977557D02*
X138529404Y-88072795D01*
X138529404Y-88072795D02*
X138529404Y-88168033D01*
X138529404Y-88168033D02*
X138481785Y-88310890D01*
X138481785Y-88310890D02*
X137910357Y-88882319D01*
X137910357Y-88882319D02*
X138529404Y-88882319D01*
X123884642Y-92642319D02*
X123551309Y-92166128D01*
X123313214Y-92642319D02*
X123313214Y-91642319D01*
X123313214Y-91642319D02*
X123694166Y-91642319D01*
X123694166Y-91642319D02*
X123789404Y-91689938D01*
X123789404Y-91689938D02*
X123837023Y-91737557D01*
X123837023Y-91737557D02*
X123884642Y-91832795D01*
X123884642Y-91832795D02*
X123884642Y-91975652D01*
X123884642Y-91975652D02*
X123837023Y-92070890D01*
X123837023Y-92070890D02*
X123789404Y-92118509D01*
X123789404Y-92118509D02*
X123694166Y-92166128D01*
X123694166Y-92166128D02*
X123313214Y-92166128D01*
X124837023Y-92642319D02*
X124265595Y-92642319D01*
X124551309Y-92642319D02*
X124551309Y-91642319D01*
X124551309Y-91642319D02*
X124456071Y-91785176D01*
X124456071Y-91785176D02*
X124360833Y-91880414D01*
X124360833Y-91880414D02*
X124265595Y-91928033D01*
X125789404Y-92642319D02*
X125217976Y-92642319D01*
X125503690Y-92642319D02*
X125503690Y-91642319D01*
X125503690Y-91642319D02*
X125408452Y-91785176D01*
X125408452Y-91785176D02*
X125313214Y-91880414D01*
X125313214Y-91880414D02*
X125217976Y-91928033D01*
X202272142Y-113744819D02*
X201938809Y-113268628D01*
X201700714Y-113744819D02*
X201700714Y-112744819D01*
X201700714Y-112744819D02*
X202081666Y-112744819D01*
X202081666Y-112744819D02*
X202176904Y-112792438D01*
X202176904Y-112792438D02*
X202224523Y-112840057D01*
X202224523Y-112840057D02*
X202272142Y-112935295D01*
X202272142Y-112935295D02*
X202272142Y-113078152D01*
X202272142Y-113078152D02*
X202224523Y-113173390D01*
X202224523Y-113173390D02*
X202176904Y-113221009D01*
X202176904Y-113221009D02*
X202081666Y-113268628D01*
X202081666Y-113268628D02*
X201700714Y-113268628D01*
X202653095Y-112840057D02*
X202700714Y-112792438D01*
X202700714Y-112792438D02*
X202795952Y-112744819D01*
X202795952Y-112744819D02*
X203034047Y-112744819D01*
X203034047Y-112744819D02*
X203129285Y-112792438D01*
X203129285Y-112792438D02*
X203176904Y-112840057D01*
X203176904Y-112840057D02*
X203224523Y-112935295D01*
X203224523Y-112935295D02*
X203224523Y-113030533D01*
X203224523Y-113030533D02*
X203176904Y-113173390D01*
X203176904Y-113173390D02*
X202605476Y-113744819D01*
X202605476Y-113744819D02*
X203224523Y-113744819D01*
X204129285Y-112744819D02*
X203653095Y-112744819D01*
X203653095Y-112744819D02*
X203605476Y-113221009D01*
X203605476Y-113221009D02*
X203653095Y-113173390D01*
X203653095Y-113173390D02*
X203748333Y-113125771D01*
X203748333Y-113125771D02*
X203986428Y-113125771D01*
X203986428Y-113125771D02*
X204081666Y-113173390D01*
X204081666Y-113173390D02*
X204129285Y-113221009D01*
X204129285Y-113221009D02*
X204176904Y-113316247D01*
X204176904Y-113316247D02*
X204176904Y-113554342D01*
X204176904Y-113554342D02*
X204129285Y-113649580D01*
X204129285Y-113649580D02*
X204081666Y-113697200D01*
X204081666Y-113697200D02*
X203986428Y-113744819D01*
X203986428Y-113744819D02*
X203748333Y-113744819D01*
X203748333Y-113744819D02*
X203653095Y-113697200D01*
X203653095Y-113697200D02*
X203605476Y-113649580D01*
X206282142Y-118764819D02*
X205948809Y-118288628D01*
X205710714Y-118764819D02*
X205710714Y-117764819D01*
X205710714Y-117764819D02*
X206091666Y-117764819D01*
X206091666Y-117764819D02*
X206186904Y-117812438D01*
X206186904Y-117812438D02*
X206234523Y-117860057D01*
X206234523Y-117860057D02*
X206282142Y-117955295D01*
X206282142Y-117955295D02*
X206282142Y-118098152D01*
X206282142Y-118098152D02*
X206234523Y-118193390D01*
X206234523Y-118193390D02*
X206186904Y-118241009D01*
X206186904Y-118241009D02*
X206091666Y-118288628D01*
X206091666Y-118288628D02*
X205710714Y-118288628D01*
X206615476Y-117764819D02*
X207234523Y-117764819D01*
X207234523Y-117764819D02*
X206901190Y-118145771D01*
X206901190Y-118145771D02*
X207044047Y-118145771D01*
X207044047Y-118145771D02*
X207139285Y-118193390D01*
X207139285Y-118193390D02*
X207186904Y-118241009D01*
X207186904Y-118241009D02*
X207234523Y-118336247D01*
X207234523Y-118336247D02*
X207234523Y-118574342D01*
X207234523Y-118574342D02*
X207186904Y-118669580D01*
X207186904Y-118669580D02*
X207139285Y-118717200D01*
X207139285Y-118717200D02*
X207044047Y-118764819D01*
X207044047Y-118764819D02*
X206758333Y-118764819D01*
X206758333Y-118764819D02*
X206663095Y-118717200D01*
X206663095Y-118717200D02*
X206615476Y-118669580D01*
X208139285Y-117764819D02*
X207663095Y-117764819D01*
X207663095Y-117764819D02*
X207615476Y-118241009D01*
X207615476Y-118241009D02*
X207663095Y-118193390D01*
X207663095Y-118193390D02*
X207758333Y-118145771D01*
X207758333Y-118145771D02*
X207996428Y-118145771D01*
X207996428Y-118145771D02*
X208091666Y-118193390D01*
X208091666Y-118193390D02*
X208139285Y-118241009D01*
X208139285Y-118241009D02*
X208186904Y-118336247D01*
X208186904Y-118336247D02*
X208186904Y-118574342D01*
X208186904Y-118574342D02*
X208139285Y-118669580D01*
X208139285Y-118669580D02*
X208091666Y-118717200D01*
X208091666Y-118717200D02*
X207996428Y-118764819D01*
X207996428Y-118764819D02*
X207758333Y-118764819D01*
X207758333Y-118764819D02*
X207663095Y-118717200D01*
X207663095Y-118717200D02*
X207615476Y-118669580D01*
X178527142Y-88099580D02*
X178479523Y-88147200D01*
X178479523Y-88147200D02*
X178336666Y-88194819D01*
X178336666Y-88194819D02*
X178241428Y-88194819D01*
X178241428Y-88194819D02*
X178098571Y-88147200D01*
X178098571Y-88147200D02*
X178003333Y-88051961D01*
X178003333Y-88051961D02*
X177955714Y-87956723D01*
X177955714Y-87956723D02*
X177908095Y-87766247D01*
X177908095Y-87766247D02*
X177908095Y-87623390D01*
X177908095Y-87623390D02*
X177955714Y-87432914D01*
X177955714Y-87432914D02*
X178003333Y-87337676D01*
X178003333Y-87337676D02*
X178098571Y-87242438D01*
X178098571Y-87242438D02*
X178241428Y-87194819D01*
X178241428Y-87194819D02*
X178336666Y-87194819D01*
X178336666Y-87194819D02*
X178479523Y-87242438D01*
X178479523Y-87242438D02*
X178527142Y-87290057D01*
X178860476Y-87194819D02*
X179479523Y-87194819D01*
X179479523Y-87194819D02*
X179146190Y-87575771D01*
X179146190Y-87575771D02*
X179289047Y-87575771D01*
X179289047Y-87575771D02*
X179384285Y-87623390D01*
X179384285Y-87623390D02*
X179431904Y-87671009D01*
X179431904Y-87671009D02*
X179479523Y-87766247D01*
X179479523Y-87766247D02*
X179479523Y-88004342D01*
X179479523Y-88004342D02*
X179431904Y-88099580D01*
X179431904Y-88099580D02*
X179384285Y-88147200D01*
X179384285Y-88147200D02*
X179289047Y-88194819D01*
X179289047Y-88194819D02*
X179003333Y-88194819D01*
X179003333Y-88194819D02*
X178908095Y-88147200D01*
X178908095Y-88147200D02*
X178860476Y-88099580D01*
X180098571Y-87194819D02*
X180193809Y-87194819D01*
X180193809Y-87194819D02*
X180289047Y-87242438D01*
X180289047Y-87242438D02*
X180336666Y-87290057D01*
X180336666Y-87290057D02*
X180384285Y-87385295D01*
X180384285Y-87385295D02*
X180431904Y-87575771D01*
X180431904Y-87575771D02*
X180431904Y-87813866D01*
X180431904Y-87813866D02*
X180384285Y-88004342D01*
X180384285Y-88004342D02*
X180336666Y-88099580D01*
X180336666Y-88099580D02*
X180289047Y-88147200D01*
X180289047Y-88147200D02*
X180193809Y-88194819D01*
X180193809Y-88194819D02*
X180098571Y-88194819D01*
X180098571Y-88194819D02*
X180003333Y-88147200D01*
X180003333Y-88147200D02*
X179955714Y-88099580D01*
X179955714Y-88099580D02*
X179908095Y-88004342D01*
X179908095Y-88004342D02*
X179860476Y-87813866D01*
X179860476Y-87813866D02*
X179860476Y-87575771D01*
X179860476Y-87575771D02*
X179908095Y-87385295D01*
X179908095Y-87385295D02*
X179955714Y-87290057D01*
X179955714Y-87290057D02*
X180003333Y-87242438D01*
X180003333Y-87242438D02*
X180098571Y-87194819D01*
X150632142Y-110189580D02*
X150584523Y-110237200D01*
X150584523Y-110237200D02*
X150441666Y-110284819D01*
X150441666Y-110284819D02*
X150346428Y-110284819D01*
X150346428Y-110284819D02*
X150203571Y-110237200D01*
X150203571Y-110237200D02*
X150108333Y-110141961D01*
X150108333Y-110141961D02*
X150060714Y-110046723D01*
X150060714Y-110046723D02*
X150013095Y-109856247D01*
X150013095Y-109856247D02*
X150013095Y-109713390D01*
X150013095Y-109713390D02*
X150060714Y-109522914D01*
X150060714Y-109522914D02*
X150108333Y-109427676D01*
X150108333Y-109427676D02*
X150203571Y-109332438D01*
X150203571Y-109332438D02*
X150346428Y-109284819D01*
X150346428Y-109284819D02*
X150441666Y-109284819D01*
X150441666Y-109284819D02*
X150584523Y-109332438D01*
X150584523Y-109332438D02*
X150632142Y-109380057D01*
X151013095Y-109380057D02*
X151060714Y-109332438D01*
X151060714Y-109332438D02*
X151155952Y-109284819D01*
X151155952Y-109284819D02*
X151394047Y-109284819D01*
X151394047Y-109284819D02*
X151489285Y-109332438D01*
X151489285Y-109332438D02*
X151536904Y-109380057D01*
X151536904Y-109380057D02*
X151584523Y-109475295D01*
X151584523Y-109475295D02*
X151584523Y-109570533D01*
X151584523Y-109570533D02*
X151536904Y-109713390D01*
X151536904Y-109713390D02*
X150965476Y-110284819D01*
X150965476Y-110284819D02*
X151584523Y-110284819D01*
X152489285Y-109284819D02*
X152013095Y-109284819D01*
X152013095Y-109284819D02*
X151965476Y-109761009D01*
X151965476Y-109761009D02*
X152013095Y-109713390D01*
X152013095Y-109713390D02*
X152108333Y-109665771D01*
X152108333Y-109665771D02*
X152346428Y-109665771D01*
X152346428Y-109665771D02*
X152441666Y-109713390D01*
X152441666Y-109713390D02*
X152489285Y-109761009D01*
X152489285Y-109761009D02*
X152536904Y-109856247D01*
X152536904Y-109856247D02*
X152536904Y-110094342D01*
X152536904Y-110094342D02*
X152489285Y-110189580D01*
X152489285Y-110189580D02*
X152441666Y-110237200D01*
X152441666Y-110237200D02*
X152346428Y-110284819D01*
X152346428Y-110284819D02*
X152108333Y-110284819D01*
X152108333Y-110284819D02*
X152013095Y-110237200D01*
X152013095Y-110237200D02*
X151965476Y-110189580D01*
X121537142Y-125664819D02*
X121203809Y-125188628D01*
X120965714Y-125664819D02*
X120965714Y-124664819D01*
X120965714Y-124664819D02*
X121346666Y-124664819D01*
X121346666Y-124664819D02*
X121441904Y-124712438D01*
X121441904Y-124712438D02*
X121489523Y-124760057D01*
X121489523Y-124760057D02*
X121537142Y-124855295D01*
X121537142Y-124855295D02*
X121537142Y-124998152D01*
X121537142Y-124998152D02*
X121489523Y-125093390D01*
X121489523Y-125093390D02*
X121441904Y-125141009D01*
X121441904Y-125141009D02*
X121346666Y-125188628D01*
X121346666Y-125188628D02*
X120965714Y-125188628D01*
X122489523Y-125664819D02*
X121918095Y-125664819D01*
X122203809Y-125664819D02*
X122203809Y-124664819D01*
X122203809Y-124664819D02*
X122108571Y-124807676D01*
X122108571Y-124807676D02*
X122013333Y-124902914D01*
X122013333Y-124902914D02*
X121918095Y-124950533D01*
X123394285Y-124664819D02*
X122918095Y-124664819D01*
X122918095Y-124664819D02*
X122870476Y-125141009D01*
X122870476Y-125141009D02*
X122918095Y-125093390D01*
X122918095Y-125093390D02*
X123013333Y-125045771D01*
X123013333Y-125045771D02*
X123251428Y-125045771D01*
X123251428Y-125045771D02*
X123346666Y-125093390D01*
X123346666Y-125093390D02*
X123394285Y-125141009D01*
X123394285Y-125141009D02*
X123441904Y-125236247D01*
X123441904Y-125236247D02*
X123441904Y-125474342D01*
X123441904Y-125474342D02*
X123394285Y-125569580D01*
X123394285Y-125569580D02*
X123346666Y-125617200D01*
X123346666Y-125617200D02*
X123251428Y-125664819D01*
X123251428Y-125664819D02*
X123013333Y-125664819D01*
X123013333Y-125664819D02*
X122918095Y-125617200D01*
X122918095Y-125617200D02*
X122870476Y-125569580D01*
X198262142Y-113649580D02*
X198214523Y-113697200D01*
X198214523Y-113697200D02*
X198071666Y-113744819D01*
X198071666Y-113744819D02*
X197976428Y-113744819D01*
X197976428Y-113744819D02*
X197833571Y-113697200D01*
X197833571Y-113697200D02*
X197738333Y-113601961D01*
X197738333Y-113601961D02*
X197690714Y-113506723D01*
X197690714Y-113506723D02*
X197643095Y-113316247D01*
X197643095Y-113316247D02*
X197643095Y-113173390D01*
X197643095Y-113173390D02*
X197690714Y-112982914D01*
X197690714Y-112982914D02*
X197738333Y-112887676D01*
X197738333Y-112887676D02*
X197833571Y-112792438D01*
X197833571Y-112792438D02*
X197976428Y-112744819D01*
X197976428Y-112744819D02*
X198071666Y-112744819D01*
X198071666Y-112744819D02*
X198214523Y-112792438D01*
X198214523Y-112792438D02*
X198262142Y-112840057D01*
X198643095Y-112840057D02*
X198690714Y-112792438D01*
X198690714Y-112792438D02*
X198785952Y-112744819D01*
X198785952Y-112744819D02*
X199024047Y-112744819D01*
X199024047Y-112744819D02*
X199119285Y-112792438D01*
X199119285Y-112792438D02*
X199166904Y-112840057D01*
X199166904Y-112840057D02*
X199214523Y-112935295D01*
X199214523Y-112935295D02*
X199214523Y-113030533D01*
X199214523Y-113030533D02*
X199166904Y-113173390D01*
X199166904Y-113173390D02*
X198595476Y-113744819D01*
X198595476Y-113744819D02*
X199214523Y-113744819D01*
X199690714Y-113744819D02*
X199881190Y-113744819D01*
X199881190Y-113744819D02*
X199976428Y-113697200D01*
X199976428Y-113697200D02*
X200024047Y-113649580D01*
X200024047Y-113649580D02*
X200119285Y-113506723D01*
X200119285Y-113506723D02*
X200166904Y-113316247D01*
X200166904Y-113316247D02*
X200166904Y-112935295D01*
X200166904Y-112935295D02*
X200119285Y-112840057D01*
X200119285Y-112840057D02*
X200071666Y-112792438D01*
X200071666Y-112792438D02*
X199976428Y-112744819D01*
X199976428Y-112744819D02*
X199785952Y-112744819D01*
X199785952Y-112744819D02*
X199690714Y-112792438D01*
X199690714Y-112792438D02*
X199643095Y-112840057D01*
X199643095Y-112840057D02*
X199595476Y-112935295D01*
X199595476Y-112935295D02*
X199595476Y-113173390D01*
X199595476Y-113173390D02*
X199643095Y-113268628D01*
X199643095Y-113268628D02*
X199690714Y-113316247D01*
X199690714Y-113316247D02*
X199785952Y-113363866D01*
X199785952Y-113363866D02*
X199976428Y-113363866D01*
X199976428Y-113363866D02*
X200071666Y-113316247D01*
X200071666Y-113316247D02*
X200119285Y-113268628D01*
X200119285Y-113268628D02*
X200166904Y-113173390D01*
X139494642Y-88517080D02*
X139447023Y-88564700D01*
X139447023Y-88564700D02*
X139304166Y-88612319D01*
X139304166Y-88612319D02*
X139208928Y-88612319D01*
X139208928Y-88612319D02*
X139066071Y-88564700D01*
X139066071Y-88564700D02*
X138970833Y-88469461D01*
X138970833Y-88469461D02*
X138923214Y-88374223D01*
X138923214Y-88374223D02*
X138875595Y-88183747D01*
X138875595Y-88183747D02*
X138875595Y-88040890D01*
X138875595Y-88040890D02*
X138923214Y-87850414D01*
X138923214Y-87850414D02*
X138970833Y-87755176D01*
X138970833Y-87755176D02*
X139066071Y-87659938D01*
X139066071Y-87659938D02*
X139208928Y-87612319D01*
X139208928Y-87612319D02*
X139304166Y-87612319D01*
X139304166Y-87612319D02*
X139447023Y-87659938D01*
X139447023Y-87659938D02*
X139494642Y-87707557D01*
X140447023Y-88612319D02*
X139875595Y-88612319D01*
X140161309Y-88612319D02*
X140161309Y-87612319D01*
X140161309Y-87612319D02*
X140066071Y-87755176D01*
X140066071Y-87755176D02*
X139970833Y-87850414D01*
X139970833Y-87850414D02*
X139875595Y-87898033D01*
X140780357Y-87612319D02*
X141447023Y-87612319D01*
X141447023Y-87612319D02*
X141018452Y-88612319D01*
X126534761Y-123425057D02*
X126439523Y-123377438D01*
X126439523Y-123377438D02*
X126344285Y-123282200D01*
X126344285Y-123282200D02*
X126201428Y-123139342D01*
X126201428Y-123139342D02*
X126106190Y-123091723D01*
X126106190Y-123091723D02*
X126010952Y-123091723D01*
X126058571Y-123329819D02*
X125963333Y-123282200D01*
X125963333Y-123282200D02*
X125868095Y-123186961D01*
X125868095Y-123186961D02*
X125820476Y-122996485D01*
X125820476Y-122996485D02*
X125820476Y-122663152D01*
X125820476Y-122663152D02*
X125868095Y-122472676D01*
X125868095Y-122472676D02*
X125963333Y-122377438D01*
X125963333Y-122377438D02*
X126058571Y-122329819D01*
X126058571Y-122329819D02*
X126249047Y-122329819D01*
X126249047Y-122329819D02*
X126344285Y-122377438D01*
X126344285Y-122377438D02*
X126439523Y-122472676D01*
X126439523Y-122472676D02*
X126487142Y-122663152D01*
X126487142Y-122663152D02*
X126487142Y-122996485D01*
X126487142Y-122996485D02*
X126439523Y-123186961D01*
X126439523Y-123186961D02*
X126344285Y-123282200D01*
X126344285Y-123282200D02*
X126249047Y-123329819D01*
X126249047Y-123329819D02*
X126058571Y-123329819D01*
X127439523Y-123329819D02*
X126868095Y-123329819D01*
X127153809Y-123329819D02*
X127153809Y-122329819D01*
X127153809Y-122329819D02*
X127058571Y-122472676D01*
X127058571Y-122472676D02*
X126963333Y-122567914D01*
X126963333Y-122567914D02*
X126868095Y-122615533D01*
X180238095Y-138254819D02*
X180238095Y-137254819D01*
X180238095Y-137731009D02*
X180809523Y-137731009D01*
X180809523Y-138254819D02*
X180809523Y-137254819D01*
X181714285Y-137588152D02*
X181714285Y-138254819D01*
X181476190Y-137207200D02*
X181238095Y-137921485D01*
X181238095Y-137921485D02*
X181857142Y-137921485D01*
X198262142Y-121179580D02*
X198214523Y-121227200D01*
X198214523Y-121227200D02*
X198071666Y-121274819D01*
X198071666Y-121274819D02*
X197976428Y-121274819D01*
X197976428Y-121274819D02*
X197833571Y-121227200D01*
X197833571Y-121227200D02*
X197738333Y-121131961D01*
X197738333Y-121131961D02*
X197690714Y-121036723D01*
X197690714Y-121036723D02*
X197643095Y-120846247D01*
X197643095Y-120846247D02*
X197643095Y-120703390D01*
X197643095Y-120703390D02*
X197690714Y-120512914D01*
X197690714Y-120512914D02*
X197738333Y-120417676D01*
X197738333Y-120417676D02*
X197833571Y-120322438D01*
X197833571Y-120322438D02*
X197976428Y-120274819D01*
X197976428Y-120274819D02*
X198071666Y-120274819D01*
X198071666Y-120274819D02*
X198214523Y-120322438D01*
X198214523Y-120322438D02*
X198262142Y-120370057D01*
X198595476Y-120274819D02*
X199214523Y-120274819D01*
X199214523Y-120274819D02*
X198881190Y-120655771D01*
X198881190Y-120655771D02*
X199024047Y-120655771D01*
X199024047Y-120655771D02*
X199119285Y-120703390D01*
X199119285Y-120703390D02*
X199166904Y-120751009D01*
X199166904Y-120751009D02*
X199214523Y-120846247D01*
X199214523Y-120846247D02*
X199214523Y-121084342D01*
X199214523Y-121084342D02*
X199166904Y-121179580D01*
X199166904Y-121179580D02*
X199119285Y-121227200D01*
X199119285Y-121227200D02*
X199024047Y-121274819D01*
X199024047Y-121274819D02*
X198738333Y-121274819D01*
X198738333Y-121274819D02*
X198643095Y-121227200D01*
X198643095Y-121227200D02*
X198595476Y-121179580D01*
X199547857Y-120274819D02*
X200166904Y-120274819D01*
X200166904Y-120274819D02*
X199833571Y-120655771D01*
X199833571Y-120655771D02*
X199976428Y-120655771D01*
X199976428Y-120655771D02*
X200071666Y-120703390D01*
X200071666Y-120703390D02*
X200119285Y-120751009D01*
X200119285Y-120751009D02*
X200166904Y-120846247D01*
X200166904Y-120846247D02*
X200166904Y-121084342D01*
X200166904Y-121084342D02*
X200119285Y-121179580D01*
X200119285Y-121179580D02*
X200071666Y-121227200D01*
X200071666Y-121227200D02*
X199976428Y-121274819D01*
X199976428Y-121274819D02*
X199690714Y-121274819D01*
X199690714Y-121274819D02*
X199595476Y-121227200D01*
X199595476Y-121227200D02*
X199547857Y-121179580D01*
X178527142Y-98234819D02*
X178193809Y-97758628D01*
X177955714Y-98234819D02*
X177955714Y-97234819D01*
X177955714Y-97234819D02*
X178336666Y-97234819D01*
X178336666Y-97234819D02*
X178431904Y-97282438D01*
X178431904Y-97282438D02*
X178479523Y-97330057D01*
X178479523Y-97330057D02*
X178527142Y-97425295D01*
X178527142Y-97425295D02*
X178527142Y-97568152D01*
X178527142Y-97568152D02*
X178479523Y-97663390D01*
X178479523Y-97663390D02*
X178431904Y-97711009D01*
X178431904Y-97711009D02*
X178336666Y-97758628D01*
X178336666Y-97758628D02*
X177955714Y-97758628D01*
X178908095Y-97330057D02*
X178955714Y-97282438D01*
X178955714Y-97282438D02*
X179050952Y-97234819D01*
X179050952Y-97234819D02*
X179289047Y-97234819D01*
X179289047Y-97234819D02*
X179384285Y-97282438D01*
X179384285Y-97282438D02*
X179431904Y-97330057D01*
X179431904Y-97330057D02*
X179479523Y-97425295D01*
X179479523Y-97425295D02*
X179479523Y-97520533D01*
X179479523Y-97520533D02*
X179431904Y-97663390D01*
X179431904Y-97663390D02*
X178860476Y-98234819D01*
X178860476Y-98234819D02*
X179479523Y-98234819D01*
X180431904Y-98234819D02*
X179860476Y-98234819D01*
X180146190Y-98234819D02*
X180146190Y-97234819D01*
X180146190Y-97234819D02*
X180050952Y-97377676D01*
X180050952Y-97377676D02*
X179955714Y-97472914D01*
X179955714Y-97472914D02*
X179860476Y-97520533D01*
X146834642Y-98227080D02*
X146787023Y-98274700D01*
X146787023Y-98274700D02*
X146644166Y-98322319D01*
X146644166Y-98322319D02*
X146548928Y-98322319D01*
X146548928Y-98322319D02*
X146406071Y-98274700D01*
X146406071Y-98274700D02*
X146310833Y-98179461D01*
X146310833Y-98179461D02*
X146263214Y-98084223D01*
X146263214Y-98084223D02*
X146215595Y-97893747D01*
X146215595Y-97893747D02*
X146215595Y-97750890D01*
X146215595Y-97750890D02*
X146263214Y-97560414D01*
X146263214Y-97560414D02*
X146310833Y-97465176D01*
X146310833Y-97465176D02*
X146406071Y-97369938D01*
X146406071Y-97369938D02*
X146548928Y-97322319D01*
X146548928Y-97322319D02*
X146644166Y-97322319D01*
X146644166Y-97322319D02*
X146787023Y-97369938D01*
X146787023Y-97369938D02*
X146834642Y-97417557D01*
X147787023Y-98322319D02*
X147215595Y-98322319D01*
X147501309Y-98322319D02*
X147501309Y-97322319D01*
X147501309Y-97322319D02*
X147406071Y-97465176D01*
X147406071Y-97465176D02*
X147310833Y-97560414D01*
X147310833Y-97560414D02*
X147215595Y-97608033D01*
X148739404Y-98322319D02*
X148167976Y-98322319D01*
X148453690Y-98322319D02*
X148453690Y-97322319D01*
X148453690Y-97322319D02*
X148358452Y-97465176D01*
X148358452Y-97465176D02*
X148263214Y-97560414D01*
X148263214Y-97560414D02*
X148167976Y-97608033D01*
X124360833Y-88662319D02*
X124027500Y-88186128D01*
X123789405Y-88662319D02*
X123789405Y-87662319D01*
X123789405Y-87662319D02*
X124170357Y-87662319D01*
X124170357Y-87662319D02*
X124265595Y-87709938D01*
X124265595Y-87709938D02*
X124313214Y-87757557D01*
X124313214Y-87757557D02*
X124360833Y-87852795D01*
X124360833Y-87852795D02*
X124360833Y-87995652D01*
X124360833Y-87995652D02*
X124313214Y-88090890D01*
X124313214Y-88090890D02*
X124265595Y-88138509D01*
X124265595Y-88138509D02*
X124170357Y-88186128D01*
X124170357Y-88186128D02*
X123789405Y-88186128D01*
X124837024Y-88662319D02*
X125027500Y-88662319D01*
X125027500Y-88662319D02*
X125122738Y-88614700D01*
X125122738Y-88614700D02*
X125170357Y-88567080D01*
X125170357Y-88567080D02*
X125265595Y-88424223D01*
X125265595Y-88424223D02*
X125313214Y-88233747D01*
X125313214Y-88233747D02*
X125313214Y-87852795D01*
X125313214Y-87852795D02*
X125265595Y-87757557D01*
X125265595Y-87757557D02*
X125217976Y-87709938D01*
X125217976Y-87709938D02*
X125122738Y-87662319D01*
X125122738Y-87662319D02*
X124932262Y-87662319D01*
X124932262Y-87662319D02*
X124837024Y-87709938D01*
X124837024Y-87709938D02*
X124789405Y-87757557D01*
X124789405Y-87757557D02*
X124741786Y-87852795D01*
X124741786Y-87852795D02*
X124741786Y-88090890D01*
X124741786Y-88090890D02*
X124789405Y-88186128D01*
X124789405Y-88186128D02*
X124837024Y-88233747D01*
X124837024Y-88233747D02*
X124932262Y-88281366D01*
X124932262Y-88281366D02*
X125122738Y-88281366D01*
X125122738Y-88281366D02*
X125217976Y-88233747D01*
X125217976Y-88233747D02*
X125265595Y-88186128D01*
X125265595Y-88186128D02*
X125313214Y-88090890D01*
X206282142Y-113744819D02*
X205948809Y-113268628D01*
X205710714Y-113744819D02*
X205710714Y-112744819D01*
X205710714Y-112744819D02*
X206091666Y-112744819D01*
X206091666Y-112744819D02*
X206186904Y-112792438D01*
X206186904Y-112792438D02*
X206234523Y-112840057D01*
X206234523Y-112840057D02*
X206282142Y-112935295D01*
X206282142Y-112935295D02*
X206282142Y-113078152D01*
X206282142Y-113078152D02*
X206234523Y-113173390D01*
X206234523Y-113173390D02*
X206186904Y-113221009D01*
X206186904Y-113221009D02*
X206091666Y-113268628D01*
X206091666Y-113268628D02*
X205710714Y-113268628D01*
X206615476Y-112744819D02*
X207234523Y-112744819D01*
X207234523Y-112744819D02*
X206901190Y-113125771D01*
X206901190Y-113125771D02*
X207044047Y-113125771D01*
X207044047Y-113125771D02*
X207139285Y-113173390D01*
X207139285Y-113173390D02*
X207186904Y-113221009D01*
X207186904Y-113221009D02*
X207234523Y-113316247D01*
X207234523Y-113316247D02*
X207234523Y-113554342D01*
X207234523Y-113554342D02*
X207186904Y-113649580D01*
X207186904Y-113649580D02*
X207139285Y-113697200D01*
X207139285Y-113697200D02*
X207044047Y-113744819D01*
X207044047Y-113744819D02*
X206758333Y-113744819D01*
X206758333Y-113744819D02*
X206663095Y-113697200D01*
X206663095Y-113697200D02*
X206615476Y-113649580D01*
X207567857Y-112744819D02*
X208186904Y-112744819D01*
X208186904Y-112744819D02*
X207853571Y-113125771D01*
X207853571Y-113125771D02*
X207996428Y-113125771D01*
X207996428Y-113125771D02*
X208091666Y-113173390D01*
X208091666Y-113173390D02*
X208139285Y-113221009D01*
X208139285Y-113221009D02*
X208186904Y-113316247D01*
X208186904Y-113316247D02*
X208186904Y-113554342D01*
X208186904Y-113554342D02*
X208139285Y-113649580D01*
X208139285Y-113649580D02*
X208091666Y-113697200D01*
X208091666Y-113697200D02*
X207996428Y-113744819D01*
X207996428Y-113744819D02*
X207710714Y-113744819D01*
X207710714Y-113744819D02*
X207615476Y-113697200D01*
X207615476Y-113697200D02*
X207567857Y-113649580D01*
X178527142Y-85589580D02*
X178479523Y-85637200D01*
X178479523Y-85637200D02*
X178336666Y-85684819D01*
X178336666Y-85684819D02*
X178241428Y-85684819D01*
X178241428Y-85684819D02*
X178098571Y-85637200D01*
X178098571Y-85637200D02*
X178003333Y-85541961D01*
X178003333Y-85541961D02*
X177955714Y-85446723D01*
X177955714Y-85446723D02*
X177908095Y-85256247D01*
X177908095Y-85256247D02*
X177908095Y-85113390D01*
X177908095Y-85113390D02*
X177955714Y-84922914D01*
X177955714Y-84922914D02*
X178003333Y-84827676D01*
X178003333Y-84827676D02*
X178098571Y-84732438D01*
X178098571Y-84732438D02*
X178241428Y-84684819D01*
X178241428Y-84684819D02*
X178336666Y-84684819D01*
X178336666Y-84684819D02*
X178479523Y-84732438D01*
X178479523Y-84732438D02*
X178527142Y-84780057D01*
X178908095Y-84780057D02*
X178955714Y-84732438D01*
X178955714Y-84732438D02*
X179050952Y-84684819D01*
X179050952Y-84684819D02*
X179289047Y-84684819D01*
X179289047Y-84684819D02*
X179384285Y-84732438D01*
X179384285Y-84732438D02*
X179431904Y-84780057D01*
X179431904Y-84780057D02*
X179479523Y-84875295D01*
X179479523Y-84875295D02*
X179479523Y-84970533D01*
X179479523Y-84970533D02*
X179431904Y-85113390D01*
X179431904Y-85113390D02*
X178860476Y-85684819D01*
X178860476Y-85684819D02*
X179479523Y-85684819D01*
X179812857Y-84684819D02*
X180479523Y-84684819D01*
X180479523Y-84684819D02*
X180050952Y-85684819D01*
X136088095Y-104454819D02*
X136088095Y-105264342D01*
X136088095Y-105264342D02*
X136135714Y-105359580D01*
X136135714Y-105359580D02*
X136183333Y-105407200D01*
X136183333Y-105407200D02*
X136278571Y-105454819D01*
X136278571Y-105454819D02*
X136469047Y-105454819D01*
X136469047Y-105454819D02*
X136564285Y-105407200D01*
X136564285Y-105407200D02*
X136611904Y-105359580D01*
X136611904Y-105359580D02*
X136659523Y-105264342D01*
X136659523Y-105264342D02*
X136659523Y-104454819D01*
X137564285Y-104454819D02*
X137373809Y-104454819D01*
X137373809Y-104454819D02*
X137278571Y-104502438D01*
X137278571Y-104502438D02*
X137230952Y-104550057D01*
X137230952Y-104550057D02*
X137135714Y-104692914D01*
X137135714Y-104692914D02*
X137088095Y-104883390D01*
X137088095Y-104883390D02*
X137088095Y-105264342D01*
X137088095Y-105264342D02*
X137135714Y-105359580D01*
X137135714Y-105359580D02*
X137183333Y-105407200D01*
X137183333Y-105407200D02*
X137278571Y-105454819D01*
X137278571Y-105454819D02*
X137469047Y-105454819D01*
X137469047Y-105454819D02*
X137564285Y-105407200D01*
X137564285Y-105407200D02*
X137611904Y-105359580D01*
X137611904Y-105359580D02*
X137659523Y-105264342D01*
X137659523Y-105264342D02*
X137659523Y-105026247D01*
X137659523Y-105026247D02*
X137611904Y-104931009D01*
X137611904Y-104931009D02*
X137564285Y-104883390D01*
X137564285Y-104883390D02*
X137469047Y-104835771D01*
X137469047Y-104835771D02*
X137278571Y-104835771D01*
X137278571Y-104835771D02*
X137183333Y-104883390D01*
X137183333Y-104883390D02*
X137135714Y-104931009D01*
X137135714Y-104931009D02*
X137088095Y-105026247D01*
X217251905Y-124064819D02*
X217251905Y-123064819D01*
X217251905Y-123064819D02*
X217490000Y-123064819D01*
X217490000Y-123064819D02*
X217632857Y-123112438D01*
X217632857Y-123112438D02*
X217728095Y-123207676D01*
X217728095Y-123207676D02*
X217775714Y-123302914D01*
X217775714Y-123302914D02*
X217823333Y-123493390D01*
X217823333Y-123493390D02*
X217823333Y-123636247D01*
X217823333Y-123636247D02*
X217775714Y-123826723D01*
X217775714Y-123826723D02*
X217728095Y-123921961D01*
X217728095Y-123921961D02*
X217632857Y-124017200D01*
X217632857Y-124017200D02*
X217490000Y-124064819D01*
X217490000Y-124064819D02*
X217251905Y-124064819D01*
X218728095Y-123064819D02*
X218251905Y-123064819D01*
X218251905Y-123064819D02*
X218204286Y-123541009D01*
X218204286Y-123541009D02*
X218251905Y-123493390D01*
X218251905Y-123493390D02*
X218347143Y-123445771D01*
X218347143Y-123445771D02*
X218585238Y-123445771D01*
X218585238Y-123445771D02*
X218680476Y-123493390D01*
X218680476Y-123493390D02*
X218728095Y-123541009D01*
X218728095Y-123541009D02*
X218775714Y-123636247D01*
X218775714Y-123636247D02*
X218775714Y-123874342D01*
X218775714Y-123874342D02*
X218728095Y-123969580D01*
X218728095Y-123969580D02*
X218680476Y-124017200D01*
X218680476Y-124017200D02*
X218585238Y-124064819D01*
X218585238Y-124064819D02*
X218347143Y-124064819D01*
X218347143Y-124064819D02*
X218251905Y-124017200D01*
X218251905Y-124017200D02*
X218204286Y-123969580D01*
X202272142Y-123784819D02*
X201938809Y-123308628D01*
X201700714Y-123784819D02*
X201700714Y-122784819D01*
X201700714Y-122784819D02*
X202081666Y-122784819D01*
X202081666Y-122784819D02*
X202176904Y-122832438D01*
X202176904Y-122832438D02*
X202224523Y-122880057D01*
X202224523Y-122880057D02*
X202272142Y-122975295D01*
X202272142Y-122975295D02*
X202272142Y-123118152D01*
X202272142Y-123118152D02*
X202224523Y-123213390D01*
X202224523Y-123213390D02*
X202176904Y-123261009D01*
X202176904Y-123261009D02*
X202081666Y-123308628D01*
X202081666Y-123308628D02*
X201700714Y-123308628D01*
X202605476Y-122784819D02*
X203224523Y-122784819D01*
X203224523Y-122784819D02*
X202891190Y-123165771D01*
X202891190Y-123165771D02*
X203034047Y-123165771D01*
X203034047Y-123165771D02*
X203129285Y-123213390D01*
X203129285Y-123213390D02*
X203176904Y-123261009D01*
X203176904Y-123261009D02*
X203224523Y-123356247D01*
X203224523Y-123356247D02*
X203224523Y-123594342D01*
X203224523Y-123594342D02*
X203176904Y-123689580D01*
X203176904Y-123689580D02*
X203129285Y-123737200D01*
X203129285Y-123737200D02*
X203034047Y-123784819D01*
X203034047Y-123784819D02*
X202748333Y-123784819D01*
X202748333Y-123784819D02*
X202653095Y-123737200D01*
X202653095Y-123737200D02*
X202605476Y-123689580D01*
X203843571Y-122784819D02*
X203938809Y-122784819D01*
X203938809Y-122784819D02*
X204034047Y-122832438D01*
X204034047Y-122832438D02*
X204081666Y-122880057D01*
X204081666Y-122880057D02*
X204129285Y-122975295D01*
X204129285Y-122975295D02*
X204176904Y-123165771D01*
X204176904Y-123165771D02*
X204176904Y-123403866D01*
X204176904Y-123403866D02*
X204129285Y-123594342D01*
X204129285Y-123594342D02*
X204081666Y-123689580D01*
X204081666Y-123689580D02*
X204034047Y-123737200D01*
X204034047Y-123737200D02*
X203938809Y-123784819D01*
X203938809Y-123784819D02*
X203843571Y-123784819D01*
X203843571Y-123784819D02*
X203748333Y-123737200D01*
X203748333Y-123737200D02*
X203700714Y-123689580D01*
X203700714Y-123689580D02*
X203653095Y-123594342D01*
X203653095Y-123594342D02*
X203605476Y-123403866D01*
X203605476Y-123403866D02*
X203605476Y-123165771D01*
X203605476Y-123165771D02*
X203653095Y-122975295D01*
X203653095Y-122975295D02*
X203700714Y-122880057D01*
X203700714Y-122880057D02*
X203748333Y-122832438D01*
X203748333Y-122832438D02*
X203843571Y-122784819D01*
X183524761Y-93155057D02*
X183429523Y-93107438D01*
X183429523Y-93107438D02*
X183334285Y-93012200D01*
X183334285Y-93012200D02*
X183191428Y-92869342D01*
X183191428Y-92869342D02*
X183096190Y-92821723D01*
X183096190Y-92821723D02*
X183000952Y-92821723D01*
X183048571Y-93059819D02*
X182953333Y-93012200D01*
X182953333Y-93012200D02*
X182858095Y-92916961D01*
X182858095Y-92916961D02*
X182810476Y-92726485D01*
X182810476Y-92726485D02*
X182810476Y-92393152D01*
X182810476Y-92393152D02*
X182858095Y-92202676D01*
X182858095Y-92202676D02*
X182953333Y-92107438D01*
X182953333Y-92107438D02*
X183048571Y-92059819D01*
X183048571Y-92059819D02*
X183239047Y-92059819D01*
X183239047Y-92059819D02*
X183334285Y-92107438D01*
X183334285Y-92107438D02*
X183429523Y-92202676D01*
X183429523Y-92202676D02*
X183477142Y-92393152D01*
X183477142Y-92393152D02*
X183477142Y-92726485D01*
X183477142Y-92726485D02*
X183429523Y-92916961D01*
X183429523Y-92916961D02*
X183334285Y-93012200D01*
X183334285Y-93012200D02*
X183239047Y-93059819D01*
X183239047Y-93059819D02*
X183048571Y-93059819D01*
X183858095Y-92155057D02*
X183905714Y-92107438D01*
X183905714Y-92107438D02*
X184000952Y-92059819D01*
X184000952Y-92059819D02*
X184239047Y-92059819D01*
X184239047Y-92059819D02*
X184334285Y-92107438D01*
X184334285Y-92107438D02*
X184381904Y-92155057D01*
X184381904Y-92155057D02*
X184429523Y-92250295D01*
X184429523Y-92250295D02*
X184429523Y-92345533D01*
X184429523Y-92345533D02*
X184381904Y-92488390D01*
X184381904Y-92488390D02*
X183810476Y-93059819D01*
X183810476Y-93059819D02*
X184429523Y-93059819D01*
X121537142Y-130079580D02*
X121489523Y-130127200D01*
X121489523Y-130127200D02*
X121346666Y-130174819D01*
X121346666Y-130174819D02*
X121251428Y-130174819D01*
X121251428Y-130174819D02*
X121108571Y-130127200D01*
X121108571Y-130127200D02*
X121013333Y-130031961D01*
X121013333Y-130031961D02*
X120965714Y-129936723D01*
X120965714Y-129936723D02*
X120918095Y-129746247D01*
X120918095Y-129746247D02*
X120918095Y-129603390D01*
X120918095Y-129603390D02*
X120965714Y-129412914D01*
X120965714Y-129412914D02*
X121013333Y-129317676D01*
X121013333Y-129317676D02*
X121108571Y-129222438D01*
X121108571Y-129222438D02*
X121251428Y-129174819D01*
X121251428Y-129174819D02*
X121346666Y-129174819D01*
X121346666Y-129174819D02*
X121489523Y-129222438D01*
X121489523Y-129222438D02*
X121537142Y-129270057D01*
X121918095Y-129270057D02*
X121965714Y-129222438D01*
X121965714Y-129222438D02*
X122060952Y-129174819D01*
X122060952Y-129174819D02*
X122299047Y-129174819D01*
X122299047Y-129174819D02*
X122394285Y-129222438D01*
X122394285Y-129222438D02*
X122441904Y-129270057D01*
X122441904Y-129270057D02*
X122489523Y-129365295D01*
X122489523Y-129365295D02*
X122489523Y-129460533D01*
X122489523Y-129460533D02*
X122441904Y-129603390D01*
X122441904Y-129603390D02*
X121870476Y-130174819D01*
X121870476Y-130174819D02*
X122489523Y-130174819D01*
X123346666Y-129174819D02*
X123156190Y-129174819D01*
X123156190Y-129174819D02*
X123060952Y-129222438D01*
X123060952Y-129222438D02*
X123013333Y-129270057D01*
X123013333Y-129270057D02*
X122918095Y-129412914D01*
X122918095Y-129412914D02*
X122870476Y-129603390D01*
X122870476Y-129603390D02*
X122870476Y-129984342D01*
X122870476Y-129984342D02*
X122918095Y-130079580D01*
X122918095Y-130079580D02*
X122965714Y-130127200D01*
X122965714Y-130127200D02*
X123060952Y-130174819D01*
X123060952Y-130174819D02*
X123251428Y-130174819D01*
X123251428Y-130174819D02*
X123346666Y-130127200D01*
X123346666Y-130127200D02*
X123394285Y-130079580D01*
X123394285Y-130079580D02*
X123441904Y-129984342D01*
X123441904Y-129984342D02*
X123441904Y-129746247D01*
X123441904Y-129746247D02*
X123394285Y-129651009D01*
X123394285Y-129651009D02*
X123346666Y-129603390D01*
X123346666Y-129603390D02*
X123251428Y-129555771D01*
X123251428Y-129555771D02*
X123060952Y-129555771D01*
X123060952Y-129555771D02*
X122965714Y-129603390D01*
X122965714Y-129603390D02*
X122918095Y-129651009D01*
X122918095Y-129651009D02*
X122870476Y-129746247D01*
X178527142Y-90704819D02*
X178193809Y-90228628D01*
X177955714Y-90704819D02*
X177955714Y-89704819D01*
X177955714Y-89704819D02*
X178336666Y-89704819D01*
X178336666Y-89704819D02*
X178431904Y-89752438D01*
X178431904Y-89752438D02*
X178479523Y-89800057D01*
X178479523Y-89800057D02*
X178527142Y-89895295D01*
X178527142Y-89895295D02*
X178527142Y-90038152D01*
X178527142Y-90038152D02*
X178479523Y-90133390D01*
X178479523Y-90133390D02*
X178431904Y-90181009D01*
X178431904Y-90181009D02*
X178336666Y-90228628D01*
X178336666Y-90228628D02*
X177955714Y-90228628D01*
X179479523Y-90704819D02*
X178908095Y-90704819D01*
X179193809Y-90704819D02*
X179193809Y-89704819D01*
X179193809Y-89704819D02*
X179098571Y-89847676D01*
X179098571Y-89847676D02*
X179003333Y-89942914D01*
X179003333Y-89942914D02*
X178908095Y-89990533D01*
X180050952Y-90133390D02*
X179955714Y-90085771D01*
X179955714Y-90085771D02*
X179908095Y-90038152D01*
X179908095Y-90038152D02*
X179860476Y-89942914D01*
X179860476Y-89942914D02*
X179860476Y-89895295D01*
X179860476Y-89895295D02*
X179908095Y-89800057D01*
X179908095Y-89800057D02*
X179955714Y-89752438D01*
X179955714Y-89752438D02*
X180050952Y-89704819D01*
X180050952Y-89704819D02*
X180241428Y-89704819D01*
X180241428Y-89704819D02*
X180336666Y-89752438D01*
X180336666Y-89752438D02*
X180384285Y-89800057D01*
X180384285Y-89800057D02*
X180431904Y-89895295D01*
X180431904Y-89895295D02*
X180431904Y-89942914D01*
X180431904Y-89942914D02*
X180384285Y-90038152D01*
X180384285Y-90038152D02*
X180336666Y-90085771D01*
X180336666Y-90085771D02*
X180241428Y-90133390D01*
X180241428Y-90133390D02*
X180050952Y-90133390D01*
X180050952Y-90133390D02*
X179955714Y-90181009D01*
X179955714Y-90181009D02*
X179908095Y-90228628D01*
X179908095Y-90228628D02*
X179860476Y-90323866D01*
X179860476Y-90323866D02*
X179860476Y-90514342D01*
X179860476Y-90514342D02*
X179908095Y-90609580D01*
X179908095Y-90609580D02*
X179955714Y-90657200D01*
X179955714Y-90657200D02*
X180050952Y-90704819D01*
X180050952Y-90704819D02*
X180241428Y-90704819D01*
X180241428Y-90704819D02*
X180336666Y-90657200D01*
X180336666Y-90657200D02*
X180384285Y-90609580D01*
X180384285Y-90609580D02*
X180431904Y-90514342D01*
X180431904Y-90514342D02*
X180431904Y-90323866D01*
X180431904Y-90323866D02*
X180384285Y-90228628D01*
X180384285Y-90228628D02*
X180336666Y-90181009D01*
X180336666Y-90181009D02*
X180241428Y-90133390D01*
X145857142Y-88679580D02*
X145809523Y-88727200D01*
X145809523Y-88727200D02*
X145666666Y-88774819D01*
X145666666Y-88774819D02*
X145571428Y-88774819D01*
X145571428Y-88774819D02*
X145428571Y-88727200D01*
X145428571Y-88727200D02*
X145333333Y-88631961D01*
X145333333Y-88631961D02*
X145285714Y-88536723D01*
X145285714Y-88536723D02*
X145238095Y-88346247D01*
X145238095Y-88346247D02*
X145238095Y-88203390D01*
X145238095Y-88203390D02*
X145285714Y-88012914D01*
X145285714Y-88012914D02*
X145333333Y-87917676D01*
X145333333Y-87917676D02*
X145428571Y-87822438D01*
X145428571Y-87822438D02*
X145571428Y-87774819D01*
X145571428Y-87774819D02*
X145666666Y-87774819D01*
X145666666Y-87774819D02*
X145809523Y-87822438D01*
X145809523Y-87822438D02*
X145857142Y-87870057D01*
X146238095Y-87870057D02*
X146285714Y-87822438D01*
X146285714Y-87822438D02*
X146380952Y-87774819D01*
X146380952Y-87774819D02*
X146619047Y-87774819D01*
X146619047Y-87774819D02*
X146714285Y-87822438D01*
X146714285Y-87822438D02*
X146761904Y-87870057D01*
X146761904Y-87870057D02*
X146809523Y-87965295D01*
X146809523Y-87965295D02*
X146809523Y-88060533D01*
X146809523Y-88060533D02*
X146761904Y-88203390D01*
X146761904Y-88203390D02*
X146190476Y-88774819D01*
X146190476Y-88774819D02*
X146809523Y-88774819D01*
X147190476Y-87870057D02*
X147238095Y-87822438D01*
X147238095Y-87822438D02*
X147333333Y-87774819D01*
X147333333Y-87774819D02*
X147571428Y-87774819D01*
X147571428Y-87774819D02*
X147666666Y-87822438D01*
X147666666Y-87822438D02*
X147714285Y-87870057D01*
X147714285Y-87870057D02*
X147761904Y-87965295D01*
X147761904Y-87965295D02*
X147761904Y-88060533D01*
X147761904Y-88060533D02*
X147714285Y-88203390D01*
X147714285Y-88203390D02*
X147142857Y-88774819D01*
X147142857Y-88774819D02*
X147761904Y-88774819D01*
X218531666Y-112914819D02*
X218531666Y-113629104D01*
X218531666Y-113629104D02*
X218484047Y-113771961D01*
X218484047Y-113771961D02*
X218388809Y-113867200D01*
X218388809Y-113867200D02*
X218245952Y-113914819D01*
X218245952Y-113914819D02*
X218150714Y-113914819D01*
X218960238Y-113010057D02*
X219007857Y-112962438D01*
X219007857Y-112962438D02*
X219103095Y-112914819D01*
X219103095Y-112914819D02*
X219341190Y-112914819D01*
X219341190Y-112914819D02*
X219436428Y-112962438D01*
X219436428Y-112962438D02*
X219484047Y-113010057D01*
X219484047Y-113010057D02*
X219531666Y-113105295D01*
X219531666Y-113105295D02*
X219531666Y-113200533D01*
X219531666Y-113200533D02*
X219484047Y-113343390D01*
X219484047Y-113343390D02*
X218912619Y-113914819D01*
X218912619Y-113914819D02*
X219531666Y-113914819D01*
X135197405Y-138009819D02*
X135197405Y-137009819D01*
X135197405Y-137009819D02*
X135435500Y-137009819D01*
X135435500Y-137009819D02*
X135578357Y-137057438D01*
X135578357Y-137057438D02*
X135673595Y-137152676D01*
X135673595Y-137152676D02*
X135721214Y-137247914D01*
X135721214Y-137247914D02*
X135768833Y-137438390D01*
X135768833Y-137438390D02*
X135768833Y-137581247D01*
X135768833Y-137581247D02*
X135721214Y-137771723D01*
X135721214Y-137771723D02*
X135673595Y-137866961D01*
X135673595Y-137866961D02*
X135578357Y-137962200D01*
X135578357Y-137962200D02*
X135435500Y-138009819D01*
X135435500Y-138009819D02*
X135197405Y-138009819D01*
X136102167Y-137009819D02*
X136721214Y-137009819D01*
X136721214Y-137009819D02*
X136387881Y-137390771D01*
X136387881Y-137390771D02*
X136530738Y-137390771D01*
X136530738Y-137390771D02*
X136625976Y-137438390D01*
X136625976Y-137438390D02*
X136673595Y-137486009D01*
X136673595Y-137486009D02*
X136721214Y-137581247D01*
X136721214Y-137581247D02*
X136721214Y-137819342D01*
X136721214Y-137819342D02*
X136673595Y-137914580D01*
X136673595Y-137914580D02*
X136625976Y-137962200D01*
X136625976Y-137962200D02*
X136530738Y-138009819D01*
X136530738Y-138009819D02*
X136245024Y-138009819D01*
X136245024Y-138009819D02*
X136149786Y-137962200D01*
X136149786Y-137962200D02*
X136102167Y-137914580D01*
X179238095Y-63254819D02*
X179238095Y-62254819D01*
X179238095Y-62731009D02*
X179809523Y-62731009D01*
X179809523Y-63254819D02*
X179809523Y-62254819D01*
X180190476Y-62254819D02*
X180809523Y-62254819D01*
X180809523Y-62254819D02*
X180476190Y-62635771D01*
X180476190Y-62635771D02*
X180619047Y-62635771D01*
X180619047Y-62635771D02*
X180714285Y-62683390D01*
X180714285Y-62683390D02*
X180761904Y-62731009D01*
X180761904Y-62731009D02*
X180809523Y-62826247D01*
X180809523Y-62826247D02*
X180809523Y-63064342D01*
X180809523Y-63064342D02*
X180761904Y-63159580D01*
X180761904Y-63159580D02*
X180714285Y-63207200D01*
X180714285Y-63207200D02*
X180619047Y-63254819D01*
X180619047Y-63254819D02*
X180333333Y-63254819D01*
X180333333Y-63254819D02*
X180238095Y-63207200D01*
X180238095Y-63207200D02*
X180190476Y-63159580D01*
X198262142Y-126294819D02*
X197928809Y-125818628D01*
X197690714Y-126294819D02*
X197690714Y-125294819D01*
X197690714Y-125294819D02*
X198071666Y-125294819D01*
X198071666Y-125294819D02*
X198166904Y-125342438D01*
X198166904Y-125342438D02*
X198214523Y-125390057D01*
X198214523Y-125390057D02*
X198262142Y-125485295D01*
X198262142Y-125485295D02*
X198262142Y-125628152D01*
X198262142Y-125628152D02*
X198214523Y-125723390D01*
X198214523Y-125723390D02*
X198166904Y-125771009D01*
X198166904Y-125771009D02*
X198071666Y-125818628D01*
X198071666Y-125818628D02*
X197690714Y-125818628D01*
X198643095Y-125390057D02*
X198690714Y-125342438D01*
X198690714Y-125342438D02*
X198785952Y-125294819D01*
X198785952Y-125294819D02*
X199024047Y-125294819D01*
X199024047Y-125294819D02*
X199119285Y-125342438D01*
X199119285Y-125342438D02*
X199166904Y-125390057D01*
X199166904Y-125390057D02*
X199214523Y-125485295D01*
X199214523Y-125485295D02*
X199214523Y-125580533D01*
X199214523Y-125580533D02*
X199166904Y-125723390D01*
X199166904Y-125723390D02*
X198595476Y-126294819D01*
X198595476Y-126294819D02*
X199214523Y-126294819D01*
X200071666Y-125628152D02*
X200071666Y-126294819D01*
X199833571Y-125247200D02*
X199595476Y-125961485D01*
X199595476Y-125961485D02*
X200214523Y-125961485D01*
X153316995Y-98103919D02*
X153316995Y-98913442D01*
X153316995Y-98913442D02*
X153364614Y-99008680D01*
X153364614Y-99008680D02*
X153412233Y-99056300D01*
X153412233Y-99056300D02*
X153507471Y-99103919D01*
X153507471Y-99103919D02*
X153697947Y-99103919D01*
X153697947Y-99103919D02*
X153793185Y-99056300D01*
X153793185Y-99056300D02*
X153840804Y-99008680D01*
X153840804Y-99008680D02*
X153888423Y-98913442D01*
X153888423Y-98913442D02*
X153888423Y-98103919D01*
X154888423Y-99103919D02*
X154316995Y-99103919D01*
X154602709Y-99103919D02*
X154602709Y-98103919D01*
X154602709Y-98103919D02*
X154507471Y-98246776D01*
X154507471Y-98246776D02*
X154412233Y-98342014D01*
X154412233Y-98342014D02*
X154316995Y-98389633D01*
X139494642Y-86297080D02*
X139447023Y-86344700D01*
X139447023Y-86344700D02*
X139304166Y-86392319D01*
X139304166Y-86392319D02*
X139208928Y-86392319D01*
X139208928Y-86392319D02*
X139066071Y-86344700D01*
X139066071Y-86344700D02*
X138970833Y-86249461D01*
X138970833Y-86249461D02*
X138923214Y-86154223D01*
X138923214Y-86154223D02*
X138875595Y-85963747D01*
X138875595Y-85963747D02*
X138875595Y-85820890D01*
X138875595Y-85820890D02*
X138923214Y-85630414D01*
X138923214Y-85630414D02*
X138970833Y-85535176D01*
X138970833Y-85535176D02*
X139066071Y-85439938D01*
X139066071Y-85439938D02*
X139208928Y-85392319D01*
X139208928Y-85392319D02*
X139304166Y-85392319D01*
X139304166Y-85392319D02*
X139447023Y-85439938D01*
X139447023Y-85439938D02*
X139494642Y-85487557D01*
X140447023Y-86392319D02*
X139875595Y-86392319D01*
X140161309Y-86392319D02*
X140161309Y-85392319D01*
X140161309Y-85392319D02*
X140066071Y-85535176D01*
X140066071Y-85535176D02*
X139970833Y-85630414D01*
X139970833Y-85630414D02*
X139875595Y-85678033D01*
X141304166Y-85392319D02*
X141113690Y-85392319D01*
X141113690Y-85392319D02*
X141018452Y-85439938D01*
X141018452Y-85439938D02*
X140970833Y-85487557D01*
X140970833Y-85487557D02*
X140875595Y-85630414D01*
X140875595Y-85630414D02*
X140827976Y-85820890D01*
X140827976Y-85820890D02*
X140827976Y-86201842D01*
X140827976Y-86201842D02*
X140875595Y-86297080D01*
X140875595Y-86297080D02*
X140923214Y-86344700D01*
X140923214Y-86344700D02*
X141018452Y-86392319D01*
X141018452Y-86392319D02*
X141208928Y-86392319D01*
X141208928Y-86392319D02*
X141304166Y-86344700D01*
X141304166Y-86344700D02*
X141351785Y-86297080D01*
X141351785Y-86297080D02*
X141399404Y-86201842D01*
X141399404Y-86201842D02*
X141399404Y-85963747D01*
X141399404Y-85963747D02*
X141351785Y-85868509D01*
X141351785Y-85868509D02*
X141304166Y-85820890D01*
X141304166Y-85820890D02*
X141208928Y-85773271D01*
X141208928Y-85773271D02*
X141018452Y-85773271D01*
X141018452Y-85773271D02*
X140923214Y-85820890D01*
X140923214Y-85820890D02*
X140875595Y-85868509D01*
X140875595Y-85868509D02*
X140827976Y-85963747D01*
X178527142Y-100744819D02*
X178193809Y-100268628D01*
X177955714Y-100744819D02*
X177955714Y-99744819D01*
X177955714Y-99744819D02*
X178336666Y-99744819D01*
X178336666Y-99744819D02*
X178431904Y-99792438D01*
X178431904Y-99792438D02*
X178479523Y-99840057D01*
X178479523Y-99840057D02*
X178527142Y-99935295D01*
X178527142Y-99935295D02*
X178527142Y-100078152D01*
X178527142Y-100078152D02*
X178479523Y-100173390D01*
X178479523Y-100173390D02*
X178431904Y-100221009D01*
X178431904Y-100221009D02*
X178336666Y-100268628D01*
X178336666Y-100268628D02*
X177955714Y-100268628D01*
X178908095Y-99840057D02*
X178955714Y-99792438D01*
X178955714Y-99792438D02*
X179050952Y-99744819D01*
X179050952Y-99744819D02*
X179289047Y-99744819D01*
X179289047Y-99744819D02*
X179384285Y-99792438D01*
X179384285Y-99792438D02*
X179431904Y-99840057D01*
X179431904Y-99840057D02*
X179479523Y-99935295D01*
X179479523Y-99935295D02*
X179479523Y-100030533D01*
X179479523Y-100030533D02*
X179431904Y-100173390D01*
X179431904Y-100173390D02*
X178860476Y-100744819D01*
X178860476Y-100744819D02*
X179479523Y-100744819D01*
X179860476Y-99840057D02*
X179908095Y-99792438D01*
X179908095Y-99792438D02*
X180003333Y-99744819D01*
X180003333Y-99744819D02*
X180241428Y-99744819D01*
X180241428Y-99744819D02*
X180336666Y-99792438D01*
X180336666Y-99792438D02*
X180384285Y-99840057D01*
X180384285Y-99840057D02*
X180431904Y-99935295D01*
X180431904Y-99935295D02*
X180431904Y-100030533D01*
X180431904Y-100030533D02*
X180384285Y-100173390D01*
X180384285Y-100173390D02*
X179812857Y-100744819D01*
X179812857Y-100744819D02*
X180431904Y-100744819D01*
D12*
%TO.C,U3*%
G36*
X212068101Y-132011399D02*
G01*
X211687101Y-132011399D01*
X211687101Y-131757399D01*
X212068101Y-131757399D01*
X212068101Y-132011399D01*
G37*
G36*
X210468099Y-127642599D02*
G01*
X210087099Y-127642599D01*
X210087099Y-127388599D01*
X210468099Y-127388599D01*
X210468099Y-127642599D01*
G37*
D13*
X209452000Y-131325599D02*
X209817859Y-131325599D01*
X212703200Y-131325599D02*
X212703200Y-130959740D01*
X212703200Y-128074399D02*
X212337341Y-128074399D01*
X209452000Y-128074399D02*
X209452000Y-128440258D01*
X209452000Y-130959740D02*
X209452000Y-131325599D01*
X212337341Y-131325599D02*
X212703200Y-131325599D01*
X212703200Y-128440258D02*
X212703200Y-128074399D01*
X209817859Y-128074399D02*
X209452000Y-128074399D01*
D14*
%TO.C,TP1*%
X202855000Y-101050000D02*
G75*
G02*
X200955000Y-101050000I-950000J0D01*
G01*
X200955000Y-101050000D02*
G75*
G02*
X202855000Y-101050000I950000J0D01*
G01*
D15*
%TO.C,L2*%
X207180000Y-93200000D02*
X201580000Y-93200000D01*
X201580000Y-98400000D02*
X207180000Y-98400000D01*
D14*
%TO.C,D6*%
X142140000Y-102990000D02*
X142140000Y-105010000D01*
X142140000Y-102990000D02*
X145900000Y-102990000D01*
X142140000Y-105010000D02*
X145900000Y-105010000D01*
D16*
%TO.C,J3*%
X146350000Y-66937500D02*
X146350000Y-81137500D01*
X131650000Y-81137500D02*
X131650000Y-66937500D01*
X146350000Y-81137500D02*
X131650000Y-81137500D01*
X131650000Y-66937500D02*
X146350000Y-66937500D01*
D15*
X144350000Y-82137500D02*
G75*
G02*
X144150000Y-82137500I-100000J0D01*
G01*
X144150000Y-82137500D02*
G75*
G02*
X144350000Y-82137500I100000J0D01*
G01*
D14*
%TO.C,R20*%
X178932742Y-96177500D02*
X179407258Y-96177500D01*
X178932742Y-97222500D02*
X179407258Y-97222500D01*
D16*
%TO.C,BT1*%
X94065000Y-66475000D02*
X114715000Y-66475000D01*
X94065000Y-143525000D02*
X94065000Y-66475000D01*
X104390000Y-64995000D02*
X104390000Y-65995000D01*
X104390000Y-144005000D02*
X104390000Y-145005000D01*
X104890000Y-65495000D02*
X103890000Y-65495000D01*
X114715000Y-66475000D02*
X114715000Y-143525000D01*
X114715000Y-143525000D02*
X94065000Y-143525000D01*
D17*
%TO.C,Q4*%
X203125000Y-129625000D02*
X203125000Y-129675000D01*
X203125000Y-129675000D02*
X202350000Y-129675000D01*
X203125000Y-132650000D02*
X203125000Y-132300000D01*
X203500000Y-129350000D02*
X203125000Y-129625000D01*
X203600000Y-132650000D02*
X203125000Y-132650000D01*
X203775000Y-129350000D02*
X203500000Y-129350000D01*
X204400000Y-129350000D02*
X204775000Y-129350000D01*
X204775000Y-129350000D02*
X204775000Y-129650000D01*
X204775000Y-132350000D02*
X204775000Y-132650000D01*
X204775000Y-132425000D02*
X204775000Y-132300000D01*
X204775000Y-132650000D02*
X204325000Y-132650000D01*
D14*
%TO.C,C10*%
X147369664Y-95657500D02*
X147585336Y-95657500D01*
X147369664Y-96377500D02*
X147585336Y-96377500D01*
%TO.C,C5*%
X162634664Y-84257500D02*
X162850336Y-84257500D01*
X162634664Y-84977500D02*
X162850336Y-84977500D01*
%TO.C,R6*%
X157480242Y-93215000D02*
X157954758Y-93215000D01*
X157480242Y-94260000D02*
X157954758Y-94260000D01*
%TO.C,C8*%
X134892164Y-85140000D02*
X135107836Y-85140000D01*
X134892164Y-85860000D02*
X135107836Y-85860000D01*
%TO.C,J1*%
X182170000Y-86400000D02*
X183500000Y-86400000D01*
X182170000Y-87730000D02*
X182170000Y-86400000D01*
X182170000Y-89000000D02*
X182170000Y-91600000D01*
X182170000Y-89000000D02*
X184830000Y-89000000D01*
X182170000Y-91600000D02*
X184830000Y-91600000D01*
X184830000Y-89000000D02*
X184830000Y-91600000D01*
%TO.C,C19*%
X139876248Y-92792500D02*
X140398752Y-92792500D01*
X139876248Y-94262500D02*
X140398752Y-94262500D01*
%TO.C,R34*%
X206687742Y-116707500D02*
X207162258Y-116707500D01*
X206687742Y-117752500D02*
X207162258Y-117752500D01*
%TO.C,C18*%
X139996920Y-91047500D02*
X140278080Y-91047500D01*
X139996920Y-92067500D02*
X140278080Y-92067500D01*
%TO.C,R10*%
X124290242Y-91105000D02*
X124764758Y-91105000D01*
X124290242Y-92150000D02*
X124764758Y-92150000D01*
%TO.C,R2*%
X157563859Y-83317500D02*
X157871141Y-83317500D01*
X157563859Y-84077500D02*
X157871141Y-84077500D01*
%TO.C,R29*%
X211007936Y-114200000D02*
X212462064Y-114200000D01*
X211007936Y-116020000D02*
X212462064Y-116020000D01*
%TO.C,R5*%
X157563859Y-90847500D02*
X157871141Y-90847500D01*
X157563859Y-91607500D02*
X157871141Y-91607500D01*
%TO.C,R7*%
X124290242Y-85135000D02*
X124764758Y-85135000D01*
X124290242Y-86180000D02*
X124764758Y-86180000D01*
%TO.C,C15*%
X137040000Y-82990000D02*
X137040000Y-86010000D01*
X137040000Y-86010000D02*
X141250000Y-86010000D01*
X141250000Y-82990000D02*
X137040000Y-82990000D01*
%TO.C,R8*%
X124290242Y-87125000D02*
X124764758Y-87125000D01*
X124290242Y-88170000D02*
X124764758Y-88170000D01*
%TO.C,R32*%
X202677742Y-126747500D02*
X203152258Y-126747500D01*
X202677742Y-127792500D02*
X203152258Y-127792500D01*
%TO.C,R4*%
X157563859Y-88337500D02*
X157871141Y-88337500D01*
X157563859Y-89097500D02*
X157871141Y-89097500D01*
%TO.C,C28*%
X210893748Y-120815000D02*
X211416252Y-120815000D01*
X210893748Y-122285000D02*
X211416252Y-122285000D01*
D17*
%TO.C,Q3*%
X198425000Y-129625000D02*
X198425000Y-129675000D01*
X198425000Y-129675000D02*
X197650000Y-129675000D01*
X198425000Y-132650000D02*
X198425000Y-132300000D01*
X198800000Y-129350000D02*
X198425000Y-129625000D01*
X198900000Y-132650000D02*
X198425000Y-132650000D01*
X199075000Y-129350000D02*
X198800000Y-129350000D01*
X199700000Y-129350000D02*
X200075000Y-129350000D01*
X200075000Y-129350000D02*
X200075000Y-129650000D01*
X200075000Y-132350000D02*
X200075000Y-132650000D01*
X200075000Y-132425000D02*
X200075000Y-132300000D01*
X200075000Y-132650000D02*
X199625000Y-132650000D01*
D14*
%TO.C,R3*%
X157563859Y-85827500D02*
X157871141Y-85827500D01*
X157563859Y-86587500D02*
X157871141Y-86587500D01*
%TO.C,C7*%
X161909664Y-79037500D02*
X162125336Y-79037500D01*
X161909664Y-79757500D02*
X162125336Y-79757500D01*
%TO.C,R23*%
X198667742Y-124237500D02*
X199142258Y-124237500D01*
X198667742Y-125282500D02*
X199142258Y-125282500D01*
%TO.C,C6*%
X153599664Y-93377500D02*
X153815336Y-93377500D01*
X153599664Y-94097500D02*
X153815336Y-94097500D01*
%TO.C,D4*%
X182400000Y-115100000D02*
X182400000Y-116000000D01*
X182400000Y-118700000D02*
X187300000Y-118700000D01*
X187300000Y-115100000D02*
X182400000Y-115100000D01*
%TO.C,R31*%
X211007936Y-117490000D02*
X212462064Y-117490000D01*
X211007936Y-119310000D02*
X212462064Y-119310000D01*
%TO.C,R27*%
X202677742Y-119217500D02*
X203152258Y-119217500D01*
X202677742Y-120262500D02*
X203152258Y-120262500D01*
%TO.C,C13*%
X137159664Y-91197500D02*
X137375336Y-91197500D01*
X137159664Y-91917500D02*
X137375336Y-91917500D01*
%TO.C,U7*%
X154350000Y-108010000D02*
X157350000Y-108010000D01*
X154350000Y-111280000D02*
X157350000Y-111280000D01*
X153830000Y-108095000D02*
X153350000Y-108095000D01*
X153830000Y-107615000D01*
X153830000Y-108095000D01*
G36*
X153830000Y-108095000D02*
G01*
X153350000Y-108095000D01*
X153830000Y-107615000D01*
X153830000Y-108095000D01*
G37*
%TO.C,C3*%
X153599664Y-88357500D02*
X153815336Y-88357500D01*
X153599664Y-89077500D02*
X153815336Y-89077500D01*
%TO.C,R28*%
X202677742Y-121727500D02*
X203152258Y-121727500D01*
X202677742Y-122772500D02*
X203152258Y-122772500D01*
%TO.C,D1*%
X154087500Y-79207500D02*
X154087500Y-81127500D01*
X154087500Y-81127500D02*
X156772500Y-81127500D01*
X156772500Y-79207500D02*
X154087500Y-79207500D01*
%TO.C,C14*%
X137159664Y-93167500D02*
X137375336Y-93167500D01*
X137159664Y-93887500D02*
X137375336Y-93887500D01*
%TO.C,SW1*%
X167800000Y-104050000D02*
X167800000Y-103950000D01*
X167800000Y-105750000D02*
X172200000Y-105750000D01*
X172200000Y-102250000D02*
X167800000Y-102250000D01*
X172200000Y-104050000D02*
X172200000Y-103950000D01*
%TO.C,R14*%
X121942742Y-123607500D02*
X122417258Y-123607500D01*
X121942742Y-124652500D02*
X122417258Y-124652500D01*
%TO.C,U2*%
X119115000Y-111385000D02*
X119115000Y-110735000D01*
X119765000Y-104165000D02*
X119115000Y-104165000D01*
X119765000Y-111385000D02*
X119115000Y-111385000D01*
X125685000Y-104165000D02*
X126335000Y-104165000D01*
X125685000Y-111385000D02*
X126335000Y-111385000D01*
X126335000Y-104165000D02*
X126335000Y-104815000D01*
X126335000Y-111385000D02*
X126335000Y-110735000D01*
%TO.C,C32*%
X198764420Y-119230000D02*
X199045580Y-119230000D01*
X198764420Y-120250000D02*
X199045580Y-120250000D01*
%TO.C,R13*%
X159967742Y-110237500D02*
X160442258Y-110237500D01*
X159967742Y-111282500D02*
X160442258Y-111282500D01*
%TO.C,C20*%
X144738748Y-84765000D02*
X145261252Y-84765000D01*
X144738748Y-86235000D02*
X145261252Y-86235000D01*
%TO.C,C4*%
X153599664Y-90867500D02*
X153815336Y-90867500D01*
X153599664Y-91587500D02*
X153815336Y-91587500D01*
D16*
%TO.C,U8*%
X141900000Y-129600000D02*
X145050000Y-129600000D01*
X141900000Y-139400000D02*
X141900000Y-129600000D01*
X145050000Y-139400000D02*
X141900000Y-139400000D01*
X145050000Y-139670000D02*
X145050000Y-139400000D01*
X146930000Y-126500000D02*
X147550000Y-126500000D01*
X147550000Y-120200000D02*
X158450000Y-120200000D01*
X147550000Y-126500000D02*
X147550000Y-120200000D01*
X148150000Y-142400000D02*
X146930000Y-142400000D01*
X148150000Y-145600000D02*
X148150000Y-142400000D01*
X157850000Y-142400000D02*
X157850000Y-145600000D01*
X158450000Y-120200000D02*
X158450000Y-126500000D01*
X158450000Y-126500000D02*
X159080000Y-126500000D01*
X159080000Y-142400000D02*
X157850000Y-142400000D01*
X160950000Y-130400000D02*
X162500000Y-130400000D01*
X160950000Y-138500000D02*
X160950000Y-139620000D01*
X162500000Y-130400000D02*
X162500000Y-138500000D01*
X162500000Y-138500000D02*
X160950000Y-138500000D01*
D15*
X147050000Y-121150000D02*
G75*
G02*
X146850000Y-121150000I-100000J0D01*
G01*
X146850000Y-121150000D02*
G75*
G02*
X147050000Y-121150000I100000J0D01*
G01*
D14*
%TO.C,J4*%
X125820000Y-116670000D02*
X127150000Y-116670000D01*
X125820000Y-118000000D02*
X125820000Y-116670000D01*
X125820000Y-119270000D02*
X125820000Y-121870000D01*
X125820000Y-119270000D02*
X128480000Y-119270000D01*
X125820000Y-121870000D02*
X128480000Y-121870000D01*
X128480000Y-119270000D02*
X128480000Y-121870000D01*
%TO.C,J8*%
X119830000Y-140400000D02*
X119830000Y-138700000D01*
X129170000Y-140400000D02*
X129170000Y-138700000D01*
%TO.C,R26*%
X202677742Y-116707500D02*
X203152258Y-116707500D01*
X202677742Y-117752500D02*
X203152258Y-117752500D01*
%TO.C,D2*%
X126990000Y-130350000D02*
X126990000Y-133650000D01*
X126990000Y-130350000D02*
X132500000Y-130350000D01*
X126990000Y-133650000D02*
X132500000Y-133650000D01*
%TO.C,C2*%
X153599664Y-85847500D02*
X153815336Y-85847500D01*
X153599664Y-86567500D02*
X153815336Y-86567500D01*
%TO.C,SW2*%
X167750000Y-113125000D02*
X167750000Y-113025000D01*
X167750000Y-114825000D02*
X172150000Y-114825000D01*
X172150000Y-111325000D02*
X167750000Y-111325000D01*
X172150000Y-113125000D02*
X172150000Y-113025000D01*
%TO.C,C24*%
X151134420Y-107990000D02*
X151415580Y-107990000D01*
X151134420Y-109010000D02*
X151415580Y-109010000D01*
%TO.C,JP1*%
X181950000Y-99300000D02*
X181950000Y-98700000D01*
X182650000Y-98000000D02*
X184050000Y-98000000D01*
X184050000Y-100000000D02*
X182650000Y-100000000D01*
X184750000Y-98700000D02*
X184750000Y-99300000D01*
X181950000Y-98700000D02*
G75*
G02*
X182650000Y-98000000I699999J1D01*
G01*
X182650000Y-100000000D02*
G75*
G02*
X181950000Y-99300000I-1J699999D01*
G01*
X184050000Y-98000000D02*
G75*
G02*
X184750000Y-98700000I0J-700000D01*
G01*
X184750000Y-99300000D02*
G75*
G02*
X184050000Y-100000000I-700000J0D01*
G01*
%TO.C,C31*%
X198764420Y-116720000D02*
X199045580Y-116720000D01*
X198764420Y-117740000D02*
X199045580Y-117740000D01*
%TO.C,C1*%
X153599664Y-83337500D02*
X153815336Y-83337500D01*
X153599664Y-84057500D02*
X153815336Y-84057500D01*
%TO.C,R16*%
X165937742Y-121467500D02*
X166412258Y-121467500D01*
X165937742Y-122512500D02*
X166412258Y-122512500D01*
%TO.C,U4*%
X118000000Y-130440000D02*
X117200000Y-130440000D01*
X118000000Y-130440000D02*
X118800000Y-130440000D01*
X118000000Y-133560000D02*
X117200000Y-133560000D01*
X118000000Y-133560000D02*
X118800000Y-133560000D01*
X116700000Y-130490000D02*
X116460000Y-130160000D01*
X116940000Y-130160000D01*
X116700000Y-130490000D01*
G36*
X116700000Y-130490000D02*
G01*
X116460000Y-130160000D01*
X116940000Y-130160000D01*
X116700000Y-130490000D01*
G37*
%TO.C,R12*%
X159967742Y-107727500D02*
X160442258Y-107727500D01*
X159967742Y-108772500D02*
X160442258Y-108772500D01*
%TO.C,C9*%
X137159664Y-87257500D02*
X137375336Y-87257500D01*
X137159664Y-87977500D02*
X137375336Y-87977500D01*
%TO.C,J7*%
X176170000Y-122895000D02*
X177500000Y-122895000D01*
X176170000Y-124225000D02*
X176170000Y-122895000D01*
X176170000Y-125495000D02*
X176170000Y-128095000D01*
X176170000Y-125495000D02*
X178830000Y-125495000D01*
X176170000Y-128095000D02*
X178830000Y-128095000D01*
X178830000Y-125495000D02*
X178830000Y-128095000D01*
%TO.C,C23*%
X146359420Y-91990000D02*
X146640580Y-91990000D01*
X146359420Y-93010000D02*
X146640580Y-93010000D01*
%TO.C,Y1*%
X129225000Y-100125000D02*
X129225000Y-103425000D01*
X129225000Y-103425000D02*
X133225000Y-103425000D01*
%TO.C,R17*%
X165937742Y-123977500D02*
X166412258Y-123977500D01*
X165937742Y-125022500D02*
X166412258Y-125022500D01*
%TO.C,R19*%
X178932742Y-93667500D02*
X179407258Y-93667500D01*
X178932742Y-94712500D02*
X179407258Y-94712500D01*
%TO.C,C21*%
X146359420Y-87490000D02*
X146640580Y-87490000D01*
X146359420Y-88510000D02*
X146640580Y-88510000D01*
%TO.C,J5*%
X130470000Y-116670000D02*
X131800000Y-116670000D01*
X130470000Y-118000000D02*
X130470000Y-116670000D01*
X130470000Y-119270000D02*
X130470000Y-121870000D01*
X130470000Y-119270000D02*
X133130000Y-119270000D01*
X130470000Y-121870000D02*
X133130000Y-121870000D01*
X133130000Y-119270000D02*
X133130000Y-121870000D01*
D17*
%TO.C,U5*%
X130300000Y-92500000D02*
X130300000Y-92800000D01*
X130300000Y-94175000D02*
X130300000Y-93800000D01*
X130300000Y-94175000D02*
X130525000Y-94500000D01*
X130525000Y-94500000D02*
X130625000Y-94500000D01*
X130625000Y-92500000D02*
X130300000Y-92500000D01*
X130625000Y-94500000D02*
X130625000Y-95025000D01*
X133275000Y-94500000D02*
X133600000Y-94500000D01*
X133300000Y-92500000D02*
X133600000Y-92500000D01*
X133600000Y-92500000D02*
X133600000Y-92825000D01*
X133600000Y-94500000D02*
X133600000Y-94200000D01*
D14*
%TO.C,R1*%
X153553859Y-95867500D02*
X153861141Y-95867500D01*
X153553859Y-96627500D02*
X153861141Y-96627500D01*
%TO.C,C12*%
X137159664Y-89227500D02*
X137375336Y-89227500D01*
X137159664Y-89947500D02*
X137375336Y-89947500D01*
%TO.C,R11*%
X124290242Y-93095000D02*
X124764758Y-93095000D01*
X124290242Y-94140000D02*
X124764758Y-94140000D01*
%TO.C,R25*%
X202677742Y-114197500D02*
X203152258Y-114197500D01*
X202677742Y-115242500D02*
X203152258Y-115242500D01*
%TO.C,R35*%
X206687742Y-119217500D02*
X207162258Y-119217500D01*
X206687742Y-120262500D02*
X207162258Y-120262500D01*
%TO.C,C30*%
X179029420Y-88660000D02*
X179310580Y-88660000D01*
X179029420Y-89680000D02*
X179310580Y-89680000D01*
%TO.C,C25*%
X151013748Y-110775000D02*
X151536252Y-110775000D01*
X151013748Y-112245000D02*
X151536252Y-112245000D01*
%TO.C,R15*%
X121942742Y-126117500D02*
X122417258Y-126117500D01*
X121942742Y-127162500D02*
X122417258Y-127162500D01*
%TO.C,C29*%
X198764420Y-114210000D02*
X199045580Y-114210000D01*
X198764420Y-115230000D02*
X199045580Y-115230000D01*
%TO.C,C17*%
X139996920Y-89077500D02*
X140278080Y-89077500D01*
X139996920Y-90097500D02*
X140278080Y-90097500D01*
%TO.C,Q1*%
X126630000Y-123715000D02*
X125980000Y-123715000D01*
X126630000Y-123715000D02*
X127280000Y-123715000D01*
X126630000Y-126835000D02*
X125980000Y-126835000D01*
X126630000Y-126835000D02*
X127280000Y-126835000D01*
X125467500Y-123765000D02*
X125227500Y-123435000D01*
X125707500Y-123435000D01*
X125467500Y-123765000D01*
G36*
X125467500Y-123765000D02*
G01*
X125227500Y-123435000D01*
X125707500Y-123435000D01*
X125467500Y-123765000D01*
G37*
%TO.C,C33*%
X198764420Y-121740000D02*
X199045580Y-121740000D01*
X198764420Y-122760000D02*
X199045580Y-122760000D01*
%TO.C,R21*%
X178932742Y-98687500D02*
X179407258Y-98687500D01*
X178932742Y-99732500D02*
X179407258Y-99732500D01*
%TO.C,C11*%
X147369664Y-98667500D02*
X147585336Y-98667500D01*
X147369664Y-99387500D02*
X147585336Y-99387500D01*
%TO.C,R9*%
X124290242Y-89115000D02*
X124764758Y-89115000D01*
X124290242Y-90160000D02*
X124764758Y-90160000D01*
%TO.C,R33*%
X206687742Y-114197500D02*
X207162258Y-114197500D01*
X206687742Y-115242500D02*
X207162258Y-115242500D01*
%TO.C,C27*%
X179029420Y-86150000D02*
X179310580Y-86150000D01*
X179029420Y-87170000D02*
X179310580Y-87170000D01*
%TO.C,U6*%
X135000000Y-106090000D02*
X138760000Y-106090000D01*
X135000000Y-112910000D02*
X138760000Y-112910000D01*
X138760000Y-106090000D02*
X138760000Y-107350000D01*
X138760000Y-112910000D02*
X138760000Y-111650000D01*
X133720000Y-106190000D02*
X133480000Y-105860000D01*
X133960000Y-105860000D01*
X133720000Y-106190000D01*
G36*
X133720000Y-106190000D02*
G01*
X133480000Y-105860000D01*
X133960000Y-105860000D01*
X133720000Y-106190000D01*
G37*
D17*
%TO.C,D5*%
X216675000Y-124525000D02*
X216675000Y-126475000D01*
X216775000Y-124525000D02*
X216775000Y-126475000D01*
X216875000Y-124525000D02*
X216875000Y-126475000D01*
X217025000Y-124525000D02*
X216675000Y-124525000D01*
X217025000Y-126475000D02*
X216675000Y-126475000D01*
X219025000Y-124525000D02*
X219325000Y-124525000D01*
X219325000Y-124525000D02*
X219325000Y-124750000D01*
X219325000Y-126225000D02*
X219325000Y-126475000D01*
X219325000Y-126475000D02*
X219075000Y-126475000D01*
D14*
%TO.C,R30*%
X202677742Y-124237500D02*
X203152258Y-124237500D01*
X202677742Y-125282500D02*
X203152258Y-125282500D01*
%TO.C,Q2*%
X183620000Y-93445000D02*
X182970000Y-93445000D01*
X183620000Y-93445000D02*
X184270000Y-93445000D01*
X183620000Y-96565000D02*
X182970000Y-96565000D01*
X183620000Y-96565000D02*
X184270000Y-96565000D01*
X182457500Y-93495000D02*
X182217500Y-93165000D01*
X182697500Y-93165000D01*
X182457500Y-93495000D01*
G36*
X182457500Y-93495000D02*
G01*
X182217500Y-93165000D01*
X182697500Y-93165000D01*
X182457500Y-93495000D01*
G37*
%TO.C,C26*%
X122039420Y-130640000D02*
X122320580Y-130640000D01*
X122039420Y-131660000D02*
X122320580Y-131660000D01*
%TO.C,R18*%
X178932742Y-91157500D02*
X179407258Y-91157500D01*
X178932742Y-92202500D02*
X179407258Y-92202500D01*
%TO.C,C22*%
X146238748Y-89265000D02*
X146761252Y-89265000D01*
X146238748Y-90735000D02*
X146761252Y-90735000D01*
%TO.C,J2*%
X217535000Y-114460000D02*
X218865000Y-114460000D01*
X217535000Y-115790000D02*
X217535000Y-114460000D01*
X217535000Y-117060000D02*
X217535000Y-119660000D01*
X217535000Y-117060000D02*
X220195000Y-117060000D01*
X217535000Y-119660000D02*
X220195000Y-119660000D01*
X220195000Y-117060000D02*
X220195000Y-119660000D01*
%TO.C,D3*%
X133852500Y-138460000D02*
X133852500Y-140460000D01*
X133852500Y-138460000D02*
X137712500Y-138460000D01*
X133852500Y-140460000D02*
X137712500Y-140460000D01*
%TO.C,R24*%
X198667742Y-126747500D02*
X199142258Y-126747500D01*
X198667742Y-127792500D02*
X199142258Y-127792500D01*
%TO.C,U1*%
X151353900Y-99484100D02*
X151353900Y-99744100D01*
X151353900Y-104934100D02*
X151353900Y-104674100D01*
X154078900Y-99484100D02*
X151353900Y-99484100D01*
X154078900Y-99484100D02*
X156803900Y-99484100D01*
X154078900Y-104934100D02*
X151353900Y-104934100D01*
X154078900Y-104934100D02*
X156803900Y-104934100D01*
X156803900Y-99484100D02*
X156803900Y-99744100D01*
X156803900Y-104934100D02*
X156803900Y-104674100D01*
X150571400Y-99744100D02*
X150331400Y-99414100D01*
X150811400Y-99414100D01*
X150571400Y-99744100D01*
G36*
X150571400Y-99744100D02*
G01*
X150331400Y-99414100D01*
X150811400Y-99414100D01*
X150571400Y-99744100D01*
G37*
%TO.C,C16*%
X139876248Y-86882500D02*
X140398752Y-86882500D01*
X139876248Y-88352500D02*
X140398752Y-88352500D01*
%TO.C,R22*%
X178932742Y-101197500D02*
X179407258Y-101197500D01*
X178932742Y-102242500D02*
X179407258Y-102242500D01*
%TD*%
%LPC*%
D18*
%TO.C,U3*%
X209655200Y-128899998D03*
X209655200Y-129300000D03*
X209655200Y-129699999D03*
X209655200Y-130099998D03*
X209655200Y-130500000D03*
D19*
X210277599Y-131122399D03*
X210677601Y-131122399D03*
X211077600Y-131122399D03*
X211477599Y-131122399D03*
X211877601Y-131122399D03*
D18*
X212500000Y-130500000D03*
X212500000Y-130099998D03*
X212500000Y-129699999D03*
X212500000Y-129300000D03*
X212500000Y-128899998D03*
D19*
X211877601Y-128277599D03*
X211477599Y-128277599D03*
X211077600Y-128277599D03*
X210677601Y-128277599D03*
X210277599Y-128277599D03*
D20*
X211077600Y-129699999D03*
%TD*%
D21*
%TO.C,TP1*%
X201905000Y-101050000D03*
%TD*%
D22*
%TO.C,L2*%
X201980000Y-95800000D03*
X206780000Y-95800000D03*
%TD*%
D23*
%TO.C,D6*%
X143050000Y-104000000D03*
X145950000Y-104000000D03*
%TD*%
D24*
%TO.C,J3*%
X144250000Y-79437500D03*
D25*
X140750000Y-79437500D03*
X137250000Y-79437500D03*
X133750000Y-79437500D03*
D24*
X144250000Y-72437500D03*
D25*
X140750000Y-72437500D03*
X137250000Y-72437500D03*
X133750000Y-72437500D03*
%TD*%
D26*
%TO.C,R20*%
X178345000Y-96700000D03*
X179995000Y-96700000D03*
%TD*%
D27*
%TO.C,BT1*%
X112390000Y-132290000D03*
X96390000Y-77090000D03*
D28*
X112390000Y-68890000D03*
D29*
X104390000Y-141110000D03*
X104390000Y-68890000D03*
%TD*%
D30*
%TO.C,Q4*%
X202900000Y-130050000D03*
X202900000Y-131950000D03*
X205000000Y-131000000D03*
%TD*%
D31*
%TO.C,C10*%
X146997500Y-96017500D03*
X147957500Y-96017500D03*
%TD*%
%TO.C,C5*%
X162262500Y-84617500D03*
X163222500Y-84617500D03*
%TD*%
D26*
%TO.C,R6*%
X156892500Y-93737500D03*
X158542500Y-93737500D03*
%TD*%
D31*
%TO.C,C8*%
X134520000Y-85500000D03*
X135480000Y-85500000D03*
%TD*%
D32*
%TO.C,J1*%
X183500000Y-87730000D03*
D33*
X183500000Y-90270000D03*
%TD*%
D34*
%TO.C,C19*%
X139187500Y-93527500D03*
X141087500Y-93527500D03*
%TD*%
D26*
%TO.C,R34*%
X206100000Y-117230000D03*
X207750000Y-117230000D03*
%TD*%
D35*
%TO.C,C18*%
X139362500Y-91557500D03*
X140912500Y-91557500D03*
%TD*%
D26*
%TO.C,R10*%
X123702500Y-91627500D03*
X125352500Y-91627500D03*
%TD*%
D36*
%TO.C,R2*%
X157207500Y-83697500D03*
X158227500Y-83697500D03*
%TD*%
D37*
%TO.C,R29*%
X210272500Y-115110000D03*
X213197500Y-115110000D03*
%TD*%
D36*
%TO.C,R5*%
X157207500Y-91227500D03*
X158227500Y-91227500D03*
%TD*%
D26*
%TO.C,R7*%
X123702500Y-85657500D03*
X125352500Y-85657500D03*
%TD*%
D38*
%TO.C,C15*%
X137962500Y-84500000D03*
X141037500Y-84500000D03*
%TD*%
D26*
%TO.C,R8*%
X123702500Y-87647500D03*
X125352500Y-87647500D03*
%TD*%
%TO.C,R32*%
X202090000Y-127270000D03*
X203740000Y-127270000D03*
%TD*%
D36*
%TO.C,R4*%
X157207500Y-88717500D03*
X158227500Y-88717500D03*
%TD*%
D34*
%TO.C,C28*%
X210205000Y-121550000D03*
X212105000Y-121550000D03*
%TD*%
D30*
%TO.C,Q3*%
X198200000Y-130050000D03*
X198200000Y-131950000D03*
X200300000Y-131000000D03*
%TD*%
D36*
%TO.C,R3*%
X157207500Y-86207500D03*
X158227500Y-86207500D03*
%TD*%
D31*
%TO.C,C7*%
X161537500Y-79397500D03*
X162497500Y-79397500D03*
%TD*%
D26*
%TO.C,R23*%
X198080000Y-124760000D03*
X199730000Y-124760000D03*
%TD*%
D31*
%TO.C,C6*%
X153227500Y-93737500D03*
X154187500Y-93737500D03*
%TD*%
D39*
%TO.C,D4*%
X183400000Y-115800000D03*
X183400000Y-116900000D03*
X183400000Y-118000000D03*
X186500000Y-118000000D03*
X186500000Y-116900000D03*
X186500000Y-115800000D03*
%TD*%
D37*
%TO.C,R31*%
X210272500Y-118400000D03*
X213197500Y-118400000D03*
%TD*%
D40*
%TO.C,H1*%
X89500000Y-65500000D03*
%TD*%
D26*
%TO.C,R27*%
X202090000Y-119740000D03*
X203740000Y-119740000D03*
%TD*%
D31*
%TO.C,C13*%
X136787500Y-91557500D03*
X137747500Y-91557500D03*
%TD*%
D41*
%TO.C,U7*%
X154425000Y-108395000D03*
X154425000Y-108895000D03*
X154425000Y-109395000D03*
X154425000Y-109895000D03*
X154425000Y-110395000D03*
X154425000Y-110895000D03*
X157275000Y-110895000D03*
X157275000Y-110395000D03*
X157275000Y-109895000D03*
X157275000Y-109395000D03*
X157275000Y-108895000D03*
X157275000Y-108395000D03*
D42*
X155850000Y-109645000D03*
%TD*%
D31*
%TO.C,C3*%
X153227500Y-88717500D03*
X154187500Y-88717500D03*
%TD*%
D26*
%TO.C,R28*%
X202090000Y-122250000D03*
X203740000Y-122250000D03*
%TD*%
D43*
%TO.C,D1*%
X154835000Y-80167500D03*
X156710000Y-80167500D03*
%TD*%
D31*
%TO.C,C14*%
X136787500Y-93527500D03*
X137747500Y-93527500D03*
%TD*%
D44*
%TO.C,SW1*%
X167925000Y-102925000D03*
X172075000Y-102925000D03*
X167925000Y-105075000D03*
X172050000Y-105075000D03*
%TD*%
D26*
%TO.C,R14*%
X121355000Y-124130000D03*
X123005000Y-124130000D03*
%TD*%
D45*
%TO.C,U2*%
X119287500Y-105175000D03*
X119287500Y-105575000D03*
X119287500Y-105975000D03*
X119287500Y-106375000D03*
X119287500Y-106775000D03*
X119287500Y-107175000D03*
X119287500Y-107575000D03*
X119287500Y-107975000D03*
X119287500Y-108375000D03*
X119287500Y-108775000D03*
X119287500Y-109175000D03*
X119287500Y-109575000D03*
X119287500Y-109975000D03*
X119287500Y-110375000D03*
D46*
X120125000Y-111212500D03*
X120525000Y-111212500D03*
X120925000Y-111212500D03*
X121325000Y-111212500D03*
X121725000Y-111212500D03*
X122125000Y-111212500D03*
X122525000Y-111212500D03*
X122925000Y-111212500D03*
X123325000Y-111212500D03*
X123725000Y-111212500D03*
X124125000Y-111212500D03*
X124525000Y-111212500D03*
X124925000Y-111212500D03*
X125325000Y-111212500D03*
D45*
X126162500Y-110375000D03*
X126162500Y-109975000D03*
X126162500Y-109575000D03*
X126162500Y-109175000D03*
X126162500Y-108775000D03*
X126162500Y-108375000D03*
X126162500Y-107975000D03*
X126162500Y-107575000D03*
X126162500Y-107175000D03*
X126162500Y-106775000D03*
X126162500Y-106375000D03*
X126162500Y-105975000D03*
X126162500Y-105575000D03*
X126162500Y-105175000D03*
D46*
X125325000Y-104337500D03*
X124925000Y-104337500D03*
X124525000Y-104337500D03*
X124125000Y-104337500D03*
X123725000Y-104337500D03*
X123325000Y-104337500D03*
X122925000Y-104337500D03*
X122525000Y-104337500D03*
X122125000Y-104337500D03*
X121725000Y-104337500D03*
X121325000Y-104337500D03*
X120925000Y-104337500D03*
X120525000Y-104337500D03*
X120125000Y-104337500D03*
D47*
X122725000Y-107775000D03*
%TD*%
D35*
%TO.C,C32*%
X198130000Y-119740000D03*
X199680000Y-119740000D03*
%TD*%
D26*
%TO.C,R13*%
X159380000Y-110760000D03*
X161030000Y-110760000D03*
%TD*%
D34*
%TO.C,C20*%
X144050000Y-85500000D03*
X145950000Y-85500000D03*
%TD*%
D31*
%TO.C,C4*%
X153227500Y-91227500D03*
X154187500Y-91227500D03*
%TD*%
D48*
%TO.C,U8*%
X149825000Y-121800000D03*
X156175000Y-121800000D03*
X149825000Y-126880000D03*
X156175000Y-126880000D03*
X150460000Y-144660000D03*
X153000000Y-144660000D03*
X155540000Y-144660000D03*
D49*
X145380000Y-127832500D03*
X145380000Y-141167500D03*
X160620000Y-141167500D03*
X160620000Y-127832500D03*
D48*
X142840000Y-131960000D03*
X142840000Y-134500000D03*
X142840000Y-137040000D03*
%TD*%
D32*
%TO.C,J4*%
X127150000Y-118000000D03*
D33*
X127150000Y-120540000D03*
%TD*%
D50*
%TO.C,J8*%
X121610000Y-137895000D03*
X127390000Y-137895000D03*
D51*
X121300000Y-136820000D03*
X122100000Y-136820000D03*
D52*
X123250000Y-136820000D03*
X124250000Y-136820000D03*
X124750000Y-136820000D03*
X125750000Y-136820000D03*
D51*
X126900000Y-136820000D03*
X127700000Y-136820000D03*
X127700000Y-136820000D03*
X126900000Y-136820000D03*
D52*
X126250000Y-136820000D03*
X125250000Y-136820000D03*
X123750000Y-136820000D03*
X122750000Y-136820000D03*
D51*
X122100000Y-136820000D03*
X121300000Y-136820000D03*
D53*
X120180000Y-137395000D03*
D54*
X120180000Y-141575000D03*
D53*
X128820000Y-137395000D03*
D54*
X128820000Y-141575000D03*
%TD*%
D26*
%TO.C,R26*%
X202090000Y-117230000D03*
X203740000Y-117230000D03*
%TD*%
D55*
%TO.C,D2*%
X128500000Y-132000000D03*
X132500000Y-132000000D03*
%TD*%
D31*
%TO.C,C2*%
X153227500Y-86207500D03*
X154187500Y-86207500D03*
%TD*%
D44*
%TO.C,SW2*%
X167875000Y-112000000D03*
X172025000Y-112000000D03*
X167875000Y-114150000D03*
X172000000Y-114150000D03*
%TD*%
D35*
%TO.C,C24*%
X150500000Y-108500000D03*
X152050000Y-108500000D03*
%TD*%
D40*
%TO.C,H2*%
X88500000Y-143500000D03*
%TD*%
D56*
%TO.C,JP1*%
X182700000Y-99000000D03*
D57*
X184000000Y-99000000D03*
%TD*%
D35*
%TO.C,C31*%
X198130000Y-117230000D03*
X199680000Y-117230000D03*
%TD*%
D31*
%TO.C,C1*%
X153227500Y-83697500D03*
X154187500Y-83697500D03*
%TD*%
D26*
%TO.C,R16*%
X165350000Y-121990000D03*
X167000000Y-121990000D03*
%TD*%
D58*
%TO.C,U4*%
X116862500Y-131050000D03*
X116862500Y-132000000D03*
X116862500Y-132950000D03*
X119137500Y-132950000D03*
X119137500Y-132000000D03*
X119137500Y-131050000D03*
%TD*%
D26*
%TO.C,R12*%
X159380000Y-108250000D03*
X161030000Y-108250000D03*
%TD*%
D31*
%TO.C,C9*%
X136787500Y-87617500D03*
X137747500Y-87617500D03*
%TD*%
D32*
%TO.C,J7*%
X177500000Y-124225000D03*
D33*
X177500000Y-126765000D03*
%TD*%
D35*
%TO.C,C23*%
X145725000Y-92500000D03*
X147275000Y-92500000D03*
%TD*%
D59*
%TO.C,Y1*%
X130125000Y-102625000D03*
X132325000Y-102625000D03*
X132325000Y-100925000D03*
X130125000Y-100925000D03*
%TD*%
D26*
%TO.C,R17*%
X165350000Y-124500000D03*
X167000000Y-124500000D03*
%TD*%
%TO.C,R19*%
X178345000Y-94190000D03*
X179995000Y-94190000D03*
%TD*%
D35*
%TO.C,C21*%
X145725000Y-88000000D03*
X147275000Y-88000000D03*
%TD*%
D32*
%TO.C,J5*%
X131800000Y-118000000D03*
D33*
X131800000Y-120540000D03*
%TD*%
D60*
%TO.C,U5*%
X131000000Y-94850000D03*
X131950000Y-94850000D03*
X132900000Y-94850000D03*
X132900000Y-92150000D03*
X131000000Y-92150000D03*
%TD*%
D36*
%TO.C,R1*%
X153197500Y-96247500D03*
X154217500Y-96247500D03*
%TD*%
D31*
%TO.C,C12*%
X136787500Y-89587500D03*
X137747500Y-89587500D03*
%TD*%
D26*
%TO.C,R11*%
X123702500Y-93617500D03*
X125352500Y-93617500D03*
%TD*%
%TO.C,R25*%
X202090000Y-114720000D03*
X203740000Y-114720000D03*
%TD*%
%TO.C,R35*%
X206100000Y-119740000D03*
X207750000Y-119740000D03*
%TD*%
D35*
%TO.C,C30*%
X178395000Y-89170000D03*
X179945000Y-89170000D03*
%TD*%
D34*
%TO.C,C25*%
X150325000Y-111510000D03*
X152225000Y-111510000D03*
%TD*%
D26*
%TO.C,R15*%
X121355000Y-126640000D03*
X123005000Y-126640000D03*
%TD*%
D35*
%TO.C,C29*%
X198130000Y-114720000D03*
X199680000Y-114720000D03*
%TD*%
%TO.C,C17*%
X139362500Y-89587500D03*
X140912500Y-89587500D03*
%TD*%
D61*
%TO.C,Q1*%
X125692500Y-124325000D03*
X125692500Y-126225000D03*
X127567500Y-125275000D03*
%TD*%
D40*
%TO.C,H4*%
X181000000Y-141500000D03*
%TD*%
D35*
%TO.C,C33*%
X198130000Y-122250000D03*
X199680000Y-122250000D03*
%TD*%
D26*
%TO.C,R21*%
X178345000Y-99210000D03*
X179995000Y-99210000D03*
%TD*%
D31*
%TO.C,C11*%
X146997500Y-99027500D03*
X147957500Y-99027500D03*
%TD*%
D26*
%TO.C,R9*%
X123702500Y-89637500D03*
X125352500Y-89637500D03*
%TD*%
%TO.C,R33*%
X206100000Y-114720000D03*
X207750000Y-114720000D03*
%TD*%
D35*
%TO.C,C27*%
X178395000Y-86660000D03*
X179945000Y-86660000D03*
%TD*%
D62*
%TO.C,U6*%
X133700000Y-107200000D03*
X133700000Y-109500000D03*
D63*
X140000000Y-109500000D03*
D62*
X133700000Y-111800000D03*
%TD*%
D64*
%TO.C,D5*%
X219575000Y-125500000D03*
X216425000Y-125500000D03*
%TD*%
D26*
%TO.C,R30*%
X202090000Y-124760000D03*
X203740000Y-124760000D03*
%TD*%
D61*
%TO.C,Q2*%
X182682500Y-94055000D03*
X182682500Y-95955000D03*
X184557500Y-95005000D03*
%TD*%
D35*
%TO.C,C26*%
X121405000Y-131150000D03*
X122955000Y-131150000D03*
%TD*%
D26*
%TO.C,R18*%
X178345000Y-91680000D03*
X179995000Y-91680000D03*
%TD*%
D34*
%TO.C,C22*%
X145550000Y-90000000D03*
X147450000Y-90000000D03*
%TD*%
D32*
%TO.C,J2*%
X218865000Y-115790000D03*
D33*
X218865000Y-118330000D03*
%TD*%
D65*
%TO.C,D3*%
X134662500Y-139460000D03*
X137462500Y-139460000D03*
%TD*%
D40*
%TO.C,H3*%
X180000000Y-66500000D03*
%TD*%
D26*
%TO.C,R24*%
X198080000Y-127270000D03*
X199730000Y-127270000D03*
%TD*%
D66*
%TO.C,U1*%
X150478900Y-100304100D03*
X150478900Y-101574100D03*
X150478900Y-102844100D03*
X150478900Y-104114100D03*
X157678900Y-104114100D03*
X157678900Y-102844100D03*
X157678900Y-101574100D03*
X157678900Y-100304100D03*
%TD*%
D34*
%TO.C,C16*%
X139187500Y-87617500D03*
X141087500Y-87617500D03*
%TD*%
D26*
%TO.C,R22*%
X178345000Y-101720000D03*
X179995000Y-101720000D03*
%TD*%
%LPD*%
M02*
