%TF.GenerationSoftware,KiCad,Pcbnew,8.0.6*%
%TF.CreationDate,2024-10-28T23:36:15+00:00*%
%TF.ProjectId,StepUp,53746570-5570-42e6-9b69-6361645f7063,v0.1*%
%TF.SameCoordinates,Original*%
%TF.FileFunction,Copper,L4,Bot*%
%TF.FilePolarity,Positive*%
%FSLAX46Y46*%
G04 Gerber Fmt 4.6, Leading zero omitted, Abs format (unit mm)*
G04 Created by KiCad (PCBNEW 8.0.6) date 2024-10-28 23:36:15*
%MOMM*%
%LPD*%
G01*
G04 APERTURE LIST*
G04 Aperture macros list*
%AMFreePoly0*
4,1,19,0.550000,-0.750000,0.000000,-0.750000,0.000000,-0.744911,-0.071157,-0.744911,-0.207708,-0.704816,-0.327430,-0.627875,-0.420627,-0.520320,-0.479746,-0.390866,-0.500000,-0.250000,-0.500000,0.250000,-0.479746,0.390866,-0.420627,0.520320,-0.327430,0.627875,-0.207708,0.704816,-0.071157,0.744911,0.000000,0.744911,0.000000,0.750000,0.550000,0.750000,0.550000,-0.750000,0.550000,-0.750000,
$1*%
%AMFreePoly1*
4,1,19,0.000000,0.744911,0.071157,0.744911,0.207708,0.704816,0.327430,0.627875,0.420627,0.520320,0.479746,0.390866,0.500000,0.250000,0.500000,-0.250000,0.479746,-0.390866,0.420627,-0.520320,0.327430,-0.627875,0.207708,-0.704816,0.071157,-0.744911,0.000000,-0.744911,0.000000,-0.750000,-0.550000,-0.750000,-0.550000,0.750000,0.000000,0.750000,0.000000,0.744911,0.000000,0.744911,
$1*%
G04 Aperture macros list end*
%TA.AperFunction,EtchedComponent*%
%ADD10C,0.000000*%
%TD*%
%TA.AperFunction,ComponentPad*%
%ADD11O,1.000000X2.100000*%
%TD*%
%TA.AperFunction,ComponentPad*%
%ADD12O,1.000000X1.800000*%
%TD*%
%TA.AperFunction,ComponentPad*%
%ADD13C,0.600000*%
%TD*%
%TA.AperFunction,HeatsinkPad*%
%ADD14C,0.600000*%
%TD*%
%TA.AperFunction,HeatsinkPad*%
%ADD15R,2.500000X1.600000*%
%TD*%
%TA.AperFunction,ComponentPad*%
%ADD16R,1.700000X1.700000*%
%TD*%
%TA.AperFunction,ComponentPad*%
%ADD17O,1.700000X1.700000*%
%TD*%
%TA.AperFunction,ComponentPad*%
%ADD18C,1.550000*%
%TD*%
%TA.AperFunction,ComponentPad*%
%ADD19C,2.000000*%
%TD*%
%TA.AperFunction,ComponentPad*%
%ADD20C,1.350000*%
%TD*%
%TA.AperFunction,ComponentPad*%
%ADD21C,1.650000*%
%TD*%
%TA.AperFunction,ComponentPad*%
%ADD22C,1.950000*%
%TD*%
%TA.AperFunction,ComponentPad*%
%ADD23C,2.400000*%
%TD*%
%TA.AperFunction,ComponentPad*%
%ADD24R,2.745000X2.745000*%
%TD*%
%TA.AperFunction,ComponentPad*%
%ADD25C,2.745000*%
%TD*%
%TA.AperFunction,SMDPad,CuDef*%
%ADD26FreePoly0,180.000000*%
%TD*%
%TA.AperFunction,SMDPad,CuDef*%
%ADD27R,1.000000X1.500000*%
%TD*%
%TA.AperFunction,SMDPad,CuDef*%
%ADD28FreePoly1,180.000000*%
%TD*%
%ADD29C,0.350000*%
%ADD30O,0.600000X1.700000*%
%ADD31O,0.600000X1.400000*%
%ADD32C,0.300000*%
G04 APERTURE END LIST*
D10*
%TA.AperFunction,EtchedComponent*%
%TO.C,JP2*%
G36*
X78250500Y-105700000D02*
G01*
X77750500Y-105700000D01*
X77750500Y-105100000D01*
X78250500Y-105100000D01*
X78250500Y-105700000D01*
G37*
%TD.AperFunction*%
%TD*%
D11*
%TO.P,J1,S1,SHIELD*%
%TO.N,GND*%
X77738000Y-123525000D03*
D12*
X77738000Y-127705000D03*
D11*
X86378000Y-123525000D03*
D12*
X86378000Y-127705000D03*
%TD*%
D13*
%TO.P,U3,57,GND*%
%TO.N,GND*%
X91834000Y-113388000D03*
X91834000Y-112113000D03*
X91834000Y-110838000D03*
X90559000Y-113388000D03*
X90559000Y-112113000D03*
X90559000Y-110838000D03*
X89284000Y-113388000D03*
X89284000Y-112113000D03*
X89284000Y-110838000D03*
%TD*%
D14*
%TO.P,U7,13,PGND*%
%TO.N,GND*%
X62619000Y-75470000D03*
X63569000Y-75470000D03*
X64519000Y-75470000D03*
D15*
X63569000Y-74970000D03*
D14*
X62619000Y-74470000D03*
X63569000Y-74470000D03*
X64519000Y-74470000D03*
%TD*%
D16*
%TO.P,J2,1,Pin_1*%
%TO.N,/MCU/SWCLK*%
X101183000Y-118915000D03*
D17*
%TO.P,J2,2,Pin_2*%
%TO.N,/MCU/UART_0_TX*%
X98643000Y-118915000D03*
%TO.P,J2,3,Pin_3*%
%TO.N,/MCU/SWD*%
X101183000Y-116375000D03*
%TO.P,J2,4,Pin_4*%
%TO.N,/MCU/UART_0_RX*%
X98643000Y-116375000D03*
%TO.P,J2,5,Pin_5*%
%TO.N,GND*%
X101183000Y-113835000D03*
%TO.P,J2,6,Pin_6*%
X98643000Y-113835000D03*
%TD*%
D18*
%TO.P,SW3,1*%
%TO.N,GND*%
X101908000Y-80190000D03*
%TO.P,SW3,2*%
%TO.N,Net-(D13-Pad3)*%
X101908000Y-84690000D03*
D19*
%TO.P,SW3,3*%
%TO.N,N/C*%
X99418000Y-78935000D03*
%TO.P,SW3,4*%
X99418000Y-85945000D03*
%TD*%
D20*
%TO.P,BZ1,1,1*%
%TO.N,Net-(Q7-D)*%
X79050500Y-112400000D03*
%TO.P,BZ1,2,2*%
%TO.N,Net-(JP2-C)*%
X84050500Y-112400000D03*
%TD*%
D21*
%TO.P,JOY1,1,1*%
%TO.N,+3V3*%
X75974400Y-93898501D03*
%TO.P,JOY1,2,2*%
%TO.N,JOY_AXIS_MCU_H*%
X75974400Y-91398501D03*
%TO.P,JOY1,3,3*%
%TO.N,GND*%
X75974400Y-88898501D03*
%TO.P,JOY1,11,1'*%
X87204400Y-100128501D03*
%TO.P,JOY1,12,2'*%
%TO.N,JOY_AXIS_MCU_V*%
X84704400Y-100128501D03*
%TO.P,JOY1,13,3'*%
%TO.N,+3V3*%
X82204400Y-100128501D03*
D22*
%TO.P,JOY1,A1,COM_1*%
%TO.N,JOY_MCU_BTN*%
X90454400Y-88148501D03*
%TO.P,JOY1,B1,COM_2*%
X90454400Y-94648501D03*
%TO.P,JOY1,C1,NO_1*%
%TO.N,GND*%
X94954400Y-88148501D03*
%TO.P,JOY1,D1,NO_2*%
X94954400Y-94648501D03*
D23*
%TO.P,JOY1,MH1,MH1*%
%TO.N,unconnected-(JOY1-PadMH1)*%
X79704400Y-97723501D03*
%TO.P,JOY1,MH2,MH2*%
%TO.N,unconnected-(JOY1-PadMH2)*%
X79704400Y-85073501D03*
%TO.P,JOY1,MH3,MH3*%
%TO.N,unconnected-(JOY1-PadMH3)*%
X89704400Y-85073501D03*
%TO.P,JOY1,MH4,MH4*%
%TO.N,unconnected-(JOY1-PadMH4)*%
X89704400Y-97723501D03*
%TD*%
D24*
%TO.P,BT2,1,1*%
%TO.N,GND*%
X68698000Y-108720000D03*
D25*
%TO.P,BT2,2,2*%
X63618000Y-108720000D03*
%TO.P,BT2,3,3*%
%TO.N,/Power/VBAT_PACK_NEG*%
X66158000Y-116340000D03*
%TD*%
D21*
%TO.P,J3,1_1,1_1*%
%TO.N,OA2_OUT*%
X80658000Y-60140000D03*
%TO.P,J3,1_2,1_2*%
X80658000Y-55140000D03*
%TO.P,J3,2_1,2_1*%
%TO.N,OA1_OUT*%
X84158000Y-60140000D03*
%TO.P,J3,2_2,2_2*%
X84158000Y-55140000D03*
%TO.P,J3,3_1,3_1*%
%TO.N,OB1_OUT*%
X87658000Y-60140000D03*
%TO.P,J3,3_2,3_2*%
X87658000Y-55140000D03*
%TO.P,J3,4_1,4_1*%
%TO.N,OB2_OUT*%
X91158000Y-60140000D03*
%TO.P,J3,4_2,4_2*%
X91158000Y-55140000D03*
%TD*%
D26*
%TO.P,JP2,1,A*%
%TO.N,+3V3*%
X78650500Y-105400000D03*
D27*
%TO.P,JP2,2,C*%
%TO.N,Net-(JP2-C)*%
X77350500Y-105400000D03*
D28*
%TO.P,JP2,3,B*%
%TO.N,VMotor*%
X76050500Y-105400000D03*
%TD*%
D24*
%TO.P,BT1,1,1*%
%TO.N,GND*%
X63618000Y-62720000D03*
D25*
%TO.P,BT1,2,2*%
X68698000Y-62720000D03*
%TO.P,BT1,3,3*%
%TO.N,/Power/VBAT_PACK_POS*%
X66158000Y-55100000D03*
%TD*%
%TA.AperFunction,Conductor*%
%TO.N,/Motor Driver/BRB*%
G36*
X89329787Y-79559438D02*
G01*
X89454925Y-79611272D01*
X89495152Y-79638152D01*
X91168847Y-81311847D01*
X91195727Y-81352075D01*
X91247561Y-81477212D01*
X91257000Y-81524665D01*
X91257000Y-82375334D01*
X91247561Y-82422787D01*
X91203432Y-82529324D01*
X91159591Y-82583727D01*
X91136324Y-82596432D01*
X91029788Y-82640561D01*
X90982335Y-82650000D01*
X90731665Y-82650000D01*
X90684212Y-82640561D01*
X90559075Y-82588727D01*
X90518847Y-82561847D01*
X88827711Y-80870711D01*
X88757000Y-80800000D01*
X88657002Y-80800000D01*
X87631665Y-80800000D01*
X87584212Y-80790561D01*
X87459075Y-80738727D01*
X87418847Y-80711847D01*
X87345152Y-80638152D01*
X87318272Y-80597923D01*
X87266439Y-80472786D01*
X87257000Y-80425334D01*
X87257000Y-80074665D01*
X87266439Y-80027213D01*
X87318272Y-79902076D01*
X87345149Y-79861850D01*
X87568850Y-79638149D01*
X87609074Y-79611272D01*
X87671644Y-79585355D01*
X87734213Y-79559439D01*
X87781665Y-79550000D01*
X89282335Y-79550000D01*
X89329787Y-79559438D01*
G37*
%TD.AperFunction*%
%TD*%
%TA.AperFunction,Conductor*%
%TO.N,/Motor Driver/BRA*%
G36*
X84922787Y-79559438D02*
G01*
X85047925Y-79611272D01*
X85088152Y-79638152D01*
X85311847Y-79861847D01*
X85338727Y-79902075D01*
X85390561Y-80027212D01*
X85400000Y-80074665D01*
X85400000Y-80425334D01*
X85390561Y-80472787D01*
X85338727Y-80597924D01*
X85311847Y-80638152D01*
X85238152Y-80711847D01*
X85197925Y-80738727D01*
X85153572Y-80757098D01*
X85072786Y-80790561D01*
X85025335Y-80800000D01*
X83900000Y-80800000D01*
X83829289Y-80870710D01*
X83829288Y-80870711D01*
X82138152Y-82561847D01*
X82097925Y-82588727D01*
X82079324Y-82596432D01*
X81972786Y-82640561D01*
X81925335Y-82650000D01*
X81674665Y-82650000D01*
X81627212Y-82640561D01*
X81520674Y-82596431D01*
X81466272Y-82552591D01*
X81453567Y-82529323D01*
X81409439Y-82422786D01*
X81400000Y-82375334D01*
X81400000Y-81524665D01*
X81409439Y-81477213D01*
X81461272Y-81352076D01*
X81488149Y-81311850D01*
X83161850Y-79638149D01*
X83202074Y-79611272D01*
X83264644Y-79585355D01*
X83327213Y-79559439D01*
X83374665Y-79550000D01*
X84875335Y-79550000D01*
X84922787Y-79559438D01*
G37*
%TD.AperFunction*%
%TD*%
D29*
X79168000Y-124025000D03*
X84948000Y-124025000D03*
D30*
X77738000Y-123525000D03*
D31*
X77738000Y-127705000D03*
D30*
X86378000Y-123525000D03*
D31*
X86378000Y-127705000D03*
D32*
X91834000Y-113388000D03*
X91834000Y-112113000D03*
X91834000Y-110838000D03*
X90559000Y-113388000D03*
X90559000Y-112113000D03*
X90559000Y-110838000D03*
X89284000Y-113388000D03*
X89284000Y-112113000D03*
X89284000Y-110838000D03*
D29*
X59708000Y-126890000D03*
D32*
X62619000Y-75470000D03*
X63569000Y-75470000D03*
X64519000Y-75470000D03*
X62619000Y-74470000D03*
X63569000Y-74470000D03*
X64519000Y-74470000D03*
D29*
X100458000Y-53090000D03*
X59708000Y-53090000D03*
X101183000Y-118915000D03*
X98643000Y-118915000D03*
X101183000Y-116375000D03*
X98643000Y-116375000D03*
X101183000Y-113835000D03*
X98643000Y-113835000D03*
X100458000Y-126890000D03*
X101908000Y-80190000D03*
X101908000Y-84690000D03*
X99418000Y-78935000D03*
X99418000Y-85945000D03*
X79050500Y-112400000D03*
X84050500Y-112400000D03*
X75974400Y-93898501D03*
X75974400Y-91398501D03*
X75974400Y-88898501D03*
X87204400Y-100128501D03*
X84704400Y-100128501D03*
X82204400Y-100128501D03*
X90454400Y-88148501D03*
X90454400Y-94648501D03*
X94954400Y-88148501D03*
X94954400Y-94648501D03*
X79704400Y-97723501D03*
X79704400Y-85073501D03*
X89704400Y-85073501D03*
X89704400Y-97723501D03*
X68698000Y-108720000D03*
X63618000Y-108720000D03*
X66158000Y-116340000D03*
X80658000Y-60140000D03*
X80658000Y-55140000D03*
X84158000Y-60140000D03*
X84158000Y-55140000D03*
X87658000Y-60140000D03*
X87658000Y-55140000D03*
X91158000Y-60140000D03*
X91158000Y-55140000D03*
X63618000Y-62720000D03*
X68698000Y-62720000D03*
X66158000Y-55100000D03*
M02*
