%TF.GenerationSoftware,KiCad,Pcbnew,8.0.2*%
%TF.CreationDate,2024-05-27T20:09:00+01:00*%
%TF.ProjectId,StepUp,53746570-5570-42e6-9b69-6361645f7063,v1.0*%
%TF.SameCoordinates,Original*%
%TF.FileFunction,Copper,L4,Bot*%
%TF.FilePolarity,Positive*%
%FSLAX46Y46*%
G04 Gerber Fmt 4.6, Leading zero omitted, Abs format (unit mm)*
G04 Created by KiCad (PCBNEW 8.0.2) date 2024-05-27 20:09:00*
%MOMM*%
%LPD*%
G01*
G04 APERTURE LIST*
G04 Aperture macros list*
%AMFreePoly0*
4,1,19,0.500000,-0.750000,0.000000,-0.750000,0.000000,-0.744911,-0.071157,-0.744911,-0.207708,-0.704816,-0.327430,-0.627875,-0.420627,-0.520320,-0.479746,-0.390866,-0.500000,-0.250000,-0.500000,0.250000,-0.479746,0.390866,-0.420627,0.520320,-0.327430,0.627875,-0.207708,0.704816,-0.071157,0.744911,0.000000,0.744911,0.000000,0.750000,0.500000,0.750000,0.500000,-0.750000,0.500000,-0.750000,
$1*%
%AMFreePoly1*
4,1,19,0.000000,0.744911,0.071157,0.744911,0.207708,0.704816,0.327430,0.627875,0.420627,0.520320,0.479746,0.390866,0.500000,0.250000,0.500000,-0.250000,0.479746,-0.390866,0.420627,-0.520320,0.327430,-0.627875,0.207708,-0.704816,0.071157,-0.744911,0.000000,-0.744911,0.000000,-0.750000,-0.500000,-0.750000,-0.500000,0.750000,0.000000,0.750000,0.000000,0.744911,0.000000,0.744911,
$1*%
G04 Aperture macros list end*
%TA.AperFunction,ComponentPad*%
%ADD10C,1.980000*%
%TD*%
%TA.AperFunction,ComponentPad*%
%ADD11O,1.000000X2.100000*%
%TD*%
%TA.AperFunction,ComponentPad*%
%ADD12O,1.000000X1.800000*%
%TD*%
%TA.AperFunction,ComponentPad*%
%ADD13C,0.600000*%
%TD*%
%TA.AperFunction,ComponentPad*%
%ADD14C,1.650000*%
%TD*%
%TA.AperFunction,ComponentPad*%
%ADD15C,1.950000*%
%TD*%
%TA.AperFunction,ComponentPad*%
%ADD16C,2.400000*%
%TD*%
%TA.AperFunction,HeatsinkPad*%
%ADD17C,0.600000*%
%TD*%
%TA.AperFunction,HeatsinkPad*%
%ADD18R,2.500000X1.600000*%
%TD*%
%TA.AperFunction,ComponentPad*%
%ADD19R,1.700000X1.700000*%
%TD*%
%TA.AperFunction,ComponentPad*%
%ADD20O,1.700000X1.700000*%
%TD*%
%TA.AperFunction,ComponentPad*%
%ADD21R,1.800000X1.800000*%
%TD*%
%TA.AperFunction,ComponentPad*%
%ADD22C,1.800000*%
%TD*%
%TA.AperFunction,SMDPad,CuDef*%
%ADD23FreePoly0,180.000000*%
%TD*%
%TA.AperFunction,SMDPad,CuDef*%
%ADD24FreePoly1,180.000000*%
%TD*%
%TA.AperFunction,SMDPad,CuDef*%
%ADD25FreePoly0,0.000000*%
%TD*%
%TA.AperFunction,SMDPad,CuDef*%
%ADD26FreePoly1,0.000000*%
%TD*%
%TA.AperFunction,ViaPad*%
%ADD27C,0.457200*%
%TD*%
%TA.AperFunction,Conductor*%
%ADD28C,0.152400*%
%TD*%
%TA.AperFunction,Conductor*%
%ADD29C,0.304800*%
%TD*%
%TA.AperFunction,Conductor*%
%ADD30C,0.400000*%
%TD*%
%TA.AperFunction,Conductor*%
%ADD31C,0.508000*%
%TD*%
%TA.AperFunction,Conductor*%
%ADD32C,0.762000*%
%TD*%
G04 APERTURE END LIST*
D10*
%TO.P,BT1,N*%
%TO.N,GND*%
X104648000Y-141012000D03*
%TO.P,BT1,P*%
%TO.N,Net-(D14-K)*%
X104648000Y-68792000D03*
%TD*%
D11*
%TO.P,J1,S1,SHIELD*%
%TO.N,GND*%
X163574000Y-137865000D03*
D12*
X163574000Y-142045000D03*
D11*
X172214000Y-137865000D03*
D12*
X172214000Y-142045000D03*
%TD*%
D13*
%TO.P,U3,57,GND*%
%TO.N,GND*%
X169174000Y-105420000D03*
X169174000Y-104145000D03*
X169174000Y-102870000D03*
X167899000Y-105420000D03*
X167899000Y-104145000D03*
X167899000Y-102870000D03*
X166624000Y-105420000D03*
X166624000Y-104145000D03*
X166624000Y-102870000D03*
%TD*%
D14*
%TO.P,JOY1,1,1*%
%TO.N,+3V3*%
X155062500Y-112275000D03*
%TO.P,JOY1,2,2*%
%TO.N,JOYSTSICK_AXIS_H*%
X152562500Y-112275000D03*
%TO.P,JOY1,3,3*%
%TO.N,GND*%
X150062500Y-112275000D03*
%TO.P,JOY1,11,1'*%
%TO.N,+3V3*%
X161292500Y-123505000D03*
%TO.P,JOY1,12,2'*%
%TO.N,JOYSTSICK_AXIS_V*%
X161292500Y-121005000D03*
%TO.P,JOY1,13,3'*%
%TO.N,GND*%
X161292500Y-118505000D03*
D15*
%TO.P,JOY1,A1,COM_1*%
X149312500Y-126755000D03*
%TO.P,JOY1,B1,COM_2*%
%TO.N,JOYSTSICK_BUTTON*%
X155812500Y-126755000D03*
%TO.P,JOY1,C1,NO_1*%
%TO.N,GND*%
X149312500Y-131255000D03*
%TO.P,JOY1,D1,NO_2*%
%TO.N,JOYSTSICK_BUTTON*%
X155812500Y-131255000D03*
D16*
%TO.P,JOY1,MH1,MH1*%
%TO.N,unconnected-(JOY1-PadMH1)*%
X158887500Y-116005000D03*
%TO.P,JOY1,MH2,MH2*%
%TO.N,unconnected-(JOY1-PadMH2)*%
X146237500Y-116005000D03*
%TO.P,JOY1,MH3,MH3*%
%TO.N,unconnected-(JOY1-PadMH3)*%
X146237500Y-126005000D03*
%TO.P,JOY1,MH4,MH4*%
%TO.N,unconnected-(JOY1-PadMH4)*%
X158887500Y-126005000D03*
%TD*%
D17*
%TO.P,U8,13,PGND*%
%TO.N,GND*%
X119669000Y-90320000D03*
X120619000Y-90320000D03*
X121569000Y-90320000D03*
D18*
X120619000Y-89820000D03*
D17*
X119669000Y-89320000D03*
X120619000Y-89320000D03*
X121569000Y-89320000D03*
%TD*%
D19*
%TO.P,J4,1,Pin_1*%
%TO.N,/MCU/GPIO8*%
X182880000Y-97706000D03*
D20*
%TO.P,J4,2,Pin_2*%
%TO.N,/MCU/GPIO10*%
X180340000Y-97706000D03*
%TO.P,J4,3,Pin_3*%
%TO.N,/MCU/GPIO9*%
X182880000Y-95166000D03*
%TO.P,J4,4,Pin_4*%
%TO.N,/MCU/GPIO11*%
X180340000Y-95166000D03*
%TO.P,J4,5,Pin_5*%
%TO.N,GND*%
X182880000Y-92626000D03*
%TO.P,J4,6,Pin_6*%
X180340000Y-92626000D03*
%TO.P,J4,7,Pin_7*%
%TO.N,/MCU/GPIO14*%
X182880000Y-90086000D03*
%TO.P,J4,8,Pin_8*%
%TO.N,/MCU/GPIO12*%
X180340000Y-90086000D03*
%TO.P,J4,9,Pin_9*%
%TO.N,/MCU/GPIO15*%
X182880000Y-87546000D03*
%TO.P,J4,10,Pin_10*%
%TO.N,/MCU/GPIO13*%
X180340000Y-87546000D03*
%TO.P,J4,11,Pin_11*%
%TO.N,GND*%
X182880000Y-85006000D03*
%TO.P,J4,12,Pin_12*%
X180340000Y-85006000D03*
%TD*%
D21*
%TO.P,J5,1_A,1*%
%TO.N,OB2_OUT*%
X148277400Y-77689501D03*
%TO.P,J5,1_B,1__1*%
X148277400Y-70689501D03*
D22*
%TO.P,J5,2_A,2*%
%TO.N,OB1_OUT*%
X144777400Y-77689501D03*
%TO.P,J5,2_B,2__1*%
X144777400Y-70689501D03*
%TO.P,J5,3_A,3*%
%TO.N,OA1_OUT*%
X141277400Y-77689501D03*
%TO.P,J5,3_B,3__1*%
X141277400Y-70689501D03*
%TO.P,J5,4_A,4*%
%TO.N,OA2_OUT*%
X137777400Y-77689501D03*
%TO.P,J5,4_B,4__1*%
X137777400Y-70689501D03*
%TD*%
D19*
%TO.P,J3,1,Pin_1*%
%TO.N,/MCU/SWCLK*%
X182875000Y-106525000D03*
D20*
%TO.P,J3,2,Pin_2*%
%TO.N,/MCU/UART_0_TX*%
X180335000Y-106525000D03*
%TO.P,J3,3,Pin_3*%
%TO.N,/MCU/SWD*%
X182875000Y-103985000D03*
%TO.P,J3,4,Pin_4*%
%TO.N,/MCU/UART_0_RX*%
X180335000Y-103985000D03*
%TO.P,J3,5,Pin_5*%
%TO.N,GND*%
X182875000Y-101445000D03*
%TO.P,J3,6,Pin_6*%
X180335000Y-101445000D03*
%TD*%
D19*
%TO.P,J8,1,Pin_1*%
%TO.N,Vbat*%
X117852000Y-129337000D03*
D20*
%TO.P,J8,2,Pin_2*%
%TO.N,Net-(J8-Pin_2)*%
X117852000Y-131877000D03*
%TD*%
D19*
%TO.P,J9,1,Pin_1*%
%TO.N,VMotor*%
X130561000Y-96774000D03*
D20*
%TO.P,J9,2,Pin_2*%
%TO.N,BOOST_VOUT*%
X128021000Y-96774000D03*
%TD*%
D19*
%TO.P,J6,1,Pin_1*%
%TO.N,V_USB*%
X125800000Y-120175000D03*
D20*
%TO.P,J6,2,Pin_2*%
%TO.N,Net-(D11-A)*%
X125800000Y-117635000D03*
%TD*%
D19*
%TO.P,J10,1,Pin_1*%
%TO.N,VMotor*%
X160875000Y-69675000D03*
D20*
%TO.P,J10,2,Pin_2*%
%TO.N,Vbat*%
X160875000Y-67135000D03*
%TO.P,J10,3,Pin_3*%
%TO.N,+3V3*%
X163415000Y-69675000D03*
%TO.P,J10,4,Pin_4*%
%TO.N,V_USB*%
X163415000Y-67135000D03*
%TO.P,J10,5,Pin_5*%
%TO.N,GND*%
X165955000Y-69675000D03*
%TO.P,J10,6,Pin_6*%
X165955000Y-67135000D03*
%TD*%
D19*
%TO.P,J2,1,Pin_1*%
%TO.N,V_USB*%
X171704000Y-131567000D03*
D20*
%TO.P,J2,2,Pin_2*%
%TO.N,Net-(J2-Pin_2)*%
X171704000Y-134107000D03*
%TD*%
D19*
%TO.P,J11,1,Pin_1*%
%TO.N,Vbat*%
X117856000Y-73157000D03*
D20*
%TO.P,J11,2,Pin_2*%
%TO.N,Net-(D14-K)*%
X117856000Y-70617000D03*
%TD*%
D19*
%TO.P,J12,1,Pin_1*%
%TO.N,Net-(J12-Pin_1)*%
X180330000Y-120800000D03*
D20*
%TO.P,J12,2,Pin_2*%
%TO.N,+3V3*%
X182870000Y-120800000D03*
%TO.P,J12,3,Pin_3*%
%TO.N,Net-(J12-Pin_3)*%
X180330000Y-123340000D03*
%TO.P,J12,4,Pin_4*%
%TO.N,GND*%
X182870000Y-123340000D03*
%TO.P,J12,5,Pin_5*%
%TO.N,Net-(J12-Pin_5)*%
X180330000Y-125880000D03*
%TO.P,J12,6,Pin_6*%
%TO.N,GND*%
X182870000Y-125880000D03*
%TD*%
D19*
%TO.P,J7,1,Pin_1*%
%TO.N,Vbat*%
X117851000Y-76962000D03*
D20*
%TO.P,J7,2,Pin_2*%
%TO.N,BOOST_VIN*%
X120391000Y-76962000D03*
%TD*%
D23*
%TO.P,JP3,1,A*%
%TO.N,/Power/BOOST_ENABLE*%
X118252000Y-80518000D03*
D24*
%TO.P,JP3,2,B*%
%TO.N,MCU_BOOST_EN*%
X116952000Y-80518000D03*
%TD*%
D25*
%TO.P,JP10,1,A*%
%TO.N,JOYSTSICK_BUTTON*%
X175400000Y-125900000D03*
D26*
%TO.P,JP10,2,B*%
%TO.N,Net-(J12-Pin_5)*%
X176700000Y-125900000D03*
%TD*%
D25*
%TO.P,JP9,1,A*%
%TO.N,JOYSTSICK_AXIS_H*%
X175400000Y-123300000D03*
D26*
%TO.P,JP9,2,B*%
%TO.N,Net-(J12-Pin_3)*%
X176700000Y-123300000D03*
%TD*%
D25*
%TO.P,JP8,1,A*%
%TO.N,JOYSTSICK_AXIS_V*%
X175400000Y-120700000D03*
D26*
%TO.P,JP8,2,B*%
%TO.N,Net-(J12-Pin_1)*%
X176700000Y-120700000D03*
%TD*%
D27*
%TO.N,VUSB_MONITOR*%
X174600000Y-129000000D03*
X176850000Y-105100000D03*
%TO.N,GND*%
X142800000Y-97500000D03*
X144000000Y-96300000D03*
X144000000Y-97500000D03*
X143400000Y-96900000D03*
X142800000Y-96300000D03*
%TO.N,/Power/BOOST_ENABLE*%
X118700000Y-78700000D03*
%TO.N,+3V3*%
X178950000Y-118700000D03*
X171650000Y-118700000D03*
X163500000Y-118750000D03*
%TO.N,+1V1*%
X167259000Y-102108000D03*
X166954000Y-99246000D03*
X168041800Y-108841800D03*
X167000000Y-106200000D03*
%TO.N,/MCU/~{USB_BOOT}*%
X160950000Y-117100000D03*
X152000000Y-121600000D03*
X176250000Y-118050000D03*
X110000000Y-124200000D03*
%TO.N,/MCU/SWCLK*%
X166309321Y-99281558D03*
%TO.N,/MCU/GPIO13*%
X110850000Y-97750000D03*
X170000000Y-97650000D03*
X153950000Y-98250000D03*
X162550000Y-98250000D03*
%TO.N,/MCU/RUN*%
X163250000Y-99500000D03*
X109800000Y-100300000D03*
X152950000Y-98800000D03*
X165200000Y-99500000D03*
%TO.N,/MCU/SWD*%
X165700000Y-99100000D03*
%TO.N,/MCU/GPIO10*%
X174200000Y-100800000D03*
X172800000Y-100800000D03*
%TO.N,VMotor*%
X134850000Y-94600000D03*
X143050000Y-93650000D03*
X134850000Y-94000000D03*
X142600000Y-93200000D03*
X143600000Y-93650000D03*
X152200000Y-93250000D03*
X134850000Y-93250000D03*
%TO.N,TMC_EN*%
X142600000Y-99500000D03*
X142600000Y-101600000D03*
%TO.N,TMC_UART_RX*%
X144200000Y-99262800D03*
X145000000Y-100000000D03*
%TO.N,Net-(U8-OVP)*%
X121700000Y-87350000D03*
X123952000Y-97598000D03*
%TO.N,/MCU/EEPROM_SCL*%
X174900000Y-104600000D03*
X158800000Y-113600000D03*
%TO.N,/Motor Driver/BRA*%
X142050000Y-95250000D03*
X138900000Y-97050000D03*
X141800000Y-94750000D03*
X138900000Y-96400000D03*
%TO.N,/Motor Driver/BRB*%
X147857000Y-97050000D03*
X147857000Y-96400000D03*
X144957000Y-94750000D03*
X144707000Y-95250000D03*
%TO.N,BOOST_VOUT*%
X122300000Y-95900000D03*
%TO.N,/MCU/EEPROM_SDA*%
X159200000Y-114200000D03*
X174300000Y-103900000D03*
%TD*%
D28*
%TO.N,VUSB_MONITOR*%
X183950000Y-129000000D02*
X174600000Y-129000000D01*
X184300000Y-128650000D02*
X183950000Y-129000000D01*
X184300000Y-117250000D02*
X184300000Y-128650000D01*
X184100000Y-117050000D02*
X184300000Y-117250000D01*
X176850000Y-109800000D02*
X184100000Y-117050000D01*
X176850000Y-105100000D02*
X176850000Y-109800000D01*
D29*
%TO.N,/Power/BOOST_ENABLE*%
X118700000Y-78700000D02*
X118700000Y-80070000D01*
X118700000Y-80070000D02*
X118252000Y-80518000D01*
%TO.N,+3V3*%
X180820000Y-118750000D02*
X182870000Y-120800000D01*
X171600000Y-118750000D02*
X171650000Y-118700000D01*
X163500000Y-118750000D02*
X171600000Y-118750000D01*
X178950000Y-118700000D02*
X179000000Y-118750000D01*
X171700000Y-118750000D02*
X178900000Y-118750000D01*
X178900000Y-118750000D02*
X178950000Y-118700000D01*
X179000000Y-118750000D02*
X180820000Y-118750000D01*
X171650000Y-118700000D02*
X171700000Y-118750000D01*
D30*
%TO.N,+1V1*%
X168100000Y-108841800D02*
X168100000Y-107300000D01*
D29*
X168041800Y-108841800D02*
X168100000Y-108841800D01*
D31*
X166954000Y-99246000D02*
X167259000Y-99551000D01*
X167259000Y-99551000D02*
X167259000Y-102108000D01*
D30*
X168100000Y-107300000D02*
X167000000Y-106200000D01*
D28*
%TO.N,/MCU/~{USB_BOOT}*%
X149400000Y-124200000D02*
X152000000Y-121600000D01*
X175150000Y-116950000D02*
X161100000Y-116950000D01*
X176250000Y-118050000D02*
X175150000Y-116950000D01*
X110000000Y-124200000D02*
X149400000Y-124200000D01*
X161100000Y-116950000D02*
X160950000Y-117100000D01*
%TO.N,/MCU/SWCLK*%
X175700000Y-98700000D02*
X179700000Y-102700000D01*
X166800000Y-98700000D02*
X175700000Y-98700000D01*
X166309321Y-99281558D02*
X166309321Y-99190679D01*
X179700000Y-102700000D02*
X181100000Y-102700000D01*
X181600000Y-105250000D02*
X182875000Y-106525000D01*
X181100000Y-102700000D02*
X181600000Y-103200000D01*
X166309321Y-99190679D02*
X166800000Y-98700000D01*
X181600000Y-103200000D02*
X181600000Y-105250000D01*
%TO.N,/MCU/GPIO13*%
X162550000Y-98250000D02*
X163150000Y-97650000D01*
X110850000Y-97750000D02*
X111155200Y-98055200D01*
X153950000Y-98250000D02*
X153850000Y-98250000D01*
X111155200Y-98055200D02*
X153655200Y-98055200D01*
X163150000Y-97650000D02*
X170000000Y-97650000D01*
X153655200Y-98055200D02*
X153950000Y-98250000D01*
%TO.N,/MCU/RUN*%
X165200000Y-99500000D02*
X163250000Y-99500000D01*
X152955600Y-98805600D02*
X152950000Y-98800000D01*
X111294400Y-98805600D02*
X109800000Y-100300000D01*
X152944400Y-98805600D02*
X111294400Y-98805600D01*
X152950000Y-98800000D02*
X152944400Y-98805600D01*
%TO.N,/MCU/SWD*%
X165700000Y-98900000D02*
X166300000Y-98300000D01*
X182875000Y-103575000D02*
X182875000Y-103985000D01*
X181600000Y-102300000D02*
X182875000Y-103575000D01*
X166300000Y-98300000D02*
X175956400Y-98300000D01*
X181100000Y-100000000D02*
X181600000Y-100500000D01*
X177656400Y-100000000D02*
X181100000Y-100000000D01*
X165700000Y-99100000D02*
X165700000Y-98900000D01*
X181600000Y-100500000D02*
X181600000Y-102300000D01*
X175956400Y-98300000D02*
X177656400Y-100000000D01*
%TO.N,/MCU/GPIO10*%
X174200000Y-100800000D02*
X172800000Y-100800000D01*
D32*
%TO.N,Vbat*%
X127500000Y-67000000D02*
X127635000Y-67135000D01*
X121343000Y-73157000D02*
X127500000Y-67000000D01*
X117856000Y-73157000D02*
X121343000Y-73157000D01*
X127635000Y-67135000D02*
X160875000Y-67135000D01*
D28*
%TO.N,JOYSTSICK_AXIS_V*%
X175400000Y-120700000D02*
X161597500Y-120700000D01*
X161597500Y-120700000D02*
X161292500Y-121005000D01*
%TO.N,JOYSTSICK_BUTTON*%
X156787500Y-127730000D02*
X155812500Y-126755000D01*
X173570000Y-127730000D02*
X156787500Y-127730000D01*
X175400000Y-125900000D02*
X173570000Y-127730000D01*
%TO.N,JOYSTSICK_AXIS_H*%
X160500000Y-124800000D02*
X152562500Y-116862500D01*
X152562500Y-116862500D02*
X152562500Y-112275000D01*
X173900000Y-124800000D02*
X160500000Y-124800000D01*
X175400000Y-123300000D02*
X173900000Y-124800000D01*
D32*
%TO.N,VMotor*%
X134850000Y-93250000D02*
X134850000Y-94600000D01*
X143600000Y-93650000D02*
X144000000Y-93250000D01*
X156225000Y-69675000D02*
X152200000Y-73700000D01*
X134900000Y-93200000D02*
X142600000Y-93200000D01*
X152200000Y-73700000D02*
X152200000Y-93250000D01*
X142600000Y-93200000D02*
X143050000Y-93650000D01*
X134850000Y-93250000D02*
X134900000Y-93200000D01*
X144000000Y-93250000D02*
X152200000Y-93250000D01*
X160875000Y-69675000D02*
X156225000Y-69675000D01*
X143600000Y-93650000D02*
X143050000Y-93650000D01*
D28*
%TO.N,TMC_EN*%
X142600000Y-101600000D02*
X142600000Y-99500000D01*
%TO.N,TMC_UART_RX*%
X144262800Y-99262800D02*
X144200000Y-99262800D01*
X145000000Y-100000000D02*
X144262800Y-99262800D01*
%TO.N,Net-(U8-OVP)*%
X118350000Y-87800000D02*
X118350000Y-97100000D01*
X121700000Y-87350000D02*
X118800000Y-87350000D01*
X118848000Y-97598000D02*
X123952000Y-97598000D01*
X118800000Y-87350000D02*
X118350000Y-87800000D01*
X118350000Y-97100000D02*
X118848000Y-97598000D01*
%TO.N,/MCU/EEPROM_SCL*%
X174900000Y-106700000D02*
X168000000Y-113600000D01*
X168000000Y-113600000D02*
X158800000Y-113600000D01*
X174900000Y-104600000D02*
X174900000Y-106700000D01*
%TO.N,BOOST_VOUT*%
X127147000Y-95900000D02*
X122300000Y-95900000D01*
X128021000Y-96774000D02*
X127147000Y-95900000D01*
%TO.N,/MCU/EEPROM_SDA*%
X168400000Y-114200000D02*
X159200000Y-114200000D01*
X168600000Y-114000000D02*
X168400000Y-114200000D01*
X175500000Y-107100000D02*
X168600000Y-114000000D01*
X174300000Y-103900000D02*
X175100000Y-103900000D01*
X175500000Y-104300000D02*
X175500000Y-107100000D01*
X175100000Y-103900000D02*
X175500000Y-104300000D01*
%TO.N,Net-(J12-Pin_5)*%
X176700000Y-125900000D02*
X180310000Y-125900000D01*
X180310000Y-125900000D02*
X180330000Y-125880000D01*
%TO.N,Net-(J12-Pin_1)*%
X180230000Y-120700000D02*
X180330000Y-120800000D01*
X176700000Y-120700000D02*
X180230000Y-120700000D01*
%TO.N,Net-(J12-Pin_3)*%
X180290000Y-123300000D02*
X180330000Y-123340000D01*
X176700000Y-123300000D02*
X180290000Y-123300000D01*
%TD*%
%TA.AperFunction,Conductor*%
%TO.N,VMotor*%
G36*
X135067183Y-92718907D02*
G01*
X135078996Y-92728996D01*
X135371004Y-93021004D01*
X135398781Y-93075521D01*
X135400000Y-93091008D01*
X135400000Y-94608992D01*
X135381093Y-94667183D01*
X135371004Y-94678996D01*
X135028996Y-95021004D01*
X134974479Y-95048781D01*
X134958992Y-95050000D01*
X133450000Y-95050000D01*
X132850000Y-95650000D01*
X132850000Y-95650001D01*
X132850000Y-97408992D01*
X132831093Y-97467183D01*
X132821004Y-97478996D01*
X132550496Y-97749504D01*
X132495979Y-97777281D01*
X132480492Y-97778500D01*
X129599000Y-97778500D01*
X129540809Y-97759593D01*
X129504845Y-97710093D01*
X129500000Y-97679500D01*
X129500000Y-95591008D01*
X129518907Y-95532817D01*
X129528996Y-95521004D01*
X129771004Y-95278996D01*
X129825521Y-95251219D01*
X129841008Y-95250000D01*
X131049999Y-95250000D01*
X131050000Y-95250000D01*
X132100000Y-94200000D01*
X132100000Y-92941008D01*
X132118907Y-92882817D01*
X132128996Y-92871004D01*
X132271004Y-92728996D01*
X132325521Y-92701219D01*
X132341008Y-92700000D01*
X135008992Y-92700000D01*
X135067183Y-92718907D01*
G37*
%TD.AperFunction*%
%TD*%
%TA.AperFunction,Conductor*%
%TO.N,/Motor Driver/BRB*%
G36*
X146379787Y-94409438D02*
G01*
X146504925Y-94461272D01*
X146545152Y-94488152D01*
X148218847Y-96161847D01*
X148245727Y-96202075D01*
X148297561Y-96327212D01*
X148307000Y-96374665D01*
X148307000Y-97225334D01*
X148297561Y-97272787D01*
X148253432Y-97379324D01*
X148209591Y-97433727D01*
X148186324Y-97446432D01*
X148079788Y-97490561D01*
X148032335Y-97500000D01*
X147781665Y-97500000D01*
X147734212Y-97490561D01*
X147609075Y-97438727D01*
X147568847Y-97411847D01*
X145877711Y-95720711D01*
X145807000Y-95650000D01*
X145707002Y-95650000D01*
X144681665Y-95650000D01*
X144634212Y-95640561D01*
X144509075Y-95588727D01*
X144468847Y-95561847D01*
X144395152Y-95488152D01*
X144368272Y-95447923D01*
X144316439Y-95322786D01*
X144307000Y-95275334D01*
X144307000Y-94924665D01*
X144316439Y-94877213D01*
X144368272Y-94752076D01*
X144395149Y-94711850D01*
X144618850Y-94488149D01*
X144659074Y-94461272D01*
X144721644Y-94435355D01*
X144784213Y-94409439D01*
X144831665Y-94400000D01*
X146332335Y-94400000D01*
X146379787Y-94409438D01*
G37*
%TD.AperFunction*%
%TD*%
%TA.AperFunction,Conductor*%
%TO.N,/Motor Driver/BRA*%
G36*
X141972787Y-94409438D02*
G01*
X142097925Y-94461272D01*
X142138152Y-94488152D01*
X142361847Y-94711847D01*
X142388727Y-94752075D01*
X142440561Y-94877212D01*
X142450000Y-94924665D01*
X142450000Y-95275334D01*
X142440561Y-95322787D01*
X142388727Y-95447924D01*
X142361847Y-95488152D01*
X142288152Y-95561847D01*
X142247925Y-95588727D01*
X142203572Y-95607098D01*
X142122786Y-95640561D01*
X142075335Y-95650000D01*
X140950000Y-95650000D01*
X140879289Y-95720710D01*
X140879288Y-95720711D01*
X139188152Y-97411847D01*
X139147925Y-97438727D01*
X139129324Y-97446432D01*
X139022786Y-97490561D01*
X138975335Y-97500000D01*
X138724665Y-97500000D01*
X138677212Y-97490561D01*
X138570674Y-97446431D01*
X138516272Y-97402591D01*
X138503567Y-97379323D01*
X138459439Y-97272786D01*
X138450000Y-97225334D01*
X138450000Y-96374665D01*
X138459439Y-96327213D01*
X138511272Y-96202076D01*
X138538149Y-96161850D01*
X140211850Y-94488149D01*
X140252074Y-94461272D01*
X140314644Y-94435355D01*
X140377213Y-94409439D01*
X140424665Y-94400000D01*
X141925335Y-94400000D01*
X141972787Y-94409438D01*
G37*
%TD.AperFunction*%
%TD*%
M02*
