%TF.GenerationSoftware,KiCad,Pcbnew,8.0.2*%
%TF.CreationDate,2024-05-27T20:09:00+01:00*%
%TF.ProjectId,StepUp,53746570-5570-42e6-9b69-6361645f7063,v1.0*%
%TF.SameCoordinates,Original*%
%TF.FileFunction,Legend,Bot*%
%TF.FilePolarity,Positive*%
%FSLAX46Y46*%
G04 Gerber Fmt 4.6, Leading zero omitted, Abs format (unit mm)*
G04 Created by KiCad (PCBNEW 8.0.2) date 2024-05-27 20:09:00*
%MOMM*%
%LPD*%
G01*
G04 APERTURE LIST*
G04 Aperture macros list*
%AMRoundRect*
0 Rectangle with rounded corners*
0 $1 Rounding radius*
0 $2 $3 $4 $5 $6 $7 $8 $9 X,Y pos of 4 corners*
0 Add a 4 corners polygon primitive as box body*
4,1,4,$2,$3,$4,$5,$6,$7,$8,$9,$2,$3,0*
0 Add four circle primitives for the rounded corners*
1,1,$1+$1,$2,$3*
1,1,$1+$1,$4,$5*
1,1,$1+$1,$6,$7*
1,1,$1+$1,$8,$9*
0 Add four rect primitives between the rounded corners*
20,1,$1+$1,$2,$3,$4,$5,0*
20,1,$1+$1,$4,$5,$6,$7,0*
20,1,$1+$1,$6,$7,$8,$9,0*
20,1,$1+$1,$8,$9,$2,$3,0*%
%AMFreePoly0*
4,1,19,0.500000,-0.750000,0.000000,-0.750000,0.000000,-0.744911,-0.071157,-0.744911,-0.207708,-0.704816,-0.327430,-0.627875,-0.420627,-0.520320,-0.479746,-0.390866,-0.500000,-0.250000,-0.500000,0.250000,-0.479746,0.390866,-0.420627,0.520320,-0.327430,0.627875,-0.207708,0.704816,-0.071157,0.744911,0.000000,0.744911,0.000000,0.750000,0.500000,0.750000,0.500000,-0.750000,0.500000,-0.750000,
$1*%
%AMFreePoly1*
4,1,19,0.000000,0.744911,0.071157,0.744911,0.207708,0.704816,0.327430,0.627875,0.420627,0.520320,0.479746,0.390866,0.500000,0.250000,0.500000,-0.250000,0.479746,-0.390866,0.420627,-0.520320,0.327430,-0.627875,0.207708,-0.704816,0.071157,-0.744911,0.000000,-0.744911,0.000000,-0.750000,-0.500000,-0.750000,-0.500000,0.750000,0.000000,0.750000,0.000000,0.744911,0.000000,0.744911,
$1*%
G04 Aperture macros list end*
%ADD10C,0.150000*%
%ADD11C,0.120000*%
%ADD12C,3.550000*%
%ADD13C,2.390000*%
%ADD14C,2.184000*%
%ADD15C,0.650000*%
%ADD16O,1.000000X2.100000*%
%ADD17O,1.000000X1.800000*%
%ADD18C,1.650000*%
%ADD19C,1.950000*%
%ADD20C,2.400000*%
%ADD21C,3.200000*%
%ADD22R,1.700000X1.700000*%
%ADD23O,1.700000X1.700000*%
%ADD24RoundRect,0.102000X0.900000X0.900000X-0.900000X0.900000X-0.900000X-0.900000X0.900000X-0.900000X0*%
%ADD25C,2.004000*%
%ADD26FreePoly0,180.000000*%
%ADD27FreePoly1,180.000000*%
%ADD28FreePoly0,0.000000*%
%ADD29FreePoly1,0.000000*%
G04 APERTURE END LIST*
D10*
X121609333Y-80480819D02*
X121609333Y-81195104D01*
X121609333Y-81195104D02*
X121656952Y-81337961D01*
X121656952Y-81337961D02*
X121752190Y-81433200D01*
X121752190Y-81433200D02*
X121895047Y-81480819D01*
X121895047Y-81480819D02*
X121990285Y-81480819D01*
X121133142Y-81480819D02*
X121133142Y-80480819D01*
X121133142Y-80480819D02*
X120752190Y-80480819D01*
X120752190Y-80480819D02*
X120656952Y-80528438D01*
X120656952Y-80528438D02*
X120609333Y-80576057D01*
X120609333Y-80576057D02*
X120561714Y-80671295D01*
X120561714Y-80671295D02*
X120561714Y-80814152D01*
X120561714Y-80814152D02*
X120609333Y-80909390D01*
X120609333Y-80909390D02*
X120656952Y-80957009D01*
X120656952Y-80957009D02*
X120752190Y-81004628D01*
X120752190Y-81004628D02*
X121133142Y-81004628D01*
X120228380Y-80480819D02*
X119609333Y-80480819D01*
X119609333Y-80480819D02*
X119942666Y-80861771D01*
X119942666Y-80861771D02*
X119799809Y-80861771D01*
X119799809Y-80861771D02*
X119704571Y-80909390D01*
X119704571Y-80909390D02*
X119656952Y-80957009D01*
X119656952Y-80957009D02*
X119609333Y-81052247D01*
X119609333Y-81052247D02*
X119609333Y-81290342D01*
X119609333Y-81290342D02*
X119656952Y-81385580D01*
X119656952Y-81385580D02*
X119704571Y-81433200D01*
X119704571Y-81433200D02*
X119799809Y-81480819D01*
X119799809Y-81480819D02*
X120085523Y-81480819D01*
X120085523Y-81480819D02*
X120180761Y-81433200D01*
X120180761Y-81433200D02*
X120228380Y-81385580D01*
X173759523Y-125504819D02*
X173759523Y-126219104D01*
X173759523Y-126219104D02*
X173807142Y-126361961D01*
X173807142Y-126361961D02*
X173902380Y-126457200D01*
X173902380Y-126457200D02*
X174045237Y-126504819D01*
X174045237Y-126504819D02*
X174140475Y-126504819D01*
X173283332Y-126504819D02*
X173283332Y-125504819D01*
X173283332Y-125504819D02*
X172902380Y-125504819D01*
X172902380Y-125504819D02*
X172807142Y-125552438D01*
X172807142Y-125552438D02*
X172759523Y-125600057D01*
X172759523Y-125600057D02*
X172711904Y-125695295D01*
X172711904Y-125695295D02*
X172711904Y-125838152D01*
X172711904Y-125838152D02*
X172759523Y-125933390D01*
X172759523Y-125933390D02*
X172807142Y-125981009D01*
X172807142Y-125981009D02*
X172902380Y-126028628D01*
X172902380Y-126028628D02*
X173283332Y-126028628D01*
X171759523Y-126504819D02*
X172330951Y-126504819D01*
X172045237Y-126504819D02*
X172045237Y-125504819D01*
X172045237Y-125504819D02*
X172140475Y-125647676D01*
X172140475Y-125647676D02*
X172235713Y-125742914D01*
X172235713Y-125742914D02*
X172330951Y-125790533D01*
X171140475Y-125504819D02*
X171045237Y-125504819D01*
X171045237Y-125504819D02*
X170949999Y-125552438D01*
X170949999Y-125552438D02*
X170902380Y-125600057D01*
X170902380Y-125600057D02*
X170854761Y-125695295D01*
X170854761Y-125695295D02*
X170807142Y-125885771D01*
X170807142Y-125885771D02*
X170807142Y-126123866D01*
X170807142Y-126123866D02*
X170854761Y-126314342D01*
X170854761Y-126314342D02*
X170902380Y-126409580D01*
X170902380Y-126409580D02*
X170949999Y-126457200D01*
X170949999Y-126457200D02*
X171045237Y-126504819D01*
X171045237Y-126504819D02*
X171140475Y-126504819D01*
X171140475Y-126504819D02*
X171235713Y-126457200D01*
X171235713Y-126457200D02*
X171283332Y-126409580D01*
X171283332Y-126409580D02*
X171330951Y-126314342D01*
X171330951Y-126314342D02*
X171378570Y-126123866D01*
X171378570Y-126123866D02*
X171378570Y-125885771D01*
X171378570Y-125885771D02*
X171330951Y-125695295D01*
X171330951Y-125695295D02*
X171283332Y-125600057D01*
X171283332Y-125600057D02*
X171235713Y-125552438D01*
X171235713Y-125552438D02*
X171140475Y-125504819D01*
X173483333Y-122854819D02*
X173483333Y-123569104D01*
X173483333Y-123569104D02*
X173530952Y-123711961D01*
X173530952Y-123711961D02*
X173626190Y-123807200D01*
X173626190Y-123807200D02*
X173769047Y-123854819D01*
X173769047Y-123854819D02*
X173864285Y-123854819D01*
X173007142Y-123854819D02*
X173007142Y-122854819D01*
X173007142Y-122854819D02*
X172626190Y-122854819D01*
X172626190Y-122854819D02*
X172530952Y-122902438D01*
X172530952Y-122902438D02*
X172483333Y-122950057D01*
X172483333Y-122950057D02*
X172435714Y-123045295D01*
X172435714Y-123045295D02*
X172435714Y-123188152D01*
X172435714Y-123188152D02*
X172483333Y-123283390D01*
X172483333Y-123283390D02*
X172530952Y-123331009D01*
X172530952Y-123331009D02*
X172626190Y-123378628D01*
X172626190Y-123378628D02*
X173007142Y-123378628D01*
X171959523Y-123854819D02*
X171769047Y-123854819D01*
X171769047Y-123854819D02*
X171673809Y-123807200D01*
X171673809Y-123807200D02*
X171626190Y-123759580D01*
X171626190Y-123759580D02*
X171530952Y-123616723D01*
X171530952Y-123616723D02*
X171483333Y-123426247D01*
X171483333Y-123426247D02*
X171483333Y-123045295D01*
X171483333Y-123045295D02*
X171530952Y-122950057D01*
X171530952Y-122950057D02*
X171578571Y-122902438D01*
X171578571Y-122902438D02*
X171673809Y-122854819D01*
X171673809Y-122854819D02*
X171864285Y-122854819D01*
X171864285Y-122854819D02*
X171959523Y-122902438D01*
X171959523Y-122902438D02*
X172007142Y-122950057D01*
X172007142Y-122950057D02*
X172054761Y-123045295D01*
X172054761Y-123045295D02*
X172054761Y-123283390D01*
X172054761Y-123283390D02*
X172007142Y-123378628D01*
X172007142Y-123378628D02*
X171959523Y-123426247D01*
X171959523Y-123426247D02*
X171864285Y-123473866D01*
X171864285Y-123473866D02*
X171673809Y-123473866D01*
X171673809Y-123473866D02*
X171578571Y-123426247D01*
X171578571Y-123426247D02*
X171530952Y-123378628D01*
X171530952Y-123378628D02*
X171483333Y-123283390D01*
X173483333Y-120204819D02*
X173483333Y-120919104D01*
X173483333Y-120919104D02*
X173530952Y-121061961D01*
X173530952Y-121061961D02*
X173626190Y-121157200D01*
X173626190Y-121157200D02*
X173769047Y-121204819D01*
X173769047Y-121204819D02*
X173864285Y-121204819D01*
X173007142Y-121204819D02*
X173007142Y-120204819D01*
X173007142Y-120204819D02*
X172626190Y-120204819D01*
X172626190Y-120204819D02*
X172530952Y-120252438D01*
X172530952Y-120252438D02*
X172483333Y-120300057D01*
X172483333Y-120300057D02*
X172435714Y-120395295D01*
X172435714Y-120395295D02*
X172435714Y-120538152D01*
X172435714Y-120538152D02*
X172483333Y-120633390D01*
X172483333Y-120633390D02*
X172530952Y-120681009D01*
X172530952Y-120681009D02*
X172626190Y-120728628D01*
X172626190Y-120728628D02*
X173007142Y-120728628D01*
X171864285Y-120633390D02*
X171959523Y-120585771D01*
X171959523Y-120585771D02*
X172007142Y-120538152D01*
X172007142Y-120538152D02*
X172054761Y-120442914D01*
X172054761Y-120442914D02*
X172054761Y-120395295D01*
X172054761Y-120395295D02*
X172007142Y-120300057D01*
X172007142Y-120300057D02*
X171959523Y-120252438D01*
X171959523Y-120252438D02*
X171864285Y-120204819D01*
X171864285Y-120204819D02*
X171673809Y-120204819D01*
X171673809Y-120204819D02*
X171578571Y-120252438D01*
X171578571Y-120252438D02*
X171530952Y-120300057D01*
X171530952Y-120300057D02*
X171483333Y-120395295D01*
X171483333Y-120395295D02*
X171483333Y-120442914D01*
X171483333Y-120442914D02*
X171530952Y-120538152D01*
X171530952Y-120538152D02*
X171578571Y-120585771D01*
X171578571Y-120585771D02*
X171673809Y-120633390D01*
X171673809Y-120633390D02*
X171864285Y-120633390D01*
X171864285Y-120633390D02*
X171959523Y-120681009D01*
X171959523Y-120681009D02*
X172007142Y-120728628D01*
X172007142Y-120728628D02*
X172054761Y-120823866D01*
X172054761Y-120823866D02*
X172054761Y-121014342D01*
X172054761Y-121014342D02*
X172007142Y-121109580D01*
X172007142Y-121109580D02*
X171959523Y-121157200D01*
X171959523Y-121157200D02*
X171864285Y-121204819D01*
X171864285Y-121204819D02*
X171673809Y-121204819D01*
X171673809Y-121204819D02*
X171578571Y-121157200D01*
X171578571Y-121157200D02*
X171530952Y-121109580D01*
X171530952Y-121109580D02*
X171483333Y-121014342D01*
X171483333Y-121014342D02*
X171483333Y-120823866D01*
X171483333Y-120823866D02*
X171530952Y-120728628D01*
X171530952Y-120728628D02*
X171578571Y-120681009D01*
X171578571Y-120681009D02*
X171673809Y-120633390D01*
D11*
%TO.C,JP3*%
X116202000Y-80818000D02*
X116202000Y-80218000D01*
X116902000Y-79518000D02*
X118302000Y-79518000D01*
X118302000Y-81518000D02*
X116902000Y-81518000D01*
X119002000Y-80218000D02*
X119002000Y-80818000D01*
X116202000Y-80218000D02*
G75*
G02*
X116902000Y-79518000I700000J0D01*
G01*
X116902000Y-81518000D02*
G75*
G02*
X116202000Y-80818000I0J700000D01*
G01*
X118302000Y-79518000D02*
G75*
G02*
X119002000Y-80218000I1J-699999D01*
G01*
X119002000Y-80818000D02*
G75*
G02*
X118302000Y-81518000I-699999J-1D01*
G01*
%TO.C,JP10*%
X174650000Y-126200000D02*
X174650000Y-125600000D01*
X175350000Y-124900000D02*
X176750000Y-124900000D01*
X176750000Y-126900000D02*
X175350000Y-126900000D01*
X177450000Y-125600000D02*
X177450000Y-126200000D01*
X174650000Y-125600000D02*
G75*
G02*
X175350000Y-124900000I699999J1D01*
G01*
X175350000Y-126900000D02*
G75*
G02*
X174650000Y-126200000I-1J699999D01*
G01*
X176750000Y-124900000D02*
G75*
G02*
X177450000Y-125600000I0J-700000D01*
G01*
X177450000Y-126200000D02*
G75*
G02*
X176750000Y-126900000I-700000J0D01*
G01*
%TO.C,JP9*%
X174650000Y-123600000D02*
X174650000Y-123000000D01*
X175350000Y-122300000D02*
X176750000Y-122300000D01*
X176750000Y-124300000D02*
X175350000Y-124300000D01*
X177450000Y-123000000D02*
X177450000Y-123600000D01*
X174650000Y-123000000D02*
G75*
G02*
X175350000Y-122300000I699999J1D01*
G01*
X175350000Y-124300000D02*
G75*
G02*
X174650000Y-123600000I-1J699999D01*
G01*
X176750000Y-122300000D02*
G75*
G02*
X177450000Y-123000000I0J-700000D01*
G01*
X177450000Y-123600000D02*
G75*
G02*
X176750000Y-124300000I-700000J0D01*
G01*
%TO.C,JP8*%
X174650000Y-121000000D02*
X174650000Y-120400000D01*
X175350000Y-119700000D02*
X176750000Y-119700000D01*
X176750000Y-121700000D02*
X175350000Y-121700000D01*
X177450000Y-120400000D02*
X177450000Y-121000000D01*
X174650000Y-120400000D02*
G75*
G02*
X175350000Y-119700000I699999J1D01*
G01*
X175350000Y-121700000D02*
G75*
G02*
X174650000Y-121000000I-1J699999D01*
G01*
X176750000Y-119700000D02*
G75*
G02*
X177450000Y-120400000I0J-700000D01*
G01*
X177450000Y-121000000D02*
G75*
G02*
X176750000Y-121700000I-700000J0D01*
G01*
%TD*%
%LPC*%
D12*
%TO.C,BT1*%
X112648000Y-132192000D03*
X96648000Y-76992000D03*
D13*
X112648000Y-68792000D03*
D14*
X104648000Y-141012000D03*
X104648000Y-68792000D03*
%TD*%
D15*
%TO.C,J1*%
X165004000Y-138365000D03*
X170784000Y-138365000D03*
D16*
X163574000Y-137865000D03*
D17*
X163574000Y-142045000D03*
D16*
X172214000Y-137865000D03*
D17*
X172214000Y-142045000D03*
%TD*%
D18*
%TO.C,JOY1*%
X155062500Y-112275000D03*
X152562500Y-112275000D03*
X150062500Y-112275000D03*
X161292500Y-123505000D03*
X161292500Y-121005000D03*
X161292500Y-118505000D03*
D19*
X149312500Y-126755000D03*
X155812500Y-126755000D03*
X149312500Y-131255000D03*
X155812500Y-131255000D03*
D20*
X158887500Y-116005000D03*
X146237500Y-116005000D03*
X146237500Y-126005000D03*
X158887500Y-126005000D03*
%TD*%
D21*
%TO.C,H1*%
X90000000Y-70000000D03*
%TD*%
D22*
%TO.C,J4*%
X182880000Y-97706000D03*
D23*
X180340000Y-97706000D03*
X182880000Y-95166000D03*
X180340000Y-95166000D03*
X182880000Y-92626000D03*
X180340000Y-92626000D03*
X182880000Y-90086000D03*
X180340000Y-90086000D03*
X182880000Y-87546000D03*
X180340000Y-87546000D03*
X182880000Y-85006000D03*
X180340000Y-85006000D03*
%TD*%
D21*
%TO.C,H2*%
X90000000Y-140000000D03*
%TD*%
D24*
%TO.C,J5*%
X148277400Y-77689501D03*
X148277400Y-70689501D03*
D25*
X144777400Y-77689501D03*
X144777400Y-70689501D03*
X141277400Y-77689501D03*
X141277400Y-70689501D03*
X137777400Y-77689501D03*
X137777400Y-70689501D03*
%TD*%
D22*
%TO.C,J3*%
X182875000Y-106525000D03*
D23*
X180335000Y-106525000D03*
X182875000Y-103985000D03*
X180335000Y-103985000D03*
X182875000Y-101445000D03*
X180335000Y-101445000D03*
%TD*%
D22*
%TO.C,J8*%
X117852000Y-129337000D03*
D23*
X117852000Y-131877000D03*
%TD*%
D22*
%TO.C,J9*%
X130561000Y-96774000D03*
D23*
X128021000Y-96774000D03*
%TD*%
D21*
%TO.C,H4*%
X180000000Y-140000000D03*
%TD*%
D22*
%TO.C,J6*%
X125800000Y-120175000D03*
D23*
X125800000Y-117635000D03*
%TD*%
D22*
%TO.C,J10*%
X160875000Y-69675000D03*
D23*
X160875000Y-67135000D03*
X163415000Y-69675000D03*
X163415000Y-67135000D03*
X165955000Y-69675000D03*
X165955000Y-67135000D03*
%TD*%
D22*
%TO.C,J2*%
X171704000Y-131567000D03*
D23*
X171704000Y-134107000D03*
%TD*%
D22*
%TO.C,J11*%
X117856000Y-73157000D03*
D23*
X117856000Y-70617000D03*
%TD*%
D21*
%TO.C,H3*%
X180000000Y-70000000D03*
%TD*%
D22*
%TO.C,J12*%
X180330000Y-120800000D03*
D23*
X182870000Y-120800000D03*
X180330000Y-123340000D03*
X182870000Y-123340000D03*
X180330000Y-125880000D03*
X182870000Y-125880000D03*
%TD*%
D22*
%TO.C,J7*%
X117851000Y-76962000D03*
D23*
X120391000Y-76962000D03*
%TD*%
D26*
%TO.C,JP3*%
X118252000Y-80518000D03*
D27*
X116952000Y-80518000D03*
%TD*%
D28*
%TO.C,JP10*%
X175400000Y-125900000D03*
D29*
X176700000Y-125900000D03*
%TD*%
D28*
%TO.C,JP9*%
X175400000Y-123300000D03*
D29*
X176700000Y-123300000D03*
%TD*%
D28*
%TO.C,JP8*%
X175400000Y-120700000D03*
D29*
X176700000Y-120700000D03*
%TD*%
%LPD*%
M02*
