%TF.GenerationSoftware,KiCad,Pcbnew,9.0.7*%
%TF.CreationDate,2026-03-27T20:28:22+00:00*%
%TF.ProjectId,StepUp,53746570-5570-42e6-9b69-6361645f7063,v0.4*%
%TF.SameCoordinates,Original*%
%TF.FileFunction,Other,ECO1*%
%FSLAX45Y45*%
G04 Gerber Fmt 4.5, Leading zero omitted, Abs format (unit mm)*
G04 Created by KiCad (PCBNEW 9.0.7) date 2026-03-27 20:28:22*
%MOMM*%
%LPD*%
G01*
G04 APERTURE LIST*
%ADD10C,0.200000*%
%ADD11C,0.400000*%
G04 APERTURE END LIST*
D10*
X20522800Y-7516803D02*
X20522800Y-7366803D01*
X20522800Y-7366803D02*
X20579943Y-7366803D01*
X20579943Y-7366803D02*
X20594229Y-7373946D01*
X20594229Y-7373946D02*
X20601372Y-7381088D01*
X20601372Y-7381088D02*
X20608514Y-7395374D01*
X20608514Y-7395374D02*
X20608514Y-7416803D01*
X20608514Y-7416803D02*
X20601372Y-7431088D01*
X20601372Y-7431088D02*
X20594229Y-7438231D01*
X20594229Y-7438231D02*
X20579943Y-7445374D01*
X20579943Y-7445374D02*
X20522800Y-7445374D01*
X20694229Y-7516803D02*
X20679943Y-7509660D01*
X20679943Y-7509660D02*
X20672800Y-7495374D01*
X20672800Y-7495374D02*
X20672800Y-7366803D01*
X20815657Y-7516803D02*
X20815657Y-7438231D01*
X20815657Y-7438231D02*
X20808514Y-7423946D01*
X20808514Y-7423946D02*
X20794229Y-7416803D01*
X20794229Y-7416803D02*
X20765657Y-7416803D01*
X20765657Y-7416803D02*
X20751372Y-7423946D01*
X20815657Y-7509660D02*
X20801372Y-7516803D01*
X20801372Y-7516803D02*
X20765657Y-7516803D01*
X20765657Y-7516803D02*
X20751372Y-7509660D01*
X20751372Y-7509660D02*
X20744229Y-7495374D01*
X20744229Y-7495374D02*
X20744229Y-7481088D01*
X20744229Y-7481088D02*
X20751372Y-7466803D01*
X20751372Y-7466803D02*
X20765657Y-7459660D01*
X20765657Y-7459660D02*
X20801372Y-7459660D01*
X20801372Y-7459660D02*
X20815657Y-7452517D01*
X20865657Y-7416803D02*
X20922800Y-7416803D01*
X20887086Y-7366803D02*
X20887086Y-7495374D01*
X20887086Y-7495374D02*
X20894229Y-7509660D01*
X20894229Y-7509660D02*
X20908514Y-7516803D01*
X20908514Y-7516803D02*
X20922800Y-7516803D01*
X21029943Y-7509660D02*
X21015657Y-7516803D01*
X21015657Y-7516803D02*
X20987086Y-7516803D01*
X20987086Y-7516803D02*
X20972800Y-7509660D01*
X20972800Y-7509660D02*
X20965657Y-7495374D01*
X20965657Y-7495374D02*
X20965657Y-7438231D01*
X20965657Y-7438231D02*
X20972800Y-7423946D01*
X20972800Y-7423946D02*
X20987086Y-7416803D01*
X20987086Y-7416803D02*
X21015657Y-7416803D01*
X21015657Y-7416803D02*
X21029943Y-7423946D01*
X21029943Y-7423946D02*
X21037086Y-7438231D01*
X21037086Y-7438231D02*
X21037086Y-7452517D01*
X21037086Y-7452517D02*
X20965657Y-7466803D01*
X21165657Y-7516803D02*
X21165657Y-7366803D01*
X21165657Y-7509660D02*
X21151372Y-7516803D01*
X21151372Y-7516803D02*
X21122800Y-7516803D01*
X21122800Y-7516803D02*
X21108514Y-7509660D01*
X21108514Y-7509660D02*
X21101372Y-7502517D01*
X21101372Y-7502517D02*
X21094229Y-7488231D01*
X21094229Y-7488231D02*
X21094229Y-7445374D01*
X21094229Y-7445374D02*
X21101372Y-7431088D01*
X21101372Y-7431088D02*
X21108514Y-7423946D01*
X21108514Y-7423946D02*
X21122800Y-7416803D01*
X21122800Y-7416803D02*
X21151372Y-7416803D01*
X21151372Y-7416803D02*
X21165657Y-7423946D01*
X21401372Y-7438231D02*
X21422800Y-7445374D01*
X21422800Y-7445374D02*
X21429943Y-7452517D01*
X21429943Y-7452517D02*
X21437086Y-7466803D01*
X21437086Y-7466803D02*
X21437086Y-7488231D01*
X21437086Y-7488231D02*
X21429943Y-7502517D01*
X21429943Y-7502517D02*
X21422800Y-7509660D01*
X21422800Y-7509660D02*
X21408514Y-7516803D01*
X21408514Y-7516803D02*
X21351372Y-7516803D01*
X21351372Y-7516803D02*
X21351372Y-7366803D01*
X21351372Y-7366803D02*
X21401372Y-7366803D01*
X21401372Y-7366803D02*
X21415657Y-7373946D01*
X21415657Y-7373946D02*
X21422800Y-7381088D01*
X21422800Y-7381088D02*
X21429943Y-7395374D01*
X21429943Y-7395374D02*
X21429943Y-7409660D01*
X21429943Y-7409660D02*
X21422800Y-7423946D01*
X21422800Y-7423946D02*
X21415657Y-7431088D01*
X21415657Y-7431088D02*
X21401372Y-7438231D01*
X21401372Y-7438231D02*
X21351372Y-7438231D01*
X21522800Y-7516803D02*
X21508514Y-7509660D01*
X21508514Y-7509660D02*
X21501372Y-7502517D01*
X21501372Y-7502517D02*
X21494229Y-7488231D01*
X21494229Y-7488231D02*
X21494229Y-7445374D01*
X21494229Y-7445374D02*
X21501372Y-7431088D01*
X21501372Y-7431088D02*
X21508514Y-7423946D01*
X21508514Y-7423946D02*
X21522800Y-7416803D01*
X21522800Y-7416803D02*
X21544229Y-7416803D01*
X21544229Y-7416803D02*
X21558514Y-7423946D01*
X21558514Y-7423946D02*
X21565657Y-7431088D01*
X21565657Y-7431088D02*
X21572800Y-7445374D01*
X21572800Y-7445374D02*
X21572800Y-7488231D01*
X21572800Y-7488231D02*
X21565657Y-7502517D01*
X21565657Y-7502517D02*
X21558514Y-7509660D01*
X21558514Y-7509660D02*
X21544229Y-7516803D01*
X21544229Y-7516803D02*
X21522800Y-7516803D01*
X21701372Y-7516803D02*
X21701372Y-7438231D01*
X21701372Y-7438231D02*
X21694229Y-7423946D01*
X21694229Y-7423946D02*
X21679943Y-7416803D01*
X21679943Y-7416803D02*
X21651372Y-7416803D01*
X21651372Y-7416803D02*
X21637086Y-7423946D01*
X21701372Y-7509660D02*
X21687086Y-7516803D01*
X21687086Y-7516803D02*
X21651372Y-7516803D01*
X21651372Y-7516803D02*
X21637086Y-7509660D01*
X21637086Y-7509660D02*
X21629943Y-7495374D01*
X21629943Y-7495374D02*
X21629943Y-7481088D01*
X21629943Y-7481088D02*
X21637086Y-7466803D01*
X21637086Y-7466803D02*
X21651372Y-7459660D01*
X21651372Y-7459660D02*
X21687086Y-7459660D01*
X21687086Y-7459660D02*
X21701372Y-7452517D01*
X21772800Y-7516803D02*
X21772800Y-7416803D01*
X21772800Y-7445374D02*
X21779943Y-7431088D01*
X21779943Y-7431088D02*
X21787086Y-7423946D01*
X21787086Y-7423946D02*
X21801372Y-7416803D01*
X21801372Y-7416803D02*
X21815657Y-7416803D01*
X21929943Y-7516803D02*
X21929943Y-7366803D01*
X21929943Y-7509660D02*
X21915657Y-7516803D01*
X21915657Y-7516803D02*
X21887086Y-7516803D01*
X21887086Y-7516803D02*
X21872800Y-7509660D01*
X21872800Y-7509660D02*
X21865657Y-7502517D01*
X21865657Y-7502517D02*
X21858514Y-7488231D01*
X21858514Y-7488231D02*
X21858514Y-7445374D01*
X21858514Y-7445374D02*
X21865657Y-7431088D01*
X21865657Y-7431088D02*
X21872800Y-7423946D01*
X21872800Y-7423946D02*
X21887086Y-7416803D01*
X21887086Y-7416803D02*
X21915657Y-7416803D01*
X21915657Y-7416803D02*
X21929943Y-7423946D01*
X22115657Y-7438231D02*
X22165657Y-7438231D01*
X22187086Y-7516803D02*
X22115657Y-7516803D01*
X22115657Y-7516803D02*
X22115657Y-7366803D01*
X22115657Y-7366803D02*
X22187086Y-7366803D01*
X22315657Y-7516803D02*
X22315657Y-7366803D01*
X22315657Y-7509660D02*
X22301372Y-7516803D01*
X22301372Y-7516803D02*
X22272800Y-7516803D01*
X22272800Y-7516803D02*
X22258514Y-7509660D01*
X22258514Y-7509660D02*
X22251372Y-7502517D01*
X22251372Y-7502517D02*
X22244229Y-7488231D01*
X22244229Y-7488231D02*
X22244229Y-7445374D01*
X22244229Y-7445374D02*
X22251372Y-7431088D01*
X22251372Y-7431088D02*
X22258514Y-7423946D01*
X22258514Y-7423946D02*
X22272800Y-7416803D01*
X22272800Y-7416803D02*
X22301372Y-7416803D01*
X22301372Y-7416803D02*
X22315657Y-7423946D01*
X22451372Y-7416803D02*
X22451372Y-7538231D01*
X22451372Y-7538231D02*
X22444229Y-7552517D01*
X22444229Y-7552517D02*
X22437086Y-7559660D01*
X22437086Y-7559660D02*
X22422800Y-7566803D01*
X22422800Y-7566803D02*
X22401372Y-7566803D01*
X22401372Y-7566803D02*
X22387086Y-7559660D01*
X22451372Y-7509660D02*
X22437086Y-7516803D01*
X22437086Y-7516803D02*
X22408514Y-7516803D01*
X22408514Y-7516803D02*
X22394229Y-7509660D01*
X22394229Y-7509660D02*
X22387086Y-7502517D01*
X22387086Y-7502517D02*
X22379943Y-7488231D01*
X22379943Y-7488231D02*
X22379943Y-7445374D01*
X22379943Y-7445374D02*
X22387086Y-7431088D01*
X22387086Y-7431088D02*
X22394229Y-7423946D01*
X22394229Y-7423946D02*
X22408514Y-7416803D01*
X22408514Y-7416803D02*
X22437086Y-7416803D01*
X22437086Y-7416803D02*
X22451372Y-7423946D01*
X22579943Y-7509660D02*
X22565657Y-7516803D01*
X22565657Y-7516803D02*
X22537086Y-7516803D01*
X22537086Y-7516803D02*
X22522800Y-7509660D01*
X22522800Y-7509660D02*
X22515657Y-7495374D01*
X22515657Y-7495374D02*
X22515657Y-7438231D01*
X22515657Y-7438231D02*
X22522800Y-7423946D01*
X22522800Y-7423946D02*
X22537086Y-7416803D01*
X22537086Y-7416803D02*
X22565657Y-7416803D01*
X22565657Y-7416803D02*
X22579943Y-7423946D01*
X22579943Y-7423946D02*
X22587086Y-7438231D01*
X22587086Y-7438231D02*
X22587086Y-7452517D01*
X22587086Y-7452517D02*
X22515657Y-7466803D01*
X22651371Y-7502517D02*
X22658514Y-7509660D01*
X22658514Y-7509660D02*
X22651371Y-7516803D01*
X22651371Y-7516803D02*
X22644229Y-7509660D01*
X22644229Y-7509660D02*
X22651371Y-7502517D01*
X22651371Y-7502517D02*
X22651371Y-7516803D01*
X22651371Y-7423946D02*
X22658514Y-7431088D01*
X22658514Y-7431088D02*
X22651371Y-7438231D01*
X22651371Y-7438231D02*
X22644229Y-7431088D01*
X22644229Y-7431088D02*
X22651371Y-7423946D01*
X22651371Y-7423946D02*
X22651371Y-7438231D01*
X20572800Y-5855431D02*
X20594229Y-5862574D01*
X20594229Y-5862574D02*
X20601372Y-5869717D01*
X20601372Y-5869717D02*
X20608514Y-5884003D01*
X20608514Y-5884003D02*
X20608514Y-5905431D01*
X20608514Y-5905431D02*
X20601372Y-5919717D01*
X20601372Y-5919717D02*
X20594229Y-5926860D01*
X20594229Y-5926860D02*
X20579943Y-5934003D01*
X20579943Y-5934003D02*
X20522800Y-5934003D01*
X20522800Y-5934003D02*
X20522800Y-5784003D01*
X20522800Y-5784003D02*
X20572800Y-5784003D01*
X20572800Y-5784003D02*
X20587086Y-5791146D01*
X20587086Y-5791146D02*
X20594229Y-5798288D01*
X20594229Y-5798288D02*
X20601372Y-5812574D01*
X20601372Y-5812574D02*
X20601372Y-5826860D01*
X20601372Y-5826860D02*
X20594229Y-5841146D01*
X20594229Y-5841146D02*
X20587086Y-5848288D01*
X20587086Y-5848288D02*
X20572800Y-5855431D01*
X20572800Y-5855431D02*
X20522800Y-5855431D01*
X20694229Y-5934003D02*
X20679943Y-5926860D01*
X20679943Y-5926860D02*
X20672800Y-5919717D01*
X20672800Y-5919717D02*
X20665657Y-5905431D01*
X20665657Y-5905431D02*
X20665657Y-5862574D01*
X20665657Y-5862574D02*
X20672800Y-5848288D01*
X20672800Y-5848288D02*
X20679943Y-5841146D01*
X20679943Y-5841146D02*
X20694229Y-5834003D01*
X20694229Y-5834003D02*
X20715657Y-5834003D01*
X20715657Y-5834003D02*
X20729943Y-5841146D01*
X20729943Y-5841146D02*
X20737086Y-5848288D01*
X20737086Y-5848288D02*
X20744229Y-5862574D01*
X20744229Y-5862574D02*
X20744229Y-5905431D01*
X20744229Y-5905431D02*
X20737086Y-5919717D01*
X20737086Y-5919717D02*
X20729943Y-5926860D01*
X20729943Y-5926860D02*
X20715657Y-5934003D01*
X20715657Y-5934003D02*
X20694229Y-5934003D01*
X20872800Y-5934003D02*
X20872800Y-5855431D01*
X20872800Y-5855431D02*
X20865657Y-5841146D01*
X20865657Y-5841146D02*
X20851372Y-5834003D01*
X20851372Y-5834003D02*
X20822800Y-5834003D01*
X20822800Y-5834003D02*
X20808514Y-5841146D01*
X20872800Y-5926860D02*
X20858514Y-5934003D01*
X20858514Y-5934003D02*
X20822800Y-5934003D01*
X20822800Y-5934003D02*
X20808514Y-5926860D01*
X20808514Y-5926860D02*
X20801372Y-5912574D01*
X20801372Y-5912574D02*
X20801372Y-5898288D01*
X20801372Y-5898288D02*
X20808514Y-5884003D01*
X20808514Y-5884003D02*
X20822800Y-5876860D01*
X20822800Y-5876860D02*
X20858514Y-5876860D01*
X20858514Y-5876860D02*
X20872800Y-5869717D01*
X20944229Y-5934003D02*
X20944229Y-5834003D01*
X20944229Y-5862574D02*
X20951372Y-5848288D01*
X20951372Y-5848288D02*
X20958515Y-5841146D01*
X20958515Y-5841146D02*
X20972800Y-5834003D01*
X20972800Y-5834003D02*
X20987086Y-5834003D01*
X21101372Y-5934003D02*
X21101372Y-5784003D01*
X21101372Y-5926860D02*
X21087086Y-5934003D01*
X21087086Y-5934003D02*
X21058514Y-5934003D01*
X21058514Y-5934003D02*
X21044229Y-5926860D01*
X21044229Y-5926860D02*
X21037086Y-5919717D01*
X21037086Y-5919717D02*
X21029943Y-5905431D01*
X21029943Y-5905431D02*
X21029943Y-5862574D01*
X21029943Y-5862574D02*
X21037086Y-5848288D01*
X21037086Y-5848288D02*
X21044229Y-5841146D01*
X21044229Y-5841146D02*
X21058514Y-5834003D01*
X21058514Y-5834003D02*
X21087086Y-5834003D01*
X21087086Y-5834003D02*
X21101372Y-5841146D01*
X21265657Y-5784003D02*
X21351372Y-5784003D01*
X21308514Y-5934003D02*
X21308514Y-5784003D01*
X21401372Y-5934003D02*
X21401372Y-5784003D01*
X21465657Y-5934003D02*
X21465657Y-5855431D01*
X21465657Y-5855431D02*
X21458514Y-5841146D01*
X21458514Y-5841146D02*
X21444229Y-5834003D01*
X21444229Y-5834003D02*
X21422800Y-5834003D01*
X21422800Y-5834003D02*
X21408514Y-5841146D01*
X21408514Y-5841146D02*
X21401372Y-5848288D01*
X21537086Y-5934003D02*
X21537086Y-5834003D01*
X21537086Y-5784003D02*
X21529943Y-5791146D01*
X21529943Y-5791146D02*
X21537086Y-5798288D01*
X21537086Y-5798288D02*
X21544229Y-5791146D01*
X21544229Y-5791146D02*
X21537086Y-5784003D01*
X21537086Y-5784003D02*
X21537086Y-5798288D01*
X21672800Y-5926860D02*
X21658514Y-5934003D01*
X21658514Y-5934003D02*
X21629943Y-5934003D01*
X21629943Y-5934003D02*
X21615657Y-5926860D01*
X21615657Y-5926860D02*
X21608514Y-5919717D01*
X21608514Y-5919717D02*
X21601372Y-5905431D01*
X21601372Y-5905431D02*
X21601372Y-5862574D01*
X21601372Y-5862574D02*
X21608514Y-5848288D01*
X21608514Y-5848288D02*
X21615657Y-5841146D01*
X21615657Y-5841146D02*
X21629943Y-5834003D01*
X21629943Y-5834003D02*
X21658514Y-5834003D01*
X21658514Y-5834003D02*
X21672800Y-5841146D01*
X21737086Y-5934003D02*
X21737086Y-5784003D01*
X21751372Y-5876860D02*
X21794229Y-5934003D01*
X21794229Y-5834003D02*
X21737086Y-5891146D01*
X21858514Y-5834003D02*
X21858514Y-5934003D01*
X21858514Y-5848288D02*
X21865657Y-5841146D01*
X21865657Y-5841146D02*
X21879943Y-5834003D01*
X21879943Y-5834003D02*
X21901372Y-5834003D01*
X21901372Y-5834003D02*
X21915657Y-5841146D01*
X21915657Y-5841146D02*
X21922800Y-5855431D01*
X21922800Y-5855431D02*
X21922800Y-5934003D01*
X22051372Y-5926860D02*
X22037086Y-5934003D01*
X22037086Y-5934003D02*
X22008515Y-5934003D01*
X22008515Y-5934003D02*
X21994229Y-5926860D01*
X21994229Y-5926860D02*
X21987086Y-5912574D01*
X21987086Y-5912574D02*
X21987086Y-5855431D01*
X21987086Y-5855431D02*
X21994229Y-5841146D01*
X21994229Y-5841146D02*
X22008515Y-5834003D01*
X22008515Y-5834003D02*
X22037086Y-5834003D01*
X22037086Y-5834003D02*
X22051372Y-5841146D01*
X22051372Y-5841146D02*
X22058515Y-5855431D01*
X22058515Y-5855431D02*
X22058515Y-5869717D01*
X22058515Y-5869717D02*
X21987086Y-5884003D01*
X22115657Y-5926860D02*
X22129943Y-5934003D01*
X22129943Y-5934003D02*
X22158514Y-5934003D01*
X22158514Y-5934003D02*
X22172800Y-5926860D01*
X22172800Y-5926860D02*
X22179943Y-5912574D01*
X22179943Y-5912574D02*
X22179943Y-5905431D01*
X22179943Y-5905431D02*
X22172800Y-5891146D01*
X22172800Y-5891146D02*
X22158514Y-5884003D01*
X22158514Y-5884003D02*
X22137086Y-5884003D01*
X22137086Y-5884003D02*
X22122800Y-5876860D01*
X22122800Y-5876860D02*
X22115657Y-5862574D01*
X22115657Y-5862574D02*
X22115657Y-5855431D01*
X22115657Y-5855431D02*
X22122800Y-5841146D01*
X22122800Y-5841146D02*
X22137086Y-5834003D01*
X22137086Y-5834003D02*
X22158514Y-5834003D01*
X22158514Y-5834003D02*
X22172800Y-5841146D01*
X22237086Y-5926860D02*
X22251372Y-5934003D01*
X22251372Y-5934003D02*
X22279943Y-5934003D01*
X22279943Y-5934003D02*
X22294229Y-5926860D01*
X22294229Y-5926860D02*
X22301372Y-5912574D01*
X22301372Y-5912574D02*
X22301372Y-5905431D01*
X22301372Y-5905431D02*
X22294229Y-5891146D01*
X22294229Y-5891146D02*
X22279943Y-5884003D01*
X22279943Y-5884003D02*
X22258515Y-5884003D01*
X22258515Y-5884003D02*
X22244229Y-5876860D01*
X22244229Y-5876860D02*
X22237086Y-5862574D01*
X22237086Y-5862574D02*
X22237086Y-5855431D01*
X22237086Y-5855431D02*
X22244229Y-5841146D01*
X22244229Y-5841146D02*
X22258515Y-5834003D01*
X22258515Y-5834003D02*
X22279943Y-5834003D01*
X22279943Y-5834003D02*
X22294229Y-5841146D01*
X22365657Y-5919717D02*
X22372800Y-5926860D01*
X22372800Y-5926860D02*
X22365657Y-5934003D01*
X22365657Y-5934003D02*
X22358515Y-5926860D01*
X22358515Y-5926860D02*
X22365657Y-5919717D01*
X22365657Y-5919717D02*
X22365657Y-5934003D01*
X22365657Y-5841146D02*
X22372800Y-5848288D01*
X22372800Y-5848288D02*
X22365657Y-5855431D01*
X22365657Y-5855431D02*
X22358515Y-5848288D01*
X22358515Y-5848288D02*
X22365657Y-5841146D01*
X22365657Y-5841146D02*
X22365657Y-5855431D01*
X23045657Y-6575403D02*
X23059943Y-6575403D01*
X23059943Y-6575403D02*
X23074229Y-6582546D01*
X23074229Y-6582546D02*
X23081372Y-6589688D01*
X23081372Y-6589688D02*
X23088514Y-6603974D01*
X23088514Y-6603974D02*
X23095657Y-6632546D01*
X23095657Y-6632546D02*
X23095657Y-6668260D01*
X23095657Y-6668260D02*
X23088514Y-6696831D01*
X23088514Y-6696831D02*
X23081372Y-6711117D01*
X23081372Y-6711117D02*
X23074229Y-6718260D01*
X23074229Y-6718260D02*
X23059943Y-6725403D01*
X23059943Y-6725403D02*
X23045657Y-6725403D01*
X23045657Y-6725403D02*
X23031372Y-6718260D01*
X23031372Y-6718260D02*
X23024229Y-6711117D01*
X23024229Y-6711117D02*
X23017086Y-6696831D01*
X23017086Y-6696831D02*
X23009943Y-6668260D01*
X23009943Y-6668260D02*
X23009943Y-6632546D01*
X23009943Y-6632546D02*
X23017086Y-6603974D01*
X23017086Y-6603974D02*
X23024229Y-6589688D01*
X23024229Y-6589688D02*
X23031372Y-6582546D01*
X23031372Y-6582546D02*
X23045657Y-6575403D01*
X23159943Y-6711117D02*
X23167086Y-6718260D01*
X23167086Y-6718260D02*
X23159943Y-6725403D01*
X23159943Y-6725403D02*
X23152800Y-6718260D01*
X23152800Y-6718260D02*
X23159943Y-6711117D01*
X23159943Y-6711117D02*
X23159943Y-6725403D01*
X23224229Y-6589688D02*
X23231371Y-6582546D01*
X23231371Y-6582546D02*
X23245657Y-6575403D01*
X23245657Y-6575403D02*
X23281371Y-6575403D01*
X23281371Y-6575403D02*
X23295657Y-6582546D01*
X23295657Y-6582546D02*
X23302800Y-6589688D01*
X23302800Y-6589688D02*
X23309943Y-6603974D01*
X23309943Y-6603974D02*
X23309943Y-6618260D01*
X23309943Y-6618260D02*
X23302800Y-6639688D01*
X23302800Y-6639688D02*
X23217086Y-6725403D01*
X23217086Y-6725403D02*
X23309943Y-6725403D01*
X23402800Y-6575403D02*
X23417086Y-6575403D01*
X23417086Y-6575403D02*
X23431371Y-6582546D01*
X23431371Y-6582546D02*
X23438514Y-6589688D01*
X23438514Y-6589688D02*
X23445657Y-6603974D01*
X23445657Y-6603974D02*
X23452800Y-6632546D01*
X23452800Y-6632546D02*
X23452800Y-6668260D01*
X23452800Y-6668260D02*
X23445657Y-6696831D01*
X23445657Y-6696831D02*
X23438514Y-6711117D01*
X23438514Y-6711117D02*
X23431371Y-6718260D01*
X23431371Y-6718260D02*
X23417086Y-6725403D01*
X23417086Y-6725403D02*
X23402800Y-6725403D01*
X23402800Y-6725403D02*
X23388514Y-6718260D01*
X23388514Y-6718260D02*
X23381371Y-6711117D01*
X23381371Y-6711117D02*
X23374229Y-6696831D01*
X23374229Y-6696831D02*
X23367086Y-6668260D01*
X23367086Y-6668260D02*
X23367086Y-6632546D01*
X23367086Y-6632546D02*
X23374229Y-6603974D01*
X23374229Y-6603974D02*
X23381371Y-6589688D01*
X23381371Y-6589688D02*
X23388514Y-6582546D01*
X23388514Y-6582546D02*
X23402800Y-6575403D01*
X23545657Y-6575403D02*
X23559943Y-6575403D01*
X23559943Y-6575403D02*
X23574229Y-6582546D01*
X23574229Y-6582546D02*
X23581371Y-6589688D01*
X23581371Y-6589688D02*
X23588514Y-6603974D01*
X23588514Y-6603974D02*
X23595657Y-6632546D01*
X23595657Y-6632546D02*
X23595657Y-6668260D01*
X23595657Y-6668260D02*
X23588514Y-6696831D01*
X23588514Y-6696831D02*
X23581371Y-6711117D01*
X23581371Y-6711117D02*
X23574229Y-6718260D01*
X23574229Y-6718260D02*
X23559943Y-6725403D01*
X23559943Y-6725403D02*
X23545657Y-6725403D01*
X23545657Y-6725403D02*
X23531371Y-6718260D01*
X23531371Y-6718260D02*
X23524229Y-6711117D01*
X23524229Y-6711117D02*
X23517086Y-6696831D01*
X23517086Y-6696831D02*
X23509943Y-6668260D01*
X23509943Y-6668260D02*
X23509943Y-6632546D01*
X23509943Y-6632546D02*
X23517086Y-6603974D01*
X23517086Y-6603974D02*
X23524229Y-6589688D01*
X23524229Y-6589688D02*
X23531371Y-6582546D01*
X23531371Y-6582546D02*
X23545657Y-6575403D01*
X23688514Y-6575403D02*
X23702800Y-6575403D01*
X23702800Y-6575403D02*
X23717086Y-6582546D01*
X23717086Y-6582546D02*
X23724229Y-6589688D01*
X23724229Y-6589688D02*
X23731371Y-6603974D01*
X23731371Y-6603974D02*
X23738514Y-6632546D01*
X23738514Y-6632546D02*
X23738514Y-6668260D01*
X23738514Y-6668260D02*
X23731371Y-6696831D01*
X23731371Y-6696831D02*
X23724229Y-6711117D01*
X23724229Y-6711117D02*
X23717086Y-6718260D01*
X23717086Y-6718260D02*
X23702800Y-6725403D01*
X23702800Y-6725403D02*
X23688514Y-6725403D01*
X23688514Y-6725403D02*
X23674229Y-6718260D01*
X23674229Y-6718260D02*
X23667086Y-6711117D01*
X23667086Y-6711117D02*
X23659943Y-6696831D01*
X23659943Y-6696831D02*
X23652800Y-6668260D01*
X23652800Y-6668260D02*
X23652800Y-6632546D01*
X23652800Y-6632546D02*
X23659943Y-6603974D01*
X23659943Y-6603974D02*
X23667086Y-6589688D01*
X23667086Y-6589688D02*
X23674229Y-6582546D01*
X23674229Y-6582546D02*
X23688514Y-6575403D01*
X23917086Y-6725403D02*
X23917086Y-6625403D01*
X23917086Y-6639688D02*
X23924228Y-6632546D01*
X23924228Y-6632546D02*
X23938514Y-6625403D01*
X23938514Y-6625403D02*
X23959943Y-6625403D01*
X23959943Y-6625403D02*
X23974228Y-6632546D01*
X23974228Y-6632546D02*
X23981371Y-6646831D01*
X23981371Y-6646831D02*
X23981371Y-6725403D01*
X23981371Y-6646831D02*
X23988514Y-6632546D01*
X23988514Y-6632546D02*
X24002800Y-6625403D01*
X24002800Y-6625403D02*
X24024228Y-6625403D01*
X24024228Y-6625403D02*
X24038514Y-6632546D01*
X24038514Y-6632546D02*
X24045657Y-6646831D01*
X24045657Y-6646831D02*
X24045657Y-6725403D01*
X24117086Y-6725403D02*
X24117086Y-6625403D01*
X24117086Y-6639688D02*
X24124228Y-6632546D01*
X24124228Y-6632546D02*
X24138514Y-6625403D01*
X24138514Y-6625403D02*
X24159943Y-6625403D01*
X24159943Y-6625403D02*
X24174228Y-6632546D01*
X24174228Y-6632546D02*
X24181371Y-6646831D01*
X24181371Y-6646831D02*
X24181371Y-6725403D01*
X24181371Y-6646831D02*
X24188514Y-6632546D01*
X24188514Y-6632546D02*
X24202800Y-6625403D01*
X24202800Y-6625403D02*
X24224228Y-6625403D01*
X24224228Y-6625403D02*
X24238514Y-6632546D01*
X24238514Y-6632546D02*
X24245657Y-6646831D01*
X24245657Y-6646831D02*
X24245657Y-6725403D01*
X23017086Y-7516803D02*
X23017086Y-7366803D01*
X23017086Y-7366803D02*
X23102800Y-7516803D01*
X23102800Y-7516803D02*
X23102800Y-7366803D01*
X23195657Y-7516803D02*
X23181372Y-7509660D01*
X23181372Y-7509660D02*
X23174229Y-7502517D01*
X23174229Y-7502517D02*
X23167086Y-7488231D01*
X23167086Y-7488231D02*
X23167086Y-7445374D01*
X23167086Y-7445374D02*
X23174229Y-7431088D01*
X23174229Y-7431088D02*
X23181372Y-7423946D01*
X23181372Y-7423946D02*
X23195657Y-7416803D01*
X23195657Y-7416803D02*
X23217086Y-7416803D01*
X23217086Y-7416803D02*
X23231372Y-7423946D01*
X23231372Y-7423946D02*
X23238514Y-7431088D01*
X23238514Y-7431088D02*
X23245657Y-7445374D01*
X23245657Y-7445374D02*
X23245657Y-7488231D01*
X23245657Y-7488231D02*
X23238514Y-7502517D01*
X23238514Y-7502517D02*
X23231372Y-7509660D01*
X23231372Y-7509660D02*
X23217086Y-7516803D01*
X23217086Y-7516803D02*
X23195657Y-7516803D01*
X23095657Y-5934003D02*
X23009943Y-5934003D01*
X23052800Y-5934003D02*
X23052800Y-5784003D01*
X23052800Y-5784003D02*
X23038514Y-5805431D01*
X23038514Y-5805431D02*
X23024229Y-5819717D01*
X23024229Y-5819717D02*
X23009943Y-5826860D01*
X23159943Y-5919717D02*
X23167086Y-5926860D01*
X23167086Y-5926860D02*
X23159943Y-5934003D01*
X23159943Y-5934003D02*
X23152800Y-5926860D01*
X23152800Y-5926860D02*
X23159943Y-5919717D01*
X23159943Y-5919717D02*
X23159943Y-5934003D01*
X23302800Y-5784003D02*
X23231371Y-5784003D01*
X23231371Y-5784003D02*
X23224229Y-5855431D01*
X23224229Y-5855431D02*
X23231371Y-5848288D01*
X23231371Y-5848288D02*
X23245657Y-5841146D01*
X23245657Y-5841146D02*
X23281371Y-5841146D01*
X23281371Y-5841146D02*
X23295657Y-5848288D01*
X23295657Y-5848288D02*
X23302800Y-5855431D01*
X23302800Y-5855431D02*
X23309943Y-5869717D01*
X23309943Y-5869717D02*
X23309943Y-5905431D01*
X23309943Y-5905431D02*
X23302800Y-5919717D01*
X23302800Y-5919717D02*
X23295657Y-5926860D01*
X23295657Y-5926860D02*
X23281371Y-5934003D01*
X23281371Y-5934003D02*
X23245657Y-5934003D01*
X23245657Y-5934003D02*
X23231371Y-5926860D01*
X23231371Y-5926860D02*
X23224229Y-5919717D01*
X23438514Y-5834003D02*
X23438514Y-5934003D01*
X23402800Y-5776860D02*
X23367086Y-5884003D01*
X23367086Y-5884003D02*
X23459943Y-5884003D01*
X23502800Y-5784003D02*
X23602800Y-5784003D01*
X23602800Y-5784003D02*
X23538514Y-5934003D01*
X23688514Y-5784003D02*
X23702800Y-5784003D01*
X23702800Y-5784003D02*
X23717086Y-5791146D01*
X23717086Y-5791146D02*
X23724229Y-5798288D01*
X23724229Y-5798288D02*
X23731371Y-5812574D01*
X23731371Y-5812574D02*
X23738514Y-5841146D01*
X23738514Y-5841146D02*
X23738514Y-5876860D01*
X23738514Y-5876860D02*
X23731371Y-5905431D01*
X23731371Y-5905431D02*
X23724229Y-5919717D01*
X23724229Y-5919717D02*
X23717086Y-5926860D01*
X23717086Y-5926860D02*
X23702800Y-5934003D01*
X23702800Y-5934003D02*
X23688514Y-5934003D01*
X23688514Y-5934003D02*
X23674229Y-5926860D01*
X23674229Y-5926860D02*
X23667086Y-5919717D01*
X23667086Y-5919717D02*
X23659943Y-5905431D01*
X23659943Y-5905431D02*
X23652800Y-5876860D01*
X23652800Y-5876860D02*
X23652800Y-5841146D01*
X23652800Y-5841146D02*
X23659943Y-5812574D01*
X23659943Y-5812574D02*
X23667086Y-5798288D01*
X23667086Y-5798288D02*
X23674229Y-5791146D01*
X23674229Y-5791146D02*
X23688514Y-5784003D01*
X23917086Y-5934003D02*
X23917086Y-5834003D01*
X23917086Y-5848288D02*
X23924228Y-5841146D01*
X23924228Y-5841146D02*
X23938514Y-5834003D01*
X23938514Y-5834003D02*
X23959943Y-5834003D01*
X23959943Y-5834003D02*
X23974228Y-5841146D01*
X23974228Y-5841146D02*
X23981371Y-5855431D01*
X23981371Y-5855431D02*
X23981371Y-5934003D01*
X23981371Y-5855431D02*
X23988514Y-5841146D01*
X23988514Y-5841146D02*
X24002800Y-5834003D01*
X24002800Y-5834003D02*
X24024228Y-5834003D01*
X24024228Y-5834003D02*
X24038514Y-5841146D01*
X24038514Y-5841146D02*
X24045657Y-5855431D01*
X24045657Y-5855431D02*
X24045657Y-5934003D01*
X24117086Y-5934003D02*
X24117086Y-5834003D01*
X24117086Y-5848288D02*
X24124228Y-5841146D01*
X24124228Y-5841146D02*
X24138514Y-5834003D01*
X24138514Y-5834003D02*
X24159943Y-5834003D01*
X24159943Y-5834003D02*
X24174228Y-5841146D01*
X24174228Y-5841146D02*
X24181371Y-5855431D01*
X24181371Y-5855431D02*
X24181371Y-5934003D01*
X24181371Y-5855431D02*
X24188514Y-5841146D01*
X24188514Y-5841146D02*
X24202800Y-5834003D01*
X24202800Y-5834003D02*
X24224228Y-5834003D01*
X24224228Y-5834003D02*
X24238514Y-5841146D01*
X24238514Y-5841146D02*
X24245657Y-5855431D01*
X24245657Y-5855431D02*
X24245657Y-5934003D01*
D11*
X13858101Y-5331182D02*
X13886673Y-5340706D01*
X13886673Y-5340706D02*
X13896197Y-5350230D01*
X13896197Y-5350230D02*
X13905720Y-5369277D01*
X13905720Y-5369277D02*
X13905720Y-5397849D01*
X13905720Y-5397849D02*
X13896197Y-5416896D01*
X13896197Y-5416896D02*
X13886673Y-5426420D01*
X13886673Y-5426420D02*
X13867625Y-5435944D01*
X13867625Y-5435944D02*
X13791435Y-5435944D01*
X13791435Y-5435944D02*
X13791435Y-5235944D01*
X13791435Y-5235944D02*
X13858101Y-5235944D01*
X13858101Y-5235944D02*
X13877149Y-5245468D01*
X13877149Y-5245468D02*
X13886673Y-5254991D01*
X13886673Y-5254991D02*
X13896197Y-5274039D01*
X13896197Y-5274039D02*
X13896197Y-5293087D01*
X13896197Y-5293087D02*
X13886673Y-5312134D01*
X13886673Y-5312134D02*
X13877149Y-5321658D01*
X13877149Y-5321658D02*
X13858101Y-5331182D01*
X13858101Y-5331182D02*
X13791435Y-5331182D01*
X14029530Y-5235944D02*
X14067625Y-5235944D01*
X14067625Y-5235944D02*
X14086673Y-5245468D01*
X14086673Y-5245468D02*
X14105720Y-5264515D01*
X14105720Y-5264515D02*
X14115244Y-5302610D01*
X14115244Y-5302610D02*
X14115244Y-5369277D01*
X14115244Y-5369277D02*
X14105720Y-5407372D01*
X14105720Y-5407372D02*
X14086673Y-5426420D01*
X14086673Y-5426420D02*
X14067625Y-5435944D01*
X14067625Y-5435944D02*
X14029530Y-5435944D01*
X14029530Y-5435944D02*
X14010482Y-5426420D01*
X14010482Y-5426420D02*
X13991435Y-5407372D01*
X13991435Y-5407372D02*
X13981911Y-5369277D01*
X13981911Y-5369277D02*
X13981911Y-5302610D01*
X13981911Y-5302610D02*
X13991435Y-5264515D01*
X13991435Y-5264515D02*
X14010482Y-5245468D01*
X14010482Y-5245468D02*
X14029530Y-5235944D01*
X14191435Y-5378801D02*
X14286673Y-5378801D01*
X14172387Y-5435944D02*
X14239054Y-5235944D01*
X14239054Y-5235944D02*
X14305720Y-5435944D01*
X14486673Y-5435944D02*
X14420006Y-5340706D01*
X14372387Y-5435944D02*
X14372387Y-5235944D01*
X14372387Y-5235944D02*
X14448578Y-5235944D01*
X14448578Y-5235944D02*
X14467625Y-5245468D01*
X14467625Y-5245468D02*
X14477149Y-5254991D01*
X14477149Y-5254991D02*
X14486673Y-5274039D01*
X14486673Y-5274039D02*
X14486673Y-5302610D01*
X14486673Y-5302610D02*
X14477149Y-5321658D01*
X14477149Y-5321658D02*
X14467625Y-5331182D01*
X14467625Y-5331182D02*
X14448578Y-5340706D01*
X14448578Y-5340706D02*
X14372387Y-5340706D01*
X14572387Y-5435944D02*
X14572387Y-5235944D01*
X14572387Y-5235944D02*
X14620006Y-5235944D01*
X14620006Y-5235944D02*
X14648578Y-5245468D01*
X14648578Y-5245468D02*
X14667625Y-5264515D01*
X14667625Y-5264515D02*
X14677149Y-5283563D01*
X14677149Y-5283563D02*
X14686673Y-5321658D01*
X14686673Y-5321658D02*
X14686673Y-5350230D01*
X14686673Y-5350230D02*
X14677149Y-5388325D01*
X14677149Y-5388325D02*
X14667625Y-5407372D01*
X14667625Y-5407372D02*
X14648578Y-5426420D01*
X14648578Y-5426420D02*
X14620006Y-5435944D01*
X14620006Y-5435944D02*
X14572387Y-5435944D01*
X15039054Y-5416896D02*
X15029530Y-5426420D01*
X15029530Y-5426420D02*
X15000959Y-5435944D01*
X15000959Y-5435944D02*
X14981911Y-5435944D01*
X14981911Y-5435944D02*
X14953339Y-5426420D01*
X14953339Y-5426420D02*
X14934292Y-5407372D01*
X14934292Y-5407372D02*
X14924768Y-5388325D01*
X14924768Y-5388325D02*
X14915244Y-5350230D01*
X14915244Y-5350230D02*
X14915244Y-5321658D01*
X14915244Y-5321658D02*
X14924768Y-5283563D01*
X14924768Y-5283563D02*
X14934292Y-5264515D01*
X14934292Y-5264515D02*
X14953339Y-5245468D01*
X14953339Y-5245468D02*
X14981911Y-5235944D01*
X14981911Y-5235944D02*
X15000959Y-5235944D01*
X15000959Y-5235944D02*
X15029530Y-5245468D01*
X15029530Y-5245468D02*
X15039054Y-5254991D01*
X15124768Y-5435944D02*
X15124768Y-5235944D01*
X15124768Y-5331182D02*
X15239054Y-5331182D01*
X15239054Y-5435944D02*
X15239054Y-5235944D01*
X15324768Y-5378801D02*
X15420006Y-5378801D01*
X15305720Y-5435944D02*
X15372387Y-5235944D01*
X15372387Y-5235944D02*
X15439054Y-5435944D01*
X15620006Y-5435944D02*
X15553339Y-5340706D01*
X15505720Y-5435944D02*
X15505720Y-5235944D01*
X15505720Y-5235944D02*
X15581911Y-5235944D01*
X15581911Y-5235944D02*
X15600959Y-5245468D01*
X15600959Y-5245468D02*
X15610482Y-5254991D01*
X15610482Y-5254991D02*
X15620006Y-5274039D01*
X15620006Y-5274039D02*
X15620006Y-5302610D01*
X15620006Y-5302610D02*
X15610482Y-5321658D01*
X15610482Y-5321658D02*
X15600959Y-5331182D01*
X15600959Y-5331182D02*
X15581911Y-5340706D01*
X15581911Y-5340706D02*
X15505720Y-5340706D01*
X15696197Y-5378801D02*
X15791435Y-5378801D01*
X15677149Y-5435944D02*
X15743816Y-5235944D01*
X15743816Y-5235944D02*
X15810482Y-5435944D01*
X15991435Y-5416896D02*
X15981911Y-5426420D01*
X15981911Y-5426420D02*
X15953340Y-5435944D01*
X15953340Y-5435944D02*
X15934292Y-5435944D01*
X15934292Y-5435944D02*
X15905720Y-5426420D01*
X15905720Y-5426420D02*
X15886673Y-5407372D01*
X15886673Y-5407372D02*
X15877149Y-5388325D01*
X15877149Y-5388325D02*
X15867625Y-5350230D01*
X15867625Y-5350230D02*
X15867625Y-5321658D01*
X15867625Y-5321658D02*
X15877149Y-5283563D01*
X15877149Y-5283563D02*
X15886673Y-5264515D01*
X15886673Y-5264515D02*
X15905720Y-5245468D01*
X15905720Y-5245468D02*
X15934292Y-5235944D01*
X15934292Y-5235944D02*
X15953340Y-5235944D01*
X15953340Y-5235944D02*
X15981911Y-5245468D01*
X15981911Y-5245468D02*
X15991435Y-5254991D01*
X16048578Y-5235944D02*
X16162863Y-5235944D01*
X16105720Y-5435944D02*
X16105720Y-5235944D01*
X16229530Y-5331182D02*
X16296197Y-5331182D01*
X16324768Y-5435944D02*
X16229530Y-5435944D01*
X16229530Y-5435944D02*
X16229530Y-5235944D01*
X16229530Y-5235944D02*
X16324768Y-5235944D01*
X16524768Y-5435944D02*
X16458101Y-5340706D01*
X16410482Y-5435944D02*
X16410482Y-5235944D01*
X16410482Y-5235944D02*
X16486673Y-5235944D01*
X16486673Y-5235944D02*
X16505721Y-5245468D01*
X16505721Y-5245468D02*
X16515244Y-5254991D01*
X16515244Y-5254991D02*
X16524768Y-5274039D01*
X16524768Y-5274039D02*
X16524768Y-5302610D01*
X16524768Y-5302610D02*
X16515244Y-5321658D01*
X16515244Y-5321658D02*
X16505721Y-5331182D01*
X16505721Y-5331182D02*
X16486673Y-5340706D01*
X16486673Y-5340706D02*
X16410482Y-5340706D01*
X16610482Y-5435944D02*
X16610482Y-5235944D01*
X16696197Y-5426420D02*
X16724768Y-5435944D01*
X16724768Y-5435944D02*
X16772387Y-5435944D01*
X16772387Y-5435944D02*
X16791435Y-5426420D01*
X16791435Y-5426420D02*
X16800959Y-5416896D01*
X16800959Y-5416896D02*
X16810483Y-5397849D01*
X16810483Y-5397849D02*
X16810483Y-5378801D01*
X16810483Y-5378801D02*
X16800959Y-5359753D01*
X16800959Y-5359753D02*
X16791435Y-5350230D01*
X16791435Y-5350230D02*
X16772387Y-5340706D01*
X16772387Y-5340706D02*
X16734292Y-5331182D01*
X16734292Y-5331182D02*
X16715244Y-5321658D01*
X16715244Y-5321658D02*
X16705721Y-5312134D01*
X16705721Y-5312134D02*
X16696197Y-5293087D01*
X16696197Y-5293087D02*
X16696197Y-5274039D01*
X16696197Y-5274039D02*
X16705721Y-5254991D01*
X16705721Y-5254991D02*
X16715244Y-5245468D01*
X16715244Y-5245468D02*
X16734292Y-5235944D01*
X16734292Y-5235944D02*
X16781911Y-5235944D01*
X16781911Y-5235944D02*
X16810483Y-5245468D01*
X16867625Y-5235944D02*
X16981911Y-5235944D01*
X16924768Y-5435944D02*
X16924768Y-5235944D01*
X17048578Y-5435944D02*
X17048578Y-5235944D01*
X17258102Y-5416896D02*
X17248578Y-5426420D01*
X17248578Y-5426420D02*
X17220006Y-5435944D01*
X17220006Y-5435944D02*
X17200959Y-5435944D01*
X17200959Y-5435944D02*
X17172387Y-5426420D01*
X17172387Y-5426420D02*
X17153340Y-5407372D01*
X17153340Y-5407372D02*
X17143816Y-5388325D01*
X17143816Y-5388325D02*
X17134292Y-5350230D01*
X17134292Y-5350230D02*
X17134292Y-5321658D01*
X17134292Y-5321658D02*
X17143816Y-5283563D01*
X17143816Y-5283563D02*
X17153340Y-5264515D01*
X17153340Y-5264515D02*
X17172387Y-5245468D01*
X17172387Y-5245468D02*
X17200959Y-5235944D01*
X17200959Y-5235944D02*
X17220006Y-5235944D01*
X17220006Y-5235944D02*
X17248578Y-5245468D01*
X17248578Y-5245468D02*
X17258102Y-5254991D01*
X17334292Y-5426420D02*
X17362864Y-5435944D01*
X17362864Y-5435944D02*
X17410483Y-5435944D01*
X17410483Y-5435944D02*
X17429530Y-5426420D01*
X17429530Y-5426420D02*
X17439054Y-5416896D01*
X17439054Y-5416896D02*
X17448578Y-5397849D01*
X17448578Y-5397849D02*
X17448578Y-5378801D01*
X17448578Y-5378801D02*
X17439054Y-5359753D01*
X17439054Y-5359753D02*
X17429530Y-5350230D01*
X17429530Y-5350230D02*
X17410483Y-5340706D01*
X17410483Y-5340706D02*
X17372387Y-5331182D01*
X17372387Y-5331182D02*
X17353340Y-5321658D01*
X17353340Y-5321658D02*
X17343816Y-5312134D01*
X17343816Y-5312134D02*
X17334292Y-5293087D01*
X17334292Y-5293087D02*
X17334292Y-5274039D01*
X17334292Y-5274039D02*
X17343816Y-5254991D01*
X17343816Y-5254991D02*
X17353340Y-5245468D01*
X17353340Y-5245468D02*
X17372387Y-5235944D01*
X17372387Y-5235944D02*
X17420006Y-5235944D01*
X17420006Y-5235944D02*
X17448578Y-5245468D01*
D10*
X17171372Y-5834003D02*
X17171372Y-5934003D01*
X17135658Y-5776860D02*
X17099944Y-5884003D01*
X17099944Y-5884003D02*
X17192801Y-5884003D01*
X17107086Y-7912503D02*
X17107086Y-7762503D01*
X17107086Y-7762503D02*
X17192801Y-7912503D01*
X17192801Y-7912503D02*
X17192801Y-7762503D01*
X17285658Y-7912503D02*
X17271372Y-7905360D01*
X17271372Y-7905360D02*
X17264229Y-7898217D01*
X17264229Y-7898217D02*
X17257086Y-7883931D01*
X17257086Y-7883931D02*
X17257086Y-7841074D01*
X17257086Y-7841074D02*
X17264229Y-7826788D01*
X17264229Y-7826788D02*
X17271372Y-7819646D01*
X17271372Y-7819646D02*
X17285658Y-7812503D01*
X17285658Y-7812503D02*
X17307086Y-7812503D01*
X17307086Y-7812503D02*
X17321372Y-7819646D01*
X17321372Y-7819646D02*
X17328515Y-7826788D01*
X17328515Y-7826788D02*
X17335658Y-7841074D01*
X17335658Y-7841074D02*
X17335658Y-7883931D01*
X17335658Y-7883931D02*
X17328515Y-7898217D01*
X17328515Y-7898217D02*
X17321372Y-7905360D01*
X17321372Y-7905360D02*
X17307086Y-7912503D01*
X17307086Y-7912503D02*
X17285658Y-7912503D01*
X13927086Y-7106817D02*
X13919943Y-7113960D01*
X13919943Y-7113960D02*
X13898515Y-7121103D01*
X13898515Y-7121103D02*
X13884229Y-7121103D01*
X13884229Y-7121103D02*
X13862801Y-7113960D01*
X13862801Y-7113960D02*
X13848515Y-7099674D01*
X13848515Y-7099674D02*
X13841372Y-7085388D01*
X13841372Y-7085388D02*
X13834229Y-7056817D01*
X13834229Y-7056817D02*
X13834229Y-7035388D01*
X13834229Y-7035388D02*
X13841372Y-7006817D01*
X13841372Y-7006817D02*
X13848515Y-6992531D01*
X13848515Y-6992531D02*
X13862801Y-6978246D01*
X13862801Y-6978246D02*
X13884229Y-6971103D01*
X13884229Y-6971103D02*
X13898515Y-6971103D01*
X13898515Y-6971103D02*
X13919943Y-6978246D01*
X13919943Y-6978246D02*
X13927086Y-6985388D01*
X14012801Y-7121103D02*
X13998515Y-7113960D01*
X13998515Y-7113960D02*
X13991372Y-7106817D01*
X13991372Y-7106817D02*
X13984229Y-7092531D01*
X13984229Y-7092531D02*
X13984229Y-7049674D01*
X13984229Y-7049674D02*
X13991372Y-7035388D01*
X13991372Y-7035388D02*
X13998515Y-7028246D01*
X13998515Y-7028246D02*
X14012801Y-7021103D01*
X14012801Y-7021103D02*
X14034229Y-7021103D01*
X14034229Y-7021103D02*
X14048515Y-7028246D01*
X14048515Y-7028246D02*
X14055658Y-7035388D01*
X14055658Y-7035388D02*
X14062801Y-7049674D01*
X14062801Y-7049674D02*
X14062801Y-7092531D01*
X14062801Y-7092531D02*
X14055658Y-7106817D01*
X14055658Y-7106817D02*
X14048515Y-7113960D01*
X14048515Y-7113960D02*
X14034229Y-7121103D01*
X14034229Y-7121103D02*
X14012801Y-7121103D01*
X14127086Y-7021103D02*
X14127086Y-7171103D01*
X14127086Y-7028246D02*
X14141372Y-7021103D01*
X14141372Y-7021103D02*
X14169943Y-7021103D01*
X14169943Y-7021103D02*
X14184229Y-7028246D01*
X14184229Y-7028246D02*
X14191372Y-7035388D01*
X14191372Y-7035388D02*
X14198515Y-7049674D01*
X14198515Y-7049674D02*
X14198515Y-7092531D01*
X14198515Y-7092531D02*
X14191372Y-7106817D01*
X14191372Y-7106817D02*
X14184229Y-7113960D01*
X14184229Y-7113960D02*
X14169943Y-7121103D01*
X14169943Y-7121103D02*
X14141372Y-7121103D01*
X14141372Y-7121103D02*
X14127086Y-7113960D01*
X14262801Y-7021103D02*
X14262801Y-7171103D01*
X14262801Y-7028246D02*
X14277086Y-7021103D01*
X14277086Y-7021103D02*
X14305658Y-7021103D01*
X14305658Y-7021103D02*
X14319943Y-7028246D01*
X14319943Y-7028246D02*
X14327086Y-7035388D01*
X14327086Y-7035388D02*
X14334229Y-7049674D01*
X14334229Y-7049674D02*
X14334229Y-7092531D01*
X14334229Y-7092531D02*
X14327086Y-7106817D01*
X14327086Y-7106817D02*
X14319943Y-7113960D01*
X14319943Y-7113960D02*
X14305658Y-7121103D01*
X14305658Y-7121103D02*
X14277086Y-7121103D01*
X14277086Y-7121103D02*
X14262801Y-7113960D01*
X14455658Y-7113960D02*
X14441372Y-7121103D01*
X14441372Y-7121103D02*
X14412801Y-7121103D01*
X14412801Y-7121103D02*
X14398515Y-7113960D01*
X14398515Y-7113960D02*
X14391372Y-7099674D01*
X14391372Y-7099674D02*
X14391372Y-7042531D01*
X14391372Y-7042531D02*
X14398515Y-7028246D01*
X14398515Y-7028246D02*
X14412801Y-7021103D01*
X14412801Y-7021103D02*
X14441372Y-7021103D01*
X14441372Y-7021103D02*
X14455658Y-7028246D01*
X14455658Y-7028246D02*
X14462801Y-7042531D01*
X14462801Y-7042531D02*
X14462801Y-7056817D01*
X14462801Y-7056817D02*
X14391372Y-7071103D01*
X14527086Y-7121103D02*
X14527086Y-7021103D01*
X14527086Y-7049674D02*
X14534229Y-7035388D01*
X14534229Y-7035388D02*
X14541372Y-7028246D01*
X14541372Y-7028246D02*
X14555658Y-7021103D01*
X14555658Y-7021103D02*
X14569943Y-7021103D01*
X14784229Y-7042531D02*
X14734229Y-7042531D01*
X14734229Y-7121103D02*
X14734229Y-6971103D01*
X14734229Y-6971103D02*
X14805658Y-6971103D01*
X14862800Y-7121103D02*
X14862800Y-7021103D01*
X14862800Y-6971103D02*
X14855658Y-6978246D01*
X14855658Y-6978246D02*
X14862800Y-6985388D01*
X14862800Y-6985388D02*
X14869943Y-6978246D01*
X14869943Y-6978246D02*
X14862800Y-6971103D01*
X14862800Y-6971103D02*
X14862800Y-6985388D01*
X14934229Y-7021103D02*
X14934229Y-7121103D01*
X14934229Y-7035388D02*
X14941372Y-7028246D01*
X14941372Y-7028246D02*
X14955658Y-7021103D01*
X14955658Y-7021103D02*
X14977086Y-7021103D01*
X14977086Y-7021103D02*
X14991372Y-7028246D01*
X14991372Y-7028246D02*
X14998515Y-7042531D01*
X14998515Y-7042531D02*
X14998515Y-7121103D01*
X15069943Y-7121103D02*
X15069943Y-7021103D01*
X15069943Y-6971103D02*
X15062801Y-6978246D01*
X15062801Y-6978246D02*
X15069943Y-6985388D01*
X15069943Y-6985388D02*
X15077086Y-6978246D01*
X15077086Y-6978246D02*
X15069943Y-6971103D01*
X15069943Y-6971103D02*
X15069943Y-6985388D01*
X15134229Y-7113960D02*
X15148515Y-7121103D01*
X15148515Y-7121103D02*
X15177086Y-7121103D01*
X15177086Y-7121103D02*
X15191372Y-7113960D01*
X15191372Y-7113960D02*
X15198515Y-7099674D01*
X15198515Y-7099674D02*
X15198515Y-7092531D01*
X15198515Y-7092531D02*
X15191372Y-7078246D01*
X15191372Y-7078246D02*
X15177086Y-7071103D01*
X15177086Y-7071103D02*
X15155658Y-7071103D01*
X15155658Y-7071103D02*
X15141372Y-7063960D01*
X15141372Y-7063960D02*
X15134229Y-7049674D01*
X15134229Y-7049674D02*
X15134229Y-7042531D01*
X15134229Y-7042531D02*
X15141372Y-7028246D01*
X15141372Y-7028246D02*
X15155658Y-7021103D01*
X15155658Y-7021103D02*
X15177086Y-7021103D01*
X15177086Y-7021103D02*
X15191372Y-7028246D01*
X15262801Y-7121103D02*
X15262801Y-6971103D01*
X15327086Y-7121103D02*
X15327086Y-7042531D01*
X15327086Y-7042531D02*
X15319943Y-7028246D01*
X15319943Y-7028246D02*
X15305658Y-7021103D01*
X15305658Y-7021103D02*
X15284229Y-7021103D01*
X15284229Y-7021103D02*
X15269943Y-7028246D01*
X15269943Y-7028246D02*
X15262801Y-7035388D01*
X15398515Y-7106817D02*
X15405658Y-7113960D01*
X15405658Y-7113960D02*
X15398515Y-7121103D01*
X15398515Y-7121103D02*
X15391372Y-7113960D01*
X15391372Y-7113960D02*
X15398515Y-7106817D01*
X15398515Y-7106817D02*
X15398515Y-7121103D01*
X15398515Y-7028246D02*
X15405658Y-7035388D01*
X15405658Y-7035388D02*
X15398515Y-7042531D01*
X15398515Y-7042531D02*
X15391372Y-7035388D01*
X15391372Y-7035388D02*
X15398515Y-7028246D01*
X15398515Y-7028246D02*
X15398515Y-7042531D01*
X23017086Y-7121103D02*
X23017086Y-6971103D01*
X23017086Y-6971103D02*
X23102800Y-7121103D01*
X23102800Y-7121103D02*
X23102800Y-6971103D01*
X23195657Y-7121103D02*
X23181372Y-7113960D01*
X23181372Y-7113960D02*
X23174229Y-7106817D01*
X23174229Y-7106817D02*
X23167086Y-7092531D01*
X23167086Y-7092531D02*
X23167086Y-7049674D01*
X23167086Y-7049674D02*
X23174229Y-7035388D01*
X23174229Y-7035388D02*
X23181372Y-7028246D01*
X23181372Y-7028246D02*
X23195657Y-7021103D01*
X23195657Y-7021103D02*
X23217086Y-7021103D01*
X23217086Y-7021103D02*
X23231372Y-7028246D01*
X23231372Y-7028246D02*
X23238514Y-7035388D01*
X23238514Y-7035388D02*
X23245657Y-7049674D01*
X23245657Y-7049674D02*
X23245657Y-7092531D01*
X23245657Y-7092531D02*
X23238514Y-7106817D01*
X23238514Y-7106817D02*
X23231372Y-7113960D01*
X23231372Y-7113960D02*
X23217086Y-7121103D01*
X23217086Y-7121103D02*
X23195657Y-7121103D01*
X13841372Y-7833931D02*
X13891372Y-7833931D01*
X13912801Y-7912503D02*
X13841372Y-7912503D01*
X13841372Y-7912503D02*
X13841372Y-7762503D01*
X13841372Y-7762503D02*
X13912801Y-7762503D01*
X14041372Y-7912503D02*
X14041372Y-7762503D01*
X14041372Y-7905360D02*
X14027086Y-7912503D01*
X14027086Y-7912503D02*
X13998515Y-7912503D01*
X13998515Y-7912503D02*
X13984229Y-7905360D01*
X13984229Y-7905360D02*
X13977086Y-7898217D01*
X13977086Y-7898217D02*
X13969943Y-7883931D01*
X13969943Y-7883931D02*
X13969943Y-7841074D01*
X13969943Y-7841074D02*
X13977086Y-7826788D01*
X13977086Y-7826788D02*
X13984229Y-7819646D01*
X13984229Y-7819646D02*
X13998515Y-7812503D01*
X13998515Y-7812503D02*
X14027086Y-7812503D01*
X14027086Y-7812503D02*
X14041372Y-7819646D01*
X14177086Y-7812503D02*
X14177086Y-7933931D01*
X14177086Y-7933931D02*
X14169943Y-7948217D01*
X14169943Y-7948217D02*
X14162801Y-7955360D01*
X14162801Y-7955360D02*
X14148515Y-7962503D01*
X14148515Y-7962503D02*
X14127086Y-7962503D01*
X14127086Y-7962503D02*
X14112801Y-7955360D01*
X14177086Y-7905360D02*
X14162801Y-7912503D01*
X14162801Y-7912503D02*
X14134229Y-7912503D01*
X14134229Y-7912503D02*
X14119943Y-7905360D01*
X14119943Y-7905360D02*
X14112801Y-7898217D01*
X14112801Y-7898217D02*
X14105658Y-7883931D01*
X14105658Y-7883931D02*
X14105658Y-7841074D01*
X14105658Y-7841074D02*
X14112801Y-7826788D01*
X14112801Y-7826788D02*
X14119943Y-7819646D01*
X14119943Y-7819646D02*
X14134229Y-7812503D01*
X14134229Y-7812503D02*
X14162801Y-7812503D01*
X14162801Y-7812503D02*
X14177086Y-7819646D01*
X14305658Y-7905360D02*
X14291372Y-7912503D01*
X14291372Y-7912503D02*
X14262801Y-7912503D01*
X14262801Y-7912503D02*
X14248515Y-7905360D01*
X14248515Y-7905360D02*
X14241372Y-7891074D01*
X14241372Y-7891074D02*
X14241372Y-7833931D01*
X14241372Y-7833931D02*
X14248515Y-7819646D01*
X14248515Y-7819646D02*
X14262801Y-7812503D01*
X14262801Y-7812503D02*
X14291372Y-7812503D01*
X14291372Y-7812503D02*
X14305658Y-7819646D01*
X14305658Y-7819646D02*
X14312801Y-7833931D01*
X14312801Y-7833931D02*
X14312801Y-7848217D01*
X14312801Y-7848217D02*
X14241372Y-7862503D01*
X14555658Y-7905360D02*
X14541372Y-7912503D01*
X14541372Y-7912503D02*
X14512801Y-7912503D01*
X14512801Y-7912503D02*
X14498515Y-7905360D01*
X14498515Y-7905360D02*
X14491372Y-7898217D01*
X14491372Y-7898217D02*
X14484229Y-7883931D01*
X14484229Y-7883931D02*
X14484229Y-7841074D01*
X14484229Y-7841074D02*
X14491372Y-7826788D01*
X14491372Y-7826788D02*
X14498515Y-7819646D01*
X14498515Y-7819646D02*
X14512801Y-7812503D01*
X14512801Y-7812503D02*
X14541372Y-7812503D01*
X14541372Y-7812503D02*
X14555658Y-7819646D01*
X14684229Y-7912503D02*
X14684229Y-7833931D01*
X14684229Y-7833931D02*
X14677086Y-7819646D01*
X14677086Y-7819646D02*
X14662801Y-7812503D01*
X14662801Y-7812503D02*
X14634229Y-7812503D01*
X14634229Y-7812503D02*
X14619943Y-7819646D01*
X14684229Y-7905360D02*
X14669943Y-7912503D01*
X14669943Y-7912503D02*
X14634229Y-7912503D01*
X14634229Y-7912503D02*
X14619943Y-7905360D01*
X14619943Y-7905360D02*
X14612801Y-7891074D01*
X14612801Y-7891074D02*
X14612801Y-7876788D01*
X14612801Y-7876788D02*
X14619943Y-7862503D01*
X14619943Y-7862503D02*
X14634229Y-7855360D01*
X14634229Y-7855360D02*
X14669943Y-7855360D01*
X14669943Y-7855360D02*
X14684229Y-7848217D01*
X14755658Y-7912503D02*
X14755658Y-7812503D01*
X14755658Y-7841074D02*
X14762801Y-7826788D01*
X14762801Y-7826788D02*
X14769943Y-7819646D01*
X14769943Y-7819646D02*
X14784229Y-7812503D01*
X14784229Y-7812503D02*
X14798515Y-7812503D01*
X14912801Y-7912503D02*
X14912801Y-7762503D01*
X14912801Y-7905360D02*
X14898515Y-7912503D01*
X14898515Y-7912503D02*
X14869943Y-7912503D01*
X14869943Y-7912503D02*
X14855658Y-7905360D01*
X14855658Y-7905360D02*
X14848515Y-7898217D01*
X14848515Y-7898217D02*
X14841372Y-7883931D01*
X14841372Y-7883931D02*
X14841372Y-7841074D01*
X14841372Y-7841074D02*
X14848515Y-7826788D01*
X14848515Y-7826788D02*
X14855658Y-7819646D01*
X14855658Y-7819646D02*
X14869943Y-7812503D01*
X14869943Y-7812503D02*
X14898515Y-7812503D01*
X14898515Y-7812503D02*
X14912801Y-7819646D01*
X15162801Y-7905360D02*
X15148515Y-7912503D01*
X15148515Y-7912503D02*
X15119943Y-7912503D01*
X15119943Y-7912503D02*
X15105658Y-7905360D01*
X15105658Y-7905360D02*
X15098515Y-7898217D01*
X15098515Y-7898217D02*
X15091372Y-7883931D01*
X15091372Y-7883931D02*
X15091372Y-7841074D01*
X15091372Y-7841074D02*
X15098515Y-7826788D01*
X15098515Y-7826788D02*
X15105658Y-7819646D01*
X15105658Y-7819646D02*
X15119943Y-7812503D01*
X15119943Y-7812503D02*
X15148515Y-7812503D01*
X15148515Y-7812503D02*
X15162801Y-7819646D01*
X15248515Y-7912503D02*
X15234229Y-7905360D01*
X15234229Y-7905360D02*
X15227086Y-7898217D01*
X15227086Y-7898217D02*
X15219943Y-7883931D01*
X15219943Y-7883931D02*
X15219943Y-7841074D01*
X15219943Y-7841074D02*
X15227086Y-7826788D01*
X15227086Y-7826788D02*
X15234229Y-7819646D01*
X15234229Y-7819646D02*
X15248515Y-7812503D01*
X15248515Y-7812503D02*
X15269943Y-7812503D01*
X15269943Y-7812503D02*
X15284229Y-7819646D01*
X15284229Y-7819646D02*
X15291372Y-7826788D01*
X15291372Y-7826788D02*
X15298515Y-7841074D01*
X15298515Y-7841074D02*
X15298515Y-7883931D01*
X15298515Y-7883931D02*
X15291372Y-7898217D01*
X15291372Y-7898217D02*
X15284229Y-7905360D01*
X15284229Y-7905360D02*
X15269943Y-7912503D01*
X15269943Y-7912503D02*
X15248515Y-7912503D01*
X15362800Y-7812503D02*
X15362800Y-7912503D01*
X15362800Y-7826788D02*
X15369943Y-7819646D01*
X15369943Y-7819646D02*
X15384229Y-7812503D01*
X15384229Y-7812503D02*
X15405658Y-7812503D01*
X15405658Y-7812503D02*
X15419943Y-7819646D01*
X15419943Y-7819646D02*
X15427086Y-7833931D01*
X15427086Y-7833931D02*
X15427086Y-7912503D01*
X15498515Y-7812503D02*
X15498515Y-7912503D01*
X15498515Y-7826788D02*
X15505658Y-7819646D01*
X15505658Y-7819646D02*
X15519943Y-7812503D01*
X15519943Y-7812503D02*
X15541372Y-7812503D01*
X15541372Y-7812503D02*
X15555658Y-7819646D01*
X15555658Y-7819646D02*
X15562801Y-7833931D01*
X15562801Y-7833931D02*
X15562801Y-7912503D01*
X15691372Y-7905360D02*
X15677086Y-7912503D01*
X15677086Y-7912503D02*
X15648515Y-7912503D01*
X15648515Y-7912503D02*
X15634229Y-7905360D01*
X15634229Y-7905360D02*
X15627086Y-7891074D01*
X15627086Y-7891074D02*
X15627086Y-7833931D01*
X15627086Y-7833931D02*
X15634229Y-7819646D01*
X15634229Y-7819646D02*
X15648515Y-7812503D01*
X15648515Y-7812503D02*
X15677086Y-7812503D01*
X15677086Y-7812503D02*
X15691372Y-7819646D01*
X15691372Y-7819646D02*
X15698515Y-7833931D01*
X15698515Y-7833931D02*
X15698515Y-7848217D01*
X15698515Y-7848217D02*
X15627086Y-7862503D01*
X15827086Y-7905360D02*
X15812800Y-7912503D01*
X15812800Y-7912503D02*
X15784229Y-7912503D01*
X15784229Y-7912503D02*
X15769943Y-7905360D01*
X15769943Y-7905360D02*
X15762800Y-7898217D01*
X15762800Y-7898217D02*
X15755658Y-7883931D01*
X15755658Y-7883931D02*
X15755658Y-7841074D01*
X15755658Y-7841074D02*
X15762800Y-7826788D01*
X15762800Y-7826788D02*
X15769943Y-7819646D01*
X15769943Y-7819646D02*
X15784229Y-7812503D01*
X15784229Y-7812503D02*
X15812800Y-7812503D01*
X15812800Y-7812503D02*
X15827086Y-7819646D01*
X15869943Y-7812503D02*
X15927086Y-7812503D01*
X15891372Y-7762503D02*
X15891372Y-7891074D01*
X15891372Y-7891074D02*
X15898515Y-7905360D01*
X15898515Y-7905360D02*
X15912800Y-7912503D01*
X15912800Y-7912503D02*
X15927086Y-7912503D01*
X15998515Y-7912503D02*
X15984229Y-7905360D01*
X15984229Y-7905360D02*
X15977086Y-7898217D01*
X15977086Y-7898217D02*
X15969943Y-7883931D01*
X15969943Y-7883931D02*
X15969943Y-7841074D01*
X15969943Y-7841074D02*
X15977086Y-7826788D01*
X15977086Y-7826788D02*
X15984229Y-7819646D01*
X15984229Y-7819646D02*
X15998515Y-7812503D01*
X15998515Y-7812503D02*
X16019943Y-7812503D01*
X16019943Y-7812503D02*
X16034229Y-7819646D01*
X16034229Y-7819646D02*
X16041372Y-7826788D01*
X16041372Y-7826788D02*
X16048515Y-7841074D01*
X16048515Y-7841074D02*
X16048515Y-7883931D01*
X16048515Y-7883931D02*
X16041372Y-7898217D01*
X16041372Y-7898217D02*
X16034229Y-7905360D01*
X16034229Y-7905360D02*
X16019943Y-7912503D01*
X16019943Y-7912503D02*
X15998515Y-7912503D01*
X16112800Y-7912503D02*
X16112800Y-7812503D01*
X16112800Y-7841074D02*
X16119943Y-7826788D01*
X16119943Y-7826788D02*
X16127086Y-7819646D01*
X16127086Y-7819646D02*
X16141372Y-7812503D01*
X16141372Y-7812503D02*
X16155658Y-7812503D01*
X16198515Y-7905360D02*
X16212800Y-7912503D01*
X16212800Y-7912503D02*
X16241372Y-7912503D01*
X16241372Y-7912503D02*
X16255658Y-7905360D01*
X16255658Y-7905360D02*
X16262800Y-7891074D01*
X16262800Y-7891074D02*
X16262800Y-7883931D01*
X16262800Y-7883931D02*
X16255658Y-7869646D01*
X16255658Y-7869646D02*
X16241372Y-7862503D01*
X16241372Y-7862503D02*
X16219943Y-7862503D01*
X16219943Y-7862503D02*
X16205658Y-7855360D01*
X16205658Y-7855360D02*
X16198515Y-7841074D01*
X16198515Y-7841074D02*
X16198515Y-7833931D01*
X16198515Y-7833931D02*
X16205658Y-7819646D01*
X16205658Y-7819646D02*
X16219943Y-7812503D01*
X16219943Y-7812503D02*
X16241372Y-7812503D01*
X16241372Y-7812503D02*
X16255658Y-7819646D01*
X16327086Y-7898217D02*
X16334229Y-7905360D01*
X16334229Y-7905360D02*
X16327086Y-7912503D01*
X16327086Y-7912503D02*
X16319943Y-7905360D01*
X16319943Y-7905360D02*
X16327086Y-7898217D01*
X16327086Y-7898217D02*
X16327086Y-7912503D01*
X16327086Y-7819646D02*
X16334229Y-7826788D01*
X16334229Y-7826788D02*
X16327086Y-7833931D01*
X16327086Y-7833931D02*
X16319943Y-7826788D01*
X16319943Y-7826788D02*
X16327086Y-7819646D01*
X16327086Y-7819646D02*
X16327086Y-7833931D01*
X17135658Y-6575403D02*
X17149944Y-6575403D01*
X17149944Y-6575403D02*
X17164229Y-6582546D01*
X17164229Y-6582546D02*
X17171372Y-6589688D01*
X17171372Y-6589688D02*
X17178515Y-6603974D01*
X17178515Y-6603974D02*
X17185658Y-6632546D01*
X17185658Y-6632546D02*
X17185658Y-6668260D01*
X17185658Y-6668260D02*
X17178515Y-6696831D01*
X17178515Y-6696831D02*
X17171372Y-6711117D01*
X17171372Y-6711117D02*
X17164229Y-6718260D01*
X17164229Y-6718260D02*
X17149944Y-6725403D01*
X17149944Y-6725403D02*
X17135658Y-6725403D01*
X17135658Y-6725403D02*
X17121372Y-6718260D01*
X17121372Y-6718260D02*
X17114229Y-6711117D01*
X17114229Y-6711117D02*
X17107086Y-6696831D01*
X17107086Y-6696831D02*
X17099944Y-6668260D01*
X17099944Y-6668260D02*
X17099944Y-6632546D01*
X17099944Y-6632546D02*
X17107086Y-6603974D01*
X17107086Y-6603974D02*
X17114229Y-6589688D01*
X17114229Y-6589688D02*
X17121372Y-6582546D01*
X17121372Y-6582546D02*
X17135658Y-6575403D01*
X17249943Y-6711117D02*
X17257086Y-6718260D01*
X17257086Y-6718260D02*
X17249943Y-6725403D01*
X17249943Y-6725403D02*
X17242801Y-6718260D01*
X17242801Y-6718260D02*
X17249943Y-6711117D01*
X17249943Y-6711117D02*
X17249943Y-6725403D01*
X17399944Y-6725403D02*
X17314229Y-6725403D01*
X17357086Y-6725403D02*
X17357086Y-6575403D01*
X17357086Y-6575403D02*
X17342801Y-6596831D01*
X17342801Y-6596831D02*
X17328515Y-6611117D01*
X17328515Y-6611117D02*
X17314229Y-6618260D01*
X17535658Y-6575403D02*
X17464229Y-6575403D01*
X17464229Y-6575403D02*
X17457086Y-6646831D01*
X17457086Y-6646831D02*
X17464229Y-6639688D01*
X17464229Y-6639688D02*
X17478515Y-6632546D01*
X17478515Y-6632546D02*
X17514229Y-6632546D01*
X17514229Y-6632546D02*
X17528515Y-6639688D01*
X17528515Y-6639688D02*
X17535658Y-6646831D01*
X17535658Y-6646831D02*
X17542801Y-6661117D01*
X17542801Y-6661117D02*
X17542801Y-6696831D01*
X17542801Y-6696831D02*
X17535658Y-6711117D01*
X17535658Y-6711117D02*
X17528515Y-6718260D01*
X17528515Y-6718260D02*
X17514229Y-6725403D01*
X17514229Y-6725403D02*
X17478515Y-6725403D01*
X17478515Y-6725403D02*
X17464229Y-6718260D01*
X17464229Y-6718260D02*
X17457086Y-6711117D01*
X17635658Y-6575403D02*
X17649943Y-6575403D01*
X17649943Y-6575403D02*
X17664229Y-6582546D01*
X17664229Y-6582546D02*
X17671372Y-6589688D01*
X17671372Y-6589688D02*
X17678515Y-6603974D01*
X17678515Y-6603974D02*
X17685658Y-6632546D01*
X17685658Y-6632546D02*
X17685658Y-6668260D01*
X17685658Y-6668260D02*
X17678515Y-6696831D01*
X17678515Y-6696831D02*
X17671372Y-6711117D01*
X17671372Y-6711117D02*
X17664229Y-6718260D01*
X17664229Y-6718260D02*
X17649943Y-6725403D01*
X17649943Y-6725403D02*
X17635658Y-6725403D01*
X17635658Y-6725403D02*
X17621372Y-6718260D01*
X17621372Y-6718260D02*
X17614229Y-6711117D01*
X17614229Y-6711117D02*
X17607086Y-6696831D01*
X17607086Y-6696831D02*
X17599943Y-6668260D01*
X17599943Y-6668260D02*
X17599943Y-6632546D01*
X17599943Y-6632546D02*
X17607086Y-6603974D01*
X17607086Y-6603974D02*
X17614229Y-6589688D01*
X17614229Y-6589688D02*
X17621372Y-6582546D01*
X17621372Y-6582546D02*
X17635658Y-6575403D01*
X17778515Y-6575403D02*
X17792801Y-6575403D01*
X17792801Y-6575403D02*
X17807086Y-6582546D01*
X17807086Y-6582546D02*
X17814229Y-6589688D01*
X17814229Y-6589688D02*
X17821372Y-6603974D01*
X17821372Y-6603974D02*
X17828515Y-6632546D01*
X17828515Y-6632546D02*
X17828515Y-6668260D01*
X17828515Y-6668260D02*
X17821372Y-6696831D01*
X17821372Y-6696831D02*
X17814229Y-6711117D01*
X17814229Y-6711117D02*
X17807086Y-6718260D01*
X17807086Y-6718260D02*
X17792801Y-6725403D01*
X17792801Y-6725403D02*
X17778515Y-6725403D01*
X17778515Y-6725403D02*
X17764229Y-6718260D01*
X17764229Y-6718260D02*
X17757086Y-6711117D01*
X17757086Y-6711117D02*
X17749943Y-6696831D01*
X17749943Y-6696831D02*
X17742801Y-6668260D01*
X17742801Y-6668260D02*
X17742801Y-6632546D01*
X17742801Y-6632546D02*
X17749943Y-6603974D01*
X17749943Y-6603974D02*
X17757086Y-6589688D01*
X17757086Y-6589688D02*
X17764229Y-6582546D01*
X17764229Y-6582546D02*
X17778515Y-6575403D01*
X18007086Y-6725403D02*
X18007086Y-6625403D01*
X18007086Y-6639688D02*
X18014229Y-6632546D01*
X18014229Y-6632546D02*
X18028515Y-6625403D01*
X18028515Y-6625403D02*
X18049943Y-6625403D01*
X18049943Y-6625403D02*
X18064229Y-6632546D01*
X18064229Y-6632546D02*
X18071372Y-6646831D01*
X18071372Y-6646831D02*
X18071372Y-6725403D01*
X18071372Y-6646831D02*
X18078515Y-6632546D01*
X18078515Y-6632546D02*
X18092800Y-6625403D01*
X18092800Y-6625403D02*
X18114229Y-6625403D01*
X18114229Y-6625403D02*
X18128515Y-6632546D01*
X18128515Y-6632546D02*
X18135658Y-6646831D01*
X18135658Y-6646831D02*
X18135658Y-6725403D01*
X18207086Y-6725403D02*
X18207086Y-6625403D01*
X18207086Y-6639688D02*
X18214229Y-6632546D01*
X18214229Y-6632546D02*
X18228515Y-6625403D01*
X18228515Y-6625403D02*
X18249943Y-6625403D01*
X18249943Y-6625403D02*
X18264229Y-6632546D01*
X18264229Y-6632546D02*
X18271372Y-6646831D01*
X18271372Y-6646831D02*
X18271372Y-6725403D01*
X18271372Y-6646831D02*
X18278515Y-6632546D01*
X18278515Y-6632546D02*
X18292800Y-6625403D01*
X18292800Y-6625403D02*
X18314229Y-6625403D01*
X18314229Y-6625403D02*
X18328515Y-6632546D01*
X18328515Y-6632546D02*
X18335658Y-6646831D01*
X18335658Y-6646831D02*
X18335658Y-6725403D01*
X18628515Y-6568260D02*
X18499943Y-6761117D01*
X18821372Y-6575403D02*
X18835658Y-6575403D01*
X18835658Y-6575403D02*
X18849943Y-6582546D01*
X18849943Y-6582546D02*
X18857086Y-6589688D01*
X18857086Y-6589688D02*
X18864229Y-6603974D01*
X18864229Y-6603974D02*
X18871372Y-6632546D01*
X18871372Y-6632546D02*
X18871372Y-6668260D01*
X18871372Y-6668260D02*
X18864229Y-6696831D01*
X18864229Y-6696831D02*
X18857086Y-6711117D01*
X18857086Y-6711117D02*
X18849943Y-6718260D01*
X18849943Y-6718260D02*
X18835658Y-6725403D01*
X18835658Y-6725403D02*
X18821372Y-6725403D01*
X18821372Y-6725403D02*
X18807086Y-6718260D01*
X18807086Y-6718260D02*
X18799943Y-6711117D01*
X18799943Y-6711117D02*
X18792800Y-6696831D01*
X18792800Y-6696831D02*
X18785658Y-6668260D01*
X18785658Y-6668260D02*
X18785658Y-6632546D01*
X18785658Y-6632546D02*
X18792800Y-6603974D01*
X18792800Y-6603974D02*
X18799943Y-6589688D01*
X18799943Y-6589688D02*
X18807086Y-6582546D01*
X18807086Y-6582546D02*
X18821372Y-6575403D01*
X18935658Y-6711117D02*
X18942800Y-6718260D01*
X18942800Y-6718260D02*
X18935658Y-6725403D01*
X18935658Y-6725403D02*
X18928515Y-6718260D01*
X18928515Y-6718260D02*
X18935658Y-6711117D01*
X18935658Y-6711117D02*
X18935658Y-6725403D01*
X19085658Y-6725403D02*
X18999943Y-6725403D01*
X19042800Y-6725403D02*
X19042800Y-6575403D01*
X19042800Y-6575403D02*
X19028515Y-6596831D01*
X19028515Y-6596831D02*
X19014229Y-6611117D01*
X19014229Y-6611117D02*
X18999943Y-6618260D01*
X19221372Y-6575403D02*
X19149943Y-6575403D01*
X19149943Y-6575403D02*
X19142800Y-6646831D01*
X19142800Y-6646831D02*
X19149943Y-6639688D01*
X19149943Y-6639688D02*
X19164229Y-6632546D01*
X19164229Y-6632546D02*
X19199943Y-6632546D01*
X19199943Y-6632546D02*
X19214229Y-6639688D01*
X19214229Y-6639688D02*
X19221372Y-6646831D01*
X19221372Y-6646831D02*
X19228515Y-6661117D01*
X19228515Y-6661117D02*
X19228515Y-6696831D01*
X19228515Y-6696831D02*
X19221372Y-6711117D01*
X19221372Y-6711117D02*
X19214229Y-6718260D01*
X19214229Y-6718260D02*
X19199943Y-6725403D01*
X19199943Y-6725403D02*
X19164229Y-6725403D01*
X19164229Y-6725403D02*
X19149943Y-6718260D01*
X19149943Y-6718260D02*
X19142800Y-6711117D01*
X19321372Y-6575403D02*
X19335658Y-6575403D01*
X19335658Y-6575403D02*
X19349943Y-6582546D01*
X19349943Y-6582546D02*
X19357086Y-6589688D01*
X19357086Y-6589688D02*
X19364229Y-6603974D01*
X19364229Y-6603974D02*
X19371372Y-6632546D01*
X19371372Y-6632546D02*
X19371372Y-6668260D01*
X19371372Y-6668260D02*
X19364229Y-6696831D01*
X19364229Y-6696831D02*
X19357086Y-6711117D01*
X19357086Y-6711117D02*
X19349943Y-6718260D01*
X19349943Y-6718260D02*
X19335658Y-6725403D01*
X19335658Y-6725403D02*
X19321372Y-6725403D01*
X19321372Y-6725403D02*
X19307086Y-6718260D01*
X19307086Y-6718260D02*
X19299943Y-6711117D01*
X19299943Y-6711117D02*
X19292800Y-6696831D01*
X19292800Y-6696831D02*
X19285658Y-6668260D01*
X19285658Y-6668260D02*
X19285658Y-6632546D01*
X19285658Y-6632546D02*
X19292800Y-6603974D01*
X19292800Y-6603974D02*
X19299943Y-6589688D01*
X19299943Y-6589688D02*
X19307086Y-6582546D01*
X19307086Y-6582546D02*
X19321372Y-6575403D01*
X19464229Y-6575403D02*
X19478515Y-6575403D01*
X19478515Y-6575403D02*
X19492800Y-6582546D01*
X19492800Y-6582546D02*
X19499943Y-6589688D01*
X19499943Y-6589688D02*
X19507086Y-6603974D01*
X19507086Y-6603974D02*
X19514229Y-6632546D01*
X19514229Y-6632546D02*
X19514229Y-6668260D01*
X19514229Y-6668260D02*
X19507086Y-6696831D01*
X19507086Y-6696831D02*
X19499943Y-6711117D01*
X19499943Y-6711117D02*
X19492800Y-6718260D01*
X19492800Y-6718260D02*
X19478515Y-6725403D01*
X19478515Y-6725403D02*
X19464229Y-6725403D01*
X19464229Y-6725403D02*
X19449943Y-6718260D01*
X19449943Y-6718260D02*
X19442800Y-6711117D01*
X19442800Y-6711117D02*
X19435657Y-6696831D01*
X19435657Y-6696831D02*
X19428515Y-6668260D01*
X19428515Y-6668260D02*
X19428515Y-6632546D01*
X19428515Y-6632546D02*
X19435657Y-6603974D01*
X19435657Y-6603974D02*
X19442800Y-6589688D01*
X19442800Y-6589688D02*
X19449943Y-6582546D01*
X19449943Y-6582546D02*
X19464229Y-6575403D01*
X19692800Y-6725403D02*
X19692800Y-6625403D01*
X19692800Y-6639688D02*
X19699943Y-6632546D01*
X19699943Y-6632546D02*
X19714229Y-6625403D01*
X19714229Y-6625403D02*
X19735657Y-6625403D01*
X19735657Y-6625403D02*
X19749943Y-6632546D01*
X19749943Y-6632546D02*
X19757086Y-6646831D01*
X19757086Y-6646831D02*
X19757086Y-6725403D01*
X19757086Y-6646831D02*
X19764229Y-6632546D01*
X19764229Y-6632546D02*
X19778515Y-6625403D01*
X19778515Y-6625403D02*
X19799943Y-6625403D01*
X19799943Y-6625403D02*
X19814229Y-6632546D01*
X19814229Y-6632546D02*
X19821372Y-6646831D01*
X19821372Y-6646831D02*
X19821372Y-6725403D01*
X19892800Y-6725403D02*
X19892800Y-6625403D01*
X19892800Y-6639688D02*
X19899943Y-6632546D01*
X19899943Y-6632546D02*
X19914229Y-6625403D01*
X19914229Y-6625403D02*
X19935657Y-6625403D01*
X19935657Y-6625403D02*
X19949943Y-6632546D01*
X19949943Y-6632546D02*
X19957086Y-6646831D01*
X19957086Y-6646831D02*
X19957086Y-6725403D01*
X19957086Y-6646831D02*
X19964229Y-6632546D01*
X19964229Y-6632546D02*
X19978515Y-6625403D01*
X19978515Y-6625403D02*
X19999943Y-6625403D01*
X19999943Y-6625403D02*
X20014229Y-6632546D01*
X20014229Y-6632546D02*
X20021372Y-6646831D01*
X20021372Y-6646831D02*
X20021372Y-6725403D01*
X13927086Y-5919717D02*
X13919943Y-5926860D01*
X13919943Y-5926860D02*
X13898515Y-5934003D01*
X13898515Y-5934003D02*
X13884229Y-5934003D01*
X13884229Y-5934003D02*
X13862801Y-5926860D01*
X13862801Y-5926860D02*
X13848515Y-5912574D01*
X13848515Y-5912574D02*
X13841372Y-5898288D01*
X13841372Y-5898288D02*
X13834229Y-5869717D01*
X13834229Y-5869717D02*
X13834229Y-5848288D01*
X13834229Y-5848288D02*
X13841372Y-5819717D01*
X13841372Y-5819717D02*
X13848515Y-5805431D01*
X13848515Y-5805431D02*
X13862801Y-5791146D01*
X13862801Y-5791146D02*
X13884229Y-5784003D01*
X13884229Y-5784003D02*
X13898515Y-5784003D01*
X13898515Y-5784003D02*
X13919943Y-5791146D01*
X13919943Y-5791146D02*
X13927086Y-5798288D01*
X14012801Y-5934003D02*
X13998515Y-5926860D01*
X13998515Y-5926860D02*
X13991372Y-5919717D01*
X13991372Y-5919717D02*
X13984229Y-5905431D01*
X13984229Y-5905431D02*
X13984229Y-5862574D01*
X13984229Y-5862574D02*
X13991372Y-5848288D01*
X13991372Y-5848288D02*
X13998515Y-5841146D01*
X13998515Y-5841146D02*
X14012801Y-5834003D01*
X14012801Y-5834003D02*
X14034229Y-5834003D01*
X14034229Y-5834003D02*
X14048515Y-5841146D01*
X14048515Y-5841146D02*
X14055658Y-5848288D01*
X14055658Y-5848288D02*
X14062801Y-5862574D01*
X14062801Y-5862574D02*
X14062801Y-5905431D01*
X14062801Y-5905431D02*
X14055658Y-5919717D01*
X14055658Y-5919717D02*
X14048515Y-5926860D01*
X14048515Y-5926860D02*
X14034229Y-5934003D01*
X14034229Y-5934003D02*
X14012801Y-5934003D01*
X14127086Y-5834003D02*
X14127086Y-5984003D01*
X14127086Y-5841146D02*
X14141372Y-5834003D01*
X14141372Y-5834003D02*
X14169943Y-5834003D01*
X14169943Y-5834003D02*
X14184229Y-5841146D01*
X14184229Y-5841146D02*
X14191372Y-5848288D01*
X14191372Y-5848288D02*
X14198515Y-5862574D01*
X14198515Y-5862574D02*
X14198515Y-5905431D01*
X14198515Y-5905431D02*
X14191372Y-5919717D01*
X14191372Y-5919717D02*
X14184229Y-5926860D01*
X14184229Y-5926860D02*
X14169943Y-5934003D01*
X14169943Y-5934003D02*
X14141372Y-5934003D01*
X14141372Y-5934003D02*
X14127086Y-5926860D01*
X14262801Y-5834003D02*
X14262801Y-5984003D01*
X14262801Y-5841146D02*
X14277086Y-5834003D01*
X14277086Y-5834003D02*
X14305658Y-5834003D01*
X14305658Y-5834003D02*
X14319943Y-5841146D01*
X14319943Y-5841146D02*
X14327086Y-5848288D01*
X14327086Y-5848288D02*
X14334229Y-5862574D01*
X14334229Y-5862574D02*
X14334229Y-5905431D01*
X14334229Y-5905431D02*
X14327086Y-5919717D01*
X14327086Y-5919717D02*
X14319943Y-5926860D01*
X14319943Y-5926860D02*
X14305658Y-5934003D01*
X14305658Y-5934003D02*
X14277086Y-5934003D01*
X14277086Y-5934003D02*
X14262801Y-5926860D01*
X14455658Y-5926860D02*
X14441372Y-5934003D01*
X14441372Y-5934003D02*
X14412801Y-5934003D01*
X14412801Y-5934003D02*
X14398515Y-5926860D01*
X14398515Y-5926860D02*
X14391372Y-5912574D01*
X14391372Y-5912574D02*
X14391372Y-5855431D01*
X14391372Y-5855431D02*
X14398515Y-5841146D01*
X14398515Y-5841146D02*
X14412801Y-5834003D01*
X14412801Y-5834003D02*
X14441372Y-5834003D01*
X14441372Y-5834003D02*
X14455658Y-5841146D01*
X14455658Y-5841146D02*
X14462801Y-5855431D01*
X14462801Y-5855431D02*
X14462801Y-5869717D01*
X14462801Y-5869717D02*
X14391372Y-5884003D01*
X14527086Y-5934003D02*
X14527086Y-5834003D01*
X14527086Y-5862574D02*
X14534229Y-5848288D01*
X14534229Y-5848288D02*
X14541372Y-5841146D01*
X14541372Y-5841146D02*
X14555658Y-5834003D01*
X14555658Y-5834003D02*
X14569943Y-5834003D01*
X14805658Y-5934003D02*
X14734229Y-5934003D01*
X14734229Y-5934003D02*
X14734229Y-5784003D01*
X14919943Y-5934003D02*
X14919943Y-5855431D01*
X14919943Y-5855431D02*
X14912801Y-5841146D01*
X14912801Y-5841146D02*
X14898515Y-5834003D01*
X14898515Y-5834003D02*
X14869943Y-5834003D01*
X14869943Y-5834003D02*
X14855658Y-5841146D01*
X14919943Y-5926860D02*
X14905658Y-5934003D01*
X14905658Y-5934003D02*
X14869943Y-5934003D01*
X14869943Y-5934003D02*
X14855658Y-5926860D01*
X14855658Y-5926860D02*
X14848515Y-5912574D01*
X14848515Y-5912574D02*
X14848515Y-5898288D01*
X14848515Y-5898288D02*
X14855658Y-5884003D01*
X14855658Y-5884003D02*
X14869943Y-5876860D01*
X14869943Y-5876860D02*
X14905658Y-5876860D01*
X14905658Y-5876860D02*
X14919943Y-5869717D01*
X14977086Y-5834003D02*
X15012801Y-5934003D01*
X15048515Y-5834003D02*
X15012801Y-5934003D01*
X15012801Y-5934003D02*
X14998515Y-5969717D01*
X14998515Y-5969717D02*
X14991372Y-5976860D01*
X14991372Y-5976860D02*
X14977086Y-5984003D01*
X15162801Y-5926860D02*
X15148515Y-5934003D01*
X15148515Y-5934003D02*
X15119943Y-5934003D01*
X15119943Y-5934003D02*
X15105658Y-5926860D01*
X15105658Y-5926860D02*
X15098515Y-5912574D01*
X15098515Y-5912574D02*
X15098515Y-5855431D01*
X15098515Y-5855431D02*
X15105658Y-5841146D01*
X15105658Y-5841146D02*
X15119943Y-5834003D01*
X15119943Y-5834003D02*
X15148515Y-5834003D01*
X15148515Y-5834003D02*
X15162801Y-5841146D01*
X15162801Y-5841146D02*
X15169943Y-5855431D01*
X15169943Y-5855431D02*
X15169943Y-5869717D01*
X15169943Y-5869717D02*
X15098515Y-5884003D01*
X15234229Y-5934003D02*
X15234229Y-5834003D01*
X15234229Y-5862574D02*
X15241372Y-5848288D01*
X15241372Y-5848288D02*
X15248515Y-5841146D01*
X15248515Y-5841146D02*
X15262801Y-5834003D01*
X15262801Y-5834003D02*
X15277086Y-5834003D01*
X15527086Y-5919717D02*
X15519943Y-5926860D01*
X15519943Y-5926860D02*
X15498515Y-5934003D01*
X15498515Y-5934003D02*
X15484229Y-5934003D01*
X15484229Y-5934003D02*
X15462800Y-5926860D01*
X15462800Y-5926860D02*
X15448515Y-5912574D01*
X15448515Y-5912574D02*
X15441372Y-5898288D01*
X15441372Y-5898288D02*
X15434229Y-5869717D01*
X15434229Y-5869717D02*
X15434229Y-5848288D01*
X15434229Y-5848288D02*
X15441372Y-5819717D01*
X15441372Y-5819717D02*
X15448515Y-5805431D01*
X15448515Y-5805431D02*
X15462800Y-5791146D01*
X15462800Y-5791146D02*
X15484229Y-5784003D01*
X15484229Y-5784003D02*
X15498515Y-5784003D01*
X15498515Y-5784003D02*
X15519943Y-5791146D01*
X15519943Y-5791146D02*
X15527086Y-5798288D01*
X15612800Y-5934003D02*
X15598515Y-5926860D01*
X15598515Y-5926860D02*
X15591372Y-5919717D01*
X15591372Y-5919717D02*
X15584229Y-5905431D01*
X15584229Y-5905431D02*
X15584229Y-5862574D01*
X15584229Y-5862574D02*
X15591372Y-5848288D01*
X15591372Y-5848288D02*
X15598515Y-5841146D01*
X15598515Y-5841146D02*
X15612800Y-5834003D01*
X15612800Y-5834003D02*
X15634229Y-5834003D01*
X15634229Y-5834003D02*
X15648515Y-5841146D01*
X15648515Y-5841146D02*
X15655658Y-5848288D01*
X15655658Y-5848288D02*
X15662800Y-5862574D01*
X15662800Y-5862574D02*
X15662800Y-5905431D01*
X15662800Y-5905431D02*
X15655658Y-5919717D01*
X15655658Y-5919717D02*
X15648515Y-5926860D01*
X15648515Y-5926860D02*
X15634229Y-5934003D01*
X15634229Y-5934003D02*
X15612800Y-5934003D01*
X15791372Y-5834003D02*
X15791372Y-5934003D01*
X15727086Y-5834003D02*
X15727086Y-5912574D01*
X15727086Y-5912574D02*
X15734229Y-5926860D01*
X15734229Y-5926860D02*
X15748515Y-5934003D01*
X15748515Y-5934003D02*
X15769943Y-5934003D01*
X15769943Y-5934003D02*
X15784229Y-5926860D01*
X15784229Y-5926860D02*
X15791372Y-5919717D01*
X15862800Y-5834003D02*
X15862800Y-5934003D01*
X15862800Y-5848288D02*
X15869943Y-5841146D01*
X15869943Y-5841146D02*
X15884229Y-5834003D01*
X15884229Y-5834003D02*
X15905658Y-5834003D01*
X15905658Y-5834003D02*
X15919943Y-5841146D01*
X15919943Y-5841146D02*
X15927086Y-5855431D01*
X15927086Y-5855431D02*
X15927086Y-5934003D01*
X15977086Y-5834003D02*
X16034229Y-5834003D01*
X15998515Y-5784003D02*
X15998515Y-5912574D01*
X15998515Y-5912574D02*
X16005658Y-5926860D01*
X16005658Y-5926860D02*
X16019943Y-5934003D01*
X16019943Y-5934003D02*
X16034229Y-5934003D01*
X16084229Y-5919717D02*
X16091372Y-5926860D01*
X16091372Y-5926860D02*
X16084229Y-5934003D01*
X16084229Y-5934003D02*
X16077086Y-5926860D01*
X16077086Y-5926860D02*
X16084229Y-5919717D01*
X16084229Y-5919717D02*
X16084229Y-5934003D01*
X16084229Y-5841146D02*
X16091372Y-5848288D01*
X16091372Y-5848288D02*
X16084229Y-5855431D01*
X16084229Y-5855431D02*
X16077086Y-5848288D01*
X16077086Y-5848288D02*
X16084229Y-5841146D01*
X16084229Y-5841146D02*
X16084229Y-5855431D01*
X13841372Y-6725403D02*
X13841372Y-6575403D01*
X13841372Y-6575403D02*
X13891372Y-6682546D01*
X13891372Y-6682546D02*
X13941372Y-6575403D01*
X13941372Y-6575403D02*
X13941372Y-6725403D01*
X14012801Y-6725403D02*
X14012801Y-6625403D01*
X14012801Y-6575403D02*
X14005658Y-6582546D01*
X14005658Y-6582546D02*
X14012801Y-6589688D01*
X14012801Y-6589688D02*
X14019943Y-6582546D01*
X14019943Y-6582546D02*
X14012801Y-6575403D01*
X14012801Y-6575403D02*
X14012801Y-6589688D01*
X14084229Y-6625403D02*
X14084229Y-6725403D01*
X14084229Y-6639688D02*
X14091372Y-6632546D01*
X14091372Y-6632546D02*
X14105658Y-6625403D01*
X14105658Y-6625403D02*
X14127086Y-6625403D01*
X14127086Y-6625403D02*
X14141372Y-6632546D01*
X14141372Y-6632546D02*
X14148515Y-6646831D01*
X14148515Y-6646831D02*
X14148515Y-6725403D01*
X14312801Y-6625403D02*
X14369943Y-6625403D01*
X14334229Y-6575403D02*
X14334229Y-6703974D01*
X14334229Y-6703974D02*
X14341372Y-6718260D01*
X14341372Y-6718260D02*
X14355658Y-6725403D01*
X14355658Y-6725403D02*
X14369943Y-6725403D01*
X14419943Y-6725403D02*
X14419943Y-6625403D01*
X14419943Y-6653974D02*
X14427086Y-6639688D01*
X14427086Y-6639688D02*
X14434229Y-6632546D01*
X14434229Y-6632546D02*
X14448515Y-6625403D01*
X14448515Y-6625403D02*
X14462801Y-6625403D01*
X14577086Y-6725403D02*
X14577086Y-6646831D01*
X14577086Y-6646831D02*
X14569943Y-6632546D01*
X14569943Y-6632546D02*
X14555658Y-6625403D01*
X14555658Y-6625403D02*
X14527086Y-6625403D01*
X14527086Y-6625403D02*
X14512801Y-6632546D01*
X14577086Y-6718260D02*
X14562801Y-6725403D01*
X14562801Y-6725403D02*
X14527086Y-6725403D01*
X14527086Y-6725403D02*
X14512801Y-6718260D01*
X14512801Y-6718260D02*
X14505658Y-6703974D01*
X14505658Y-6703974D02*
X14505658Y-6689688D01*
X14505658Y-6689688D02*
X14512801Y-6675403D01*
X14512801Y-6675403D02*
X14527086Y-6668260D01*
X14527086Y-6668260D02*
X14562801Y-6668260D01*
X14562801Y-6668260D02*
X14577086Y-6661117D01*
X14712801Y-6718260D02*
X14698515Y-6725403D01*
X14698515Y-6725403D02*
X14669943Y-6725403D01*
X14669943Y-6725403D02*
X14655658Y-6718260D01*
X14655658Y-6718260D02*
X14648515Y-6711117D01*
X14648515Y-6711117D02*
X14641372Y-6696831D01*
X14641372Y-6696831D02*
X14641372Y-6653974D01*
X14641372Y-6653974D02*
X14648515Y-6639688D01*
X14648515Y-6639688D02*
X14655658Y-6632546D01*
X14655658Y-6632546D02*
X14669943Y-6625403D01*
X14669943Y-6625403D02*
X14698515Y-6625403D01*
X14698515Y-6625403D02*
X14712801Y-6632546D01*
X14777086Y-6725403D02*
X14777086Y-6575403D01*
X14791372Y-6668260D02*
X14834229Y-6725403D01*
X14834229Y-6625403D02*
X14777086Y-6682546D01*
X15005658Y-6568260D02*
X14877086Y-6761117D01*
X15048515Y-6718260D02*
X15062801Y-6725403D01*
X15062801Y-6725403D02*
X15091372Y-6725403D01*
X15091372Y-6725403D02*
X15105658Y-6718260D01*
X15105658Y-6718260D02*
X15112801Y-6703974D01*
X15112801Y-6703974D02*
X15112801Y-6696831D01*
X15112801Y-6696831D02*
X15105658Y-6682546D01*
X15105658Y-6682546D02*
X15091372Y-6675403D01*
X15091372Y-6675403D02*
X15069944Y-6675403D01*
X15069944Y-6675403D02*
X15055658Y-6668260D01*
X15055658Y-6668260D02*
X15048515Y-6653974D01*
X15048515Y-6653974D02*
X15048515Y-6646831D01*
X15048515Y-6646831D02*
X15055658Y-6632546D01*
X15055658Y-6632546D02*
X15069944Y-6625403D01*
X15069944Y-6625403D02*
X15091372Y-6625403D01*
X15091372Y-6625403D02*
X15105658Y-6632546D01*
X15177086Y-6625403D02*
X15177086Y-6775403D01*
X15177086Y-6632546D02*
X15191372Y-6625403D01*
X15191372Y-6625403D02*
X15219944Y-6625403D01*
X15219944Y-6625403D02*
X15234229Y-6632546D01*
X15234229Y-6632546D02*
X15241372Y-6639688D01*
X15241372Y-6639688D02*
X15248515Y-6653974D01*
X15248515Y-6653974D02*
X15248515Y-6696831D01*
X15248515Y-6696831D02*
X15241372Y-6711117D01*
X15241372Y-6711117D02*
X15234229Y-6718260D01*
X15234229Y-6718260D02*
X15219944Y-6725403D01*
X15219944Y-6725403D02*
X15191372Y-6725403D01*
X15191372Y-6725403D02*
X15177086Y-6718260D01*
X15377086Y-6725403D02*
X15377086Y-6646831D01*
X15377086Y-6646831D02*
X15369944Y-6632546D01*
X15369944Y-6632546D02*
X15355658Y-6625403D01*
X15355658Y-6625403D02*
X15327086Y-6625403D01*
X15327086Y-6625403D02*
X15312801Y-6632546D01*
X15377086Y-6718260D02*
X15362801Y-6725403D01*
X15362801Y-6725403D02*
X15327086Y-6725403D01*
X15327086Y-6725403D02*
X15312801Y-6718260D01*
X15312801Y-6718260D02*
X15305658Y-6703974D01*
X15305658Y-6703974D02*
X15305658Y-6689688D01*
X15305658Y-6689688D02*
X15312801Y-6675403D01*
X15312801Y-6675403D02*
X15327086Y-6668260D01*
X15327086Y-6668260D02*
X15362801Y-6668260D01*
X15362801Y-6668260D02*
X15377086Y-6661117D01*
X15512801Y-6718260D02*
X15498515Y-6725403D01*
X15498515Y-6725403D02*
X15469944Y-6725403D01*
X15469944Y-6725403D02*
X15455658Y-6718260D01*
X15455658Y-6718260D02*
X15448515Y-6711117D01*
X15448515Y-6711117D02*
X15441372Y-6696831D01*
X15441372Y-6696831D02*
X15441372Y-6653974D01*
X15441372Y-6653974D02*
X15448515Y-6639688D01*
X15448515Y-6639688D02*
X15455658Y-6632546D01*
X15455658Y-6632546D02*
X15469944Y-6625403D01*
X15469944Y-6625403D02*
X15498515Y-6625403D01*
X15498515Y-6625403D02*
X15512801Y-6632546D01*
X15577086Y-6725403D02*
X15577086Y-6625403D01*
X15577086Y-6575403D02*
X15569944Y-6582546D01*
X15569944Y-6582546D02*
X15577086Y-6589688D01*
X15577086Y-6589688D02*
X15584229Y-6582546D01*
X15584229Y-6582546D02*
X15577086Y-6575403D01*
X15577086Y-6575403D02*
X15577086Y-6589688D01*
X15648515Y-6625403D02*
X15648515Y-6725403D01*
X15648515Y-6639688D02*
X15655658Y-6632546D01*
X15655658Y-6632546D02*
X15669944Y-6625403D01*
X15669944Y-6625403D02*
X15691372Y-6625403D01*
X15691372Y-6625403D02*
X15705658Y-6632546D01*
X15705658Y-6632546D02*
X15712801Y-6646831D01*
X15712801Y-6646831D02*
X15712801Y-6725403D01*
X15848515Y-6625403D02*
X15848515Y-6746831D01*
X15848515Y-6746831D02*
X15841372Y-6761117D01*
X15841372Y-6761117D02*
X15834229Y-6768260D01*
X15834229Y-6768260D02*
X15819944Y-6775403D01*
X15819944Y-6775403D02*
X15798515Y-6775403D01*
X15798515Y-6775403D02*
X15784229Y-6768260D01*
X15848515Y-6718260D02*
X15834229Y-6725403D01*
X15834229Y-6725403D02*
X15805658Y-6725403D01*
X15805658Y-6725403D02*
X15791372Y-6718260D01*
X15791372Y-6718260D02*
X15784229Y-6711117D01*
X15784229Y-6711117D02*
X15777086Y-6696831D01*
X15777086Y-6696831D02*
X15777086Y-6653974D01*
X15777086Y-6653974D02*
X15784229Y-6639688D01*
X15784229Y-6639688D02*
X15791372Y-6632546D01*
X15791372Y-6632546D02*
X15805658Y-6625403D01*
X15805658Y-6625403D02*
X15834229Y-6625403D01*
X15834229Y-6625403D02*
X15848515Y-6632546D01*
X15919944Y-6711117D02*
X15927086Y-6718260D01*
X15927086Y-6718260D02*
X15919944Y-6725403D01*
X15919944Y-6725403D02*
X15912801Y-6718260D01*
X15912801Y-6718260D02*
X15919944Y-6711117D01*
X15919944Y-6711117D02*
X15919944Y-6725403D01*
X15919944Y-6632546D02*
X15927086Y-6639688D01*
X15927086Y-6639688D02*
X15919944Y-6646831D01*
X15919944Y-6646831D02*
X15912801Y-6639688D01*
X15912801Y-6639688D02*
X15919944Y-6632546D01*
X15919944Y-6632546D02*
X15919944Y-6646831D01*
X20522800Y-6725403D02*
X20522800Y-6575403D01*
X20522800Y-6575403D02*
X20572800Y-6682546D01*
X20572800Y-6682546D02*
X20622800Y-6575403D01*
X20622800Y-6575403D02*
X20622800Y-6725403D01*
X20694229Y-6725403D02*
X20694229Y-6625403D01*
X20694229Y-6575403D02*
X20687086Y-6582546D01*
X20687086Y-6582546D02*
X20694229Y-6589688D01*
X20694229Y-6589688D02*
X20701372Y-6582546D01*
X20701372Y-6582546D02*
X20694229Y-6575403D01*
X20694229Y-6575403D02*
X20694229Y-6589688D01*
X20765657Y-6625403D02*
X20765657Y-6725403D01*
X20765657Y-6639688D02*
X20772800Y-6632546D01*
X20772800Y-6632546D02*
X20787086Y-6625403D01*
X20787086Y-6625403D02*
X20808515Y-6625403D01*
X20808515Y-6625403D02*
X20822800Y-6632546D01*
X20822800Y-6632546D02*
X20829943Y-6646831D01*
X20829943Y-6646831D02*
X20829943Y-6725403D01*
X21015657Y-6725403D02*
X21015657Y-6575403D01*
X21079943Y-6725403D02*
X21079943Y-6646831D01*
X21079943Y-6646831D02*
X21072800Y-6632546D01*
X21072800Y-6632546D02*
X21058515Y-6625403D01*
X21058515Y-6625403D02*
X21037086Y-6625403D01*
X21037086Y-6625403D02*
X21022800Y-6632546D01*
X21022800Y-6632546D02*
X21015657Y-6639688D01*
X21172800Y-6725403D02*
X21158515Y-6718260D01*
X21158515Y-6718260D02*
X21151372Y-6711117D01*
X21151372Y-6711117D02*
X21144229Y-6696831D01*
X21144229Y-6696831D02*
X21144229Y-6653974D01*
X21144229Y-6653974D02*
X21151372Y-6639688D01*
X21151372Y-6639688D02*
X21158515Y-6632546D01*
X21158515Y-6632546D02*
X21172800Y-6625403D01*
X21172800Y-6625403D02*
X21194229Y-6625403D01*
X21194229Y-6625403D02*
X21208515Y-6632546D01*
X21208515Y-6632546D02*
X21215657Y-6639688D01*
X21215657Y-6639688D02*
X21222800Y-6653974D01*
X21222800Y-6653974D02*
X21222800Y-6696831D01*
X21222800Y-6696831D02*
X21215657Y-6711117D01*
X21215657Y-6711117D02*
X21208515Y-6718260D01*
X21208515Y-6718260D02*
X21194229Y-6725403D01*
X21194229Y-6725403D02*
X21172800Y-6725403D01*
X21308515Y-6725403D02*
X21294229Y-6718260D01*
X21294229Y-6718260D02*
X21287086Y-6703974D01*
X21287086Y-6703974D02*
X21287086Y-6575403D01*
X21422800Y-6718260D02*
X21408515Y-6725403D01*
X21408515Y-6725403D02*
X21379943Y-6725403D01*
X21379943Y-6725403D02*
X21365657Y-6718260D01*
X21365657Y-6718260D02*
X21358515Y-6703974D01*
X21358515Y-6703974D02*
X21358515Y-6646831D01*
X21358515Y-6646831D02*
X21365657Y-6632546D01*
X21365657Y-6632546D02*
X21379943Y-6625403D01*
X21379943Y-6625403D02*
X21408515Y-6625403D01*
X21408515Y-6625403D02*
X21422800Y-6632546D01*
X21422800Y-6632546D02*
X21429943Y-6646831D01*
X21429943Y-6646831D02*
X21429943Y-6661117D01*
X21429943Y-6661117D02*
X21358515Y-6675403D01*
X21672800Y-6725403D02*
X21672800Y-6575403D01*
X21672800Y-6718260D02*
X21658514Y-6725403D01*
X21658514Y-6725403D02*
X21629943Y-6725403D01*
X21629943Y-6725403D02*
X21615657Y-6718260D01*
X21615657Y-6718260D02*
X21608514Y-6711117D01*
X21608514Y-6711117D02*
X21601372Y-6696831D01*
X21601372Y-6696831D02*
X21601372Y-6653974D01*
X21601372Y-6653974D02*
X21608514Y-6639688D01*
X21608514Y-6639688D02*
X21615657Y-6632546D01*
X21615657Y-6632546D02*
X21629943Y-6625403D01*
X21629943Y-6625403D02*
X21658514Y-6625403D01*
X21658514Y-6625403D02*
X21672800Y-6632546D01*
X21744229Y-6725403D02*
X21744229Y-6625403D01*
X21744229Y-6575403D02*
X21737086Y-6582546D01*
X21737086Y-6582546D02*
X21744229Y-6589688D01*
X21744229Y-6589688D02*
X21751372Y-6582546D01*
X21751372Y-6582546D02*
X21744229Y-6575403D01*
X21744229Y-6575403D02*
X21744229Y-6589688D01*
X21879943Y-6725403D02*
X21879943Y-6646831D01*
X21879943Y-6646831D02*
X21872800Y-6632546D01*
X21872800Y-6632546D02*
X21858515Y-6625403D01*
X21858515Y-6625403D02*
X21829943Y-6625403D01*
X21829943Y-6625403D02*
X21815657Y-6632546D01*
X21879943Y-6718260D02*
X21865657Y-6725403D01*
X21865657Y-6725403D02*
X21829943Y-6725403D01*
X21829943Y-6725403D02*
X21815657Y-6718260D01*
X21815657Y-6718260D02*
X21808515Y-6703974D01*
X21808515Y-6703974D02*
X21808515Y-6689688D01*
X21808515Y-6689688D02*
X21815657Y-6675403D01*
X21815657Y-6675403D02*
X21829943Y-6668260D01*
X21829943Y-6668260D02*
X21865657Y-6668260D01*
X21865657Y-6668260D02*
X21879943Y-6661117D01*
X21951372Y-6725403D02*
X21951372Y-6625403D01*
X21951372Y-6639688D02*
X21958515Y-6632546D01*
X21958515Y-6632546D02*
X21972800Y-6625403D01*
X21972800Y-6625403D02*
X21994229Y-6625403D01*
X21994229Y-6625403D02*
X22008515Y-6632546D01*
X22008515Y-6632546D02*
X22015657Y-6646831D01*
X22015657Y-6646831D02*
X22015657Y-6725403D01*
X22015657Y-6646831D02*
X22022800Y-6632546D01*
X22022800Y-6632546D02*
X22037086Y-6625403D01*
X22037086Y-6625403D02*
X22058515Y-6625403D01*
X22058515Y-6625403D02*
X22072800Y-6632546D01*
X22072800Y-6632546D02*
X22079943Y-6646831D01*
X22079943Y-6646831D02*
X22079943Y-6725403D01*
X22208515Y-6718260D02*
X22194229Y-6725403D01*
X22194229Y-6725403D02*
X22165657Y-6725403D01*
X22165657Y-6725403D02*
X22151372Y-6718260D01*
X22151372Y-6718260D02*
X22144229Y-6703974D01*
X22144229Y-6703974D02*
X22144229Y-6646831D01*
X22144229Y-6646831D02*
X22151372Y-6632546D01*
X22151372Y-6632546D02*
X22165657Y-6625403D01*
X22165657Y-6625403D02*
X22194229Y-6625403D01*
X22194229Y-6625403D02*
X22208515Y-6632546D01*
X22208515Y-6632546D02*
X22215657Y-6646831D01*
X22215657Y-6646831D02*
X22215657Y-6661117D01*
X22215657Y-6661117D02*
X22144229Y-6675403D01*
X22258515Y-6625403D02*
X22315657Y-6625403D01*
X22279943Y-6575403D02*
X22279943Y-6703974D01*
X22279943Y-6703974D02*
X22287086Y-6718260D01*
X22287086Y-6718260D02*
X22301372Y-6725403D01*
X22301372Y-6725403D02*
X22315657Y-6725403D01*
X22422800Y-6718260D02*
X22408514Y-6725403D01*
X22408514Y-6725403D02*
X22379943Y-6725403D01*
X22379943Y-6725403D02*
X22365657Y-6718260D01*
X22365657Y-6718260D02*
X22358515Y-6703974D01*
X22358515Y-6703974D02*
X22358515Y-6646831D01*
X22358515Y-6646831D02*
X22365657Y-6632546D01*
X22365657Y-6632546D02*
X22379943Y-6625403D01*
X22379943Y-6625403D02*
X22408514Y-6625403D01*
X22408514Y-6625403D02*
X22422800Y-6632546D01*
X22422800Y-6632546D02*
X22429943Y-6646831D01*
X22429943Y-6646831D02*
X22429943Y-6661117D01*
X22429943Y-6661117D02*
X22358515Y-6675403D01*
X22494229Y-6725403D02*
X22494229Y-6625403D01*
X22494229Y-6653974D02*
X22501372Y-6639688D01*
X22501372Y-6639688D02*
X22508514Y-6632546D01*
X22508514Y-6632546D02*
X22522800Y-6625403D01*
X22522800Y-6625403D02*
X22537086Y-6625403D01*
X22587086Y-6711117D02*
X22594229Y-6718260D01*
X22594229Y-6718260D02*
X22587086Y-6725403D01*
X22587086Y-6725403D02*
X22579943Y-6718260D01*
X22579943Y-6718260D02*
X22587086Y-6711117D01*
X22587086Y-6711117D02*
X22587086Y-6725403D01*
X22587086Y-6632546D02*
X22594229Y-6639688D01*
X22594229Y-6639688D02*
X22587086Y-6646831D01*
X22587086Y-6646831D02*
X22579943Y-6639688D01*
X22579943Y-6639688D02*
X22587086Y-6632546D01*
X22587086Y-6632546D02*
X22587086Y-6646831D01*
X17107086Y-7516803D02*
X17107086Y-7366803D01*
X17107086Y-7366803D02*
X17192801Y-7516803D01*
X17192801Y-7516803D02*
X17192801Y-7366803D01*
X17285658Y-7516803D02*
X17271372Y-7509660D01*
X17271372Y-7509660D02*
X17264229Y-7502517D01*
X17264229Y-7502517D02*
X17257086Y-7488231D01*
X17257086Y-7488231D02*
X17257086Y-7445374D01*
X17257086Y-7445374D02*
X17264229Y-7431088D01*
X17264229Y-7431088D02*
X17271372Y-7423946D01*
X17271372Y-7423946D02*
X17285658Y-7416803D01*
X17285658Y-7416803D02*
X17307086Y-7416803D01*
X17307086Y-7416803D02*
X17321372Y-7423946D01*
X17321372Y-7423946D02*
X17328515Y-7431088D01*
X17328515Y-7431088D02*
X17335658Y-7445374D01*
X17335658Y-7445374D02*
X17335658Y-7488231D01*
X17335658Y-7488231D02*
X17328515Y-7502517D01*
X17328515Y-7502517D02*
X17321372Y-7509660D01*
X17321372Y-7509660D02*
X17307086Y-7516803D01*
X17307086Y-7516803D02*
X17285658Y-7516803D01*
X17178515Y-6179703D02*
X17107086Y-6179703D01*
X17107086Y-6179703D02*
X17099944Y-6251131D01*
X17099944Y-6251131D02*
X17107086Y-6243988D01*
X17107086Y-6243988D02*
X17121372Y-6236846D01*
X17121372Y-6236846D02*
X17157086Y-6236846D01*
X17157086Y-6236846D02*
X17171372Y-6243988D01*
X17171372Y-6243988D02*
X17178515Y-6251131D01*
X17178515Y-6251131D02*
X17185658Y-6265417D01*
X17185658Y-6265417D02*
X17185658Y-6301131D01*
X17185658Y-6301131D02*
X17178515Y-6315417D01*
X17178515Y-6315417D02*
X17171372Y-6322560D01*
X17171372Y-6322560D02*
X17157086Y-6329703D01*
X17157086Y-6329703D02*
X17121372Y-6329703D01*
X17121372Y-6329703D02*
X17107086Y-6322560D01*
X17107086Y-6322560D02*
X17099944Y-6315417D01*
X17314229Y-6229703D02*
X17314229Y-6329703D01*
X17278515Y-6172560D02*
X17242801Y-6279703D01*
X17242801Y-6279703D02*
X17335658Y-6279703D01*
X17392801Y-6315417D02*
X17399943Y-6322560D01*
X17399943Y-6322560D02*
X17392801Y-6329703D01*
X17392801Y-6329703D02*
X17385658Y-6322560D01*
X17385658Y-6322560D02*
X17392801Y-6315417D01*
X17392801Y-6315417D02*
X17392801Y-6329703D01*
X17471372Y-6329703D02*
X17499943Y-6329703D01*
X17499943Y-6329703D02*
X17514229Y-6322560D01*
X17514229Y-6322560D02*
X17521372Y-6315417D01*
X17521372Y-6315417D02*
X17535658Y-6293988D01*
X17535658Y-6293988D02*
X17542801Y-6265417D01*
X17542801Y-6265417D02*
X17542801Y-6208274D01*
X17542801Y-6208274D02*
X17535658Y-6193988D01*
X17535658Y-6193988D02*
X17528515Y-6186846D01*
X17528515Y-6186846D02*
X17514229Y-6179703D01*
X17514229Y-6179703D02*
X17485658Y-6179703D01*
X17485658Y-6179703D02*
X17471372Y-6186846D01*
X17471372Y-6186846D02*
X17464229Y-6193988D01*
X17464229Y-6193988D02*
X17457086Y-6208274D01*
X17457086Y-6208274D02*
X17457086Y-6243988D01*
X17457086Y-6243988D02*
X17464229Y-6258274D01*
X17464229Y-6258274D02*
X17471372Y-6265417D01*
X17471372Y-6265417D02*
X17485658Y-6272560D01*
X17485658Y-6272560D02*
X17514229Y-6272560D01*
X17514229Y-6272560D02*
X17528515Y-6265417D01*
X17528515Y-6265417D02*
X17535658Y-6258274D01*
X17535658Y-6258274D02*
X17542801Y-6243988D01*
X17592801Y-6179703D02*
X17692801Y-6179703D01*
X17692801Y-6179703D02*
X17628515Y-6329703D01*
X17814229Y-6179703D02*
X17785658Y-6179703D01*
X17785658Y-6179703D02*
X17771372Y-6186846D01*
X17771372Y-6186846D02*
X17764229Y-6193988D01*
X17764229Y-6193988D02*
X17749943Y-6215417D01*
X17749943Y-6215417D02*
X17742801Y-6243988D01*
X17742801Y-6243988D02*
X17742801Y-6301131D01*
X17742801Y-6301131D02*
X17749943Y-6315417D01*
X17749943Y-6315417D02*
X17757086Y-6322560D01*
X17757086Y-6322560D02*
X17771372Y-6329703D01*
X17771372Y-6329703D02*
X17799943Y-6329703D01*
X17799943Y-6329703D02*
X17814229Y-6322560D01*
X17814229Y-6322560D02*
X17821372Y-6315417D01*
X17821372Y-6315417D02*
X17828515Y-6301131D01*
X17828515Y-6301131D02*
X17828515Y-6265417D01*
X17828515Y-6265417D02*
X17821372Y-6251131D01*
X17821372Y-6251131D02*
X17814229Y-6243988D01*
X17814229Y-6243988D02*
X17799943Y-6236846D01*
X17799943Y-6236846D02*
X17771372Y-6236846D01*
X17771372Y-6236846D02*
X17757086Y-6243988D01*
X17757086Y-6243988D02*
X17749943Y-6251131D01*
X17749943Y-6251131D02*
X17742801Y-6265417D01*
X17957086Y-6179703D02*
X17928515Y-6179703D01*
X17928515Y-6179703D02*
X17914229Y-6186846D01*
X17914229Y-6186846D02*
X17907086Y-6193988D01*
X17907086Y-6193988D02*
X17892800Y-6215417D01*
X17892800Y-6215417D02*
X17885658Y-6243988D01*
X17885658Y-6243988D02*
X17885658Y-6301131D01*
X17885658Y-6301131D02*
X17892800Y-6315417D01*
X17892800Y-6315417D02*
X17899943Y-6322560D01*
X17899943Y-6322560D02*
X17914229Y-6329703D01*
X17914229Y-6329703D02*
X17942800Y-6329703D01*
X17942800Y-6329703D02*
X17957086Y-6322560D01*
X17957086Y-6322560D02*
X17964229Y-6315417D01*
X17964229Y-6315417D02*
X17971372Y-6301131D01*
X17971372Y-6301131D02*
X17971372Y-6265417D01*
X17971372Y-6265417D02*
X17964229Y-6251131D01*
X17964229Y-6251131D02*
X17957086Y-6243988D01*
X17957086Y-6243988D02*
X17942800Y-6236846D01*
X17942800Y-6236846D02*
X17914229Y-6236846D01*
X17914229Y-6236846D02*
X17899943Y-6243988D01*
X17899943Y-6243988D02*
X17892800Y-6251131D01*
X17892800Y-6251131D02*
X17885658Y-6265417D01*
X18149943Y-6329703D02*
X18149943Y-6229703D01*
X18149943Y-6243988D02*
X18157086Y-6236846D01*
X18157086Y-6236846D02*
X18171372Y-6229703D01*
X18171372Y-6229703D02*
X18192800Y-6229703D01*
X18192800Y-6229703D02*
X18207086Y-6236846D01*
X18207086Y-6236846D02*
X18214229Y-6251131D01*
X18214229Y-6251131D02*
X18214229Y-6329703D01*
X18214229Y-6251131D02*
X18221372Y-6236846D01*
X18221372Y-6236846D02*
X18235658Y-6229703D01*
X18235658Y-6229703D02*
X18257086Y-6229703D01*
X18257086Y-6229703D02*
X18271372Y-6236846D01*
X18271372Y-6236846D02*
X18278515Y-6251131D01*
X18278515Y-6251131D02*
X18278515Y-6329703D01*
X18349943Y-6329703D02*
X18349943Y-6229703D01*
X18349943Y-6243988D02*
X18357086Y-6236846D01*
X18357086Y-6236846D02*
X18371372Y-6229703D01*
X18371372Y-6229703D02*
X18392800Y-6229703D01*
X18392800Y-6229703D02*
X18407086Y-6236846D01*
X18407086Y-6236846D02*
X18414229Y-6251131D01*
X18414229Y-6251131D02*
X18414229Y-6329703D01*
X18414229Y-6251131D02*
X18421372Y-6236846D01*
X18421372Y-6236846D02*
X18435658Y-6229703D01*
X18435658Y-6229703D02*
X18457086Y-6229703D01*
X18457086Y-6229703D02*
X18471372Y-6236846D01*
X18471372Y-6236846D02*
X18478515Y-6251131D01*
X18478515Y-6251131D02*
X18478515Y-6329703D01*
X18649943Y-6329703D02*
X18728515Y-6229703D01*
X18649943Y-6229703D02*
X18728515Y-6329703D01*
X18885658Y-6179703D02*
X18985658Y-6179703D01*
X18985658Y-6179703D02*
X18921372Y-6329703D01*
X19049943Y-6329703D02*
X19078515Y-6329703D01*
X19078515Y-6329703D02*
X19092800Y-6322560D01*
X19092800Y-6322560D02*
X19099943Y-6315417D01*
X19099943Y-6315417D02*
X19114229Y-6293988D01*
X19114229Y-6293988D02*
X19121372Y-6265417D01*
X19121372Y-6265417D02*
X19121372Y-6208274D01*
X19121372Y-6208274D02*
X19114229Y-6193988D01*
X19114229Y-6193988D02*
X19107086Y-6186846D01*
X19107086Y-6186846D02*
X19092800Y-6179703D01*
X19092800Y-6179703D02*
X19064229Y-6179703D01*
X19064229Y-6179703D02*
X19049943Y-6186846D01*
X19049943Y-6186846D02*
X19042800Y-6193988D01*
X19042800Y-6193988D02*
X19035658Y-6208274D01*
X19035658Y-6208274D02*
X19035658Y-6243988D01*
X19035658Y-6243988D02*
X19042800Y-6258274D01*
X19042800Y-6258274D02*
X19049943Y-6265417D01*
X19049943Y-6265417D02*
X19064229Y-6272560D01*
X19064229Y-6272560D02*
X19092800Y-6272560D01*
X19092800Y-6272560D02*
X19107086Y-6265417D01*
X19107086Y-6265417D02*
X19114229Y-6258274D01*
X19114229Y-6258274D02*
X19121372Y-6243988D01*
X19185657Y-6315417D02*
X19192800Y-6322560D01*
X19192800Y-6322560D02*
X19185657Y-6329703D01*
X19185657Y-6329703D02*
X19178515Y-6322560D01*
X19178515Y-6322560D02*
X19185657Y-6315417D01*
X19185657Y-6315417D02*
X19185657Y-6329703D01*
X19264229Y-6329703D02*
X19292800Y-6329703D01*
X19292800Y-6329703D02*
X19307086Y-6322560D01*
X19307086Y-6322560D02*
X19314229Y-6315417D01*
X19314229Y-6315417D02*
X19328515Y-6293988D01*
X19328515Y-6293988D02*
X19335658Y-6265417D01*
X19335658Y-6265417D02*
X19335658Y-6208274D01*
X19335658Y-6208274D02*
X19328515Y-6193988D01*
X19328515Y-6193988D02*
X19321372Y-6186846D01*
X19321372Y-6186846D02*
X19307086Y-6179703D01*
X19307086Y-6179703D02*
X19278515Y-6179703D01*
X19278515Y-6179703D02*
X19264229Y-6186846D01*
X19264229Y-6186846D02*
X19257086Y-6193988D01*
X19257086Y-6193988D02*
X19249943Y-6208274D01*
X19249943Y-6208274D02*
X19249943Y-6243988D01*
X19249943Y-6243988D02*
X19257086Y-6258274D01*
X19257086Y-6258274D02*
X19264229Y-6265417D01*
X19264229Y-6265417D02*
X19278515Y-6272560D01*
X19278515Y-6272560D02*
X19307086Y-6272560D01*
X19307086Y-6272560D02*
X19321372Y-6265417D01*
X19321372Y-6265417D02*
X19328515Y-6258274D01*
X19328515Y-6258274D02*
X19335658Y-6243988D01*
X19385657Y-6179703D02*
X19485657Y-6179703D01*
X19485657Y-6179703D02*
X19421372Y-6329703D01*
X19607086Y-6179703D02*
X19578515Y-6179703D01*
X19578515Y-6179703D02*
X19564229Y-6186846D01*
X19564229Y-6186846D02*
X19557086Y-6193988D01*
X19557086Y-6193988D02*
X19542800Y-6215417D01*
X19542800Y-6215417D02*
X19535657Y-6243988D01*
X19535657Y-6243988D02*
X19535657Y-6301131D01*
X19535657Y-6301131D02*
X19542800Y-6315417D01*
X19542800Y-6315417D02*
X19549943Y-6322560D01*
X19549943Y-6322560D02*
X19564229Y-6329703D01*
X19564229Y-6329703D02*
X19592800Y-6329703D01*
X19592800Y-6329703D02*
X19607086Y-6322560D01*
X19607086Y-6322560D02*
X19614229Y-6315417D01*
X19614229Y-6315417D02*
X19621372Y-6301131D01*
X19621372Y-6301131D02*
X19621372Y-6265417D01*
X19621372Y-6265417D02*
X19614229Y-6251131D01*
X19614229Y-6251131D02*
X19607086Y-6243988D01*
X19607086Y-6243988D02*
X19592800Y-6236846D01*
X19592800Y-6236846D02*
X19564229Y-6236846D01*
X19564229Y-6236846D02*
X19549943Y-6243988D01*
X19549943Y-6243988D02*
X19542800Y-6251131D01*
X19542800Y-6251131D02*
X19535657Y-6265417D01*
X19749943Y-6179703D02*
X19721372Y-6179703D01*
X19721372Y-6179703D02*
X19707086Y-6186846D01*
X19707086Y-6186846D02*
X19699943Y-6193988D01*
X19699943Y-6193988D02*
X19685657Y-6215417D01*
X19685657Y-6215417D02*
X19678515Y-6243988D01*
X19678515Y-6243988D02*
X19678515Y-6301131D01*
X19678515Y-6301131D02*
X19685657Y-6315417D01*
X19685657Y-6315417D02*
X19692800Y-6322560D01*
X19692800Y-6322560D02*
X19707086Y-6329703D01*
X19707086Y-6329703D02*
X19735657Y-6329703D01*
X19735657Y-6329703D02*
X19749943Y-6322560D01*
X19749943Y-6322560D02*
X19757086Y-6315417D01*
X19757086Y-6315417D02*
X19764229Y-6301131D01*
X19764229Y-6301131D02*
X19764229Y-6265417D01*
X19764229Y-6265417D02*
X19757086Y-6251131D01*
X19757086Y-6251131D02*
X19749943Y-6243988D01*
X19749943Y-6243988D02*
X19735657Y-6236846D01*
X19735657Y-6236846D02*
X19707086Y-6236846D01*
X19707086Y-6236846D02*
X19692800Y-6243988D01*
X19692800Y-6243988D02*
X19685657Y-6251131D01*
X19685657Y-6251131D02*
X19678515Y-6265417D01*
X19942800Y-6329703D02*
X19942800Y-6229703D01*
X19942800Y-6243988D02*
X19949943Y-6236846D01*
X19949943Y-6236846D02*
X19964229Y-6229703D01*
X19964229Y-6229703D02*
X19985657Y-6229703D01*
X19985657Y-6229703D02*
X19999943Y-6236846D01*
X19999943Y-6236846D02*
X20007086Y-6251131D01*
X20007086Y-6251131D02*
X20007086Y-6329703D01*
X20007086Y-6251131D02*
X20014229Y-6236846D01*
X20014229Y-6236846D02*
X20028514Y-6229703D01*
X20028514Y-6229703D02*
X20049943Y-6229703D01*
X20049943Y-6229703D02*
X20064229Y-6236846D01*
X20064229Y-6236846D02*
X20071372Y-6251131D01*
X20071372Y-6251131D02*
X20071372Y-6329703D01*
X20142800Y-6329703D02*
X20142800Y-6229703D01*
X20142800Y-6243988D02*
X20149943Y-6236846D01*
X20149943Y-6236846D02*
X20164229Y-6229703D01*
X20164229Y-6229703D02*
X20185657Y-6229703D01*
X20185657Y-6229703D02*
X20199943Y-6236846D01*
X20199943Y-6236846D02*
X20207086Y-6251131D01*
X20207086Y-6251131D02*
X20207086Y-6329703D01*
X20207086Y-6251131D02*
X20214229Y-6236846D01*
X20214229Y-6236846D02*
X20228514Y-6229703D01*
X20228514Y-6229703D02*
X20249943Y-6229703D01*
X20249943Y-6229703D02*
X20264229Y-6236846D01*
X20264229Y-6236846D02*
X20271372Y-6251131D01*
X20271372Y-6251131D02*
X20271372Y-6329703D01*
X13927086Y-7502517D02*
X13919943Y-7509660D01*
X13919943Y-7509660D02*
X13898515Y-7516803D01*
X13898515Y-7516803D02*
X13884229Y-7516803D01*
X13884229Y-7516803D02*
X13862801Y-7509660D01*
X13862801Y-7509660D02*
X13848515Y-7495374D01*
X13848515Y-7495374D02*
X13841372Y-7481088D01*
X13841372Y-7481088D02*
X13834229Y-7452517D01*
X13834229Y-7452517D02*
X13834229Y-7431088D01*
X13834229Y-7431088D02*
X13841372Y-7402517D01*
X13841372Y-7402517D02*
X13848515Y-7388231D01*
X13848515Y-7388231D02*
X13862801Y-7373946D01*
X13862801Y-7373946D02*
X13884229Y-7366803D01*
X13884229Y-7366803D02*
X13898515Y-7366803D01*
X13898515Y-7366803D02*
X13919943Y-7373946D01*
X13919943Y-7373946D02*
X13927086Y-7381088D01*
X14055658Y-7516803D02*
X14055658Y-7438231D01*
X14055658Y-7438231D02*
X14048515Y-7423946D01*
X14048515Y-7423946D02*
X14034229Y-7416803D01*
X14034229Y-7416803D02*
X14005658Y-7416803D01*
X14005658Y-7416803D02*
X13991372Y-7423946D01*
X14055658Y-7509660D02*
X14041372Y-7516803D01*
X14041372Y-7516803D02*
X14005658Y-7516803D01*
X14005658Y-7516803D02*
X13991372Y-7509660D01*
X13991372Y-7509660D02*
X13984229Y-7495374D01*
X13984229Y-7495374D02*
X13984229Y-7481088D01*
X13984229Y-7481088D02*
X13991372Y-7466803D01*
X13991372Y-7466803D02*
X14005658Y-7459660D01*
X14005658Y-7459660D02*
X14041372Y-7459660D01*
X14041372Y-7459660D02*
X14055658Y-7452517D01*
X14119943Y-7509660D02*
X14134229Y-7516803D01*
X14134229Y-7516803D02*
X14162801Y-7516803D01*
X14162801Y-7516803D02*
X14177086Y-7509660D01*
X14177086Y-7509660D02*
X14184229Y-7495374D01*
X14184229Y-7495374D02*
X14184229Y-7488231D01*
X14184229Y-7488231D02*
X14177086Y-7473946D01*
X14177086Y-7473946D02*
X14162801Y-7466803D01*
X14162801Y-7466803D02*
X14141372Y-7466803D01*
X14141372Y-7466803D02*
X14127086Y-7459660D01*
X14127086Y-7459660D02*
X14119943Y-7445374D01*
X14119943Y-7445374D02*
X14119943Y-7438231D01*
X14119943Y-7438231D02*
X14127086Y-7423946D01*
X14127086Y-7423946D02*
X14141372Y-7416803D01*
X14141372Y-7416803D02*
X14162801Y-7416803D01*
X14162801Y-7416803D02*
X14177086Y-7423946D01*
X14227086Y-7416803D02*
X14284229Y-7416803D01*
X14248515Y-7366803D02*
X14248515Y-7495374D01*
X14248515Y-7495374D02*
X14255658Y-7509660D01*
X14255658Y-7509660D02*
X14269943Y-7516803D01*
X14269943Y-7516803D02*
X14284229Y-7516803D01*
X14391372Y-7509660D02*
X14377086Y-7516803D01*
X14377086Y-7516803D02*
X14348515Y-7516803D01*
X14348515Y-7516803D02*
X14334229Y-7509660D01*
X14334229Y-7509660D02*
X14327086Y-7495374D01*
X14327086Y-7495374D02*
X14327086Y-7438231D01*
X14327086Y-7438231D02*
X14334229Y-7423946D01*
X14334229Y-7423946D02*
X14348515Y-7416803D01*
X14348515Y-7416803D02*
X14377086Y-7416803D01*
X14377086Y-7416803D02*
X14391372Y-7423946D01*
X14391372Y-7423946D02*
X14398515Y-7438231D01*
X14398515Y-7438231D02*
X14398515Y-7452517D01*
X14398515Y-7452517D02*
X14327086Y-7466803D01*
X14484229Y-7516803D02*
X14469943Y-7509660D01*
X14469943Y-7509660D02*
X14462801Y-7495374D01*
X14462801Y-7495374D02*
X14462801Y-7366803D01*
X14562801Y-7516803D02*
X14548515Y-7509660D01*
X14548515Y-7509660D02*
X14541372Y-7495374D01*
X14541372Y-7495374D02*
X14541372Y-7366803D01*
X14684229Y-7516803D02*
X14684229Y-7438231D01*
X14684229Y-7438231D02*
X14677086Y-7423946D01*
X14677086Y-7423946D02*
X14662801Y-7416803D01*
X14662801Y-7416803D02*
X14634229Y-7416803D01*
X14634229Y-7416803D02*
X14619943Y-7423946D01*
X14684229Y-7509660D02*
X14669943Y-7516803D01*
X14669943Y-7516803D02*
X14634229Y-7516803D01*
X14634229Y-7516803D02*
X14619943Y-7509660D01*
X14619943Y-7509660D02*
X14612801Y-7495374D01*
X14612801Y-7495374D02*
X14612801Y-7481088D01*
X14612801Y-7481088D02*
X14619943Y-7466803D01*
X14619943Y-7466803D02*
X14634229Y-7459660D01*
X14634229Y-7459660D02*
X14669943Y-7459660D01*
X14669943Y-7459660D02*
X14684229Y-7452517D01*
X14734229Y-7416803D02*
X14791372Y-7416803D01*
X14755658Y-7366803D02*
X14755658Y-7495374D01*
X14755658Y-7495374D02*
X14762801Y-7509660D01*
X14762801Y-7509660D02*
X14777086Y-7516803D01*
X14777086Y-7516803D02*
X14791372Y-7516803D01*
X14898515Y-7509660D02*
X14884229Y-7516803D01*
X14884229Y-7516803D02*
X14855658Y-7516803D01*
X14855658Y-7516803D02*
X14841372Y-7509660D01*
X14841372Y-7509660D02*
X14834229Y-7495374D01*
X14834229Y-7495374D02*
X14834229Y-7438231D01*
X14834229Y-7438231D02*
X14841372Y-7423946D01*
X14841372Y-7423946D02*
X14855658Y-7416803D01*
X14855658Y-7416803D02*
X14884229Y-7416803D01*
X14884229Y-7416803D02*
X14898515Y-7423946D01*
X14898515Y-7423946D02*
X14905658Y-7438231D01*
X14905658Y-7438231D02*
X14905658Y-7452517D01*
X14905658Y-7452517D02*
X14834229Y-7466803D01*
X15034229Y-7516803D02*
X15034229Y-7366803D01*
X15034229Y-7509660D02*
X15019943Y-7516803D01*
X15019943Y-7516803D02*
X14991372Y-7516803D01*
X14991372Y-7516803D02*
X14977086Y-7509660D01*
X14977086Y-7509660D02*
X14969943Y-7502517D01*
X14969943Y-7502517D02*
X14962801Y-7488231D01*
X14962801Y-7488231D02*
X14962801Y-7445374D01*
X14962801Y-7445374D02*
X14969943Y-7431088D01*
X14969943Y-7431088D02*
X14977086Y-7423946D01*
X14977086Y-7423946D02*
X14991372Y-7416803D01*
X14991372Y-7416803D02*
X15019943Y-7416803D01*
X15019943Y-7416803D02*
X15034229Y-7423946D01*
X15219943Y-7416803D02*
X15219943Y-7566803D01*
X15219943Y-7423946D02*
X15234229Y-7416803D01*
X15234229Y-7416803D02*
X15262801Y-7416803D01*
X15262801Y-7416803D02*
X15277086Y-7423946D01*
X15277086Y-7423946D02*
X15284229Y-7431088D01*
X15284229Y-7431088D02*
X15291372Y-7445374D01*
X15291372Y-7445374D02*
X15291372Y-7488231D01*
X15291372Y-7488231D02*
X15284229Y-7502517D01*
X15284229Y-7502517D02*
X15277086Y-7509660D01*
X15277086Y-7509660D02*
X15262801Y-7516803D01*
X15262801Y-7516803D02*
X15234229Y-7516803D01*
X15234229Y-7516803D02*
X15219943Y-7509660D01*
X15419943Y-7516803D02*
X15419943Y-7438231D01*
X15419943Y-7438231D02*
X15412801Y-7423946D01*
X15412801Y-7423946D02*
X15398515Y-7416803D01*
X15398515Y-7416803D02*
X15369943Y-7416803D01*
X15369943Y-7416803D02*
X15355658Y-7423946D01*
X15419943Y-7509660D02*
X15405658Y-7516803D01*
X15405658Y-7516803D02*
X15369943Y-7516803D01*
X15369943Y-7516803D02*
X15355658Y-7509660D01*
X15355658Y-7509660D02*
X15348515Y-7495374D01*
X15348515Y-7495374D02*
X15348515Y-7481088D01*
X15348515Y-7481088D02*
X15355658Y-7466803D01*
X15355658Y-7466803D02*
X15369943Y-7459660D01*
X15369943Y-7459660D02*
X15405658Y-7459660D01*
X15405658Y-7459660D02*
X15419943Y-7452517D01*
X15555658Y-7516803D02*
X15555658Y-7366803D01*
X15555658Y-7509660D02*
X15541372Y-7516803D01*
X15541372Y-7516803D02*
X15512801Y-7516803D01*
X15512801Y-7516803D02*
X15498515Y-7509660D01*
X15498515Y-7509660D02*
X15491372Y-7502517D01*
X15491372Y-7502517D02*
X15484229Y-7488231D01*
X15484229Y-7488231D02*
X15484229Y-7445374D01*
X15484229Y-7445374D02*
X15491372Y-7431088D01*
X15491372Y-7431088D02*
X15498515Y-7423946D01*
X15498515Y-7423946D02*
X15512801Y-7416803D01*
X15512801Y-7416803D02*
X15541372Y-7416803D01*
X15541372Y-7416803D02*
X15555658Y-7423946D01*
X15619943Y-7509660D02*
X15634229Y-7516803D01*
X15634229Y-7516803D02*
X15662801Y-7516803D01*
X15662801Y-7516803D02*
X15677086Y-7509660D01*
X15677086Y-7509660D02*
X15684229Y-7495374D01*
X15684229Y-7495374D02*
X15684229Y-7488231D01*
X15684229Y-7488231D02*
X15677086Y-7473946D01*
X15677086Y-7473946D02*
X15662801Y-7466803D01*
X15662801Y-7466803D02*
X15641372Y-7466803D01*
X15641372Y-7466803D02*
X15627086Y-7459660D01*
X15627086Y-7459660D02*
X15619943Y-7445374D01*
X15619943Y-7445374D02*
X15619943Y-7438231D01*
X15619943Y-7438231D02*
X15627086Y-7423946D01*
X15627086Y-7423946D02*
X15641372Y-7416803D01*
X15641372Y-7416803D02*
X15662801Y-7416803D01*
X15662801Y-7416803D02*
X15677086Y-7423946D01*
X15748515Y-7502517D02*
X15755658Y-7509660D01*
X15755658Y-7509660D02*
X15748515Y-7516803D01*
X15748515Y-7516803D02*
X15741372Y-7509660D01*
X15741372Y-7509660D02*
X15748515Y-7502517D01*
X15748515Y-7502517D02*
X15748515Y-7516803D01*
X15748515Y-7423946D02*
X15755658Y-7431088D01*
X15755658Y-7431088D02*
X15748515Y-7438231D01*
X15748515Y-7438231D02*
X15741372Y-7431088D01*
X15741372Y-7431088D02*
X15748515Y-7423946D01*
X15748515Y-7423946D02*
X15748515Y-7438231D01*
X17107086Y-7121103D02*
X17107086Y-6971103D01*
X17107086Y-7042531D02*
X17192801Y-7042531D01*
X17192801Y-7121103D02*
X17192801Y-6971103D01*
X17257086Y-7078246D02*
X17328515Y-7078246D01*
X17242801Y-7121103D02*
X17292801Y-6971103D01*
X17292801Y-6971103D02*
X17342801Y-7121103D01*
X17464229Y-7121103D02*
X17392801Y-7121103D01*
X17392801Y-7121103D02*
X17392801Y-6971103D01*
X17649944Y-7121103D02*
X17635658Y-7113960D01*
X17635658Y-7113960D02*
X17628515Y-7099674D01*
X17628515Y-7099674D02*
X17628515Y-6971103D01*
X17764229Y-7113960D02*
X17749944Y-7121103D01*
X17749944Y-7121103D02*
X17721372Y-7121103D01*
X17721372Y-7121103D02*
X17707086Y-7113960D01*
X17707086Y-7113960D02*
X17699944Y-7099674D01*
X17699944Y-7099674D02*
X17699944Y-7042531D01*
X17699944Y-7042531D02*
X17707086Y-7028246D01*
X17707086Y-7028246D02*
X17721372Y-7021103D01*
X17721372Y-7021103D02*
X17749944Y-7021103D01*
X17749944Y-7021103D02*
X17764229Y-7028246D01*
X17764229Y-7028246D02*
X17771372Y-7042531D01*
X17771372Y-7042531D02*
X17771372Y-7056817D01*
X17771372Y-7056817D02*
X17699944Y-7071103D01*
X17899944Y-7121103D02*
X17899944Y-7042531D01*
X17899944Y-7042531D02*
X17892801Y-7028246D01*
X17892801Y-7028246D02*
X17878515Y-7021103D01*
X17878515Y-7021103D02*
X17849944Y-7021103D01*
X17849944Y-7021103D02*
X17835658Y-7028246D01*
X17899944Y-7113960D02*
X17885658Y-7121103D01*
X17885658Y-7121103D02*
X17849944Y-7121103D01*
X17849944Y-7121103D02*
X17835658Y-7113960D01*
X17835658Y-7113960D02*
X17828515Y-7099674D01*
X17828515Y-7099674D02*
X17828515Y-7085388D01*
X17828515Y-7085388D02*
X17835658Y-7071103D01*
X17835658Y-7071103D02*
X17849944Y-7063960D01*
X17849944Y-7063960D02*
X17885658Y-7063960D01*
X17885658Y-7063960D02*
X17899944Y-7056817D01*
X18035658Y-7121103D02*
X18035658Y-6971103D01*
X18035658Y-7113960D02*
X18021372Y-7121103D01*
X18021372Y-7121103D02*
X17992801Y-7121103D01*
X17992801Y-7121103D02*
X17978515Y-7113960D01*
X17978515Y-7113960D02*
X17971372Y-7106817D01*
X17971372Y-7106817D02*
X17964229Y-7092531D01*
X17964229Y-7092531D02*
X17964229Y-7049674D01*
X17964229Y-7049674D02*
X17971372Y-7035388D01*
X17971372Y-7035388D02*
X17978515Y-7028246D01*
X17978515Y-7028246D02*
X17992801Y-7021103D01*
X17992801Y-7021103D02*
X18021372Y-7021103D01*
X18021372Y-7021103D02*
X18035658Y-7028246D01*
X18107086Y-7063960D02*
X18221372Y-7063960D01*
X18271372Y-7021103D02*
X18328515Y-7021103D01*
X18292801Y-7121103D02*
X18292801Y-6992531D01*
X18292801Y-6992531D02*
X18299944Y-6978246D01*
X18299944Y-6978246D02*
X18314229Y-6971103D01*
X18314229Y-6971103D02*
X18328515Y-6971103D01*
X18378515Y-7121103D02*
X18378515Y-7021103D01*
X18378515Y-7049674D02*
X18385658Y-7035388D01*
X18385658Y-7035388D02*
X18392801Y-7028246D01*
X18392801Y-7028246D02*
X18407086Y-7021103D01*
X18407086Y-7021103D02*
X18421372Y-7021103D01*
X18528515Y-7113960D02*
X18514229Y-7121103D01*
X18514229Y-7121103D02*
X18485658Y-7121103D01*
X18485658Y-7121103D02*
X18471372Y-7113960D01*
X18471372Y-7113960D02*
X18464229Y-7099674D01*
X18464229Y-7099674D02*
X18464229Y-7042531D01*
X18464229Y-7042531D02*
X18471372Y-7028246D01*
X18471372Y-7028246D02*
X18485658Y-7021103D01*
X18485658Y-7021103D02*
X18514229Y-7021103D01*
X18514229Y-7021103D02*
X18528515Y-7028246D01*
X18528515Y-7028246D02*
X18535658Y-7042531D01*
X18535658Y-7042531D02*
X18535658Y-7056817D01*
X18535658Y-7056817D02*
X18464229Y-7071103D01*
X18657086Y-7113960D02*
X18642801Y-7121103D01*
X18642801Y-7121103D02*
X18614229Y-7121103D01*
X18614229Y-7121103D02*
X18599943Y-7113960D01*
X18599943Y-7113960D02*
X18592801Y-7099674D01*
X18592801Y-7099674D02*
X18592801Y-7042531D01*
X18592801Y-7042531D02*
X18599943Y-7028246D01*
X18599943Y-7028246D02*
X18614229Y-7021103D01*
X18614229Y-7021103D02*
X18642801Y-7021103D01*
X18642801Y-7021103D02*
X18657086Y-7028246D01*
X18657086Y-7028246D02*
X18664229Y-7042531D01*
X18664229Y-7042531D02*
X18664229Y-7056817D01*
X18664229Y-7056817D02*
X18592801Y-7071103D01*
X20522800Y-7121103D02*
X20522800Y-6971103D01*
X20594229Y-7121103D02*
X20594229Y-7021103D01*
X20594229Y-7035388D02*
X20601372Y-7028246D01*
X20601372Y-7028246D02*
X20615657Y-7021103D01*
X20615657Y-7021103D02*
X20637086Y-7021103D01*
X20637086Y-7021103D02*
X20651372Y-7028246D01*
X20651372Y-7028246D02*
X20658515Y-7042531D01*
X20658515Y-7042531D02*
X20658515Y-7121103D01*
X20658515Y-7042531D02*
X20665657Y-7028246D01*
X20665657Y-7028246D02*
X20679943Y-7021103D01*
X20679943Y-7021103D02*
X20701372Y-7021103D01*
X20701372Y-7021103D02*
X20715657Y-7028246D01*
X20715657Y-7028246D02*
X20722800Y-7042531D01*
X20722800Y-7042531D02*
X20722800Y-7121103D01*
X20794229Y-7021103D02*
X20794229Y-7171103D01*
X20794229Y-7028246D02*
X20808515Y-7021103D01*
X20808515Y-7021103D02*
X20837086Y-7021103D01*
X20837086Y-7021103D02*
X20851372Y-7028246D01*
X20851372Y-7028246D02*
X20858515Y-7035388D01*
X20858515Y-7035388D02*
X20865657Y-7049674D01*
X20865657Y-7049674D02*
X20865657Y-7092531D01*
X20865657Y-7092531D02*
X20858515Y-7106817D01*
X20858515Y-7106817D02*
X20851372Y-7113960D01*
X20851372Y-7113960D02*
X20837086Y-7121103D01*
X20837086Y-7121103D02*
X20808515Y-7121103D01*
X20808515Y-7121103D02*
X20794229Y-7113960D01*
X20987086Y-7113960D02*
X20972800Y-7121103D01*
X20972800Y-7121103D02*
X20944229Y-7121103D01*
X20944229Y-7121103D02*
X20929943Y-7113960D01*
X20929943Y-7113960D02*
X20922800Y-7099674D01*
X20922800Y-7099674D02*
X20922800Y-7042531D01*
X20922800Y-7042531D02*
X20929943Y-7028246D01*
X20929943Y-7028246D02*
X20944229Y-7021103D01*
X20944229Y-7021103D02*
X20972800Y-7021103D01*
X20972800Y-7021103D02*
X20987086Y-7028246D01*
X20987086Y-7028246D02*
X20994229Y-7042531D01*
X20994229Y-7042531D02*
X20994229Y-7056817D01*
X20994229Y-7056817D02*
X20922800Y-7071103D01*
X21122800Y-7121103D02*
X21122800Y-6971103D01*
X21122800Y-7113960D02*
X21108514Y-7121103D01*
X21108514Y-7121103D02*
X21079943Y-7121103D01*
X21079943Y-7121103D02*
X21065657Y-7113960D01*
X21065657Y-7113960D02*
X21058514Y-7106817D01*
X21058514Y-7106817D02*
X21051372Y-7092531D01*
X21051372Y-7092531D02*
X21051372Y-7049674D01*
X21051372Y-7049674D02*
X21058514Y-7035388D01*
X21058514Y-7035388D02*
X21065657Y-7028246D01*
X21065657Y-7028246D02*
X21079943Y-7021103D01*
X21079943Y-7021103D02*
X21108514Y-7021103D01*
X21108514Y-7021103D02*
X21122800Y-7028246D01*
X21258515Y-7121103D02*
X21258515Y-7042531D01*
X21258515Y-7042531D02*
X21251372Y-7028246D01*
X21251372Y-7028246D02*
X21237086Y-7021103D01*
X21237086Y-7021103D02*
X21208515Y-7021103D01*
X21208515Y-7021103D02*
X21194229Y-7028246D01*
X21258515Y-7113960D02*
X21244229Y-7121103D01*
X21244229Y-7121103D02*
X21208515Y-7121103D01*
X21208515Y-7121103D02*
X21194229Y-7113960D01*
X21194229Y-7113960D02*
X21187086Y-7099674D01*
X21187086Y-7099674D02*
X21187086Y-7085388D01*
X21187086Y-7085388D02*
X21194229Y-7071103D01*
X21194229Y-7071103D02*
X21208515Y-7063960D01*
X21208515Y-7063960D02*
X21244229Y-7063960D01*
X21244229Y-7063960D02*
X21258515Y-7056817D01*
X21329943Y-7021103D02*
X21329943Y-7121103D01*
X21329943Y-7035388D02*
X21337086Y-7028246D01*
X21337086Y-7028246D02*
X21351372Y-7021103D01*
X21351372Y-7021103D02*
X21372800Y-7021103D01*
X21372800Y-7021103D02*
X21387086Y-7028246D01*
X21387086Y-7028246D02*
X21394229Y-7042531D01*
X21394229Y-7042531D02*
X21394229Y-7121103D01*
X21529943Y-7113960D02*
X21515657Y-7121103D01*
X21515657Y-7121103D02*
X21487086Y-7121103D01*
X21487086Y-7121103D02*
X21472800Y-7113960D01*
X21472800Y-7113960D02*
X21465657Y-7106817D01*
X21465657Y-7106817D02*
X21458515Y-7092531D01*
X21458515Y-7092531D02*
X21458515Y-7049674D01*
X21458515Y-7049674D02*
X21465657Y-7035388D01*
X21465657Y-7035388D02*
X21472800Y-7028246D01*
X21472800Y-7028246D02*
X21487086Y-7021103D01*
X21487086Y-7021103D02*
X21515657Y-7021103D01*
X21515657Y-7021103D02*
X21529943Y-7028246D01*
X21651372Y-7113960D02*
X21637086Y-7121103D01*
X21637086Y-7121103D02*
X21608515Y-7121103D01*
X21608515Y-7121103D02*
X21594229Y-7113960D01*
X21594229Y-7113960D02*
X21587086Y-7099674D01*
X21587086Y-7099674D02*
X21587086Y-7042531D01*
X21587086Y-7042531D02*
X21594229Y-7028246D01*
X21594229Y-7028246D02*
X21608515Y-7021103D01*
X21608515Y-7021103D02*
X21637086Y-7021103D01*
X21637086Y-7021103D02*
X21651372Y-7028246D01*
X21651372Y-7028246D02*
X21658515Y-7042531D01*
X21658515Y-7042531D02*
X21658515Y-7056817D01*
X21658515Y-7056817D02*
X21587086Y-7071103D01*
X21922800Y-7106817D02*
X21915657Y-7113960D01*
X21915657Y-7113960D02*
X21894229Y-7121103D01*
X21894229Y-7121103D02*
X21879943Y-7121103D01*
X21879943Y-7121103D02*
X21858514Y-7113960D01*
X21858514Y-7113960D02*
X21844229Y-7099674D01*
X21844229Y-7099674D02*
X21837086Y-7085388D01*
X21837086Y-7085388D02*
X21829943Y-7056817D01*
X21829943Y-7056817D02*
X21829943Y-7035388D01*
X21829943Y-7035388D02*
X21837086Y-7006817D01*
X21837086Y-7006817D02*
X21844229Y-6992531D01*
X21844229Y-6992531D02*
X21858514Y-6978246D01*
X21858514Y-6978246D02*
X21879943Y-6971103D01*
X21879943Y-6971103D02*
X21894229Y-6971103D01*
X21894229Y-6971103D02*
X21915657Y-6978246D01*
X21915657Y-6978246D02*
X21922800Y-6985388D01*
X22008514Y-7121103D02*
X21994229Y-7113960D01*
X21994229Y-7113960D02*
X21987086Y-7106817D01*
X21987086Y-7106817D02*
X21979943Y-7092531D01*
X21979943Y-7092531D02*
X21979943Y-7049674D01*
X21979943Y-7049674D02*
X21987086Y-7035388D01*
X21987086Y-7035388D02*
X21994229Y-7028246D01*
X21994229Y-7028246D02*
X22008514Y-7021103D01*
X22008514Y-7021103D02*
X22029943Y-7021103D01*
X22029943Y-7021103D02*
X22044229Y-7028246D01*
X22044229Y-7028246D02*
X22051372Y-7035388D01*
X22051372Y-7035388D02*
X22058514Y-7049674D01*
X22058514Y-7049674D02*
X22058514Y-7092531D01*
X22058514Y-7092531D02*
X22051372Y-7106817D01*
X22051372Y-7106817D02*
X22044229Y-7113960D01*
X22044229Y-7113960D02*
X22029943Y-7121103D01*
X22029943Y-7121103D02*
X22008514Y-7121103D01*
X22122800Y-7021103D02*
X22122800Y-7121103D01*
X22122800Y-7035388D02*
X22129943Y-7028246D01*
X22129943Y-7028246D02*
X22144229Y-7021103D01*
X22144229Y-7021103D02*
X22165657Y-7021103D01*
X22165657Y-7021103D02*
X22179943Y-7028246D01*
X22179943Y-7028246D02*
X22187086Y-7042531D01*
X22187086Y-7042531D02*
X22187086Y-7121103D01*
X22237086Y-7021103D02*
X22294229Y-7021103D01*
X22258514Y-6971103D02*
X22258514Y-7099674D01*
X22258514Y-7099674D02*
X22265657Y-7113960D01*
X22265657Y-7113960D02*
X22279943Y-7121103D01*
X22279943Y-7121103D02*
X22294229Y-7121103D01*
X22344229Y-7121103D02*
X22344229Y-7021103D01*
X22344229Y-7049674D02*
X22351372Y-7035388D01*
X22351372Y-7035388D02*
X22358515Y-7028246D01*
X22358515Y-7028246D02*
X22372800Y-7021103D01*
X22372800Y-7021103D02*
X22387086Y-7021103D01*
X22458514Y-7121103D02*
X22444229Y-7113960D01*
X22444229Y-7113960D02*
X22437086Y-7106817D01*
X22437086Y-7106817D02*
X22429943Y-7092531D01*
X22429943Y-7092531D02*
X22429943Y-7049674D01*
X22429943Y-7049674D02*
X22437086Y-7035388D01*
X22437086Y-7035388D02*
X22444229Y-7028246D01*
X22444229Y-7028246D02*
X22458514Y-7021103D01*
X22458514Y-7021103D02*
X22479943Y-7021103D01*
X22479943Y-7021103D02*
X22494229Y-7028246D01*
X22494229Y-7028246D02*
X22501372Y-7035388D01*
X22501372Y-7035388D02*
X22508514Y-7049674D01*
X22508514Y-7049674D02*
X22508514Y-7092531D01*
X22508514Y-7092531D02*
X22501372Y-7106817D01*
X22501372Y-7106817D02*
X22494229Y-7113960D01*
X22494229Y-7113960D02*
X22479943Y-7121103D01*
X22479943Y-7121103D02*
X22458514Y-7121103D01*
X22594229Y-7121103D02*
X22579943Y-7113960D01*
X22579943Y-7113960D02*
X22572800Y-7099674D01*
X22572800Y-7099674D02*
X22572800Y-6971103D01*
X22651371Y-7106817D02*
X22658514Y-7113960D01*
X22658514Y-7113960D02*
X22651371Y-7121103D01*
X22651371Y-7121103D02*
X22644229Y-7113960D01*
X22644229Y-7113960D02*
X22651371Y-7106817D01*
X22651371Y-7106817D02*
X22651371Y-7121103D01*
X22651371Y-7028246D02*
X22658514Y-7035388D01*
X22658514Y-7035388D02*
X22651371Y-7042531D01*
X22651371Y-7042531D02*
X22644229Y-7035388D01*
X22644229Y-7035388D02*
X22651371Y-7028246D01*
X22651371Y-7028246D02*
X22651371Y-7042531D01*
X13891372Y-6251131D02*
X13912801Y-6258274D01*
X13912801Y-6258274D02*
X13919943Y-6265417D01*
X13919943Y-6265417D02*
X13927086Y-6279703D01*
X13927086Y-6279703D02*
X13927086Y-6301131D01*
X13927086Y-6301131D02*
X13919943Y-6315417D01*
X13919943Y-6315417D02*
X13912801Y-6322560D01*
X13912801Y-6322560D02*
X13898515Y-6329703D01*
X13898515Y-6329703D02*
X13841372Y-6329703D01*
X13841372Y-6329703D02*
X13841372Y-6179703D01*
X13841372Y-6179703D02*
X13891372Y-6179703D01*
X13891372Y-6179703D02*
X13905658Y-6186846D01*
X13905658Y-6186846D02*
X13912801Y-6193988D01*
X13912801Y-6193988D02*
X13919943Y-6208274D01*
X13919943Y-6208274D02*
X13919943Y-6222560D01*
X13919943Y-6222560D02*
X13912801Y-6236846D01*
X13912801Y-6236846D02*
X13905658Y-6243988D01*
X13905658Y-6243988D02*
X13891372Y-6251131D01*
X13891372Y-6251131D02*
X13841372Y-6251131D01*
X14012801Y-6329703D02*
X13998515Y-6322560D01*
X13998515Y-6322560D02*
X13991372Y-6315417D01*
X13991372Y-6315417D02*
X13984229Y-6301131D01*
X13984229Y-6301131D02*
X13984229Y-6258274D01*
X13984229Y-6258274D02*
X13991372Y-6243988D01*
X13991372Y-6243988D02*
X13998515Y-6236846D01*
X13998515Y-6236846D02*
X14012801Y-6229703D01*
X14012801Y-6229703D02*
X14034229Y-6229703D01*
X14034229Y-6229703D02*
X14048515Y-6236846D01*
X14048515Y-6236846D02*
X14055658Y-6243988D01*
X14055658Y-6243988D02*
X14062801Y-6258274D01*
X14062801Y-6258274D02*
X14062801Y-6301131D01*
X14062801Y-6301131D02*
X14055658Y-6315417D01*
X14055658Y-6315417D02*
X14048515Y-6322560D01*
X14048515Y-6322560D02*
X14034229Y-6329703D01*
X14034229Y-6329703D02*
X14012801Y-6329703D01*
X14191372Y-6329703D02*
X14191372Y-6251131D01*
X14191372Y-6251131D02*
X14184229Y-6236846D01*
X14184229Y-6236846D02*
X14169943Y-6229703D01*
X14169943Y-6229703D02*
X14141372Y-6229703D01*
X14141372Y-6229703D02*
X14127086Y-6236846D01*
X14191372Y-6322560D02*
X14177086Y-6329703D01*
X14177086Y-6329703D02*
X14141372Y-6329703D01*
X14141372Y-6329703D02*
X14127086Y-6322560D01*
X14127086Y-6322560D02*
X14119943Y-6308274D01*
X14119943Y-6308274D02*
X14119943Y-6293988D01*
X14119943Y-6293988D02*
X14127086Y-6279703D01*
X14127086Y-6279703D02*
X14141372Y-6272560D01*
X14141372Y-6272560D02*
X14177086Y-6272560D01*
X14177086Y-6272560D02*
X14191372Y-6265417D01*
X14262801Y-6329703D02*
X14262801Y-6229703D01*
X14262801Y-6258274D02*
X14269943Y-6243988D01*
X14269943Y-6243988D02*
X14277086Y-6236846D01*
X14277086Y-6236846D02*
X14291372Y-6229703D01*
X14291372Y-6229703D02*
X14305658Y-6229703D01*
X14419943Y-6329703D02*
X14419943Y-6179703D01*
X14419943Y-6322560D02*
X14405658Y-6329703D01*
X14405658Y-6329703D02*
X14377086Y-6329703D01*
X14377086Y-6329703D02*
X14362801Y-6322560D01*
X14362801Y-6322560D02*
X14355658Y-6315417D01*
X14355658Y-6315417D02*
X14348515Y-6301131D01*
X14348515Y-6301131D02*
X14348515Y-6258274D01*
X14348515Y-6258274D02*
X14355658Y-6243988D01*
X14355658Y-6243988D02*
X14362801Y-6236846D01*
X14362801Y-6236846D02*
X14377086Y-6229703D01*
X14377086Y-6229703D02*
X14405658Y-6229703D01*
X14405658Y-6229703D02*
X14419943Y-6236846D01*
X14627086Y-6329703D02*
X14612801Y-6322560D01*
X14612801Y-6322560D02*
X14605658Y-6315417D01*
X14605658Y-6315417D02*
X14598515Y-6301131D01*
X14598515Y-6301131D02*
X14598515Y-6258274D01*
X14598515Y-6258274D02*
X14605658Y-6243988D01*
X14605658Y-6243988D02*
X14612801Y-6236846D01*
X14612801Y-6236846D02*
X14627086Y-6229703D01*
X14627086Y-6229703D02*
X14648515Y-6229703D01*
X14648515Y-6229703D02*
X14662801Y-6236846D01*
X14662801Y-6236846D02*
X14669943Y-6243988D01*
X14669943Y-6243988D02*
X14677086Y-6258274D01*
X14677086Y-6258274D02*
X14677086Y-6301131D01*
X14677086Y-6301131D02*
X14669943Y-6315417D01*
X14669943Y-6315417D02*
X14662801Y-6322560D01*
X14662801Y-6322560D02*
X14648515Y-6329703D01*
X14648515Y-6329703D02*
X14627086Y-6329703D01*
X14727086Y-6229703D02*
X14762801Y-6329703D01*
X14762801Y-6329703D02*
X14798515Y-6229703D01*
X14912801Y-6322560D02*
X14898515Y-6329703D01*
X14898515Y-6329703D02*
X14869943Y-6329703D01*
X14869943Y-6329703D02*
X14855658Y-6322560D01*
X14855658Y-6322560D02*
X14848515Y-6308274D01*
X14848515Y-6308274D02*
X14848515Y-6251131D01*
X14848515Y-6251131D02*
X14855658Y-6236846D01*
X14855658Y-6236846D02*
X14869943Y-6229703D01*
X14869943Y-6229703D02*
X14898515Y-6229703D01*
X14898515Y-6229703D02*
X14912801Y-6236846D01*
X14912801Y-6236846D02*
X14919943Y-6251131D01*
X14919943Y-6251131D02*
X14919943Y-6265417D01*
X14919943Y-6265417D02*
X14848515Y-6279703D01*
X14984229Y-6329703D02*
X14984229Y-6229703D01*
X14984229Y-6258274D02*
X14991372Y-6243988D01*
X14991372Y-6243988D02*
X14998515Y-6236846D01*
X14998515Y-6236846D02*
X15012801Y-6229703D01*
X15012801Y-6229703D02*
X15027086Y-6229703D01*
X15141372Y-6329703D02*
X15141372Y-6251131D01*
X15141372Y-6251131D02*
X15134229Y-6236846D01*
X15134229Y-6236846D02*
X15119943Y-6229703D01*
X15119943Y-6229703D02*
X15091372Y-6229703D01*
X15091372Y-6229703D02*
X15077086Y-6236846D01*
X15141372Y-6322560D02*
X15127086Y-6329703D01*
X15127086Y-6329703D02*
X15091372Y-6329703D01*
X15091372Y-6329703D02*
X15077086Y-6322560D01*
X15077086Y-6322560D02*
X15069943Y-6308274D01*
X15069943Y-6308274D02*
X15069943Y-6293988D01*
X15069943Y-6293988D02*
X15077086Y-6279703D01*
X15077086Y-6279703D02*
X15091372Y-6272560D01*
X15091372Y-6272560D02*
X15127086Y-6272560D01*
X15127086Y-6272560D02*
X15141372Y-6265417D01*
X15234229Y-6329703D02*
X15219943Y-6322560D01*
X15219943Y-6322560D02*
X15212800Y-6308274D01*
X15212800Y-6308274D02*
X15212800Y-6179703D01*
X15312800Y-6329703D02*
X15298515Y-6322560D01*
X15298515Y-6322560D02*
X15291372Y-6308274D01*
X15291372Y-6308274D02*
X15291372Y-6179703D01*
X15548515Y-6329703D02*
X15548515Y-6179703D01*
X15548515Y-6322560D02*
X15534229Y-6329703D01*
X15534229Y-6329703D02*
X15505658Y-6329703D01*
X15505658Y-6329703D02*
X15491372Y-6322560D01*
X15491372Y-6322560D02*
X15484229Y-6315417D01*
X15484229Y-6315417D02*
X15477086Y-6301131D01*
X15477086Y-6301131D02*
X15477086Y-6258274D01*
X15477086Y-6258274D02*
X15484229Y-6243988D01*
X15484229Y-6243988D02*
X15491372Y-6236846D01*
X15491372Y-6236846D02*
X15505658Y-6229703D01*
X15505658Y-6229703D02*
X15534229Y-6229703D01*
X15534229Y-6229703D02*
X15548515Y-6236846D01*
X15619943Y-6329703D02*
X15619943Y-6229703D01*
X15619943Y-6179703D02*
X15612800Y-6186846D01*
X15612800Y-6186846D02*
X15619943Y-6193988D01*
X15619943Y-6193988D02*
X15627086Y-6186846D01*
X15627086Y-6186846D02*
X15619943Y-6179703D01*
X15619943Y-6179703D02*
X15619943Y-6193988D01*
X15691372Y-6329703D02*
X15691372Y-6229703D01*
X15691372Y-6243988D02*
X15698515Y-6236846D01*
X15698515Y-6236846D02*
X15712800Y-6229703D01*
X15712800Y-6229703D02*
X15734229Y-6229703D01*
X15734229Y-6229703D02*
X15748515Y-6236846D01*
X15748515Y-6236846D02*
X15755658Y-6251131D01*
X15755658Y-6251131D02*
X15755658Y-6329703D01*
X15755658Y-6251131D02*
X15762800Y-6236846D01*
X15762800Y-6236846D02*
X15777086Y-6229703D01*
X15777086Y-6229703D02*
X15798515Y-6229703D01*
X15798515Y-6229703D02*
X15812800Y-6236846D01*
X15812800Y-6236846D02*
X15819943Y-6251131D01*
X15819943Y-6251131D02*
X15819943Y-6329703D01*
X15948515Y-6322560D02*
X15934229Y-6329703D01*
X15934229Y-6329703D02*
X15905658Y-6329703D01*
X15905658Y-6329703D02*
X15891372Y-6322560D01*
X15891372Y-6322560D02*
X15884229Y-6308274D01*
X15884229Y-6308274D02*
X15884229Y-6251131D01*
X15884229Y-6251131D02*
X15891372Y-6236846D01*
X15891372Y-6236846D02*
X15905658Y-6229703D01*
X15905658Y-6229703D02*
X15934229Y-6229703D01*
X15934229Y-6229703D02*
X15948515Y-6236846D01*
X15948515Y-6236846D02*
X15955658Y-6251131D01*
X15955658Y-6251131D02*
X15955658Y-6265417D01*
X15955658Y-6265417D02*
X15884229Y-6279703D01*
X16019943Y-6229703D02*
X16019943Y-6329703D01*
X16019943Y-6243988D02*
X16027086Y-6236846D01*
X16027086Y-6236846D02*
X16041372Y-6229703D01*
X16041372Y-6229703D02*
X16062800Y-6229703D01*
X16062800Y-6229703D02*
X16077086Y-6236846D01*
X16077086Y-6236846D02*
X16084229Y-6251131D01*
X16084229Y-6251131D02*
X16084229Y-6329703D01*
X16148515Y-6322560D02*
X16162800Y-6329703D01*
X16162800Y-6329703D02*
X16191372Y-6329703D01*
X16191372Y-6329703D02*
X16205658Y-6322560D01*
X16205658Y-6322560D02*
X16212800Y-6308274D01*
X16212800Y-6308274D02*
X16212800Y-6301131D01*
X16212800Y-6301131D02*
X16205658Y-6286846D01*
X16205658Y-6286846D02*
X16191372Y-6279703D01*
X16191372Y-6279703D02*
X16169943Y-6279703D01*
X16169943Y-6279703D02*
X16155658Y-6272560D01*
X16155658Y-6272560D02*
X16148515Y-6258274D01*
X16148515Y-6258274D02*
X16148515Y-6251131D01*
X16148515Y-6251131D02*
X16155658Y-6236846D01*
X16155658Y-6236846D02*
X16169943Y-6229703D01*
X16169943Y-6229703D02*
X16191372Y-6229703D01*
X16191372Y-6229703D02*
X16205658Y-6236846D01*
X16277086Y-6329703D02*
X16277086Y-6229703D01*
X16277086Y-6179703D02*
X16269943Y-6186846D01*
X16269943Y-6186846D02*
X16277086Y-6193988D01*
X16277086Y-6193988D02*
X16284229Y-6186846D01*
X16284229Y-6186846D02*
X16277086Y-6179703D01*
X16277086Y-6179703D02*
X16277086Y-6193988D01*
X16369943Y-6329703D02*
X16355658Y-6322560D01*
X16355658Y-6322560D02*
X16348515Y-6315417D01*
X16348515Y-6315417D02*
X16341372Y-6301131D01*
X16341372Y-6301131D02*
X16341372Y-6258274D01*
X16341372Y-6258274D02*
X16348515Y-6243988D01*
X16348515Y-6243988D02*
X16355658Y-6236846D01*
X16355658Y-6236846D02*
X16369943Y-6229703D01*
X16369943Y-6229703D02*
X16391372Y-6229703D01*
X16391372Y-6229703D02*
X16405658Y-6236846D01*
X16405658Y-6236846D02*
X16412801Y-6243988D01*
X16412801Y-6243988D02*
X16419943Y-6258274D01*
X16419943Y-6258274D02*
X16419943Y-6301131D01*
X16419943Y-6301131D02*
X16412801Y-6315417D01*
X16412801Y-6315417D02*
X16405658Y-6322560D01*
X16405658Y-6322560D02*
X16391372Y-6329703D01*
X16391372Y-6329703D02*
X16369943Y-6329703D01*
X16484229Y-6229703D02*
X16484229Y-6329703D01*
X16484229Y-6243988D02*
X16491372Y-6236846D01*
X16491372Y-6236846D02*
X16505658Y-6229703D01*
X16505658Y-6229703D02*
X16527086Y-6229703D01*
X16527086Y-6229703D02*
X16541372Y-6236846D01*
X16541372Y-6236846D02*
X16548515Y-6251131D01*
X16548515Y-6251131D02*
X16548515Y-6329703D01*
X16612801Y-6322560D02*
X16627086Y-6329703D01*
X16627086Y-6329703D02*
X16655658Y-6329703D01*
X16655658Y-6329703D02*
X16669943Y-6322560D01*
X16669943Y-6322560D02*
X16677086Y-6308274D01*
X16677086Y-6308274D02*
X16677086Y-6301131D01*
X16677086Y-6301131D02*
X16669943Y-6286846D01*
X16669943Y-6286846D02*
X16655658Y-6279703D01*
X16655658Y-6279703D02*
X16634229Y-6279703D01*
X16634229Y-6279703D02*
X16619943Y-6272560D01*
X16619943Y-6272560D02*
X16612801Y-6258274D01*
X16612801Y-6258274D02*
X16612801Y-6251131D01*
X16612801Y-6251131D02*
X16619943Y-6236846D01*
X16619943Y-6236846D02*
X16634229Y-6229703D01*
X16634229Y-6229703D02*
X16655658Y-6229703D01*
X16655658Y-6229703D02*
X16669943Y-6236846D01*
X16741372Y-6315417D02*
X16748515Y-6322560D01*
X16748515Y-6322560D02*
X16741372Y-6329703D01*
X16741372Y-6329703D02*
X16734229Y-6322560D01*
X16734229Y-6322560D02*
X16741372Y-6315417D01*
X16741372Y-6315417D02*
X16741372Y-6329703D01*
X16741372Y-6236846D02*
X16748515Y-6243988D01*
X16748515Y-6243988D02*
X16741372Y-6251131D01*
X16741372Y-6251131D02*
X16734229Y-6243988D01*
X16734229Y-6243988D02*
X16741372Y-6236846D01*
X16741372Y-6236846D02*
X16741372Y-6251131D01*
M02*
