%TF.GenerationSoftware,KiCad,Pcbnew,8.0.6*%
%TF.CreationDate,2024-11-28T22:24:40+00:00*%
%TF.ProjectId,StepUp,53746570-5570-42e6-9b69-6361645f7063,v0.1*%
%TF.SameCoordinates,Original*%
%TF.FileFunction,Paste,Top*%
%TF.FilePolarity,Positive*%
%FSLAX46Y46*%
G04 Gerber Fmt 4.6, Leading zero omitted, Abs format (unit mm)*
G04 Created by KiCad (PCBNEW 8.0.6) date 2024-11-28 22:24:40*
%MOMM*%
%LPD*%
G01*
G04 APERTURE LIST*
G04 Aperture macros list*
%AMRoundRect*
0 Rectangle with rounded corners*
0 $1 Rounding radius*
0 $2 $3 $4 $5 $6 $7 $8 $9 X,Y pos of 4 corners*
0 Add a 4 corners polygon primitive as box body*
4,1,4,$2,$3,$4,$5,$6,$7,$8,$9,$2,$3,0*
0 Add four circle primitives for the rounded corners*
1,1,$1+$1,$2,$3*
1,1,$1+$1,$4,$5*
1,1,$1+$1,$6,$7*
1,1,$1+$1,$8,$9*
0 Add four rect primitives between the rounded corners*
20,1,$1+$1,$2,$3,$4,$5,0*
20,1,$1+$1,$4,$5,$6,$7,0*
20,1,$1+$1,$6,$7,$8,$9,0*
20,1,$1+$1,$8,$9,$2,$3,0*%
G04 Aperture macros list end*
%ADD10R,0.863600X0.787400*%
%ADD11RoundRect,0.250000X0.312500X0.625000X-0.312500X0.625000X-0.312500X-0.625000X0.312500X-0.625000X0*%
%ADD12RoundRect,0.200000X-0.275000X0.200000X-0.275000X-0.200000X0.275000X-0.200000X0.275000X0.200000X0*%
%ADD13RoundRect,0.140000X0.170000X-0.140000X0.170000X0.140000X-0.170000X0.140000X-0.170000X-0.140000X0*%
%ADD14RoundRect,0.140000X-0.140000X-0.170000X0.140000X-0.170000X0.140000X0.170000X-0.140000X0.170000X0*%
%ADD15RoundRect,0.135000X-0.135000X-0.185000X0.135000X-0.185000X0.135000X0.185000X-0.135000X0.185000X0*%
%ADD16RoundRect,0.140000X0.140000X0.170000X-0.140000X0.170000X-0.140000X-0.170000X0.140000X-0.170000X0*%
%ADD17RoundRect,0.150000X-0.150000X-0.425000X0.150000X-0.425000X0.150000X0.425000X-0.150000X0.425000X0*%
%ADD18RoundRect,0.075000X-0.075000X-0.500000X0.075000X-0.500000X0.075000X0.500000X-0.075000X0.500000X0*%
%ADD19O,1.000000X2.100000*%
%ADD20O,1.000000X1.800000*%
%ADD21RoundRect,0.200000X-0.200000X-0.275000X0.200000X-0.275000X0.200000X0.275000X-0.200000X0.275000X0*%
%ADD22RoundRect,0.225000X0.225000X0.250000X-0.225000X0.250000X-0.225000X-0.250000X0.225000X-0.250000X0*%
%ADD23RoundRect,0.135000X0.135000X0.185000X-0.135000X0.185000X-0.135000X-0.185000X0.135000X-0.185000X0*%
%ADD24RoundRect,0.200000X0.200000X0.275000X-0.200000X0.275000X-0.200000X-0.275000X0.200000X-0.275000X0*%
%ADD25RoundRect,0.225000X-0.225000X-0.250000X0.225000X-0.250000X0.225000X0.250000X-0.225000X0.250000X0*%
%ADD26R,1.000000X0.550000*%
%ADD27R,1.300000X0.600000*%
%ADD28RoundRect,0.250000X0.292217X-0.292217X0.292217X0.292217X-0.292217X0.292217X-0.292217X-0.292217X0*%
%ADD29RoundRect,0.050000X0.050000X-0.387500X0.050000X0.387500X-0.050000X0.387500X-0.050000X-0.387500X0*%
%ADD30RoundRect,0.050000X0.387500X-0.050000X0.387500X0.050000X-0.387500X0.050000X-0.387500X-0.050000X0*%
%ADD31R,1.000000X1.000000*%
%ADD32R,1.753400X0.912000*%
%ADD33RoundRect,0.160000X0.345000X-0.160000X0.345000X0.160000X-0.345000X0.160000X-0.345000X-0.160000X0*%
%ADD34RoundRect,0.062500X0.062500X-0.362500X0.062500X0.362500X-0.062500X0.362500X-0.062500X-0.362500X0*%
%ADD35R,0.254000X0.355600*%
%ADD36RoundRect,0.250000X0.625000X-0.312500X0.625000X0.312500X-0.625000X0.312500X-0.625000X-0.312500X0*%
%ADD37RoundRect,0.250000X0.650000X-1.000000X0.650000X1.000000X-0.650000X1.000000X-0.650000X-1.000000X0*%
%ADD38RoundRect,0.200000X0.275000X-0.200000X0.275000X0.200000X-0.275000X0.200000X-0.275000X-0.200000X0*%
%ADD39RoundRect,0.250000X-0.250000X-0.475000X0.250000X-0.475000X0.250000X0.475000X-0.250000X0.475000X0*%
%ADD40RoundRect,0.225000X-0.250000X0.225000X-0.250000X-0.225000X0.250000X-0.225000X0.250000X0.225000X0*%
%ADD41RoundRect,0.140000X-0.170000X0.140000X-0.170000X-0.140000X0.170000X-0.140000X0.170000X0.140000X0*%
%ADD42RoundRect,0.250000X0.250000X0.475000X-0.250000X0.475000X-0.250000X-0.475000X0.250000X-0.475000X0*%
%ADD43R,1.200000X1.400000*%
%ADD44RoundRect,0.250000X-0.312500X-0.625000X0.312500X-0.625000X0.312500X0.625000X-0.312500X0.625000X0*%
%ADD45RoundRect,0.375000X-0.625000X-0.375000X0.625000X-0.375000X0.625000X0.375000X-0.625000X0.375000X0*%
%ADD46RoundRect,0.500000X-0.500000X-1.400000X0.500000X-1.400000X0.500000X1.400000X-0.500000X1.400000X0*%
%ADD47O,0.857199X0.204000*%
%ADD48O,0.204000X0.857199*%
%ADD49R,1.701800X1.701800*%
%ADD50RoundRect,0.250000X0.475000X-0.250000X0.475000X0.250000X-0.475000X0.250000X-0.475000X-0.250000X0*%
%ADD51RoundRect,0.250000X0.412500X0.925000X-0.412500X0.925000X-0.412500X-0.925000X0.412500X-0.925000X0*%
%ADD52R,0.457200X0.406400*%
%ADD53R,0.711200X0.254000*%
%ADD54R,0.254000X1.651000*%
%ADD55R,2.200000X2.150000*%
%ADD56RoundRect,0.250000X-0.475000X0.250000X-0.475000X-0.250000X0.475000X-0.250000X0.475000X0.250000X0*%
%ADD57R,1.050000X0.600000*%
%ADD58R,0.600000X1.300000*%
%ADD59R,1.397000X0.889000*%
%ADD60RoundRect,0.250000X-0.450000X0.400000X-0.450000X-0.400000X0.450000X-0.400000X0.450000X0.400000X0*%
%ADD61RoundRect,0.225000X0.250000X-0.225000X0.250000X0.225000X-0.250000X0.225000X-0.250000X-0.225000X0*%
%ADD62R,0.950000X0.900000*%
%ADD63RoundRect,0.070000X0.070000X0.355000X-0.070000X0.355000X-0.070000X-0.355000X0.070000X-0.355000X0*%
%ADD64RoundRect,0.070000X0.070000X0.305000X-0.070000X0.305000X-0.070000X-0.305000X0.070000X-0.305000X0*%
%ADD65RoundRect,0.150000X0.150000X-0.512500X0.150000X0.512500X-0.150000X0.512500X-0.150000X-0.512500X0*%
%ADD66RoundRect,0.250000X-0.300000X-0.300000X0.300000X-0.300000X0.300000X0.300000X-0.300000X0.300000X0*%
G04 APERTURE END LIST*
D10*
%TO.C,D3*%
X90477799Y-63478600D03*
X87175799Y-63478600D03*
%TD*%
D11*
%TO.C,R20*%
X99572900Y-75550001D03*
X96647900Y-75550001D03*
%TD*%
D12*
%TO.C,R33*%
X74950000Y-57775000D03*
X74950000Y-59425000D03*
%TD*%
D13*
%TO.C,C10*%
X87000000Y-100580000D03*
X87000000Y-99620000D03*
%TD*%
D14*
%TO.C,C5*%
X91720000Y-105100000D03*
X92680000Y-105100000D03*
%TD*%
D15*
%TO.C,R6*%
X78860000Y-105612500D03*
X79880000Y-105612500D03*
%TD*%
D16*
%TO.C,C8*%
X79850000Y-102600000D03*
X78890000Y-102600000D03*
%TD*%
D17*
%TO.C,J1*%
X78858000Y-122950000D03*
X79658000Y-122950000D03*
D18*
X80808000Y-122950000D03*
X81808000Y-122950000D03*
X82308000Y-122950000D03*
X83308000Y-122950000D03*
D17*
X84458000Y-122950000D03*
X85258000Y-122950000D03*
X85258000Y-122950000D03*
X84458000Y-122950000D03*
D18*
X83808000Y-122950000D03*
X82808000Y-122950000D03*
X81308000Y-122950000D03*
X80308000Y-122950000D03*
D17*
X79658000Y-122950000D03*
X78858000Y-122950000D03*
D19*
X77738000Y-123525000D03*
D20*
X77738000Y-127705000D03*
D19*
X86378000Y-123525000D03*
D20*
X86378000Y-127705000D03*
%TD*%
D14*
%TO.C,C19*%
X94237000Y-77249000D03*
X95197000Y-77249000D03*
%TD*%
D21*
%TO.C,R40*%
X71375000Y-88424000D03*
X73025000Y-88424000D03*
%TD*%
D14*
%TO.C,C18*%
X94220000Y-78300000D03*
X95180000Y-78300000D03*
%TD*%
D12*
%TO.C,R32*%
X75600000Y-77775000D03*
X75600000Y-79425000D03*
%TD*%
D22*
%TO.C,C41*%
X108475000Y-89100000D03*
X106925000Y-89100000D03*
%TD*%
D12*
%TO.C,R10*%
X86600000Y-85775000D03*
X86600000Y-87425000D03*
%TD*%
D23*
%TO.C,R2*%
X79510000Y-112100000D03*
X78490000Y-112100000D03*
%TD*%
D24*
%TO.C,R28*%
X66067000Y-84760000D03*
X64417000Y-84760000D03*
%TD*%
D15*
%TO.C,R5*%
X91712000Y-107135000D03*
X92732000Y-107135000D03*
%TD*%
%TO.C,R7*%
X78860000Y-104600000D03*
X79880000Y-104600000D03*
%TD*%
D10*
%TO.C,D8*%
X94935400Y-61192600D03*
X91633400Y-61192600D03*
%TD*%
%TO.C,D10*%
X97983400Y-61192600D03*
X101285400Y-61192600D03*
%TD*%
D25*
%TO.C,C38*%
X77928000Y-86768000D03*
X79478000Y-86768000D03*
%TD*%
D13*
%TO.C,C15*%
X88025000Y-76779000D03*
X88025000Y-75819000D03*
%TD*%
D10*
%TO.C,D7*%
X91633400Y-63478600D03*
X94935400Y-63478600D03*
%TD*%
D24*
%TO.C,R8*%
X84950000Y-87300000D03*
X83300000Y-87300000D03*
%TD*%
%TO.C,R31*%
X64329000Y-79428000D03*
X62679000Y-79428000D03*
%TD*%
D12*
%TO.C,R4*%
X84350000Y-118925000D03*
X84350000Y-120575000D03*
%TD*%
%TO.C,R48*%
X63800000Y-52575000D03*
X63800000Y-54225000D03*
%TD*%
D22*
%TO.C,C28*%
X62667000Y-72734000D03*
X61117000Y-72734000D03*
%TD*%
D26*
%TO.C,Q3*%
X61822000Y-101714000D03*
X61822000Y-100414000D03*
X59922000Y-101064000D03*
%TD*%
D27*
%TO.C,D13*%
X75850000Y-66300000D03*
X75850000Y-68200000D03*
X77950000Y-67250000D03*
%TD*%
D28*
%TO.C,U3*%
X85367500Y-107136500D03*
X86642500Y-107136500D03*
X85367500Y-105861500D03*
X86642500Y-105861500D03*
D29*
X83405000Y-109936500D03*
X83805000Y-109936500D03*
X84205000Y-109936500D03*
X84605000Y-109936500D03*
X85005000Y-109936500D03*
X85405000Y-109936500D03*
X85805000Y-109936500D03*
X86205000Y-109936500D03*
X86605000Y-109936500D03*
X87005000Y-109936500D03*
X87405000Y-109936500D03*
X87805000Y-109936500D03*
X88205000Y-109936500D03*
X88605000Y-109936500D03*
D30*
X89442500Y-109099000D03*
X89442500Y-108699000D03*
X89442500Y-108299000D03*
X89442500Y-107899000D03*
X89442500Y-107499000D03*
X89442500Y-107099000D03*
X89442500Y-106699000D03*
X89442500Y-106299000D03*
X89442500Y-105899000D03*
X89442500Y-105499000D03*
X89442500Y-105099000D03*
X89442500Y-104699000D03*
X89442500Y-104299000D03*
X89442500Y-103899000D03*
D29*
X88605000Y-103061500D03*
X88205000Y-103061500D03*
X87805000Y-103061500D03*
X87405000Y-103061500D03*
X87005000Y-103061500D03*
X86605000Y-103061500D03*
X86205000Y-103061500D03*
X85805000Y-103061500D03*
X85405000Y-103061500D03*
X85005000Y-103061500D03*
X84605000Y-103061500D03*
X84205000Y-103061500D03*
X83805000Y-103061500D03*
X83405000Y-103061500D03*
D30*
X82567500Y-103899000D03*
X82567500Y-104299000D03*
X82567500Y-104699000D03*
X82567500Y-105099000D03*
X82567500Y-105499000D03*
X82567500Y-105899000D03*
X82567500Y-106299000D03*
X82567500Y-106699000D03*
X82567500Y-107099000D03*
X82567500Y-107499000D03*
X82567500Y-107899000D03*
X82567500Y-108299000D03*
X82567500Y-108699000D03*
X82567500Y-109099000D03*
%TD*%
D21*
%TO.C,R26*%
X88475000Y-127000000D03*
X90125000Y-127000000D03*
%TD*%
D12*
%TO.C,R3*%
X78500000Y-118675000D03*
X78500000Y-120325000D03*
%TD*%
D16*
%TO.C,C7*%
X78740500Y-106700000D03*
X77780500Y-106700000D03*
%TD*%
%TO.C,C36*%
X61530000Y-58900000D03*
X60570000Y-58900000D03*
%TD*%
D21*
%TO.C,R24*%
X71175000Y-115900000D03*
X72825000Y-115900000D03*
%TD*%
D16*
%TO.C,C6*%
X79850000Y-103600000D03*
X78890000Y-103600000D03*
%TD*%
D31*
%TO.C,LED1*%
X91200000Y-128650000D03*
X89300000Y-128650000D03*
%TD*%
D21*
%TO.C,R45*%
X86475000Y-119020000D03*
X88125000Y-119020000D03*
%TD*%
%TO.C,R30*%
X62679000Y-81206000D03*
X64329000Y-81206000D03*
%TD*%
D12*
%TO.C,R27*%
X59150000Y-79725000D03*
X59150000Y-81375000D03*
%TD*%
D32*
%TO.C,L1*%
X86680400Y-66661201D03*
X86680400Y-69452801D03*
%TD*%
D13*
%TO.C,C13*%
X83350000Y-101380000D03*
X83350000Y-100420000D03*
%TD*%
D10*
%TO.C,D4*%
X87175799Y-61192600D03*
X90477799Y-61192600D03*
%TD*%
D27*
%TO.C,Q4*%
X75850000Y-62250000D03*
X75850000Y-64150000D03*
X77950000Y-63200000D03*
%TD*%
D33*
%TO.C,U7*%
X62086000Y-76430000D03*
X63336000Y-76430000D03*
X62086000Y-75630000D03*
X63336000Y-75630000D03*
D34*
X61461000Y-77455000D03*
X61961000Y-77455000D03*
X62461000Y-77455000D03*
X62961000Y-77455000D03*
X63461000Y-77455000D03*
X63961000Y-77455000D03*
X63961000Y-74605000D03*
X63461000Y-74605000D03*
X62961000Y-74605000D03*
X62461000Y-74605000D03*
X61961000Y-74605000D03*
X61461000Y-74605000D03*
%TD*%
D35*
%TO.C,U8*%
X60275001Y-54820800D03*
X60924999Y-54820800D03*
X61575001Y-54820800D03*
X62224999Y-54820800D03*
X62224999Y-52179200D03*
X61575001Y-52179200D03*
X60924999Y-52179200D03*
X60275001Y-52179200D03*
%TD*%
D14*
%TO.C,C3*%
X75598000Y-112048000D03*
X76558000Y-112048000D03*
%TD*%
D13*
%TO.C,C14*%
X82334000Y-101380000D03*
X82334000Y-100420000D03*
%TD*%
D12*
%TO.C,R34*%
X73700000Y-68325000D03*
X73700000Y-69975000D03*
%TD*%
D24*
%TO.C,R14*%
X91925000Y-83648000D03*
X90275000Y-83648000D03*
%TD*%
D12*
%TO.C,R37*%
X59750000Y-56025000D03*
X59750000Y-57675000D03*
%TD*%
D32*
%TO.C,L4*%
X97856400Y-66661201D03*
X97856400Y-69452801D03*
%TD*%
D24*
%TO.C,R43*%
X77875000Y-85244000D03*
X79525000Y-85244000D03*
%TD*%
D25*
%TO.C,C32*%
X59137000Y-82836000D03*
X60687000Y-82836000D03*
%TD*%
D36*
%TO.C,R23*%
X72550000Y-66062500D03*
X72550000Y-63137500D03*
%TD*%
D24*
%TO.C,R13*%
X86625000Y-78300000D03*
X84975000Y-78300000D03*
%TD*%
D16*
%TO.C,C20*%
X88655000Y-65289000D03*
X87695000Y-65289000D03*
%TD*%
%TO.C,C4*%
X78740500Y-107716000D03*
X77780500Y-107716000D03*
%TD*%
D25*
%TO.C,C39*%
X86525000Y-117500000D03*
X88075000Y-117500000D03*
%TD*%
D12*
%TO.C,R51*%
X106500000Y-68375000D03*
X106500000Y-70025000D03*
%TD*%
D37*
%TO.C,D12*%
X72342000Y-79410000D03*
X72342000Y-75410000D03*
%TD*%
D12*
%TO.C,R50*%
X104600000Y-68375000D03*
X104600000Y-70025000D03*
%TD*%
D38*
%TO.C,R54*%
X95900000Y-121025000D03*
X95900000Y-119375000D03*
%TD*%
D13*
%TO.C,C2*%
X94000000Y-105680000D03*
X94000000Y-104720000D03*
%TD*%
D39*
%TO.C,C24*%
X61700000Y-98550000D03*
X63600000Y-98550000D03*
%TD*%
D40*
%TO.C,C31*%
X60674000Y-79775000D03*
X60674000Y-81325000D03*
%TD*%
D41*
%TO.C,C1*%
X94100000Y-107720000D03*
X94100000Y-108680000D03*
%TD*%
D32*
%TO.C,L2*%
X84140400Y-66661201D03*
X84140400Y-69452801D03*
%TD*%
D24*
%TO.C,R12*%
X86625000Y-79900000D03*
X84975000Y-79900000D03*
%TD*%
D16*
%TO.C,C9*%
X82780000Y-111200000D03*
X81820000Y-111200000D03*
%TD*%
D42*
%TO.C,C34*%
X67292000Y-77210000D03*
X65392000Y-77210000D03*
%TD*%
D24*
%TO.C,R16*%
X91925000Y-80600000D03*
X90275000Y-80600000D03*
%TD*%
D14*
%TO.C,C23*%
X99340000Y-65256600D03*
X100300000Y-65256600D03*
%TD*%
D43*
%TO.C,Y1*%
X97450000Y-106800000D03*
X97450000Y-104600000D03*
X95750000Y-104600000D03*
X95750000Y-106800000D03*
%TD*%
D21*
%TO.C,R17*%
X97225000Y-80500000D03*
X98875000Y-80500000D03*
%TD*%
D44*
%TO.C,R19*%
X82423900Y-75550001D03*
X85348900Y-75550001D03*
%TD*%
D16*
%TO.C,C21*%
X82655000Y-65256600D03*
X81695000Y-65256600D03*
%TD*%
D45*
%TO.C,U5*%
X60150000Y-91650000D03*
X60150000Y-93950000D03*
D46*
X66450000Y-93950000D03*
D45*
X60150000Y-96250000D03*
%TD*%
D15*
%TO.C,R1*%
X78490000Y-113200000D03*
X79510000Y-113200000D03*
%TD*%
D14*
%TO.C,C12*%
X91742000Y-106100000D03*
X92702000Y-106100000D03*
%TD*%
D21*
%TO.C,R42*%
X79525000Y-83720000D03*
X77875000Y-83720000D03*
%TD*%
D47*
%TO.C,U4*%
X89630000Y-75149999D03*
X89630000Y-75550001D03*
X89630000Y-75950000D03*
X89630000Y-76349999D03*
X89630000Y-76750001D03*
D48*
X90299999Y-77420000D03*
X90700001Y-77420000D03*
X91100000Y-77420000D03*
X91499999Y-77420000D03*
X91900001Y-77420000D03*
D47*
X92570000Y-76750001D03*
X92570000Y-76349999D03*
X92570000Y-75950000D03*
X92570000Y-75550001D03*
X92570000Y-75149999D03*
D48*
X91900001Y-74480000D03*
X91499999Y-74480000D03*
X91100000Y-74480000D03*
X90700001Y-74480000D03*
X90299999Y-74480000D03*
D49*
X91100000Y-75950000D03*
%TD*%
D12*
%TO.C,R11*%
X93700000Y-80475000D03*
X93700000Y-82125000D03*
%TD*%
D21*
%TO.C,R41*%
X77875000Y-82200000D03*
X79525000Y-82200000D03*
%TD*%
D50*
%TO.C,C30*%
X69500000Y-119550000D03*
X69500000Y-117650000D03*
%TD*%
D51*
%TO.C,C25*%
X63487500Y-68250000D03*
X60412500Y-68250000D03*
%TD*%
D24*
%TO.C,R15*%
X91925000Y-82124000D03*
X90275000Y-82124000D03*
%TD*%
D10*
%TO.C,D9*%
X101285400Y-63478600D03*
X97983400Y-63478600D03*
%TD*%
D21*
%TO.C,R36*%
X62825000Y-59000000D03*
X64475000Y-59000000D03*
%TD*%
D25*
%TO.C,C37*%
X71428000Y-89944000D03*
X72978000Y-89944000D03*
%TD*%
D12*
%TO.C,R38*%
X58200000Y-56025000D03*
X58200000Y-57675000D03*
%TD*%
%TO.C,R49*%
X102700000Y-68375000D03*
X102700000Y-70025000D03*
%TD*%
D50*
%TO.C,C29*%
X69342000Y-93810000D03*
X69342000Y-91910000D03*
%TD*%
D13*
%TO.C,C17*%
X90376001Y-71458001D03*
X90376001Y-70498001D03*
%TD*%
D52*
%TO.C,Q5*%
X73350001Y-57707000D03*
X71449999Y-57707000D03*
X72400000Y-59993000D03*
%TD*%
D27*
%TO.C,Q1*%
X88250000Y-85550000D03*
X88250000Y-87450000D03*
X90350000Y-86500000D03*
%TD*%
D53*
%TO.C,U1*%
X78375000Y-110998001D03*
X78375000Y-110498000D03*
X78375000Y-109998000D03*
X78375000Y-109497999D03*
X75581000Y-109497999D03*
X75581000Y-109998000D03*
X75581000Y-110498000D03*
X75581000Y-110998001D03*
D54*
X76978000Y-110248000D03*
%TD*%
D55*
%TO.C,L5*%
X67492000Y-69010000D03*
X67492000Y-73810000D03*
%TD*%
D22*
%TO.C,C33*%
X64279000Y-82984000D03*
X62729000Y-82984000D03*
%TD*%
D24*
%TO.C,R21*%
X66147000Y-103492000D03*
X64497000Y-103492000D03*
%TD*%
D41*
%TO.C,C11*%
X87400000Y-111720000D03*
X87400000Y-112680000D03*
%TD*%
D21*
%TO.C,R9*%
X83300000Y-85700000D03*
X84950000Y-85700000D03*
%TD*%
D24*
%TO.C,R39*%
X73025000Y-86900000D03*
X71375000Y-86900000D03*
%TD*%
D56*
%TO.C,C26*%
X76102000Y-117750000D03*
X76102000Y-119650000D03*
%TD*%
D57*
%TO.C,U6*%
X71400000Y-117750000D03*
X71400000Y-118700000D03*
X71400000Y-119650000D03*
X74100000Y-119650000D03*
X74100000Y-117750000D03*
%TD*%
D24*
%TO.C,R53*%
X91825000Y-119900000D03*
X90175000Y-119900000D03*
%TD*%
D10*
%TO.C,D5*%
X80457400Y-63478600D03*
X83759400Y-63478600D03*
%TD*%
D58*
%TO.C,Q6*%
X69350000Y-54750000D03*
X71250000Y-54750000D03*
X70300000Y-52650000D03*
%TD*%
D12*
%TO.C,R29*%
X66044000Y-81143000D03*
X66044000Y-82793000D03*
%TD*%
D59*
%TO.C,SW2*%
X71065600Y-128440451D03*
X71065600Y-121940449D03*
%TD*%
D22*
%TO.C,C27*%
X62667000Y-71210000D03*
X61117000Y-71210000D03*
%TD*%
D12*
%TO.C,R18*%
X95500000Y-80475000D03*
X95500000Y-82125000D03*
%TD*%
D59*
%TO.C,SW1*%
X64900000Y-128440451D03*
X64900000Y-121940449D03*
%TD*%
D14*
%TO.C,C22*%
X93320000Y-65289000D03*
X94280000Y-65289000D03*
%TD*%
D32*
%TO.C,L3*%
X95316400Y-66661201D03*
X95316400Y-69452801D03*
%TD*%
D24*
%TO.C,R47*%
X67325000Y-52650000D03*
X65675000Y-52650000D03*
%TD*%
D40*
%TO.C,C40*%
X98000000Y-86450000D03*
X98000000Y-88000000D03*
%TD*%
D60*
%TO.C,D2*%
X80300000Y-72850000D03*
X80300000Y-75750000D03*
%TD*%
D61*
%TO.C,C35*%
X76700000Y-59375000D03*
X76700000Y-57825000D03*
%TD*%
D62*
%TO.C,D1*%
X74950000Y-123775000D03*
X74950000Y-126925000D03*
%TD*%
D10*
%TO.C,D6*%
X83759400Y-61192600D03*
X80457400Y-61192600D03*
%TD*%
D24*
%TO.C,R44*%
X88141000Y-120608000D03*
X86491000Y-120608000D03*
%TD*%
%TO.C,R52*%
X91825000Y-118200000D03*
X90175000Y-118200000D03*
%TD*%
D38*
%TO.C,R25*%
X59948000Y-76189000D03*
X59948000Y-74539000D03*
%TD*%
D12*
%TO.C,R35*%
X72050000Y-68325000D03*
X72050000Y-69975000D03*
%TD*%
D27*
%TO.C,Q7*%
X90150000Y-121850000D03*
X90150000Y-123750000D03*
X92250000Y-122800000D03*
%TD*%
%TO.C,Q2*%
X84450000Y-81800000D03*
X84450000Y-83700000D03*
X86550000Y-82750000D03*
%TD*%
D63*
%TO.C,U9*%
X62250000Y-56275000D03*
D64*
X61750000Y-56225000D03*
X61250000Y-56225000D03*
X61250000Y-57375000D03*
X61750000Y-57375000D03*
X62250000Y-57375000D03*
%TD*%
D65*
%TO.C,U2*%
X80644000Y-120277500D03*
X81594000Y-120277500D03*
X82544000Y-120277500D03*
X82544000Y-118002500D03*
X81594000Y-118002500D03*
X80644000Y-118002500D03*
%TD*%
D12*
%TO.C,R46*%
X63800000Y-55775000D03*
X63800000Y-57425000D03*
%TD*%
D61*
%TO.C,C16*%
X91646001Y-71753001D03*
X91646001Y-70203001D03*
%TD*%
D24*
%TO.C,R22*%
X63099000Y-103492000D03*
X61449000Y-103492000D03*
%TD*%
D66*
%TO.C,D11*%
X63668000Y-100836000D03*
X66468000Y-100836000D03*
%TD*%
M02*
