%TF.GenerationSoftware,KiCad,Pcbnew,8.0.6*%
%TF.CreationDate,2024-11-28T22:24:40+00:00*%
%TF.ProjectId,StepUp,53746570-5570-42e6-9b69-6361645f7063,v0.1*%
%TF.SameCoordinates,Original*%
%TF.FileFunction,Profile,NP*%
%FSLAX46Y46*%
G04 Gerber Fmt 4.6, Leading zero omitted, Abs format (unit mm)*
G04 Created by KiCad (PCBNEW 8.0.6) date 2024-11-28 22:24:40*
%MOMM*%
%LPD*%
G01*
G04 APERTURE LIST*
%TA.AperFunction,Profile*%
%ADD10C,0.400000*%
%TD*%
%ADD11C,0.350000*%
%ADD12O,0.600000X1.700000*%
%ADD13O,0.600000X1.400000*%
%ADD14C,0.300000*%
G04 APERTURE END LIST*
D10*
X56411701Y-52461701D02*
X56411701Y-127738299D01*
X58761701Y-130088299D02*
X109038299Y-130088299D01*
X56411701Y-52461701D02*
G75*
G02*
X58761701Y-50111701I2349999J1D01*
G01*
X111388299Y-52461701D02*
X111388299Y-127738299D01*
X111388299Y-127738299D02*
G75*
G02*
X109038299Y-130088299I-2349999J-1D01*
G01*
X58761701Y-130088299D02*
G75*
G02*
X56411701Y-127738299I-1J2349999D01*
G01*
X58761701Y-50111701D02*
X109038299Y-50111701D01*
X109038299Y-50111701D02*
G75*
G02*
X111388299Y-52461701I1J-2349999D01*
G01*
D11*
X79168000Y-124025000D03*
X84948000Y-124025000D03*
D12*
X77738000Y-123525000D03*
D13*
X77738000Y-127705000D03*
D12*
X86378000Y-123525000D03*
D13*
X86378000Y-127705000D03*
D14*
X84730000Y-107774000D03*
X86005000Y-107774000D03*
X87280000Y-107774000D03*
X84730000Y-106499000D03*
X86005000Y-106499000D03*
X87280000Y-106499000D03*
X84730000Y-105224000D03*
X86005000Y-105224000D03*
X87280000Y-105224000D03*
X61761000Y-76530000D03*
X62711000Y-76530000D03*
X63661000Y-76530000D03*
X61761000Y-75530000D03*
X62711000Y-75530000D03*
X63661000Y-75530000D03*
D11*
X103650000Y-51750000D03*
X59411701Y-127088299D03*
X100000000Y-93350000D03*
X76450000Y-53100000D03*
X108388299Y-127088299D03*
X108400000Y-63700000D03*
X106005000Y-76100000D03*
X106005000Y-80600000D03*
X103515000Y-74845000D03*
X103515000Y-81855000D03*
X94300000Y-122700000D03*
X94300000Y-117700000D03*
X108000000Y-91000000D03*
X108000000Y-93500000D03*
X108000000Y-96000000D03*
X96770000Y-84770000D03*
X99270000Y-84770000D03*
X101770000Y-84770000D03*
X93520000Y-96750000D03*
X93520000Y-90250000D03*
X89020000Y-96750000D03*
X89020000Y-90250000D03*
X104270000Y-87175000D03*
X104270000Y-99825000D03*
X94270000Y-99825000D03*
X94270000Y-87175000D03*
X105500000Y-55100000D03*
X106770000Y-55100000D03*
X108040000Y-55100000D03*
X109310000Y-55100000D03*
X83300000Y-55950000D03*
X88300000Y-55950000D03*
X93300000Y-55950000D03*
X98300000Y-55950000D03*
X68698000Y-108720000D03*
X63618000Y-108720000D03*
X66158000Y-116340000D03*
X102700000Y-119340000D03*
X105240000Y-119340000D03*
X102700000Y-116800000D03*
X105240000Y-116800000D03*
X102700000Y-114260000D03*
X105240000Y-114260000D03*
X63618000Y-62720000D03*
X68698000Y-62720000D03*
X66158000Y-55100000D03*
X109100000Y-119350000D03*
X109100000Y-116810000D03*
X109100000Y-114270000D03*
X109100000Y-111730000D03*
X109100000Y-109190000D03*
X109100000Y-106650000D03*
X109100000Y-104110000D03*
X109100000Y-101570000D03*
M02*
