%TF.GenerationSoftware,KiCad,Pcbnew,8.0.6*%
%TF.CreationDate,2024-11-28T22:24:40+00:00*%
%TF.ProjectId,StepUp,53746570-5570-42e6-9b69-6361645f7063,v0.1*%
%TF.SameCoordinates,Original*%
%TF.FileFunction,Copper,L4,Bot*%
%TF.FilePolarity,Positive*%
%FSLAX46Y46*%
G04 Gerber Fmt 4.6, Leading zero omitted, Abs format (unit mm)*
G04 Created by KiCad (PCBNEW 8.0.6) date 2024-11-28 22:24:40*
%MOMM*%
%LPD*%
G01*
G04 APERTURE LIST*
G04 Aperture macros list*
%AMFreePoly0*
4,1,19,0.000000,0.744911,0.071157,0.744911,0.207708,0.704816,0.327430,0.627875,0.420627,0.520320,0.479746,0.390866,0.500000,0.250000,0.500000,-0.250000,0.479746,-0.390866,0.420627,-0.520320,0.327430,-0.627875,0.207708,-0.704816,0.071157,-0.744911,0.000000,-0.744911,0.000000,-0.750000,-0.500000,-0.750000,-0.500000,0.750000,0.000000,0.750000,0.000000,0.744911,0.000000,0.744911,
$1*%
%AMFreePoly1*
4,1,19,0.500000,-0.750000,0.000000,-0.750000,0.000000,-0.744911,-0.071157,-0.744911,-0.207708,-0.704816,-0.327430,-0.627875,-0.420627,-0.520320,-0.479746,-0.390866,-0.500000,-0.250000,-0.500000,0.250000,-0.479746,0.390866,-0.420627,0.520320,-0.327430,0.627875,-0.207708,0.704816,-0.071157,0.744911,0.000000,0.744911,0.000000,0.750000,0.500000,0.750000,0.500000,-0.750000,0.500000,-0.750000,
$1*%
%AMFreePoly2*
4,1,19,0.550000,-0.750000,0.000000,-0.750000,0.000000,-0.744911,-0.071157,-0.744911,-0.207708,-0.704816,-0.327430,-0.627875,-0.420627,-0.520320,-0.479746,-0.390866,-0.500000,-0.250000,-0.500000,0.250000,-0.479746,0.390866,-0.420627,0.520320,-0.327430,0.627875,-0.207708,0.704816,-0.071157,0.744911,0.000000,0.744911,0.000000,0.750000,0.550000,0.750000,0.550000,-0.750000,0.550000,-0.750000,
$1*%
%AMFreePoly3*
4,1,19,0.000000,0.744911,0.071157,0.744911,0.207708,0.704816,0.327430,0.627875,0.420627,0.520320,0.479746,0.390866,0.500000,0.250000,0.500000,-0.250000,0.479746,-0.390866,0.420627,-0.520320,0.327430,-0.627875,0.207708,-0.704816,0.071157,-0.744911,0.000000,-0.744911,0.000000,-0.750000,-0.550000,-0.750000,-0.550000,0.750000,0.000000,0.750000,0.000000,0.744911,0.000000,0.744911,
$1*%
G04 Aperture macros list end*
%TA.AperFunction,EtchedComponent*%
%ADD10C,0.000000*%
%TD*%
%TA.AperFunction,ComponentPad*%
%ADD11O,1.000000X2.100000*%
%TD*%
%TA.AperFunction,ComponentPad*%
%ADD12O,1.000000X1.800000*%
%TD*%
%TA.AperFunction,ComponentPad*%
%ADD13C,0.600000*%
%TD*%
%TA.AperFunction,HeatsinkPad*%
%ADD14C,0.600000*%
%TD*%
%TA.AperFunction,HeatsinkPad*%
%ADD15R,2.500000X1.600000*%
%TD*%
%TA.AperFunction,ComponentPad*%
%ADD16C,1.550000*%
%TD*%
%TA.AperFunction,ComponentPad*%
%ADD17C,2.000000*%
%TD*%
%TA.AperFunction,ComponentPad*%
%ADD18C,1.350000*%
%TD*%
%TA.AperFunction,ComponentPad*%
%ADD19C,1.650000*%
%TD*%
%TA.AperFunction,ComponentPad*%
%ADD20C,1.950000*%
%TD*%
%TA.AperFunction,ComponentPad*%
%ADD21C,2.400000*%
%TD*%
%TA.AperFunction,ComponentPad*%
%ADD22R,1.070000X1.800000*%
%TD*%
%TA.AperFunction,ComponentPad*%
%ADD23O,1.070000X1.800000*%
%TD*%
%TA.AperFunction,ComponentPad*%
%ADD24R,2.745000X2.745000*%
%TD*%
%TA.AperFunction,ComponentPad*%
%ADD25C,2.745000*%
%TD*%
%TA.AperFunction,SMDPad,CuDef*%
%ADD26FreePoly0,0.000000*%
%TD*%
%TA.AperFunction,SMDPad,CuDef*%
%ADD27FreePoly1,0.000000*%
%TD*%
%TA.AperFunction,ComponentPad*%
%ADD28R,1.700000X1.700000*%
%TD*%
%TA.AperFunction,ComponentPad*%
%ADD29O,1.700000X1.700000*%
%TD*%
%TA.AperFunction,SMDPad,CuDef*%
%ADD30FreePoly2,180.000000*%
%TD*%
%TA.AperFunction,SMDPad,CuDef*%
%ADD31R,1.000000X1.500000*%
%TD*%
%TA.AperFunction,SMDPad,CuDef*%
%ADD32FreePoly3,180.000000*%
%TD*%
%TA.AperFunction,ViaPad*%
%ADD33C,0.610000*%
%TD*%
%TA.AperFunction,ViaPad*%
%ADD34C,0.457200*%
%TD*%
%TA.AperFunction,Conductor*%
%ADD35C,0.203200*%
%TD*%
%TA.AperFunction,Conductor*%
%ADD36C,0.762000*%
%TD*%
%TA.AperFunction,Conductor*%
%ADD37C,0.152400*%
%TD*%
%TA.AperFunction,Conductor*%
%ADD38C,0.304800*%
%TD*%
%TA.AperFunction,Conductor*%
%ADD39C,0.254000*%
%TD*%
%ADD40C,0.300000*%
%ADD41C,0.254000*%
%ADD42C,0.350000*%
%ADD43O,0.600000X1.700000*%
%ADD44O,0.600000X1.400000*%
G04 APERTURE END LIST*
D10*
%TA.AperFunction,EtchedComponent*%
%TO.C,JP1*%
G36*
X72550000Y-100700000D02*
G01*
X72050000Y-100700000D01*
X72050000Y-100300000D01*
X72550000Y-100300000D01*
X72550000Y-100700000D01*
G37*
%TD.AperFunction*%
%TA.AperFunction,EtchedComponent*%
G36*
X72550000Y-101500000D02*
G01*
X72050000Y-101500000D01*
X72050000Y-101100000D01*
X72550000Y-101100000D01*
X72550000Y-101500000D01*
G37*
%TD.AperFunction*%
%TA.AperFunction,EtchedComponent*%
%TO.C,JP2*%
G36*
X98300000Y-112500000D02*
G01*
X97800000Y-112500000D01*
X97800000Y-111900000D01*
X98300000Y-111900000D01*
X98300000Y-112500000D01*
G37*
%TD.AperFunction*%
%TD*%
D11*
%TO.P,J1,S1,SHIELD*%
%TO.N,GND*%
X77738000Y-123525000D03*
D12*
X77738000Y-127705000D03*
D11*
X86378000Y-123525000D03*
D12*
X86378000Y-127705000D03*
%TD*%
D13*
%TO.P,U3,57,GND*%
%TO.N,GND*%
X84730000Y-107774000D03*
X86005000Y-107774000D03*
X87280000Y-107774000D03*
X84730000Y-106499000D03*
X86005000Y-106499000D03*
X87280000Y-106499000D03*
X84730000Y-105224000D03*
X86005000Y-105224000D03*
X87280000Y-105224000D03*
%TD*%
D14*
%TO.P,U7,13,PGND*%
%TO.N,GND*%
X61761000Y-76530000D03*
X62711000Y-76530000D03*
X63661000Y-76530000D03*
D15*
X62711000Y-76030000D03*
D14*
X61761000Y-75530000D03*
X62711000Y-75530000D03*
X63661000Y-75530000D03*
%TD*%
D16*
%TO.P,SW3,1*%
%TO.N,GND*%
X106005000Y-76100000D03*
%TO.P,SW3,2*%
%TO.N,Net-(D13-Pad3)*%
X106005000Y-80600000D03*
D17*
%TO.P,SW3,3*%
%TO.N,N/C*%
X103515000Y-74845000D03*
%TO.P,SW3,4*%
X103515000Y-81855000D03*
%TD*%
D18*
%TO.P,BZ1,1,1*%
%TO.N,Net-(Q7-D)*%
X94300000Y-122700000D03*
%TO.P,BZ1,2,2*%
%TO.N,Net-(JP2-C)*%
X94300000Y-117700000D03*
%TD*%
D19*
%TO.P,JOY1,1,1*%
%TO.N,+3V3*%
X108000000Y-91000000D03*
%TO.P,JOY1,2,2*%
%TO.N,JOY_AXIS_MCU_H*%
X108000000Y-93500000D03*
%TO.P,JOY1,3,3*%
%TO.N,GND*%
X108000000Y-96000000D03*
%TO.P,JOY1,11,1'*%
%TO.N,+3V3*%
X96770000Y-84770000D03*
%TO.P,JOY1,12,2'*%
%TO.N,JOY_AXIS_MCU_V*%
X99270000Y-84770000D03*
%TO.P,JOY1,13,3'*%
%TO.N,GND*%
X101770000Y-84770000D03*
D20*
%TO.P,JOY1,A1,COM_1*%
%TO.N,JOY_MCU_BTN*%
X93520000Y-96750000D03*
%TO.P,JOY1,B1,COM_2*%
X93520000Y-90250000D03*
%TO.P,JOY1,C1,NO_1*%
%TO.N,GND*%
X89020000Y-96750000D03*
%TO.P,JOY1,D1,NO_2*%
X89020000Y-90250000D03*
D21*
%TO.P,JOY1,MH1,MH1*%
%TO.N,unconnected-(JOY1-PadMH1)*%
X104270000Y-87175000D03*
%TO.P,JOY1,MH2,MH2*%
%TO.N,unconnected-(JOY1-PadMH2)*%
X104270000Y-99825000D03*
%TO.P,JOY1,MH3,MH3*%
%TO.N,unconnected-(JOY1-PadMH3)*%
X94270000Y-99825000D03*
%TO.P,JOY1,MH4,MH4*%
%TO.N,unconnected-(JOY1-PadMH4)*%
X94270000Y-87175000D03*
%TD*%
D22*
%TO.P,D14,1,A*%
%TO.N,+3V3*%
X105500000Y-55100000D03*
D23*
%TO.P,D14,2,RK*%
%TO.N,Net-(D14-RK)*%
X106770000Y-55100000D03*
%TO.P,D14,3,GK*%
%TO.N,Net-(D14-GK)*%
X108040000Y-55100000D03*
%TO.P,D14,4,BK*%
%TO.N,Net-(D14-BK)*%
X109310000Y-55100000D03*
%TD*%
D21*
%TO.P,J4,1,1*%
%TO.N,/Motor Driver/OA2_OUT*%
X83300000Y-55950000D03*
%TO.P,J4,2,2*%
%TO.N,/Motor Driver/OA1_OUT*%
X88300000Y-55950000D03*
%TO.P,J4,3,3*%
%TO.N,/Motor Driver/OB1_OUT*%
X93300000Y-55950000D03*
%TO.P,J4,4,4*%
%TO.N,/Motor Driver/OB2_OUT*%
X98300000Y-55950000D03*
%TD*%
D24*
%TO.P,BT2,1,1*%
%TO.N,/Power/VBAT_PACK_NEG*%
X68698000Y-108720000D03*
D25*
%TO.P,BT2,2,2*%
X63618000Y-108720000D03*
%TO.P,BT2,3,3*%
X66158000Y-116340000D03*
%TD*%
D26*
%TO.P,JP1,2,B*%
%TO.N,V_USB*%
X72950000Y-100900000D03*
D27*
%TO.P,JP1,1,A*%
%TO.N,Net-(D11-A)*%
X71650000Y-100900000D03*
%TD*%
D28*
%TO.P,J2,1,Pin_1*%
%TO.N,/MCU/SWCLK*%
X102700000Y-119340000D03*
D29*
%TO.P,J2,2,Pin_2*%
%TO.N,/MCU/UART_0_TX*%
X105240000Y-119340000D03*
%TO.P,J2,3,Pin_3*%
%TO.N,/MCU/SWD*%
X102700000Y-116800000D03*
%TO.P,J2,4,Pin_4*%
%TO.N,/MCU/UART_0_RX*%
X105240000Y-116800000D03*
%TO.P,J2,5,Pin_5*%
%TO.N,GND*%
X102700000Y-114260000D03*
%TO.P,J2,6,Pin_6*%
X105240000Y-114260000D03*
%TD*%
D30*
%TO.P,JP2,1,A*%
%TO.N,+3V3*%
X98700000Y-112200000D03*
D31*
%TO.P,JP2,2,C*%
%TO.N,Net-(JP2-C)*%
X97400000Y-112200000D03*
D32*
%TO.P,JP2,3,B*%
%TO.N,VMotor*%
X96100000Y-112200000D03*
%TD*%
D24*
%TO.P,BT1,1,1*%
%TO.N,/Power/VBAT_PACK_POS*%
X63618000Y-62720000D03*
D25*
%TO.P,BT1,2,2*%
X68698000Y-62720000D03*
%TO.P,BT1,3,3*%
X66158000Y-55100000D03*
%TD*%
D28*
%TO.P,J3,1,Pin_1*%
%TO.N,/MCU/GPIO2*%
X109100000Y-119350000D03*
D29*
%TO.P,J3,2,Pin_2*%
%TO.N,/MCU/GPIO9*%
X109100000Y-116810000D03*
%TO.P,J3,3,Pin_3*%
%TO.N,/MCU/GPIO10*%
X109100000Y-114270000D03*
%TO.P,J3,4,Pin_4*%
%TO.N,/MCU/GPIO11*%
X109100000Y-111730000D03*
%TO.P,J3,5,Pin_5*%
%TO.N,/MCU/GPIO12*%
X109100000Y-109190000D03*
%TO.P,J3,6,Pin_6*%
%TO.N,/MCU/GPIO13*%
X109100000Y-106650000D03*
%TO.P,J3,7,Pin_7*%
%TO.N,/MCU/GPIO14*%
X109100000Y-104110000D03*
%TO.P,J3,8,Pin_8*%
%TO.N,/MCU/GPIO15*%
X109100000Y-101570000D03*
%TD*%
D33*
%TO.N,GND*%
X95050000Y-83175000D03*
X94275000Y-83200000D03*
%TO.N,+3V3*%
X86675000Y-88850000D03*
%TO.N,GND*%
X77450000Y-110050000D03*
X81025000Y-111200000D03*
X88175000Y-112725000D03*
X78600000Y-117550000D03*
X84450000Y-117800000D03*
X85475000Y-118700000D03*
X85525000Y-117425000D03*
X91700000Y-75350000D03*
X91700000Y-76550000D03*
X90500000Y-76550000D03*
X90500000Y-75350000D03*
X91100000Y-75950000D03*
X96000000Y-78300000D03*
X96000000Y-77400000D03*
%TO.N,/Motor Driver/TMC_VCC_IO*%
X92850000Y-77950000D03*
X91500000Y-78800000D03*
%TO.N,GND*%
X83900000Y-78600000D03*
X83900000Y-79900000D03*
X84800000Y-84500000D03*
X85600000Y-84200000D03*
%TO.N,VMotor*%
X87300000Y-77300000D03*
X90900000Y-65000000D03*
X80457400Y-65100000D03*
%TO.N,GND*%
X90400000Y-69600000D03*
X91700000Y-69100000D03*
X89600000Y-65600000D03*
X92500000Y-65600000D03*
X80300000Y-77100000D03*
X64600000Y-78500000D03*
X65500000Y-78600000D03*
X67200000Y-81100000D03*
X61200000Y-84000000D03*
X60300000Y-84000000D03*
X59100000Y-67500000D03*
X59100000Y-69400000D03*
X60000000Y-70900000D03*
X60000000Y-72000000D03*
%TO.N,+3V3*%
X70900000Y-68300000D03*
X71100000Y-94700000D03*
%TO.N,GND*%
X107100000Y-87900000D03*
X98000000Y-89100000D03*
X87000000Y-98700000D03*
X93000000Y-104200000D03*
X97500000Y-103200000D03*
X98700000Y-104600000D03*
X95200000Y-108200000D03*
X96200000Y-108200000D03*
X81900000Y-99600000D03*
X82700000Y-99600000D03*
X78100000Y-102600000D03*
X78100000Y-103500000D03*
X77100000Y-107600000D03*
X77100000Y-106600000D03*
D34*
%TO.N,+3V3*%
X74800000Y-111900000D03*
X80400000Y-112000000D03*
D33*
%TO.N,MCU_PWR_CTRL*%
X74800000Y-70200000D03*
X75900000Y-106600000D03*
%TO.N,GND*%
X108193213Y-124255000D03*
X108193213Y-84255000D03*
X108193213Y-80255000D03*
X108193213Y-68255000D03*
X108193213Y-60255000D03*
X108193213Y-52255000D03*
X104193213Y-128255000D03*
X104193213Y-124255000D03*
X104193213Y-92255000D03*
X100193213Y-128255000D03*
X100193213Y-124255000D03*
X100193213Y-100255000D03*
X100193213Y-80255000D03*
X100193213Y-52255000D03*
X96193213Y-128255000D03*
X96193213Y-124255000D03*
X96193213Y-52255000D03*
X92193213Y-124255000D03*
X92193213Y-52255000D03*
X88193213Y-92255000D03*
X88193213Y-80255000D03*
X88193213Y-52255000D03*
X84193213Y-128255000D03*
X84193213Y-52255000D03*
X80193213Y-128255000D03*
X80193213Y-56255000D03*
X80193213Y-52255000D03*
X76193213Y-128255000D03*
X76193213Y-100255000D03*
X76193213Y-88255000D03*
X76193213Y-84255000D03*
X76193213Y-72255000D03*
X76193213Y-56255000D03*
X72193213Y-96255000D03*
X72193213Y-84255000D03*
X72193213Y-56255000D03*
X72193213Y-52255000D03*
X68193213Y-128255000D03*
X68193213Y-124255000D03*
X68193213Y-84255000D03*
X64193213Y-124255000D03*
X60193213Y-124255000D03*
%TO.N,MCU_LED_STATUS_3*%
X103308918Y-115600000D03*
X103900000Y-105600000D03*
%TO.N,MCU_LED_STATUS_2*%
X101300000Y-116500000D03*
X103000000Y-106700000D03*
%TO.N,MCU_LED_STATUS_1*%
X100500000Y-115900000D03*
X102300000Y-107600000D03*
D34*
%TO.N,Net-(D11-A)*%
X71300000Y-102800000D03*
%TO.N,V_USB*%
X74600000Y-101400000D03*
%TO.N,+3V3*%
X99250000Y-86950000D03*
D33*
%TO.N,GND*%
X90425713Y-107632600D03*
D34*
%TO.N,/Power/VBAT_PACK_NEG*%
X61550000Y-60350000D03*
D33*
X60570000Y-60350000D03*
X69350000Y-56200000D03*
%TO.N,+3V3*%
X81000000Y-101600000D03*
X80400000Y-101000000D03*
X105800000Y-101800000D03*
%TO.N,+1V1*%
X83900000Y-105700000D03*
X80242433Y-106909800D03*
X88100000Y-105900000D03*
X90800000Y-105500000D03*
%TO.N,/MCU/~{USB_BOOT}*%
X80500000Y-113300000D03*
X79800000Y-125066400D03*
%TO.N,/MCU/SWCLK*%
X91300000Y-104000000D03*
X89800000Y-115600000D03*
%TO.N,/MCU/RUN*%
X92609636Y-103197343D03*
X87200000Y-126300000D03*
%TO.N,/MCU/SWD*%
X91874662Y-103400000D03*
X91600000Y-112533600D03*
%TO.N,Vbat*%
X70100000Y-104800000D03*
X70300000Y-86700000D03*
X71300000Y-64566400D03*
%TO.N,VMotor*%
X91200000Y-72900000D03*
X81876685Y-72853697D03*
X90500000Y-72300000D03*
X99600000Y-107000000D03*
X100100000Y-72900000D03*
D34*
%TO.N,TMC_EN*%
X90600000Y-78700000D03*
X92800000Y-79800000D03*
D33*
%TO.N,TMC_DIR*%
X83000000Y-92900000D03*
X81500000Y-92900000D03*
%TO.N,TMC_UART_RX*%
X96100000Y-95000000D03*
X85100000Y-97200000D03*
%TO.N,TMC_UART_TX*%
X85693294Y-102002915D03*
X91427313Y-100127313D03*
%TO.N,TMC_DIAG*%
X93100000Y-85600000D03*
X93453262Y-76805290D03*
%TO.N,Net-(D13-Pad3)*%
X107700000Y-71700000D03*
X78300000Y-68500000D03*
%TO.N,MCU_BOOST_EN*%
X59500000Y-72900000D03*
X82400000Y-98500000D03*
X59600000Y-88700000D03*
X89308365Y-101108365D03*
%TO.N,VBAT_MONITOR*%
X80800000Y-93700000D03*
X78900000Y-93700000D03*
%TO.N,VUSB_MONITOR*%
X86900000Y-116100000D03*
X85800000Y-113422687D03*
D34*
%TO.N,/Motor Driver/BRA*%
X86400000Y-75700000D03*
X89400000Y-73800000D03*
X89700000Y-74300000D03*
X90000000Y-73900000D03*
X86600000Y-76200000D03*
X86900000Y-75700000D03*
X86700000Y-75200000D03*
%TO.N,/Motor Driver/BRB*%
X92400000Y-74400000D03*
X95700000Y-75700000D03*
X92200000Y-73900000D03*
X95500000Y-76200000D03*
X95200000Y-75700000D03*
X95500000Y-75200000D03*
X92700000Y-73800000D03*
D33*
%TO.N,BUZZER*%
X91800000Y-116800000D03*
X93300000Y-102700000D03*
%TO.N,JOY_AXIS_MCU_H*%
X106100000Y-96500000D03*
X83522687Y-98777313D03*
%TO.N,JOY_AXIS_MCU_V*%
X80800000Y-96100000D03*
X97900000Y-90900000D03*
%TO.N,Net-(U7-OVP)*%
X66067000Y-83700000D03*
D34*
X64000000Y-73300000D03*
D33*
%TO.N,/MCU/GPIO2*%
X100000000Y-116900000D03*
%TO.N,MCU_PWR_BTN*%
X100100000Y-113300000D03*
X75900000Y-69500000D03*
X101500000Y-107300000D03*
X101600000Y-72900000D03*
%TO.N,MCU_PWR_CTRL*%
X85300000Y-116500000D03*
X86519300Y-111919300D03*
%TD*%
D35*
%TO.N,+3V3*%
X97350000Y-88850000D02*
X86675000Y-88850000D01*
X99250000Y-86950000D02*
X97350000Y-88850000D01*
%TO.N,/Motor Driver/TMC_VCC_IO*%
X92000000Y-78800000D02*
X92850000Y-77950000D01*
X91500000Y-78800000D02*
X92000000Y-78800000D01*
%TO.N,VMotor*%
X86500000Y-77300000D02*
X87300000Y-77300000D01*
X84400000Y-75200000D02*
X86500000Y-77300000D01*
X84400000Y-72853697D02*
X84400000Y-75200000D01*
D36*
X84400000Y-72853697D02*
X81876685Y-72853697D01*
X90500000Y-72853697D02*
X84400000Y-72853697D01*
X90661600Y-64761600D02*
X80795800Y-64761600D01*
X90900000Y-65000000D02*
X90661600Y-64761600D01*
X80795800Y-64761600D02*
X80457400Y-65100000D01*
D37*
%TO.N,MCU_PWR_BTN*%
X79000000Y-69400000D02*
X76000000Y-69400000D01*
X80000000Y-68400000D02*
X79000000Y-69400000D01*
X76000000Y-69400000D02*
X75900000Y-69500000D01*
X98600000Y-68400000D02*
X80000000Y-68400000D01*
X101600000Y-72900000D02*
X101600000Y-71400000D01*
X101600000Y-71400000D02*
X98600000Y-68400000D01*
%TO.N,Net-(D13-Pad3)*%
X78800000Y-68000000D02*
X104000000Y-68000000D01*
X104000000Y-68000000D02*
X107700000Y-71700000D01*
X78300000Y-68500000D02*
X78800000Y-68000000D01*
%TO.N,+3V3*%
X69500000Y-69700000D02*
X70900000Y-68300000D01*
X69500000Y-89700000D02*
X69500000Y-69700000D01*
X71100000Y-91300000D02*
X69500000Y-89700000D01*
X71100000Y-94700000D02*
X71100000Y-91300000D01*
%TO.N,Vbat*%
X70300000Y-104600000D02*
X70100000Y-104800000D01*
X72200000Y-95300000D02*
X70300000Y-97200000D01*
X72200000Y-91100000D02*
X72200000Y-95300000D01*
X70300000Y-89200000D02*
X72200000Y-91100000D01*
X70300000Y-86700000D02*
X70300000Y-89200000D01*
X70300000Y-97200000D02*
X70300000Y-104600000D01*
X72900000Y-84302838D02*
X70502838Y-86700000D01*
X70502838Y-86700000D02*
X70300000Y-86700000D01*
X72900000Y-66166400D02*
X72900000Y-84302838D01*
X71300000Y-64566400D02*
X72900000Y-66166400D01*
%TO.N,BUZZER*%
X93600000Y-115000000D02*
X91800000Y-116800000D01*
X93600000Y-103000000D02*
X93600000Y-115000000D01*
X93300000Y-102700000D02*
X93600000Y-103000000D01*
%TO.N,MCU_BOOST_EN*%
X85308365Y-101108365D02*
X89308365Y-101108365D01*
X83510913Y-99310913D02*
X85308365Y-101108365D01*
X83210913Y-99310913D02*
X83510913Y-99310913D01*
X82400000Y-98500000D02*
X83210913Y-99310913D01*
%TO.N,+3V3*%
X78400000Y-108300000D02*
X74800000Y-111900000D01*
X79500000Y-108300000D02*
X78400000Y-108300000D01*
X79500000Y-108300000D02*
X79500000Y-111100000D01*
X79500000Y-105100000D02*
X79500000Y-108300000D01*
X79500000Y-111100000D02*
X80400000Y-112000000D01*
X81100000Y-101700000D02*
X81100000Y-103500000D01*
X81100000Y-103500000D02*
X79500000Y-105100000D01*
X81000000Y-101600000D02*
X81100000Y-101700000D01*
%TO.N,/MCU/~{USB_BOOT}*%
X80300000Y-113500000D02*
X80300000Y-124566400D01*
X80500000Y-113300000D02*
X80300000Y-113500000D01*
X80300000Y-124566400D02*
X79800000Y-125066400D01*
%TO.N,MCU_PWR_CTRL*%
X75659613Y-71059613D02*
X74800000Y-70200000D01*
X75659613Y-103859613D02*
X75659613Y-71059613D01*
X75900000Y-104100000D02*
X75659613Y-103859613D01*
X75900000Y-106600000D02*
X75900000Y-104100000D01*
%TO.N,MCU_LED_STATUS_3*%
X103900000Y-114900000D02*
X103900000Y-105600000D01*
X103308918Y-115491082D02*
X103900000Y-114900000D01*
X103308918Y-115600000D02*
X103308918Y-115491082D01*
%TO.N,MCU_LED_STATUS_1*%
X100800000Y-115600000D02*
X100500000Y-115900000D01*
X102300000Y-109900000D02*
X100800000Y-111400000D01*
X102300000Y-107600000D02*
X102300000Y-109900000D01*
X100800000Y-111400000D02*
X100800000Y-115600000D01*
%TO.N,/MCU/SWD*%
X91900000Y-112233600D02*
X91900000Y-103425338D01*
X91600000Y-112533600D02*
X91900000Y-112233600D01*
X91900000Y-103425338D02*
X91874662Y-103400000D01*
%TO.N,MCU_PWR_CTRL*%
X85266400Y-116266400D02*
X85300000Y-116300000D01*
X85266400Y-113172200D02*
X85266400Y-116266400D01*
X86519300Y-111919300D02*
X85266400Y-113172200D01*
X85300000Y-116300000D02*
X85300000Y-116500000D01*
%TO.N,MCU_PWR_BTN*%
X100100000Y-111000000D02*
X101500000Y-109600000D01*
X101500000Y-109600000D02*
X101500000Y-107300000D01*
X100100000Y-113300000D02*
X100100000Y-111000000D01*
%TO.N,MCU_LED_STATUS_2*%
X101300000Y-111900000D02*
X101300000Y-116500000D01*
X103000000Y-106700000D02*
X103000000Y-110200000D01*
X103000000Y-110200000D02*
X101600000Y-111600000D01*
X101600000Y-111600000D02*
X101300000Y-111900000D01*
%TO.N,VUSB_MONITOR*%
X85800000Y-113422687D02*
X86900000Y-114522687D01*
X86900000Y-114522687D02*
X86900000Y-116100000D01*
%TO.N,Net-(D11-A)*%
X71650000Y-102450000D02*
X71300000Y-102800000D01*
X71650000Y-100900000D02*
X71650000Y-102450000D01*
%TO.N,V_USB*%
X74100000Y-100900000D02*
X72950000Y-100900000D01*
X74600000Y-101400000D02*
X74100000Y-100900000D01*
D36*
%TO.N,+3V3*%
X99250000Y-86950000D02*
X103300000Y-91000000D01*
X103300000Y-91000000D02*
X108000000Y-91000000D01*
%TO.N,/Power/VBAT_PACK_NEG*%
X66158000Y-116340000D02*
X57750000Y-107932000D01*
X60250000Y-60350000D02*
X60570000Y-60350000D01*
X57750000Y-62850000D02*
X60250000Y-60350000D01*
X57750000Y-107932000D02*
X57750000Y-62850000D01*
D38*
X65200000Y-60350000D02*
X69350000Y-56200000D01*
X61550000Y-60350000D02*
X65200000Y-60350000D01*
D36*
%TO.N,+3V3*%
X82241315Y-102841315D02*
X90358685Y-102841315D01*
D35*
X100900000Y-101800000D02*
X100500000Y-102200000D01*
D36*
X105800000Y-101800000D02*
X105900000Y-101800000D01*
D35*
X100500000Y-109300000D02*
X98700000Y-111100000D01*
D36*
X100900000Y-101800000D02*
X105800000Y-101800000D01*
X91400000Y-101800000D02*
X98700000Y-101800000D01*
X80400000Y-101000000D02*
X81000000Y-101600000D01*
D35*
X100500000Y-102200000D02*
X100500000Y-109300000D01*
D36*
X98700000Y-101800000D02*
X100900000Y-101800000D01*
D35*
X98700000Y-111100000D02*
X98700000Y-112200000D01*
D36*
X81000000Y-101600000D02*
X82241315Y-102841315D01*
X90358685Y-102841315D02*
X91400000Y-101800000D01*
D38*
%TO.N,+1V1*%
X88100000Y-105900000D02*
X90400000Y-105900000D01*
X80242433Y-106909800D02*
X82690200Y-106909800D01*
X82690200Y-106909800D02*
X83900000Y-105700000D01*
X90400000Y-105900000D02*
X90800000Y-105500000D01*
D37*
%TO.N,/MCU/SWCLK*%
X89892113Y-115507887D02*
X89800000Y-115600000D01*
X91300000Y-104000000D02*
X91333600Y-104033600D01*
X91333600Y-104033600D02*
X91333600Y-111066400D01*
X89800000Y-112600000D02*
X89800000Y-115600000D01*
X91333600Y-111066400D02*
X89800000Y-112600000D01*
D39*
%TO.N,Net-(JP2-C)*%
X97400000Y-114600000D02*
X94300000Y-117700000D01*
X97400000Y-112200000D02*
X97400000Y-114600000D01*
D37*
%TO.N,/MCU/RUN*%
X88900000Y-117900000D02*
X88900000Y-124600000D01*
X92408262Y-103398717D02*
X92408262Y-114391738D01*
X92609636Y-103197343D02*
X92408262Y-103398717D01*
X92408262Y-114391738D02*
X88900000Y-117900000D01*
X88900000Y-124600000D02*
X87200000Y-126300000D01*
D36*
%TO.N,VMotor*%
X91200000Y-72900000D02*
X91153697Y-72853697D01*
X91200000Y-72900000D02*
X100100000Y-72900000D01*
D35*
X96700000Y-110000000D02*
X96100000Y-110600000D01*
X96100000Y-110600000D02*
X96100000Y-112200000D01*
X99600000Y-107000000D02*
X99600000Y-108000000D01*
D36*
X90500000Y-72300000D02*
X90500000Y-72853697D01*
X91153697Y-72853697D02*
X90500000Y-72853697D01*
D35*
X99600000Y-108000000D02*
X97600000Y-110000000D01*
X97600000Y-110000000D02*
X96700000Y-110000000D01*
D37*
%TO.N,TMC_EN*%
X91700000Y-79800000D02*
X90600000Y-78700000D01*
X92800000Y-79800000D02*
X91700000Y-79800000D01*
%TO.N,TMC_DIR*%
X81500000Y-92900000D02*
X83000000Y-92900000D01*
%TO.N,TMC_UART_RX*%
X85500000Y-97200000D02*
X87700000Y-95000000D01*
X87700000Y-95000000D02*
X96100000Y-95000000D01*
X85100000Y-97200000D02*
X85500000Y-97200000D01*
%TO.N,TMC_UART_TX*%
X91427313Y-100127313D02*
X91372687Y-100127313D01*
X85896209Y-101800000D02*
X85693294Y-102002915D01*
X89700000Y-101800000D02*
X85896209Y-101800000D01*
X91372687Y-100127313D02*
X89700000Y-101800000D01*
%TO.N,TMC_DIAG*%
X93100000Y-85600000D02*
X93453262Y-85246738D01*
X93453262Y-85246738D02*
X93453262Y-76805290D01*
%TO.N,MCU_BOOST_EN*%
X59500000Y-72900000D02*
X59500000Y-73300000D01*
X59600000Y-88500000D02*
X59600000Y-88700000D01*
X59600000Y-73400000D02*
X59600000Y-88500000D01*
X59500000Y-73300000D02*
X59600000Y-73400000D01*
%TO.N,VBAT_MONITOR*%
X80800000Y-93700000D02*
X78900000Y-93700000D01*
%TO.N,JOY_AXIS_MCU_H*%
X84250000Y-98777313D02*
X83522687Y-98777313D01*
X98800000Y-98200000D02*
X91700000Y-98200000D01*
X106100000Y-96500000D02*
X100500000Y-96500000D01*
X90000000Y-99900000D02*
X85372687Y-99900000D01*
X85372687Y-99900000D02*
X84250000Y-98777313D01*
X91700000Y-98200000D02*
X90000000Y-99900000D01*
X100500000Y-96500000D02*
X98800000Y-98200000D01*
%TO.N,JOY_AXIS_MCU_V*%
X97900000Y-90900000D02*
X95366400Y-93433600D01*
X95366400Y-93433600D02*
X83466400Y-93433600D01*
X83466400Y-93433600D02*
X80800000Y-96100000D01*
%TO.N,Net-(U7-OVP)*%
X64000000Y-73300000D02*
X64000000Y-73400000D01*
X66067000Y-75467000D02*
X66067000Y-83700000D01*
X64000000Y-73400000D02*
X66067000Y-75467000D01*
%TO.N,/MCU/GPIO2*%
X106450000Y-122000000D02*
X109100000Y-119350000D01*
X100000000Y-120300000D02*
X101700000Y-122000000D01*
X101700000Y-122000000D02*
X106450000Y-122000000D01*
X100000000Y-116900000D02*
X100000000Y-120300000D01*
%TD*%
%TA.AperFunction,Conductor*%
%TO.N,/Power/VBAT_PACK_NEG*%
G36*
X70115677Y-106769685D02*
G01*
X70136319Y-106786319D01*
X70813681Y-107463681D01*
X70847166Y-107525004D01*
X70850000Y-107551362D01*
X70850000Y-110098638D01*
X70830315Y-110165677D01*
X70813681Y-110186319D01*
X70086319Y-110913681D01*
X70024996Y-110947166D01*
X69998638Y-110950000D01*
X68350000Y-110950000D01*
X67650000Y-111599999D01*
X67650000Y-117398638D01*
X67630315Y-117465677D01*
X67613681Y-117486319D01*
X67286319Y-117813681D01*
X67224996Y-117847166D01*
X67198638Y-117850000D01*
X65201362Y-117850000D01*
X65134323Y-117830315D01*
X65113681Y-117813681D01*
X64786319Y-117486319D01*
X64752834Y-117424996D01*
X64750000Y-117398638D01*
X64750000Y-111600000D01*
X64100000Y-110950000D01*
X62901362Y-110950000D01*
X62834323Y-110930315D01*
X62813681Y-110913681D01*
X61986319Y-110086319D01*
X61952834Y-110024996D01*
X61950000Y-109998638D01*
X61950000Y-107401362D01*
X61969685Y-107334323D01*
X61986319Y-107313681D01*
X62513681Y-106786319D01*
X62575004Y-106752834D01*
X62601362Y-106750000D01*
X70048638Y-106750000D01*
X70115677Y-106769685D01*
G37*
%TD.AperFunction*%
%TD*%
%TA.AperFunction,Conductor*%
%TO.N,GND*%
G36*
X103242634Y-110875457D02*
G01*
X103298567Y-110917329D01*
X103322984Y-110982793D01*
X103323300Y-110991639D01*
X103323300Y-114609759D01*
X103303615Y-114676798D01*
X103286981Y-114697441D01*
X103211236Y-114773185D01*
X103149912Y-114806669D01*
X103137446Y-114808722D01*
X103128548Y-114809725D01*
X103128545Y-114809725D01*
X102957213Y-114869676D01*
X102803519Y-114966249D01*
X102675167Y-115094601D01*
X102578594Y-115248295D01*
X102528386Y-115391784D01*
X102487664Y-115448560D01*
X102443437Y-115470605D01*
X102236344Y-115526094D01*
X102236335Y-115526098D01*
X102053105Y-115611540D01*
X101984027Y-115622032D01*
X101920243Y-115593512D01*
X101882004Y-115535036D01*
X101876700Y-115499158D01*
X101876700Y-112190239D01*
X101896385Y-112123200D01*
X101913019Y-112102558D01*
X103111619Y-110903958D01*
X103172942Y-110870473D01*
X103242634Y-110875457D01*
G37*
%TD.AperFunction*%
%TA.AperFunction,Conductor*%
G36*
X109039257Y-50111716D02*
G01*
X109052749Y-50111927D01*
X109185019Y-50113996D01*
X109199261Y-50115041D01*
X109489221Y-50153215D01*
X109505112Y-50156376D01*
X109786690Y-50231825D01*
X109802031Y-50237033D01*
X110071340Y-50348584D01*
X110085868Y-50355748D01*
X110212490Y-50428853D01*
X110338311Y-50501496D01*
X110351797Y-50510507D01*
X110583049Y-50687953D01*
X110595244Y-50698648D01*
X110801351Y-50904755D01*
X110812046Y-50916950D01*
X110989492Y-51148202D01*
X110998503Y-51161688D01*
X111144246Y-51414121D01*
X111151418Y-51428665D01*
X111153139Y-51432819D01*
X111262963Y-51697960D01*
X111268177Y-51713318D01*
X111343621Y-51994878D01*
X111346785Y-52010787D01*
X111384957Y-52300736D01*
X111386003Y-52314981D01*
X111388284Y-52460742D01*
X111388299Y-52462682D01*
X111388299Y-127737317D01*
X111388284Y-127739257D01*
X111386003Y-127885018D01*
X111384957Y-127899263D01*
X111346785Y-128189212D01*
X111343621Y-128205121D01*
X111268177Y-128486681D01*
X111262963Y-128502039D01*
X111151420Y-128771330D01*
X111144246Y-128785878D01*
X110998503Y-129038311D01*
X110989492Y-129051797D01*
X110812046Y-129283049D01*
X110801351Y-129295244D01*
X110595244Y-129501351D01*
X110583049Y-129512046D01*
X110351797Y-129689492D01*
X110338311Y-129698503D01*
X110085878Y-129844246D01*
X110071330Y-129851420D01*
X109802039Y-129962963D01*
X109786681Y-129968177D01*
X109505121Y-130043621D01*
X109489212Y-130046785D01*
X109199263Y-130084957D01*
X109185018Y-130086003D01*
X109039258Y-130088284D01*
X109037318Y-130088299D01*
X58762682Y-130088299D01*
X58760742Y-130088284D01*
X58614981Y-130086003D01*
X58600736Y-130084957D01*
X58310787Y-130046785D01*
X58294878Y-130043621D01*
X58013318Y-129968177D01*
X57997960Y-129962963D01*
X57969584Y-129951209D01*
X57728665Y-129851418D01*
X57714125Y-129844248D01*
X57587904Y-129771374D01*
X57461688Y-129698503D01*
X57448202Y-129689492D01*
X57216950Y-129512046D01*
X57204755Y-129501351D01*
X56998648Y-129295244D01*
X56987953Y-129283049D01*
X56810507Y-129051797D01*
X56801496Y-129038311D01*
X56728032Y-128911068D01*
X56655748Y-128785868D01*
X56648584Y-128771340D01*
X56537033Y-128502031D01*
X56531825Y-128486690D01*
X56456376Y-128205112D01*
X56453215Y-128189221D01*
X56415041Y-127899261D01*
X56413996Y-127885017D01*
X56411716Y-127739256D01*
X56411701Y-127737317D01*
X56411701Y-126966755D01*
X57557201Y-126966755D01*
X57557201Y-127209842D01*
X57557202Y-127209858D01*
X57588931Y-127450868D01*
X57651850Y-127685685D01*
X57744876Y-127910271D01*
X57744883Y-127910286D01*
X57866431Y-128120815D01*
X58014423Y-128313679D01*
X58014431Y-128313688D01*
X58186312Y-128485569D01*
X58186320Y-128485576D01*
X58186321Y-128485577D01*
X58207764Y-128502031D01*
X58379184Y-128633568D01*
X58589713Y-128755116D01*
X58589728Y-128755123D01*
X58663978Y-128785878D01*
X58814313Y-128848149D01*
X59049130Y-128911068D01*
X59290151Y-128942799D01*
X59290158Y-128942799D01*
X59533244Y-128942799D01*
X59533251Y-128942799D01*
X59774272Y-128911068D01*
X60009089Y-128848149D01*
X60233685Y-128755118D01*
X60444217Y-128633568D01*
X60637081Y-128485577D01*
X60637085Y-128485572D01*
X60637090Y-128485569D01*
X60808971Y-128313688D01*
X60808974Y-128313683D01*
X60808979Y-128313679D01*
X60956970Y-128120815D01*
X61078520Y-127910283D01*
X61171551Y-127685687D01*
X61234470Y-127450870D01*
X61266201Y-127209849D01*
X61266201Y-126966749D01*
X61234470Y-126725728D01*
X61171551Y-126490911D01*
X61112657Y-126348729D01*
X61078525Y-126266326D01*
X61078518Y-126266311D01*
X60956970Y-126055782D01*
X60843410Y-125907791D01*
X60808979Y-125862919D01*
X60808978Y-125862918D01*
X60808971Y-125862910D01*
X60637090Y-125691029D01*
X60637081Y-125691021D01*
X60444217Y-125543029D01*
X60233688Y-125421481D01*
X60233673Y-125421474D01*
X60009087Y-125328448D01*
X59774270Y-125265529D01*
X59533260Y-125233800D01*
X59533257Y-125233799D01*
X59533251Y-125233799D01*
X59290151Y-125233799D01*
X59290145Y-125233799D01*
X59290141Y-125233800D01*
X59049131Y-125265529D01*
X58814314Y-125328448D01*
X58589728Y-125421474D01*
X58589713Y-125421481D01*
X58379184Y-125543029D01*
X58186320Y-125691021D01*
X58014423Y-125862918D01*
X57866431Y-126055782D01*
X57744883Y-126266311D01*
X57744876Y-126266326D01*
X57651850Y-126490912D01*
X57588931Y-126725729D01*
X57557202Y-126966739D01*
X57557201Y-126966755D01*
X56411701Y-126966755D01*
X56411701Y-108018823D01*
X56868499Y-108018823D01*
X56902374Y-108189118D01*
X56902377Y-108189128D01*
X56968822Y-108349543D01*
X57065295Y-108493926D01*
X57065296Y-108493927D01*
X64208181Y-115636810D01*
X64241666Y-115698133D01*
X64244500Y-115724491D01*
X64244500Y-117398640D01*
X64247397Y-117452688D01*
X64247397Y-117452689D01*
X64250229Y-117479022D01*
X64250232Y-117479049D01*
X64258885Y-117532445D01*
X64258885Y-117532447D01*
X64309165Y-117667249D01*
X64309168Y-117667257D01*
X64342653Y-117728580D01*
X64428877Y-117843761D01*
X64428881Y-117843765D01*
X64428886Y-117843771D01*
X64608118Y-118023002D01*
X64756239Y-118171123D01*
X64756255Y-118171137D01*
X64756262Y-118171144D01*
X64796480Y-118207271D01*
X64796492Y-118207281D01*
X64796500Y-118207288D01*
X64817142Y-118223922D01*
X64861026Y-118255567D01*
X64991903Y-118315338D01*
X65058942Y-118335023D01*
X65058946Y-118335024D01*
X65201362Y-118355500D01*
X65201365Y-118355500D01*
X67198640Y-118355500D01*
X67208786Y-118354955D01*
X67252678Y-118352603D01*
X67252686Y-118352602D01*
X67252688Y-118352602D01*
X67252689Y-118352602D01*
X67259682Y-118351849D01*
X67279036Y-118349769D01*
X67279046Y-118349767D01*
X67279049Y-118349767D01*
X67288648Y-118348211D01*
X67332448Y-118341114D01*
X67467257Y-118290832D01*
X67528580Y-118257347D01*
X67643761Y-118171123D01*
X67971123Y-117843761D01*
X68007288Y-117803500D01*
X68023922Y-117782858D01*
X68055567Y-117738974D01*
X68115338Y-117608097D01*
X68135023Y-117541058D01*
X68135024Y-117541054D01*
X68155500Y-117398638D01*
X68155500Y-111899996D01*
X74066287Y-111899996D01*
X74066287Y-111900003D01*
X74084681Y-112063261D01*
X74084682Y-112063265D01*
X74138947Y-112218347D01*
X74172035Y-112271006D01*
X74226360Y-112357463D01*
X74342537Y-112473640D01*
X74419404Y-112521939D01*
X74477264Y-112558295D01*
X74481654Y-112561053D01*
X74636733Y-112615317D01*
X74636734Y-112615317D01*
X74636738Y-112615318D01*
X74799996Y-112633713D01*
X74800000Y-112633713D01*
X74800004Y-112633713D01*
X74963261Y-112615318D01*
X74963263Y-112615317D01*
X74963267Y-112615317D01*
X75118346Y-112561053D01*
X75257463Y-112473640D01*
X75373640Y-112357463D01*
X75461053Y-112218346D01*
X75515317Y-112063267D01*
X75518459Y-112035375D01*
X75545522Y-111970964D01*
X75553988Y-111961587D01*
X78602558Y-108913019D01*
X78663881Y-108879534D01*
X78690239Y-108876700D01*
X78799300Y-108876700D01*
X78866339Y-108896385D01*
X78912094Y-108949189D01*
X78923300Y-109000700D01*
X78923300Y-111024076D01*
X78923300Y-111175924D01*
X78952441Y-111284681D01*
X78962602Y-111322600D01*
X78962602Y-111322601D01*
X79038522Y-111454098D01*
X79038527Y-111454104D01*
X79646000Y-112061577D01*
X79679485Y-112122900D01*
X79681539Y-112135373D01*
X79684681Y-112163264D01*
X79738948Y-112318348D01*
X79826360Y-112457463D01*
X79927192Y-112558295D01*
X79960677Y-112619618D01*
X79955693Y-112689310D01*
X79927194Y-112733656D01*
X79866247Y-112794604D01*
X79769677Y-112948293D01*
X79709725Y-113119625D01*
X79709724Y-113119630D01*
X79689403Y-113299996D01*
X79689403Y-113300003D01*
X79709724Y-113480366D01*
X79709726Y-113480376D01*
X79716341Y-113499279D01*
X79723300Y-113540234D01*
X79723300Y-123462903D01*
X79703615Y-123529942D01*
X79650811Y-123575697D01*
X79581653Y-123585641D01*
X79531371Y-123564463D01*
X79530860Y-123565349D01*
X79391681Y-123484993D01*
X79391682Y-123484993D01*
X79379595Y-123481754D01*
X79244293Y-123445500D01*
X79091707Y-123445500D01*
X78956404Y-123481754D01*
X78944318Y-123484993D01*
X78812182Y-123561282D01*
X78812176Y-123561287D01*
X78704287Y-123669176D01*
X78704282Y-123669182D01*
X78627993Y-123801318D01*
X78627992Y-123801322D01*
X78588500Y-123948707D01*
X78588500Y-124101293D01*
X78612700Y-124191607D01*
X78627993Y-124248681D01*
X78704282Y-124380817D01*
X78704284Y-124380819D01*
X78704285Y-124380821D01*
X78812179Y-124488715D01*
X78812180Y-124488716D01*
X78812182Y-124488717D01*
X78944318Y-124565006D01*
X78944320Y-124565007D01*
X78944322Y-124565008D01*
X78977732Y-124573960D01*
X79037391Y-124610323D01*
X79067921Y-124673169D01*
X79062680Y-124734688D01*
X79009726Y-124886022D01*
X79009724Y-124886030D01*
X78989403Y-125066396D01*
X78989403Y-125066403D01*
X79009724Y-125246769D01*
X79009725Y-125246774D01*
X79069677Y-125418106D01*
X79166249Y-125571798D01*
X79294601Y-125700150D01*
X79444917Y-125794601D01*
X79448295Y-125796723D01*
X79619625Y-125856674D01*
X79619630Y-125856675D01*
X79799996Y-125876997D01*
X79800000Y-125876997D01*
X79800004Y-125876997D01*
X79980369Y-125856675D01*
X79980372Y-125856674D01*
X79980375Y-125856674D01*
X80151705Y-125796723D01*
X80305399Y-125700150D01*
X80433750Y-125571799D01*
X80530323Y-125418105D01*
X80590274Y-125246775D01*
X80605106Y-125115131D01*
X80632172Y-125050716D01*
X80640645Y-125041331D01*
X80761475Y-124920502D01*
X80837399Y-124788998D01*
X80876700Y-124642324D01*
X80876700Y-124490476D01*
X80876700Y-123948707D01*
X84368500Y-123948707D01*
X84368500Y-124101293D01*
X84392700Y-124191607D01*
X84407993Y-124248681D01*
X84484282Y-124380817D01*
X84484284Y-124380819D01*
X84484285Y-124380821D01*
X84592179Y-124488715D01*
X84592180Y-124488716D01*
X84592182Y-124488717D01*
X84724318Y-124565006D01*
X84724319Y-124565006D01*
X84724322Y-124565008D01*
X84871707Y-124604500D01*
X84871710Y-124604500D01*
X85024290Y-124604500D01*
X85024293Y-124604500D01*
X85171678Y-124565008D01*
X85303821Y-124488715D01*
X85411715Y-124380821D01*
X85488008Y-124248678D01*
X85527500Y-124101293D01*
X85527500Y-123948707D01*
X85488008Y-123801322D01*
X85411715Y-123669179D01*
X85303821Y-123561285D01*
X85303819Y-123561284D01*
X85303817Y-123561282D01*
X85171681Y-123484993D01*
X85171682Y-123484993D01*
X85159595Y-123481754D01*
X85024293Y-123445500D01*
X84871707Y-123445500D01*
X84736404Y-123481754D01*
X84724318Y-123484993D01*
X84592182Y-123561282D01*
X84592176Y-123561287D01*
X84484287Y-123669176D01*
X84484282Y-123669182D01*
X84407993Y-123801318D01*
X84407992Y-123801322D01*
X84368500Y-123948707D01*
X80876700Y-123948707D01*
X80876700Y-116499996D01*
X84489403Y-116499996D01*
X84489403Y-116500003D01*
X84509724Y-116680369D01*
X84509725Y-116680374D01*
X84569677Y-116851706D01*
X84666249Y-117005398D01*
X84794601Y-117133750D01*
X84906351Y-117203968D01*
X84948295Y-117230323D01*
X85119625Y-117290274D01*
X85119630Y-117290275D01*
X85299996Y-117310597D01*
X85300000Y-117310597D01*
X85300004Y-117310597D01*
X85480369Y-117290275D01*
X85480372Y-117290274D01*
X85480375Y-117290274D01*
X85651705Y-117230323D01*
X85805399Y-117133750D01*
X85933750Y-117005399D01*
X86030323Y-116851705D01*
X86090145Y-116680744D01*
X86130867Y-116623967D01*
X86195820Y-116598220D01*
X86264381Y-116611676D01*
X86294868Y-116634017D01*
X86394601Y-116733750D01*
X86541171Y-116825847D01*
X86548295Y-116830323D01*
X86719625Y-116890274D01*
X86719630Y-116890275D01*
X86899996Y-116910597D01*
X86900000Y-116910597D01*
X86900004Y-116910597D01*
X87080369Y-116890275D01*
X87080372Y-116890274D01*
X87080375Y-116890274D01*
X87251705Y-116830323D01*
X87405399Y-116733750D01*
X87533750Y-116605399D01*
X87630323Y-116451705D01*
X87690274Y-116280375D01*
X87690275Y-116280369D01*
X87710597Y-116100003D01*
X87710597Y-116099996D01*
X87690275Y-115919630D01*
X87690274Y-115919625D01*
X87683407Y-115900000D01*
X87630323Y-115748295D01*
X87612311Y-115719630D01*
X87533750Y-115594601D01*
X87513019Y-115573870D01*
X87479534Y-115512547D01*
X87476700Y-115486189D01*
X87476700Y-114446765D01*
X87476700Y-114446763D01*
X87437399Y-114300089D01*
X87361475Y-114168585D01*
X87254102Y-114061212D01*
X86640645Y-113447755D01*
X86607160Y-113386432D01*
X86605106Y-113373956D01*
X86590275Y-113242317D01*
X86590274Y-113242312D01*
X86530322Y-113070979D01*
X86448984Y-112941533D01*
X86429983Y-112874296D01*
X86450350Y-112807461D01*
X86466291Y-112787884D01*
X86494232Y-112759943D01*
X86555553Y-112726460D01*
X86568026Y-112724406D01*
X86608263Y-112719873D01*
X86699669Y-112709575D01*
X86699672Y-112709574D01*
X86699675Y-112709574D01*
X86871005Y-112649623D01*
X87024699Y-112553050D01*
X87153050Y-112424699D01*
X87249623Y-112271005D01*
X87309574Y-112099675D01*
X87313676Y-112063267D01*
X87329897Y-111919303D01*
X87329897Y-111919296D01*
X87309575Y-111738930D01*
X87309574Y-111738925D01*
X87254542Y-111581654D01*
X87249623Y-111567595D01*
X87203754Y-111494596D01*
X87153050Y-111413901D01*
X87024698Y-111285549D01*
X86871006Y-111188977D01*
X86699674Y-111129025D01*
X86699669Y-111129024D01*
X86519304Y-111108703D01*
X86519296Y-111108703D01*
X86338930Y-111129024D01*
X86338925Y-111129025D01*
X86167593Y-111188977D01*
X86013901Y-111285549D01*
X85885549Y-111413901D01*
X85788976Y-111567595D01*
X85729024Y-111738930D01*
X85714192Y-111870571D01*
X85687125Y-111934985D01*
X85678653Y-111944368D01*
X84912298Y-112710725D01*
X84804927Y-112818095D01*
X84804922Y-112818101D01*
X84729002Y-112949598D01*
X84729002Y-112949599D01*
X84729001Y-112949601D01*
X84729001Y-112949602D01*
X84692760Y-113084855D01*
X84689700Y-113096276D01*
X84689700Y-115921805D01*
X84670015Y-115988844D01*
X84668819Y-115990511D01*
X84569677Y-116148293D01*
X84509725Y-116319625D01*
X84509724Y-116319630D01*
X84489403Y-116499996D01*
X80876700Y-116499996D01*
X80876700Y-114083149D01*
X80896385Y-114016110D01*
X80934726Y-113978156D01*
X81005399Y-113933750D01*
X81133750Y-113805399D01*
X81230323Y-113651705D01*
X81290274Y-113480375D01*
X81290274Y-113480372D01*
X81290275Y-113480369D01*
X81310597Y-113300003D01*
X81310597Y-113299996D01*
X81290275Y-113119630D01*
X81290274Y-113119625D01*
X81248415Y-113000000D01*
X81230323Y-112948295D01*
X81220763Y-112933081D01*
X81133750Y-112794601D01*
X81005399Y-112666250D01*
X81005394Y-112666246D01*
X80989330Y-112656152D01*
X80943040Y-112603817D01*
X80932393Y-112534763D01*
X80960770Y-112470915D01*
X80967615Y-112463487D01*
X80973640Y-112457463D01*
X81061053Y-112318346D01*
X81115317Y-112163267D01*
X81119832Y-112123200D01*
X81133713Y-112000003D01*
X81133713Y-111999996D01*
X81115318Y-111836738D01*
X81115317Y-111836734D01*
X81093038Y-111773065D01*
X81061053Y-111681654D01*
X80973640Y-111542537D01*
X80857463Y-111426360D01*
X80747631Y-111357348D01*
X80718348Y-111338948D01*
X80718347Y-111338947D01*
X80718346Y-111338947D01*
X80675407Y-111323922D01*
X80563264Y-111284681D01*
X80535373Y-111281539D01*
X80470959Y-111254471D01*
X80461577Y-111246000D01*
X80113019Y-110897442D01*
X80079534Y-110836119D01*
X80076700Y-110809761D01*
X80076700Y-107840479D01*
X80096385Y-107773440D01*
X80149189Y-107727685D01*
X80214584Y-107717259D01*
X80233024Y-107719336D01*
X80242432Y-107720397D01*
X80242433Y-107720397D01*
X80242436Y-107720397D01*
X80422802Y-107700075D01*
X80422805Y-107700074D01*
X80422808Y-107700074D01*
X80594138Y-107640123D01*
X80687106Y-107581707D01*
X80753079Y-107562700D01*
X82754507Y-107562700D01*
X82839365Y-107545819D01*
X82880644Y-107537609D01*
X82999464Y-107488392D01*
X83106400Y-107416941D01*
X83996379Y-106526960D01*
X84057700Y-106493477D01*
X84070170Y-106491423D01*
X84080375Y-106490274D01*
X84251705Y-106430323D01*
X84405399Y-106333750D01*
X84533750Y-106205399D01*
X84630323Y-106051705D01*
X84690274Y-105880375D01*
X84690275Y-105880369D01*
X84710597Y-105700003D01*
X84710597Y-105699996D01*
X84690275Y-105519630D01*
X84690274Y-105519625D01*
X84630322Y-105348293D01*
X84533750Y-105194601D01*
X84405398Y-105066249D01*
X84251706Y-104969677D01*
X84080374Y-104909725D01*
X84080369Y-104909724D01*
X83900004Y-104889403D01*
X83899996Y-104889403D01*
X83719630Y-104909724D01*
X83719625Y-104909725D01*
X83548293Y-104969677D01*
X83394601Y-105066249D01*
X83266249Y-105194601D01*
X83169676Y-105348295D01*
X83109726Y-105519624D01*
X83109724Y-105519633D01*
X83108575Y-105529831D01*
X83081504Y-105594243D01*
X83073037Y-105603620D01*
X82456078Y-106220581D01*
X82394755Y-106254066D01*
X82368397Y-106256900D01*
X80753079Y-106256900D01*
X80687106Y-106237893D01*
X80594140Y-106179477D01*
X80422807Y-106119525D01*
X80422802Y-106119524D01*
X80242437Y-106099203D01*
X80242436Y-106099203D01*
X80242434Y-106099203D01*
X80242433Y-106099203D01*
X80218886Y-106101855D01*
X80214581Y-106102341D01*
X80145760Y-106090285D01*
X80094381Y-106042935D01*
X80076700Y-105979120D01*
X80076700Y-105390239D01*
X80096385Y-105323200D01*
X80113019Y-105302558D01*
X80834745Y-104580832D01*
X81561475Y-103854102D01*
X81637399Y-103722598D01*
X81643772Y-103698810D01*
X81680135Y-103639151D01*
X81742982Y-103608620D01*
X81812357Y-103616914D01*
X81822007Y-103621549D01*
X81823769Y-103622491D01*
X81886066Y-103648295D01*
X81886067Y-103648295D01*
X81984192Y-103688940D01*
X82153404Y-103722598D01*
X82154490Y-103722814D01*
X82154494Y-103722815D01*
X90381878Y-103722815D01*
X90448917Y-103742500D01*
X90494672Y-103795304D01*
X90505098Y-103860698D01*
X90489403Y-103999996D01*
X90489403Y-104000003D01*
X90509724Y-104180369D01*
X90509725Y-104180374D01*
X90569677Y-104351706D01*
X90666249Y-104505398D01*
X90670587Y-104510837D01*
X90669549Y-104511664D01*
X90699467Y-104566454D01*
X90694483Y-104636146D01*
X90652611Y-104692079D01*
X90619256Y-104709853D01*
X90448297Y-104769675D01*
X90294601Y-104866249D01*
X90166249Y-104994601D01*
X90069676Y-105148294D01*
X90069676Y-105148295D01*
X90064163Y-105164053D01*
X90023442Y-105220830D01*
X89958490Y-105246578D01*
X89947121Y-105247100D01*
X88610646Y-105247100D01*
X88544673Y-105228093D01*
X88451707Y-105169677D01*
X88280374Y-105109725D01*
X88280369Y-105109724D01*
X88100004Y-105089403D01*
X88099996Y-105089403D01*
X87919630Y-105109724D01*
X87919625Y-105109725D01*
X87748293Y-105169677D01*
X87594601Y-105266249D01*
X87466249Y-105394601D01*
X87369677Y-105548293D01*
X87309725Y-105719625D01*
X87309724Y-105719630D01*
X87289403Y-105899996D01*
X87289403Y-105900003D01*
X87309724Y-106080369D01*
X87309725Y-106080374D01*
X87369677Y-106251706D01*
X87466249Y-106405398D01*
X87594601Y-106533750D01*
X87700036Y-106600000D01*
X87748295Y-106630323D01*
X87857916Y-106668681D01*
X87919625Y-106690274D01*
X87919630Y-106690275D01*
X88099996Y-106710597D01*
X88100000Y-106710597D01*
X88100004Y-106710597D01*
X88280369Y-106690275D01*
X88280372Y-106690274D01*
X88280375Y-106690274D01*
X88451705Y-106630323D01*
X88499964Y-106600000D01*
X88544673Y-106571907D01*
X88610646Y-106552900D01*
X90464307Y-106552900D01*
X90570973Y-106531682D01*
X90590444Y-106527809D01*
X90590451Y-106527805D01*
X90596271Y-106526041D01*
X90597062Y-106528648D01*
X90654812Y-106522390D01*
X90717318Y-106553612D01*
X90753022Y-106613670D01*
X90756900Y-106644439D01*
X90756900Y-110776161D01*
X90737215Y-110843200D01*
X90720581Y-110863842D01*
X89338527Y-112245895D01*
X89338522Y-112245901D01*
X89262602Y-112377398D01*
X89262602Y-112377399D01*
X89262601Y-112377401D01*
X89262601Y-112377402D01*
X89236814Y-112473640D01*
X89223300Y-112524076D01*
X89223300Y-114986189D01*
X89203615Y-115053228D01*
X89186981Y-115073870D01*
X89166249Y-115094601D01*
X89069677Y-115248293D01*
X89009725Y-115419625D01*
X89009724Y-115419630D01*
X88989403Y-115599996D01*
X88989403Y-115600003D01*
X89009724Y-115780369D01*
X89009725Y-115780374D01*
X89069677Y-115951706D01*
X89166249Y-116105398D01*
X89294601Y-116233750D01*
X89443025Y-116327012D01*
X89489316Y-116379347D01*
X89499964Y-116448401D01*
X89471589Y-116512249D01*
X89464734Y-116519687D01*
X88545898Y-117438525D01*
X88438527Y-117545895D01*
X88438522Y-117545901D01*
X88362602Y-117677398D01*
X88362602Y-117677399D01*
X88362601Y-117677401D01*
X88362601Y-117677402D01*
X88361529Y-117681402D01*
X88323300Y-117824076D01*
X88323300Y-124309760D01*
X88303615Y-124376799D01*
X88286981Y-124397441D01*
X87225068Y-125459353D01*
X87163745Y-125492838D01*
X87151271Y-125494892D01*
X87019630Y-125509724D01*
X86848295Y-125569676D01*
X86694601Y-125666249D01*
X86566249Y-125794601D01*
X86469677Y-125948293D01*
X86409725Y-126119625D01*
X86409724Y-126119630D01*
X86389403Y-126299996D01*
X86389403Y-126300003D01*
X86409724Y-126480369D01*
X86409725Y-126480374D01*
X86469677Y-126651706D01*
X86566249Y-126805398D01*
X86566250Y-126805399D01*
X86694601Y-126933750D01*
X86848295Y-127030323D01*
X87019625Y-127090274D01*
X87019630Y-127090275D01*
X87199996Y-127110597D01*
X87200000Y-127110597D01*
X87200004Y-127110597D01*
X87380369Y-127090275D01*
X87380372Y-127090274D01*
X87380375Y-127090274D01*
X87551705Y-127030323D01*
X87652872Y-126966755D01*
X106533799Y-126966755D01*
X106533799Y-127209842D01*
X106533800Y-127209858D01*
X106565529Y-127450868D01*
X106628448Y-127685685D01*
X106721474Y-127910271D01*
X106721481Y-127910286D01*
X106843029Y-128120815D01*
X106991021Y-128313679D01*
X106991029Y-128313688D01*
X107162910Y-128485569D01*
X107162918Y-128485576D01*
X107162919Y-128485577D01*
X107184362Y-128502031D01*
X107355782Y-128633568D01*
X107566311Y-128755116D01*
X107566326Y-128755123D01*
X107640576Y-128785878D01*
X107790911Y-128848149D01*
X108025728Y-128911068D01*
X108266749Y-128942799D01*
X108266756Y-128942799D01*
X108509842Y-128942799D01*
X108509849Y-128942799D01*
X108750870Y-128911068D01*
X108985687Y-128848149D01*
X109210283Y-128755118D01*
X109420815Y-128633568D01*
X109613679Y-128485577D01*
X109613683Y-128485572D01*
X109613688Y-128485569D01*
X109785569Y-128313688D01*
X109785572Y-128313683D01*
X109785577Y-128313679D01*
X109933568Y-128120815D01*
X110055118Y-127910283D01*
X110148149Y-127685687D01*
X110211068Y-127450870D01*
X110242799Y-127209849D01*
X110242799Y-126966749D01*
X110211068Y-126725728D01*
X110148149Y-126490911D01*
X110089255Y-126348729D01*
X110055123Y-126266326D01*
X110055116Y-126266311D01*
X109933568Y-126055782D01*
X109820008Y-125907791D01*
X109785577Y-125862919D01*
X109785576Y-125862918D01*
X109785569Y-125862910D01*
X109613688Y-125691029D01*
X109613679Y-125691021D01*
X109420815Y-125543029D01*
X109210286Y-125421481D01*
X109210271Y-125421474D01*
X108985685Y-125328448D01*
X108750868Y-125265529D01*
X108509858Y-125233800D01*
X108509855Y-125233799D01*
X108509849Y-125233799D01*
X108266749Y-125233799D01*
X108266743Y-125233799D01*
X108266739Y-125233800D01*
X108025729Y-125265529D01*
X107790912Y-125328448D01*
X107566326Y-125421474D01*
X107566311Y-125421481D01*
X107355782Y-125543029D01*
X107162918Y-125691021D01*
X106991021Y-125862918D01*
X106843029Y-126055782D01*
X106721481Y-126266311D01*
X106721474Y-126266326D01*
X106628448Y-126490912D01*
X106565529Y-126725729D01*
X106533800Y-126966739D01*
X106533799Y-126966755D01*
X87652872Y-126966755D01*
X87705399Y-126933750D01*
X87833750Y-126805399D01*
X87930323Y-126651705D01*
X87990274Y-126480375D01*
X88005106Y-126348728D01*
X88032172Y-126284315D01*
X88040635Y-126274940D01*
X89361475Y-124954102D01*
X89437399Y-124822598D01*
X89476700Y-124675924D01*
X89476700Y-124524076D01*
X89476700Y-122699999D01*
X93119464Y-122699999D01*
X93119464Y-122700000D01*
X93139564Y-122916918D01*
X93139564Y-122916920D01*
X93139565Y-122916923D01*
X93199183Y-123126459D01*
X93296288Y-123321472D01*
X93427573Y-123495322D01*
X93588568Y-123642088D01*
X93588575Y-123642092D01*
X93588576Y-123642093D01*
X93773786Y-123756770D01*
X93773792Y-123756773D01*
X93796664Y-123765633D01*
X93976931Y-123835470D01*
X94191074Y-123875500D01*
X94191076Y-123875500D01*
X94408924Y-123875500D01*
X94408926Y-123875500D01*
X94623069Y-123835470D01*
X94826210Y-123756772D01*
X95011432Y-123642088D01*
X95172427Y-123495322D01*
X95303712Y-123321472D01*
X95400817Y-123126459D01*
X95460435Y-122916923D01*
X95480536Y-122700000D01*
X95460435Y-122483077D01*
X95400817Y-122273541D01*
X95303712Y-122078528D01*
X95172427Y-121904678D01*
X95011432Y-121757912D01*
X95011428Y-121757909D01*
X95011423Y-121757906D01*
X94826213Y-121643229D01*
X94826207Y-121643226D01*
X94741113Y-121610260D01*
X94623069Y-121564530D01*
X94408926Y-121524500D01*
X94191074Y-121524500D01*
X93976931Y-121564530D01*
X93928130Y-121583435D01*
X93773792Y-121643226D01*
X93773786Y-121643229D01*
X93588576Y-121757906D01*
X93588566Y-121757913D01*
X93427574Y-121904676D01*
X93296288Y-122078527D01*
X93199184Y-122273537D01*
X93139564Y-122483081D01*
X93119464Y-122699999D01*
X89476700Y-122699999D01*
X89476700Y-118190238D01*
X89496385Y-118123199D01*
X89513014Y-118102562D01*
X90789730Y-116825845D01*
X90851051Y-116792362D01*
X90920743Y-116797346D01*
X90976676Y-116839218D01*
X91000629Y-116899644D01*
X91009724Y-116980370D01*
X91009725Y-116980374D01*
X91069677Y-117151706D01*
X91166249Y-117305398D01*
X91294601Y-117433750D01*
X91380674Y-117487834D01*
X91448295Y-117530323D01*
X91619625Y-117590274D01*
X91619630Y-117590275D01*
X91799996Y-117610597D01*
X91800000Y-117610597D01*
X91800004Y-117610597D01*
X91980369Y-117590275D01*
X91980372Y-117590274D01*
X91980375Y-117590274D01*
X92151705Y-117530323D01*
X92305399Y-117433750D01*
X92433750Y-117305399D01*
X92530323Y-117151705D01*
X92590274Y-116980375D01*
X92605106Y-116848728D01*
X92632172Y-116784315D01*
X92640635Y-116774940D01*
X94061475Y-115354102D01*
X94137399Y-115222598D01*
X94176700Y-115075924D01*
X94176700Y-114924076D01*
X94176700Y-102924076D01*
X94153527Y-102837592D01*
X94155190Y-102767743D01*
X94194353Y-102709881D01*
X94258581Y-102682377D01*
X94273302Y-102681500D01*
X98613180Y-102681500D01*
X99773900Y-102681500D01*
X99840939Y-102701185D01*
X99886694Y-102753989D01*
X99897900Y-102805500D01*
X99897900Y-106084211D01*
X99878215Y-106151250D01*
X99825411Y-106197005D01*
X99760017Y-106207431D01*
X99600004Y-106189403D01*
X99599996Y-106189403D01*
X99419630Y-106209724D01*
X99419625Y-106209725D01*
X99248293Y-106269677D01*
X99094601Y-106366249D01*
X98966249Y-106494601D01*
X98869677Y-106648293D01*
X98809725Y-106819625D01*
X98809724Y-106819630D01*
X98789403Y-106999996D01*
X98789403Y-107000003D01*
X98809724Y-107180369D01*
X98809725Y-107180374D01*
X98869677Y-107351706D01*
X98966249Y-107505398D01*
X98970587Y-107510837D01*
X98968157Y-107512774D01*
X98995066Y-107562053D01*
X98997900Y-107588411D01*
X98997900Y-107699240D01*
X98978215Y-107766279D01*
X98961581Y-107786921D01*
X97386921Y-109361581D01*
X97325598Y-109395066D01*
X97299240Y-109397900D01*
X96620732Y-109397900D01*
X96518642Y-109425255D01*
X96467597Y-109438933D01*
X96393289Y-109481835D01*
X96330303Y-109518199D01*
X96330300Y-109518201D01*
X95618201Y-110230300D01*
X95618199Y-110230303D01*
X95538933Y-110367597D01*
X95538933Y-110367598D01*
X95502513Y-110503519D01*
X95497900Y-110520733D01*
X95497900Y-111084629D01*
X95478215Y-111151668D01*
X95455104Y-111178341D01*
X95387165Y-111237211D01*
X95293018Y-111345864D01*
X95293015Y-111345867D01*
X95276700Y-111371255D01*
X95224423Y-111452602D01*
X95215231Y-111466905D01*
X95215223Y-111466918D01*
X95158263Y-111591643D01*
X95156015Y-111595939D01*
X95114966Y-111735738D01*
X95114963Y-111735748D01*
X95094503Y-111878059D01*
X95094503Y-111934399D01*
X95094500Y-111934409D01*
X95094500Y-112465573D01*
X95094503Y-112465601D01*
X95094503Y-112521941D01*
X95110574Y-112633713D01*
X95113703Y-112655478D01*
X95113703Y-112655481D01*
X95114964Y-112664255D01*
X95155503Y-112802313D01*
X95215223Y-112933081D01*
X95215227Y-112933087D01*
X95215230Y-112933094D01*
X95272687Y-113022500D01*
X95293015Y-113054132D01*
X95293018Y-113054136D01*
X95349769Y-113119630D01*
X95387168Y-113162791D01*
X95387171Y-113162794D01*
X95495909Y-113257015D01*
X95556386Y-113295881D01*
X95616857Y-113334744D01*
X95616863Y-113334747D01*
X95747741Y-113394517D01*
X95885696Y-113435024D01*
X96028111Y-113455500D01*
X96028114Y-113455500D01*
X96648500Y-113455500D01*
X96715539Y-113475185D01*
X96761294Y-113527989D01*
X96772500Y-113579500D01*
X96772500Y-114288718D01*
X96752815Y-114355757D01*
X96736181Y-114376399D01*
X94606082Y-116506497D01*
X94544759Y-116539982D01*
X94495617Y-116540705D01*
X94472872Y-116536453D01*
X94408926Y-116524500D01*
X94191074Y-116524500D01*
X93976931Y-116564530D01*
X93950948Y-116574596D01*
X93773792Y-116643226D01*
X93773786Y-116643229D01*
X93588576Y-116757906D01*
X93588566Y-116757913D01*
X93427574Y-116904676D01*
X93296288Y-117078527D01*
X93199184Y-117273537D01*
X93199148Y-117273663D01*
X93144269Y-117466546D01*
X93139564Y-117483081D01*
X93119464Y-117699999D01*
X93119464Y-117700000D01*
X93139564Y-117916918D01*
X93139564Y-117916920D01*
X93139565Y-117916923D01*
X93199183Y-118126459D01*
X93199184Y-118126462D01*
X93264358Y-118257348D01*
X93296288Y-118321472D01*
X93427573Y-118495322D01*
X93588568Y-118642088D01*
X93588575Y-118642092D01*
X93588576Y-118642093D01*
X93773786Y-118756770D01*
X93773792Y-118756773D01*
X93796664Y-118765633D01*
X93976931Y-118835470D01*
X94191074Y-118875500D01*
X94191076Y-118875500D01*
X94408924Y-118875500D01*
X94408926Y-118875500D01*
X94623069Y-118835470D01*
X94826210Y-118756772D01*
X95011432Y-118642088D01*
X95172427Y-118495322D01*
X95303712Y-118321472D01*
X95400817Y-118126459D01*
X95460435Y-117916923D01*
X95480536Y-117700000D01*
X95461048Y-117489698D01*
X95474463Y-117421132D01*
X95496835Y-117390582D01*
X97887411Y-115000008D01*
X97956083Y-114897233D01*
X98003385Y-114783035D01*
X98013206Y-114733663D01*
X98027500Y-114661805D01*
X98027500Y-113579500D01*
X98047185Y-113512461D01*
X98099989Y-113466706D01*
X98151500Y-113455500D01*
X98771886Y-113455500D01*
X98771889Y-113455500D01*
X98914304Y-113435024D01*
X99052259Y-113394517D01*
X99052262Y-113394515D01*
X99052264Y-113394515D01*
X99132344Y-113357944D01*
X99201502Y-113348000D01*
X99265058Y-113377025D01*
X99302832Y-113435803D01*
X99307075Y-113456853D01*
X99309725Y-113480371D01*
X99309725Y-113480374D01*
X99369677Y-113651706D01*
X99466249Y-113805398D01*
X99594601Y-113933750D01*
X99665270Y-113978155D01*
X99748295Y-114030323D01*
X99760507Y-114034596D01*
X99919625Y-114090274D01*
X99919630Y-114090275D01*
X100106920Y-114111377D01*
X100106761Y-114112787D01*
X100166339Y-114130282D01*
X100212094Y-114183086D01*
X100223300Y-114234597D01*
X100223300Y-115055642D01*
X100203615Y-115122681D01*
X100153107Y-115167359D01*
X100148302Y-115169673D01*
X100148296Y-115169676D01*
X100148295Y-115169677D01*
X100104511Y-115197188D01*
X99994601Y-115266249D01*
X99866249Y-115394601D01*
X99769677Y-115548293D01*
X99709725Y-115719625D01*
X99709724Y-115719630D01*
X99689403Y-115899996D01*
X99689403Y-115900005D01*
X99706336Y-116050302D01*
X99694281Y-116119123D01*
X99649088Y-116169177D01*
X99494607Y-116266244D01*
X99494602Y-116266248D01*
X99366249Y-116394601D01*
X99269677Y-116548293D01*
X99209725Y-116719625D01*
X99209724Y-116719630D01*
X99189403Y-116899996D01*
X99189403Y-116900003D01*
X99209724Y-117080369D01*
X99209725Y-117080374D01*
X99269677Y-117251706D01*
X99366249Y-117405398D01*
X99386981Y-117426130D01*
X99420466Y-117487453D01*
X99423300Y-117513811D01*
X99423300Y-120224076D01*
X99423300Y-120375924D01*
X99460306Y-120514034D01*
X99462602Y-120522600D01*
X99462602Y-120522601D01*
X99538522Y-120654098D01*
X99538524Y-120654100D01*
X99538525Y-120654102D01*
X101238525Y-122354102D01*
X101345898Y-122461475D01*
X101345899Y-122461476D01*
X101345901Y-122461477D01*
X101411650Y-122499437D01*
X101477402Y-122537399D01*
X101624076Y-122576700D01*
X101624078Y-122576700D01*
X106525922Y-122576700D01*
X106525924Y-122576700D01*
X106672598Y-122537399D01*
X106804102Y-122461475D01*
X108528758Y-120736817D01*
X108590081Y-120703333D01*
X108616439Y-120700499D01*
X109997871Y-120700499D01*
X109997872Y-120700499D01*
X110057483Y-120694091D01*
X110192331Y-120643796D01*
X110307546Y-120557546D01*
X110393796Y-120442331D01*
X110444091Y-120307483D01*
X110450500Y-120247873D01*
X110450499Y-118452128D01*
X110444091Y-118392517D01*
X110440361Y-118382517D01*
X110393797Y-118257671D01*
X110393793Y-118257664D01*
X110307547Y-118142455D01*
X110307544Y-118142452D01*
X110192335Y-118056206D01*
X110192328Y-118056202D01*
X110060917Y-118007189D01*
X110004983Y-117965318D01*
X109980566Y-117899853D01*
X109995418Y-117831580D01*
X110016563Y-117803332D01*
X110138495Y-117681401D01*
X110274035Y-117487830D01*
X110373903Y-117273663D01*
X110435063Y-117045408D01*
X110455659Y-116810000D01*
X110435063Y-116574592D01*
X110373903Y-116346337D01*
X110274035Y-116132171D01*
X110255290Y-116105399D01*
X110138494Y-115938597D01*
X109971402Y-115771506D01*
X109971396Y-115771501D01*
X109785842Y-115641575D01*
X109742217Y-115586998D01*
X109735023Y-115517500D01*
X109766546Y-115455145D01*
X109785842Y-115438425D01*
X109852452Y-115391784D01*
X109971401Y-115308495D01*
X110138495Y-115141401D01*
X110274035Y-114947830D01*
X110373903Y-114733663D01*
X110435063Y-114505408D01*
X110455659Y-114270000D01*
X110435063Y-114034592D01*
X110373903Y-113806337D01*
X110274035Y-113592171D01*
X110237669Y-113540234D01*
X110138494Y-113398597D01*
X109971402Y-113231506D01*
X109971396Y-113231501D01*
X109785842Y-113101575D01*
X109742217Y-113046998D01*
X109735023Y-112977500D01*
X109766546Y-112915145D01*
X109785842Y-112898425D01*
X109870885Y-112838877D01*
X109971401Y-112768495D01*
X110138495Y-112601401D01*
X110274035Y-112407830D01*
X110373903Y-112193663D01*
X110435063Y-111965408D01*
X110455659Y-111730000D01*
X110435063Y-111494592D01*
X110376675Y-111276682D01*
X110373905Y-111266344D01*
X110373904Y-111266343D01*
X110373903Y-111266337D01*
X110274035Y-111052171D01*
X110231651Y-110991639D01*
X110138494Y-110858597D01*
X109971402Y-110691506D01*
X109971396Y-110691501D01*
X109785842Y-110561575D01*
X109742217Y-110506998D01*
X109735023Y-110437500D01*
X109766546Y-110375145D01*
X109785842Y-110358425D01*
X109857713Y-110308100D01*
X109971401Y-110228495D01*
X110138495Y-110061401D01*
X110274035Y-109867830D01*
X110373903Y-109653663D01*
X110435063Y-109425408D01*
X110455659Y-109190000D01*
X110435063Y-108954592D01*
X110373903Y-108726337D01*
X110274035Y-108512171D01*
X110261261Y-108493927D01*
X110138494Y-108318597D01*
X109971402Y-108151506D01*
X109971396Y-108151501D01*
X109785842Y-108021575D01*
X109742217Y-107966998D01*
X109735023Y-107897500D01*
X109766546Y-107835145D01*
X109785842Y-107818425D01*
X109882703Y-107750602D01*
X109971401Y-107688495D01*
X110138495Y-107521401D01*
X110274035Y-107327830D01*
X110373903Y-107113663D01*
X110435063Y-106885408D01*
X110455659Y-106650000D01*
X110455233Y-106645136D01*
X110444996Y-106528121D01*
X110435063Y-106414592D01*
X110380170Y-106209725D01*
X110373905Y-106186344D01*
X110373904Y-106186343D01*
X110373903Y-106186337D01*
X110274035Y-105972171D01*
X110259706Y-105951706D01*
X110138494Y-105778597D01*
X109971402Y-105611506D01*
X109971396Y-105611501D01*
X109785842Y-105481575D01*
X109742217Y-105426998D01*
X109735023Y-105357500D01*
X109766546Y-105295145D01*
X109785842Y-105278425D01*
X109828875Y-105248293D01*
X109971401Y-105148495D01*
X110138495Y-104981401D01*
X110274035Y-104787830D01*
X110373903Y-104573663D01*
X110435063Y-104345408D01*
X110455659Y-104110000D01*
X110435063Y-103874592D01*
X110373903Y-103646337D01*
X110274035Y-103432171D01*
X110233052Y-103373640D01*
X110138494Y-103238597D01*
X109971402Y-103071506D01*
X109971396Y-103071501D01*
X109785842Y-102941575D01*
X109742217Y-102886998D01*
X109735023Y-102817500D01*
X109766546Y-102755145D01*
X109785842Y-102738425D01*
X109851135Y-102692706D01*
X109971401Y-102608495D01*
X110138495Y-102441401D01*
X110274035Y-102247830D01*
X110373903Y-102033663D01*
X110435063Y-101805408D01*
X110455659Y-101570000D01*
X110453285Y-101542871D01*
X110435063Y-101334596D01*
X110435063Y-101334592D01*
X110373903Y-101106337D01*
X110274035Y-100892171D01*
X110249854Y-100857636D01*
X110138494Y-100698597D01*
X109971402Y-100531506D01*
X109971395Y-100531501D01*
X109777834Y-100395967D01*
X109777830Y-100395965D01*
X109706283Y-100362602D01*
X109563663Y-100296097D01*
X109563659Y-100296096D01*
X109563655Y-100296094D01*
X109335413Y-100234938D01*
X109335403Y-100234936D01*
X109100001Y-100214341D01*
X109099999Y-100214341D01*
X108864596Y-100234936D01*
X108864586Y-100234938D01*
X108636344Y-100296094D01*
X108636335Y-100296098D01*
X108422171Y-100395964D01*
X108422169Y-100395965D01*
X108228597Y-100531505D01*
X108061505Y-100698597D01*
X107925965Y-100892169D01*
X107925964Y-100892171D01*
X107826098Y-101106335D01*
X107826094Y-101106344D01*
X107764938Y-101334586D01*
X107764936Y-101334596D01*
X107744341Y-101569999D01*
X107744341Y-101570000D01*
X107764936Y-101805403D01*
X107764938Y-101805413D01*
X107826094Y-102033655D01*
X107826096Y-102033659D01*
X107826097Y-102033663D01*
X107873362Y-102135022D01*
X107925965Y-102247830D01*
X107925967Y-102247834D01*
X108061501Y-102441395D01*
X108061506Y-102441402D01*
X108228597Y-102608493D01*
X108228603Y-102608498D01*
X108414158Y-102738425D01*
X108457783Y-102793002D01*
X108464977Y-102862500D01*
X108433454Y-102924855D01*
X108414158Y-102941575D01*
X108228597Y-103071505D01*
X108061505Y-103238597D01*
X107925965Y-103432169D01*
X107925964Y-103432171D01*
X107826098Y-103646335D01*
X107826094Y-103646344D01*
X107764938Y-103874586D01*
X107764936Y-103874596D01*
X107744341Y-104109999D01*
X107744341Y-104110000D01*
X107764936Y-104345403D01*
X107764938Y-104345413D01*
X107826094Y-104573655D01*
X107826096Y-104573659D01*
X107826097Y-104573663D01*
X107889604Y-104709853D01*
X107925965Y-104787830D01*
X107925967Y-104787834D01*
X108034281Y-104942521D01*
X108060782Y-104980369D01*
X108061501Y-104981395D01*
X108061506Y-104981402D01*
X108228597Y-105148493D01*
X108228603Y-105148498D01*
X108414158Y-105278425D01*
X108457783Y-105333002D01*
X108464977Y-105402500D01*
X108433454Y-105464855D01*
X108414158Y-105481575D01*
X108228597Y-105611505D01*
X108061505Y-105778597D01*
X107925965Y-105972169D01*
X107925964Y-105972171D01*
X107826098Y-106186335D01*
X107826094Y-106186344D01*
X107764938Y-106414586D01*
X107764936Y-106414596D01*
X107744341Y-106649999D01*
X107744341Y-106650000D01*
X107764936Y-106885403D01*
X107764938Y-106885413D01*
X107826094Y-107113655D01*
X107826096Y-107113659D01*
X107826097Y-107113663D01*
X107925965Y-107327830D01*
X107925967Y-107327834D01*
X108061501Y-107521395D01*
X108061506Y-107521402D01*
X108228597Y-107688493D01*
X108228603Y-107688498D01*
X108414158Y-107818425D01*
X108457783Y-107873002D01*
X108464977Y-107942500D01*
X108433454Y-108004855D01*
X108414158Y-108021575D01*
X108228597Y-108151505D01*
X108061505Y-108318597D01*
X107925965Y-108512169D01*
X107925964Y-108512171D01*
X107826098Y-108726335D01*
X107826094Y-108726344D01*
X107764938Y-108954586D01*
X107764936Y-108954596D01*
X107744341Y-109189999D01*
X107744341Y-109190000D01*
X107764936Y-109425403D01*
X107764938Y-109425413D01*
X107826094Y-109653655D01*
X107826096Y-109653659D01*
X107826097Y-109653663D01*
X107925965Y-109867830D01*
X107925967Y-109867834D01*
X108061501Y-110061395D01*
X108061506Y-110061402D01*
X108228597Y-110228493D01*
X108228603Y-110228498D01*
X108414158Y-110358425D01*
X108457783Y-110413002D01*
X108464977Y-110482500D01*
X108433454Y-110544855D01*
X108414158Y-110561575D01*
X108228597Y-110691505D01*
X108061505Y-110858597D01*
X107925965Y-111052169D01*
X107925964Y-111052171D01*
X107826098Y-111266335D01*
X107826094Y-111266344D01*
X107764938Y-111494586D01*
X107764936Y-111494596D01*
X107744341Y-111729999D01*
X107744341Y-111730000D01*
X107764936Y-111965403D01*
X107764938Y-111965413D01*
X107826094Y-112193655D01*
X107826096Y-112193659D01*
X107826097Y-112193663D01*
X107911774Y-112377398D01*
X107925965Y-112407830D01*
X107925967Y-112407834D01*
X108061501Y-112601395D01*
X108061506Y-112601402D01*
X108228597Y-112768493D01*
X108228603Y-112768498D01*
X108414158Y-112898425D01*
X108457783Y-112953002D01*
X108464977Y-113022500D01*
X108433454Y-113084855D01*
X108414158Y-113101575D01*
X108228597Y-113231505D01*
X108061505Y-113398597D01*
X107925965Y-113592169D01*
X107925964Y-113592171D01*
X107826098Y-113806335D01*
X107826094Y-113806344D01*
X107764938Y-114034586D01*
X107764936Y-114034596D01*
X107744341Y-114269999D01*
X107744341Y-114270000D01*
X107764936Y-114505403D01*
X107764938Y-114505413D01*
X107826094Y-114733655D01*
X107826096Y-114733659D01*
X107826097Y-114733663D01*
X107889521Y-114869676D01*
X107925965Y-114947830D01*
X107925967Y-114947834D01*
X108061501Y-115141395D01*
X108061506Y-115141402D01*
X108228597Y-115308493D01*
X108228603Y-115308498D01*
X108414158Y-115438425D01*
X108457783Y-115493002D01*
X108464977Y-115562500D01*
X108433454Y-115624855D01*
X108414158Y-115641575D01*
X108228597Y-115771505D01*
X108061505Y-115938597D01*
X107925965Y-116132169D01*
X107925964Y-116132171D01*
X107826098Y-116346335D01*
X107826094Y-116346344D01*
X107764938Y-116574586D01*
X107764936Y-116574596D01*
X107744341Y-116809999D01*
X107744341Y-116810000D01*
X107764936Y-117045403D01*
X107764938Y-117045413D01*
X107826094Y-117273655D01*
X107826096Y-117273659D01*
X107826097Y-117273663D01*
X107925038Y-117485842D01*
X107925965Y-117487830D01*
X107925967Y-117487834D01*
X107997697Y-117590274D01*
X108061501Y-117681396D01*
X108061506Y-117681402D01*
X108183430Y-117803326D01*
X108216915Y-117864649D01*
X108211931Y-117934341D01*
X108170059Y-117990274D01*
X108139083Y-118007189D01*
X108007669Y-118056203D01*
X108007664Y-118056206D01*
X107892455Y-118142452D01*
X107892452Y-118142455D01*
X107806206Y-118257664D01*
X107806202Y-118257671D01*
X107755908Y-118392517D01*
X107752585Y-118423430D01*
X107749501Y-118452123D01*
X107749500Y-118452135D01*
X107749500Y-119833560D01*
X107729815Y-119900599D01*
X107713181Y-119921241D01*
X106247442Y-121386981D01*
X106186119Y-121420466D01*
X106159761Y-121423300D01*
X101990239Y-121423300D01*
X101923200Y-121403615D01*
X101902558Y-121386981D01*
X100613019Y-120097442D01*
X100579534Y-120036119D01*
X100576700Y-120009761D01*
X100576700Y-117513811D01*
X100596385Y-117446772D01*
X100613019Y-117426130D01*
X100618017Y-117421132D01*
X100633750Y-117405399D01*
X100716531Y-117273655D01*
X100734028Y-117245809D01*
X100735992Y-117247043D01*
X100775464Y-117203311D01*
X100842888Y-117184987D01*
X100906351Y-117203968D01*
X100948293Y-117230322D01*
X100948295Y-117230323D01*
X101119625Y-117290274D01*
X101119630Y-117290275D01*
X101299997Y-117310597D01*
X101300000Y-117310597D01*
X101300001Y-117310597D01*
X101314932Y-117308914D01*
X101352004Y-117304737D01*
X101420826Y-117316791D01*
X101472206Y-117364139D01*
X101478271Y-117375552D01*
X101525964Y-117477829D01*
X101525965Y-117477831D01*
X101631242Y-117628182D01*
X101661501Y-117671396D01*
X101661506Y-117671402D01*
X101783430Y-117793326D01*
X101816915Y-117854649D01*
X101811931Y-117924341D01*
X101770059Y-117980274D01*
X101739083Y-117997189D01*
X101607669Y-118046203D01*
X101607664Y-118046206D01*
X101492455Y-118132452D01*
X101492452Y-118132455D01*
X101406206Y-118247664D01*
X101406202Y-118247671D01*
X101355908Y-118382517D01*
X101349501Y-118442116D01*
X101349500Y-118442135D01*
X101349500Y-120237870D01*
X101349501Y-120237876D01*
X101355908Y-120297483D01*
X101406202Y-120432328D01*
X101406206Y-120432335D01*
X101492452Y-120547544D01*
X101492455Y-120547547D01*
X101607664Y-120633793D01*
X101607671Y-120633797D01*
X101742517Y-120684091D01*
X101742516Y-120684091D01*
X101749444Y-120684835D01*
X101802127Y-120690500D01*
X103597872Y-120690499D01*
X103657483Y-120684091D01*
X103792331Y-120633796D01*
X103907546Y-120547546D01*
X103993796Y-120432331D01*
X104042810Y-120300916D01*
X104084681Y-120244984D01*
X104150145Y-120220566D01*
X104218418Y-120235417D01*
X104246673Y-120256569D01*
X104368599Y-120378495D01*
X104459762Y-120442328D01*
X104562165Y-120514032D01*
X104562167Y-120514033D01*
X104562170Y-120514035D01*
X104776337Y-120613903D01*
X105004592Y-120675063D01*
X105181034Y-120690500D01*
X105239999Y-120695659D01*
X105240000Y-120695659D01*
X105240001Y-120695659D01*
X105298966Y-120690500D01*
X105475408Y-120675063D01*
X105703663Y-120613903D01*
X105917830Y-120514035D01*
X106111401Y-120378495D01*
X106278495Y-120211401D01*
X106414035Y-120017830D01*
X106513903Y-119803663D01*
X106575063Y-119575408D01*
X106595659Y-119340000D01*
X106575063Y-119104592D01*
X106513903Y-118876337D01*
X106414035Y-118662171D01*
X106399977Y-118642093D01*
X106278494Y-118468597D01*
X106111402Y-118301506D01*
X106111396Y-118301501D01*
X105925842Y-118171575D01*
X105882217Y-118116998D01*
X105875023Y-118047500D01*
X105906546Y-117985145D01*
X105925842Y-117968425D01*
X105999401Y-117916918D01*
X106111401Y-117838495D01*
X106278495Y-117671401D01*
X106414035Y-117477830D01*
X106513903Y-117263663D01*
X106575063Y-117035408D01*
X106595659Y-116800000D01*
X106575063Y-116564592D01*
X106516584Y-116346344D01*
X106513905Y-116336344D01*
X106513904Y-116336343D01*
X106513903Y-116336337D01*
X106414035Y-116122171D01*
X106402292Y-116105399D01*
X106278494Y-115928597D01*
X106111402Y-115761506D01*
X106111395Y-115761501D01*
X105917834Y-115625967D01*
X105917830Y-115625965D01*
X105909396Y-115622032D01*
X105703663Y-115526097D01*
X105703659Y-115526096D01*
X105703655Y-115526094D01*
X105475413Y-115464938D01*
X105475403Y-115464936D01*
X105240001Y-115444341D01*
X105239999Y-115444341D01*
X105004596Y-115464936D01*
X105004586Y-115464938D01*
X104776344Y-115526094D01*
X104776335Y-115526098D01*
X104562171Y-115625964D01*
X104562169Y-115625965D01*
X104368596Y-115761506D01*
X104317956Y-115812146D01*
X104256633Y-115845630D01*
X104186941Y-115840645D01*
X104131008Y-115798774D01*
X104106592Y-115733309D01*
X104107056Y-115710580D01*
X104119515Y-115600002D01*
X104119515Y-115599997D01*
X104115676Y-115565926D01*
X104127730Y-115497104D01*
X104151215Y-115464361D01*
X104223792Y-115391784D01*
X104361475Y-115254102D01*
X104437399Y-115122598D01*
X104476700Y-114975924D01*
X104476700Y-114824076D01*
X104476700Y-106213811D01*
X104496385Y-106146772D01*
X104513019Y-106126130D01*
X104521273Y-106117876D01*
X104533750Y-106105399D01*
X104630323Y-105951705D01*
X104690274Y-105780375D01*
X104690474Y-105778599D01*
X104710597Y-105600003D01*
X104710597Y-105599996D01*
X104690275Y-105419630D01*
X104690274Y-105419625D01*
X104676409Y-105380000D01*
X104630323Y-105248295D01*
X104613065Y-105220830D01*
X104533750Y-105094601D01*
X104405398Y-104966249D01*
X104251706Y-104869677D01*
X104080374Y-104809725D01*
X104080369Y-104809724D01*
X103900004Y-104789403D01*
X103899996Y-104789403D01*
X103719630Y-104809724D01*
X103719625Y-104809725D01*
X103548293Y-104869677D01*
X103394601Y-104966249D01*
X103266249Y-105094601D01*
X103169677Y-105248293D01*
X103109725Y-105419625D01*
X103109724Y-105419630D01*
X103089403Y-105599996D01*
X103089403Y-105600004D01*
X103106596Y-105752608D01*
X103094541Y-105821430D01*
X103047192Y-105872809D01*
X102997259Y-105889711D01*
X102819630Y-105909724D01*
X102819625Y-105909725D01*
X102648293Y-105969677D01*
X102494601Y-106066249D01*
X102366249Y-106194601D01*
X102269677Y-106348293D01*
X102209725Y-106519625D01*
X102209724Y-106519629D01*
X102202841Y-106580722D01*
X102175774Y-106645136D01*
X102118179Y-106684691D01*
X102048342Y-106686828D01*
X102012096Y-106668681D01*
X102011296Y-106669955D01*
X101851706Y-106569677D01*
X101680374Y-106509725D01*
X101680369Y-106509724D01*
X101500004Y-106489403D01*
X101499996Y-106489403D01*
X101319630Y-106509724D01*
X101319625Y-106509725D01*
X101267055Y-106528121D01*
X101197276Y-106531682D01*
X101136648Y-106496953D01*
X101104421Y-106434960D01*
X101102100Y-106411079D01*
X101102100Y-102805500D01*
X101121785Y-102738461D01*
X101174589Y-102692706D01*
X101226100Y-102681500D01*
X105986822Y-102681500D01*
X106101394Y-102658709D01*
X106157124Y-102647624D01*
X106317547Y-102581175D01*
X106461923Y-102484706D01*
X106584706Y-102361923D01*
X106681175Y-102217547D01*
X106747624Y-102057124D01*
X106764230Y-101973640D01*
X106781500Y-101886822D01*
X106781500Y-101713177D01*
X106747625Y-101542881D01*
X106747624Y-101542880D01*
X106747624Y-101542876D01*
X106747622Y-101542871D01*
X106681178Y-101382459D01*
X106681171Y-101382446D01*
X106584706Y-101238077D01*
X106584703Y-101238073D01*
X106461926Y-101115296D01*
X106461922Y-101115293D01*
X106317553Y-101018828D01*
X106317540Y-101018821D01*
X106157128Y-100952377D01*
X106157118Y-100952374D01*
X105986822Y-100918500D01*
X105986820Y-100918500D01*
X105886820Y-100918500D01*
X105817010Y-100918500D01*
X105749971Y-100898815D01*
X105704216Y-100846011D01*
X105694272Y-100776853D01*
X105709623Y-100732500D01*
X105724450Y-100706819D01*
X105806393Y-100564888D01*
X105899508Y-100327637D01*
X105956222Y-100079157D01*
X105966859Y-99937209D01*
X105975268Y-99825004D01*
X105975268Y-99824995D01*
X105956222Y-99570845D01*
X105903680Y-99340645D01*
X105899508Y-99322363D01*
X105806393Y-99085112D01*
X105678959Y-98864388D01*
X105520050Y-98665123D01*
X105333217Y-98491768D01*
X105122634Y-98348195D01*
X105122630Y-98348193D01*
X105122627Y-98348191D01*
X105122626Y-98348190D01*
X104893006Y-98237612D01*
X104893008Y-98237612D01*
X104649466Y-98162489D01*
X104649462Y-98162488D01*
X104649458Y-98162487D01*
X104523901Y-98143562D01*
X104397440Y-98124500D01*
X104397435Y-98124500D01*
X104142565Y-98124500D01*
X104142559Y-98124500D01*
X103985609Y-98148157D01*
X103890542Y-98162487D01*
X103890539Y-98162488D01*
X103890533Y-98162489D01*
X103646992Y-98237612D01*
X103417373Y-98348190D01*
X103417372Y-98348191D01*
X103206782Y-98491768D01*
X103019952Y-98665121D01*
X103019950Y-98665123D01*
X102861041Y-98864388D01*
X102733608Y-99085109D01*
X102640492Y-99322362D01*
X102640490Y-99322369D01*
X102583777Y-99570845D01*
X102564732Y-99824995D01*
X102564732Y-99825004D01*
X102583777Y-100079154D01*
X102637674Y-100315294D01*
X102640492Y-100327637D01*
X102720505Y-100531506D01*
X102733608Y-100564890D01*
X102830377Y-100732500D01*
X102846850Y-100800400D01*
X102823997Y-100866427D01*
X102769076Y-100909618D01*
X102722990Y-100918500D01*
X95817010Y-100918500D01*
X95749971Y-100898815D01*
X95704216Y-100846011D01*
X95694272Y-100776853D01*
X95709623Y-100732500D01*
X95724450Y-100706819D01*
X95806393Y-100564888D01*
X95899508Y-100327637D01*
X95956222Y-100079157D01*
X95966859Y-99937209D01*
X95975268Y-99825004D01*
X95975268Y-99824995D01*
X95956222Y-99570845D01*
X95903680Y-99340645D01*
X95899508Y-99322363D01*
X95806393Y-99085112D01*
X95735719Y-98962700D01*
X95719246Y-98894800D01*
X95742099Y-98828773D01*
X95797020Y-98785582D01*
X95843106Y-98776700D01*
X98875922Y-98776700D01*
X98875924Y-98776700D01*
X99022598Y-98737399D01*
X99154102Y-98661475D01*
X100702558Y-97113019D01*
X100763881Y-97079534D01*
X100790239Y-97076700D01*
X105486189Y-97076700D01*
X105553228Y-97096385D01*
X105573870Y-97113019D01*
X105594601Y-97133750D01*
X105700036Y-97200000D01*
X105748295Y-97230323D01*
X105919625Y-97290274D01*
X105919630Y-97290275D01*
X106099996Y-97310597D01*
X106100000Y-97310597D01*
X106100004Y-97310597D01*
X106280369Y-97290275D01*
X106280372Y-97290274D01*
X106280375Y-97290274D01*
X106451705Y-97230323D01*
X106605399Y-97133750D01*
X106733750Y-97005399D01*
X106830323Y-96851705D01*
X106890274Y-96680375D01*
X106903133Y-96566249D01*
X106910597Y-96500003D01*
X106910597Y-96499996D01*
X106890275Y-96319630D01*
X106890274Y-96319625D01*
X106830322Y-96148293D01*
X106733750Y-95994601D01*
X106605398Y-95866249D01*
X106451706Y-95769677D01*
X106280374Y-95709725D01*
X106280369Y-95709724D01*
X106100004Y-95689403D01*
X106099996Y-95689403D01*
X105919630Y-95709724D01*
X105919625Y-95709725D01*
X105748293Y-95769677D01*
X105594601Y-95866249D01*
X105573870Y-95886981D01*
X105512547Y-95920466D01*
X105486189Y-95923300D01*
X100575924Y-95923300D01*
X100424076Y-95923300D01*
X100277402Y-95962601D01*
X100277401Y-95962601D01*
X100277399Y-95962602D01*
X100277398Y-95962602D01*
X100145901Y-96038522D01*
X100145895Y-96038527D01*
X98597442Y-97586981D01*
X98536119Y-97620466D01*
X98509761Y-97623300D01*
X94937938Y-97623300D01*
X94870899Y-97603615D01*
X94825144Y-97550811D01*
X94815200Y-97481653D01*
X94824382Y-97449490D01*
X94854701Y-97380369D01*
X94920336Y-97230736D01*
X94980364Y-96993692D01*
X94981714Y-96977398D01*
X95000557Y-96750005D01*
X95000557Y-96749994D01*
X94980365Y-96506316D01*
X94980363Y-96506304D01*
X94933089Y-96319625D01*
X94920336Y-96269264D01*
X94822111Y-96045333D01*
X94788966Y-95994601D01*
X94688370Y-95840625D01*
X94636871Y-95784683D01*
X94605949Y-95722029D01*
X94613809Y-95652603D01*
X94657956Y-95598447D01*
X94724373Y-95576756D01*
X94728101Y-95576700D01*
X95486189Y-95576700D01*
X95553228Y-95596385D01*
X95573870Y-95613019D01*
X95594601Y-95633750D01*
X95715513Y-95709725D01*
X95748295Y-95730323D01*
X95860762Y-95769677D01*
X95919625Y-95790274D01*
X95919630Y-95790275D01*
X96099996Y-95810597D01*
X96100000Y-95810597D01*
X96100004Y-95810597D01*
X96280369Y-95790275D01*
X96280372Y-95790274D01*
X96280375Y-95790274D01*
X96451705Y-95730323D01*
X96605399Y-95633750D01*
X96733750Y-95505399D01*
X96830323Y-95351705D01*
X96890274Y-95180375D01*
X96890275Y-95180369D01*
X96910597Y-95000003D01*
X96910597Y-94999996D01*
X96890275Y-94819630D01*
X96890274Y-94819625D01*
X96838319Y-94671146D01*
X96830323Y-94648295D01*
X96761349Y-94538525D01*
X96733750Y-94494601D01*
X96605398Y-94366249D01*
X96451706Y-94269677D01*
X96280374Y-94209725D01*
X96280369Y-94209724D01*
X96100004Y-94189403D01*
X96099996Y-94189403D01*
X95919630Y-94209724D01*
X95919625Y-94209725D01*
X95748293Y-94269677D01*
X95594601Y-94366249D01*
X95573870Y-94386981D01*
X95512547Y-94420466D01*
X95486189Y-94423300D01*
X87775924Y-94423300D01*
X87624076Y-94423300D01*
X87477402Y-94462601D01*
X87477401Y-94462601D01*
X87477399Y-94462602D01*
X87477398Y-94462602D01*
X87345901Y-94538522D01*
X87345895Y-94538527D01*
X85479419Y-96405002D01*
X85418096Y-96438487D01*
X85350784Y-96434363D01*
X85280372Y-96409725D01*
X85100004Y-96389403D01*
X85099996Y-96389403D01*
X84919630Y-96409724D01*
X84919625Y-96409725D01*
X84748293Y-96469677D01*
X84594601Y-96566249D01*
X84466249Y-96694601D01*
X84369677Y-96848293D01*
X84309725Y-97019625D01*
X84309724Y-97019630D01*
X84289403Y-97199996D01*
X84289403Y-97200003D01*
X84309724Y-97380369D01*
X84309725Y-97380374D01*
X84369677Y-97551706D01*
X84466249Y-97705398D01*
X84594601Y-97833750D01*
X84646322Y-97866249D01*
X84748295Y-97930323D01*
X84852300Y-97966716D01*
X84919625Y-97990274D01*
X84919630Y-97990275D01*
X85099996Y-98010597D01*
X85100000Y-98010597D01*
X85100004Y-98010597D01*
X85280369Y-97990275D01*
X85280372Y-97990274D01*
X85280375Y-97990274D01*
X85451705Y-97930323D01*
X85605399Y-97833750D01*
X85670624Y-97768523D01*
X85715872Y-97742401D01*
X85715089Y-97740509D01*
X85722591Y-97737400D01*
X85722598Y-97737399D01*
X85854102Y-97661475D01*
X87902558Y-95613019D01*
X87963881Y-95579534D01*
X87990239Y-95576700D01*
X92311899Y-95576700D01*
X92378938Y-95596385D01*
X92424693Y-95649189D01*
X92434637Y-95718347D01*
X92405612Y-95781903D01*
X92403129Y-95784683D01*
X92351629Y-95840625D01*
X92217888Y-96045333D01*
X92119663Y-96269265D01*
X92059636Y-96506304D01*
X92059634Y-96506316D01*
X92039443Y-96749994D01*
X92039443Y-96750005D01*
X92059634Y-96993683D01*
X92059636Y-96993695D01*
X92119663Y-97230734D01*
X92215618Y-97449490D01*
X92224521Y-97518790D01*
X92194544Y-97581902D01*
X92135204Y-97618789D01*
X92102062Y-97623300D01*
X91775924Y-97623300D01*
X91624076Y-97623300D01*
X91477402Y-97662601D01*
X91477401Y-97662601D01*
X91477399Y-97662602D01*
X91477398Y-97662602D01*
X91345901Y-97738522D01*
X91345895Y-97738527D01*
X89797442Y-99286981D01*
X89736119Y-99320466D01*
X89709761Y-99323300D01*
X85662926Y-99323300D01*
X85595887Y-99303615D01*
X85575245Y-99286981D01*
X84604104Y-98315840D01*
X84604098Y-98315835D01*
X84472600Y-98239915D01*
X84472599Y-98239914D01*
X84472598Y-98239914D01*
X84325924Y-98200613D01*
X84325923Y-98200613D01*
X84136498Y-98200613D01*
X84069459Y-98180928D01*
X84048817Y-98164294D01*
X84028085Y-98143562D01*
X83874393Y-98046990D01*
X83703061Y-97987038D01*
X83703056Y-97987037D01*
X83522691Y-97966716D01*
X83522683Y-97966716D01*
X83342317Y-97987037D01*
X83342309Y-97987039D01*
X83178806Y-98044251D01*
X83109027Y-98047812D01*
X83048400Y-98013083D01*
X83038174Y-97999989D01*
X83038097Y-98000051D01*
X83033751Y-97994602D01*
X82905398Y-97866249D01*
X82751706Y-97769677D01*
X82580374Y-97709725D01*
X82580369Y-97709724D01*
X82400004Y-97689403D01*
X82399996Y-97689403D01*
X82219630Y-97709724D01*
X82219625Y-97709725D01*
X82048293Y-97769677D01*
X81894601Y-97866249D01*
X81766249Y-97994601D01*
X81669677Y-98148293D01*
X81609725Y-98319625D01*
X81609724Y-98319630D01*
X81589403Y-98499996D01*
X81589403Y-98500003D01*
X81609724Y-98680369D01*
X81609725Y-98680374D01*
X81669677Y-98851706D01*
X81711551Y-98918347D01*
X81766250Y-99005399D01*
X81894601Y-99133750D01*
X82048295Y-99230323D01*
X82210214Y-99286981D01*
X82219625Y-99290274D01*
X82219630Y-99290275D01*
X82351269Y-99305106D01*
X82415684Y-99332172D01*
X82425068Y-99340645D01*
X82856811Y-99772388D01*
X82856812Y-99772389D01*
X82856814Y-99772390D01*
X82862388Y-99775608D01*
X82988315Y-99848312D01*
X83134989Y-99887613D01*
X83220674Y-99887613D01*
X83287713Y-99907298D01*
X83308355Y-99923932D01*
X84926711Y-101542288D01*
X84960196Y-101603611D01*
X84956072Y-101670923D01*
X84903020Y-101822537D01*
X84903020Y-101822540D01*
X84899960Y-101849698D01*
X84872895Y-101914111D01*
X84815301Y-101953667D01*
X84776740Y-101959815D01*
X82657806Y-101959815D01*
X82590767Y-101940130D01*
X82570125Y-101923496D01*
X81561924Y-100915294D01*
X80961927Y-100315296D01*
X80961926Y-100315295D01*
X80817543Y-100218822D01*
X80657128Y-100152377D01*
X80657118Y-100152374D01*
X80486823Y-100118500D01*
X80486821Y-100118500D01*
X80313179Y-100118500D01*
X80313177Y-100118500D01*
X80142881Y-100152374D01*
X80142871Y-100152377D01*
X79982456Y-100218822D01*
X79838073Y-100315295D01*
X79715295Y-100438073D01*
X79618822Y-100582456D01*
X79552377Y-100742871D01*
X79552374Y-100742881D01*
X79518500Y-100913176D01*
X79518500Y-100913179D01*
X79518500Y-101086821D01*
X79518500Y-101086823D01*
X79518499Y-101086823D01*
X79552374Y-101257118D01*
X79552377Y-101257128D01*
X79618822Y-101417543D01*
X79715295Y-101561926D01*
X79715296Y-101561927D01*
X80016159Y-101862789D01*
X80315294Y-102161924D01*
X80401204Y-102247834D01*
X80486981Y-102333610D01*
X80520466Y-102394933D01*
X80523300Y-102421291D01*
X80523300Y-103209761D01*
X80503615Y-103276800D01*
X80486981Y-103297442D01*
X79038527Y-104745895D01*
X79038522Y-104745901D01*
X78962602Y-104877398D01*
X78962602Y-104877399D01*
X78962601Y-104877401D01*
X78962601Y-104877402D01*
X78953940Y-104909725D01*
X78923300Y-105024076D01*
X78923300Y-107599300D01*
X78903615Y-107666339D01*
X78850811Y-107712094D01*
X78799300Y-107723300D01*
X78475924Y-107723300D01*
X78324076Y-107723300D01*
X78177402Y-107762601D01*
X78177401Y-107762601D01*
X78177399Y-107762602D01*
X78177398Y-107762602D01*
X78045901Y-107838522D01*
X78045895Y-107838527D01*
X74738421Y-111146000D01*
X74677098Y-111179485D01*
X74664626Y-111181539D01*
X74636735Y-111184682D01*
X74481651Y-111238948D01*
X74342536Y-111326360D01*
X74226360Y-111442536D01*
X74138947Y-111581652D01*
X74084682Y-111736734D01*
X74084681Y-111736738D01*
X74066287Y-111899996D01*
X68155500Y-111899996D01*
X68155500Y-111874505D01*
X68175185Y-111807466D01*
X68195124Y-111783638D01*
X68206511Y-111773065D01*
X68512823Y-111488632D01*
X68575344Y-111457441D01*
X68597199Y-111455500D01*
X69998640Y-111455500D01*
X70008786Y-111454955D01*
X70052678Y-111452603D01*
X70052686Y-111452602D01*
X70052688Y-111452602D01*
X70052689Y-111452602D01*
X70059682Y-111451849D01*
X70079036Y-111449769D01*
X70079046Y-111449767D01*
X70079049Y-111449767D01*
X70088648Y-111448211D01*
X70132448Y-111441114D01*
X70267257Y-111390832D01*
X70328580Y-111357347D01*
X70443761Y-111271123D01*
X71171123Y-110543761D01*
X71207288Y-110503500D01*
X71223922Y-110482858D01*
X71255567Y-110438974D01*
X71315338Y-110308097D01*
X71335023Y-110241058D01*
X71335024Y-110241054D01*
X71355500Y-110098638D01*
X71355500Y-107551362D01*
X71352603Y-107497322D01*
X71349769Y-107470964D01*
X71341114Y-107417552D01*
X71290832Y-107282743D01*
X71257347Y-107221420D01*
X71171123Y-107106239D01*
X71171118Y-107106234D01*
X71171113Y-107106228D01*
X70493776Y-106428892D01*
X70493770Y-106428886D01*
X70493761Y-106428877D01*
X70483467Y-106419630D01*
X70453519Y-106392728D01*
X70453507Y-106392718D01*
X70432856Y-106376076D01*
X70388974Y-106344433D01*
X70258100Y-106284663D01*
X70191055Y-106264976D01*
X70134883Y-106256900D01*
X70048638Y-106244500D01*
X62601362Y-106244500D01*
X62601360Y-106244500D01*
X62547311Y-106247397D01*
X62547310Y-106247397D01*
X62520977Y-106250229D01*
X62520950Y-106250232D01*
X62467554Y-106258885D01*
X62467552Y-106258885D01*
X62332747Y-106309166D01*
X62271422Y-106342651D01*
X62156240Y-106428876D01*
X62156228Y-106428886D01*
X61628892Y-106956223D01*
X61628855Y-106956262D01*
X61592728Y-106996480D01*
X61592718Y-106996492D01*
X61576076Y-107017143D01*
X61544433Y-107061025D01*
X61484663Y-107191899D01*
X61464976Y-107258944D01*
X61444500Y-107401363D01*
X61444500Y-109998640D01*
X61447397Y-110052679D01*
X61449587Y-110073053D01*
X61437179Y-110141813D01*
X61389568Y-110192948D01*
X61321868Y-110210226D01*
X61255574Y-110188159D01*
X61238616Y-110173986D01*
X58667819Y-107603189D01*
X58634334Y-107541866D01*
X58631500Y-107515508D01*
X58631500Y-89100406D01*
X58651185Y-89033367D01*
X58703989Y-88987612D01*
X58773147Y-88977668D01*
X58836703Y-89006693D01*
X58867220Y-89046604D01*
X58869675Y-89051703D01*
X58966249Y-89205398D01*
X58966250Y-89205399D01*
X59094601Y-89333750D01*
X59248295Y-89430323D01*
X59419625Y-89490274D01*
X59419630Y-89490275D01*
X59599996Y-89510597D01*
X59600000Y-89510597D01*
X59600004Y-89510597D01*
X59780369Y-89490275D01*
X59780372Y-89490274D01*
X59780375Y-89490274D01*
X59951705Y-89430323D01*
X60105399Y-89333750D01*
X60233750Y-89205399D01*
X60330323Y-89051705D01*
X60390274Y-88880375D01*
X60390275Y-88880369D01*
X60410597Y-88700003D01*
X60410597Y-88699996D01*
X60390275Y-88519630D01*
X60390274Y-88519625D01*
X60332109Y-88353399D01*
X60330323Y-88348295D01*
X60321892Y-88334878D01*
X60233750Y-88194601D01*
X60213019Y-88173870D01*
X60179534Y-88112547D01*
X60176700Y-88086189D01*
X60176700Y-73372767D01*
X60195706Y-73306795D01*
X60199978Y-73299996D01*
X63266287Y-73299996D01*
X63266287Y-73300003D01*
X63284681Y-73463261D01*
X63284682Y-73463265D01*
X63338947Y-73618347D01*
X63420176Y-73747622D01*
X63426360Y-73757463D01*
X63542537Y-73873640D01*
X63594240Y-73906127D01*
X63681653Y-73961053D01*
X63753113Y-73986057D01*
X63799841Y-74015418D01*
X65453981Y-75669558D01*
X65487466Y-75730881D01*
X65490300Y-75757239D01*
X65490300Y-83086189D01*
X65470615Y-83153228D01*
X65453981Y-83173870D01*
X65433249Y-83194601D01*
X65336677Y-83348293D01*
X65276725Y-83519625D01*
X65276724Y-83519630D01*
X65256403Y-83699996D01*
X65256403Y-83700003D01*
X65276724Y-83880369D01*
X65276725Y-83880374D01*
X65336677Y-84051706D01*
X65433249Y-84205398D01*
X65561601Y-84333750D01*
X65633233Y-84378760D01*
X65715295Y-84430323D01*
X65886625Y-84490274D01*
X65886630Y-84490275D01*
X66066996Y-84510597D01*
X66067000Y-84510597D01*
X66067004Y-84510597D01*
X66247369Y-84490275D01*
X66247372Y-84490274D01*
X66247375Y-84490274D01*
X66418705Y-84430323D01*
X66572399Y-84333750D01*
X66700750Y-84205399D01*
X66797323Y-84051705D01*
X66857274Y-83880375D01*
X66871881Y-83750731D01*
X66877597Y-83700003D01*
X66877597Y-83699996D01*
X66857275Y-83519630D01*
X66857274Y-83519625D01*
X66797322Y-83348293D01*
X66700750Y-83194601D01*
X66680019Y-83173870D01*
X66646534Y-83112547D01*
X66643700Y-83086189D01*
X66643700Y-75391078D01*
X66643700Y-75391076D01*
X66604399Y-75244402D01*
X66602330Y-75240819D01*
X66528477Y-75112901D01*
X66528472Y-75112895D01*
X64766697Y-73351120D01*
X64733212Y-73289797D01*
X64731158Y-73277322D01*
X64715318Y-73136738D01*
X64715317Y-73136734D01*
X64695596Y-73080375D01*
X64661053Y-72981654D01*
X64573640Y-72842537D01*
X64457463Y-72726360D01*
X64446744Y-72719625D01*
X64318347Y-72638947D01*
X64163265Y-72584682D01*
X64163261Y-72584681D01*
X64000004Y-72566287D01*
X63999996Y-72566287D01*
X63836738Y-72584681D01*
X63836734Y-72584682D01*
X63681652Y-72638947D01*
X63542536Y-72726360D01*
X63426360Y-72842536D01*
X63338947Y-72981652D01*
X63284682Y-73136734D01*
X63284681Y-73136738D01*
X63266287Y-73299996D01*
X60199978Y-73299996D01*
X60230323Y-73251705D01*
X60270553Y-73136734D01*
X60290272Y-73080382D01*
X60290275Y-73080369D01*
X60310597Y-72900003D01*
X60310597Y-72899996D01*
X60290275Y-72719630D01*
X60290274Y-72719625D01*
X60230323Y-72548295D01*
X60193866Y-72490275D01*
X60133750Y-72394601D01*
X60005398Y-72266249D01*
X59851706Y-72169677D01*
X59680374Y-72109725D01*
X59680369Y-72109724D01*
X59500004Y-72089403D01*
X59499996Y-72089403D01*
X59319630Y-72109724D01*
X59319625Y-72109725D01*
X59148293Y-72169677D01*
X58994601Y-72266249D01*
X58866249Y-72394601D01*
X58860494Y-72403761D01*
X58808159Y-72450052D01*
X58739105Y-72460700D01*
X58675257Y-72432325D01*
X58636885Y-72373935D01*
X58631500Y-72337789D01*
X58631500Y-69624076D01*
X68923300Y-69624076D01*
X68923300Y-89775923D01*
X68962602Y-89922600D01*
X68962602Y-89922601D01*
X69038522Y-90054098D01*
X69038527Y-90054104D01*
X70486981Y-91502558D01*
X70520466Y-91563881D01*
X70523300Y-91590239D01*
X70523300Y-94086189D01*
X70503615Y-94153228D01*
X70486981Y-94173870D01*
X70466249Y-94194601D01*
X70369677Y-94348293D01*
X70309725Y-94519625D01*
X70309724Y-94519630D01*
X70289403Y-94699996D01*
X70289403Y-94700003D01*
X70309724Y-94880369D01*
X70309725Y-94880374D01*
X70369677Y-95051706D01*
X70466249Y-95205398D01*
X70594601Y-95333750D01*
X70651776Y-95369676D01*
X70748295Y-95430323D01*
X70919625Y-95490274D01*
X70919628Y-95490274D01*
X70924388Y-95491361D01*
X70985369Y-95525465D01*
X71018232Y-95587124D01*
X71012542Y-95656761D01*
X70984486Y-95699935D01*
X69945898Y-96738525D01*
X69838527Y-96845895D01*
X69838522Y-96845901D01*
X69762602Y-96977398D01*
X69762602Y-96977399D01*
X69762601Y-96977401D01*
X69762601Y-96977402D01*
X69751286Y-97019630D01*
X69723300Y-97124076D01*
X69723300Y-104016849D01*
X69703615Y-104083888D01*
X69665273Y-104121842D01*
X69594604Y-104166247D01*
X69594602Y-104166248D01*
X69466249Y-104294601D01*
X69369677Y-104448293D01*
X69309725Y-104619625D01*
X69309724Y-104619630D01*
X69289403Y-104799996D01*
X69289403Y-104800003D01*
X69309724Y-104980369D01*
X69309725Y-104980374D01*
X69369677Y-105151706D01*
X69466249Y-105305398D01*
X69594601Y-105433750D01*
X69731267Y-105519624D01*
X69748295Y-105530323D01*
X69919625Y-105590274D01*
X69919630Y-105590275D01*
X70099996Y-105610597D01*
X70100000Y-105610597D01*
X70100004Y-105610597D01*
X70280369Y-105590275D01*
X70280372Y-105590274D01*
X70280375Y-105590274D01*
X70451705Y-105530323D01*
X70605399Y-105433750D01*
X70733750Y-105305399D01*
X70830323Y-105151705D01*
X70890274Y-104980375D01*
X70890275Y-104980369D01*
X70910597Y-104800003D01*
X70910597Y-104799996D01*
X70892135Y-104636146D01*
X70890274Y-104619625D01*
X70883658Y-104600717D01*
X70876700Y-104559763D01*
X70876700Y-103599089D01*
X70896385Y-103532050D01*
X70949189Y-103486295D01*
X71018347Y-103476351D01*
X71041655Y-103482048D01*
X71136729Y-103515316D01*
X71136732Y-103515316D01*
X71136733Y-103515317D01*
X71136734Y-103515317D01*
X71136738Y-103515318D01*
X71299996Y-103533713D01*
X71300000Y-103533713D01*
X71300004Y-103533713D01*
X71463261Y-103515318D01*
X71463263Y-103515317D01*
X71463267Y-103515317D01*
X71618346Y-103461053D01*
X71757463Y-103373640D01*
X71873640Y-103257463D01*
X71961053Y-103118346D01*
X72015317Y-102963267D01*
X72018459Y-102935377D01*
X72045523Y-102870965D01*
X72053986Y-102861589D01*
X72111475Y-102804102D01*
X72187399Y-102672598D01*
X72226700Y-102525924D01*
X72226700Y-102374076D01*
X72226700Y-102266498D01*
X72246385Y-102199459D01*
X72299189Y-102153704D01*
X72368346Y-102143760D01*
X72450000Y-102155500D01*
X72450003Y-102155500D01*
X73021886Y-102155500D01*
X73021889Y-102155500D01*
X73164304Y-102135024D01*
X73302259Y-102094517D01*
X73433137Y-102034747D01*
X73434823Y-102033664D01*
X73548475Y-101960624D01*
X73549915Y-101959804D01*
X73554098Y-101957011D01*
X73635101Y-101886820D01*
X73662832Y-101862791D01*
X73756986Y-101754130D01*
X73756993Y-101754118D01*
X73759639Y-101750586D01*
X73761342Y-101751861D01*
X73807525Y-101711740D01*
X73876670Y-101701708D01*
X73940263Y-101730651D01*
X73964174Y-101758495D01*
X74026360Y-101857463D01*
X74142537Y-101973640D01*
X74224821Y-102025343D01*
X74276201Y-102057627D01*
X74281654Y-102061053D01*
X74436733Y-102115317D01*
X74436734Y-102115317D01*
X74436738Y-102115318D01*
X74599996Y-102133713D01*
X74600000Y-102133713D01*
X74600004Y-102133713D01*
X74763261Y-102115318D01*
X74763262Y-102115318D01*
X74763263Y-102115317D01*
X74763267Y-102115317D01*
X74917960Y-102061187D01*
X74987737Y-102057627D01*
X75048365Y-102092356D01*
X75080592Y-102154349D01*
X75082913Y-102178230D01*
X75082913Y-103783689D01*
X75082913Y-103935537D01*
X75106637Y-104024078D01*
X75122215Y-104082213D01*
X75122215Y-104082214D01*
X75198135Y-104213711D01*
X75198140Y-104213717D01*
X75286981Y-104302558D01*
X75320466Y-104363881D01*
X75323300Y-104390239D01*
X75323300Y-105986189D01*
X75303615Y-106053228D01*
X75286981Y-106073870D01*
X75266249Y-106094601D01*
X75169677Y-106248293D01*
X75109725Y-106419625D01*
X75109724Y-106419630D01*
X75089403Y-106599996D01*
X75089403Y-106600003D01*
X75109724Y-106780369D01*
X75109725Y-106780374D01*
X75169677Y-106951706D01*
X75266249Y-107105398D01*
X75394601Y-107233750D01*
X75544333Y-107327834D01*
X75548295Y-107330323D01*
X75719625Y-107390274D01*
X75719630Y-107390275D01*
X75899996Y-107410597D01*
X75900000Y-107410597D01*
X75900004Y-107410597D01*
X76080369Y-107390275D01*
X76080372Y-107390274D01*
X76080375Y-107390274D01*
X76251705Y-107330323D01*
X76405399Y-107233750D01*
X76533750Y-107105399D01*
X76630323Y-106951705D01*
X76690274Y-106780375D01*
X76703133Y-106666250D01*
X76710597Y-106600003D01*
X76710597Y-106599996D01*
X76690275Y-106419630D01*
X76690274Y-106419625D01*
X76675036Y-106376078D01*
X76630323Y-106248295D01*
X76627938Y-106244500D01*
X76533750Y-106094601D01*
X76513019Y-106073870D01*
X76479534Y-106012547D01*
X76476700Y-105986189D01*
X76476700Y-104024078D01*
X76476700Y-104024076D01*
X76437399Y-103877402D01*
X76423944Y-103854098D01*
X76361477Y-103745901D01*
X76361472Y-103745895D01*
X76272632Y-103657055D01*
X76239147Y-103595732D01*
X76236313Y-103569374D01*
X76236313Y-93699996D01*
X78089403Y-93699996D01*
X78089403Y-93700003D01*
X78109724Y-93880369D01*
X78109725Y-93880374D01*
X78169677Y-94051706D01*
X78266249Y-94205398D01*
X78394601Y-94333750D01*
X78532607Y-94420466D01*
X78548295Y-94430323D01*
X78640543Y-94462602D01*
X78719625Y-94490274D01*
X78719630Y-94490275D01*
X78899996Y-94510597D01*
X78900000Y-94510597D01*
X78900004Y-94510597D01*
X79080369Y-94490275D01*
X79080372Y-94490274D01*
X79080375Y-94490274D01*
X79251705Y-94430323D01*
X79405399Y-94333750D01*
X79426130Y-94313019D01*
X79487453Y-94279534D01*
X79513811Y-94276700D01*
X80186189Y-94276700D01*
X80253228Y-94296385D01*
X80273870Y-94313019D01*
X80294601Y-94333750D01*
X80432607Y-94420466D01*
X80448295Y-94430323D01*
X80540543Y-94462602D01*
X80619625Y-94490274D01*
X80619630Y-94490275D01*
X80799996Y-94510597D01*
X80800000Y-94510597D01*
X80800004Y-94510597D01*
X80980369Y-94490275D01*
X80980372Y-94490274D01*
X80980375Y-94490274D01*
X81151705Y-94430323D01*
X81305399Y-94333750D01*
X81433750Y-94205399D01*
X81530323Y-94051705D01*
X81590274Y-93880375D01*
X81591450Y-93869944D01*
X81600150Y-93792719D01*
X81627215Y-93728305D01*
X81682413Y-93689560D01*
X81851705Y-93630323D01*
X82005399Y-93533750D01*
X82026130Y-93513019D01*
X82087453Y-93479534D01*
X82113811Y-93476700D01*
X82308360Y-93476700D01*
X82375399Y-93496385D01*
X82421154Y-93549189D01*
X82431098Y-93618347D01*
X82402073Y-93681903D01*
X82396041Y-93688381D01*
X80825068Y-95259353D01*
X80763745Y-95292838D01*
X80751271Y-95294892D01*
X80619630Y-95309724D01*
X80448295Y-95369676D01*
X80294601Y-95466249D01*
X80166249Y-95594601D01*
X80069677Y-95748293D01*
X80009725Y-95919625D01*
X80009724Y-95919630D01*
X79989403Y-96099996D01*
X79989403Y-96100003D01*
X80009724Y-96280369D01*
X80009725Y-96280374D01*
X80069677Y-96451706D01*
X80166249Y-96605398D01*
X80294601Y-96733750D01*
X80320470Y-96750005D01*
X80448295Y-96830323D01*
X80619625Y-96890274D01*
X80619630Y-96890275D01*
X80799996Y-96910597D01*
X80800000Y-96910597D01*
X80800004Y-96910597D01*
X80980369Y-96890275D01*
X80980372Y-96890274D01*
X80980375Y-96890274D01*
X81151705Y-96830323D01*
X81305399Y-96733750D01*
X81433750Y-96605399D01*
X81530323Y-96451705D01*
X81590274Y-96280375D01*
X81605106Y-96148728D01*
X81632172Y-96084315D01*
X81640635Y-96074940D01*
X83668958Y-94046619D01*
X83730281Y-94013134D01*
X83756639Y-94010300D01*
X95442322Y-94010300D01*
X95442324Y-94010300D01*
X95588998Y-93970999D01*
X95720502Y-93895075D01*
X96372177Y-93243399D01*
X98645500Y-93243399D01*
X98645500Y-93456601D01*
X98660165Y-93549189D01*
X98678853Y-93667180D01*
X98678853Y-93667183D01*
X98744734Y-93869944D01*
X98744736Y-93869947D01*
X98841528Y-94059913D01*
X98966846Y-94232397D01*
X99117603Y-94383154D01*
X99290087Y-94508472D01*
X99480053Y-94605264D01*
X99480055Y-94605265D01*
X99669182Y-94666715D01*
X99682821Y-94671147D01*
X99893399Y-94704500D01*
X99893400Y-94704500D01*
X100106600Y-94704500D01*
X100106601Y-94704500D01*
X100317179Y-94671147D01*
X100317182Y-94671146D01*
X100317183Y-94671146D01*
X100519944Y-94605265D01*
X100519944Y-94605264D01*
X100519947Y-94605264D01*
X100709913Y-94508472D01*
X100882397Y-94383154D01*
X101033154Y-94232397D01*
X101158472Y-94059913D01*
X101255264Y-93869947D01*
X101313643Y-93690274D01*
X101321146Y-93667183D01*
X101321146Y-93667182D01*
X101321147Y-93667179D01*
X101354500Y-93456601D01*
X101354500Y-93243399D01*
X101321147Y-93032821D01*
X101321146Y-93032817D01*
X101321146Y-93032816D01*
X101255265Y-92830055D01*
X101255263Y-92830052D01*
X101250438Y-92820581D01*
X101158472Y-92640087D01*
X101033154Y-92467603D01*
X100882397Y-92316846D01*
X100709913Y-92191528D01*
X100519947Y-92094736D01*
X100519944Y-92094734D01*
X100317181Y-92028853D01*
X100176793Y-92006617D01*
X100106601Y-91995500D01*
X99893399Y-91995500D01*
X99823206Y-92006617D01*
X99682819Y-92028853D01*
X99682816Y-92028853D01*
X99480055Y-92094734D01*
X99480052Y-92094736D01*
X99290086Y-92191528D01*
X99117601Y-92316847D01*
X98966847Y-92467601D01*
X98841528Y-92640086D01*
X98744736Y-92830052D01*
X98744734Y-92830055D01*
X98678853Y-93032816D01*
X98678853Y-93032819D01*
X98667640Y-93103615D01*
X98645500Y-93243399D01*
X96372177Y-93243399D01*
X97874932Y-91740643D01*
X97936253Y-91707160D01*
X97948726Y-91705106D01*
X97988963Y-91700573D01*
X98080369Y-91690275D01*
X98080372Y-91690274D01*
X98080375Y-91690274D01*
X98251705Y-91630323D01*
X98405399Y-91533750D01*
X98533750Y-91405399D01*
X98630323Y-91251705D01*
X98690274Y-91080375D01*
X98696617Y-91024078D01*
X98710597Y-90900003D01*
X98710597Y-90899996D01*
X98690275Y-90719630D01*
X98690274Y-90719625D01*
X98630322Y-90548293D01*
X98533750Y-90394601D01*
X98405398Y-90266249D01*
X98251706Y-90169677D01*
X98080374Y-90109725D01*
X98080369Y-90109724D01*
X97900004Y-90089403D01*
X97899996Y-90089403D01*
X97719630Y-90109724D01*
X97719625Y-90109725D01*
X97548293Y-90169677D01*
X97394601Y-90266249D01*
X97266249Y-90394601D01*
X97169676Y-90548295D01*
X97109724Y-90719630D01*
X97094892Y-90851271D01*
X97067825Y-90915685D01*
X97059353Y-90925068D01*
X95163842Y-92820581D01*
X95102519Y-92854066D01*
X95076161Y-92856900D01*
X83916554Y-92856900D01*
X83849515Y-92837215D01*
X83803760Y-92784411D01*
X83793334Y-92746785D01*
X83790274Y-92719625D01*
X83730323Y-92548295D01*
X83687869Y-92480731D01*
X83633750Y-92394601D01*
X83505398Y-92266249D01*
X83351706Y-92169677D01*
X83180374Y-92109725D01*
X83180369Y-92109724D01*
X83000004Y-92089403D01*
X82999996Y-92089403D01*
X82819630Y-92109724D01*
X82819625Y-92109725D01*
X82648293Y-92169677D01*
X82494601Y-92266249D01*
X82473870Y-92286981D01*
X82412547Y-92320466D01*
X82386189Y-92323300D01*
X82113811Y-92323300D01*
X82046772Y-92303615D01*
X82026130Y-92286981D01*
X82005398Y-92266249D01*
X81851706Y-92169677D01*
X81680374Y-92109725D01*
X81680369Y-92109724D01*
X81500004Y-92089403D01*
X81499996Y-92089403D01*
X81319630Y-92109724D01*
X81319625Y-92109725D01*
X81148293Y-92169677D01*
X80994601Y-92266249D01*
X80866249Y-92394601D01*
X80769677Y-92548293D01*
X80709725Y-92719625D01*
X80709724Y-92719630D01*
X80699849Y-92807282D01*
X80672783Y-92871696D01*
X80617584Y-92910440D01*
X80563236Y-92929457D01*
X80448295Y-92969676D01*
X80294601Y-93066249D01*
X80273870Y-93086981D01*
X80212547Y-93120466D01*
X80186189Y-93123300D01*
X79513811Y-93123300D01*
X79446772Y-93103615D01*
X79426130Y-93086981D01*
X79405398Y-93066249D01*
X79251706Y-92969677D01*
X79080374Y-92909725D01*
X79080369Y-92909724D01*
X78900004Y-92889403D01*
X78899996Y-92889403D01*
X78719630Y-92909724D01*
X78719625Y-92909725D01*
X78548293Y-92969677D01*
X78394601Y-93066249D01*
X78266249Y-93194601D01*
X78169677Y-93348293D01*
X78109725Y-93519625D01*
X78109724Y-93519630D01*
X78089403Y-93699996D01*
X76236313Y-93699996D01*
X76236313Y-70983691D01*
X76236313Y-70983689D01*
X76197012Y-70837015D01*
X76121088Y-70705511D01*
X76013715Y-70598138D01*
X75925848Y-70510271D01*
X75892363Y-70448948D01*
X75897347Y-70379256D01*
X75939219Y-70323323D01*
X75999646Y-70299370D01*
X76080370Y-70290275D01*
X76080373Y-70290274D01*
X76080375Y-70290274D01*
X76251705Y-70230323D01*
X76405399Y-70133750D01*
X76526130Y-70013019D01*
X76587453Y-69979534D01*
X76613811Y-69976700D01*
X79075922Y-69976700D01*
X79075924Y-69976700D01*
X79222598Y-69937399D01*
X79354102Y-69861475D01*
X80202558Y-69013019D01*
X80263881Y-68979534D01*
X80290239Y-68976700D01*
X98309761Y-68976700D01*
X98376800Y-68996385D01*
X98397442Y-69013019D01*
X100986981Y-71602558D01*
X101020466Y-71663881D01*
X101023300Y-71690239D01*
X101023300Y-72286189D01*
X101003615Y-72353228D01*
X100986421Y-72374427D01*
X100986342Y-72374505D01*
X100924807Y-72407599D01*
X100855148Y-72402170D01*
X100799483Y-72359944D01*
X100796118Y-72355156D01*
X100784707Y-72338078D01*
X100784703Y-72338073D01*
X100661926Y-72215296D01*
X100661922Y-72215293D01*
X100517553Y-72118828D01*
X100517540Y-72118821D01*
X100357128Y-72052377D01*
X100357118Y-72052374D01*
X100186822Y-72018500D01*
X100186820Y-72018500D01*
X91465487Y-72018500D01*
X91418037Y-72009062D01*
X91410819Y-72006072D01*
X91390338Y-72001998D01*
X91328428Y-71969611D01*
X91299973Y-71927836D01*
X91281175Y-71882453D01*
X91281173Y-71882450D01*
X91281171Y-71882446D01*
X91184706Y-71738077D01*
X91184703Y-71738073D01*
X91061926Y-71615296D01*
X91061922Y-71615293D01*
X90917553Y-71518828D01*
X90917540Y-71518821D01*
X90757128Y-71452377D01*
X90757118Y-71452374D01*
X90586822Y-71418500D01*
X90586820Y-71418500D01*
X90413180Y-71418500D01*
X90413178Y-71418500D01*
X90242881Y-71452374D01*
X90242871Y-71452377D01*
X90082459Y-71518821D01*
X90082446Y-71518828D01*
X89938077Y-71615293D01*
X89938073Y-71615296D01*
X89815296Y-71738073D01*
X89815293Y-71738077D01*
X89718828Y-71882446D01*
X89718823Y-71882456D01*
X89713360Y-71895647D01*
X89669521Y-71950051D01*
X89603227Y-71972118D01*
X89598798Y-71972197D01*
X81789863Y-71972197D01*
X81619566Y-72006071D01*
X81619556Y-72006074D01*
X81459144Y-72072518D01*
X81459131Y-72072525D01*
X81314762Y-72168990D01*
X81314758Y-72168993D01*
X81191981Y-72291770D01*
X81191978Y-72291774D01*
X81095513Y-72436143D01*
X81095506Y-72436156D01*
X81029062Y-72596568D01*
X81029059Y-72596578D01*
X80995185Y-72766874D01*
X80995185Y-72766877D01*
X80995185Y-72940517D01*
X80995185Y-72940519D01*
X80995184Y-72940519D01*
X81029059Y-73110815D01*
X81029062Y-73110825D01*
X81095506Y-73271237D01*
X81095513Y-73271250D01*
X81191978Y-73415619D01*
X81191981Y-73415623D01*
X81314758Y-73538400D01*
X81314762Y-73538403D01*
X81459131Y-73634868D01*
X81459144Y-73634875D01*
X81570931Y-73681178D01*
X81619561Y-73701321D01*
X81619565Y-73701321D01*
X81619566Y-73701322D01*
X81789862Y-73735197D01*
X81789865Y-73735197D01*
X83673900Y-73735197D01*
X83740939Y-73754882D01*
X83786694Y-73807686D01*
X83797900Y-73859197D01*
X83797900Y-75279268D01*
X83838933Y-75432402D01*
X83888552Y-75518346D01*
X83918200Y-75569698D01*
X86130302Y-77781800D01*
X86267598Y-77861067D01*
X86420732Y-77902100D01*
X86579268Y-77902100D01*
X86711589Y-77902100D01*
X86778628Y-77921785D01*
X86788744Y-77929937D01*
X86789163Y-77929413D01*
X86794601Y-77933750D01*
X86934431Y-78021612D01*
X86948295Y-78030323D01*
X87104844Y-78085102D01*
X87119625Y-78090274D01*
X87119630Y-78090275D01*
X87299996Y-78110597D01*
X87300000Y-78110597D01*
X87300004Y-78110597D01*
X87480369Y-78090275D01*
X87480372Y-78090274D01*
X87480375Y-78090274D01*
X87651705Y-78030323D01*
X87805399Y-77933750D01*
X87933750Y-77805399D01*
X88030323Y-77651705D01*
X88090274Y-77480375D01*
X88108766Y-77316250D01*
X88110597Y-77300003D01*
X88110597Y-77299996D01*
X88090275Y-77119630D01*
X88090274Y-77119625D01*
X88064087Y-77044787D01*
X88030323Y-76948295D01*
X88024543Y-76939097D01*
X87933750Y-76794601D01*
X87805398Y-76666249D01*
X87697078Y-76598187D01*
X87650787Y-76545852D01*
X87640139Y-76476799D01*
X87668514Y-76412950D01*
X87675356Y-76405525D01*
X88840064Y-75240819D01*
X88901387Y-75207334D01*
X88927745Y-75204500D01*
X89792330Y-75204500D01*
X89792335Y-75204500D01*
X89890957Y-75194786D01*
X89938408Y-75185347D01*
X90033234Y-75156581D01*
X90114013Y-75123121D01*
X90158366Y-75104750D01*
X90245774Y-75058029D01*
X90286001Y-75031149D01*
X90362594Y-74968289D01*
X90436289Y-74894594D01*
X90499152Y-74817996D01*
X90526032Y-74777768D01*
X90572747Y-74690372D01*
X90624581Y-74565235D01*
X90653348Y-74470405D01*
X90662787Y-74422952D01*
X90672500Y-74324334D01*
X90672500Y-74206701D01*
X90679458Y-74165747D01*
X90688458Y-74140025D01*
X90715317Y-74063267D01*
X90715318Y-74063261D01*
X90733713Y-73900003D01*
X90733713Y-73899998D01*
X90730680Y-73873082D01*
X90742734Y-73804260D01*
X90790083Y-73752880D01*
X90853900Y-73735197D01*
X90888210Y-73735197D01*
X90935659Y-73744634D01*
X90942876Y-73747624D01*
X90979364Y-73754882D01*
X91113176Y-73781500D01*
X91113179Y-73781500D01*
X91113180Y-73781500D01*
X91342287Y-73781500D01*
X91409326Y-73801185D01*
X91455081Y-73853989D01*
X91463631Y-73893292D01*
X91465507Y-73893081D01*
X91484682Y-74063266D01*
X91484682Y-74063269D01*
X91511541Y-74140025D01*
X91518500Y-74180980D01*
X91518500Y-74324331D01*
X91528212Y-74422950D01*
X91528213Y-74422954D01*
X91537652Y-74470406D01*
X91550084Y-74511390D01*
X91566418Y-74565236D01*
X91618244Y-74690354D01*
X91618250Y-74690368D01*
X91664960Y-74777758D01*
X91664972Y-74777778D01*
X91691830Y-74817974D01*
X91691847Y-74817997D01*
X91754699Y-74894582D01*
X91754701Y-74894584D01*
X91754705Y-74894588D01*
X91754710Y-74894594D01*
X91828405Y-74968289D01*
X91905003Y-75031152D01*
X91937117Y-75052610D01*
X91945229Y-75058031D01*
X91945231Y-75058032D01*
X92032627Y-75104747D01*
X92157764Y-75156581D01*
X92252594Y-75185348D01*
X92300047Y-75194787D01*
X92398665Y-75204500D01*
X93263254Y-75204500D01*
X93330293Y-75224185D01*
X93350935Y-75240819D01*
X94049530Y-75939414D01*
X94083015Y-76000737D01*
X94078031Y-76070429D01*
X94036159Y-76126362D01*
X93970695Y-76150779D01*
X93902422Y-76135927D01*
X93895877Y-76132089D01*
X93804968Y-76074967D01*
X93633636Y-76015015D01*
X93633631Y-76015014D01*
X93453266Y-75994693D01*
X93453258Y-75994693D01*
X93272892Y-76015014D01*
X93272887Y-76015015D01*
X93101555Y-76074967D01*
X92947863Y-76171539D01*
X92819511Y-76299891D01*
X92722939Y-76453583D01*
X92662987Y-76624915D01*
X92662986Y-76624920D01*
X92642665Y-76805286D01*
X92642665Y-76805293D01*
X92662986Y-76985659D01*
X92662989Y-76985671D01*
X92677019Y-77025768D01*
X92680580Y-77095547D01*
X92645850Y-77156174D01*
X92600931Y-77183763D01*
X92498295Y-77219676D01*
X92344601Y-77316249D01*
X92216249Y-77444601D01*
X92119676Y-77598295D01*
X92059724Y-77769630D01*
X92049453Y-77860789D01*
X92022386Y-77925203D01*
X92013914Y-77934586D01*
X91926888Y-78021612D01*
X91865565Y-78055097D01*
X91798252Y-78050973D01*
X91680374Y-78009725D01*
X91680369Y-78009724D01*
X91500004Y-77989403D01*
X91499996Y-77989403D01*
X91319630Y-78009724D01*
X91319625Y-78009725D01*
X91148294Y-78069677D01*
X91123744Y-78085103D01*
X91056507Y-78104102D01*
X90991801Y-78085102D01*
X90918347Y-78038947D01*
X90763265Y-77984682D01*
X90763261Y-77984681D01*
X90600004Y-77966287D01*
X90599996Y-77966287D01*
X90436738Y-77984681D01*
X90436734Y-77984682D01*
X90281652Y-78038947D01*
X90142536Y-78126360D01*
X90026360Y-78242536D01*
X89938947Y-78381652D01*
X89884682Y-78536734D01*
X89884681Y-78536738D01*
X89866287Y-78699996D01*
X89866287Y-78700003D01*
X89884681Y-78863261D01*
X89884682Y-78863265D01*
X89938947Y-79018347D01*
X89969070Y-79066287D01*
X90026360Y-79157463D01*
X90142537Y-79273640D01*
X90224821Y-79325343D01*
X90246682Y-79339079D01*
X90281654Y-79361053D01*
X90436733Y-79415317D01*
X90464622Y-79418459D01*
X90529034Y-79445523D01*
X90538421Y-79453998D01*
X91238525Y-80154102D01*
X91345898Y-80261475D01*
X91477402Y-80337399D01*
X91624076Y-80376700D01*
X92311683Y-80376700D01*
X92377654Y-80395705D01*
X92481654Y-80461053D01*
X92636733Y-80515317D01*
X92636734Y-80515317D01*
X92636738Y-80515318D01*
X92723434Y-80525086D01*
X92766445Y-80529932D01*
X92830859Y-80556998D01*
X92870414Y-80614593D01*
X92876562Y-80653152D01*
X92876562Y-84736811D01*
X92856877Y-84803850D01*
X92804073Y-84849605D01*
X92793519Y-84853852D01*
X92748291Y-84869678D01*
X92594601Y-84966249D01*
X92466249Y-85094601D01*
X92369677Y-85248293D01*
X92309725Y-85419625D01*
X92309724Y-85419630D01*
X92289403Y-85599996D01*
X92289403Y-85600003D01*
X92309724Y-85780369D01*
X92309725Y-85780374D01*
X92369677Y-85951706D01*
X92466249Y-86105398D01*
X92594601Y-86233750D01*
X92682512Y-86288989D01*
X92728803Y-86341324D01*
X92739451Y-86410378D01*
X92731968Y-86439285D01*
X92640493Y-86672357D01*
X92640490Y-86672369D01*
X92583777Y-86920845D01*
X92564732Y-87174995D01*
X92564732Y-87175004D01*
X92583777Y-87429154D01*
X92583778Y-87429157D01*
X92640492Y-87677637D01*
X92733607Y-87914888D01*
X92817227Y-88059724D01*
X92818484Y-88061900D01*
X92834957Y-88129800D01*
X92812104Y-88195827D01*
X92757183Y-88239018D01*
X92711097Y-88247900D01*
X87263411Y-88247900D01*
X87196372Y-88228215D01*
X87186255Y-88220062D01*
X87185837Y-88220587D01*
X87180398Y-88216249D01*
X87026706Y-88119677D01*
X86855374Y-88059725D01*
X86855369Y-88059724D01*
X86675004Y-88039403D01*
X86674996Y-88039403D01*
X86494630Y-88059724D01*
X86494625Y-88059725D01*
X86323293Y-88119677D01*
X86169601Y-88216249D01*
X86041249Y-88344601D01*
X85944677Y-88498293D01*
X85884725Y-88669625D01*
X85884724Y-88669630D01*
X85864403Y-88849996D01*
X85864403Y-88850003D01*
X85884724Y-89030369D01*
X85884725Y-89030374D01*
X85944677Y-89201706D01*
X86027647Y-89333750D01*
X86041250Y-89355399D01*
X86169601Y-89483750D01*
X86323295Y-89580323D01*
X86361659Y-89593747D01*
X86494625Y-89640274D01*
X86494630Y-89640275D01*
X86674996Y-89660597D01*
X86675000Y-89660597D01*
X86675004Y-89660597D01*
X86855369Y-89640275D01*
X86855372Y-89640274D01*
X86855375Y-89640274D01*
X87026705Y-89580323D01*
X87180399Y-89483750D01*
X87180402Y-89483746D01*
X87185837Y-89479413D01*
X87187774Y-89481842D01*
X87237053Y-89454934D01*
X87263411Y-89452100D01*
X92068989Y-89452100D01*
X92136028Y-89471785D01*
X92181783Y-89524589D01*
X92191727Y-89593747D01*
X92182545Y-89625908D01*
X92139746Y-89723479D01*
X92119663Y-89769266D01*
X92059636Y-90006304D01*
X92059634Y-90006316D01*
X92039443Y-90249994D01*
X92039443Y-90250005D01*
X92059634Y-90493683D01*
X92059636Y-90493695D01*
X92119663Y-90730734D01*
X92217888Y-90954666D01*
X92351632Y-91159378D01*
X92517242Y-91339277D01*
X92517252Y-91339286D01*
X92710208Y-91489470D01*
X92710212Y-91489473D01*
X92801502Y-91538877D01*
X92925267Y-91605855D01*
X92925270Y-91605856D01*
X93156541Y-91685251D01*
X93156543Y-91685251D01*
X93156545Y-91685252D01*
X93397737Y-91725500D01*
X93397738Y-91725500D01*
X93642262Y-91725500D01*
X93642263Y-91725500D01*
X93883455Y-91685252D01*
X93885046Y-91684706D01*
X94043462Y-91630322D01*
X94114733Y-91605855D01*
X94329788Y-91489473D01*
X94522754Y-91339281D01*
X94688368Y-91159377D01*
X94822111Y-90954667D01*
X94920336Y-90730736D01*
X94980364Y-90493692D01*
X94993537Y-90334718D01*
X95000557Y-90250005D01*
X95000557Y-90249994D01*
X94980365Y-90006316D01*
X94980363Y-90006304D01*
X94959166Y-89922600D01*
X94920336Y-89769264D01*
X94857454Y-89625909D01*
X94848552Y-89556610D01*
X94878529Y-89493498D01*
X94937869Y-89456611D01*
X94971011Y-89452100D01*
X97429266Y-89452100D01*
X97429268Y-89452100D01*
X97582402Y-89411067D01*
X97719698Y-89331800D01*
X97831800Y-89219698D01*
X98964754Y-88086743D01*
X99026075Y-88053260D01*
X99095767Y-88058244D01*
X99140114Y-88086745D01*
X102738073Y-91684704D01*
X102882454Y-91781176D01*
X102962664Y-91814400D01*
X103042876Y-91847625D01*
X103213174Y-91881499D01*
X103213178Y-91881500D01*
X103213179Y-91881500D01*
X103213180Y-91881500D01*
X106955599Y-91881500D01*
X107022638Y-91901185D01*
X107043280Y-91917819D01*
X107144731Y-92019270D01*
X107273913Y-92109725D01*
X107329183Y-92148425D01*
X107372808Y-92203002D01*
X107380000Y-92272501D01*
X107348478Y-92334855D01*
X107329183Y-92351575D01*
X107144731Y-92480730D01*
X107144729Y-92480731D01*
X106980731Y-92644729D01*
X106980726Y-92644735D01*
X106847701Y-92834714D01*
X106847699Y-92834718D01*
X106749681Y-93044917D01*
X106689651Y-93268948D01*
X106689650Y-93268955D01*
X106669437Y-93499998D01*
X106669437Y-93500001D01*
X106689650Y-93731044D01*
X106689651Y-93731051D01*
X106749678Y-93955074D01*
X106749679Y-93955076D01*
X106749680Y-93955079D01*
X106847699Y-94165282D01*
X106980730Y-94355269D01*
X107144731Y-94519270D01*
X107334718Y-94652301D01*
X107544921Y-94750320D01*
X107768950Y-94810349D01*
X107933985Y-94824787D01*
X107999998Y-94830563D01*
X108000000Y-94830563D01*
X108000002Y-94830563D01*
X108057762Y-94825509D01*
X108231050Y-94810349D01*
X108455079Y-94750320D01*
X108665282Y-94652301D01*
X108855269Y-94519270D01*
X109019270Y-94355269D01*
X109152301Y-94165282D01*
X109250320Y-93955079D01*
X109310349Y-93731050D01*
X109330563Y-93500000D01*
X109328772Y-93479534D01*
X109324787Y-93433985D01*
X109310349Y-93268950D01*
X109250320Y-93044921D01*
X109152301Y-92834719D01*
X109152299Y-92834716D01*
X109152298Y-92834714D01*
X109019273Y-92644735D01*
X109019268Y-92644729D01*
X108855269Y-92480730D01*
X108836519Y-92467601D01*
X108670814Y-92351572D01*
X108627192Y-92296998D01*
X108619999Y-92227499D01*
X108651521Y-92165145D01*
X108670809Y-92148430D01*
X108855269Y-92019270D01*
X109019270Y-91855269D01*
X109152301Y-91665282D01*
X109250320Y-91455079D01*
X109310349Y-91231050D01*
X109330563Y-91000000D01*
X109310349Y-90768950D01*
X109250320Y-90544921D01*
X109152301Y-90334719D01*
X109152299Y-90334716D01*
X109152298Y-90334714D01*
X109019273Y-90144735D01*
X109019268Y-90144729D01*
X108855269Y-89980730D01*
X108855263Y-89980726D01*
X108665282Y-89847699D01*
X108455079Y-89749680D01*
X108455076Y-89749679D01*
X108455074Y-89749678D01*
X108231051Y-89689651D01*
X108231044Y-89689650D01*
X108000002Y-89669437D01*
X107999998Y-89669437D01*
X107768955Y-89689650D01*
X107768948Y-89689651D01*
X107544917Y-89749681D01*
X107334718Y-89847699D01*
X107334714Y-89847701D01*
X107144735Y-89980726D01*
X107144729Y-89980731D01*
X107043280Y-90082181D01*
X106981957Y-90115666D01*
X106955599Y-90118500D01*
X103716492Y-90118500D01*
X103649453Y-90098815D01*
X103628811Y-90082181D01*
X100721626Y-87174995D01*
X102564732Y-87174995D01*
X102564732Y-87175004D01*
X102583777Y-87429154D01*
X102583778Y-87429157D01*
X102640492Y-87677637D01*
X102733607Y-87914888D01*
X102861041Y-88135612D01*
X103019950Y-88334877D01*
X103206783Y-88508232D01*
X103417366Y-88651805D01*
X103417371Y-88651807D01*
X103417372Y-88651808D01*
X103417373Y-88651809D01*
X103517444Y-88700000D01*
X103646992Y-88762387D01*
X103646993Y-88762387D01*
X103646996Y-88762389D01*
X103890542Y-88837513D01*
X104142565Y-88875500D01*
X104397435Y-88875500D01*
X104649458Y-88837513D01*
X104893004Y-88762389D01*
X105122634Y-88651805D01*
X105333217Y-88508232D01*
X105520050Y-88334877D01*
X105678959Y-88135612D01*
X105806393Y-87914888D01*
X105899508Y-87677637D01*
X105956222Y-87429157D01*
X105969890Y-87246772D01*
X105975268Y-87175004D01*
X105975268Y-87174995D01*
X105960655Y-86980002D01*
X105956222Y-86920843D01*
X105899508Y-86672363D01*
X105806393Y-86435112D01*
X105678959Y-86214388D01*
X105520050Y-86015123D01*
X105333217Y-85841768D01*
X105122634Y-85698195D01*
X105122630Y-85698193D01*
X105122627Y-85698191D01*
X105122626Y-85698190D01*
X104893006Y-85587612D01*
X104893008Y-85587612D01*
X104649466Y-85512489D01*
X104649462Y-85512488D01*
X104649458Y-85512487D01*
X104528231Y-85494214D01*
X104397440Y-85474500D01*
X104397435Y-85474500D01*
X104142565Y-85474500D01*
X104142559Y-85474500D01*
X103985609Y-85498157D01*
X103890542Y-85512487D01*
X103890539Y-85512488D01*
X103890533Y-85512489D01*
X103646992Y-85587612D01*
X103417373Y-85698190D01*
X103417372Y-85698191D01*
X103206782Y-85841768D01*
X103019952Y-86015121D01*
X103019950Y-86015123D01*
X102861041Y-86214388D01*
X102733608Y-86435109D01*
X102640492Y-86672362D01*
X102640490Y-86672369D01*
X102583777Y-86920845D01*
X102564732Y-87174995D01*
X100721626Y-87174995D01*
X99811927Y-86265296D01*
X99811926Y-86265295D01*
X99743458Y-86219547D01*
X99698652Y-86165935D01*
X99689945Y-86096610D01*
X99720099Y-86033582D01*
X99759944Y-86004062D01*
X99935282Y-85922301D01*
X100125269Y-85789270D01*
X100289270Y-85625269D01*
X100422301Y-85435282D01*
X100520320Y-85225079D01*
X100580349Y-85001050D01*
X100600563Y-84770000D01*
X100580349Y-84538950D01*
X100520320Y-84314921D01*
X100422301Y-84104719D01*
X100422299Y-84104716D01*
X100422298Y-84104714D01*
X100289273Y-83914735D01*
X100289268Y-83914729D01*
X100125269Y-83750730D01*
X100125263Y-83750726D01*
X99935282Y-83617699D01*
X99725079Y-83519680D01*
X99725076Y-83519679D01*
X99725074Y-83519678D01*
X99501051Y-83459651D01*
X99501044Y-83459650D01*
X99270002Y-83439437D01*
X99269998Y-83439437D01*
X99038955Y-83459650D01*
X99038948Y-83459651D01*
X98814917Y-83519681D01*
X98604718Y-83617699D01*
X98604714Y-83617701D01*
X98414735Y-83750726D01*
X98414729Y-83750731D01*
X98250731Y-83914729D01*
X98250726Y-83914735D01*
X98121575Y-84099183D01*
X98066998Y-84142808D01*
X97997500Y-84150002D01*
X97935145Y-84118479D01*
X97918425Y-84099183D01*
X97789273Y-83914735D01*
X97789268Y-83914729D01*
X97625269Y-83750730D01*
X97625263Y-83750726D01*
X97435282Y-83617699D01*
X97225079Y-83519680D01*
X97225076Y-83519679D01*
X97225074Y-83519678D01*
X97001051Y-83459651D01*
X97001044Y-83459650D01*
X96770002Y-83439437D01*
X96769998Y-83439437D01*
X96538955Y-83459650D01*
X96538948Y-83459651D01*
X96314917Y-83519681D01*
X96104718Y-83617699D01*
X96104714Y-83617701D01*
X95914735Y-83750726D01*
X95914729Y-83750731D01*
X95750731Y-83914729D01*
X95750726Y-83914735D01*
X95617701Y-84104714D01*
X95617699Y-84104718D01*
X95519681Y-84314917D01*
X95459651Y-84538948D01*
X95459650Y-84538955D01*
X95439437Y-84769998D01*
X95439437Y-84770001D01*
X95459650Y-85001044D01*
X95459651Y-85001051D01*
X95519678Y-85225074D01*
X95519679Y-85225076D01*
X95519680Y-85225079D01*
X95617699Y-85435282D01*
X95750730Y-85625269D01*
X95914731Y-85789270D01*
X96104718Y-85922301D01*
X96314921Y-86020320D01*
X96538950Y-86080349D01*
X96703985Y-86094787D01*
X96769998Y-86100563D01*
X96770000Y-86100563D01*
X96770002Y-86100563D01*
X96827762Y-86095509D01*
X97001050Y-86080349D01*
X97225079Y-86020320D01*
X97435282Y-85922301D01*
X97625269Y-85789270D01*
X97789270Y-85625269D01*
X97918427Y-85440814D01*
X97973002Y-85397192D01*
X98042501Y-85389999D01*
X98104855Y-85421521D01*
X98121569Y-85440809D01*
X98250730Y-85625269D01*
X98414731Y-85789270D01*
X98604718Y-85922301D01*
X98756496Y-85993076D01*
X98808936Y-86039248D01*
X98828088Y-86106441D01*
X98807872Y-86173323D01*
X98772983Y-86208560D01*
X98688076Y-86265293D01*
X98688072Y-86265296D01*
X98565295Y-86388073D01*
X98468822Y-86532456D01*
X98402377Y-86692871D01*
X98402374Y-86692881D01*
X98368500Y-86863176D01*
X98368500Y-86928640D01*
X98348815Y-86995679D01*
X98332181Y-87016321D01*
X97136921Y-88211581D01*
X97075598Y-88245066D01*
X97049240Y-88247900D01*
X95828903Y-88247900D01*
X95761864Y-88228215D01*
X95716109Y-88175411D01*
X95706165Y-88106253D01*
X95721516Y-88061900D01*
X95722772Y-88059725D01*
X95806393Y-87914888D01*
X95899508Y-87677637D01*
X95956222Y-87429157D01*
X95969890Y-87246772D01*
X95975268Y-87175004D01*
X95975268Y-87174995D01*
X95960655Y-86980002D01*
X95956222Y-86920843D01*
X95899508Y-86672363D01*
X95806393Y-86435112D01*
X95678959Y-86214388D01*
X95520050Y-86015123D01*
X95333217Y-85841768D01*
X95122634Y-85698195D01*
X95122630Y-85698193D01*
X95122627Y-85698191D01*
X95122626Y-85698190D01*
X94893006Y-85587612D01*
X94893008Y-85587612D01*
X94649466Y-85512489D01*
X94649462Y-85512488D01*
X94649458Y-85512487D01*
X94528231Y-85494214D01*
X94397440Y-85474500D01*
X94397435Y-85474500D01*
X94150877Y-85474500D01*
X94083838Y-85454815D01*
X94038083Y-85402011D01*
X94028139Y-85332853D01*
X94029482Y-85326302D01*
X94029962Y-85322660D01*
X94029962Y-81854994D01*
X102009357Y-81854994D01*
X102009357Y-81855005D01*
X102029890Y-82102812D01*
X102029892Y-82102824D01*
X102090936Y-82343881D01*
X102190826Y-82571606D01*
X102326833Y-82779782D01*
X102326836Y-82779785D01*
X102495256Y-82962738D01*
X102691491Y-83115474D01*
X102910190Y-83233828D01*
X103145386Y-83314571D01*
X103390665Y-83355500D01*
X103639335Y-83355500D01*
X103884614Y-83314571D01*
X104119810Y-83233828D01*
X104338509Y-83115474D01*
X104534744Y-82962738D01*
X104703164Y-82779785D01*
X104839173Y-82571607D01*
X104939063Y-82343881D01*
X105000108Y-82102821D01*
X105018541Y-81880372D01*
X105020643Y-81855005D01*
X105020643Y-81854994D01*
X105008415Y-81707425D01*
X105022496Y-81638989D01*
X105071341Y-81589030D01*
X105139442Y-81573409D01*
X105203112Y-81595610D01*
X105364814Y-81708835D01*
X105567087Y-81803156D01*
X105782666Y-81860920D01*
X105960533Y-81876481D01*
X106004999Y-81880372D01*
X106005000Y-81880372D01*
X106005001Y-81880372D01*
X106042055Y-81877130D01*
X106227334Y-81860920D01*
X106442913Y-81803156D01*
X106645186Y-81708835D01*
X106828007Y-81580822D01*
X106985822Y-81423007D01*
X107113835Y-81240186D01*
X107208156Y-81037913D01*
X107265920Y-80822334D01*
X107285372Y-80600000D01*
X107265920Y-80377666D01*
X107208156Y-80162087D01*
X107113835Y-79959814D01*
X106985822Y-79776993D01*
X106828007Y-79619178D01*
X106645186Y-79491165D01*
X106442913Y-79396844D01*
X106442909Y-79396843D01*
X106442905Y-79396841D01*
X106227339Y-79339081D01*
X106227329Y-79339079D01*
X106005001Y-79319628D01*
X106004999Y-79319628D01*
X105782670Y-79339079D01*
X105782660Y-79339081D01*
X105567094Y-79396841D01*
X105567087Y-79396843D01*
X105567087Y-79396844D01*
X105364814Y-79491165D01*
X105181993Y-79619178D01*
X105181991Y-79619179D01*
X105181988Y-79619182D01*
X105024182Y-79776988D01*
X105024179Y-79776991D01*
X105024178Y-79776993D01*
X104896165Y-79959814D01*
X104805568Y-80154102D01*
X104801845Y-80162085D01*
X104801841Y-80162094D01*
X104744081Y-80377660D01*
X104744079Y-80377670D01*
X104724628Y-80599999D01*
X104724628Y-80600002D01*
X104727535Y-80633231D01*
X104713768Y-80701731D01*
X104665153Y-80751914D01*
X104597124Y-80767847D01*
X104531280Y-80744471D01*
X104527845Y-80741892D01*
X104440508Y-80673915D01*
X104338509Y-80594526D01*
X104338507Y-80594525D01*
X104338506Y-80594524D01*
X104119811Y-80476172D01*
X104119802Y-80476169D01*
X103884616Y-80395429D01*
X103639335Y-80354500D01*
X103390665Y-80354500D01*
X103145383Y-80395429D01*
X102910197Y-80476169D01*
X102910188Y-80476172D01*
X102691493Y-80594524D01*
X102495257Y-80747261D01*
X102326833Y-80930217D01*
X102190826Y-81138393D01*
X102090936Y-81366118D01*
X102029892Y-81607175D01*
X102029890Y-81607187D01*
X102009357Y-81854994D01*
X94029962Y-81854994D01*
X94029962Y-77419101D01*
X94049647Y-77352062D01*
X94066281Y-77331420D01*
X94087012Y-77310689D01*
X94183585Y-77156995D01*
X94243536Y-76985665D01*
X94243537Y-76985659D01*
X94263859Y-76805293D01*
X94263859Y-76805286D01*
X94243537Y-76624920D01*
X94243536Y-76624915D01*
X94183584Y-76453582D01*
X94126463Y-76362676D01*
X94107462Y-76295439D01*
X94127829Y-76228604D01*
X94181097Y-76183389D01*
X94250353Y-76174151D01*
X94313610Y-76203823D01*
X94319137Y-76209022D01*
X94928399Y-76818284D01*
X94928404Y-76818288D01*
X94928405Y-76818289D01*
X95005003Y-76881152D01*
X95030153Y-76897957D01*
X95045229Y-76908031D01*
X95045231Y-76908032D01*
X95132627Y-76954747D01*
X95257764Y-77006581D01*
X95352594Y-77035348D01*
X95400047Y-77044787D01*
X95498665Y-77054500D01*
X95498667Y-77054500D01*
X95749333Y-77054500D01*
X95749335Y-77054500D01*
X95847953Y-77044787D01*
X95895406Y-77035348D01*
X95990236Y-77006582D01*
X96096772Y-76962453D01*
X96145588Y-76939097D01*
X96168855Y-76926392D01*
X96214888Y-76897956D01*
X96320193Y-76799914D01*
X96364034Y-76745511D01*
X96364035Y-76745509D01*
X96364036Y-76745508D01*
X96365243Y-76743628D01*
X96366305Y-76741683D01*
X96437449Y-76621777D01*
X96437449Y-76621776D01*
X96437453Y-76621770D01*
X96481582Y-76515233D01*
X96510348Y-76420405D01*
X96519787Y-76372952D01*
X96529500Y-76274334D01*
X96529500Y-75423665D01*
X96519787Y-75325047D01*
X96510348Y-75277594D01*
X96481581Y-75182764D01*
X96429747Y-75057627D01*
X96383032Y-74970231D01*
X96381734Y-74968289D01*
X96369916Y-74950602D01*
X96356152Y-74930003D01*
X96293289Y-74853405D01*
X96293286Y-74853402D01*
X96293284Y-74853399D01*
X96284879Y-74844994D01*
X102009357Y-74844994D01*
X102009357Y-74845005D01*
X102029890Y-75092812D01*
X102029892Y-75092824D01*
X102090936Y-75333881D01*
X102190826Y-75561606D01*
X102326833Y-75769782D01*
X102326836Y-75769785D01*
X102495256Y-75952738D01*
X102691491Y-76105474D01*
X102910190Y-76223828D01*
X103145386Y-76304571D01*
X103390665Y-76345500D01*
X103639335Y-76345500D01*
X103884614Y-76304571D01*
X104119810Y-76223828D01*
X104338509Y-76105474D01*
X104534744Y-75952738D01*
X104703164Y-75769785D01*
X104839173Y-75561607D01*
X104939063Y-75333881D01*
X105000108Y-75092821D01*
X105003024Y-75057630D01*
X105020643Y-74845005D01*
X105020643Y-74844994D01*
X105000109Y-74597187D01*
X105000107Y-74597175D01*
X104939063Y-74356118D01*
X104839173Y-74128393D01*
X104703166Y-73920217D01*
X104646993Y-73859197D01*
X104534744Y-73737262D01*
X104338509Y-73584526D01*
X104338507Y-73584525D01*
X104338506Y-73584524D01*
X104119811Y-73466172D01*
X104119802Y-73466169D01*
X103884616Y-73385429D01*
X103639335Y-73344500D01*
X103390665Y-73344500D01*
X103145383Y-73385429D01*
X102910197Y-73466169D01*
X102910188Y-73466172D01*
X102691493Y-73584524D01*
X102495257Y-73737261D01*
X102326833Y-73920217D01*
X102190826Y-74128393D01*
X102090936Y-74356118D01*
X102029892Y-74597175D01*
X102029890Y-74597187D01*
X102009357Y-74844994D01*
X96284879Y-74844994D01*
X95433065Y-73993181D01*
X95399580Y-73931858D01*
X95404564Y-73862167D01*
X95446436Y-73806233D01*
X95511900Y-73781816D01*
X95520746Y-73781500D01*
X100186822Y-73781500D01*
X100320636Y-73754882D01*
X100357124Y-73747624D01*
X100517547Y-73681175D01*
X100661923Y-73584706D01*
X100784706Y-73461923D01*
X100796118Y-73444842D01*
X100849727Y-73400038D01*
X100919052Y-73391328D01*
X100982080Y-73421480D01*
X100986902Y-73426051D01*
X101094601Y-73533750D01*
X101244169Y-73627731D01*
X101248295Y-73630323D01*
X101335839Y-73660956D01*
X101419625Y-73690274D01*
X101419630Y-73690275D01*
X101599996Y-73710597D01*
X101600000Y-73710597D01*
X101600004Y-73710597D01*
X101780369Y-73690275D01*
X101780372Y-73690274D01*
X101780375Y-73690274D01*
X101951705Y-73630323D01*
X102105399Y-73533750D01*
X102233750Y-73405399D01*
X102330323Y-73251705D01*
X102390274Y-73080375D01*
X102401397Y-72981654D01*
X102410597Y-72900003D01*
X102410597Y-72899996D01*
X102390275Y-72719630D01*
X102390274Y-72719625D01*
X102330323Y-72548295D01*
X102293866Y-72490275D01*
X102233750Y-72394601D01*
X102213019Y-72373870D01*
X102179534Y-72312547D01*
X102176700Y-72286189D01*
X102176700Y-71324078D01*
X102176700Y-71324076D01*
X102137399Y-71177402D01*
X102073225Y-71066250D01*
X102061477Y-71045901D01*
X102061472Y-71045895D01*
X99803958Y-68788381D01*
X99770473Y-68727058D01*
X99775457Y-68657366D01*
X99817329Y-68601433D01*
X99882793Y-68577016D01*
X99891639Y-68576700D01*
X103709761Y-68576700D01*
X103776800Y-68596385D01*
X103797442Y-68613019D01*
X106859353Y-71674930D01*
X106892838Y-71736253D01*
X106894892Y-71748727D01*
X106909724Y-71880367D01*
X106909725Y-71880372D01*
X106969676Y-72051704D01*
X107066249Y-72205398D01*
X107194601Y-72333750D01*
X107259337Y-72374427D01*
X107348295Y-72430323D01*
X107497274Y-72482453D01*
X107519625Y-72490274D01*
X107519630Y-72490275D01*
X107699996Y-72510597D01*
X107700000Y-72510597D01*
X107700004Y-72510597D01*
X107880369Y-72490275D01*
X107880372Y-72490274D01*
X107880375Y-72490274D01*
X108051705Y-72430323D01*
X108205399Y-72333750D01*
X108333750Y-72205399D01*
X108430323Y-72051705D01*
X108490274Y-71880375D01*
X108506307Y-71738077D01*
X108510597Y-71700003D01*
X108510597Y-71699996D01*
X108490275Y-71519630D01*
X108490274Y-71519625D01*
X108466743Y-71452377D01*
X108430323Y-71348295D01*
X108415106Y-71324078D01*
X108333750Y-71194601D01*
X108205398Y-71066249D01*
X108051704Y-70969676D01*
X107880372Y-70909725D01*
X107880367Y-70909724D01*
X107748727Y-70894892D01*
X107684313Y-70867825D01*
X107674930Y-70859353D01*
X104354104Y-67538527D01*
X104354098Y-67538522D01*
X104222600Y-67462602D01*
X104222599Y-67462601D01*
X104222598Y-67462601D01*
X104075924Y-67423300D01*
X78875924Y-67423300D01*
X78724076Y-67423300D01*
X78577401Y-67462601D01*
X78495783Y-67509724D01*
X78445904Y-67538522D01*
X78445895Y-67538527D01*
X78325066Y-67659354D01*
X78263743Y-67692839D01*
X78251270Y-67694892D01*
X78119630Y-67709724D01*
X77948295Y-67769676D01*
X77794601Y-67866249D01*
X77666249Y-67994601D01*
X77569677Y-68148293D01*
X77509725Y-68319625D01*
X77509724Y-68319630D01*
X77489403Y-68499996D01*
X77489403Y-68500004D01*
X77510293Y-68685417D01*
X77498238Y-68754239D01*
X77450889Y-68805618D01*
X77387073Y-68823300D01*
X76372769Y-68823300D01*
X76306796Y-68804293D01*
X76251707Y-68769677D01*
X76080374Y-68709725D01*
X76080369Y-68709724D01*
X75900004Y-68689403D01*
X75899996Y-68689403D01*
X75719630Y-68709724D01*
X75719625Y-68709725D01*
X75548293Y-68769677D01*
X75394601Y-68866249D01*
X75266249Y-68994601D01*
X75169677Y-69148293D01*
X75107426Y-69326198D01*
X75104622Y-69325217D01*
X75076955Y-69374646D01*
X75015283Y-69407485D01*
X74976317Y-69409268D01*
X74800004Y-69389403D01*
X74799996Y-69389403D01*
X74619630Y-69409724D01*
X74619625Y-69409725D01*
X74448293Y-69469677D01*
X74294601Y-69566249D01*
X74166249Y-69694601D01*
X74069677Y-69848293D01*
X74009725Y-70019625D01*
X74009724Y-70019630D01*
X73989403Y-70199996D01*
X73989403Y-70200003D01*
X74009724Y-70380369D01*
X74009725Y-70380374D01*
X74069677Y-70551706D01*
X74166249Y-70705398D01*
X74294601Y-70833750D01*
X74415513Y-70909725D01*
X74448295Y-70930323D01*
X74560762Y-70969677D01*
X74619625Y-70990274D01*
X74619630Y-70990275D01*
X74751269Y-71005106D01*
X74815684Y-71032172D01*
X74825068Y-71040645D01*
X75046594Y-71262171D01*
X75080079Y-71323494D01*
X75082913Y-71349852D01*
X75082913Y-100621769D01*
X75063228Y-100688808D01*
X75010424Y-100734563D01*
X74941266Y-100744507D01*
X74917959Y-100738811D01*
X74763265Y-100684682D01*
X74735373Y-100681539D01*
X74670959Y-100654471D01*
X74661577Y-100646000D01*
X74454104Y-100438527D01*
X74454098Y-100438522D01*
X74322600Y-100362602D01*
X74322599Y-100362601D01*
X74322598Y-100362601D01*
X74175924Y-100323300D01*
X74175923Y-100323300D01*
X73985883Y-100323300D01*
X73918844Y-100303615D01*
X73873089Y-100250811D01*
X73834779Y-100166923D01*
X73834774Y-100166914D01*
X73834770Y-100166906D01*
X73756986Y-100045870D01*
X73756985Y-100045869D01*
X73756984Y-100045867D01*
X73756981Y-100045863D01*
X73662847Y-99937226D01*
X73662830Y-99937207D01*
X73662829Y-99937206D01*
X73554091Y-99842985D01*
X73518858Y-99820342D01*
X73433142Y-99765255D01*
X73433136Y-99765252D01*
X73362028Y-99732778D01*
X73302259Y-99705483D01*
X73184650Y-99670950D01*
X73164308Y-99664977D01*
X73164296Y-99664974D01*
X73021889Y-99644500D01*
X72450000Y-99644500D01*
X72449997Y-99644500D01*
X72378061Y-99649644D01*
X72378056Y-99649645D01*
X72340735Y-99660603D01*
X72288158Y-99664363D01*
X72150001Y-99644500D01*
X72150000Y-99644500D01*
X71578111Y-99644500D01*
X71578110Y-99644500D01*
X71435703Y-99664974D01*
X71435691Y-99664977D01*
X71297741Y-99705483D01*
X71166863Y-99765252D01*
X71166861Y-99765254D01*
X71067739Y-99828955D01*
X71000699Y-99848639D01*
X70933660Y-99828954D01*
X70887905Y-99776150D01*
X70876700Y-99724639D01*
X70876700Y-97490239D01*
X70896385Y-97423200D01*
X70913019Y-97402558D01*
X71749328Y-96566249D01*
X72661475Y-95654102D01*
X72737399Y-95522598D01*
X72776700Y-95375924D01*
X72776700Y-95224076D01*
X72776700Y-91024076D01*
X72737399Y-90877402D01*
X72722312Y-90851271D01*
X72661477Y-90745901D01*
X72661472Y-90745895D01*
X70913019Y-88997442D01*
X70879534Y-88936119D01*
X70876700Y-88909761D01*
X70876700Y-87313811D01*
X70896385Y-87246772D01*
X70913019Y-87226130D01*
X70933750Y-87205399D01*
X71030323Y-87051705D01*
X71055216Y-86980563D01*
X71084574Y-86933839D01*
X73361475Y-84656940D01*
X73437399Y-84525436D01*
X73476700Y-84378762D01*
X73476700Y-84226914D01*
X73476700Y-66090476D01*
X73437399Y-65943802D01*
X73401428Y-65881499D01*
X73361477Y-65812301D01*
X73361472Y-65812295D01*
X72736000Y-65186823D01*
X79575899Y-65186823D01*
X79609774Y-65357118D01*
X79609777Y-65357128D01*
X79676222Y-65517543D01*
X79772695Y-65661926D01*
X79895473Y-65784704D01*
X80039856Y-65881177D01*
X80191049Y-65943802D01*
X80200276Y-65947624D01*
X80200280Y-65947624D01*
X80200281Y-65947625D01*
X80370576Y-65981500D01*
X80370579Y-65981500D01*
X80544223Y-65981500D01*
X80658793Y-65958709D01*
X80714524Y-65947624D01*
X80794735Y-65914399D01*
X80874943Y-65881177D01*
X80874944Y-65881176D01*
X80874947Y-65881175D01*
X81019324Y-65784706D01*
X81124612Y-65679417D01*
X81185933Y-65645934D01*
X81212292Y-65643100D01*
X90245108Y-65643100D01*
X90312147Y-65662785D01*
X90332789Y-65679419D01*
X90338074Y-65684704D01*
X90482455Y-65781176D01*
X90557584Y-65812295D01*
X90642877Y-65847625D01*
X90811546Y-65881175D01*
X90813175Y-65881499D01*
X90813179Y-65881500D01*
X90813180Y-65881500D01*
X90986822Y-65881500D01*
X90986823Y-65881499D01*
X91157124Y-65847625D01*
X91294052Y-65790906D01*
X91317545Y-65781176D01*
X91317545Y-65781175D01*
X91317547Y-65781175D01*
X91461924Y-65684706D01*
X91584706Y-65561924D01*
X91681175Y-65417547D01*
X91747625Y-65257124D01*
X91781500Y-65086821D01*
X91781500Y-64913180D01*
X91747625Y-64742877D01*
X91687525Y-64597784D01*
X91681176Y-64582455D01*
X91584704Y-64438074D01*
X91584703Y-64438073D01*
X91223527Y-64076896D01*
X91223526Y-64076895D01*
X91079143Y-63980422D01*
X90918728Y-63913977D01*
X90918718Y-63913974D01*
X90748423Y-63880100D01*
X90748421Y-63880100D01*
X90748420Y-63880100D01*
X80882621Y-63880100D01*
X80708979Y-63880100D01*
X80708974Y-63880100D01*
X80538683Y-63913973D01*
X80538675Y-63913975D01*
X80425240Y-63960962D01*
X80378254Y-63980424D01*
X80378250Y-63980426D01*
X80308374Y-64027116D01*
X80233877Y-64076892D01*
X80233870Y-64076898D01*
X79772695Y-64538073D01*
X79676222Y-64682456D01*
X79609777Y-64842871D01*
X79609774Y-64842881D01*
X79575900Y-65013176D01*
X79575900Y-65013179D01*
X79575900Y-65186821D01*
X79575900Y-65186823D01*
X79575899Y-65186823D01*
X72736000Y-65186823D01*
X72140645Y-64591468D01*
X72107160Y-64530145D01*
X72105106Y-64517669D01*
X72090275Y-64386030D01*
X72090274Y-64386025D01*
X72060064Y-64299690D01*
X72030323Y-64214695D01*
X71983622Y-64140372D01*
X71933750Y-64061001D01*
X71805398Y-63932649D01*
X71651706Y-63836077D01*
X71480374Y-63776125D01*
X71480369Y-63776124D01*
X71300004Y-63755803D01*
X71299996Y-63755803D01*
X71119630Y-63776124D01*
X71119625Y-63776125D01*
X70948293Y-63836077D01*
X70794601Y-63932649D01*
X70666249Y-64061001D01*
X70569677Y-64214693D01*
X70509725Y-64386025D01*
X70509724Y-64386030D01*
X70489403Y-64566396D01*
X70489403Y-64566403D01*
X70509724Y-64746769D01*
X70509725Y-64746774D01*
X70569677Y-64918106D01*
X70629414Y-65013176D01*
X70666250Y-65071799D01*
X70794601Y-65200150D01*
X70948295Y-65296723D01*
X71119625Y-65356674D01*
X71119630Y-65356675D01*
X71251269Y-65371506D01*
X71315684Y-65398572D01*
X71325068Y-65407045D01*
X72286981Y-66368958D01*
X72320466Y-66430281D01*
X72323300Y-66456639D01*
X72323300Y-84012598D01*
X72303615Y-84079637D01*
X72286981Y-84100279D01*
X70520046Y-85867213D01*
X70458723Y-85900698D01*
X70418482Y-85902752D01*
X70300003Y-85889403D01*
X70299996Y-85889403D01*
X70214583Y-85899026D01*
X70145761Y-85886971D01*
X70094382Y-85839622D01*
X70076700Y-85775806D01*
X70076700Y-69990238D01*
X70096385Y-69923199D01*
X70113015Y-69902561D01*
X70874932Y-69140643D01*
X70936253Y-69107160D01*
X70948726Y-69105106D01*
X70988963Y-69100573D01*
X71080369Y-69090275D01*
X71080372Y-69090274D01*
X71080375Y-69090274D01*
X71251705Y-69030323D01*
X71405399Y-68933750D01*
X71533750Y-68805399D01*
X71630323Y-68651705D01*
X71690274Y-68480375D01*
X71707773Y-68325068D01*
X71710597Y-68300003D01*
X71710597Y-68299996D01*
X71690275Y-68119630D01*
X71690274Y-68119625D01*
X71630322Y-67948293D01*
X71533750Y-67794601D01*
X71405398Y-67666249D01*
X71251706Y-67569677D01*
X71080374Y-67509725D01*
X71080369Y-67509724D01*
X70900004Y-67489403D01*
X70899996Y-67489403D01*
X70719630Y-67509724D01*
X70719625Y-67509725D01*
X70548293Y-67569677D01*
X70394601Y-67666249D01*
X70266249Y-67794601D01*
X70169676Y-67948295D01*
X70109724Y-68119630D01*
X70094892Y-68251271D01*
X70067825Y-68315685D01*
X70059353Y-68325068D01*
X69145898Y-69238525D01*
X69038527Y-69345895D01*
X69038522Y-69345901D01*
X68962602Y-69477398D01*
X68962602Y-69477399D01*
X68923300Y-69624076D01*
X58631500Y-69624076D01*
X58631500Y-63266492D01*
X58651185Y-63199453D01*
X58667819Y-63178811D01*
X59558555Y-62288075D01*
X60579204Y-61267425D01*
X60640525Y-61233942D01*
X60654745Y-61231703D01*
X60656805Y-61231500D01*
X60656820Y-61231500D01*
X60827124Y-61197624D01*
X60951196Y-61146231D01*
X60987540Y-61131178D01*
X60987540Y-61131177D01*
X60987547Y-61131175D01*
X61086109Y-61065318D01*
X61136988Y-61031322D01*
X61138428Y-61033478D01*
X61192323Y-61010552D01*
X61247699Y-61016667D01*
X61386733Y-61065317D01*
X61386734Y-61065317D01*
X61386737Y-61065318D01*
X61549996Y-61083713D01*
X61550000Y-61083713D01*
X61550001Y-61083713D01*
X61559617Y-61082629D01*
X61620482Y-61075771D01*
X61689302Y-61087825D01*
X61740682Y-61135173D01*
X61758307Y-61202783D01*
X61752516Y-61232305D01*
X61753193Y-61232465D01*
X61751408Y-61240016D01*
X61745001Y-61299616D01*
X61745001Y-61299623D01*
X61745000Y-61299635D01*
X61745000Y-64140370D01*
X61745001Y-64140376D01*
X61751408Y-64199983D01*
X61801702Y-64334828D01*
X61801706Y-64334835D01*
X61887952Y-64450044D01*
X61887955Y-64450047D01*
X62003164Y-64536293D01*
X62003171Y-64536297D01*
X62138017Y-64586591D01*
X62138016Y-64586591D01*
X62144944Y-64587335D01*
X62197627Y-64593000D01*
X65038372Y-64592999D01*
X65097983Y-64586591D01*
X65232831Y-64536296D01*
X65348046Y-64450046D01*
X65434296Y-64334831D01*
X65484591Y-64199983D01*
X65491000Y-64140373D01*
X65490999Y-62719998D01*
X66820216Y-62719998D01*
X66820216Y-62720001D01*
X66839329Y-62987242D01*
X66896276Y-63249024D01*
X66896278Y-63249030D01*
X66896279Y-63249033D01*
X66929250Y-63337430D01*
X66989910Y-63500065D01*
X67118304Y-63735201D01*
X67118309Y-63735209D01*
X67278859Y-63949679D01*
X67278875Y-63949697D01*
X67468302Y-64139124D01*
X67468320Y-64139140D01*
X67682790Y-64299690D01*
X67682798Y-64299695D01*
X67917934Y-64428089D01*
X67917933Y-64428089D01*
X67917937Y-64428090D01*
X67917940Y-64428092D01*
X68168967Y-64521721D01*
X68168973Y-64521722D01*
X68168975Y-64521723D01*
X68430757Y-64578670D01*
X68430759Y-64578670D01*
X68430763Y-64578671D01*
X68668245Y-64595655D01*
X68697999Y-64597784D01*
X68698000Y-64597784D01*
X68698001Y-64597784D01*
X68724773Y-64595869D01*
X68965237Y-64578671D01*
X69021633Y-64566403D01*
X69227024Y-64521723D01*
X69227024Y-64521722D01*
X69227033Y-64521721D01*
X69478060Y-64428092D01*
X69713207Y-64299692D01*
X69927687Y-64139134D01*
X70117134Y-63949687D01*
X70277692Y-63735207D01*
X70363285Y-63578456D01*
X106545500Y-63578456D01*
X106545500Y-63821543D01*
X106545501Y-63821559D01*
X106577230Y-64062569D01*
X106640149Y-64297386D01*
X106733175Y-64521972D01*
X106733182Y-64521987D01*
X106854730Y-64732516D01*
X107002722Y-64925380D01*
X107002730Y-64925389D01*
X107174611Y-65097270D01*
X107174619Y-65097277D01*
X107367483Y-65245269D01*
X107578012Y-65366817D01*
X107578027Y-65366824D01*
X107654674Y-65398572D01*
X107802612Y-65459850D01*
X108037429Y-65522769D01*
X108278450Y-65554500D01*
X108278457Y-65554500D01*
X108521543Y-65554500D01*
X108521550Y-65554500D01*
X108762571Y-65522769D01*
X108997388Y-65459850D01*
X109221984Y-65366819D01*
X109432516Y-65245269D01*
X109625380Y-65097278D01*
X109625384Y-65097273D01*
X109625389Y-65097270D01*
X109797270Y-64925389D01*
X109797273Y-64925384D01*
X109797278Y-64925380D01*
X109945269Y-64732516D01*
X110066819Y-64521984D01*
X110159850Y-64297388D01*
X110222769Y-64062571D01*
X110254500Y-63821550D01*
X110254500Y-63578450D01*
X110222769Y-63337429D01*
X110159850Y-63102612D01*
X110066819Y-62878016D01*
X110000519Y-62763180D01*
X109945269Y-62667483D01*
X109797277Y-62474619D01*
X109797270Y-62474611D01*
X109625389Y-62302730D01*
X109625380Y-62302722D01*
X109432516Y-62154730D01*
X109221987Y-62033182D01*
X109221972Y-62033175D01*
X108997386Y-61940149D01*
X108762569Y-61877230D01*
X108521559Y-61845501D01*
X108521556Y-61845500D01*
X108521550Y-61845500D01*
X108278450Y-61845500D01*
X108278444Y-61845500D01*
X108278440Y-61845501D01*
X108037430Y-61877230D01*
X107802613Y-61940149D01*
X107578027Y-62033175D01*
X107578012Y-62033182D01*
X107367483Y-62154730D01*
X107174619Y-62302722D01*
X107002722Y-62474619D01*
X106854730Y-62667483D01*
X106733182Y-62878012D01*
X106733175Y-62878027D01*
X106640149Y-63102613D01*
X106577230Y-63337430D01*
X106545501Y-63578440D01*
X106545500Y-63578456D01*
X70363285Y-63578456D01*
X70406092Y-63500060D01*
X70499721Y-63249033D01*
X70556671Y-62987237D01*
X70575784Y-62720000D01*
X70556671Y-62452763D01*
X70542699Y-62388536D01*
X70499723Y-62190975D01*
X70499722Y-62190973D01*
X70499721Y-62190967D01*
X70406092Y-61939940D01*
X70371850Y-61877231D01*
X70277695Y-61704798D01*
X70277690Y-61704790D01*
X70117140Y-61490320D01*
X70117124Y-61490302D01*
X69927697Y-61300875D01*
X69927679Y-61300859D01*
X69713209Y-61140309D01*
X69713201Y-61140304D01*
X69478065Y-61011910D01*
X69478066Y-61011910D01*
X69376171Y-60973905D01*
X69227033Y-60918279D01*
X69227030Y-60918278D01*
X69227024Y-60918276D01*
X68965242Y-60861329D01*
X68698001Y-60842216D01*
X68697999Y-60842216D01*
X68430757Y-60861329D01*
X68168975Y-60918276D01*
X67917934Y-61011910D01*
X67682798Y-61140304D01*
X67682790Y-61140309D01*
X67468320Y-61300859D01*
X67468302Y-61300875D01*
X67278875Y-61490302D01*
X67278859Y-61490320D01*
X67118309Y-61704790D01*
X67118304Y-61704798D01*
X66989910Y-61939934D01*
X66896276Y-62190975D01*
X66839329Y-62452757D01*
X66820216Y-62719998D01*
X65490999Y-62719998D01*
X65490999Y-61299628D01*
X65484591Y-61240017D01*
X65484591Y-61240016D01*
X65431197Y-61096859D01*
X65433143Y-61096132D01*
X65420798Y-61039369D01*
X65445218Y-60973905D01*
X65497031Y-60933659D01*
X65509264Y-60928592D01*
X65516666Y-60923645D01*
X65516676Y-60923642D01*
X65516675Y-60923640D01*
X65524703Y-60918276D01*
X65616200Y-60857141D01*
X69446378Y-57026960D01*
X69507699Y-56993477D01*
X69520171Y-56991423D01*
X69530375Y-56990274D01*
X69701705Y-56930323D01*
X69855399Y-56833750D01*
X69983750Y-56705399D01*
X70080323Y-56551705D01*
X70140274Y-56380375D01*
X70142846Y-56357546D01*
X70160597Y-56200003D01*
X70160597Y-56199996D01*
X70140275Y-56019630D01*
X70140274Y-56019625D01*
X70117831Y-55955486D01*
X70115910Y-55949995D01*
X81594732Y-55949995D01*
X81594732Y-55950004D01*
X81613777Y-56204154D01*
X81667503Y-56439544D01*
X81670492Y-56452637D01*
X81763607Y-56689888D01*
X81891041Y-56910612D01*
X82049950Y-57109877D01*
X82236783Y-57283232D01*
X82447366Y-57426805D01*
X82447371Y-57426807D01*
X82447372Y-57426808D01*
X82447373Y-57426809D01*
X82569328Y-57485538D01*
X82676992Y-57537387D01*
X82676993Y-57537387D01*
X82676996Y-57537389D01*
X82920542Y-57612513D01*
X83172565Y-57650500D01*
X83427435Y-57650500D01*
X83679458Y-57612513D01*
X83923004Y-57537389D01*
X84152634Y-57426805D01*
X84363217Y-57283232D01*
X84550050Y-57109877D01*
X84708959Y-56910612D01*
X84836393Y-56689888D01*
X84929508Y-56452637D01*
X84986222Y-56204157D01*
X85000050Y-56019630D01*
X85005268Y-55950004D01*
X85005268Y-55949995D01*
X86594732Y-55949995D01*
X86594732Y-55950004D01*
X86613777Y-56204154D01*
X86667503Y-56439544D01*
X86670492Y-56452637D01*
X86763607Y-56689888D01*
X86891041Y-56910612D01*
X87049950Y-57109877D01*
X87236783Y-57283232D01*
X87447366Y-57426805D01*
X87447371Y-57426807D01*
X87447372Y-57426808D01*
X87447373Y-57426809D01*
X87569328Y-57485538D01*
X87676992Y-57537387D01*
X87676993Y-57537387D01*
X87676996Y-57537389D01*
X87920542Y-57612513D01*
X88172565Y-57650500D01*
X88427435Y-57650500D01*
X88679458Y-57612513D01*
X88923004Y-57537389D01*
X89152634Y-57426805D01*
X89363217Y-57283232D01*
X89550050Y-57109877D01*
X89708959Y-56910612D01*
X89836393Y-56689888D01*
X89929508Y-56452637D01*
X89986222Y-56204157D01*
X90000050Y-56019630D01*
X90005268Y-55950004D01*
X90005268Y-55949995D01*
X91594732Y-55949995D01*
X91594732Y-55950004D01*
X91613777Y-56204154D01*
X91667503Y-56439544D01*
X91670492Y-56452637D01*
X91763607Y-56689888D01*
X91891041Y-56910612D01*
X92049950Y-57109877D01*
X92236783Y-57283232D01*
X92447366Y-57426805D01*
X92447371Y-57426807D01*
X92447372Y-57426808D01*
X92447373Y-57426809D01*
X92569328Y-57485538D01*
X92676992Y-57537387D01*
X92676993Y-57537387D01*
X92676996Y-57537389D01*
X92920542Y-57612513D01*
X93172565Y-57650500D01*
X93427435Y-57650500D01*
X93679458Y-57612513D01*
X93923004Y-57537389D01*
X94152634Y-57426805D01*
X94363217Y-57283232D01*
X94550050Y-57109877D01*
X94708959Y-56910612D01*
X94836393Y-56689888D01*
X94929508Y-56452637D01*
X94986222Y-56204157D01*
X95000050Y-56019630D01*
X95005268Y-55950004D01*
X95005268Y-55949995D01*
X96594732Y-55949995D01*
X96594732Y-55950004D01*
X96613777Y-56204154D01*
X96667503Y-56439544D01*
X96670492Y-56452637D01*
X96763607Y-56689888D01*
X96891041Y-56910612D01*
X97049950Y-57109877D01*
X97236783Y-57283232D01*
X97447366Y-57426805D01*
X97447371Y-57426807D01*
X97447372Y-57426808D01*
X97447373Y-57426809D01*
X97569328Y-57485538D01*
X97676992Y-57537387D01*
X97676993Y-57537387D01*
X97676996Y-57537389D01*
X97920542Y-57612513D01*
X98172565Y-57650500D01*
X98427435Y-57650500D01*
X98679458Y-57612513D01*
X98923004Y-57537389D01*
X99152634Y-57426805D01*
X99363217Y-57283232D01*
X99550050Y-57109877D01*
X99708959Y-56910612D01*
X99836393Y-56689888D01*
X99929508Y-56452637D01*
X99986222Y-56204157D01*
X100000050Y-56019630D01*
X100005268Y-55950004D01*
X100005268Y-55949995D01*
X99986222Y-55695845D01*
X99985938Y-55694601D01*
X99929508Y-55447363D01*
X99836393Y-55210112D01*
X99708959Y-54989388D01*
X99550050Y-54790123D01*
X99363217Y-54616768D01*
X99152634Y-54473195D01*
X99152630Y-54473193D01*
X99152627Y-54473191D01*
X99152626Y-54473190D01*
X98923006Y-54362612D01*
X98923008Y-54362612D01*
X98679466Y-54287489D01*
X98679462Y-54287488D01*
X98679458Y-54287487D01*
X98558231Y-54269214D01*
X98427440Y-54249500D01*
X98427435Y-54249500D01*
X98172565Y-54249500D01*
X98172559Y-54249500D01*
X98015609Y-54273157D01*
X97920542Y-54287487D01*
X97920539Y-54287488D01*
X97920533Y-54287489D01*
X97676992Y-54362612D01*
X97447373Y-54473190D01*
X97447372Y-54473191D01*
X97236782Y-54616768D01*
X97049952Y-54790121D01*
X97049950Y-54790123D01*
X96891041Y-54989388D01*
X96763608Y-55210109D01*
X96670492Y-55447362D01*
X96670490Y-55447369D01*
X96613777Y-55695845D01*
X96594732Y-55949995D01*
X95005268Y-55949995D01*
X94986222Y-55695845D01*
X94985938Y-55694601D01*
X94929508Y-55447363D01*
X94836393Y-55210112D01*
X94708959Y-54989388D01*
X94550050Y-54790123D01*
X94363217Y-54616768D01*
X94152634Y-54473195D01*
X94152630Y-54473193D01*
X94152627Y-54473191D01*
X94152626Y-54473190D01*
X93923006Y-54362612D01*
X93923008Y-54362612D01*
X93679466Y-54287489D01*
X93679462Y-54287488D01*
X93679458Y-54287487D01*
X93558231Y-54269214D01*
X93427440Y-54249500D01*
X93427435Y-54249500D01*
X93172565Y-54249500D01*
X93172559Y-54249500D01*
X93015609Y-54273157D01*
X92920542Y-54287487D01*
X92920539Y-54287488D01*
X92920533Y-54287489D01*
X92676992Y-54362612D01*
X92447373Y-54473190D01*
X92447372Y-54473191D01*
X92236782Y-54616768D01*
X92049952Y-54790121D01*
X92049950Y-54790123D01*
X91891041Y-54989388D01*
X91763608Y-55210109D01*
X91670492Y-55447362D01*
X91670490Y-55447369D01*
X91613777Y-55695845D01*
X91594732Y-55949995D01*
X90005268Y-55949995D01*
X89986222Y-55695845D01*
X89985938Y-55694601D01*
X89929508Y-55447363D01*
X89836393Y-55210112D01*
X89708959Y-54989388D01*
X89550050Y-54790123D01*
X89363217Y-54616768D01*
X89152634Y-54473195D01*
X89152630Y-54473193D01*
X89152627Y-54473191D01*
X89152626Y-54473190D01*
X88923006Y-54362612D01*
X88923008Y-54362612D01*
X88679466Y-54287489D01*
X88679462Y-54287488D01*
X88679458Y-54287487D01*
X88558231Y-54269214D01*
X88427440Y-54249500D01*
X88427435Y-54249500D01*
X88172565Y-54249500D01*
X88172559Y-54249500D01*
X88015609Y-54273157D01*
X87920542Y-54287487D01*
X87920539Y-54287488D01*
X87920533Y-54287489D01*
X87676992Y-54362612D01*
X87447373Y-54473190D01*
X87447372Y-54473191D01*
X87236782Y-54616768D01*
X87049952Y-54790121D01*
X87049950Y-54790123D01*
X86891041Y-54989388D01*
X86763608Y-55210109D01*
X86670492Y-55447362D01*
X86670490Y-55447369D01*
X86613777Y-55695845D01*
X86594732Y-55949995D01*
X85005268Y-55949995D01*
X84986222Y-55695845D01*
X84985938Y-55694601D01*
X84929508Y-55447363D01*
X84836393Y-55210112D01*
X84708959Y-54989388D01*
X84550050Y-54790123D01*
X84363217Y-54616768D01*
X84152634Y-54473195D01*
X84152630Y-54473193D01*
X84152627Y-54473191D01*
X84152626Y-54473190D01*
X83923006Y-54362612D01*
X83923008Y-54362612D01*
X83679466Y-54287489D01*
X83679462Y-54287488D01*
X83679458Y-54287487D01*
X83558231Y-54269214D01*
X83427440Y-54249500D01*
X83427435Y-54249500D01*
X83172565Y-54249500D01*
X83172559Y-54249500D01*
X83015609Y-54273157D01*
X82920542Y-54287487D01*
X82920539Y-54287488D01*
X82920533Y-54287489D01*
X82676992Y-54362612D01*
X82447373Y-54473190D01*
X82447372Y-54473191D01*
X82236782Y-54616768D01*
X82049952Y-54790121D01*
X82049950Y-54790123D01*
X81891041Y-54989388D01*
X81763608Y-55210109D01*
X81670492Y-55447362D01*
X81670490Y-55447369D01*
X81613777Y-55695845D01*
X81594732Y-55949995D01*
X70115910Y-55949995D01*
X70080323Y-55848295D01*
X70029265Y-55767038D01*
X69983750Y-55694601D01*
X69855398Y-55566249D01*
X69701706Y-55469677D01*
X69530374Y-55409725D01*
X69530369Y-55409724D01*
X69350004Y-55389403D01*
X69349996Y-55389403D01*
X69169630Y-55409724D01*
X69169625Y-55409725D01*
X68998293Y-55469677D01*
X68844601Y-55566249D01*
X68716249Y-55694601D01*
X68619676Y-55848295D01*
X68559726Y-56019624D01*
X68559724Y-56019634D01*
X68558575Y-56029831D01*
X68531505Y-56094243D01*
X68523037Y-56103621D01*
X64965878Y-59660781D01*
X64904555Y-59694266D01*
X64878197Y-59697100D01*
X61912716Y-59697100D01*
X61871762Y-59690142D01*
X61713266Y-59634682D01*
X61713261Y-59634681D01*
X61550004Y-59616287D01*
X61549996Y-59616287D01*
X61386738Y-59634681D01*
X61386733Y-59634682D01*
X61247702Y-59683331D01*
X61177923Y-59686892D01*
X61138047Y-59667092D01*
X61136988Y-59668678D01*
X60987553Y-59568828D01*
X60987540Y-59568821D01*
X60827128Y-59502377D01*
X60827118Y-59502374D01*
X60656822Y-59468500D01*
X60656820Y-59468500D01*
X60336821Y-59468500D01*
X60163179Y-59468500D01*
X60163174Y-59468500D01*
X59992883Y-59502373D01*
X59992875Y-59502375D01*
X59903484Y-59539403D01*
X59903483Y-59539403D01*
X59832459Y-59568821D01*
X59832446Y-59568828D01*
X59761422Y-59616286D01*
X59688073Y-59665295D01*
X57065293Y-62288075D01*
X56998168Y-62388535D01*
X56998169Y-62388536D01*
X56968827Y-62432449D01*
X56968823Y-62432456D01*
X56902376Y-62592875D01*
X56902374Y-62592881D01*
X56868500Y-62763177D01*
X56868500Y-62763180D01*
X56868500Y-107845179D01*
X56868500Y-108018821D01*
X56868500Y-108018823D01*
X56868499Y-108018823D01*
X56411701Y-108018823D01*
X56411701Y-55099998D01*
X64280216Y-55099998D01*
X64280216Y-55100001D01*
X64299329Y-55367242D01*
X64356276Y-55629024D01*
X64356278Y-55629030D01*
X64356279Y-55629033D01*
X64438060Y-55848295D01*
X64449910Y-55880065D01*
X64578304Y-56115201D01*
X64578309Y-56115209D01*
X64738859Y-56329679D01*
X64738875Y-56329697D01*
X64928302Y-56519124D01*
X64928320Y-56519140D01*
X65142790Y-56679690D01*
X65142798Y-56679695D01*
X65377934Y-56808089D01*
X65377933Y-56808089D01*
X65377937Y-56808090D01*
X65377940Y-56808092D01*
X65628967Y-56901721D01*
X65628973Y-56901722D01*
X65628975Y-56901723D01*
X65890757Y-56958670D01*
X65890759Y-56958670D01*
X65890763Y-56958671D01*
X66128245Y-56975655D01*
X66157999Y-56977784D01*
X66158000Y-56977784D01*
X66158001Y-56977784D01*
X66184773Y-56975869D01*
X66425237Y-56958671D01*
X66687033Y-56901721D01*
X66938060Y-56808092D01*
X67173207Y-56679692D01*
X67387687Y-56519134D01*
X67577134Y-56329687D01*
X67737692Y-56115207D01*
X67866092Y-55880060D01*
X67959721Y-55629033D01*
X68016671Y-55367237D01*
X68035784Y-55100000D01*
X68016671Y-54832763D01*
X68007395Y-54790123D01*
X67959723Y-54570975D01*
X67959722Y-54570973D01*
X67959721Y-54570967D01*
X67866092Y-54319940D01*
X67848372Y-54287489D01*
X67737695Y-54084798D01*
X67737690Y-54084790D01*
X67577140Y-53870320D01*
X67577124Y-53870302D01*
X67387697Y-53680875D01*
X67387679Y-53680859D01*
X67173209Y-53520309D01*
X67173201Y-53520304D01*
X66938065Y-53391910D01*
X66938066Y-53391910D01*
X66837649Y-53354456D01*
X66687033Y-53298279D01*
X66687030Y-53298278D01*
X66687024Y-53298276D01*
X66425242Y-53241329D01*
X66158001Y-53222216D01*
X66157999Y-53222216D01*
X65890757Y-53241329D01*
X65628975Y-53298276D01*
X65377934Y-53391910D01*
X65142798Y-53520304D01*
X65142790Y-53520309D01*
X64928320Y-53680859D01*
X64928302Y-53680875D01*
X64738875Y-53870302D01*
X64738859Y-53870320D01*
X64578309Y-54084790D01*
X64578304Y-54084798D01*
X64449910Y-54319934D01*
X64356276Y-54570975D01*
X64299329Y-54832757D01*
X64280216Y-55099998D01*
X56411701Y-55099998D01*
X56411701Y-52978456D01*
X74595500Y-52978456D01*
X74595500Y-53221543D01*
X74595501Y-53221559D01*
X74627230Y-53462569D01*
X74690149Y-53697386D01*
X74783175Y-53921972D01*
X74783182Y-53921987D01*
X74904730Y-54132516D01*
X75052722Y-54325380D01*
X75052730Y-54325389D01*
X75224611Y-54497270D01*
X75224619Y-54497277D01*
X75417483Y-54645269D01*
X75628012Y-54766817D01*
X75628027Y-54766824D01*
X75744171Y-54814932D01*
X75852612Y-54859850D01*
X76087429Y-54922769D01*
X76328450Y-54954500D01*
X76328457Y-54954500D01*
X76571543Y-54954500D01*
X76571550Y-54954500D01*
X76812571Y-54922769D01*
X77047388Y-54859850D01*
X77271984Y-54766819D01*
X77482516Y-54645269D01*
X77675380Y-54497278D01*
X77675384Y-54497273D01*
X77675389Y-54497270D01*
X77847270Y-54325389D01*
X77847273Y-54325384D01*
X77847278Y-54325380D01*
X77980215Y-54152135D01*
X104464500Y-54152135D01*
X104464500Y-56047870D01*
X104464501Y-56047876D01*
X104470908Y-56107483D01*
X104521202Y-56242328D01*
X104521206Y-56242335D01*
X104607452Y-56357544D01*
X104607455Y-56357547D01*
X104722664Y-56443793D01*
X104722671Y-56443797D01*
X104857517Y-56494091D01*
X104857516Y-56494091D01*
X104864444Y-56494835D01*
X104917127Y-56500500D01*
X106082872Y-56500499D01*
X106142483Y-56494091D01*
X106277331Y-56443796D01*
X106277335Y-56443792D01*
X106285118Y-56439544D01*
X106286269Y-56441653D01*
X106339614Y-56421749D01*
X106395928Y-56430870D01*
X106467956Y-56460706D01*
X106467960Y-56460706D01*
X106467961Y-56460707D01*
X106668009Y-56500500D01*
X106668012Y-56500500D01*
X106871990Y-56500500D01*
X107006579Y-56473727D01*
X107072044Y-56460706D01*
X107260493Y-56382648D01*
X107336109Y-56332123D01*
X107402786Y-56311245D01*
X107470166Y-56329729D01*
X107473891Y-56332123D01*
X107549507Y-56382648D01*
X107549509Y-56382649D01*
X107549513Y-56382651D01*
X107737951Y-56460704D01*
X107737956Y-56460706D01*
X107737960Y-56460706D01*
X107737961Y-56460707D01*
X107938009Y-56500500D01*
X107938012Y-56500500D01*
X108141990Y-56500500D01*
X108276579Y-56473727D01*
X108342044Y-56460706D01*
X108530493Y-56382648D01*
X108606109Y-56332123D01*
X108672786Y-56311245D01*
X108740166Y-56329729D01*
X108743891Y-56332123D01*
X108819507Y-56382648D01*
X108819509Y-56382649D01*
X108819513Y-56382651D01*
X109007951Y-56460704D01*
X109007956Y-56460706D01*
X109007960Y-56460706D01*
X109007961Y-56460707D01*
X109208009Y-56500500D01*
X109208012Y-56500500D01*
X109411990Y-56500500D01*
X109546579Y-56473727D01*
X109612044Y-56460706D01*
X109800493Y-56382648D01*
X109970093Y-56269325D01*
X110114325Y-56125093D01*
X110227648Y-55955493D01*
X110305706Y-55767044D01*
X110318727Y-55701579D01*
X110345500Y-55566990D01*
X110345500Y-54633009D01*
X110305707Y-54432961D01*
X110305706Y-54432960D01*
X110305706Y-54432956D01*
X110276568Y-54362611D01*
X110227651Y-54244513D01*
X110227644Y-54244500D01*
X110114325Y-54074907D01*
X110114322Y-54074903D01*
X109970096Y-53930677D01*
X109970092Y-53930674D01*
X109800499Y-53817355D01*
X109800486Y-53817348D01*
X109612048Y-53739295D01*
X109612038Y-53739292D01*
X109411990Y-53699500D01*
X109411988Y-53699500D01*
X109208012Y-53699500D01*
X109208010Y-53699500D01*
X109007961Y-53739292D01*
X109007951Y-53739295D01*
X108819509Y-53817350D01*
X108743891Y-53867877D01*
X108677213Y-53888755D01*
X108609833Y-53870270D01*
X108606109Y-53867877D01*
X108530490Y-53817350D01*
X108342048Y-53739295D01*
X108342038Y-53739292D01*
X108141990Y-53699500D01*
X108141988Y-53699500D01*
X107938012Y-53699500D01*
X107938010Y-53699500D01*
X107737961Y-53739292D01*
X107737951Y-53739295D01*
X107549509Y-53817350D01*
X107473891Y-53867877D01*
X107407213Y-53888755D01*
X107339833Y-53870270D01*
X107336109Y-53867877D01*
X107260490Y-53817350D01*
X107072048Y-53739295D01*
X107072038Y-53739292D01*
X106871990Y-53699500D01*
X106871988Y-53699500D01*
X106668012Y-53699500D01*
X106668010Y-53699500D01*
X106467962Y-53739292D01*
X106467959Y-53739293D01*
X106467957Y-53739293D01*
X106467956Y-53739294D01*
X106420487Y-53758956D01*
X106395927Y-53769129D01*
X106326458Y-53776597D01*
X106285931Y-53758956D01*
X106285114Y-53760454D01*
X106277328Y-53756202D01*
X106142482Y-53705908D01*
X106142483Y-53705908D01*
X106082883Y-53699501D01*
X106082881Y-53699500D01*
X106082873Y-53699500D01*
X106082864Y-53699500D01*
X104917129Y-53699500D01*
X104917123Y-53699501D01*
X104857516Y-53705908D01*
X104722671Y-53756202D01*
X104722664Y-53756206D01*
X104607455Y-53842452D01*
X104607452Y-53842455D01*
X104521206Y-53957664D01*
X104521202Y-53957671D01*
X104470908Y-54092517D01*
X104464501Y-54152116D01*
X104464500Y-54152135D01*
X77980215Y-54152135D01*
X77995269Y-54132516D01*
X78116819Y-53921984D01*
X78209850Y-53697388D01*
X78272769Y-53462571D01*
X78304500Y-53221550D01*
X78304500Y-52978450D01*
X78272769Y-52737429D01*
X78209850Y-52502612D01*
X78132131Y-52314982D01*
X78116824Y-52278027D01*
X78116817Y-52278012D01*
X77995269Y-52067483D01*
X77847277Y-51874619D01*
X77847270Y-51874611D01*
X77675389Y-51702730D01*
X77675380Y-51702722D01*
X77598070Y-51643399D01*
X102295500Y-51643399D01*
X102295500Y-51856600D01*
X102328853Y-52067180D01*
X102328853Y-52067183D01*
X102394734Y-52269944D01*
X102394736Y-52269947D01*
X102491528Y-52459913D01*
X102616846Y-52632397D01*
X102767603Y-52783154D01*
X102940087Y-52908472D01*
X103130053Y-53005264D01*
X103130055Y-53005265D01*
X103319182Y-53066715D01*
X103332821Y-53071147D01*
X103543399Y-53104500D01*
X103543400Y-53104500D01*
X103756600Y-53104500D01*
X103756601Y-53104500D01*
X103967179Y-53071147D01*
X103967182Y-53071146D01*
X103967183Y-53071146D01*
X104169944Y-53005265D01*
X104169944Y-53005264D01*
X104169947Y-53005264D01*
X104359913Y-52908472D01*
X104532397Y-52783154D01*
X104683154Y-52632397D01*
X104808472Y-52459913D01*
X104905264Y-52269947D01*
X104971048Y-52067484D01*
X104971146Y-52067183D01*
X104971146Y-52067182D01*
X104971147Y-52067179D01*
X105004500Y-51856601D01*
X105004500Y-51643399D01*
X104971147Y-51432821D01*
X104971146Y-51432817D01*
X104971146Y-51432816D01*
X104905265Y-51230055D01*
X104905263Y-51230052D01*
X104870427Y-51161681D01*
X104808472Y-51040087D01*
X104683154Y-50867603D01*
X104532397Y-50716846D01*
X104359913Y-50591528D01*
X104169947Y-50494736D01*
X104169944Y-50494734D01*
X103967181Y-50428853D01*
X103826793Y-50406617D01*
X103756601Y-50395500D01*
X103543399Y-50395500D01*
X103473206Y-50406617D01*
X103332819Y-50428853D01*
X103332816Y-50428853D01*
X103130055Y-50494734D01*
X103130052Y-50494736D01*
X102940086Y-50591528D01*
X102767601Y-50716847D01*
X102616847Y-50867601D01*
X102491528Y-51040086D01*
X102394736Y-51230052D01*
X102394734Y-51230055D01*
X102328853Y-51432816D01*
X102328853Y-51432819D01*
X102295500Y-51643399D01*
X77598070Y-51643399D01*
X77482516Y-51554730D01*
X77271987Y-51433182D01*
X77271972Y-51433175D01*
X77047386Y-51340149D01*
X76812569Y-51277230D01*
X76571559Y-51245501D01*
X76571556Y-51245500D01*
X76571550Y-51245500D01*
X76328450Y-51245500D01*
X76328444Y-51245500D01*
X76328440Y-51245501D01*
X76087430Y-51277230D01*
X75852613Y-51340149D01*
X75628027Y-51433175D01*
X75628012Y-51433182D01*
X75417483Y-51554730D01*
X75224619Y-51702722D01*
X75052722Y-51874619D01*
X74904730Y-52067483D01*
X74783182Y-52278012D01*
X74783175Y-52278027D01*
X74690149Y-52502613D01*
X74627230Y-52737430D01*
X74595501Y-52978440D01*
X74595500Y-52978456D01*
X56411701Y-52978456D01*
X56411701Y-52462682D01*
X56411716Y-52460743D01*
X56413996Y-52314982D01*
X56415042Y-52300736D01*
X56418034Y-52278012D01*
X56453216Y-52010775D01*
X56456375Y-51994890D01*
X56531826Y-51713304D01*
X56537031Y-51697972D01*
X56648586Y-51428652D01*
X56655744Y-51414137D01*
X56801500Y-51161681D01*
X56810502Y-51148209D01*
X56987959Y-50916942D01*
X56998640Y-50904763D01*
X57204763Y-50698640D01*
X57216942Y-50687959D01*
X57448209Y-50510502D01*
X57461681Y-50501500D01*
X57714137Y-50355744D01*
X57728652Y-50348586D01*
X57997972Y-50237031D01*
X58013304Y-50231826D01*
X58294890Y-50156375D01*
X58310775Y-50153216D01*
X58600739Y-50115041D01*
X58614979Y-50113996D01*
X58748528Y-50111907D01*
X58760743Y-50111716D01*
X58762682Y-50111701D01*
X109037318Y-50111701D01*
X109039257Y-50111716D01*
G37*
%TD.AperFunction*%
%TD*%
%TA.AperFunction,Conductor*%
%TO.N,/Motor Driver/BRB*%
G36*
X94096787Y-73458438D02*
G01*
X94221925Y-73510272D01*
X94262152Y-73537152D01*
X95935847Y-75210847D01*
X95962727Y-75251075D01*
X96014561Y-75376212D01*
X96024000Y-75423665D01*
X96024000Y-76274334D01*
X96014561Y-76321787D01*
X95970432Y-76428324D01*
X95926591Y-76482727D01*
X95903324Y-76495432D01*
X95796788Y-76539561D01*
X95749335Y-76549000D01*
X95498665Y-76549000D01*
X95451212Y-76539561D01*
X95326075Y-76487727D01*
X95285847Y-76460847D01*
X93594711Y-74769711D01*
X93524000Y-74699000D01*
X93424002Y-74699000D01*
X92398665Y-74699000D01*
X92351212Y-74689561D01*
X92226075Y-74637727D01*
X92185847Y-74610847D01*
X92112152Y-74537152D01*
X92085272Y-74496923D01*
X92033439Y-74371786D01*
X92024000Y-74324334D01*
X92024000Y-73973665D01*
X92033439Y-73926213D01*
X92085272Y-73801076D01*
X92112149Y-73760850D01*
X92335850Y-73537149D01*
X92376074Y-73510272D01*
X92438644Y-73484355D01*
X92501213Y-73458439D01*
X92548665Y-73449000D01*
X94049335Y-73449000D01*
X94096787Y-73458438D01*
G37*
%TD.AperFunction*%
%TD*%
%TA.AperFunction,Conductor*%
%TO.N,/Motor Driver/BRA*%
G36*
X89689787Y-73458438D02*
G01*
X89814925Y-73510272D01*
X89855152Y-73537152D01*
X90078847Y-73760847D01*
X90105727Y-73801075D01*
X90157561Y-73926212D01*
X90167000Y-73973665D01*
X90167000Y-74324334D01*
X90157561Y-74371787D01*
X90105727Y-74496924D01*
X90078847Y-74537152D01*
X90005152Y-74610847D01*
X89964925Y-74637727D01*
X89920572Y-74656098D01*
X89839786Y-74689561D01*
X89792335Y-74699000D01*
X88667000Y-74699000D01*
X88596289Y-74769710D01*
X88596288Y-74769711D01*
X86905152Y-76460847D01*
X86864925Y-76487727D01*
X86846324Y-76495432D01*
X86739786Y-76539561D01*
X86692335Y-76549000D01*
X86441665Y-76549000D01*
X86394212Y-76539561D01*
X86287674Y-76495431D01*
X86233272Y-76451591D01*
X86220567Y-76428323D01*
X86176439Y-76321786D01*
X86167000Y-76274334D01*
X86167000Y-75423665D01*
X86176439Y-75376213D01*
X86228272Y-75251076D01*
X86255149Y-75210850D01*
X87928850Y-73537149D01*
X87969074Y-73510272D01*
X88031644Y-73484355D01*
X88094213Y-73458439D01*
X88141665Y-73449000D01*
X89642335Y-73449000D01*
X89689787Y-73458438D01*
G37*
%TD.AperFunction*%
%TD*%
D40*
X95050000Y-83175000D03*
X94275000Y-83200000D03*
X86675000Y-88850000D03*
X77450000Y-110050000D03*
X81025000Y-111200000D03*
X88175000Y-112725000D03*
X78600000Y-117550000D03*
X84450000Y-117800000D03*
X85475000Y-118700000D03*
X85525000Y-117425000D03*
X91700000Y-75350000D03*
X91700000Y-76550000D03*
X90500000Y-76550000D03*
X90500000Y-75350000D03*
X91100000Y-75950000D03*
X96000000Y-78300000D03*
X96000000Y-77400000D03*
X92850000Y-77950000D03*
X91500000Y-78800000D03*
X83900000Y-78600000D03*
X83900000Y-79900000D03*
X84800000Y-84500000D03*
X85600000Y-84200000D03*
X87300000Y-77300000D03*
X90900000Y-65000000D03*
X80457400Y-65100000D03*
X90400000Y-69600000D03*
X91700000Y-69100000D03*
X89600000Y-65600000D03*
X92500000Y-65600000D03*
X80300000Y-77100000D03*
X64600000Y-78500000D03*
X65500000Y-78600000D03*
X67200000Y-81100000D03*
X61200000Y-84000000D03*
X60300000Y-84000000D03*
X59100000Y-67500000D03*
X59100000Y-69400000D03*
X60000000Y-70900000D03*
X60000000Y-72000000D03*
X70900000Y-68300000D03*
X71100000Y-94700000D03*
X107100000Y-87900000D03*
X98000000Y-89100000D03*
X87000000Y-98700000D03*
X93000000Y-104200000D03*
X97500000Y-103200000D03*
X98700000Y-104600000D03*
X95200000Y-108200000D03*
X96200000Y-108200000D03*
X81900000Y-99600000D03*
X82700000Y-99600000D03*
X78100000Y-102600000D03*
X78100000Y-103500000D03*
X77100000Y-107600000D03*
X77100000Y-106600000D03*
D41*
X74800000Y-111900000D03*
X80400000Y-112000000D03*
D40*
X74800000Y-70200000D03*
X75900000Y-106600000D03*
X108193213Y-124255000D03*
X108193213Y-84255000D03*
X108193213Y-80255000D03*
X108193213Y-68255000D03*
X108193213Y-60255000D03*
X108193213Y-52255000D03*
X104193213Y-128255000D03*
X104193213Y-124255000D03*
X104193213Y-92255000D03*
X100193213Y-128255000D03*
X100193213Y-124255000D03*
X100193213Y-100255000D03*
X100193213Y-80255000D03*
X100193213Y-52255000D03*
X96193213Y-128255000D03*
X96193213Y-124255000D03*
X96193213Y-52255000D03*
X92193213Y-124255000D03*
X92193213Y-52255000D03*
X88193213Y-92255000D03*
X88193213Y-80255000D03*
X88193213Y-52255000D03*
X84193213Y-128255000D03*
X84193213Y-52255000D03*
X80193213Y-128255000D03*
X80193213Y-56255000D03*
X80193213Y-52255000D03*
X76193213Y-128255000D03*
X76193213Y-100255000D03*
X76193213Y-88255000D03*
X76193213Y-84255000D03*
X76193213Y-72255000D03*
X76193213Y-56255000D03*
X72193213Y-96255000D03*
X72193213Y-84255000D03*
X72193213Y-56255000D03*
X72193213Y-52255000D03*
X68193213Y-128255000D03*
X68193213Y-124255000D03*
X68193213Y-84255000D03*
X64193213Y-124255000D03*
X60193213Y-124255000D03*
X103308918Y-115600000D03*
X103900000Y-105600000D03*
X101300000Y-116500000D03*
X103000000Y-106700000D03*
X100500000Y-115900000D03*
X102300000Y-107600000D03*
D41*
X71300000Y-102800000D03*
X74600000Y-101400000D03*
X99250000Y-86950000D03*
D40*
X90425713Y-107632600D03*
D41*
X61550000Y-60350000D03*
D40*
X60570000Y-60350000D03*
X69350000Y-56200000D03*
X81000000Y-101600000D03*
X80400000Y-101000000D03*
X105800000Y-101800000D03*
X83900000Y-105700000D03*
X80242433Y-106909800D03*
X88100000Y-105900000D03*
X90800000Y-105500000D03*
X80500000Y-113300000D03*
X79800000Y-125066400D03*
X91300000Y-104000000D03*
X89800000Y-115600000D03*
X92609636Y-103197343D03*
X87200000Y-126300000D03*
X91874662Y-103400000D03*
X91600000Y-112533600D03*
X70100000Y-104800000D03*
X70300000Y-86700000D03*
X71300000Y-64566400D03*
X91200000Y-72900000D03*
X81876685Y-72853697D03*
X90500000Y-72300000D03*
X99600000Y-107000000D03*
X100100000Y-72900000D03*
D41*
X90600000Y-78700000D03*
X92800000Y-79800000D03*
D40*
X83000000Y-92900000D03*
X81500000Y-92900000D03*
X96100000Y-95000000D03*
X85100000Y-97200000D03*
X85693294Y-102002915D03*
X91427313Y-100127313D03*
X93100000Y-85600000D03*
X93453262Y-76805290D03*
X107700000Y-71700000D03*
X78300000Y-68500000D03*
X59500000Y-72900000D03*
X82400000Y-98500000D03*
X59600000Y-88700000D03*
X89308365Y-101108365D03*
X80800000Y-93700000D03*
X78900000Y-93700000D03*
X86900000Y-116100000D03*
X85800000Y-113422687D03*
D41*
X86400000Y-75700000D03*
X89400000Y-73800000D03*
X89700000Y-74300000D03*
X90000000Y-73900000D03*
X86600000Y-76200000D03*
X86900000Y-75700000D03*
X86700000Y-75200000D03*
X92400000Y-74400000D03*
X95700000Y-75700000D03*
X92200000Y-73900000D03*
X95500000Y-76200000D03*
X95200000Y-75700000D03*
X95500000Y-75200000D03*
X92700000Y-73800000D03*
D40*
X91800000Y-116800000D03*
X93300000Y-102700000D03*
X106100000Y-96500000D03*
X83522687Y-98777313D03*
X80800000Y-96100000D03*
X97900000Y-90900000D03*
X66067000Y-83700000D03*
D41*
X64000000Y-73300000D03*
D40*
X100000000Y-116900000D03*
X100100000Y-113300000D03*
X75900000Y-69500000D03*
X101500000Y-107300000D03*
X101600000Y-72900000D03*
X85300000Y-116500000D03*
X86519300Y-111919300D03*
D42*
X79168000Y-124025000D03*
X84948000Y-124025000D03*
D43*
X77738000Y-123525000D03*
D44*
X77738000Y-127705000D03*
D43*
X86378000Y-123525000D03*
D44*
X86378000Y-127705000D03*
D40*
X84730000Y-107774000D03*
X86005000Y-107774000D03*
X87280000Y-107774000D03*
X84730000Y-106499000D03*
X86005000Y-106499000D03*
X87280000Y-106499000D03*
X84730000Y-105224000D03*
X86005000Y-105224000D03*
X87280000Y-105224000D03*
X61761000Y-76530000D03*
X62711000Y-76530000D03*
X63661000Y-76530000D03*
X61761000Y-75530000D03*
X62711000Y-75530000D03*
X63661000Y-75530000D03*
D42*
X103650000Y-51750000D03*
X59411701Y-127088299D03*
X100000000Y-93350000D03*
X76450000Y-53100000D03*
X108388299Y-127088299D03*
X108400000Y-63700000D03*
X106005000Y-76100000D03*
X106005000Y-80600000D03*
X103515000Y-74845000D03*
X103515000Y-81855000D03*
X94300000Y-122700000D03*
X94300000Y-117700000D03*
X108000000Y-91000000D03*
X108000000Y-93500000D03*
X108000000Y-96000000D03*
X96770000Y-84770000D03*
X99270000Y-84770000D03*
X101770000Y-84770000D03*
X93520000Y-96750000D03*
X93520000Y-90250000D03*
X89020000Y-96750000D03*
X89020000Y-90250000D03*
X104270000Y-87175000D03*
X104270000Y-99825000D03*
X94270000Y-99825000D03*
X94270000Y-87175000D03*
X105500000Y-55100000D03*
X106770000Y-55100000D03*
X108040000Y-55100000D03*
X109310000Y-55100000D03*
X83300000Y-55950000D03*
X88300000Y-55950000D03*
X93300000Y-55950000D03*
X98300000Y-55950000D03*
X68698000Y-108720000D03*
X63618000Y-108720000D03*
X66158000Y-116340000D03*
X102700000Y-119340000D03*
X105240000Y-119340000D03*
X102700000Y-116800000D03*
X105240000Y-116800000D03*
X102700000Y-114260000D03*
X105240000Y-114260000D03*
X63618000Y-62720000D03*
X68698000Y-62720000D03*
X66158000Y-55100000D03*
X109100000Y-119350000D03*
X109100000Y-116810000D03*
X109100000Y-114270000D03*
X109100000Y-111730000D03*
X109100000Y-109190000D03*
X109100000Y-106650000D03*
X109100000Y-104110000D03*
X109100000Y-101570000D03*
M02*
