M48
METRIC,TZ
T1C0.300
T2C0.600
T3C0.850
T4C1.000
T5C1.100
T6C1.300
T7C1.600
T8C1.830
%
G90
G05
T1
X62619Y-74470
X62619Y-75470
X63569Y-74470
X63569Y-75470
X64519Y-74470
X64519Y-75470
X89284Y-110838
X89284Y-112113
X89284Y-113388
X90559Y-110838
X90559Y-112113
X90559Y-113388
X91834Y-110838
X91834Y-112113
X91834Y-113388
T3
X79051Y-112400
X84051Y-112400
T4
X98643Y-113835
X98643Y-116375
X98643Y-118915
X101183Y-113835
X101183Y-116375
X101183Y-118915
X101908Y-80190
X101908Y-84690
T5
X75974Y-88899
X75974Y-91399
X75974Y-93899
X80658Y-55140
X80658Y-60140
X82204Y-100129
X84158Y-55140
X84158Y-60140
X84704Y-100129
X87204Y-100129
X87658Y-55140
X87658Y-60140
X91158Y-55140
X91158Y-60140
T6
X90454Y-88149
X90454Y-94649
X94954Y-88149
X94954Y-94649
X99418Y-78935
X99418Y-85945
T7
X79704Y-85074
X79704Y-97724
X89704Y-85074
X89704Y-97724
T8
X63618Y-62720
X63618Y-108720
X66158Y-55100
X66158Y-116340
X68698Y-62720
X68698Y-108720
T2
G00X77738Y-122975
M15
G01X77738Y-124075
M16
G05
G00X77738Y-127305
M15
G01X77738Y-128105
M16
G05
G00X86378Y-122975
M15
G01X86378Y-124075
M16
G05
G00X86378Y-127305
M15
G01X86378Y-128105
M16
G05
M30
