%TF.GenerationSoftware,KiCad,Pcbnew,8.0.6*%
%TF.CreationDate,2024-10-28T23:36:15+00:00*%
%TF.ProjectId,StepUp,53746570-5570-42e6-9b69-6361645f7063,v0.1*%
%TF.SameCoordinates,Original*%
%TF.FileFunction,Soldermask,Bot*%
%TF.FilePolarity,Negative*%
%FSLAX46Y46*%
G04 Gerber Fmt 4.6, Leading zero omitted, Abs format (unit mm)*
G04 Created by KiCad (PCBNEW 8.0.6) date 2024-10-28 23:36:15*
%MOMM*%
%LPD*%
G01*
G04 APERTURE LIST*
G04 Aperture macros list*
%AMFreePoly0*
4,1,19,0.550000,-0.750000,0.000000,-0.750000,0.000000,-0.744911,-0.071157,-0.744911,-0.207708,-0.704816,-0.327430,-0.627875,-0.420627,-0.520320,-0.479746,-0.390866,-0.500000,-0.250000,-0.500000,0.250000,-0.479746,0.390866,-0.420627,0.520320,-0.327430,0.627875,-0.207708,0.704816,-0.071157,0.744911,0.000000,0.744911,0.000000,0.750000,0.550000,0.750000,0.550000,-0.750000,0.550000,-0.750000,
$1*%
%AMFreePoly1*
4,1,19,0.000000,0.744911,0.071157,0.744911,0.207708,0.704816,0.327430,0.627875,0.420627,0.520320,0.479746,0.390866,0.500000,0.250000,0.500000,-0.250000,0.479746,-0.390866,0.420627,-0.520320,0.327430,-0.627875,0.207708,-0.704816,0.071157,-0.744911,0.000000,-0.744911,0.000000,-0.750000,-0.550000,-0.750000,-0.550000,0.750000,0.000000,0.750000,0.000000,0.744911,0.000000,0.744911,
$1*%
G04 Aperture macros list end*
%ADD10C,0.650000*%
%ADD11O,1.000000X2.100000*%
%ADD12O,1.000000X1.800000*%
%ADD13C,2.200000*%
%ADD14R,1.700000X1.700000*%
%ADD15O,1.700000X1.700000*%
%ADD16C,1.550000*%
%ADD17C,2.000000*%
%ADD18C,1.350000*%
%ADD19C,1.650000*%
%ADD20C,1.950000*%
%ADD21C,2.400000*%
%ADD22R,2.745000X2.745000*%
%ADD23C,2.745000*%
%ADD24C,1.854000*%
%ADD25FreePoly0,180.000000*%
%ADD26R,1.000000X1.500000*%
%ADD27FreePoly1,180.000000*%
G04 APERTURE END LIST*
D10*
%TO.C,J1*%
X79168000Y-124025000D03*
X84948000Y-124025000D03*
D11*
X77738000Y-123525000D03*
D12*
X77738000Y-127705000D03*
D11*
X86378000Y-123525000D03*
D12*
X86378000Y-127705000D03*
%TD*%
D13*
%TO.C,H3*%
X59708000Y-126890000D03*
%TD*%
%TO.C,H2*%
X100458000Y-53090000D03*
%TD*%
%TO.C,H1*%
X59708000Y-53090000D03*
%TD*%
D14*
%TO.C,J2*%
X101183000Y-118915000D03*
D15*
X98643000Y-118915000D03*
X101183000Y-116375000D03*
X98643000Y-116375000D03*
X101183000Y-113835000D03*
X98643000Y-113835000D03*
%TD*%
D13*
%TO.C,H4*%
X100458000Y-126890000D03*
%TD*%
D16*
%TO.C,SW3*%
X101908000Y-80190000D03*
X101908000Y-84690000D03*
D17*
X99418000Y-78935000D03*
X99418000Y-85945000D03*
%TD*%
D18*
%TO.C,BZ1*%
X79050500Y-112400000D03*
X84050500Y-112400000D03*
%TD*%
D19*
%TO.C,JOY1*%
X75974400Y-93898501D03*
X75974400Y-91398501D03*
X75974400Y-88898501D03*
X87204400Y-100128501D03*
X84704400Y-100128501D03*
X82204400Y-100128501D03*
D20*
X90454400Y-88148501D03*
X90454400Y-94648501D03*
X94954400Y-88148501D03*
X94954400Y-94648501D03*
D21*
X79704400Y-97723501D03*
X79704400Y-85073501D03*
X89704400Y-85073501D03*
X89704400Y-97723501D03*
%TD*%
D22*
%TO.C,BT2*%
X68698000Y-108720000D03*
D23*
X63618000Y-108720000D03*
X66158000Y-116340000D03*
%TD*%
D24*
%TO.C,J3*%
X80658000Y-60140000D03*
X80658000Y-55140000D03*
X84158000Y-60140000D03*
X84158000Y-55140000D03*
X87658000Y-60140000D03*
X87658000Y-55140000D03*
X91158000Y-60140000D03*
X91158000Y-55140000D03*
%TD*%
D25*
%TO.C,JP2*%
X78650500Y-105400000D03*
D26*
X77350500Y-105400000D03*
D27*
X76050500Y-105400000D03*
%TD*%
D22*
%TO.C,BT1*%
X63618000Y-62720000D03*
D23*
X68698000Y-62720000D03*
X66158000Y-55100000D03*
%TD*%
M02*
