M48
; DRILL file {KiCad 8.0.6} date 2024-11-28T22:24:39+0000
; FORMAT={-:-/ absolute / metric / decimal}
; #@! TF.CreationDate,2024-11-28T22:24:39+00:00
; #@! TF.GenerationSoftware,Kicad,Pcbnew,8.0.6
; #@! TF.FileFunction,MixedPlating,1,4
FMAT,2
METRIC
; #@! TA.AperFunction,Plated,PTH,ViaDrill
T1C0.254
; #@! TA.AperFunction,Plated,PTH,ViaDrill
T2C0.300
; #@! TA.AperFunction,Plated,PTH,ComponentDrill
T3C0.300
; #@! TA.AperFunction,Plated,PTH,ComponentDrill
T4C0.600
; #@! TA.AperFunction,Plated,PTH,ComponentDrill
T5C0.850
; #@! TA.AperFunction,Plated,PTH,ComponentDrill
T6C0.900
; #@! TA.AperFunction,Plated,PTH,ComponentDrill
T7C1.000
; #@! TA.AperFunction,Plated,PTH,ComponentDrill
T8C1.100
; #@! TA.AperFunction,Plated,PTH,ComponentDrill
T9C1.300
; #@! TA.AperFunction,Plated,PTH,ComponentDrill
T10C1.400
; #@! TA.AperFunction,Plated,PTH,ComponentDrill
T11C1.600
; #@! TA.AperFunction,Plated,PTH,ComponentDrill
T12C1.830
; #@! TA.AperFunction,NonPlated,NPTH,ComponentDrill
T13C0.650
; #@! TA.AperFunction,NonPlated,NPTH,ComponentDrill
T14C2.200
; #@! TA.AperFunction,NonPlated,NPTH,ComponentDrill
T15C3.200
%
G90
G05
T1
X61.55Y-60.35
X64.0Y-73.3
X71.3Y-102.8
X74.6Y-101.4
X74.8Y-111.9
X80.4Y-112.0
X86.4Y-75.7
X86.6Y-76.2
X86.7Y-75.2
X86.9Y-75.7
X89.4Y-73.8
X89.7Y-74.3
X90.0Y-73.9
X90.6Y-78.7
X92.2Y-73.9
X92.4Y-74.4
X92.7Y-73.8
X92.8Y-79.8
X95.2Y-75.7
X95.5Y-75.2
X95.5Y-76.2
X95.7Y-75.7
X99.25Y-86.95
T2
X59.1Y-67.5
X59.1Y-69.4
X59.5Y-72.9
X59.6Y-88.7
X60.0Y-70.9
X60.0Y-72.0
X60.193Y-124.255
X60.3Y-84.0
X60.57Y-60.35
X61.2Y-84.0
X64.193Y-124.255
X64.6Y-78.5
X65.5Y-78.6
X66.067Y-83.7
X67.2Y-81.1
X68.193Y-84.255
X68.193Y-124.255
X68.193Y-128.255
X69.35Y-56.2
X70.1Y-104.8
X70.3Y-86.7
X70.9Y-68.3
X71.1Y-94.7
X71.3Y-64.566
X72.193Y-52.255
X72.193Y-56.255
X72.193Y-84.255
X72.193Y-96.255
X74.8Y-70.2
X75.9Y-69.5
X75.9Y-106.6
X76.193Y-56.255
X76.193Y-72.255
X76.193Y-84.255
X76.193Y-88.255
X76.193Y-100.255
X76.193Y-128.255
X77.1Y-106.6
X77.1Y-107.6
X77.45Y-110.05
X78.1Y-102.6
X78.1Y-103.5
X78.3Y-68.5
X78.6Y-117.55
X78.9Y-93.7
X79.8Y-125.066
X80.193Y-52.255
X80.193Y-56.255
X80.193Y-128.255
X80.242Y-106.91
X80.3Y-77.1
X80.4Y-101.0
X80.457Y-65.1
X80.5Y-113.3
X80.8Y-93.7
X80.8Y-96.1
X81.0Y-101.6
X81.025Y-111.2
X81.5Y-92.9
X81.877Y-72.854
X81.9Y-99.6
X82.4Y-98.5
X82.7Y-99.6
X83.0Y-92.9
X83.523Y-98.777
X83.9Y-78.6
X83.9Y-79.9
X83.9Y-105.7
X84.193Y-52.255
X84.193Y-128.255
X84.45Y-117.8
X84.8Y-84.5
X85.1Y-97.2
X85.3Y-116.5
X85.475Y-118.7
X85.525Y-117.425
X85.6Y-84.2
X85.693Y-102.003
X85.8Y-113.423
X86.519Y-111.919
X86.675Y-88.85
X86.9Y-116.1
X87.0Y-98.7
X87.2Y-126.3
X87.3Y-77.3
X88.1Y-105.9
X88.175Y-112.725
X88.193Y-52.255
X88.193Y-80.255
X88.193Y-92.255
X89.308Y-101.108
X89.6Y-65.6
X89.8Y-115.6
X90.4Y-69.6
X90.426Y-107.633
X90.5Y-72.3
X90.5Y-75.35
X90.5Y-76.55
X90.8Y-105.5
X90.9Y-65.0
X91.1Y-75.95
X91.2Y-72.9
X91.3Y-104.0
X91.427Y-100.127
X91.5Y-78.8
X91.6Y-112.534
X91.7Y-69.1
X91.7Y-75.35
X91.7Y-76.55
X91.8Y-116.8
X91.875Y-103.4
X92.193Y-52.255
X92.193Y-124.255
X92.5Y-65.6
X92.61Y-103.197
X92.85Y-77.95
X93.0Y-104.2
X93.1Y-85.6
X93.3Y-102.7
X93.453Y-76.805
X94.275Y-83.2
X95.05Y-83.175
X95.2Y-108.2
X96.0Y-77.4
X96.0Y-78.3
X96.1Y-95.0
X96.193Y-52.255
X96.193Y-124.255
X96.193Y-128.255
X96.2Y-108.2
X97.5Y-103.2
X97.9Y-90.9
X98.0Y-89.1
X98.7Y-104.6
X99.6Y-107.0
X100.0Y-116.9
X100.1Y-72.9
X100.1Y-113.3
X100.193Y-52.255
X100.193Y-80.255
X100.193Y-100.255
X100.193Y-124.255
X100.193Y-128.255
X100.5Y-115.9
X101.3Y-116.5
X101.5Y-107.3
X101.6Y-72.9
X102.3Y-107.6
X103.0Y-106.7
X103.309Y-115.6
X103.9Y-105.6
X104.193Y-92.255
X104.193Y-124.255
X104.193Y-128.255
X105.8Y-101.8
X106.1Y-96.5
X107.1Y-87.9
X107.7Y-71.7
X108.193Y-52.255
X108.193Y-60.255
X108.193Y-68.255
X108.193Y-80.255
X108.193Y-84.255
X108.193Y-124.255
T3
X61.761Y-75.53
X61.761Y-76.53
X62.711Y-75.53
X62.711Y-76.53
X63.661Y-75.53
X63.661Y-76.53
X84.73Y-105.224
X84.73Y-106.499
X84.73Y-107.774
X86.005Y-105.224
X86.005Y-106.499
X86.005Y-107.774
X87.28Y-105.224
X87.28Y-106.499
X87.28Y-107.774
T5
X94.3Y-117.7
X94.3Y-122.7
T6
X105.5Y-55.1
X106.77Y-55.1
X108.04Y-55.1
X109.31Y-55.1
T7
X102.7Y-114.26
X102.7Y-116.8
X102.7Y-119.34
X105.24Y-114.26
X105.24Y-116.8
X105.24Y-119.34
X106.005Y-76.1
X106.005Y-80.6
X109.1Y-101.57
X109.1Y-104.11
X109.1Y-106.65
X109.1Y-109.19
X109.1Y-111.73
X109.1Y-114.27
X109.1Y-116.81
X109.1Y-119.35
T8
X96.77Y-84.77
X99.27Y-84.77
X101.77Y-84.77
X108.0Y-91.0
X108.0Y-93.5
X108.0Y-96.0
T9
X89.02Y-90.25
X89.02Y-96.75
X93.52Y-90.25
X93.52Y-96.75
X103.515Y-74.845
X103.515Y-81.855
T10
X83.3Y-55.95
X88.3Y-55.95
X93.3Y-55.95
X98.3Y-55.95
T11
X94.27Y-87.175
X94.27Y-99.825
X104.27Y-87.175
X104.27Y-99.825
T12
X63.618Y-62.72
X63.618Y-108.72
X66.158Y-55.1
X66.158Y-116.34
X68.698Y-62.72
X68.698Y-108.72
T13
X79.168Y-124.025
X84.948Y-124.025
T14
X100.0Y-93.35
X103.65Y-51.75
T15
X59.412Y-127.088
X76.45Y-53.1
X108.388Y-127.088
X108.4Y-63.7
T4
G00X77.738Y-122.975
M15
G01X77.738Y-124.075
M16
G05
G00X77.738Y-127.305
M15
G01X77.738Y-128.105
M16
G05
G00X86.378Y-122.975
M15
G01X86.378Y-124.075
M16
G05
G00X86.378Y-127.305
M15
G01X86.378Y-128.105
M16
G05
M30
