%TF.GenerationSoftware,KiCad,Pcbnew,8.0.2*%
%TF.CreationDate,2024-05-30T20:06:03+01:00*%
%TF.ProjectId,StepUp,53746570-5570-42e6-9b69-6361645f7063,v0.1*%
%TF.SameCoordinates,Original*%
%TF.FileFunction,Legend,Bot*%
%TF.FilePolarity,Positive*%
%FSLAX46Y46*%
G04 Gerber Fmt 4.6, Leading zero omitted, Abs format (unit mm)*
G04 Created by KiCad (PCBNEW 8.0.2) date 2024-05-30 20:06:03*
%MOMM*%
%LPD*%
G01*
G04 APERTURE LIST*
%ADD10C,0.150000*%
%ADD11C,0.120000*%
%ADD12C,0.350000*%
%ADD13O,0.600000X1.400000*%
%ADD14O,0.600000X1.700000*%
%ADD15C,0.300000*%
G04 APERTURE END LIST*
D10*
X62351333Y-39490819D02*
X62351333Y-40205104D01*
X62351333Y-40205104D02*
X62398952Y-40347961D01*
X62398952Y-40347961D02*
X62494190Y-40443200D01*
X62494190Y-40443200D02*
X62637047Y-40490819D01*
X62637047Y-40490819D02*
X62732285Y-40490819D01*
X61875142Y-40490819D02*
X61875142Y-39490819D01*
X61875142Y-39490819D02*
X61494190Y-39490819D01*
X61494190Y-39490819D02*
X61398952Y-39538438D01*
X61398952Y-39538438D02*
X61351333Y-39586057D01*
X61351333Y-39586057D02*
X61303714Y-39681295D01*
X61303714Y-39681295D02*
X61303714Y-39824152D01*
X61303714Y-39824152D02*
X61351333Y-39919390D01*
X61351333Y-39919390D02*
X61398952Y-39967009D01*
X61398952Y-39967009D02*
X61494190Y-40014628D01*
X61494190Y-40014628D02*
X61875142Y-40014628D01*
X60970380Y-39490819D02*
X60351333Y-39490819D01*
X60351333Y-39490819D02*
X60684666Y-39871771D01*
X60684666Y-39871771D02*
X60541809Y-39871771D01*
X60541809Y-39871771D02*
X60446571Y-39919390D01*
X60446571Y-39919390D02*
X60398952Y-39967009D01*
X60398952Y-39967009D02*
X60351333Y-40062247D01*
X60351333Y-40062247D02*
X60351333Y-40300342D01*
X60351333Y-40300342D02*
X60398952Y-40395580D01*
X60398952Y-40395580D02*
X60446571Y-40443200D01*
X60446571Y-40443200D02*
X60541809Y-40490819D01*
X60541809Y-40490819D02*
X60827523Y-40490819D01*
X60827523Y-40490819D02*
X60922761Y-40443200D01*
X60922761Y-40443200D02*
X60970380Y-40395580D01*
X104501523Y-87914819D02*
X104501523Y-88629104D01*
X104501523Y-88629104D02*
X104549142Y-88771961D01*
X104549142Y-88771961D02*
X104644380Y-88867200D01*
X104644380Y-88867200D02*
X104787237Y-88914819D01*
X104787237Y-88914819D02*
X104882475Y-88914819D01*
X104025332Y-88914819D02*
X104025332Y-87914819D01*
X104025332Y-87914819D02*
X103644380Y-87914819D01*
X103644380Y-87914819D02*
X103549142Y-87962438D01*
X103549142Y-87962438D02*
X103501523Y-88010057D01*
X103501523Y-88010057D02*
X103453904Y-88105295D01*
X103453904Y-88105295D02*
X103453904Y-88248152D01*
X103453904Y-88248152D02*
X103501523Y-88343390D01*
X103501523Y-88343390D02*
X103549142Y-88391009D01*
X103549142Y-88391009D02*
X103644380Y-88438628D01*
X103644380Y-88438628D02*
X104025332Y-88438628D01*
X102501523Y-88914819D02*
X103072951Y-88914819D01*
X102787237Y-88914819D02*
X102787237Y-87914819D01*
X102787237Y-87914819D02*
X102882475Y-88057676D01*
X102882475Y-88057676D02*
X102977713Y-88152914D01*
X102977713Y-88152914D02*
X103072951Y-88200533D01*
X102168189Y-87914819D02*
X101549142Y-87914819D01*
X101549142Y-87914819D02*
X101882475Y-88295771D01*
X101882475Y-88295771D02*
X101739618Y-88295771D01*
X101739618Y-88295771D02*
X101644380Y-88343390D01*
X101644380Y-88343390D02*
X101596761Y-88391009D01*
X101596761Y-88391009D02*
X101549142Y-88486247D01*
X101549142Y-88486247D02*
X101549142Y-88724342D01*
X101549142Y-88724342D02*
X101596761Y-88819580D01*
X101596761Y-88819580D02*
X101644380Y-88867200D01*
X101644380Y-88867200D02*
X101739618Y-88914819D01*
X101739618Y-88914819D02*
X102025332Y-88914819D01*
X102025332Y-88914819D02*
X102120570Y-88867200D01*
X102120570Y-88867200D02*
X102168189Y-88819580D01*
X90596819Y-73776666D02*
X91311104Y-73776666D01*
X91311104Y-73776666D02*
X91453961Y-73729047D01*
X91453961Y-73729047D02*
X91549200Y-73633809D01*
X91549200Y-73633809D02*
X91596819Y-73490952D01*
X91596819Y-73490952D02*
X91596819Y-73395714D01*
X91596819Y-74252857D02*
X90596819Y-74252857D01*
X90596819Y-74252857D02*
X90596819Y-74633809D01*
X90596819Y-74633809D02*
X90644438Y-74729047D01*
X90644438Y-74729047D02*
X90692057Y-74776666D01*
X90692057Y-74776666D02*
X90787295Y-74824285D01*
X90787295Y-74824285D02*
X90930152Y-74824285D01*
X90930152Y-74824285D02*
X91025390Y-74776666D01*
X91025390Y-74776666D02*
X91073009Y-74729047D01*
X91073009Y-74729047D02*
X91120628Y-74633809D01*
X91120628Y-74633809D02*
X91120628Y-74252857D01*
X91025390Y-75395714D02*
X90977771Y-75300476D01*
X90977771Y-75300476D02*
X90930152Y-75252857D01*
X90930152Y-75252857D02*
X90834914Y-75205238D01*
X90834914Y-75205238D02*
X90787295Y-75205238D01*
X90787295Y-75205238D02*
X90692057Y-75252857D01*
X90692057Y-75252857D02*
X90644438Y-75300476D01*
X90644438Y-75300476D02*
X90596819Y-75395714D01*
X90596819Y-75395714D02*
X90596819Y-75586190D01*
X90596819Y-75586190D02*
X90644438Y-75681428D01*
X90644438Y-75681428D02*
X90692057Y-75729047D01*
X90692057Y-75729047D02*
X90787295Y-75776666D01*
X90787295Y-75776666D02*
X90834914Y-75776666D01*
X90834914Y-75776666D02*
X90930152Y-75729047D01*
X90930152Y-75729047D02*
X90977771Y-75681428D01*
X90977771Y-75681428D02*
X91025390Y-75586190D01*
X91025390Y-75586190D02*
X91025390Y-75395714D01*
X91025390Y-75395714D02*
X91073009Y-75300476D01*
X91073009Y-75300476D02*
X91120628Y-75252857D01*
X91120628Y-75252857D02*
X91215866Y-75205238D01*
X91215866Y-75205238D02*
X91406342Y-75205238D01*
X91406342Y-75205238D02*
X91501580Y-75252857D01*
X91501580Y-75252857D02*
X91549200Y-75300476D01*
X91549200Y-75300476D02*
X91596819Y-75395714D01*
X91596819Y-75395714D02*
X91596819Y-75586190D01*
X91596819Y-75586190D02*
X91549200Y-75681428D01*
X91549200Y-75681428D02*
X91501580Y-75729047D01*
X91501580Y-75729047D02*
X91406342Y-75776666D01*
X91406342Y-75776666D02*
X91215866Y-75776666D01*
X91215866Y-75776666D02*
X91120628Y-75729047D01*
X91120628Y-75729047D02*
X91073009Y-75681428D01*
X91073009Y-75681428D02*
X91025390Y-75586190D01*
X114501523Y-84514819D02*
X114501523Y-85229104D01*
X114501523Y-85229104D02*
X114549142Y-85371961D01*
X114549142Y-85371961D02*
X114644380Y-85467200D01*
X114644380Y-85467200D02*
X114787237Y-85514819D01*
X114787237Y-85514819D02*
X114882475Y-85514819D01*
X114025332Y-85514819D02*
X114025332Y-84514819D01*
X114025332Y-84514819D02*
X113644380Y-84514819D01*
X113644380Y-84514819D02*
X113549142Y-84562438D01*
X113549142Y-84562438D02*
X113501523Y-84610057D01*
X113501523Y-84610057D02*
X113453904Y-84705295D01*
X113453904Y-84705295D02*
X113453904Y-84848152D01*
X113453904Y-84848152D02*
X113501523Y-84943390D01*
X113501523Y-84943390D02*
X113549142Y-84991009D01*
X113549142Y-84991009D02*
X113644380Y-85038628D01*
X113644380Y-85038628D02*
X114025332Y-85038628D01*
X112501523Y-85514819D02*
X113072951Y-85514819D01*
X112787237Y-85514819D02*
X112787237Y-84514819D01*
X112787237Y-84514819D02*
X112882475Y-84657676D01*
X112882475Y-84657676D02*
X112977713Y-84752914D01*
X112977713Y-84752914D02*
X113072951Y-84800533D01*
X112120570Y-84610057D02*
X112072951Y-84562438D01*
X112072951Y-84562438D02*
X111977713Y-84514819D01*
X111977713Y-84514819D02*
X111739618Y-84514819D01*
X111739618Y-84514819D02*
X111644380Y-84562438D01*
X111644380Y-84562438D02*
X111596761Y-84610057D01*
X111596761Y-84610057D02*
X111549142Y-84705295D01*
X111549142Y-84705295D02*
X111549142Y-84800533D01*
X111549142Y-84800533D02*
X111596761Y-84943390D01*
X111596761Y-84943390D02*
X112168189Y-85514819D01*
X112168189Y-85514819D02*
X111549142Y-85514819D01*
X114701523Y-81864819D02*
X114701523Y-82579104D01*
X114701523Y-82579104D02*
X114749142Y-82721961D01*
X114749142Y-82721961D02*
X114844380Y-82817200D01*
X114844380Y-82817200D02*
X114987237Y-82864819D01*
X114987237Y-82864819D02*
X115082475Y-82864819D01*
X114225332Y-82864819D02*
X114225332Y-81864819D01*
X114225332Y-81864819D02*
X113844380Y-81864819D01*
X113844380Y-81864819D02*
X113749142Y-81912438D01*
X113749142Y-81912438D02*
X113701523Y-81960057D01*
X113701523Y-81960057D02*
X113653904Y-82055295D01*
X113653904Y-82055295D02*
X113653904Y-82198152D01*
X113653904Y-82198152D02*
X113701523Y-82293390D01*
X113701523Y-82293390D02*
X113749142Y-82341009D01*
X113749142Y-82341009D02*
X113844380Y-82388628D01*
X113844380Y-82388628D02*
X114225332Y-82388628D01*
X112701523Y-82864819D02*
X113272951Y-82864819D01*
X112987237Y-82864819D02*
X112987237Y-81864819D01*
X112987237Y-81864819D02*
X113082475Y-82007676D01*
X113082475Y-82007676D02*
X113177713Y-82102914D01*
X113177713Y-82102914D02*
X113272951Y-82150533D01*
X111749142Y-82864819D02*
X112320570Y-82864819D01*
X112034856Y-82864819D02*
X112034856Y-81864819D01*
X112034856Y-81864819D02*
X112130094Y-82007676D01*
X112130094Y-82007676D02*
X112225332Y-82102914D01*
X112225332Y-82102914D02*
X112320570Y-82150533D01*
X114701523Y-79214819D02*
X114701523Y-79929104D01*
X114701523Y-79929104D02*
X114749142Y-80071961D01*
X114749142Y-80071961D02*
X114844380Y-80167200D01*
X114844380Y-80167200D02*
X114987237Y-80214819D01*
X114987237Y-80214819D02*
X115082475Y-80214819D01*
X114225332Y-80214819D02*
X114225332Y-79214819D01*
X114225332Y-79214819D02*
X113844380Y-79214819D01*
X113844380Y-79214819D02*
X113749142Y-79262438D01*
X113749142Y-79262438D02*
X113701523Y-79310057D01*
X113701523Y-79310057D02*
X113653904Y-79405295D01*
X113653904Y-79405295D02*
X113653904Y-79548152D01*
X113653904Y-79548152D02*
X113701523Y-79643390D01*
X113701523Y-79643390D02*
X113749142Y-79691009D01*
X113749142Y-79691009D02*
X113844380Y-79738628D01*
X113844380Y-79738628D02*
X114225332Y-79738628D01*
X112701523Y-80214819D02*
X113272951Y-80214819D01*
X112987237Y-80214819D02*
X112987237Y-79214819D01*
X112987237Y-79214819D02*
X113082475Y-79357676D01*
X113082475Y-79357676D02*
X113177713Y-79452914D01*
X113177713Y-79452914D02*
X113272951Y-79500533D01*
X112082475Y-79214819D02*
X111987237Y-79214819D01*
X111987237Y-79214819D02*
X111891999Y-79262438D01*
X111891999Y-79262438D02*
X111844380Y-79310057D01*
X111844380Y-79310057D02*
X111796761Y-79405295D01*
X111796761Y-79405295D02*
X111749142Y-79595771D01*
X111749142Y-79595771D02*
X111749142Y-79833866D01*
X111749142Y-79833866D02*
X111796761Y-80024342D01*
X111796761Y-80024342D02*
X111844380Y-80119580D01*
X111844380Y-80119580D02*
X111891999Y-80167200D01*
X111891999Y-80167200D02*
X111987237Y-80214819D01*
X111987237Y-80214819D02*
X112082475Y-80214819D01*
X112082475Y-80214819D02*
X112177713Y-80167200D01*
X112177713Y-80167200D02*
X112225332Y-80119580D01*
X112225332Y-80119580D02*
X112272951Y-80024342D01*
X112272951Y-80024342D02*
X112320570Y-79833866D01*
X112320570Y-79833866D02*
X112320570Y-79595771D01*
X112320570Y-79595771D02*
X112272951Y-79405295D01*
X112272951Y-79405295D02*
X112225332Y-79310057D01*
X112225332Y-79310057D02*
X112177713Y-79262438D01*
X112177713Y-79262438D02*
X112082475Y-79214819D01*
X96525333Y-78914819D02*
X96525333Y-79629104D01*
X96525333Y-79629104D02*
X96572952Y-79771961D01*
X96572952Y-79771961D02*
X96668190Y-79867200D01*
X96668190Y-79867200D02*
X96811047Y-79914819D01*
X96811047Y-79914819D02*
X96906285Y-79914819D01*
X96049142Y-79914819D02*
X96049142Y-78914819D01*
X96049142Y-78914819D02*
X95668190Y-78914819D01*
X95668190Y-78914819D02*
X95572952Y-78962438D01*
X95572952Y-78962438D02*
X95525333Y-79010057D01*
X95525333Y-79010057D02*
X95477714Y-79105295D01*
X95477714Y-79105295D02*
X95477714Y-79248152D01*
X95477714Y-79248152D02*
X95525333Y-79343390D01*
X95525333Y-79343390D02*
X95572952Y-79391009D01*
X95572952Y-79391009D02*
X95668190Y-79438628D01*
X95668190Y-79438628D02*
X96049142Y-79438628D01*
X95001523Y-79914819D02*
X94811047Y-79914819D01*
X94811047Y-79914819D02*
X94715809Y-79867200D01*
X94715809Y-79867200D02*
X94668190Y-79819580D01*
X94668190Y-79819580D02*
X94572952Y-79676723D01*
X94572952Y-79676723D02*
X94525333Y-79486247D01*
X94525333Y-79486247D02*
X94525333Y-79105295D01*
X94525333Y-79105295D02*
X94572952Y-79010057D01*
X94572952Y-79010057D02*
X94620571Y-78962438D01*
X94620571Y-78962438D02*
X94715809Y-78914819D01*
X94715809Y-78914819D02*
X94906285Y-78914819D01*
X94906285Y-78914819D02*
X95001523Y-78962438D01*
X95001523Y-78962438D02*
X95049142Y-79010057D01*
X95049142Y-79010057D02*
X95096761Y-79105295D01*
X95096761Y-79105295D02*
X95096761Y-79343390D01*
X95096761Y-79343390D02*
X95049142Y-79438628D01*
X95049142Y-79438628D02*
X95001523Y-79486247D01*
X95001523Y-79486247D02*
X94906285Y-79533866D01*
X94906285Y-79533866D02*
X94715809Y-79533866D01*
X94715809Y-79533866D02*
X94620571Y-79486247D01*
X94620571Y-79486247D02*
X94572952Y-79438628D01*
X94572952Y-79438628D02*
X94525333Y-79343390D01*
D11*
%TO.C,JP3*%
X56944000Y-39828000D02*
X56944000Y-39228000D01*
X57644000Y-38528000D02*
X59044000Y-38528000D01*
X59044000Y-40528000D02*
X57644000Y-40528000D01*
X59744000Y-39228000D02*
X59744000Y-39828000D01*
X56944000Y-39228000D02*
G75*
G02*
X57644000Y-38528000I700000J0D01*
G01*
X57644000Y-40528000D02*
G75*
G02*
X56944000Y-39828000I0J700000D01*
G01*
X59044000Y-38528000D02*
G75*
G02*
X59744000Y-39228000I1J-699999D01*
G01*
X59744000Y-39828000D02*
G75*
G02*
X59044000Y-40528000I-699999J-1D01*
G01*
%TO.C,JP13*%
X98092000Y-88710000D02*
X98092000Y-88110000D01*
X98792000Y-87410000D02*
X100192000Y-87410000D01*
X100192000Y-89410000D02*
X98792000Y-89410000D01*
X100892000Y-88110000D02*
X100892000Y-88710000D01*
X98092000Y-88110000D02*
G75*
G02*
X98792000Y-87410000I700000J0D01*
G01*
X98792000Y-89410000D02*
G75*
G02*
X98092000Y-88710000I0J700000D01*
G01*
X100192000Y-87410000D02*
G75*
G02*
X100892000Y-88110000I1J-699999D01*
G01*
X100892000Y-88710000D02*
G75*
G02*
X100192000Y-89410000I-699999J-1D01*
G01*
%TO.C,JP8*%
X92292000Y-75210000D02*
X92292000Y-73810000D01*
X92992000Y-73110000D02*
X93592000Y-73110000D01*
X93592000Y-75910000D02*
X92992000Y-75910000D01*
X94292000Y-73810000D02*
X94292000Y-75210000D01*
X92292000Y-73810000D02*
G75*
G02*
X92992000Y-73110000I699999J1D01*
G01*
X92992000Y-75910000D02*
G75*
G02*
X92292000Y-75210000I0J700000D01*
G01*
X93592000Y-73110000D02*
G75*
G02*
X94292000Y-73810000I1J-699999D01*
G01*
X94292000Y-75210000D02*
G75*
G02*
X93592000Y-75910000I-700000J0D01*
G01*
%TO.C,JP12*%
X115392000Y-85210000D02*
X115392000Y-84610000D01*
X116092000Y-83910000D02*
X117492000Y-83910000D01*
X117492000Y-85910000D02*
X116092000Y-85910000D01*
X118192000Y-84610000D02*
X118192000Y-85210000D01*
X115392000Y-84610000D02*
G75*
G02*
X116092000Y-83910000I699999J1D01*
G01*
X116092000Y-85910000D02*
G75*
G02*
X115392000Y-85210000I-1J699999D01*
G01*
X117492000Y-83910000D02*
G75*
G02*
X118192000Y-84610000I0J-700000D01*
G01*
X118192000Y-85210000D02*
G75*
G02*
X117492000Y-85910000I-700000J0D01*
G01*
%TO.C,JP11*%
X115392000Y-82610000D02*
X115392000Y-82010000D01*
X116092000Y-81310000D02*
X117492000Y-81310000D01*
X117492000Y-83310000D02*
X116092000Y-83310000D01*
X118192000Y-82010000D02*
X118192000Y-82610000D01*
X115392000Y-82010000D02*
G75*
G02*
X116092000Y-81310000I699999J1D01*
G01*
X116092000Y-83310000D02*
G75*
G02*
X115392000Y-82610000I-1J699999D01*
G01*
X117492000Y-81310000D02*
G75*
G02*
X118192000Y-82010000I0J-700000D01*
G01*
X118192000Y-82610000D02*
G75*
G02*
X117492000Y-83310000I-700000J0D01*
G01*
%TO.C,JP10*%
X115392000Y-80010000D02*
X115392000Y-79410000D01*
X116092000Y-78710000D02*
X117492000Y-78710000D01*
X117492000Y-80710000D02*
X116092000Y-80710000D01*
X118192000Y-79410000D02*
X118192000Y-80010000D01*
X115392000Y-79410000D02*
G75*
G02*
X116092000Y-78710000I699999J1D01*
G01*
X116092000Y-80710000D02*
G75*
G02*
X115392000Y-80010000I-1J699999D01*
G01*
X117492000Y-78710000D02*
G75*
G02*
X118192000Y-79410000I0J-700000D01*
G01*
X118192000Y-80010000D02*
G75*
G02*
X117492000Y-80710000I-700000J0D01*
G01*
%TO.C,JP9*%
X97492000Y-79910000D02*
X97492000Y-79310000D01*
X98192000Y-78610000D02*
X99592000Y-78610000D01*
X99592000Y-80610000D02*
X98192000Y-80610000D01*
X100292000Y-79310000D02*
X100292000Y-79910000D01*
X97492000Y-79310000D02*
G75*
G02*
X98192000Y-78610000I700000J0D01*
G01*
X98192000Y-80610000D02*
G75*
G02*
X97492000Y-79910000I0J700000D01*
G01*
X99592000Y-78610000D02*
G75*
G02*
X100292000Y-79310000I1J-699999D01*
G01*
X100292000Y-79910000D02*
G75*
G02*
X99592000Y-80610000I-699999J-1D01*
G01*
%TD*%
D12*
X45390000Y-27802000D03*
X45390000Y-100022000D03*
X53390000Y-27802000D03*
X37390000Y-36002000D03*
X53390000Y-91202000D03*
D13*
X112962000Y-101635000D03*
D14*
X112962000Y-97455000D03*
D13*
X104322000Y-101635000D03*
D14*
X104322000Y-97455000D03*
D12*
X111532000Y-97955000D03*
X105752000Y-97955000D03*
D15*
X107366000Y-61880000D03*
X107366000Y-63155000D03*
X107366000Y-64430000D03*
X108641000Y-61880000D03*
X108641000Y-63155000D03*
X108641000Y-64430000D03*
X109916000Y-61880000D03*
X109916000Y-63155000D03*
X109916000Y-64430000D03*
D12*
X95804500Y-71285000D03*
X93304500Y-71285000D03*
X90804500Y-71285000D03*
X102034500Y-82515000D03*
X102034500Y-80015000D03*
X102034500Y-77515000D03*
X90054500Y-85765000D03*
X96554500Y-85765000D03*
X90054500Y-90265000D03*
X96554500Y-90265000D03*
X99629500Y-75015000D03*
X86979500Y-75015000D03*
X86979500Y-85015000D03*
X99629500Y-85015000D03*
X30742000Y-29010000D03*
D15*
X62311000Y-48330000D03*
X61361000Y-48330000D03*
X60411000Y-48330000D03*
X62311000Y-49330000D03*
X61361000Y-49330000D03*
X60411000Y-49330000D03*
D12*
X123622000Y-56716000D03*
X121082000Y-56716000D03*
X123622000Y-54176000D03*
X121082000Y-54176000D03*
X123622000Y-51636000D03*
X121082000Y-51636000D03*
X123622000Y-49096000D03*
X121082000Y-49096000D03*
X123622000Y-46556000D03*
X121082000Y-46556000D03*
X123622000Y-44016000D03*
X121082000Y-44016000D03*
X30742000Y-99010000D03*
X89019400Y-36699501D03*
X89019400Y-29699501D03*
X85519400Y-36699501D03*
X85519400Y-29699501D03*
X82019400Y-36699501D03*
X82019400Y-29699501D03*
X78519400Y-36699501D03*
X78519400Y-29699501D03*
X123617000Y-65535000D03*
X121077000Y-65535000D03*
X123617000Y-62995000D03*
X121077000Y-62995000D03*
X123617000Y-60455000D03*
X121077000Y-60455000D03*
X58594000Y-88347000D03*
X58594000Y-90887000D03*
X71303000Y-55784000D03*
X68763000Y-55784000D03*
X120742000Y-99010000D03*
X66542000Y-79185000D03*
X66542000Y-76645000D03*
X101617000Y-28685000D03*
X101617000Y-26145000D03*
X104157000Y-28685000D03*
X104157000Y-26145000D03*
X106697000Y-28685000D03*
X106697000Y-26145000D03*
X112446000Y-90577000D03*
X112446000Y-93117000D03*
X58598000Y-32167000D03*
X58598000Y-29627000D03*
X120742000Y-29010000D03*
X121072000Y-79810000D03*
X123612000Y-79810000D03*
X121072000Y-82350000D03*
X123612000Y-82350000D03*
X121072000Y-84890000D03*
X123612000Y-84890000D03*
X58593000Y-35972000D03*
X61133000Y-35972000D03*
M02*
