M48
; DRILL file {KiCad 8.0.2} date 2024-05-27T22:11:15+0100
; FORMAT={-:-/ absolute / metric / decimal}
; #@! TF.CreationDate,2024-05-27T22:11:15+01:00
; #@! TF.GenerationSoftware,Kicad,Pcbnew,8.0.2
; #@! TF.FileFunction,MixedPlating,1,4
FMAT,2
METRIC
; #@! TA.AperFunction,Plated,PTH,ViaDrill
T1C0.300
; #@! TA.AperFunction,Plated,PTH,ComponentDrill
T2C0.300
; #@! TA.AperFunction,Plated,PTH,ComponentDrill
T3C0.350
; #@! TA.AperFunction,Plated,PTH,ComponentDrill
T4C0.600
; #@! TA.AperFunction,Plated,PTH,ComponentDrill
T5C1.000
; #@! TA.AperFunction,Plated,PTH,ComponentDrill
T6C1.100
; #@! TA.AperFunction,Plated,PTH,ComponentDrill
T7C1.200
; #@! TA.AperFunction,Plated,PTH,ComponentDrill
T8C1.300
; #@! TA.AperFunction,Plated,PTH,ComponentDrill
T9C1.320
; #@! TA.AperFunction,Plated,PTH,ComponentDrill
T10C1.600
; #@! TA.AperFunction,NonPlated,NPTH,ComponentDrill
T11C0.650
; #@! TA.AperFunction,NonPlated,NPTH,ComponentDrill
T12C2.390
; #@! TA.AperFunction,NonPlated,NPTH,ComponentDrill
T13C3.200
; #@! TA.AperFunction,NonPlated,NPTH,ComponentDrill
T14C3.550
%
G90
G05
T1
X110.0Y-124.2
X110.85Y-97.75
X111.075Y-99.025
X116.3Y-84.85
X116.45Y-108.1
X117.95Y-84.8
X117.95Y-85.8
X117.95Y-86.85
X118.0Y-106.9
X118.7Y-78.7
X119.55Y-108.15
X121.25Y-115.3
X121.7Y-87.35
X122.3Y-95.9
X123.4Y-66.55
X123.4Y-67.45
X123.65Y-120.3
X123.952Y-97.598
X126.45Y-107.4
X127.55Y-78.6
X127.55Y-79.5
X127.55Y-80.45
X127.7Y-107.35
X129.2Y-124.15
X131.85Y-82.1
X132.6Y-107.35
X133.35Y-121.9
X133.55Y-89.65
X133.6Y-96.0
X133.6Y-96.65
X133.6Y-97.3
X133.9Y-102.65
X134.25Y-89.65
X134.55Y-109.45
X134.85Y-93.25
X134.85Y-93.9
X134.85Y-94.6
X135.4Y-100.05
X135.4Y-101.6
X135.55Y-108.35
X136.6Y-103.3
X138.0Y-103.55
X138.8Y-105.15
X138.9Y-96.4
X138.9Y-97.05
X141.8Y-94.75
X142.05Y-95.25
X142.4Y-93.2
X142.6Y-99.65
X142.6Y-101.6
X142.85Y-90.65
X142.9Y-96.5
X142.9Y-97.3
X142.95Y-93.6
X143.25Y-104.85
X143.3Y-81.3
X143.3Y-82.95
X143.6Y-93.65
X143.65Y-90.1
X143.85Y-96.5
X143.85Y-97.3
X144.05Y-104.85
X144.2Y-99.263
X144.35Y-90.15
X144.4Y-106.3
X144.707Y-95.25
X144.957Y-94.75
X145.0Y-102.2
X145.066Y-100.1
X146.45Y-102.2
X146.8Y-105.25
X147.857Y-96.4
X147.857Y-97.05
X148.05Y-101.05
X150.2Y-103.2
X151.55Y-103.75
X152.2Y-93.25
X152.5Y-105.4
X152.5Y-109.7
X152.7Y-106.45
X152.9Y-102.65
X152.95Y-98.8
X153.0Y-95.85
X153.0Y-96.5
X153.0Y-97.15
X153.7Y-81.15
X153.95Y-98.25
X155.5Y-106.45
X156.7Y-129.3
X157.55Y-82.35
X158.4Y-113.6
X159.0Y-114.2
X159.2Y-95.3
X159.2Y-105.4
X159.5Y-106.15
X159.65Y-103.1
X160.3Y-106.15
X160.55Y-97.45
X160.95Y-117.1
X161.15Y-108.0
X161.2Y-107.15
X162.55Y-98.25
X162.9Y-111.3
X163.25Y-99.5
X163.45Y-100.6
X163.45Y-120.95
X163.5Y-118.75
X164.0Y-111.95
X164.352Y-98.503
X164.75Y-99.35
X164.85Y-97.85
X164.95Y-112.0
X165.55Y-95.9
X166.2Y-96.7
X166.954Y-99.246
X167.0Y-91.25
X167.0Y-96.7
X167.0Y-106.2
X167.259Y-102.108
X167.65Y-83.3
X167.9Y-135.7
X168.042Y-108.85
X168.3Y-112.95
X169.033Y-99.638
X169.3Y-112.95
X169.45Y-81.5
X170.3Y-115.85
X170.4Y-94.2
X170.4Y-95.3
X171.65Y-118.7
X171.95Y-97.4
X172.15Y-108.0
X172.8Y-100.8
X174.05Y-89.45
X174.15Y-104.15
X174.2Y-75.05
X174.2Y-100.8
X174.6Y-129.0
X175.0Y-102.05
X175.023Y-104.007
X175.322Y-100.234
X175.4Y-89.05
X175.5Y-75.05
X176.018Y-99.55
X176.15Y-103.55
X176.25Y-118.05
X176.4Y-104.95
X176.45Y-88.0
X176.8Y-75.05
X177.0Y-103.5
X178.0Y-103.2
X178.2Y-88.35
X178.55Y-100.9
X178.75Y-131.1
X178.75Y-132.65
X178.95Y-118.7
T2
X119.669Y-89.32
X119.669Y-90.32
X120.619Y-89.32
X120.619Y-90.32
X121.569Y-89.32
X121.569Y-90.32
T3
X166.624Y-102.87
X166.624Y-104.145
X166.624Y-105.42
X167.899Y-102.87
X167.899Y-104.145
X167.899Y-105.42
X169.174Y-102.87
X169.174Y-104.145
X169.174Y-105.42
T5
X117.851Y-76.962
X117.852Y-129.337
X117.852Y-131.877
X117.856Y-70.617
X117.856Y-73.157
X120.391Y-76.962
X125.8Y-117.635
X125.8Y-120.175
X128.021Y-96.774
X130.561Y-96.774
X160.875Y-67.135
X160.875Y-69.675
X163.415Y-67.135
X163.415Y-69.675
X165.955Y-67.135
X165.955Y-69.675
X171.704Y-131.567
X171.704Y-134.107
X180.33Y-120.8
X180.33Y-123.34
X180.33Y-125.88
X180.335Y-101.445
X180.335Y-103.985
X180.335Y-106.525
X180.34Y-85.006
X180.34Y-87.546
X180.34Y-90.086
X180.34Y-92.626
X180.34Y-95.166
X180.34Y-97.706
X182.87Y-120.8
X182.87Y-123.34
X182.87Y-125.88
X182.875Y-101.445
X182.875Y-103.985
X182.875Y-106.525
X182.88Y-85.006
X182.88Y-87.546
X182.88Y-90.086
X182.88Y-92.626
X182.88Y-95.166
X182.88Y-97.706
T6
X150.062Y-112.275
X152.562Y-112.275
X155.062Y-112.275
X161.292Y-118.505
X161.292Y-121.005
X161.292Y-123.505
T7
X137.777Y-70.69
X137.777Y-77.69
X141.277Y-70.69
X141.277Y-77.69
X144.777Y-70.69
X144.777Y-77.69
X148.277Y-70.69
X148.277Y-77.69
T8
X149.312Y-126.755
X149.312Y-131.255
X155.812Y-126.755
X155.812Y-131.255
T9
X104.648Y-68.792
X104.648Y-141.012
T10
X146.237Y-116.005
X146.237Y-126.005
X158.887Y-116.005
X158.887Y-126.005
T11
X165.004Y-138.365
X170.784Y-138.365
T12
X112.648Y-68.792
T13
X90.0Y-70.0
X90.0Y-140.0
X180.0Y-70.0
X180.0Y-140.0
T14
X96.648Y-76.992
X112.648Y-132.192
T4
G00X163.574Y-137.315
M15
G01X163.574Y-138.415
M16
G05
G00X163.574Y-141.645
M15
G01X163.574Y-142.445
M16
G05
G00X172.214Y-137.315
M15
G01X172.214Y-138.415
M16
G05
G00X172.214Y-141.645
M15
G01X172.214Y-142.445
M16
G05
M30
