%TF.GenerationSoftware,KiCad,Pcbnew,8.0.6*%
%TF.CreationDate,2024-10-28T23:36:15+00:00*%
%TF.ProjectId,StepUp,53746570-5570-42e6-9b69-6361645f7063,v0.1*%
%TF.SameCoordinates,Original*%
%TF.FileFunction,Copper,L1,Top*%
%TF.FilePolarity,Positive*%
%FSLAX46Y46*%
G04 Gerber Fmt 4.6, Leading zero omitted, Abs format (unit mm)*
G04 Created by KiCad (PCBNEW 8.0.6) date 2024-10-28 23:36:15*
%MOMM*%
%LPD*%
G01*
G04 APERTURE LIST*
G04 Aperture macros list*
%AMRoundRect*
0 Rectangle with rounded corners*
0 $1 Rounding radius*
0 $2 $3 $4 $5 $6 $7 $8 $9 X,Y pos of 4 corners*
0 Add a 4 corners polygon primitive as box body*
4,1,4,$2,$3,$4,$5,$6,$7,$8,$9,$2,$3,0*
0 Add four circle primitives for the rounded corners*
1,1,$1+$1,$2,$3*
1,1,$1+$1,$4,$5*
1,1,$1+$1,$6,$7*
1,1,$1+$1,$8,$9*
0 Add four rect primitives between the rounded corners*
20,1,$1+$1,$2,$3,$4,$5,0*
20,1,$1+$1,$4,$5,$6,$7,0*
20,1,$1+$1,$6,$7,$8,$9,0*
20,1,$1+$1,$8,$9,$2,$3,0*%
%AMFreePoly0*
4,1,19,0.500000,-0.750000,0.000000,-0.750000,0.000000,-0.744911,-0.071157,-0.744911,-0.207708,-0.704816,-0.327430,-0.627875,-0.420627,-0.520320,-0.479746,-0.390866,-0.500000,-0.250000,-0.500000,0.250000,-0.479746,0.390866,-0.420627,0.520320,-0.327430,0.627875,-0.207708,0.704816,-0.071157,0.744911,0.000000,0.744911,0.000000,0.750000,0.500000,0.750000,0.500000,-0.750000,0.500000,-0.750000,
$1*%
%AMFreePoly1*
4,1,19,0.000000,0.744911,0.071157,0.744911,0.207708,0.704816,0.327430,0.627875,0.420627,0.520320,0.479746,0.390866,0.500000,0.250000,0.500000,-0.250000,0.479746,-0.390866,0.420627,-0.520320,0.327430,-0.627875,0.207708,-0.704816,0.071157,-0.744911,0.000000,-0.744911,0.000000,-0.750000,-0.500000,-0.750000,-0.500000,0.750000,0.000000,0.750000,0.000000,0.744911,0.000000,0.744911,
$1*%
G04 Aperture macros list end*
%TA.AperFunction,EtchedComponent*%
%ADD10C,0.000000*%
%TD*%
%TA.AperFunction,SMDPad,CuDef*%
%ADD11R,0.863600X0.787400*%
%TD*%
%TA.AperFunction,SMDPad,CuDef*%
%ADD12RoundRect,0.250000X0.312500X0.625000X-0.312500X0.625000X-0.312500X-0.625000X0.312500X-0.625000X0*%
%TD*%
%TA.AperFunction,SMDPad,CuDef*%
%ADD13RoundRect,0.200000X-0.275000X0.200000X-0.275000X-0.200000X0.275000X-0.200000X0.275000X0.200000X0*%
%TD*%
%TA.AperFunction,SMDPad,CuDef*%
%ADD14RoundRect,0.200000X-0.200000X-0.275000X0.200000X-0.275000X0.200000X0.275000X-0.200000X0.275000X0*%
%TD*%
%TA.AperFunction,SMDPad,CuDef*%
%ADD15RoundRect,0.140000X0.140000X0.170000X-0.140000X0.170000X-0.140000X-0.170000X0.140000X-0.170000X0*%
%TD*%
%TA.AperFunction,SMDPad,CuDef*%
%ADD16RoundRect,0.140000X0.170000X-0.140000X0.170000X0.140000X-0.170000X0.140000X-0.170000X-0.140000X0*%
%TD*%
%TA.AperFunction,SMDPad,CuDef*%
%ADD17RoundRect,0.135000X0.185000X-0.135000X0.185000X0.135000X-0.185000X0.135000X-0.185000X-0.135000X0*%
%TD*%
%TA.AperFunction,SMDPad,CuDef*%
%ADD18RoundRect,0.140000X-0.170000X0.140000X-0.170000X-0.140000X0.170000X-0.140000X0.170000X0.140000X0*%
%TD*%
%TA.AperFunction,SMDPad,CuDef*%
%ADD19RoundRect,0.150000X-0.150000X-0.425000X0.150000X-0.425000X0.150000X0.425000X-0.150000X0.425000X0*%
%TD*%
%TA.AperFunction,SMDPad,CuDef*%
%ADD20RoundRect,0.075000X-0.075000X-0.500000X0.075000X-0.500000X0.075000X0.500000X-0.075000X0.500000X0*%
%TD*%
%TA.AperFunction,ComponentPad*%
%ADD21O,1.000000X2.100000*%
%TD*%
%TA.AperFunction,ComponentPad*%
%ADD22O,1.000000X1.800000*%
%TD*%
%TA.AperFunction,SMDPad,CuDef*%
%ADD23RoundRect,0.140000X-0.140000X-0.170000X0.140000X-0.170000X0.140000X0.170000X-0.140000X0.170000X0*%
%TD*%
%TA.AperFunction,SMDPad,CuDef*%
%ADD24RoundRect,0.225000X0.225000X0.250000X-0.225000X0.250000X-0.225000X-0.250000X0.225000X-0.250000X0*%
%TD*%
%TA.AperFunction,SMDPad,CuDef*%
%ADD25RoundRect,0.135000X-0.185000X0.135000X-0.185000X-0.135000X0.185000X-0.135000X0.185000X0.135000X0*%
%TD*%
%TA.AperFunction,SMDPad,CuDef*%
%ADD26RoundRect,0.200000X0.200000X0.275000X-0.200000X0.275000X-0.200000X-0.275000X0.200000X-0.275000X0*%
%TD*%
%TA.AperFunction,SMDPad,CuDef*%
%ADD27RoundRect,0.225000X-0.225000X-0.250000X0.225000X-0.250000X0.225000X0.250000X-0.225000X0.250000X0*%
%TD*%
%TA.AperFunction,SMDPad,CuDef*%
%ADD28RoundRect,0.200000X0.275000X-0.200000X0.275000X0.200000X-0.275000X0.200000X-0.275000X-0.200000X0*%
%TD*%
%TA.AperFunction,SMDPad,CuDef*%
%ADD29R,1.000000X0.550000*%
%TD*%
%TA.AperFunction,SMDPad,CuDef*%
%ADD30R,0.600000X1.300000*%
%TD*%
%TA.AperFunction,SMDPad,CuDef*%
%ADD31RoundRect,0.050000X0.387500X0.050000X-0.387500X0.050000X-0.387500X-0.050000X0.387500X-0.050000X0*%
%TD*%
%TA.AperFunction,SMDPad,CuDef*%
%ADD32RoundRect,0.050000X0.050000X0.387500X-0.050000X0.387500X-0.050000X-0.387500X0.050000X-0.387500X0*%
%TD*%
%TA.AperFunction,ComponentPad*%
%ADD33C,0.600000*%
%TD*%
%TA.AperFunction,SMDPad,CuDef*%
%ADD34RoundRect,0.144000X1.456000X1.456000X-1.456000X1.456000X-1.456000X-1.456000X1.456000X-1.456000X0*%
%TD*%
%TA.AperFunction,SMDPad,CuDef*%
%ADD35R,1.000000X1.000000*%
%TD*%
%TA.AperFunction,SMDPad,CuDef*%
%ADD36R,1.753400X0.912000*%
%TD*%
%TA.AperFunction,SMDPad,CuDef*%
%ADD37R,1.300000X0.600000*%
%TD*%
%TA.AperFunction,SMDPad,CuDef*%
%ADD38RoundRect,0.062500X0.062500X-0.362500X0.062500X0.362500X-0.062500X0.362500X-0.062500X-0.362500X0*%
%TD*%
%TA.AperFunction,HeatsinkPad*%
%ADD39C,0.600000*%
%TD*%
%TA.AperFunction,HeatsinkPad*%
%ADD40R,2.500000X1.600000*%
%TD*%
%TA.AperFunction,SMDPad,CuDef*%
%ADD41R,0.254000X0.355600*%
%TD*%
%TA.AperFunction,SMDPad,CuDef*%
%ADD42RoundRect,0.250000X0.650000X-1.000000X0.650000X1.000000X-0.650000X1.000000X-0.650000X-1.000000X0*%
%TD*%
%TA.AperFunction,SMDPad,CuDef*%
%ADD43RoundRect,0.250000X-0.250000X-0.475000X0.250000X-0.475000X0.250000X0.475000X-0.250000X0.475000X0*%
%TD*%
%TA.AperFunction,SMDPad,CuDef*%
%ADD44RoundRect,0.225000X-0.250000X0.225000X-0.250000X-0.225000X0.250000X-0.225000X0.250000X0.225000X0*%
%TD*%
%TA.AperFunction,SMDPad,CuDef*%
%ADD45RoundRect,0.250000X0.250000X0.475000X-0.250000X0.475000X-0.250000X-0.475000X0.250000X-0.475000X0*%
%TD*%
%TA.AperFunction,SMDPad,CuDef*%
%ADD46R,1.400000X1.200000*%
%TD*%
%TA.AperFunction,SMDPad,CuDef*%
%ADD47RoundRect,0.250000X-0.312500X-0.625000X0.312500X-0.625000X0.312500X0.625000X-0.312500X0.625000X0*%
%TD*%
%TA.AperFunction,SMDPad,CuDef*%
%ADD48RoundRect,0.375000X-0.625000X-0.375000X0.625000X-0.375000X0.625000X0.375000X-0.625000X0.375000X0*%
%TD*%
%TA.AperFunction,SMDPad,CuDef*%
%ADD49RoundRect,0.500000X-0.500000X-1.400000X0.500000X-1.400000X0.500000X1.400000X-0.500000X1.400000X0*%
%TD*%
%TA.AperFunction,SMDPad,CuDef*%
%ADD50FreePoly0,0.000000*%
%TD*%
%TA.AperFunction,SMDPad,CuDef*%
%ADD51FreePoly1,0.000000*%
%TD*%
%TA.AperFunction,SMDPad,CuDef*%
%ADD52RoundRect,0.135000X0.135000X0.185000X-0.135000X0.185000X-0.135000X-0.185000X0.135000X-0.185000X0*%
%TD*%
%TA.AperFunction,ComponentPad*%
%ADD53R,1.700000X1.700000*%
%TD*%
%TA.AperFunction,ComponentPad*%
%ADD54O,1.700000X1.700000*%
%TD*%
%TA.AperFunction,SMDPad,CuDef*%
%ADD55O,0.857199X0.204000*%
%TD*%
%TA.AperFunction,SMDPad,CuDef*%
%ADD56O,0.204000X0.857199*%
%TD*%
%TA.AperFunction,SMDPad,CuDef*%
%ADD57R,1.701800X1.701800*%
%TD*%
%TA.AperFunction,SMDPad,CuDef*%
%ADD58RoundRect,0.250000X0.475000X-0.250000X0.475000X0.250000X-0.475000X0.250000X-0.475000X-0.250000X0*%
%TD*%
%TA.AperFunction,SMDPad,CuDef*%
%ADD59RoundRect,0.250000X0.412500X0.925000X-0.412500X0.925000X-0.412500X-0.925000X0.412500X-0.925000X0*%
%TD*%
%TA.AperFunction,SMDPad,CuDef*%
%ADD60R,0.457200X0.406400*%
%TD*%
%TA.AperFunction,SMDPad,CuDef*%
%ADD61R,0.254000X0.711200*%
%TD*%
%TA.AperFunction,SMDPad,CuDef*%
%ADD62R,1.651000X0.254000*%
%TD*%
%TA.AperFunction,SMDPad,CuDef*%
%ADD63R,2.200000X2.150000*%
%TD*%
%TA.AperFunction,SMDPad,CuDef*%
%ADD64RoundRect,0.250000X-0.475000X0.250000X-0.475000X-0.250000X0.475000X-0.250000X0.475000X0.250000X0*%
%TD*%
%TA.AperFunction,SMDPad,CuDef*%
%ADD65R,1.050000X0.600000*%
%TD*%
%TA.AperFunction,SMDPad,CuDef*%
%ADD66R,1.397000X0.889000*%
%TD*%
%TA.AperFunction,SMDPad,CuDef*%
%ADD67RoundRect,0.225000X0.250000X-0.225000X0.250000X0.225000X-0.250000X0.225000X-0.250000X-0.225000X0*%
%TD*%
%TA.AperFunction,SMDPad,CuDef*%
%ADD68RoundRect,0.250000X0.450000X-0.400000X0.450000X0.400000X-0.450000X0.400000X-0.450000X-0.400000X0*%
%TD*%
%TA.AperFunction,SMDPad,CuDef*%
%ADD69R,0.950000X0.900000*%
%TD*%
%TA.AperFunction,SMDPad,CuDef*%
%ADD70RoundRect,0.070000X-0.070000X-0.355000X0.070000X-0.355000X0.070000X0.355000X-0.070000X0.355000X0*%
%TD*%
%TA.AperFunction,SMDPad,CuDef*%
%ADD71RoundRect,0.070000X-0.070000X-0.305000X0.070000X-0.305000X0.070000X0.305000X-0.070000X0.305000X0*%
%TD*%
%TA.AperFunction,SMDPad,CuDef*%
%ADD72RoundRect,0.150000X0.150000X-0.512500X0.150000X0.512500X-0.150000X0.512500X-0.150000X-0.512500X0*%
%TD*%
%TA.AperFunction,SMDPad,CuDef*%
%ADD73RoundRect,0.250000X-0.300000X-0.300000X0.300000X-0.300000X0.300000X0.300000X-0.300000X0.300000X0*%
%TD*%
%TA.AperFunction,ComponentPad*%
%ADD74C,1.550000*%
%TD*%
%TA.AperFunction,ComponentPad*%
%ADD75C,2.000000*%
%TD*%
%TA.AperFunction,ComponentPad*%
%ADD76C,1.350000*%
%TD*%
%TA.AperFunction,ComponentPad*%
%ADD77C,1.650000*%
%TD*%
%TA.AperFunction,ComponentPad*%
%ADD78C,1.950000*%
%TD*%
%TA.AperFunction,ComponentPad*%
%ADD79C,2.400000*%
%TD*%
%TA.AperFunction,ComponentPad*%
%ADD80R,2.745000X2.745000*%
%TD*%
%TA.AperFunction,ComponentPad*%
%ADD81C,2.745000*%
%TD*%
%ADD82C,0.350000*%
%ADD83O,0.600000X1.700000*%
%ADD84O,0.600000X1.400000*%
%ADD85C,0.300000*%
G04 APERTURE END LIST*
D10*
%TA.AperFunction,EtchedComponent*%
%TO.C,JP1*%
G36*
X70808000Y-100090000D02*
G01*
X70308000Y-100090000D01*
X70308000Y-99690000D01*
X70808000Y-99690000D01*
X70808000Y-100090000D01*
G37*
%TD.AperFunction*%
%TA.AperFunction,EtchedComponent*%
G36*
X70808000Y-100890000D02*
G01*
X70308000Y-100890000D01*
X70308000Y-100490000D01*
X70808000Y-100490000D01*
X70808000Y-100890000D01*
G37*
%TD.AperFunction*%
%TD*%
D11*
%TO.P,D3,1*%
%TO.N,VMotor*%
X85710799Y-69579600D03*
%TO.P,D3,2*%
%TO.N,OA1_OUT*%
X82408799Y-69579600D03*
%TD*%
D12*
%TO.P,R20,1*%
%TO.N,GND*%
X94805900Y-81651001D03*
%TO.P,R20,2*%
%TO.N,/Motor Driver/BRB*%
X91880900Y-81651001D03*
%TD*%
D13*
%TO.P,R49,1*%
%TO.N,MCU_LED_ERROR*%
X100308000Y-63515000D03*
%TO.P,R49,2*%
%TO.N,Net-(LED2-A)*%
X100308000Y-65165000D03*
%TD*%
D14*
%TO.P,R33,1*%
%TO.N,Net-(Q4-D)*%
X98433000Y-70140000D03*
%TO.P,R33,2*%
%TO.N,/Power/VBAT_PACK_POS*%
X100083000Y-70140000D03*
%TD*%
D15*
%TO.P,C10,1*%
%TO.N,+3V3*%
X84040000Y-111068000D03*
%TO.P,C10,2*%
%TO.N,GND*%
X83080000Y-111068000D03*
%TD*%
D16*
%TO.P,C5,1*%
%TO.N,+1V1*%
X88776000Y-106376000D03*
%TO.P,C5,2*%
%TO.N,GND*%
X88776000Y-105416000D03*
%TD*%
D17*
%TO.P,R6,1*%
%TO.N,USB_D+*%
X89672500Y-119258000D03*
%TO.P,R6,2*%
%TO.N,Net-(U3-USB_DP)*%
X89672500Y-118238000D03*
%TD*%
D18*
%TO.P,C8,1*%
%TO.N,+3V3*%
X86660000Y-118268000D03*
%TO.P,C8,2*%
%TO.N,GND*%
X86660000Y-119228000D03*
%TD*%
D19*
%TO.P,J1,A1,GND*%
%TO.N,GND*%
X78858000Y-122950000D03*
%TO.P,J1,A4,VBUS*%
%TO.N,V_USB*%
X79658000Y-122950000D03*
D20*
%TO.P,J1,A5,CC1*%
%TO.N,Net-(J1-CC1)*%
X80808000Y-122950000D03*
%TO.P,J1,A6,D+*%
%TO.N,USB_D+_IN*%
X81808000Y-122950000D03*
%TO.P,J1,A7,D-*%
%TO.N,USB_D-_IN*%
X82308000Y-122950000D03*
%TO.P,J1,A8,SBU1*%
%TO.N,unconnected-(J1-SBU1-PadA8)*%
X83308000Y-122950000D03*
D19*
%TO.P,J1,A9,VBUS*%
%TO.N,V_USB*%
X84458000Y-122950000D03*
%TO.P,J1,A12,GND*%
%TO.N,GND*%
X85258000Y-122950000D03*
%TO.P,J1,B1,GND*%
X85258000Y-122950000D03*
%TO.P,J1,B4,VBUS*%
%TO.N,V_USB*%
X84458000Y-122950000D03*
D20*
%TO.P,J1,B5,CC2*%
%TO.N,Net-(J1-CC2)*%
X83808000Y-122950000D03*
%TO.P,J1,B6,D+*%
%TO.N,USB_D+_IN*%
X82808000Y-122950000D03*
%TO.P,J1,B7,D-*%
%TO.N,USB_D-_IN*%
X81308000Y-122950000D03*
%TO.P,J1,B8,SBU2*%
%TO.N,unconnected-(J1-SBU2-PadB8)*%
X80308000Y-122950000D03*
D19*
%TO.P,J1,B9,VBUS*%
%TO.N,V_USB*%
X79658000Y-122950000D03*
%TO.P,J1,B12,GND*%
%TO.N,GND*%
X78858000Y-122950000D03*
D21*
%TO.P,J1,S1,SHIELD*%
X77738000Y-123525000D03*
D22*
X77738000Y-127705000D03*
D21*
X86378000Y-123525000D03*
D22*
X86378000Y-127705000D03*
%TD*%
D23*
%TO.P,C19,1*%
%TO.N,Net-(U4-1.8VOUT)*%
X89470000Y-83350000D03*
%TO.P,C19,2*%
%TO.N,GND*%
X90430000Y-83350000D03*
%TD*%
D14*
%TO.P,R40,1*%
%TO.N,GND*%
X58833000Y-60964000D03*
%TO.P,R40,2*%
%TO.N,VBAT_MONITOR*%
X60483000Y-60964000D03*
%TD*%
D18*
%TO.P,C18,1*%
%TO.N,/Motor Driver/TMC_VCC_IO*%
X86358000Y-85060000D03*
%TO.P,C18,2*%
%TO.N,GND*%
X86358000Y-86020000D03*
%TD*%
D14*
%TO.P,R32,1*%
%TO.N,VMotor*%
X71183000Y-82440000D03*
%TO.P,R32,2*%
%TO.N,BOOST_VOUT*%
X72833000Y-82440000D03*
%TD*%
D24*
%TO.P,C41,1*%
%TO.N,+3V3*%
X77408000Y-99040000D03*
%TO.P,C41,2*%
%TO.N,GND*%
X75858000Y-99040000D03*
%TD*%
D13*
%TO.P,R10,1*%
%TO.N,Net-(Q1-G)*%
X86550000Y-92725000D03*
%TO.P,R10,2*%
%TO.N,+3V3*%
X86550000Y-94375000D03*
%TD*%
D25*
%TO.P,R2,1*%
%TO.N,+3V3*%
X96108000Y-118730000D03*
%TO.P,R2,2*%
%TO.N,/MCU/QSPI_SS*%
X96108000Y-119750000D03*
%TD*%
D26*
%TO.P,R28,1*%
%TO.N,Net-(U7-OVP)*%
X66925000Y-83700000D03*
%TO.P,R28,2*%
%TO.N,BOOST_VOUT*%
X65275000Y-83700000D03*
%TD*%
D17*
%TO.P,R5,1*%
%TO.N,/MCU/XOUT*%
X91195000Y-106406000D03*
%TO.P,R5,2*%
%TO.N,Net-(C2-Pad1)*%
X91195000Y-105386000D03*
%TD*%
%TO.P,R7,1*%
%TO.N,USB_D-*%
X88660000Y-119258000D03*
%TO.P,R7,2*%
%TO.N,Net-(U3-USB_DM)*%
X88660000Y-118238000D03*
%TD*%
D11*
%TO.P,D8,1*%
%TO.N,OB1_OUT*%
X90168400Y-67293600D03*
%TO.P,D8,2*%
%TO.N,GND*%
X86866400Y-67293600D03*
%TD*%
%TO.P,D10,1*%
%TO.N,OB2_OUT*%
X93216400Y-67293600D03*
%TO.P,D10,2*%
%TO.N,GND*%
X96518400Y-67293600D03*
%TD*%
D27*
%TO.P,C38,1*%
%TO.N,GND*%
X71686000Y-89408000D03*
%TO.P,C38,2*%
%TO.N,VMOTOR_MONITOR*%
X73236000Y-89408000D03*
%TD*%
D16*
%TO.P,C15,1*%
%TO.N,VMotor*%
X83258000Y-82880000D03*
%TO.P,C15,2*%
%TO.N,Net-(U4-VCP)*%
X83258000Y-81920000D03*
%TD*%
D11*
%TO.P,D7,1*%
%TO.N,VMotor*%
X86866400Y-69579600D03*
%TO.P,D7,2*%
%TO.N,OB1_OUT*%
X90168400Y-69579600D03*
%TD*%
D28*
%TO.P,R8,1*%
%TO.N,~{TMC_STBDY}*%
X77708000Y-88615000D03*
%TO.P,R8,2*%
%TO.N,Net-(Q2-G)*%
X77708000Y-86965000D03*
%TD*%
D26*
%TO.P,R31,1*%
%TO.N,GND*%
X65187000Y-78368000D03*
%TO.P,R31,2*%
%TO.N,Net-(U7-FB)*%
X63537000Y-78368000D03*
%TD*%
D14*
%TO.P,R4,1*%
%TO.N,GND*%
X76233000Y-120068000D03*
%TO.P,R4,2*%
%TO.N,Net-(J1-CC2)*%
X77883000Y-120068000D03*
%TD*%
D13*
%TO.P,R48,1*%
%TO.N,GND*%
X68632999Y-56069200D03*
%TO.P,R48,2*%
%TO.N,Net-(U8-G2)*%
X68632999Y-57719200D03*
%TD*%
D24*
%TO.P,C28,1*%
%TO.N,BOOST_VIN*%
X63525000Y-71674000D03*
%TO.P,C28,2*%
%TO.N,GND*%
X61975000Y-71674000D03*
%TD*%
D29*
%TO.P,Q3,1,G*%
%TO.N,Net-(Q3-G)*%
X60640000Y-100888000D03*
%TO.P,Q3,2,S*%
%TO.N,Net-(D11-K)*%
X60640000Y-99588000D03*
%TO.P,Q3,3,D*%
%TO.N,Vbat*%
X58740000Y-100238000D03*
%TD*%
D30*
%TO.P,D13,1*%
%TO.N,Net-(Q4-D)*%
X99158000Y-81140000D03*
%TO.P,D13,2*%
%TO.N,MCU_PWR_BTN*%
X97258000Y-81140000D03*
%TO.P,D13,3*%
%TO.N,Net-(D13-Pad3)*%
X98208000Y-83240000D03*
%TD*%
D31*
%TO.P,U3,1,IOVDD*%
%TO.N,+3V3*%
X93996500Y-114713000D03*
%TO.P,U3,2,GPIO0*%
%TO.N,/MCU/UART_0_TX*%
X93996500Y-114313000D03*
%TO.P,U3,3,GPIO1*%
%TO.N,/MCU/UART_0_RX*%
X93996500Y-113913000D03*
%TO.P,U3,4,GPIO2*%
%TO.N,MCU_LED_ERROR*%
X93996500Y-113513000D03*
%TO.P,U3,5,GPIO3*%
%TO.N,MCU_LED_STATUS_1*%
X93996500Y-113113000D03*
%TO.P,U3,6,GPIO4*%
%TO.N,VUSB_MONITOR*%
X93996500Y-112713000D03*
%TO.P,U3,7,GPIO5*%
%TO.N,MCU_LED_STATUS_2*%
X93996500Y-112313000D03*
%TO.P,U3,8,GPIO6*%
%TO.N,MCU_LED_STATUS_3*%
X93996500Y-111913000D03*
%TO.P,U3,9,GPIO7*%
%TO.N,MCU_PWR_CTRL*%
X93996500Y-111513000D03*
%TO.P,U3,10,IOVDD*%
%TO.N,+3V3*%
X93996500Y-111113000D03*
%TO.P,U3,11,GPIO8*%
%TO.N,MCU_PWR_BTN*%
X93996500Y-110713000D03*
%TO.P,U3,12,GPIO9*%
%TO.N,/MCU/GPIO9*%
X93996500Y-110313000D03*
%TO.P,U3,13,GPIO10*%
%TO.N,/MCU/GPIO10*%
X93996500Y-109913000D03*
%TO.P,U3,14,GPIO11*%
%TO.N,/MCU/GPIO11*%
X93996500Y-109513000D03*
D32*
%TO.P,U3,15,GPIO12*%
%TO.N,/MCU/GPIO12*%
X93159000Y-108675500D03*
%TO.P,U3,16,GPIO13*%
%TO.N,/MCU/GPIO13*%
X92759000Y-108675500D03*
%TO.P,U3,17,GPIO14*%
%TO.N,/MCU/GPIO14*%
X92359000Y-108675500D03*
%TO.P,U3,18,GPIO15*%
%TO.N,/MCU/GPIO15*%
X91959000Y-108675500D03*
%TO.P,U3,19,TESTEN*%
%TO.N,GND*%
X91559000Y-108675500D03*
%TO.P,U3,20,XIN*%
%TO.N,/MCU/XIN*%
X91159000Y-108675500D03*
%TO.P,U3,21,XOUT*%
%TO.N,/MCU/XOUT*%
X90759000Y-108675500D03*
%TO.P,U3,22,IOVDD*%
%TO.N,+3V3*%
X90359000Y-108675500D03*
%TO.P,U3,23,DVDD*%
%TO.N,+1V1*%
X89959000Y-108675500D03*
%TO.P,U3,24,SWCLK*%
%TO.N,/MCU/SWCLK*%
X89559000Y-108675500D03*
%TO.P,U3,25,SWD*%
%TO.N,/MCU/SWD*%
X89159000Y-108675500D03*
%TO.P,U3,26,RUN*%
%TO.N,/MCU/RUN*%
X88759000Y-108675500D03*
%TO.P,U3,27,GPIO16*%
%TO.N,BUZZER*%
X88359000Y-108675500D03*
%TO.P,U3,28,GPIO17*%
%TO.N,JOY_MCU_BTN*%
X87959000Y-108675500D03*
D31*
%TO.P,U3,29,GPIO18*%
%TO.N,MCU_BOOST_EN*%
X87121500Y-109513000D03*
%TO.P,U3,30,GPIO19*%
%TO.N,TMC_DIAG*%
X87121500Y-109913000D03*
%TO.P,U3,31,GPIO20*%
%TO.N,TMC_EN*%
X87121500Y-110313000D03*
%TO.P,U3,32,GPIO21*%
%TO.N,~{TMC_STBDY}*%
X87121500Y-110713000D03*
%TO.P,U3,33,IOVDD*%
%TO.N,+3V3*%
X87121500Y-111113000D03*
%TO.P,U3,34,GPIO22*%
%TO.N,TMC_DIR*%
X87121500Y-111513000D03*
%TO.P,U3,35,GPIO23*%
%TO.N,TMC_STEP*%
X87121500Y-111913000D03*
%TO.P,U3,36,GPIO24*%
%TO.N,TMC_UART_TX*%
X87121500Y-112313000D03*
%TO.P,U3,37,GPIO25*%
%TO.N,TMC_UART_RX*%
X87121500Y-112713000D03*
%TO.P,U3,38,GPIO26_ADC0*%
%TO.N,VBAT_MONITOR*%
X87121500Y-113113000D03*
%TO.P,U3,39,GPIO27_ADC1*%
%TO.N,VMOTOR_MONITOR*%
X87121500Y-113513000D03*
%TO.P,U3,40,GPIO28_ADC2*%
%TO.N,JOY_AXIS_MCU_V*%
X87121500Y-113913000D03*
%TO.P,U3,41,GPIO29_ADC3*%
%TO.N,JOY_AXIS_MCU_H*%
X87121500Y-114313000D03*
%TO.P,U3,42,IOVDD*%
%TO.N,+3V3*%
X87121500Y-114713000D03*
D32*
%TO.P,U3,43,ADC_AVDD*%
X87959000Y-115550500D03*
%TO.P,U3,44,VREG_IN*%
X88359000Y-115550500D03*
%TO.P,U3,45,VREG_VOUT*%
%TO.N,+1V1*%
X88759000Y-115550500D03*
%TO.P,U3,46,USB_DM*%
%TO.N,Net-(U3-USB_DM)*%
X89159000Y-115550500D03*
%TO.P,U3,47,USB_DP*%
%TO.N,Net-(U3-USB_DP)*%
X89559000Y-115550500D03*
%TO.P,U3,48,USB_VDD*%
%TO.N,+3V3*%
X89959000Y-115550500D03*
%TO.P,U3,49,IOVDD*%
X90359000Y-115550500D03*
%TO.P,U3,50,DVDD*%
%TO.N,+1V1*%
X90759000Y-115550500D03*
%TO.P,U3,51,QSPI_SD3*%
%TO.N,/MCU/QSPI_SD3*%
X91159000Y-115550500D03*
%TO.P,U3,52,QSPI_SCLK*%
%TO.N,/MCU/QSPI_SCLK*%
X91559000Y-115550500D03*
%TO.P,U3,53,QSPI_SD0*%
%TO.N,/MCU/QSPI_SD0*%
X91959000Y-115550500D03*
%TO.P,U3,54,QSPI_SD2*%
%TO.N,/MCU/QSPI_SD2*%
X92359000Y-115550500D03*
%TO.P,U3,55,QSPI_SD1*%
%TO.N,/MCU/QSPI_SD1*%
X92759000Y-115550500D03*
%TO.P,U3,56,QSPI_SS*%
%TO.N,/MCU/QSPI_SS*%
X93159000Y-115550500D03*
D33*
%TO.P,U3,57,GND*%
%TO.N,GND*%
X91834000Y-113388000D03*
X91834000Y-112113000D03*
X91834000Y-110838000D03*
X90559000Y-113388000D03*
X90559000Y-112113000D03*
D34*
X90559000Y-112113000D03*
D33*
X90559000Y-110838000D03*
X89284000Y-113388000D03*
X89284000Y-112113000D03*
X89284000Y-110838000D03*
%TD*%
D14*
%TO.P,R26,1*%
%TO.N,Net-(U6-STAT)*%
X60183000Y-113340000D03*
%TO.P,R26,2*%
%TO.N,Net-(LED1-K)*%
X61833000Y-113340000D03*
%TD*%
%TO.P,R3,1*%
%TO.N,GND*%
X76233000Y-118290000D03*
%TO.P,R3,2*%
%TO.N,Net-(J1-CC1)*%
X77883000Y-118290000D03*
%TD*%
D18*
%TO.P,C7,1*%
%TO.N,+3V3*%
X90942500Y-119377500D03*
%TO.P,C7,2*%
%TO.N,GND*%
X90942500Y-120337500D03*
%TD*%
D16*
%TO.P,C36,1*%
%TO.N,Net-(U9-BAT)*%
X76982999Y-57799200D03*
%TO.P,C36,2*%
%TO.N,/Power/VBAT_PACK_NEG*%
X76982999Y-56839200D03*
%TD*%
D26*
%TO.P,R24,1*%
%TO.N,GND*%
X72733000Y-110290000D03*
%TO.P,R24,2*%
%TO.N,Net-(U6-PROG)*%
X71083000Y-110290000D03*
%TD*%
D18*
%TO.P,C6,1*%
%TO.N,+1V1*%
X87660000Y-118268000D03*
%TO.P,C6,2*%
%TO.N,GND*%
X87660000Y-119228000D03*
%TD*%
D35*
%TO.P,LED1,1,K*%
%TO.N,Net-(LED1-K)*%
X91008000Y-128890000D03*
%TO.P,LED1,2,A*%
%TO.N,V_USB*%
X89108000Y-128890000D03*
%TD*%
D26*
%TO.P,R45,1*%
%TO.N,GND*%
X95308000Y-126140000D03*
%TO.P,R45,2*%
%TO.N,VUSB_MONITOR*%
X93658000Y-126140000D03*
%TD*%
D14*
%TO.P,R30,1*%
%TO.N,Net-(U7-FB)*%
X63537000Y-80146000D03*
%TO.P,R30,2*%
%TO.N,BOOST_VOUT*%
X65187000Y-80146000D03*
%TD*%
D13*
%TO.P,R27,1*%
%TO.N,Net-(U7-COMP)*%
X59790000Y-78813000D03*
%TO.P,R27,2*%
%TO.N,Net-(C32-Pad1)*%
X59790000Y-80463000D03*
%TD*%
D36*
%TO.P,L1,1,1*%
%TO.N,OA1_OUT*%
X81913400Y-72762201D03*
%TO.P,L1,2,2*%
%TO.N,OA1*%
X81913400Y-75553801D03*
%TD*%
D15*
%TO.P,C13,1*%
%TO.N,+3V3*%
X85440000Y-114768000D03*
%TO.P,C13,2*%
%TO.N,GND*%
X84480000Y-114768000D03*
%TD*%
D11*
%TO.P,D4,1*%
%TO.N,OA1_OUT*%
X82408799Y-67293600D03*
%TO.P,D4,2*%
%TO.N,GND*%
X85710799Y-67293600D03*
%TD*%
D37*
%TO.P,Q4,1,G*%
%TO.N,Net-(Q4-G)*%
X100758000Y-75540000D03*
%TO.P,Q4,2,S*%
%TO.N,GND*%
X100758000Y-73640000D03*
%TO.P,Q4,3,D*%
%TO.N,Net-(Q4-D)*%
X98658000Y-74590000D03*
%TD*%
D38*
%TO.P,U7,1,NC*%
%TO.N,unconnected-(U7-NC-Pad1)*%
X62319000Y-76395000D03*
%TO.P,U7,2,SS*%
%TO.N,Net-(U7-SS)*%
X62819000Y-76395000D03*
%TO.P,U7,3,FB*%
%TO.N,Net-(U7-FB)*%
X63319000Y-76395000D03*
%TO.P,U7,4,AGND*%
%TO.N,GND*%
X63819000Y-76395000D03*
%TO.P,U7,5,PGND*%
X64319000Y-76395000D03*
%TO.P,U7,6,PGND*%
X64819000Y-76395000D03*
%TO.P,U7,7,SW*%
%TO.N,Net-(D12-A)*%
X64819000Y-73545000D03*
%TO.P,U7,8,SW*%
X64319000Y-73545000D03*
%TO.P,U7,9,OVP*%
%TO.N,Net-(U7-OVP)*%
X63819000Y-73545000D03*
%TO.P,U7,10,VIN*%
%TO.N,BOOST_VIN*%
X63319000Y-73545000D03*
%TO.P,U7,11,EN*%
%TO.N,MCU_BOOST_EN*%
X62819000Y-73545000D03*
%TO.P,U7,12,COMP*%
%TO.N,Net-(U7-COMP)*%
X62319000Y-73545000D03*
D39*
%TO.P,U7,13,PGND*%
%TO.N,GND*%
X62619000Y-75470000D03*
X63569000Y-75470000D03*
X64519000Y-75470000D03*
D40*
X63569000Y-74970000D03*
D39*
X62619000Y-74470000D03*
X63569000Y-74470000D03*
X64519000Y-74470000D03*
%TD*%
D41*
%TO.P,U8,1,S1*%
%TO.N,Net-(U8-S1)*%
X73782999Y-60019200D03*
%TO.P,U8,2,G1*%
%TO.N,Net-(U8-G1)*%
X73133001Y-60019200D03*
%TO.P,U8,3,S2*%
%TO.N,GND*%
X72482999Y-60019200D03*
%TO.P,U8,4,G2*%
%TO.N,Net-(U8-G2)*%
X71833001Y-60019200D03*
%TO.P,U8,5,D*%
%TO.N,Net-(U8-D-Pad5)*%
X71833001Y-62660800D03*
%TO.P,U8,6,D*%
X72482999Y-62660800D03*
%TO.P,U8,7,D*%
X73133001Y-62660800D03*
%TO.P,U8,8,D*%
X73782999Y-62660800D03*
%TD*%
D35*
%TO.P,LED5,1,K*%
%TO.N,GND*%
X101908000Y-102540000D03*
%TO.P,LED5,2,A*%
%TO.N,Net-(LED5-A)*%
X101908000Y-104440000D03*
%TD*%
D16*
%TO.P,C3,1*%
%TO.N,+3V3*%
X96108000Y-122520000D03*
%TO.P,C3,2*%
%TO.N,GND*%
X96108000Y-121560000D03*
%TD*%
D35*
%TO.P,LED2,1,K*%
%TO.N,GND*%
X101858000Y-63340000D03*
%TO.P,LED2,2,A*%
%TO.N,Net-(LED2-A)*%
X101858000Y-65240000D03*
%TD*%
D15*
%TO.P,C14,1*%
%TO.N,+3V3*%
X85440000Y-115784000D03*
%TO.P,C14,2*%
%TO.N,GND*%
X84480000Y-115784000D03*
%TD*%
D13*
%TO.P,R34,1*%
%TO.N,Net-(Q4-G)*%
X102408000Y-74165000D03*
%TO.P,R34,2*%
%TO.N,MCU_PWR_CTRL*%
X102408000Y-75815000D03*
%TD*%
D26*
%TO.P,R14,1*%
%TO.N,/Motor Driver/TMC_VCC_IO*%
X84370001Y-90153400D03*
%TO.P,R14,2*%
%TO.N,GND*%
X82720001Y-90153400D03*
%TD*%
D28*
%TO.P,R37,1*%
%TO.N,Net-(U8-S1)*%
X75582999Y-58594200D03*
%TO.P,R37,2*%
%TO.N,/Power/VBAT_PACK_NEG*%
X75582999Y-56944200D03*
%TD*%
D36*
%TO.P,L4,1,1*%
%TO.N,OB2_OUT*%
X93089400Y-72762201D03*
%TO.P,L4,2,2*%
%TO.N,OB2*%
X93089400Y-75553801D03*
%TD*%
D26*
%TO.P,R43,1*%
%TO.N,Net-(R42-Pad2)*%
X73283000Y-87884000D03*
%TO.P,R43,2*%
%TO.N,GND*%
X71633000Y-87884000D03*
%TD*%
D27*
%TO.P,C32,1*%
%TO.N,Net-(C32-Pad1)*%
X59777000Y-81924000D03*
%TO.P,C32,2*%
%TO.N,GND*%
X61327000Y-81924000D03*
%TD*%
D14*
%TO.P,R23,1*%
%TO.N,BOOST_VIN*%
X69563000Y-103320000D03*
%TO.P,R23,2*%
%TO.N,Vbat*%
X71213000Y-103320000D03*
%TD*%
D26*
%TO.P,R13,1*%
%TO.N,TMC_DIR*%
X77608000Y-83940000D03*
%TO.P,R13,2*%
%TO.N,GND*%
X75958000Y-83940000D03*
%TD*%
D15*
%TO.P,C20,1*%
%TO.N,GND*%
X83888000Y-71390000D03*
%TO.P,C20,2*%
%TO.N,OA1_OUT*%
X82928000Y-71390000D03*
%TD*%
D18*
%TO.P,C4,1*%
%TO.N,+1V1*%
X91958500Y-119377500D03*
%TO.P,C4,2*%
%TO.N,GND*%
X91958500Y-120337500D03*
%TD*%
D35*
%TO.P,LED4,1,K*%
%TO.N,GND*%
X101908000Y-96240000D03*
%TO.P,LED4,2,A*%
%TO.N,Net-(LED4-A)*%
X101908000Y-98140000D03*
%TD*%
D24*
%TO.P,C39,1*%
%TO.N,GND*%
X95258000Y-124620000D03*
%TO.P,C39,2*%
%TO.N,VUSB_MONITOR*%
X93708000Y-124620000D03*
%TD*%
D28*
%TO.P,R52,1*%
%TO.N,Net-(LED5-A)*%
X100308000Y-104315000D03*
%TO.P,R52,2*%
%TO.N,MCU_LED_STATUS_3*%
X100308000Y-102665000D03*
%TD*%
D42*
%TO.P,D12,1,K*%
%TO.N,BOOST_VOUT*%
X73200000Y-78350000D03*
%TO.P,D12,2,A*%
%TO.N,Net-(D12-A)*%
X73200000Y-74350000D03*
%TD*%
D28*
%TO.P,R51,1*%
%TO.N,Net-(LED4-A)*%
X100358000Y-98040000D03*
%TO.P,R51,2*%
%TO.N,MCU_LED_STATUS_2*%
X100358000Y-96390000D03*
%TD*%
D26*
%TO.P,R55,1*%
%TO.N,Net-(Q7-D)*%
X82008000Y-109290000D03*
%TO.P,R55,2*%
%TO.N,Net-(JP2-C)*%
X80358000Y-109290000D03*
%TD*%
D15*
%TO.P,C2,1*%
%TO.N,Net-(C2-Pad1)*%
X90018000Y-103892000D03*
%TO.P,C2,2*%
%TO.N,GND*%
X89058000Y-103892000D03*
%TD*%
D43*
%TO.P,C24,1*%
%TO.N,Net-(D11-K)*%
X60518000Y-97724000D03*
%TO.P,C24,2*%
%TO.N,GND*%
X62418000Y-97724000D03*
%TD*%
D44*
%TO.P,C31,1*%
%TO.N,Net-(U7-SS)*%
X61314000Y-78863000D03*
%TO.P,C31,2*%
%TO.N,GND*%
X61314000Y-80413000D03*
%TD*%
D23*
%TO.P,C1,1*%
%TO.N,/MCU/XIN*%
X91598000Y-103892000D03*
%TO.P,C1,2*%
%TO.N,GND*%
X92558000Y-103892000D03*
%TD*%
D36*
%TO.P,L2,1,1*%
%TO.N,OA2_OUT*%
X79373400Y-72762201D03*
%TO.P,L2,2,2*%
%TO.N,OA2*%
X79373400Y-75553801D03*
%TD*%
D26*
%TO.P,R12,1*%
%TO.N,TMC_STEP*%
X81033000Y-87940000D03*
%TO.P,R12,2*%
%TO.N,GND*%
X79383000Y-87940000D03*
%TD*%
D18*
%TO.P,C9,1*%
%TO.N,+3V3*%
X95560000Y-114968000D03*
%TO.P,C9,2*%
%TO.N,GND*%
X95560000Y-115928000D03*
%TD*%
D45*
%TO.P,C34,1*%
%TO.N,BOOST_VOUT*%
X68150000Y-76150000D03*
%TO.P,C34,2*%
%TO.N,GND*%
X66250000Y-76150000D03*
%TD*%
D26*
%TO.P,R16,1*%
%TO.N,/Motor Driver/TMC_VCC_IO*%
X84370001Y-87105400D03*
%TO.P,R16,2*%
%TO.N,/Motor Driver/TMC_MS1{slash}AD0*%
X82720001Y-87105400D03*
%TD*%
D23*
%TO.P,C23,1*%
%TO.N,OB2_OUT*%
X94248000Y-71357600D03*
%TO.P,C23,2*%
%TO.N,GND*%
X95208000Y-71357600D03*
%TD*%
D46*
%TO.P,Y1,1,1*%
%TO.N,/MCU/XIN*%
X91908000Y-100502000D03*
%TO.P,Y1,2,2*%
%TO.N,GND*%
X89708000Y-100502000D03*
%TO.P,Y1,3,3*%
%TO.N,Net-(C2-Pad1)*%
X89708000Y-102202000D03*
%TO.P,Y1,4,4*%
%TO.N,GND*%
X91908000Y-102202000D03*
%TD*%
D14*
%TO.P,R17,1*%
%TO.N,TMC_UART_RX*%
X90333000Y-90640000D03*
%TO.P,R17,2*%
%TO.N,TMC_UART_TX*%
X91983000Y-90640000D03*
%TD*%
D47*
%TO.P,R19,1*%
%TO.N,GND*%
X77656900Y-81651001D03*
%TO.P,R19,2*%
%TO.N,/Motor Driver/BRA*%
X80581900Y-81651001D03*
%TD*%
D15*
%TO.P,C21,1*%
%TO.N,OA2_OUT*%
X77888000Y-71357600D03*
%TO.P,C21,2*%
%TO.N,GND*%
X76928000Y-71357600D03*
%TD*%
D48*
%TO.P,U5,1,GND*%
%TO.N,GND*%
X60316000Y-90630000D03*
%TO.P,U5,2,VO*%
%TO.N,+3V3*%
X60316000Y-92930000D03*
D49*
X66616000Y-92930000D03*
D48*
%TO.P,U5,3,VI*%
%TO.N,Net-(D11-K)*%
X60316000Y-95230000D03*
%TD*%
D50*
%TO.P,JP1,1,A*%
%TO.N,Net-(D11-A)*%
X69908000Y-100290000D03*
D51*
%TO.P,JP1,2,B*%
%TO.N,V_USB*%
X71208000Y-100290000D03*
%TD*%
D52*
%TO.P,R1,1*%
%TO.N,/MCU/QSPI_SS*%
X95018000Y-118590000D03*
%TO.P,R1,2*%
%TO.N,/MCU/~{USB_BOOT}*%
X93998000Y-118590000D03*
%TD*%
D16*
%TO.P,C12,1*%
%TO.N,+3V3*%
X89925000Y-106376000D03*
%TO.P,C12,2*%
%TO.N,GND*%
X89925000Y-105416000D03*
%TD*%
D53*
%TO.P,J2,1,Pin_1*%
%TO.N,/MCU/SWCLK*%
X101183000Y-118915000D03*
D54*
%TO.P,J2,2,Pin_2*%
%TO.N,/MCU/UART_0_TX*%
X98643000Y-118915000D03*
%TO.P,J2,3,Pin_3*%
%TO.N,/MCU/SWD*%
X101183000Y-116375000D03*
%TO.P,J2,4,Pin_4*%
%TO.N,/MCU/UART_0_RX*%
X98643000Y-116375000D03*
%TO.P,J2,5,Pin_5*%
%TO.N,GND*%
X101183000Y-113835000D03*
%TO.P,J2,6,Pin_6*%
X98643000Y-113835000D03*
%TD*%
D14*
%TO.P,R42,1*%
%TO.N,VMOTOR_MONITOR*%
X71633000Y-86360000D03*
%TO.P,R42,2*%
%TO.N,Net-(R42-Pad2)*%
X73283000Y-86360000D03*
%TD*%
D55*
%TO.P,U4,1,OA2*%
%TO.N,OA2*%
X84863000Y-81250999D03*
%TO.P,U4,2,VCP*%
%TO.N,Net-(U4-VCP)*%
X84863000Y-81651001D03*
%TO.P,U4,3,DIR*%
%TO.N,TMC_DIR*%
X84863000Y-82051000D03*
%TO.P,U4,4,STEP*%
%TO.N,TMC_STEP*%
X84863000Y-82450999D03*
%TO.P,U4,5,MS1_AD0*%
%TO.N,/Motor Driver/TMC_MS1{slash}AD0*%
X84863000Y-82851001D03*
D56*
%TO.P,U4,6,MS2_AD1*%
%TO.N,/Motor Driver/TMC_MS2{slash}AD1*%
X85532999Y-83521000D03*
%TO.P,U4,7,EN*%
%TO.N,TMC_EN*%
X85933001Y-83521000D03*
%TO.P,U4,8,STEPPER*%
%TO.N,/Motor Driver/TMC_VCC_IO*%
X86333000Y-83521000D03*
%TO.P,U4,9,MODE*%
%TO.N,GND*%
X86732999Y-83521000D03*
%TO.P,U4,10,PDN_UART*%
%TO.N,TMC_UART_RX*%
X87133001Y-83521000D03*
D55*
%TO.P,U4,11,VIO/NSTDBY*%
%TO.N,/Motor Driver/TMC_VCC_IO*%
X87803000Y-82851001D03*
%TO.P,U4,12,DIAG*%
%TO.N,TMC_DIAG*%
X87803000Y-82450999D03*
%TO.P,U4,13,1.8VOUT*%
%TO.N,Net-(U4-1.8VOUT)*%
X87803000Y-82051000D03*
%TO.P,U4,14,GND*%
%TO.N,GND*%
X87803000Y-81651001D03*
%TO.P,U4,15,OB2*%
%TO.N,OB2*%
X87803000Y-81250999D03*
D56*
%TO.P,U4,16,BRB*%
%TO.N,/Motor Driver/BRB*%
X87133001Y-80581000D03*
%TO.P,U4,17,OB1*%
%TO.N,OB1*%
X86732999Y-80581000D03*
%TO.P,U4,18,VS*%
%TO.N,VMotor*%
X86333000Y-80581000D03*
%TO.P,U4,19,OA1*%
%TO.N,OA1*%
X85933001Y-80581000D03*
%TO.P,U4,20,BRA*%
%TO.N,/Motor Driver/BRA*%
X85532999Y-80581000D03*
D57*
%TO.P,U4,21,EPAD*%
%TO.N,GND*%
X86333000Y-82051000D03*
%TD*%
D13*
%TO.P,R11,1*%
%TO.N,TMC_EN*%
X86650000Y-87325000D03*
%TO.P,R11,2*%
%TO.N,GND*%
X86650000Y-88975000D03*
%TD*%
D14*
%TO.P,R41,1*%
%TO.N,VMOTOR_MONITOR*%
X71633000Y-84840000D03*
%TO.P,R41,2*%
%TO.N,VMotor*%
X73283000Y-84840000D03*
%TD*%
D58*
%TO.P,C30,1*%
%TO.N,Vbat*%
X64108000Y-114290000D03*
%TO.P,C30,2*%
%TO.N,GND*%
X64108000Y-112390000D03*
%TD*%
D59*
%TO.P,C25,1*%
%TO.N,BOOST_VIN*%
X64345500Y-67190000D03*
%TO.P,C25,2*%
%TO.N,GND*%
X61270500Y-67190000D03*
%TD*%
D26*
%TO.P,R15,1*%
%TO.N,/Motor Driver/TMC_VCC_IO*%
X84370001Y-88629400D03*
%TO.P,R15,2*%
%TO.N,/Motor Driver/TMC_MS2{slash}AD1*%
X82720001Y-88629400D03*
%TD*%
D11*
%TO.P,D9,1*%
%TO.N,VMotor*%
X96518400Y-69579600D03*
%TO.P,D9,2*%
%TO.N,OB2_OUT*%
X93216400Y-69579600D03*
%TD*%
D28*
%TO.P,R36,1*%
%TO.N,Net-(U9-BAT)*%
X72182999Y-55494200D03*
%TO.P,R36,2*%
%TO.N,/Power/VBAT_PACK_POS*%
X72182999Y-53844200D03*
%TD*%
D27*
%TO.P,C37,1*%
%TO.N,GND*%
X58886000Y-62484000D03*
%TO.P,C37,2*%
%TO.N,VBAT_MONITOR*%
X60436000Y-62484000D03*
%TD*%
D28*
%TO.P,R38,1*%
%TO.N,Net-(U8-G1)*%
X73982999Y-58594200D03*
%TO.P,R38,2*%
%TO.N,/Power/VBAT_PACK_NEG*%
X73982999Y-56944200D03*
%TD*%
%TO.P,R50,1*%
%TO.N,Net-(LED3-A)*%
X100253000Y-92115000D03*
%TO.P,R50,2*%
%TO.N,MCU_LED_STATUS_1*%
X100253000Y-90465000D03*
%TD*%
D58*
%TO.P,C29,1*%
%TO.N,+3V3*%
X69508000Y-92790000D03*
%TO.P,C29,2*%
%TO.N,GND*%
X69508000Y-90890000D03*
%TD*%
D16*
%TO.P,C17,1*%
%TO.N,VMotor*%
X85609001Y-77559001D03*
%TO.P,C17,2*%
%TO.N,GND*%
X85609001Y-76599001D03*
%TD*%
D60*
%TO.P,Q5,1,1*%
%TO.N,Net-(Q4-D)*%
X98307999Y-68926000D03*
%TO.P,Q5,2,2*%
%TO.N,/Power/VBAT_PACK_POS*%
X100208001Y-68926000D03*
%TO.P,Q5,3,3*%
%TO.N,Vbat*%
X99258000Y-66640000D03*
%TD*%
D30*
%TO.P,Q1,1,G*%
%TO.N,Net-(Q1-G)*%
X82814400Y-94411001D03*
%TO.P,Q1,2,D*%
%TO.N,+3V3*%
X84714400Y-94411001D03*
%TO.P,Q1,3,S*%
%TO.N,/Motor Driver/TMC_VCC_IO*%
X83764400Y-92311001D03*
%TD*%
D61*
%TO.P,U1,1,/CS*%
%TO.N,/MCU/QSPI_SS*%
X95058001Y-119743000D03*
%TO.P,U1,2,DO(IO1)*%
%TO.N,/MCU/QSPI_SD1*%
X94558000Y-119743000D03*
%TO.P,U1,3,IO2*%
%TO.N,/MCU/QSPI_SD2*%
X94058000Y-119743000D03*
%TO.P,U1,4,GND*%
%TO.N,GND*%
X93557999Y-119743000D03*
%TO.P,U1,5,DI(IO0)*%
%TO.N,/MCU/QSPI_SD0*%
X93557999Y-122537000D03*
%TO.P,U1,6,CLK*%
%TO.N,/MCU/QSPI_SCLK*%
X94058000Y-122537000D03*
%TO.P,U1,7,IO3*%
%TO.N,/MCU/QSPI_SD3*%
X94558000Y-122537000D03*
%TO.P,U1,8,VCC*%
%TO.N,+3V3*%
X95058001Y-122537000D03*
D62*
%TO.P,U1,9,EPAD*%
%TO.N,GND*%
X94308000Y-121140000D03*
%TD*%
D63*
%TO.P,L5,1,1*%
%TO.N,BOOST_VIN*%
X68350000Y-67950000D03*
%TO.P,L5,2,2*%
%TO.N,Net-(D12-A)*%
X68350000Y-72750000D03*
%TD*%
D24*
%TO.P,C33,1*%
%TO.N,BOOST_VOUT*%
X65137000Y-81924000D03*
%TO.P,C33,2*%
%TO.N,Net-(U7-FB)*%
X63587000Y-81924000D03*
%TD*%
D26*
%TO.P,R21,1*%
%TO.N,GND*%
X64965000Y-102666000D03*
%TO.P,R21,2*%
%TO.N,Net-(D11-A)*%
X63315000Y-102666000D03*
%TD*%
D23*
%TO.P,C11,1*%
%TO.N,+3V3*%
X96680000Y-110768000D03*
%TO.P,C11,2*%
%TO.N,GND*%
X97640000Y-110768000D03*
%TD*%
D26*
%TO.P,R9,1*%
%TO.N,Net-(Q2-G)*%
X80198400Y-94605001D03*
%TO.P,R9,2*%
%TO.N,GND*%
X78548400Y-94605001D03*
%TD*%
%TO.P,R39,1*%
%TO.N,VBAT_MONITOR*%
X60483000Y-59440000D03*
%TO.P,R39,2*%
%TO.N,Vbat*%
X58833000Y-59440000D03*
%TD*%
D64*
%TO.P,C26,1*%
%TO.N,GND*%
X72710000Y-112190000D03*
%TO.P,C26,2*%
%TO.N,V_USB*%
X72710000Y-114090000D03*
%TD*%
D65*
%TO.P,U6,1,STAT*%
%TO.N,Net-(U6-STAT)*%
X68058000Y-112190000D03*
%TO.P,U6,2,VSS*%
%TO.N,GND*%
X68058000Y-113140000D03*
%TO.P,U6,3,VBAT*%
%TO.N,Vbat*%
X68058000Y-114090000D03*
%TO.P,U6,4,VDD*%
%TO.N,V_USB*%
X70758000Y-114090000D03*
%TO.P,U6,5,PROG*%
%TO.N,Net-(U6-PROG)*%
X70758000Y-112190000D03*
%TD*%
D14*
%TO.P,R54,1*%
%TO.N,GND*%
X81268000Y-103450000D03*
%TO.P,R54,2*%
%TO.N,Net-(Q7-G)*%
X82918000Y-103450000D03*
%TD*%
D11*
%TO.P,D5,1*%
%TO.N,VMotor*%
X75690400Y-69579600D03*
%TO.P,D5,2*%
%TO.N,OA2_OUT*%
X78992400Y-69579600D03*
%TD*%
D30*
%TO.P,Q6,1,G*%
%TO.N,/Power/VBAT_PACK_NEG*%
X74032999Y-55369200D03*
%TO.P,Q6,2,S*%
%TO.N,GND*%
X75932999Y-55369200D03*
%TO.P,Q6,3,D*%
%TO.N,Net-(Q6-D)*%
X74982999Y-53269200D03*
%TD*%
D13*
%TO.P,R29,1*%
%TO.N,GND*%
X66902000Y-80083000D03*
%TO.P,R29,2*%
%TO.N,Net-(U7-OVP)*%
X66902000Y-81733000D03*
%TD*%
D66*
%TO.P,SW2,1*%
%TO.N,GND*%
X71073600Y-128940001D03*
%TO.P,SW2,2*%
%TO.N,Net-(D1-PadK)*%
X71073600Y-122439999D03*
%TD*%
D35*
%TO.P,LED3,1,K*%
%TO.N,GND*%
X101808000Y-90240000D03*
%TO.P,LED3,2,A*%
%TO.N,Net-(LED3-A)*%
X101808000Y-92140000D03*
%TD*%
D24*
%TO.P,C27,1*%
%TO.N,BOOST_VIN*%
X63525000Y-70150000D03*
%TO.P,C27,2*%
%TO.N,GND*%
X61975000Y-70150000D03*
%TD*%
D13*
%TO.P,R18,1*%
%TO.N,TMC_UART_RX*%
X88700000Y-88825000D03*
%TO.P,R18,2*%
%TO.N,GND*%
X88700000Y-90475000D03*
%TD*%
D66*
%TO.P,SW1,1*%
%TO.N,GND*%
X65908000Y-128940001D03*
%TO.P,SW1,2*%
%TO.N,/MCU/RUN*%
X65908000Y-122439999D03*
%TD*%
D23*
%TO.P,C22,1*%
%TO.N,GND*%
X88628000Y-71390000D03*
%TO.P,C22,2*%
%TO.N,OB1_OUT*%
X89588000Y-71390000D03*
%TD*%
D36*
%TO.P,L3,1,1*%
%TO.N,OB1_OUT*%
X90549400Y-72762201D03*
%TO.P,L3,2,2*%
%TO.N,OB1*%
X90549400Y-75553801D03*
%TD*%
D13*
%TO.P,R47,1*%
%TO.N,Net-(Q6-D)*%
X70232999Y-56044200D03*
%TO.P,R47,2*%
%TO.N,Net-(U8-G2)*%
X70232999Y-57694200D03*
%TD*%
D67*
%TO.P,C40,1*%
%TO.N,+3V3*%
X73458000Y-96590000D03*
%TO.P,C40,2*%
%TO.N,GND*%
X73458000Y-95040000D03*
%TD*%
D68*
%TO.P,D2,1,A1*%
%TO.N,VMotor*%
X76350000Y-78929000D03*
%TO.P,D2,2,A2*%
%TO.N,GND*%
X76350000Y-76029000D03*
%TD*%
D24*
%TO.P,C35,1*%
%TO.N,/Power/VBAT_PACK_POS*%
X100033000Y-71740000D03*
%TO.P,C35,2*%
%TO.N,Net-(Q4-D)*%
X98483000Y-71740000D03*
%TD*%
D69*
%TO.P,D1,A*%
%TO.N,/MCU/~{USB_BOOT}*%
X74958000Y-124274550D03*
%TO.P,D1,K*%
%TO.N,Net-(D1-PadK)*%
X74958000Y-127424550D03*
%TD*%
D11*
%TO.P,D6,1*%
%TO.N,OA2_OUT*%
X78992400Y-67293600D03*
%TO.P,D6,2*%
%TO.N,GND*%
X75690400Y-67293600D03*
%TD*%
D14*
%TO.P,R44,1*%
%TO.N,VUSB_MONITOR*%
X93674000Y-127728000D03*
%TO.P,R44,2*%
%TO.N,V_USB*%
X95324000Y-127728000D03*
%TD*%
D26*
%TO.P,R53,1*%
%TO.N,BUZZER*%
X85168000Y-109250000D03*
%TO.P,R53,2*%
%TO.N,Net-(Q7-G)*%
X83518000Y-109250000D03*
%TD*%
D28*
%TO.P,R25,1*%
%TO.N,GND*%
X60806000Y-75129000D03*
%TO.P,R25,2*%
%TO.N,MCU_BOOST_EN*%
X60806000Y-73479000D03*
%TD*%
D14*
%TO.P,R35,1*%
%TO.N,+3V3*%
X100833000Y-77340000D03*
%TO.P,R35,2*%
%TO.N,MCU_PWR_CTRL*%
X102483000Y-77340000D03*
%TD*%
D30*
%TO.P,Q7,1,G*%
%TO.N,Net-(Q7-G)*%
X82943000Y-105300000D03*
%TO.P,Q7,2,S*%
%TO.N,GND*%
X81043000Y-105300000D03*
%TO.P,Q7,3,D*%
%TO.N,Net-(Q7-D)*%
X81993000Y-107400000D03*
%TD*%
D37*
%TO.P,Q2,1,G*%
%TO.N,Net-(Q2-G)*%
X78858000Y-90540000D03*
%TO.P,Q2,2,S*%
%TO.N,GND*%
X78858000Y-92440000D03*
%TO.P,Q2,3,D*%
%TO.N,Net-(Q1-G)*%
X80958000Y-91490000D03*
%TD*%
D70*
%TO.P,U9,1,NC*%
%TO.N,unconnected-(U9-NC-Pad1)*%
X71632999Y-58260800D03*
D71*
%TO.P,U9,2,Cout*%
%TO.N,Net-(U8-G2)*%
X72132999Y-58310800D03*
%TO.P,U9,3,Dout*%
%TO.N,Net-(U8-G1)*%
X72632999Y-58310800D03*
%TO.P,U9,4,VSS*%
%TO.N,/Power/VBAT_PACK_NEG*%
X72632999Y-57160800D03*
%TO.P,U9,5,BAT*%
%TO.N,Net-(U9-BAT)*%
X72132999Y-57160800D03*
%TO.P,U9,6,V-*%
%TO.N,Net-(U9-V-)*%
X71632999Y-57160800D03*
%TD*%
D72*
%TO.P,U2,1,I/O1*%
%TO.N,USB_D-_IN*%
X81102000Y-119567500D03*
%TO.P,U2,2,GND*%
%TO.N,GND*%
X82052000Y-119567500D03*
%TO.P,U2,3,I/O2*%
%TO.N,USB_D+_IN*%
X83002000Y-119567500D03*
%TO.P,U2,4,I/O2*%
%TO.N,USB_D+*%
X83002000Y-117292500D03*
%TO.P,U2,5,VBUS*%
%TO.N,V_USB*%
X82052000Y-117292500D03*
%TO.P,U2,6,I/O1*%
%TO.N,USB_D-*%
X81102000Y-117292500D03*
%TD*%
D13*
%TO.P,R46,1*%
%TO.N,GND*%
X70232999Y-52944200D03*
%TO.P,R46,2*%
%TO.N,Net-(U9-V-)*%
X70232999Y-54594200D03*
%TD*%
D67*
%TO.P,C16,1*%
%TO.N,VMotor*%
X86879001Y-77854001D03*
%TO.P,C16,2*%
%TO.N,GND*%
X86879001Y-76304001D03*
%TD*%
D26*
%TO.P,R22,1*%
%TO.N,Net-(D11-A)*%
X61917000Y-102666000D03*
%TO.P,R22,2*%
%TO.N,Net-(Q3-G)*%
X60267000Y-102666000D03*
%TD*%
D73*
%TO.P,D11,1,K*%
%TO.N,Net-(D11-K)*%
X62486000Y-100010000D03*
%TO.P,D11,2,A*%
%TO.N,Net-(D11-A)*%
X65286000Y-100010000D03*
%TD*%
D74*
%TO.P,SW3,1*%
%TO.N,GND*%
X101908000Y-80190000D03*
%TO.P,SW3,2*%
%TO.N,Net-(D13-Pad3)*%
X101908000Y-84690000D03*
D75*
%TO.P,SW3,3*%
%TO.N,N/C*%
X99418000Y-78935000D03*
%TO.P,SW3,4*%
X99418000Y-85945000D03*
%TD*%
D76*
%TO.P,BZ1,1,1*%
%TO.N,Net-(Q7-D)*%
X79050500Y-112400000D03*
%TO.P,BZ1,2,2*%
%TO.N,Net-(JP2-C)*%
X84050500Y-112400000D03*
%TD*%
D77*
%TO.P,JOY1,1,1*%
%TO.N,+3V3*%
X75974400Y-93898501D03*
%TO.P,JOY1,2,2*%
%TO.N,JOY_AXIS_MCU_H*%
X75974400Y-91398501D03*
%TO.P,JOY1,3,3*%
%TO.N,GND*%
X75974400Y-88898501D03*
%TO.P,JOY1,11,1'*%
X87204400Y-100128501D03*
%TO.P,JOY1,12,2'*%
%TO.N,JOY_AXIS_MCU_V*%
X84704400Y-100128501D03*
%TO.P,JOY1,13,3'*%
%TO.N,+3V3*%
X82204400Y-100128501D03*
D78*
%TO.P,JOY1,A1,COM_1*%
%TO.N,JOY_MCU_BTN*%
X90454400Y-88148501D03*
%TO.P,JOY1,B1,COM_2*%
X90454400Y-94648501D03*
%TO.P,JOY1,C1,NO_1*%
%TO.N,GND*%
X94954400Y-88148501D03*
%TO.P,JOY1,D1,NO_2*%
X94954400Y-94648501D03*
D79*
%TO.P,JOY1,MH1,MH1*%
%TO.N,unconnected-(JOY1-PadMH1)*%
X79704400Y-97723501D03*
%TO.P,JOY1,MH2,MH2*%
%TO.N,unconnected-(JOY1-PadMH2)*%
X79704400Y-85073501D03*
%TO.P,JOY1,MH3,MH3*%
%TO.N,unconnected-(JOY1-PadMH3)*%
X89704400Y-85073501D03*
%TO.P,JOY1,MH4,MH4*%
%TO.N,unconnected-(JOY1-PadMH4)*%
X89704400Y-97723501D03*
%TD*%
D80*
%TO.P,BT2,1,1*%
%TO.N,GND*%
X68698000Y-108720000D03*
D81*
%TO.P,BT2,2,2*%
X63618000Y-108720000D03*
%TO.P,BT2,3,3*%
%TO.N,/Power/VBAT_PACK_NEG*%
X66158000Y-116340000D03*
%TD*%
D77*
%TO.P,J3,1_1,1_1*%
%TO.N,OA2_OUT*%
X80658000Y-60140000D03*
%TO.P,J3,1_2,1_2*%
X80658000Y-55140000D03*
%TO.P,J3,2_1,2_1*%
%TO.N,OA1_OUT*%
X84158000Y-60140000D03*
%TO.P,J3,2_2,2_2*%
X84158000Y-55140000D03*
%TO.P,J3,3_1,3_1*%
%TO.N,OB1_OUT*%
X87658000Y-60140000D03*
%TO.P,J3,3_2,3_2*%
X87658000Y-55140000D03*
%TO.P,J3,4_1,4_1*%
%TO.N,OB2_OUT*%
X91158000Y-60140000D03*
%TO.P,J3,4_2,4_2*%
X91158000Y-55140000D03*
%TD*%
D80*
%TO.P,BT1,1,1*%
%TO.N,GND*%
X63618000Y-62720000D03*
D81*
%TO.P,BT1,2,2*%
X68698000Y-62720000D03*
%TO.P,BT1,3,3*%
%TO.N,/Power/VBAT_PACK_POS*%
X66158000Y-55100000D03*
%TD*%
%TA.AperFunction,Conductor*%
%TO.N,BOOST_VOUT*%
G36*
X69865677Y-75119685D02*
G01*
X69886319Y-75136319D01*
X71400000Y-76650000D01*
X74048638Y-76650000D01*
X74115677Y-76669685D01*
X74136319Y-76686319D01*
X74513681Y-77063681D01*
X74547166Y-77125004D01*
X74550000Y-77151362D01*
X74550000Y-79548638D01*
X74530315Y-79615677D01*
X74513681Y-79636319D01*
X74136319Y-80013681D01*
X74074996Y-80047166D01*
X74048638Y-80050000D01*
X72699999Y-80050000D01*
X72300000Y-80449999D01*
X72300000Y-83298638D01*
X72280315Y-83365677D01*
X72263681Y-83386319D01*
X72136319Y-83513681D01*
X72074996Y-83547166D01*
X72048638Y-83550000D01*
X69801362Y-83550000D01*
X69734323Y-83530315D01*
X69713681Y-83513681D01*
X69486319Y-83286319D01*
X69452834Y-83224996D01*
X69450000Y-83198638D01*
X69450000Y-79050000D01*
X67436319Y-77036319D01*
X67402834Y-76974996D01*
X67400000Y-76948638D01*
X67400000Y-75551362D01*
X67419685Y-75484323D01*
X67436319Y-75463681D01*
X67763681Y-75136319D01*
X67825004Y-75102834D01*
X67851362Y-75100000D01*
X69798638Y-75100000D01*
X69865677Y-75119685D01*
G37*
%TD.AperFunction*%
%TD*%
%TA.AperFunction,Conductor*%
%TO.N,OB2*%
G36*
X94315277Y-74812686D02*
G01*
X94335919Y-74829320D01*
X94517281Y-75010682D01*
X94550766Y-75072005D01*
X94553600Y-75098363D01*
X94553600Y-76773639D01*
X94533915Y-76840678D01*
X94517281Y-76861320D01*
X90017919Y-81360682D01*
X89956596Y-81394167D01*
X89930238Y-81397001D01*
X88197039Y-81397001D01*
X88187900Y-81396101D01*
X88180302Y-81396101D01*
X87496009Y-81396101D01*
X87428970Y-81376416D01*
X87383215Y-81323612D01*
X87373271Y-81254454D01*
X87402296Y-81190898D01*
X87448556Y-81157540D01*
X87453653Y-81155428D01*
X87483188Y-81143195D01*
X87496984Y-81138412D01*
X87507063Y-81135571D01*
X87561580Y-81107794D01*
X87601549Y-81078755D01*
X87868648Y-80811654D01*
X87889282Y-80795028D01*
X87902973Y-80786230D01*
X87959944Y-80749617D01*
X88046171Y-80650105D01*
X88050304Y-80641054D01*
X88075411Y-80604891D01*
X88284017Y-80396286D01*
X88303655Y-80372357D01*
X88325115Y-80340239D01*
X88339705Y-80312942D01*
X88395344Y-80178619D01*
X88404330Y-80148998D01*
X88411866Y-80111112D01*
X88414900Y-80080307D01*
X88414900Y-79967062D01*
X88434585Y-79900023D01*
X88451214Y-79879386D01*
X92013600Y-76317001D01*
X92013600Y-75121463D01*
X92033285Y-75054424D01*
X92086089Y-75008669D01*
X92155247Y-74998725D01*
X92218803Y-75027750D01*
X92225281Y-75033782D01*
X92238500Y-75047001D01*
X93940300Y-75047001D01*
X93940300Y-74917001D01*
X93959985Y-74849962D01*
X94012789Y-74804207D01*
X94064300Y-74793001D01*
X94248238Y-74793001D01*
X94315277Y-74812686D01*
G37*
%TD.AperFunction*%
%TD*%
%TA.AperFunction,Conductor*%
%TO.N,GND*%
G36*
X67050000Y-74850000D02*
G01*
X67050000Y-77050000D01*
X66950000Y-77150000D01*
X63650000Y-77150000D01*
X63650000Y-74750000D01*
X63750000Y-74650000D01*
X66850000Y-74650000D01*
X67050000Y-74850000D01*
G37*
%TD.AperFunction*%
%TD*%
%TA.AperFunction,Conductor*%
%TO.N,BOOST_VIN*%
G36*
X67467183Y-63118907D02*
G01*
X67478996Y-63128996D01*
X67621004Y-63271004D01*
X67648781Y-63325521D01*
X67650000Y-63341008D01*
X67650000Y-65900000D01*
X68250000Y-66500000D01*
X69658992Y-66500000D01*
X69717183Y-66518907D01*
X69728996Y-66528996D01*
X69921004Y-66721004D01*
X69948781Y-66775521D01*
X69950000Y-66791008D01*
X69950000Y-69208992D01*
X69931093Y-69267183D01*
X69921004Y-69278996D01*
X68778996Y-70421004D01*
X68724479Y-70448781D01*
X68708992Y-70450000D01*
X66150000Y-70450000D01*
X65391766Y-71208234D01*
X64633531Y-71966468D01*
X64583894Y-71991758D01*
X64584114Y-71992505D01*
X64580137Y-71993672D01*
X64579014Y-71994245D01*
X64577625Y-71994455D01*
X64577327Y-71994497D01*
X64437848Y-72035453D01*
X64437843Y-72035455D01*
X64315565Y-72114038D01*
X64220372Y-72223898D01*
X64159989Y-72356115D01*
X64159989Y-72356118D01*
X64159374Y-72360394D01*
X64132372Y-72415299D01*
X64131387Y-72416298D01*
X63597584Y-72950102D01*
X63587583Y-72967423D01*
X63571857Y-72987919D01*
X63566887Y-72992889D01*
X63508761Y-73079880D01*
X63508759Y-73079886D01*
X63493501Y-73156588D01*
X63493500Y-73156600D01*
X63493501Y-73870500D01*
X63474594Y-73928691D01*
X63425094Y-73964655D01*
X63394501Y-73969500D01*
X63243500Y-73969500D01*
X63185309Y-73950593D01*
X63149345Y-73901093D01*
X63144500Y-73870500D01*
X63144499Y-73156602D01*
X63144498Y-73156595D01*
X63129240Y-73079883D01*
X63129239Y-73079881D01*
X63116684Y-73061091D01*
X63100000Y-73006090D01*
X63100000Y-73000000D01*
X63099999Y-72999999D01*
X62778996Y-72678995D01*
X62751219Y-72624479D01*
X62750000Y-72608992D01*
X62750000Y-69641007D01*
X62768907Y-69582816D01*
X62778990Y-69571009D01*
X64700000Y-67650000D01*
X64700000Y-63991008D01*
X64718907Y-63932817D01*
X64728996Y-63921004D01*
X65521004Y-63128996D01*
X65575521Y-63101219D01*
X65591008Y-63100000D01*
X67408992Y-63100000D01*
X67467183Y-63118907D01*
G37*
%TD.AperFunction*%
%TD*%
%TA.AperFunction,Conductor*%
%TO.N,VMotor*%
G36*
X87645583Y-77224908D02*
G01*
X87657396Y-77234997D01*
X87726404Y-77304005D01*
X87754181Y-77358522D01*
X87755400Y-77374009D01*
X87755400Y-78280993D01*
X87736493Y-78339184D01*
X87726404Y-78350997D01*
X86435400Y-79642001D01*
X86435400Y-80948200D01*
X86416493Y-81006391D01*
X86366993Y-81042355D01*
X86336400Y-81047200D01*
X86303400Y-81047200D01*
X86245209Y-81028293D01*
X86209245Y-80978793D01*
X86204400Y-80948200D01*
X86204400Y-79615001D01*
X84990396Y-78400997D01*
X84962619Y-78346480D01*
X84961400Y-78330993D01*
X84961400Y-77501009D01*
X84980307Y-77442818D01*
X84990396Y-77431005D01*
X85186404Y-77234997D01*
X85240921Y-77207220D01*
X85256408Y-77206001D01*
X87587392Y-77206001D01*
X87645583Y-77224908D01*
G37*
%TD.AperFunction*%
%TD*%
%TA.AperFunction,Conductor*%
%TO.N,+3V3*%
G36*
X93338326Y-109339674D02*
G01*
X93360000Y-109392000D01*
X93360000Y-114844000D01*
X93338326Y-114896326D01*
X93286000Y-114918000D01*
X90560000Y-114918000D01*
X89791900Y-114918000D01*
X89739574Y-114896326D01*
X89717900Y-114844000D01*
X89717900Y-114749900D01*
X89739574Y-114697574D01*
X89791900Y-114675900D01*
X89886000Y-114675900D01*
X89946425Y-114663881D01*
X89998751Y-114642207D01*
X90034450Y-114621596D01*
X90084207Y-114556751D01*
X90098774Y-114521581D01*
X90138822Y-114481533D01*
X90167141Y-114475900D01*
X92686000Y-114475900D01*
X92746425Y-114463881D01*
X92798751Y-114442207D01*
X92834450Y-114421596D01*
X92884207Y-114356751D01*
X92905881Y-114304425D01*
X92917900Y-114244000D01*
X92917900Y-109992000D01*
X92905881Y-109931575D01*
X92884207Y-109879249D01*
X92863596Y-109843550D01*
X92798751Y-109793793D01*
X92798749Y-109793792D01*
X92746429Y-109772120D01*
X92746418Y-109772117D01*
X92686000Y-109760100D01*
X90567142Y-109760100D01*
X90514816Y-109738426D01*
X90498775Y-109714419D01*
X90484208Y-109679252D01*
X90484207Y-109679250D01*
X90484207Y-109679249D01*
X90463596Y-109643550D01*
X90398751Y-109593793D01*
X90398749Y-109593792D01*
X90346429Y-109572120D01*
X90346418Y-109572117D01*
X90286000Y-109560100D01*
X89634000Y-109560100D01*
X89573581Y-109572117D01*
X89573570Y-109572120D01*
X89521256Y-109593789D01*
X89521249Y-109593793D01*
X89485552Y-109614402D01*
X89435792Y-109679250D01*
X89414120Y-109731570D01*
X89414117Y-109731581D01*
X89402100Y-109792000D01*
X89402100Y-110286100D01*
X89380426Y-110338426D01*
X89328100Y-110360100D01*
X89058671Y-110360100D01*
X89033851Y-110362979D01*
X89033845Y-110362980D01*
X88932304Y-110407815D01*
X88853815Y-110486304D01*
X88808979Y-110587849D01*
X88806100Y-110612671D01*
X88806100Y-113613327D01*
X88808979Y-113638148D01*
X88808981Y-113638156D01*
X88816953Y-113656211D01*
X88818261Y-113712833D01*
X88779147Y-113753795D01*
X88749258Y-113760100D01*
X88634000Y-113760100D01*
X88573581Y-113772117D01*
X88573570Y-113772120D01*
X88521256Y-113793789D01*
X88521249Y-113793793D01*
X88485552Y-113814402D01*
X88485550Y-113814403D01*
X88485550Y-113814404D01*
X88452378Y-113857634D01*
X88435792Y-113879250D01*
X88414120Y-113931570D01*
X88414117Y-113931581D01*
X88402100Y-113992000D01*
X88402100Y-114596727D01*
X88414118Y-114657149D01*
X88414120Y-114657157D01*
X88435791Y-114709476D01*
X88470020Y-114760704D01*
X88472084Y-114762768D01*
X88482416Y-114775724D01*
X88492629Y-114791978D01*
X88502922Y-114818931D01*
X88503451Y-114822048D01*
X88504500Y-114834456D01*
X88504500Y-114862500D01*
X88110000Y-114468000D01*
X87760000Y-114468000D01*
X87760000Y-109392000D01*
X87781674Y-109339674D01*
X87834000Y-109318000D01*
X93286000Y-109318000D01*
X93338326Y-109339674D01*
G37*
%TD.AperFunction*%
%TD*%
%TA.AperFunction,Conductor*%
%TO.N,OA2_OUT*%
G36*
X81517183Y-53668907D02*
G01*
X81528996Y-53678996D01*
X82017272Y-54167272D01*
X82045049Y-54221789D01*
X82039151Y-54273221D01*
X82039240Y-54273250D01*
X82039098Y-54273685D01*
X82039006Y-54274493D01*
X82038152Y-54276596D01*
X82019232Y-54334826D01*
X82014976Y-54348591D01*
X82014973Y-54348605D01*
X81994500Y-54491002D01*
X81994500Y-63949606D01*
X81975593Y-64007797D01*
X81965504Y-64019610D01*
X80421537Y-65563577D01*
X80394586Y-65592734D01*
X80384523Y-65604518D01*
X80384499Y-65604547D01*
X80351631Y-65647489D01*
X80288147Y-65776610D01*
X80269232Y-65834825D01*
X80264976Y-65848590D01*
X80264973Y-65848604D01*
X80244500Y-65991001D01*
X80244500Y-72247440D01*
X80245064Y-72268544D01*
X80245099Y-72271189D01*
X80245099Y-73170001D01*
X80226192Y-73228192D01*
X80176692Y-73264156D01*
X80146099Y-73269001D01*
X78522500Y-73269001D01*
X78522500Y-73269002D01*
X78522500Y-73333492D01*
X78503593Y-73391683D01*
X78454093Y-73427647D01*
X78392907Y-73427647D01*
X78353496Y-73403496D01*
X77628996Y-72678996D01*
X77601219Y-72624479D01*
X77600000Y-72608992D01*
X77600000Y-72267100D01*
X77618907Y-72208909D01*
X77668407Y-72172945D01*
X77699000Y-72168100D01*
X77800085Y-72168100D01*
X77800090Y-72168100D01*
X77836393Y-72165243D01*
X77991795Y-72120094D01*
X78131087Y-72037717D01*
X78245517Y-71923287D01*
X78327894Y-71783995D01*
X78373043Y-71628593D01*
X78375900Y-71592290D01*
X78375900Y-71122910D01*
X78373043Y-71086607D01*
X78327894Y-70931205D01*
X78322318Y-70921777D01*
X78245519Y-70791916D01*
X78245518Y-70791915D01*
X78245517Y-70791913D01*
X78131087Y-70677483D01*
X78131084Y-70677481D01*
X78131083Y-70677480D01*
X77991798Y-70595107D01*
X77991795Y-70595106D01*
X77836393Y-70549957D01*
X77836392Y-70549956D01*
X77836389Y-70549956D01*
X77813328Y-70548141D01*
X77800090Y-70547100D01*
X77699000Y-70547100D01*
X77640809Y-70528193D01*
X77604845Y-70478693D01*
X77600000Y-70448100D01*
X77600000Y-62791007D01*
X77618907Y-62732816D01*
X77628990Y-62721009D01*
X79000000Y-61350000D01*
X79000000Y-54491008D01*
X79018907Y-54432817D01*
X79028996Y-54421004D01*
X79771004Y-53678996D01*
X79825521Y-53651219D01*
X79841008Y-53650000D01*
X81458992Y-53650000D01*
X81517183Y-53668907D01*
G37*
%TD.AperFunction*%
%TD*%
%TA.AperFunction,Conductor*%
%TO.N,/Motor Driver/BRB*%
G36*
X92791277Y-80400686D02*
G01*
X92811919Y-80417320D01*
X92993281Y-80598682D01*
X93026766Y-80660005D01*
X93029600Y-80686363D01*
X93029600Y-82615639D01*
X93009915Y-82682678D01*
X92993281Y-82703320D01*
X92811919Y-82884682D01*
X92750596Y-82918167D01*
X92724238Y-82921001D01*
X90734724Y-82921001D01*
X90684638Y-82910436D01*
X90638221Y-82889941D01*
X90613735Y-82887100D01*
X90613734Y-82887100D01*
X90507061Y-82887100D01*
X90440022Y-82867415D01*
X90419380Y-82850781D01*
X90271919Y-82703320D01*
X90238434Y-82641997D01*
X90235600Y-82615639D01*
X90235600Y-81448363D01*
X90255285Y-81381324D01*
X90271919Y-81360682D01*
X91215281Y-80417320D01*
X91276604Y-80383835D01*
X91302962Y-80381001D01*
X92724238Y-80381001D01*
X92791277Y-80400686D01*
G37*
%TD.AperFunction*%
%TD*%
%TA.AperFunction,Conductor*%
%TO.N,VMotor*%
G36*
X85970407Y-68855556D02*
G01*
X86069618Y-68890272D01*
X86069622Y-68890273D01*
X86069625Y-68890274D01*
X86250000Y-68910597D01*
X86430375Y-68890274D01*
X86529593Y-68855555D01*
X86562291Y-68850000D01*
X87651000Y-68850000D01*
X87709191Y-68868907D01*
X87745155Y-68918407D01*
X87750000Y-68949000D01*
X87750000Y-70158992D01*
X87731093Y-70217183D01*
X87721004Y-70228996D01*
X87578996Y-70371004D01*
X87524479Y-70398781D01*
X87508992Y-70400000D01*
X85091008Y-70400000D01*
X85032817Y-70381093D01*
X85021004Y-70371004D01*
X84878996Y-70228996D01*
X84851219Y-70174479D01*
X84850000Y-70158992D01*
X84850000Y-68949000D01*
X84868907Y-68890809D01*
X84918407Y-68854845D01*
X84949000Y-68850000D01*
X85937709Y-68850000D01*
X85970407Y-68855556D01*
G37*
%TD.AperFunction*%
%TD*%
%TA.AperFunction,Conductor*%
%TO.N,+3V3*%
G36*
X85934363Y-114487685D02*
G01*
X85955005Y-114504319D01*
X85985098Y-114534412D01*
X85985101Y-114534414D01*
X85985102Y-114534415D01*
X85985105Y-114534417D01*
X85985107Y-114534418D01*
X86048195Y-114570844D01*
X86118566Y-114589699D01*
X86118572Y-114589700D01*
X86191428Y-114589700D01*
X86589224Y-114589700D01*
X86624265Y-114596669D01*
X86624283Y-114596584D01*
X86709323Y-114613500D01*
X86709326Y-114613500D01*
X87533676Y-114613500D01*
X87533677Y-114613499D01*
X87606740Y-114598966D01*
X87689601Y-114543601D01*
X87695741Y-114534412D01*
X87703294Y-114523109D01*
X87724635Y-114505273D01*
X87723681Y-114504319D01*
X87760000Y-114468000D01*
X88110000Y-114468000D01*
X88456900Y-114814900D01*
X88456900Y-116492503D01*
X88437215Y-116559542D01*
X88420581Y-116580184D01*
X87418262Y-117582502D01*
X87378486Y-117651395D01*
X87357899Y-117728230D01*
X87357044Y-117734726D01*
X87328773Y-117798620D01*
X87321787Y-117806212D01*
X86696319Y-118431681D01*
X86634996Y-118465166D01*
X86608638Y-118468000D01*
X84811362Y-118468000D01*
X84744323Y-118448315D01*
X84723681Y-118431681D01*
X84296319Y-118004319D01*
X84262834Y-117942996D01*
X84260000Y-117916638D01*
X84260000Y-117219362D01*
X84279685Y-117152323D01*
X84296319Y-117131681D01*
X85060000Y-116368000D01*
X85060000Y-114592000D01*
X85079685Y-114524961D01*
X85132489Y-114479206D01*
X85184000Y-114468000D01*
X85867324Y-114468000D01*
X85934363Y-114487685D01*
G37*
%TD.AperFunction*%
%TD*%
%TA.AperFunction,Conductor*%
%TO.N,/Motor Driver/BRA*%
G36*
X84978792Y-79612935D02*
G01*
X85113115Y-79668573D01*
X85145234Y-79690033D01*
X85637965Y-80182764D01*
X85659424Y-80214881D01*
X85670564Y-80241774D01*
X85678101Y-80279661D01*
X85678101Y-80948200D01*
X85659194Y-81006391D01*
X85609694Y-81042355D01*
X85579102Y-81047200D01*
X85467046Y-81047200D01*
X85467037Y-81047201D01*
X85418216Y-81056912D01*
X85357455Y-81049719D01*
X85342690Y-81039428D01*
X85342094Y-81040321D01*
X85333987Y-81034904D01*
X85240302Y-80996099D01*
X85237107Y-80996099D01*
X85232061Y-80994459D01*
X85230736Y-80994196D01*
X85230767Y-80994039D01*
X85178916Y-80977192D01*
X85167103Y-80967103D01*
X84484634Y-80284634D01*
X84463174Y-80252515D01*
X84407536Y-80118192D01*
X84400000Y-80080307D01*
X84400000Y-79919692D01*
X84407536Y-79881807D01*
X84463174Y-79747484D01*
X84484631Y-79715368D01*
X84509969Y-79690030D01*
X84542083Y-79668573D01*
X84592462Y-79647706D01*
X84676409Y-79612935D01*
X84714294Y-79605399D01*
X84940907Y-79605399D01*
X84978792Y-79612935D01*
G37*
%TD.AperFunction*%
%TD*%
%TA.AperFunction,Conductor*%
%TO.N,OB1_OUT*%
G36*
X88667183Y-53668907D02*
G01*
X88678996Y-53678996D01*
X89421004Y-54421004D01*
X89448781Y-54475521D01*
X89450000Y-54491008D01*
X89450000Y-64200000D01*
X91671005Y-66421005D01*
X91698781Y-66475520D01*
X91700000Y-66491007D01*
X91700000Y-73358992D01*
X91681093Y-73417183D01*
X91671004Y-73428996D01*
X91569304Y-73530696D01*
X91514787Y-73558473D01*
X91454355Y-73548902D01*
X91411090Y-73505637D01*
X91400300Y-73460692D01*
X91400300Y-73269002D01*
X91400300Y-73269001D01*
X89698500Y-73269001D01*
X89698500Y-73269002D01*
X89698500Y-73509492D01*
X89679593Y-73567683D01*
X89630093Y-73603647D01*
X89568907Y-73603647D01*
X89529496Y-73579496D01*
X89328996Y-73378996D01*
X89301219Y-73324479D01*
X89300000Y-73308992D01*
X89300000Y-68100000D01*
X86315839Y-65115839D01*
X86288062Y-65061322D01*
X86287851Y-65031746D01*
X86305500Y-64908997D01*
X86305500Y-54541018D01*
X86305500Y-54541008D01*
X86303941Y-54501342D01*
X86302722Y-54485855D01*
X86295597Y-54432224D01*
X86295594Y-54432216D01*
X86294486Y-54427484D01*
X86295630Y-54427215D01*
X86294821Y-54371372D01*
X86319404Y-54330595D01*
X86645205Y-54004794D01*
X86971005Y-53678996D01*
X87025521Y-53651219D01*
X87041008Y-53650000D01*
X88608992Y-53650000D01*
X88667183Y-53668907D01*
G37*
%TD.AperFunction*%
%TD*%
%TA.AperFunction,Conductor*%
%TO.N,+1V1*%
G36*
X90338326Y-109739674D02*
G01*
X90360000Y-109792000D01*
X90360000Y-109918000D01*
X92686000Y-109918000D01*
X92738326Y-109939674D01*
X92760000Y-109992000D01*
X92760000Y-114244000D01*
X92738326Y-114296326D01*
X92686000Y-114318000D01*
X89960000Y-114318000D01*
X89960000Y-114444000D01*
X89938326Y-114496326D01*
X89886000Y-114518000D01*
X89560000Y-114518000D01*
X89560000Y-114844000D01*
X89538326Y-114896326D01*
X89486000Y-114918000D01*
X88736400Y-114918000D01*
X88684074Y-114896326D01*
X88662400Y-114844000D01*
X88662400Y-114814904D01*
X88662400Y-114814900D01*
X88650868Y-114747028D01*
X88602210Y-114669590D01*
X88581673Y-114649053D01*
X88560000Y-114596728D01*
X88560000Y-113992000D01*
X88581674Y-113939674D01*
X88634000Y-113918000D01*
X92160000Y-113918000D01*
X92160000Y-113874532D01*
X92181674Y-113822206D01*
X92185695Y-113818185D01*
X92264185Y-113739695D01*
X92309020Y-113638153D01*
X92311900Y-113613329D01*
X92311899Y-110612672D01*
X92309020Y-110587847D01*
X92264185Y-110486305D01*
X92185695Y-110407815D01*
X92084153Y-110362980D01*
X92084152Y-110362979D01*
X92084150Y-110362979D01*
X92059329Y-110360100D01*
X89634000Y-110360100D01*
X89581674Y-110338426D01*
X89560000Y-110286100D01*
X89560000Y-109792000D01*
X89581674Y-109739674D01*
X89634000Y-109718000D01*
X90286000Y-109718000D01*
X90338326Y-109739674D01*
G37*
%TD.AperFunction*%
%TD*%
%TA.AperFunction,Conductor*%
%TO.N,OA1*%
G36*
X82898194Y-75009847D02*
G01*
X82923254Y-75028053D01*
X83484604Y-75589403D01*
X83512381Y-75643920D01*
X83513600Y-75659407D01*
X83513600Y-77015399D01*
X84775051Y-78276850D01*
X84802828Y-78331367D01*
X84803821Y-78341447D01*
X84803835Y-78341446D01*
X84803889Y-78342141D01*
X84803970Y-78342956D01*
X84803986Y-78343367D01*
X84805206Y-78358868D01*
X84805207Y-78358873D01*
X84821927Y-78418160D01*
X84821929Y-78418166D01*
X84849701Y-78472673D01*
X84849705Y-78472680D01*
X84878744Y-78512649D01*
X84878748Y-78512653D01*
X84878749Y-78512654D01*
X84943684Y-78577590D01*
X84955783Y-78594927D01*
X84956999Y-78594146D01*
X84960826Y-78600101D01*
X85047057Y-78699618D01*
X85090306Y-78727412D01*
X85106787Y-78740692D01*
X86017504Y-79651409D01*
X86045281Y-79705926D01*
X86046500Y-79721413D01*
X86046500Y-80948200D01*
X86027593Y-81006391D01*
X85978093Y-81042355D01*
X85947500Y-81047200D01*
X85935001Y-81047200D01*
X85876810Y-81028293D01*
X85840846Y-80978793D01*
X85836001Y-80948200D01*
X85836001Y-80279661D01*
X85832966Y-80248852D01*
X85832966Y-80248850D01*
X85825428Y-80210963D01*
X85825425Y-80210952D01*
X85816447Y-80181356D01*
X85816445Y-80181350D01*
X85816444Y-80181346D01*
X85805304Y-80154453D01*
X85790715Y-80127159D01*
X85769256Y-80095042D01*
X85749617Y-80071112D01*
X85256886Y-79578381D01*
X85232955Y-79558742D01*
X85202984Y-79538717D01*
X85200838Y-79537283D01*
X85200831Y-79537279D01*
X85173558Y-79522701D01*
X85173548Y-79522696D01*
X85173540Y-79522692D01*
X85173530Y-79522688D01*
X85173524Y-79522685D01*
X85039216Y-79467053D01*
X85022208Y-79461894D01*
X85009598Y-79458069D01*
X85009593Y-79458068D01*
X84971731Y-79450536D01*
X84971703Y-79450531D01*
X84940913Y-79447499D01*
X84940907Y-79447499D01*
X84848458Y-79447499D01*
X84820567Y-79443489D01*
X84815838Y-79442100D01*
X84815836Y-79442100D01*
X84684164Y-79442100D01*
X84684160Y-79442100D01*
X84557825Y-79479196D01*
X84512975Y-79508018D01*
X84497341Y-79516196D01*
X84481656Y-79522692D01*
X84454368Y-79537277D01*
X84454348Y-79537289D01*
X84452212Y-79538717D01*
X84397215Y-79555399D01*
X84146110Y-79555399D01*
X84087919Y-79536492D01*
X84076106Y-79526403D01*
X80830296Y-76280593D01*
X80802519Y-76226076D01*
X80801300Y-76210589D01*
X80801300Y-75196707D01*
X80820207Y-75138516D01*
X80830296Y-75126704D01*
X80916245Y-75040754D01*
X80970761Y-75012976D01*
X81031194Y-75022547D01*
X81056253Y-75040753D01*
X81062500Y-75047000D01*
X81062500Y-75047001D01*
X81062501Y-75047001D01*
X82764299Y-75047001D01*
X82764300Y-75047001D01*
X82764300Y-75047000D01*
X82783246Y-75028054D01*
X82837762Y-75000276D01*
X82898194Y-75009847D01*
G37*
%TD.AperFunction*%
%TD*%
%TA.AperFunction,Conductor*%
%TO.N,OB2_OUT*%
G36*
X92167183Y-53668907D02*
G01*
X92178996Y-53678996D01*
X92921004Y-54421004D01*
X92948781Y-54475521D01*
X92950000Y-54491008D01*
X92950000Y-61250000D01*
X94521005Y-62821005D01*
X94548781Y-62875520D01*
X94550000Y-62891007D01*
X94550000Y-70497824D01*
X94531093Y-70556015D01*
X94481593Y-70591979D01*
X94478625Y-70592892D01*
X94471003Y-70595106D01*
X94471001Y-70595107D01*
X94331716Y-70677480D01*
X94217280Y-70791916D01*
X94134907Y-70931201D01*
X94134906Y-70931205D01*
X94089758Y-71086603D01*
X94089756Y-71086610D01*
X94086900Y-71122915D01*
X94086900Y-71592284D01*
X94089756Y-71628589D01*
X94089758Y-71628596D01*
X94134906Y-71783994D01*
X94134907Y-71783998D01*
X94217280Y-71923283D01*
X94217281Y-71923284D01*
X94217283Y-71923287D01*
X94331713Y-72037717D01*
X94471005Y-72120094D01*
X94478620Y-72122306D01*
X94529225Y-72156697D01*
X94549951Y-72214265D01*
X94550000Y-72217375D01*
X94550000Y-72908992D01*
X94531093Y-72967183D01*
X94521004Y-72978996D01*
X94109304Y-73390696D01*
X94054787Y-73418473D01*
X93994355Y-73408902D01*
X93951090Y-73365637D01*
X93940300Y-73320692D01*
X93940300Y-73269002D01*
X93940300Y-73269001D01*
X92304500Y-73269001D01*
X92246309Y-73250094D01*
X92210345Y-73200594D01*
X92205500Y-73170001D01*
X92205500Y-66491017D01*
X92205500Y-66491007D01*
X92203941Y-66451341D01*
X92202722Y-66435854D01*
X92195597Y-66382223D01*
X92149188Y-66246035D01*
X92149188Y-66246034D01*
X92121418Y-66191531D01*
X92114675Y-66178751D01*
X92114672Y-66178745D01*
X92028447Y-66063563D01*
X89984496Y-64019612D01*
X89956719Y-63965095D01*
X89955500Y-63949608D01*
X89955500Y-54491008D01*
X89954891Y-54475521D01*
X89953941Y-54451342D01*
X89952722Y-54435855D01*
X89945597Y-54382224D01*
X89907576Y-54270654D01*
X89906703Y-54209475D01*
X89931280Y-54168719D01*
X90176143Y-53923856D01*
X90421005Y-53678996D01*
X90475521Y-53651219D01*
X90491008Y-53650000D01*
X92108992Y-53650000D01*
X92167183Y-53668907D01*
G37*
%TD.AperFunction*%
%TD*%
%TA.AperFunction,Conductor*%
%TO.N,/Motor Driver/BRB*%
G36*
X87980591Y-79612935D02*
G01*
X88114914Y-79668573D01*
X88147033Y-79690033D01*
X88172365Y-79715365D01*
X88193825Y-79747483D01*
X88249464Y-79881806D01*
X88257000Y-79919692D01*
X88257000Y-80080307D01*
X88249464Y-80118193D01*
X88193825Y-80252516D01*
X88172365Y-80284634D01*
X87489897Y-80967103D01*
X87435380Y-80994880D01*
X87429499Y-80995342D01*
X87425698Y-80996099D01*
X87332012Y-81034904D01*
X87323906Y-81040321D01*
X87322023Y-81037503D01*
X87282555Y-81057599D01*
X87247780Y-81056912D01*
X87243558Y-81056072D01*
X87198957Y-81047200D01*
X87086899Y-81047200D01*
X87028708Y-81028293D01*
X86992744Y-80978793D01*
X86987899Y-80948200D01*
X86987899Y-80328643D01*
X86995434Y-80290759D01*
X87047576Y-80164878D01*
X87069031Y-80132767D01*
X87511768Y-79690030D01*
X87543882Y-79668573D01*
X87594261Y-79647706D01*
X87678208Y-79612935D01*
X87716093Y-79605399D01*
X87942706Y-79605399D01*
X87980591Y-79612935D01*
G37*
%TD.AperFunction*%
%TD*%
%TA.AperFunction,Conductor*%
%TO.N,+3V3*%
G36*
X67323677Y-89859685D02*
G01*
X67344319Y-89876319D01*
X68171681Y-90703681D01*
X68205166Y-90765004D01*
X68208000Y-90791362D01*
X68208000Y-94788638D01*
X68188315Y-94855677D01*
X68171681Y-94876319D01*
X67344319Y-95703681D01*
X67282996Y-95737166D01*
X67256638Y-95740000D01*
X64459362Y-95740000D01*
X64392323Y-95720315D01*
X64371681Y-95703681D01*
X62608000Y-93940000D01*
X59132000Y-93940000D01*
X59064961Y-93920315D01*
X59019206Y-93867511D01*
X59008000Y-93816000D01*
X59008000Y-92064000D01*
X59027685Y-91996961D01*
X59080489Y-91951206D01*
X59132000Y-91940000D01*
X62508000Y-91940000D01*
X64571681Y-89876319D01*
X64633004Y-89842834D01*
X64659362Y-89840000D01*
X67256638Y-89840000D01*
X67323677Y-89859685D01*
G37*
%TD.AperFunction*%
%TD*%
%TA.AperFunction,Conductor*%
%TO.N,OA1_OUT*%
G36*
X84967183Y-53668907D02*
G01*
X84978996Y-53678996D01*
X85771004Y-54471004D01*
X85798781Y-54525521D01*
X85800000Y-54541008D01*
X85800000Y-64908992D01*
X85781093Y-64967183D01*
X85771004Y-64978996D01*
X83200000Y-67550000D01*
X83200000Y-70578263D01*
X83181093Y-70636454D01*
X83151396Y-70663476D01*
X83127716Y-70677480D01*
X83013280Y-70791916D01*
X82930907Y-70931201D01*
X82930906Y-70931205D01*
X82885758Y-71086603D01*
X82885756Y-71086610D01*
X82882900Y-71122915D01*
X82882900Y-71592284D01*
X82885756Y-71628589D01*
X82885758Y-71628596D01*
X82930906Y-71783994D01*
X82930907Y-71783998D01*
X83013280Y-71923283D01*
X83013281Y-71923284D01*
X83013283Y-71923287D01*
X83127713Y-72037717D01*
X83127715Y-72037718D01*
X83127716Y-72037719D01*
X83151395Y-72051723D01*
X83191858Y-72097618D01*
X83200000Y-72136936D01*
X83200000Y-73158992D01*
X83181093Y-73217183D01*
X83171004Y-73228996D01*
X82933304Y-73466696D01*
X82878787Y-73494473D01*
X82818355Y-73484902D01*
X82775090Y-73441637D01*
X82764300Y-73396692D01*
X82764300Y-73269002D01*
X82764300Y-73269001D01*
X81062500Y-73269001D01*
X81062500Y-73269002D01*
X81062500Y-73423492D01*
X81043593Y-73481683D01*
X80994093Y-73517647D01*
X80932907Y-73517647D01*
X80893496Y-73493496D01*
X80778996Y-73378996D01*
X80751219Y-73324479D01*
X80750000Y-73308992D01*
X80750000Y-73276962D01*
X80750567Y-73266382D01*
X80750571Y-73266342D01*
X80750600Y-73266074D01*
X80750599Y-72258329D01*
X80750565Y-72258016D01*
X80750000Y-72247453D01*
X80750000Y-65991007D01*
X80768907Y-65932816D01*
X80778990Y-65921009D01*
X82500000Y-64200000D01*
X82500000Y-54491008D01*
X82518907Y-54432817D01*
X82528996Y-54421004D01*
X83271004Y-53678996D01*
X83325521Y-53651219D01*
X83341008Y-53650000D01*
X84908992Y-53650000D01*
X84967183Y-53668907D01*
G37*
%TD.AperFunction*%
%TD*%
%TA.AperFunction,Conductor*%
%TO.N,VMotor*%
G36*
X78017183Y-77868907D02*
G01*
X78028996Y-77878996D01*
X78321004Y-78171004D01*
X78348781Y-78225521D01*
X78350000Y-78241008D01*
X78350000Y-79758992D01*
X78331093Y-79817183D01*
X78321004Y-79828996D01*
X77978996Y-80171004D01*
X77924479Y-80198781D01*
X77908992Y-80200000D01*
X76050000Y-80200000D01*
X75350000Y-80900000D01*
X75350000Y-80900001D01*
X75350000Y-83008992D01*
X75331093Y-83067183D01*
X75321004Y-83078996D01*
X74978996Y-83421004D01*
X74924479Y-83448781D01*
X74908992Y-83450000D01*
X72891008Y-83450000D01*
X72832817Y-83431093D01*
X72821004Y-83421004D01*
X72534496Y-83134496D01*
X72506719Y-83079979D01*
X72505500Y-83064492D01*
X72505500Y-80685508D01*
X72524407Y-80627317D01*
X72534496Y-80615504D01*
X72721004Y-80428996D01*
X72775521Y-80401219D01*
X72791008Y-80400000D01*
X74000000Y-80400000D01*
X74161193Y-80238806D01*
X74183741Y-80221926D01*
X74234805Y-80194044D01*
X74281629Y-80158991D01*
X74658991Y-79781629D01*
X74673693Y-79765262D01*
X74690327Y-79744620D01*
X74721645Y-79684748D01*
X74739357Y-79660642D01*
X75050000Y-79350000D01*
X75050000Y-78091008D01*
X75068907Y-78032817D01*
X75078996Y-78021004D01*
X75221004Y-77878996D01*
X75275521Y-77851219D01*
X75291008Y-77850000D01*
X77958992Y-77850000D01*
X78017183Y-77868907D01*
G37*
%TD.AperFunction*%
%TD*%
%TA.AperFunction,Conductor*%
%TO.N,OA2*%
G36*
X80429503Y-74833550D02*
G01*
X80435981Y-74839582D01*
X80607081Y-75010682D01*
X80640566Y-75072005D01*
X80643400Y-75098363D01*
X80643400Y-76317001D01*
X84205781Y-79879382D01*
X84239266Y-79940705D01*
X84242100Y-79967063D01*
X84242100Y-80080306D01*
X84245132Y-80111105D01*
X84252670Y-80148996D01*
X84252671Y-80149001D01*
X84261654Y-80178614D01*
X84261657Y-80178624D01*
X84314281Y-80305668D01*
X84317293Y-80312940D01*
X84317298Y-80312949D01*
X84331882Y-80340235D01*
X84331885Y-80340240D01*
X84353339Y-80372350D01*
X84353343Y-80372355D01*
X84372978Y-80396281D01*
X84372986Y-80396290D01*
X84581583Y-80604887D01*
X84606695Y-80641054D01*
X84610827Y-80650102D01*
X84610829Y-80650105D01*
X84697056Y-80749617D01*
X84767716Y-80795027D01*
X84788358Y-80811662D01*
X85055449Y-81078753D01*
X85064544Y-81087161D01*
X85064557Y-81087172D01*
X85076370Y-81097261D01*
X85130123Y-81127364D01*
X85167890Y-81139634D01*
X85178277Y-81143010D01*
X85181974Y-81144211D01*
X85190462Y-81146969D01*
X85190463Y-81146969D01*
X85192590Y-81147660D01*
X85201732Y-81151033D01*
X85217443Y-81157541D01*
X85271845Y-81201383D01*
X85293909Y-81267677D01*
X85276629Y-81335376D01*
X85225491Y-81382986D01*
X85169988Y-81396101D01*
X84475541Y-81396101D01*
X84471477Y-81396501D01*
X83466724Y-81396501D01*
X83461649Y-81397001D01*
X82726762Y-81397001D01*
X82659723Y-81377316D01*
X82639081Y-81360682D01*
X78139719Y-76861320D01*
X78106234Y-76799997D01*
X78103400Y-76773639D01*
X78103400Y-75098363D01*
X78123085Y-75031324D01*
X78139719Y-75010682D01*
X78310819Y-74839582D01*
X78372142Y-74806097D01*
X78441834Y-74811081D01*
X78497767Y-74852953D01*
X78522184Y-74918417D01*
X78522500Y-74927263D01*
X78522500Y-75047001D01*
X80224300Y-75047001D01*
X80224300Y-74927263D01*
X80243985Y-74860224D01*
X80296789Y-74814469D01*
X80365947Y-74804525D01*
X80429503Y-74833550D01*
G37*
%TD.AperFunction*%
%TD*%
%TA.AperFunction,Conductor*%
%TO.N,/Motor Driver/BRA*%
G36*
X81421077Y-80400686D02*
G01*
X81441719Y-80417320D01*
X82385081Y-81360682D01*
X82418566Y-81422005D01*
X82421400Y-81448363D01*
X82421400Y-82615639D01*
X82401715Y-82682678D01*
X82385081Y-82703320D01*
X82203719Y-82884682D01*
X82142396Y-82918167D01*
X82116038Y-82921001D01*
X79932762Y-82921001D01*
X79865723Y-82901316D01*
X79845081Y-82884682D01*
X79663719Y-82703320D01*
X79630234Y-82641997D01*
X79627400Y-82615639D01*
X79627400Y-80686363D01*
X79647085Y-80619324D01*
X79663719Y-80598682D01*
X79845081Y-80417320D01*
X79906404Y-80383835D01*
X79932762Y-80381001D01*
X81354038Y-80381001D01*
X81421077Y-80400686D01*
G37*
%TD.AperFunction*%
%TD*%
%TA.AperFunction,Conductor*%
%TO.N,Net-(D12-A)*%
G36*
X73167183Y-71118907D02*
G01*
X73178996Y-71128996D01*
X74621004Y-72571004D01*
X74648781Y-72625521D01*
X74650000Y-72641008D01*
X74650000Y-74460332D01*
X74646627Y-74485952D01*
X74645499Y-74490159D01*
X74645499Y-74617810D01*
X74645500Y-74617823D01*
X74645500Y-75563492D01*
X74626593Y-75621683D01*
X74616504Y-75633496D01*
X74028996Y-76221004D01*
X73974479Y-76248781D01*
X73958992Y-76250000D01*
X72341008Y-76250000D01*
X72282817Y-76231093D01*
X72271004Y-76221004D01*
X71613492Y-75563492D01*
X70400000Y-74350000D01*
X70399999Y-74350000D01*
X66141008Y-74350000D01*
X66082817Y-74331093D01*
X66071005Y-74321004D01*
X65750000Y-74000000D01*
X64955499Y-74000000D01*
X64900499Y-73983316D01*
X64897235Y-73981135D01*
X64897232Y-73981134D01*
X64897231Y-73981133D01*
X64897228Y-73981132D01*
X64897227Y-73981132D01*
X64838758Y-73969501D01*
X64838748Y-73969500D01*
X64838747Y-73969500D01*
X64243500Y-73969500D01*
X64185309Y-73950593D01*
X64149345Y-73901093D01*
X64144500Y-73870500D01*
X64144499Y-73226821D01*
X64163406Y-73168630D01*
X64173489Y-73156823D01*
X64340594Y-72989718D01*
X64395109Y-72961943D01*
X64438483Y-72964733D01*
X64577320Y-73005500D01*
X64577321Y-73005500D01*
X64722679Y-73005500D01*
X64722680Y-73005500D01*
X64862152Y-72964547D01*
X64984436Y-72885960D01*
X65079626Y-72776104D01*
X65140011Y-72643880D01*
X65149409Y-72578514D01*
X65176403Y-72523611D01*
X65177271Y-72522728D01*
X66571004Y-71128996D01*
X66625521Y-71101219D01*
X66641008Y-71100000D01*
X73108992Y-71100000D01*
X73167183Y-71118907D01*
G37*
%TD.AperFunction*%
%TD*%
%TA.AperFunction,Conductor*%
%TO.N,OB1*%
G36*
X91537169Y-74889854D02*
G01*
X91608917Y-74919573D01*
X91641034Y-74941033D01*
X91826704Y-75126703D01*
X91854481Y-75181220D01*
X91855700Y-75196707D01*
X91855700Y-76210587D01*
X91836793Y-76268778D01*
X91826704Y-76280591D01*
X88580891Y-79526403D01*
X88526374Y-79554180D01*
X88510887Y-79555399D01*
X88259781Y-79555399D01*
X88204784Y-79538717D01*
X88202643Y-79537286D01*
X88202630Y-79537279D01*
X88175357Y-79522701D01*
X88175333Y-79522689D01*
X88159655Y-79516195D01*
X88144021Y-79508016D01*
X88099179Y-79479198D01*
X88099176Y-79479196D01*
X88099175Y-79479196D01*
X88099172Y-79479195D01*
X87972839Y-79442100D01*
X87972836Y-79442100D01*
X87841164Y-79442100D01*
X87841161Y-79442100D01*
X87836433Y-79443489D01*
X87808542Y-79447499D01*
X87716087Y-79447499D01*
X87685296Y-79450531D01*
X87685268Y-79450536D01*
X87647413Y-79458066D01*
X87647403Y-79458068D01*
X87647402Y-79458069D01*
X87647399Y-79458070D01*
X87617784Y-79467054D01*
X87617779Y-79467056D01*
X87533836Y-79501825D01*
X87533835Y-79501824D01*
X87483466Y-79522687D01*
X87483454Y-79522693D01*
X87456167Y-79537277D01*
X87456149Y-79537288D01*
X87424049Y-79558736D01*
X87424048Y-79558737D01*
X87400121Y-79578373D01*
X86957374Y-80021120D01*
X86937738Y-80045047D01*
X86937737Y-80045048D01*
X86916291Y-80077145D01*
X86916280Y-80077163D01*
X86901705Y-80104433D01*
X86901696Y-80104452D01*
X86849554Y-80230333D01*
X86849548Y-80230349D01*
X86840568Y-80259954D01*
X86833032Y-80297844D01*
X86829999Y-80328643D01*
X86829999Y-80948200D01*
X86811092Y-81006391D01*
X86761592Y-81042355D01*
X86730999Y-81047200D01*
X86692300Y-81047200D01*
X86634109Y-81028293D01*
X86598145Y-80978793D01*
X86593300Y-80948200D01*
X86593300Y-79748412D01*
X86612207Y-79690221D01*
X86622290Y-79678414D01*
X87838056Y-78462649D01*
X87846473Y-78453543D01*
X87856562Y-78441730D01*
X87869760Y-78418163D01*
X87886664Y-78387980D01*
X87896122Y-78358870D01*
X87905572Y-78329786D01*
X87913300Y-78280993D01*
X87913300Y-78280978D01*
X87913465Y-78278888D01*
X87913738Y-78278227D01*
X87913909Y-78277151D01*
X87914167Y-78277191D01*
X87936874Y-78222358D01*
X87942144Y-78216654D01*
X89072689Y-77086110D01*
X89143400Y-77015399D01*
X89143400Y-75738091D01*
X89150936Y-75700206D01*
X89206574Y-75565883D01*
X89228035Y-75533764D01*
X89685803Y-75075997D01*
X89740319Y-75048220D01*
X89755806Y-75047001D01*
X91400299Y-75047001D01*
X91400300Y-75047001D01*
X91400300Y-74981325D01*
X91419207Y-74923134D01*
X91468707Y-74887170D01*
X91529893Y-74887170D01*
X91537169Y-74889854D01*
G37*
%TD.AperFunction*%
%TD*%
D82*
X79168000Y-124025000D03*
X84948000Y-124025000D03*
D83*
X77738000Y-123525000D03*
D84*
X77738000Y-127705000D03*
D83*
X86378000Y-123525000D03*
D84*
X86378000Y-127705000D03*
D85*
X91834000Y-113388000D03*
X91834000Y-112113000D03*
X91834000Y-110838000D03*
X90559000Y-113388000D03*
X90559000Y-112113000D03*
X90559000Y-110838000D03*
X89284000Y-113388000D03*
X89284000Y-112113000D03*
X89284000Y-110838000D03*
D82*
X59708000Y-126890000D03*
D85*
X62619000Y-75470000D03*
X63569000Y-75470000D03*
X64519000Y-75470000D03*
X62619000Y-74470000D03*
X63569000Y-74470000D03*
X64519000Y-74470000D03*
D82*
X100458000Y-53090000D03*
X59708000Y-53090000D03*
X101183000Y-118915000D03*
X98643000Y-118915000D03*
X101183000Y-116375000D03*
X98643000Y-116375000D03*
X101183000Y-113835000D03*
X98643000Y-113835000D03*
X100458000Y-126890000D03*
X101908000Y-80190000D03*
X101908000Y-84690000D03*
X99418000Y-78935000D03*
X99418000Y-85945000D03*
X79050500Y-112400000D03*
X84050500Y-112400000D03*
X75974400Y-93898501D03*
X75974400Y-91398501D03*
X75974400Y-88898501D03*
X87204400Y-100128501D03*
X84704400Y-100128501D03*
X82204400Y-100128501D03*
X90454400Y-88148501D03*
X90454400Y-94648501D03*
X94954400Y-88148501D03*
X94954400Y-94648501D03*
X79704400Y-97723501D03*
X79704400Y-85073501D03*
X89704400Y-85073501D03*
X89704400Y-97723501D03*
X68698000Y-108720000D03*
X63618000Y-108720000D03*
X66158000Y-116340000D03*
X80658000Y-60140000D03*
X80658000Y-55140000D03*
X84158000Y-60140000D03*
X84158000Y-55140000D03*
X87658000Y-60140000D03*
X87658000Y-55140000D03*
X91158000Y-60140000D03*
X91158000Y-55140000D03*
X63618000Y-62720000D03*
X68698000Y-62720000D03*
X66158000Y-55100000D03*
M02*
